<svg id="Layer_1" data-name="Layer 1" xmlns="http://www.w3.org/2000/svg" viewBox="0 0 182.52 30.76"><defs><style>.cls-1{opacity:0.98;}.cls-2{fill:#002e6d;}</style></defs><title>mm-coe</title><g class="cls-1"><path class="cls-2" d="M77.38,12.7c-2-.39-2.8-.61-2.8-1.17s.45-1.06,1.72-1.06a2.59,2.59,0,0,1,2.32,1.19.37.37,0,0,0,.51.14l2.54-1.41a.36.36,0,0,0,.18-.24.36.36,0,0,0,0-.3c-1.14-1.72-2.94-2.56-5.47-2.56h-.14a6.05,6.05,0,0,0-4.31,1.58,3.88,3.88,0,0,0-1.22,2.77c0,3,2.51,3.83,5,4.27l.21,0c1.49.28,2.67.5,2.67,1.16s-.57,1.17-1.83,1.17A2.79,2.79,0,0,1,74,16.76a.41.41,0,0,0-.24-.19.34.34,0,0,0-.28,0l-2.8,1.54a.38.38,0,0,0-.18.23.34.34,0,0,0,0,.28c1.12,2,3.08,3,6,3h.12A6,6,0,0,0,81,20a4.38,4.38,0,0,0,1.36-3c0-2.89-2.41-3.77-5-4.3"/><path class="cls-2" d="M90.08,12.7c-2-.39-2.79-.61-2.79-1.17s.45-1.06,1.72-1.06a2.61,2.61,0,0,1,2.32,1.19.36.36,0,0,0,.5.14l2.54-1.41a.38.38,0,0,0,.19-.24.4.4,0,0,0,0-.3C93.36,8.13,91.57,7.29,89,7.29H88.9a6.08,6.08,0,0,0-4.32,1.58,3.91,3.91,0,0,0-1.21,2.77c0,3,2.51,3.83,5,4.27l.2,0c1.5.28,2.67.5,2.67,1.16s-.56,1.17-1.82,1.17a2.81,2.81,0,0,1-2.68-1.52.39.39,0,0,0-.23-.19.37.37,0,0,0-.29,0L83.4,18.14a.39.39,0,0,0-.19.23.38.38,0,0,0,0,.28c1.12,2,3.07,3,6,3h.12A6,6,0,0,0,93.73,20a4.37,4.37,0,0,0,1.35-3c0-2.89-2.4-3.77-5-4.3"/><path class="cls-2" d="M141.16,15.19v-4a.29.29,0,0,1,.28-.29h2.31a.35.35,0,0,0,.35-.35V7.92a.35.35,0,0,0-.35-.35h-2.31a.29.29,0,0,1-.28-.29V3.13a.35.35,0,0,0-.52-.31l-3.22,1.77a.34.34,0,0,0-.19.31V7.28a.28.28,0,0,1-.28.29h-1.43a.35.35,0,0,0-.35.35v2.61a.35.35,0,0,0,.35.35H137a.28.28,0,0,1,.28.29v4.9a5.25,5.25,0,0,0,5.25,5.23,6.49,6.49,0,0,0,1.4-.06.3.3,0,0,0,.22-.29V17.72a.19.19,0,0,0-.24-.18,2,2,0,0,1-.6.1,2.1,2.1,0,0,1-2-1.57,4.47,4.47,0,0,1-.08-.88"/><path class="cls-2" d="M149.67,14.56V7.91a.36.36,0,0,0-.35-.36h-3.25a.36.36,0,0,0-.36.36v7a7,7,0,0,0,1.67,4.83,5.77,5.77,0,0,0,4.4,1.81,6,6,0,0,0,4-1.29l.07-.06V21a.36.36,0,0,0,.36.35h3.24a.36.36,0,0,0,.36-.35v-13a.36.36,0,0,0-.36-.36h-3.24a.36.36,0,0,0-.36.36v6.58c0,2.2-1.16,3.52-3.1,3.52s-3-1.26-3-3.45"/><path class="cls-2" d="M123.46,14.56V7.91a.36.36,0,0,0-.35-.36h-3.25a.36.36,0,0,0-.36.36v7a7,7,0,0,0,1.67,4.83,5.77,5.77,0,0,0,4.4,1.81,6,6,0,0,0,4-1.29l.07-.06V21a.29.29,0,0,0,.28.28h3.4a.29.29,0,0,0,.28-.28V7.91a.36.36,0,0,0-.36-.36H130a.36.36,0,0,0-.36.36v6.58c0,2.2-1.16,3.52-3.1,3.52s-3-1.26-3-3.45"/><path class="cls-2" d="M182,0h-3.32a.35.35,0,0,0-.35.35V21a.29.29,0,0,0,.28.28H182a.29.29,0,0,0,.29-.28V.28A.29.29,0,0,0,182,0"/><path class="cls-2" d="M61.45,10.67a3.44,3.44,0,0,1,3.47,3.71,3.52,3.52,0,1,1-7,0,3.46,3.46,0,0,1,3.54-3.71M54,14.38c0,4.4,3,7.33,7.33,7.21a6.1,6.1,0,0,0,3.58-1.36v.7a.36.36,0,0,0,.36.36h3.25a.36.36,0,0,0,.35-.36v-13a.36.36,0,0,0-.35-.36H65.28a.36.36,0,0,0-.36.36v.71l-.07,0a6,6,0,0,0-3.76-1.28A6.71,6.71,0,0,0,54,14.38"/><path class="cls-2" d="M168.81,10.67a3.44,3.44,0,0,1,3.48,3.71,3.52,3.52,0,1,1-7,0,3.46,3.46,0,0,1,3.53-3.71m-7.43,3.71c0,4.4,3,7.33,7.33,7.21a6.1,6.1,0,0,0,3.58-1.36V21a.29.29,0,0,0,.28.28H176a.29.29,0,0,0,.28-.28V7.83a.29.29,0,0,0-.28-.28h-3.4a.29.29,0,0,0-.28.29v.78l-.07,0a6,6,0,0,0-3.77-1.28,6.7,6.7,0,0,0-7.07,7.09"/><path class="cls-2" d="M49.19.18,42,10.74,34.9.18A.42.42,0,0,0,34.56,0H32.09a.41.41,0,0,0-.41.41V20.89a.41.41,0,0,0,.41.41h3.15a.41.41,0,0,0,.41-.41V8.37l6.05,9a.41.41,0,0,0,.68,0l6.06-9V20.89a.4.4,0,0,0,.4.41H52a.41.41,0,0,0,.41-.41V.41A.41.41,0,0,0,52,0H49.53a.4.4,0,0,0-.34.18"/><path class="cls-2" d="M114.14.18,107,10.74,99.85.18A.4.4,0,0,0,99.51,0H97.05a.41.41,0,0,0-.41.41V20.89a.41.41,0,0,0,.41.41h3.15a.41.41,0,0,0,.41-.41V8.37l6,9a.41.41,0,0,0,.68,0l6-9V20.89a.41.41,0,0,0,.41.41H117a.41.41,0,0,0,.41-.41V.41A.41.41,0,0,0,117,0h-2.47a.42.42,0,0,0-.34.18"/><path class="cls-2" d="M26.6,18.41a3.23,3.23,0,1,0-3.23,3.22,3.23,3.23,0,0,0,3.23-3.22"/><path class="cls-2" d="M16.52,18.41a3.22,3.22,0,1,0-3.22,3.22,3.23,3.23,0,0,0,3.22-3.22"/><path class="cls-2" d="M6.44,18.41a3.22,3.22,0,1,0-3.22,3.22,3.23,3.23,0,0,0,3.22-3.22"/><path class="cls-2" d="M21.56,10.51a3.22,3.22,0,1,0-3.22,3.22,3.22,3.22,0,0,0,3.22-3.22"/><path class="cls-2" d="M11.49,10.51a3.22,3.22,0,1,0-3.22,3.22,3.22,3.22,0,0,0,3.22-3.22"/></g><g class="cls-1"><path class="cls-2" d="M34,29.14a2.16,2.16,0,1,1,0-4.31,2.12,2.12,0,0,1,1.76.92.13.13,0,0,1,0,.19l-.46.3a.13.13,0,0,1-.19,0A1.21,1.21,0,0,0,34,25.62a1.36,1.36,0,0,0,0,2.72,1.27,1.27,0,0,0,1.13-.66.13.13,0,0,1,.19-.05l.48.25a.14.14,0,0,1,0,.19A2.11,2.11,0,0,1,34,29.14Z"/><path class="cls-2" d="M37.58,29.14a1.47,1.47,0,0,1-1.52-1.49,1.5,1.5,0,0,1,1.5-1.5A1.44,1.44,0,0,1,39,27.64v.15a.14.14,0,0,1-.14.14H36.82a.73.73,0,0,0,.77.52.72.72,0,0,0,.63-.33.15.15,0,0,1,.2,0l.39.23a.13.13,0,0,1,0,.18A1.46,1.46,0,0,1,37.58,29.14Zm0-2.3a.74.74,0,0,0-.7.45h1.39A.68.68,0,0,0,37.56,26.84Z"/><path class="cls-2" d="M39.51,29.08a.13.13,0,0,1-.14-.13v-2.6a.14.14,0,0,1,.14-.14H40a.14.14,0,0,1,.14.14v.25a1.06,1.06,0,0,1,.88-.45,1.07,1.07,0,0,1,1.12,1.21V29a.14.14,0,0,1-.14.13h-.52a.13.13,0,0,1-.14-.13V27.46a.57.57,0,0,0-.59-.64c-.35,0-.6.24-.6.72V29a.14.14,0,0,1-.14.13Z"/><path class="cls-2" d="M42.49,26.91a.13.13,0,0,1-.14-.13v-.43a.14.14,0,0,1,.14-.14h.35V25.8a.26.26,0,0,1,.12-.21l.55-.29a.07.07,0,0,1,.12.07v.84H44a.14.14,0,0,1,.14.14v.43a.13.13,0,0,1-.14.13h-.4v.92c0,.4,0,.5.4.52a.14.14,0,0,1,.14.14v.43a.15.15,0,0,1-.16.16c-.89,0-1.17-.31-1.17-1.24v-.93Z"/><path class="cls-2" d="M45.86,29.14a1.48,1.48,0,0,1-1.52-1.49,1.5,1.5,0,0,1,1.5-1.5,1.44,1.44,0,0,1,1.48,1.49v.15a.14.14,0,0,1-.13.14H45.1a.74.74,0,0,0,.77.52.75.75,0,0,0,.64-.33.13.13,0,0,1,.19,0l.39.23a.13.13,0,0,1,0,.18A1.45,1.45,0,0,1,45.86,29.14Zm0-2.3a.75.75,0,0,0-.71.45h1.39A.67.67,0,0,0,45.85,26.84Z"/><path class="cls-2" d="M47.79,29.08a.13.13,0,0,1-.14-.13v-2.6a.14.14,0,0,1,.14-.14h.5a.14.14,0,0,1,.14.14v.33a.82.82,0,0,1,.8-.47h.15a.13.13,0,0,1,.13.14v.48a.13.13,0,0,1-.13.14H49c-.42,0-.6.22-.6.76V29a.13.13,0,0,1-.14.13Z"/><path class="cls-2" d="M52.35,29.14a1.5,1.5,0,1,1,1.49-1.49A1.49,1.49,0,0,1,52.35,29.14Zm0-.75a.75.75,0,0,0,0-1.49.75.75,0,0,0,0,1.49Z"/><path class="cls-2" d="M54.13,26.91a.13.13,0,0,1-.14-.13v-.43a.14.14,0,0,1,.14-.14h.35v-.08c0-.93.31-1.25,1.2-1.25a.12.12,0,0,1,.13.13v.47a.14.14,0,0,1-.14.14c-.36,0-.4.12-.4.52v.07h.4a.14.14,0,0,1,.14.14v.43a.13.13,0,0,1-.14.13h-.4v2a.13.13,0,0,1-.14.13h-.51a.13.13,0,0,1-.14-.13v-2Z"/><path class="cls-2" d="M57.4,29.08a.14.14,0,0,1-.14-.13V25a.15.15,0,0,1,.14-.14h2.22a.14.14,0,0,1,.13.14v.49a.13.13,0,0,1-.13.14H58.06v.94h1.56a.14.14,0,0,1,.13.14v.49a.14.14,0,0,1-.13.14H58.06v1h1.56a.13.13,0,0,1,.13.14V29a.13.13,0,0,1-.13.13Z"/><path class="cls-2" d="M60.08,29.08A.07.07,0,0,1,60,29l1-1.35-.94-1.3a.07.07,0,0,1,.06-.11h.68a.27.27,0,0,1,.22.11l.48.69.47-.69a.27.27,0,0,1,.22-.11h.65a.07.07,0,0,1,0,.11L62,27.63,63,29a.07.07,0,0,1,0,.11h-.69A.28.28,0,0,1,62,29l-.52-.73L61,29a.27.27,0,0,1-.22.11Z"/><path class="cls-2" d="M64.35,29.14a1.5,1.5,0,1,1,1.33-2.21.14.14,0,0,1-.06.18l-.44.19a.17.17,0,0,1-.21-.06.71.71,0,0,0-.61-.34.75.75,0,0,0,0,1.49.71.71,0,0,0,.61-.34.17.17,0,0,1,.21-.06l.44.19a.14.14,0,0,1,.06.18A1.48,1.48,0,0,1,64.35,29.14Z"/><path class="cls-2" d="M67.43,29.14a1.47,1.47,0,0,1-1.51-1.49,1.49,1.49,0,0,1,1.49-1.5,1.44,1.44,0,0,1,1.48,1.49v.15a.14.14,0,0,1-.13.14H66.67a.81.81,0,0,0,1.41.19.13.13,0,0,1,.19,0l.39.23a.14.14,0,0,1,0,.18A1.48,1.48,0,0,1,67.43,29.14Zm0-2.3a.75.75,0,0,0-.71.45H68.1A.67.67,0,0,0,67.42,26.84Z"/><path class="cls-2" d="M69.22,25a.14.14,0,0,1,.14-.14h.51A.14.14,0,0,1,70,25V29a.13.13,0,0,1-.14.13h-.51a.13.13,0,0,1-.14-.13Z"/><path class="cls-2" d="M70.44,25a.15.15,0,0,1,.14-.14h.51a.14.14,0,0,1,.14.14V29a.13.13,0,0,1-.14.13h-.51a.14.14,0,0,1-.14-.13Z"/><path class="cls-2" d="M73.07,29.14a1.47,1.47,0,0,1-1.52-1.49A1.5,1.5,0,0,1,73,26.15a1.45,1.45,0,0,1,1.49,1.49v.15a.14.14,0,0,1-.14.14H72.31a.73.73,0,0,0,.76.52.75.75,0,0,0,.64-.33.15.15,0,0,1,.2,0l.38.23a.13.13,0,0,1,0,.18A1.46,1.46,0,0,1,73.07,29.14Zm0-2.3a.76.76,0,0,0-.71.45h1.39A.67.67,0,0,0,73.05,26.84Z"/><path class="cls-2" d="M75,29.08a.14.14,0,0,1-.14-.13v-2.6a.14.14,0,0,1,.14-.14h.51a.14.14,0,0,1,.14.14v.25a1,1,0,0,1,.88-.45,1.06,1.06,0,0,1,1.11,1.21V29a.13.13,0,0,1-.14.13H77a.14.14,0,0,1-.14-.13V27.46a.56.56,0,0,0-.58-.64c-.35,0-.61.24-.61.72V29a.13.13,0,0,1-.14.13Z"/><path class="cls-2" d="M79.44,29.14a1.5,1.5,0,1,1,1.33-2.21.14.14,0,0,1-.06.18l-.44.19a.17.17,0,0,1-.21-.06.71.71,0,0,0-.61-.34.75.75,0,0,0,0,1.49.71.71,0,0,0,.61-.34.17.17,0,0,1,.21-.06l.44.19a.14.14,0,0,1,.06.18A1.48,1.48,0,0,1,79.44,29.14Z"/><path class="cls-2" d="M82.52,29.14A1.47,1.47,0,0,1,81,27.65a1.49,1.49,0,0,1,1.49-1.5A1.45,1.45,0,0,1,84,27.64v.15a.15.15,0,0,1-.14.14H81.77a.73.73,0,0,0,.76.52.75.75,0,0,0,.64-.33.13.13,0,0,1,.19,0l.39.23a.14.14,0,0,1,0,.18A1.47,1.47,0,0,1,82.52,29.14Zm0-2.3a.75.75,0,0,0-.71.45h1.39A.67.67,0,0,0,82.51,26.84Z"/><path class="cls-2" d="M85.31,25.45a.45.45,0,0,1,.47-.48.46.46,0,0,1,.48.48.45.45,0,0,1-.48.47A.45.45,0,0,1,85.31,25.45Zm.22,3.63a.13.13,0,0,1-.14-.13v-2.6a.14.14,0,0,1,.14-.14H86a.14.14,0,0,1,.14.14V29a.14.14,0,0,1-.14.13Z"/><path class="cls-2" d="M86.72,29.08a.13.13,0,0,1-.14-.13v-2.6a.14.14,0,0,1,.14-.14h.51a.13.13,0,0,1,.13.14v.25a1.06,1.06,0,0,1,.88-.45,1.07,1.07,0,0,1,1.12,1.21V29a.13.13,0,0,1-.14.13H88.7a.13.13,0,0,1-.14-.13V27.46a.57.57,0,0,0-.59-.64c-.35,0-.6.24-.6.72V29a.13.13,0,0,1-.14.13Z"/><path class="cls-2" d="M92.91,29.14a2.16,2.16,0,0,1,0-4.31,2.12,2.12,0,0,1,1.77.92.14.14,0,0,1,0,.19l-.47.3a.13.13,0,0,1-.19,0,1.18,1.18,0,0,0-1.07-.58,1.36,1.36,0,0,0,0,2.72A1.27,1.27,0,0,0,94,27.68a.13.13,0,0,1,.18-.05l.49.25a.14.14,0,0,1,0,.19A2.13,2.13,0,0,1,92.91,29.14Z"/><path class="cls-2" d="M96.51,29.14A1.5,1.5,0,1,1,98,27.65,1.49,1.49,0,0,1,96.51,29.14Zm0-.75a.75.75,0,0,0,0-1.49.75.75,0,0,0,0,1.49Z"/><path class="cls-2" d="M98.46,29.08a.13.13,0,0,1-.14-.13v-2.6a.14.14,0,0,1,.14-.14H99a.14.14,0,0,1,.14.14v.24a1,1,0,0,1,.83-.44,1,1,0,0,1,.94.49,1.1,1.1,0,0,1,.94-.49A1.06,1.06,0,0,1,103,27.33V29a.13.13,0,0,1-.13.13h-.53a.14.14,0,0,1-.14-.13V27.43c0-.38-.19-.61-.56-.61s-.57.21-.57.69V29a.13.13,0,0,1-.14.13h-.52a.13.13,0,0,1-.14-.13V27.43a.54.54,0,0,0-.56-.61c-.3,0-.57.21-.57.69V29a.14.14,0,0,1-.14.13Z"/><path class="cls-2" d="M105.05,29.14a1.17,1.17,0,0,1-.88-.34v1.47a.14.14,0,0,1-.14.14h-.51a.15.15,0,0,1-.14-.14V26.35a.14.14,0,0,1,.14-.14H104a.14.14,0,0,1,.14.14v.18a1.11,1.11,0,0,1,.86-.38,1.5,1.5,0,0,1,0,3Zm-.16-.72a.77.77,0,0,0,.77-.78.76.76,0,0,0-.77-.77.74.74,0,0,0-.74.77A.75.75,0,0,0,104.89,28.42Z"/><path class="cls-2" d="M106.72,25a.15.15,0,0,1,.14-.14h.51a.14.14,0,0,1,.14.14V29a.13.13,0,0,1-.14.13h-.51a.14.14,0,0,1-.14-.13Z"/><path class="cls-2" d="M109.35,29.14a1.47,1.47,0,0,1-1.52-1.49,1.5,1.5,0,0,1,1.5-1.5,1.44,1.44,0,0,1,1.48,1.49v.15a.14.14,0,0,1-.14.14h-2.08a.73.73,0,0,0,.77.52.72.72,0,0,0,.63-.33.15.15,0,0,1,.2,0l.38.23a.12.12,0,0,1,.05.18A1.46,1.46,0,0,1,109.35,29.14Zm0-2.3a.76.76,0,0,0-.71.45H110A.68.68,0,0,0,109.33,26.84Z"/><path class="cls-2" d="M110.9,29.08a.07.07,0,0,1-.06-.11l1-1.35-.94-1.3a.07.07,0,0,1,.06-.11h.68a.27.27,0,0,1,.22.11l.48.69.47-.69a.27.27,0,0,1,.22-.11h.65a.07.07,0,0,1,0,.11l-.91,1.31,1,1.34a.07.07,0,0,1-.05.11h-.69a.27.27,0,0,1-.22-.11l-.52-.73-.51.73a.27.27,0,0,1-.22.11Z"/><path class="cls-2" d="M116.65,29.14a2.07,2.07,0,0,1-1.56-.65.14.14,0,0,1,0-.19l.51-.4a.13.13,0,0,1,.19,0,1,1,0,0,0,.83.45.57.57,0,0,0,.63-.56c0-.34-.42-.45-.87-.59s-1.19-.39-1.19-1.2a1.28,1.28,0,0,1,1.4-1.2,1.74,1.74,0,0,1,1.31.51.11.11,0,0,1,0,.18l-.43.33a.16.16,0,0,1-.21,0,.82.82,0,0,0-.66-.29c-.37,0-.57.2-.57.47s.4.43.85.58,1.21.43,1.21,1.24A1.35,1.35,0,0,1,116.65,29.14Z"/><path class="cls-2" d="M118.71,30.41a.09.09,0,0,1-.09-.12l.54-1.33-1.09-2.63a.08.08,0,0,1,.08-.12h.56a.21.21,0,0,1,.19.12l.65,1.65.62-1.65a.2.2,0,0,1,.18-.12h.54a.09.09,0,0,1,.09.12l-1.57,4a.21.21,0,0,1-.19.12Z"/><path class="cls-2" d="M123.4,26.62a.12.12,0,0,1,0,.17L123,27a.16.16,0,0,1-.22,0,.58.58,0,0,0-.47-.19c-.26,0-.37.11-.37.24s.16.17.6.26,1,.27,1,.89c0,.46-.34,1-1.22,1a1.44,1.44,0,0,1-1.26-.55.13.13,0,0,1,0-.18l.46-.25a.14.14,0,0,1,.2,0,.7.7,0,0,0,.59.26c.27,0,.39-.11.39-.26s-.27-.2-.61-.26c-.51-.09-1-.27-1-.89s.46-.91,1.18-.9A1.31,1.31,0,0,1,123.4,26.62Z"/><path class="cls-2" d="M123.89,26.91a.13.13,0,0,1-.14-.13v-.43a.14.14,0,0,1,.14-.14h.35V25.8a.26.26,0,0,1,.12-.21l.55-.29a.08.08,0,0,1,.12.07v.84h.4a.14.14,0,0,1,.14.14v.43a.13.13,0,0,1-.14.13H125v.92c0,.4,0,.5.4.52a.14.14,0,0,1,.14.14v.43a.15.15,0,0,1-.16.16c-.89,0-1.17-.31-1.17-1.24v-.93Z"/><path class="cls-2" d="M127.26,29.14a1.47,1.47,0,0,1-1.52-1.49,1.5,1.5,0,0,1,1.5-1.5,1.44,1.44,0,0,1,1.48,1.49v.15a.14.14,0,0,1-.13.14H126.5a.74.74,0,0,0,.77.52.75.75,0,0,0,.64-.33.13.13,0,0,1,.19,0l.39.23a.13.13,0,0,1,0,.18A1.45,1.45,0,0,1,127.26,29.14Zm0-2.3a.74.74,0,0,0-.7.45h1.39A.67.67,0,0,0,127.24,26.84Z"/><path class="cls-2" d="M129.19,29.08a.13.13,0,0,1-.14-.13v-2.6a.14.14,0,0,1,.14-.14h.5a.14.14,0,0,1,.14.14v.24a.93.93,0,0,1,.83-.44,1,1,0,0,1,.94.49,1.1,1.1,0,0,1,.94-.49,1.06,1.06,0,0,1,1.16,1.18V29a.13.13,0,0,1-.13.13H133a.14.14,0,0,1-.14-.13V27.43c0-.38-.19-.61-.56-.61s-.57.21-.57.69V29a.13.13,0,0,1-.14.13h-.52A.13.13,0,0,1,131,29V27.43a.54.54,0,0,0-.56-.61c-.3,0-.57.21-.57.69V29a.14.14,0,0,1-.14.13Z"/><path class="cls-2" d="M136.34,26.62a.13.13,0,0,1,0,.17l-.41.22a.15.15,0,0,1-.21,0,.6.6,0,0,0-.47-.19c-.26,0-.38.11-.38.24s.17.17.6.26,1,.27,1,.89c0,.46-.35,1-1.23,1a1.41,1.41,0,0,1-1.25-.55.13.13,0,0,1,0-.18l.46-.25a.15.15,0,0,1,.21,0,.68.68,0,0,0,.58.26c.27,0,.4-.11.4-.26s-.28-.2-.61-.26c-.52-.09-1-.27-1-.89s.47-.91,1.18-.9A1.33,1.33,0,0,1,136.34,26.62Z"/><path class="cls-2" d="M139.18,29.14a1.5,1.5,0,0,1,0-3,1.16,1.16,0,0,1,.86.34v-.15a.13.13,0,0,1,.14-.13h.51a.14.14,0,0,1,.14.14V29a.14.14,0,0,1-.14.13h-.51a.13.13,0,0,1-.14-.13v-.19A1.11,1.11,0,0,1,139.18,29.14Zm.15-.72a.75.75,0,0,0,.74-.78.74.74,0,0,0-.74-.77.76.76,0,0,0-.77.77A.77.77,0,0,0,139.33,28.42Z"/><path class="cls-2" d="M141.41,29.08a.14.14,0,0,1-.14-.13v-2.6a.14.14,0,0,1,.14-.14h.51a.14.14,0,0,1,.14.14v.25a1,1,0,0,1,.88-.45,1.06,1.06,0,0,1,1.11,1.21V29a.13.13,0,0,1-.14.13h-.52a.14.14,0,0,1-.14-.13V27.46a.56.56,0,0,0-.58-.64c-.36,0-.61.24-.61.72V29a.13.13,0,0,1-.14.13Z"/><path class="cls-2" d="M145.76,29.14a1.5,1.5,0,0,1,0-3,1.17,1.17,0,0,1,.86.34V25a.14.14,0,0,1,.14-.14h.51a.15.15,0,0,1,.14.14V29a.14.14,0,0,1-.14.13h-.51a.13.13,0,0,1-.14-.13v-.19A1.11,1.11,0,0,1,145.76,29.14Zm.15-.72a.75.75,0,0,0,.74-.78.74.74,0,0,0-.74-.77.76.76,0,0,0-.77.77A.77.77,0,0,0,145.91,28.42Z"/><path class="cls-2" d="M149.07,29.08a.13.13,0,0,1-.14-.13V25a.14.14,0,0,1,.14-.14h1a2,2,0,0,1,2.22,2.1,2.07,2.07,0,0,1-2.18,2.1Zm.91-3.45h-.25v2.71H150A1.35,1.35,0,0,0,151.49,27C151.49,26.19,151,25.63,150,25.63Z"/><path class="cls-2" d="M153.91,29.14a1.5,1.5,0,0,1,0-3,1.15,1.15,0,0,1,.85.34v-.15a.14.14,0,0,1,.14-.13h.51a.14.14,0,0,1,.14.14V29a.13.13,0,0,1-.14.13h-.51a.14.14,0,0,1-.14-.13v-.19A1.1,1.1,0,0,1,153.91,29.14Zm.16-.72a.75.75,0,0,0,.74-.78.74.74,0,0,0-.74-.77.75.75,0,0,0-.77.77A.76.76,0,0,0,154.07,28.42Z"/><path class="cls-2" d="M156.06,26.91a.14.14,0,0,1-.14-.13v-.43a.14.14,0,0,1,.14-.14h.35V25.8a.26.26,0,0,1,.12-.21l.55-.29a.07.07,0,0,1,.12.07v.84h.4a.14.14,0,0,1,.14.14v.43a.13.13,0,0,1-.14.13h-.4v.92c0,.4,0,.5.4.52a.14.14,0,0,1,.14.14v.43a.15.15,0,0,1-.16.16c-.89,0-1.17-.31-1.17-1.24v-.93Z"/><path class="cls-2" d="M159.3,29.14a1.5,1.5,0,0,1,0-3,1.16,1.16,0,0,1,.86.34v-.15a.13.13,0,0,1,.14-.13h.51a.14.14,0,0,1,.14.14V29a.14.14,0,0,1-.14.13h-.51a.13.13,0,0,1-.14-.13v-.19A1.11,1.11,0,0,1,159.3,29.14Zm.16-.72a.75.75,0,0,0,.73-.78.74.74,0,0,0-.73-.77.75.75,0,0,0-.77.77A.76.76,0,0,0,159.46,28.42Z"/><path class="cls-2" d="M163.9,29.14a2.07,2.07,0,0,1-1.56-.65.14.14,0,0,1,0-.19l.51-.4a.13.13,0,0,1,.19,0,1,1,0,0,0,.83.45.57.57,0,0,0,.63-.56c0-.34-.42-.45-.87-.59s-1.19-.39-1.19-1.2a1.28,1.28,0,0,1,1.4-1.2,1.74,1.74,0,0,1,1.31.51.11.11,0,0,1,0,.18l-.43.33a.14.14,0,0,1-.2,0,.86.86,0,0,0-.67-.29c-.37,0-.57.2-.57.47s.4.43.85.58,1.21.43,1.21,1.24A1.35,1.35,0,0,1,163.9,29.14Z"/><path class="cls-2" d="M167.17,29.14a1.5,1.5,0,0,1,0-3,1.46,1.46,0,0,1,1.33.78.14.14,0,0,1-.06.18l-.44.19a.16.16,0,0,1-.2-.06.75.75,0,1,0,0,.81A.16.16,0,0,1,168,28l.44.19a.14.14,0,0,1,.06.18A1.46,1.46,0,0,1,167.17,29.14Z"/><path class="cls-2" d="M168.77,25.45a.48.48,0,1,1,.95,0,.48.48,0,0,1-.95,0Zm.22,3.63a.14.14,0,0,1-.14-.13v-2.6a.14.14,0,0,1,.14-.14h.51a.14.14,0,0,1,.14.14V29a.13.13,0,0,1-.14.13Z"/><path class="cls-2" d="M171.48,29.14A1.47,1.47,0,0,1,170,27.65a1.5,1.5,0,0,1,1.49-1.5,1.45,1.45,0,0,1,1.49,1.49v.15a.15.15,0,0,1-.14.14h-2.08a.73.73,0,0,0,.76.52.75.75,0,0,0,.64-.33.15.15,0,0,1,.2,0l.38.23a.13.13,0,0,1,.05.18A1.46,1.46,0,0,1,171.48,29.14Zm0-2.3a.76.76,0,0,0-.71.45h1.39A.67.67,0,0,0,171.46,26.84Z"/><path class="cls-2" d="M173.4,29.08a.14.14,0,0,1-.14-.13v-2.6a.14.14,0,0,1,.14-.14h.51a.14.14,0,0,1,.14.14v.25a1,1,0,0,1,.88-.45A1.06,1.06,0,0,1,176,27.36V29a.13.13,0,0,1-.13.13h-.53a.14.14,0,0,1-.14-.13V27.46a.56.56,0,0,0-.58-.64c-.35,0-.61.24-.61.72V29a.13.13,0,0,1-.14.13Z"/><path class="cls-2" d="M177.85,29.14a1.5,1.5,0,0,1,0-3,1.46,1.46,0,0,1,1.33.78.14.14,0,0,1-.06.18l-.44.19a.16.16,0,0,1-.2-.06.75.75,0,1,0,0,.81.16.16,0,0,1,.2-.06l.44.19a.14.14,0,0,1,.06.18A1.46,1.46,0,0,1,177.85,29.14Z"/><path class="cls-2" d="M180.94,29.14a1.47,1.47,0,0,1-1.52-1.49,1.49,1.49,0,0,1,1.49-1.5,1.45,1.45,0,0,1,1.49,1.49v.15a.15.15,0,0,1-.14.14h-2.08a.73.73,0,0,0,.76.52.75.75,0,0,0,.64-.33.15.15,0,0,1,.2,0l.38.23a.14.14,0,0,1,.05.18A1.46,1.46,0,0,1,180.94,29.14Zm0-2.3a.75.75,0,0,0-.71.45h1.39A.67.67,0,0,0,180.92,26.84Z"/></g></svg>