<svg id="Layer_1" data-name="Layer 1" xmlns="http://www.w3.org/2000/svg" viewBox="0 0 228.5 50.25"><defs><style>.cls-1{fill:#426d61;}</style></defs><title>uvm-cems</title><path class="cls-1" d="M219.58,46.46a4.71,4.71,0,0,0,3.19,1.32,2.79,2.79,0,0,0,3-2.65c0-3-4.07-2.53-4.07-4,0-.68.72-1,1.37-1a2.33,2.33,0,0,1,1.52.58l.88-1.26a4.06,4.06,0,0,0-2.56-.83A2.67,2.67,0,0,0,220,41.19a2.22,2.22,0,0,0,1.25,2c1.19.7,2.82.84,2.82,2a1.16,1.16,0,0,1-1.28,1.11,2.91,2.91,0,0,1-2.08-1Zm-2.08-6.12V38.83h-5.29v8.82h5.42V46.14h-3.72V43.68h2.71V42.17h-2.71V40.34Zm-11.43-.12a3,3,0,0,1,2.15.91L209.31,40a4.56,4.56,0,0,0-3.22-1.26,4.54,4.54,0,1,0,0,9.07,4.65,4.65,0,0,0,3.71-1.69l-1.18-1a3.08,3.08,0,0,1-2.49,1.22,3,3,0,0,1-.08-6.05m-15,7.43h1.7V41.91l4.91,5.74h1.2V38.83h-1.7v5.75l-4.92-5.75h-1.19Zm-2.78-7.31V38.83H183v8.82h5.42V46.14h-3.72V43.68h2.71V42.17h-2.71V40.34Zm-10.14,7.31h1.7V38.83h-1.7Zm-6.14-7.43a3,3,0,0,1,2.15.91L175.29,40a4.56,4.56,0,0,0-3.22-1.26,4.54,4.54,0,1,0,0,9.07,4.65,4.65,0,0,0,3.71-1.69l-1.18-1a3.08,3.08,0,0,1-2.49,1.22,3,3,0,0,1-.08-6.05m-12.88,6.24a4.68,4.68,0,0,0,3.18,1.32,2.8,2.8,0,0,0,3-2.65c0-3-4.07-2.53-4.07-4,0-.68.72-1,1.36-1a2.33,2.33,0,0,1,1.52.58l.89-1.26a4.08,4.08,0,0,0-2.56-.83,2.67,2.67,0,0,0-2.91,2.48,2.2,2.2,0,0,0,1.25,2c1.18.7,2.82.84,2.82,2a1.16,1.16,0,0,1-1.29,1.11,2.94,2.94,0,0,1-2.08-1Zm-10.9,1.19h5.41V46.14H150V38.83h-1.7Zm-6.53-6.07,1.12,2.61h-2.24Zm-2.6,6.07L140,45.7h3.54l.83,1.95h1.77l-3.78-8.82h-1.19l-3.78,8.82ZM132,40.22a3,3,0,0,1,2.14.91L135.22,40A4.56,4.56,0,0,0,132,38.71a4.54,4.54,0,1,0,0,9.07,4.62,4.62,0,0,0,3.71-1.69l-1.17-1a3.12,3.12,0,0,1-2.5,1.22,3,3,0,0,1-.07-6.05m-8.86,7.43h1.7V38.83h-1.7Zm-8.82-8.82v1.51h2.33v7.31h1.7V40.34h2.33V38.83Zm-5.14,2.75,1.12,2.61h-2.24Zm-2.6,6.07.83-1.95H111l.83,1.95h1.77l-3.78-8.82h-1.19l-3.78,8.82ZM95,38.83H93.84v8.82h1.7V42.74l2.11,3.46h1.19L101,42.74v4.91h1.7V38.83h-1.19l-3.21,5.28Zm-4,1.51V38.83H85.77v8.82h5.42V46.14H87.47V43.68h2.71V42.17H87.47V40.34ZM80.92,47.65h1.7V38.83h-1.7v3.34H76.51V38.83h-1.7v8.82h1.7v-4h4.41ZM66,38.83v1.51h2.33v7.31H70V40.34h2.33V38.83Zm-5.14,2.75L62,44.19H59.73Zm-2.6,6.07.83-1.95h3.55l.83,1.95h1.77l-3.78-8.82H60.26l-3.78,8.82ZM46.71,38.83H45.52v8.82h1.7V42.74l2.11,3.46h1.19l2.11-3.46v4.91h1.7V38.83H53.14l-3.22,5.28Z"/><path class="cls-1" d="M215,22.75v11.9h3.74a6.51,6.51,0,0,0,4.1-1.12,6.11,6.11,0,0,0,0-9.65,6.51,6.51,0,0,0-4.1-1.13Zm7.91,5.95a4.19,4.19,0,0,1-.87,2.59,3.63,3.63,0,0,1-3,1.32h-1.7V24.79H219a3.64,3.64,0,0,1,3,1.33,4.18,4.18,0,0,1,.87,2.58m-23,5.95h2.29V26.9l6.63,7.75h1.62V22.75h-2.3v7.76l-6.63-7.76h-1.61Zm-9.06-8.19L192.36,30h-3Zm-3.51,8.19L188.47,32h4.77l1.13,2.63h2.39l-5.1-11.9h-1.61L185,34.65Zm-16.11-10a4.07,4.07,0,0,1,2.89,1.23l1.48-1.57a6.22,6.22,0,0,0-4.35-1.7,6.12,6.12,0,1,0,0,12.24,6.27,6.27,0,0,0,5-2.27V27.26h-5.36v2H174v2.57a4.17,4.17,0,0,1-2.65.91,4.08,4.08,0,0,1-.1-8.16m-20.45,10h2.29V26.9l6.63,7.75h1.62V22.75H159v7.76l-6.63-7.76h-1.61Zm-6.8,0h2.29V22.75H144ZM133.1,27.34V24.79H135a1.43,1.43,0,0,1,1.16.38,1.39,1.39,0,0,1,0,1.82,1.43,1.43,0,0,1-1.16.35Zm.83,2,4.23,5.27H141l-4.45-5.45a3.13,3.13,0,0,0,1.19-.7,3.34,3.34,0,0,0,0-4.86,3.59,3.59,0,0,0-2.6-.89H130.8v11.9h2.3V29.38Zm-7.12-4.59v-2h-7.14v11.9H127v-2h-5V29.3h3.66v-2H122V24.79Zm-11.14,0v-2h-7.14v11.9h7.31v-2h-5V29.3h3.65v-2h-3.65V24.79ZM93.49,34.65h2.29V26.9l6.63,7.75H104V22.75h-2.3v7.76L95.1,22.75H93.49Zm-6.8,0H89V22.75H86.69Zm-9.21-10a4.07,4.07,0,0,1,2.89,1.23l1.47-1.57a6.21,6.21,0,0,0-4.35-1.7,6.12,6.12,0,1,0,0,12.24,6.24,6.24,0,0,0,5-2.27V27.26H77.17v2h3.06v2.57a4.17,4.17,0,0,1-2.65.91,4.08,4.08,0,0,1-.1-8.16M57,34.65h2.3V26.9L66,34.65h1.61V22.75H65.27v7.76l-6.63-7.76H57Zm-4-9.86v-2H45.89v11.9H53.2v-2h-5V29.3h3.66v-2H48.18V24.79Z"/><path class="cls-1" d="M220.47,12.3h2v6.35h1.05V12.3h2v-1h-5Zm-3.22,6.35H218V11.3h-1v5.4l-4.42-5.4h-.73v7.35h1.05V13.26ZM202.79,15A2.63,2.63,0,1,1,208,15a2.63,2.63,0,1,1-5.25,0m-1,0a3.68,3.68,0,1,0,7.35,0,3.68,3.68,0,1,0-7.35,0M198,13.71v4.94h1V11.3h-.73l-2.84,4.49-2.83-4.49h-.74v7.35h1V13.71l2.16,3.37h.73Zm-13.14.48V12.3h1.47a1.18,1.18,0,0,1,.88.27,1,1,0,0,1,0,1.35,1.14,1.14,0,0,1-.88.27Zm.84,1,2.61,3.46h1.27l-2.63-3.5a1.8,1.8,0,0,0,.86-.39,1.94,1.94,0,0,0,.72-1.51,2,2,0,0,0-.72-1.52,2.14,2.14,0,0,0-1.43-.43H183.8v7.35h1V15.19Zm-7.9-1V12.3h3.15v-1h-4.2v7.35h4.31v-1h-3.26V15.19h2.42v-1Zm-3.48-2.89h-1.1l-2.16,5.55-2.16-5.55H167.8l2.88,7.35h.74Zm-15,2.89V12.3h3.15v-1h-4.2v7.35h1V15.19h2.42v-1Zm-10,.79a2.63,2.63,0,1,1,5.26,0,2.63,2.63,0,1,1-5.26,0m-1,0a3.67,3.67,0,1,0,7.34,0,3.67,3.67,0,1,0-7.34,0M142.6,11.3h-1.18l-1.87,2.95-1.87-2.95h-1.17l2.52,4v3.36h1.05V15.29Zm-13.1,1h2v6.35h1.05V12.3h2v-1h-5ZM126,18.65h1V11.3h-1Zm-7.61-1.12a3.3,3.3,0,0,0,2.58,1.23,2.12,2.12,0,0,0,2.27-2.13,1.94,1.94,0,0,0-.95-1.68c-1-.63-2.51-.83-2.51-1.77a1.09,1.09,0,0,1,1.22-1,2,2,0,0,1,1.31.5l.62-.77a3.06,3.06,0,0,0-2-.73,2.07,2.07,0,0,0-2.22,2,1.88,1.88,0,0,0,.93,1.62c1,.64,2.53.77,2.53,1.89a1.18,1.18,0,0,1-1.28,1.1,2.35,2.35,0,0,1-1.79-.94ZM112,14.19V12.3h1.47a1.18,1.18,0,0,1,.88.27,1,1,0,0,1,0,1.35,1.14,1.14,0,0,1-.88.27Zm.84,1,2.61,3.46h1.27l-2.63-3.5a1.8,1.8,0,0,0,.86-.39,1.94,1.94,0,0,0,.72-1.51,2,2,0,0,0-.72-1.52,2.14,2.14,0,0,0-1.43-.43h-2.57v7.35h1V15.19Zm-7.9-1V12.3h3.15v-1h-4.2v7.35h4.31v-1h-3.26V15.19h2.42v-1Zm-3.48-2.89h-1.09l-2.17,5.55L96,11.3H94.94l2.88,7.35h.74Zm-10,7.35h1V11.3h-1Zm-4,0h.73V11.3h-1v5.4l-4.41-5.4H82v7.35h1V13.26Zm-11.68.11a3.08,3.08,0,0,0,2.28-1,3,3,0,0,0,.77-2.18V11.3h-1v4.36a2,2,0,0,1-.46,1.45,2.14,2.14,0,0,1-3.07,0,2,2,0,0,1-.46-1.45V11.3h-1v4.31a3,3,0,0,0,.77,2.18,3.07,3.07,0,0,0,2.27,1M62.7,14.19V12.3h3.15v-1h-4.2v7.35H66v-1H62.7V15.19h2.42v-1Zm-5.37,4.46h1.05V11.3H57.33v2.89h-4.1V11.3h-1v7.35h1V15.19h4.1ZM44.65,12.3h2v6.35H47.7V12.3h2v-1h-5Z"/><polygon class="cls-1" points="24.38 20.18 23.36 20.18 21.62 10.16 22.64 20.18 21.43 20.18 21.43 8.68 24.38 20.18"/><polygon class="cls-1" points="25.61 22.38 25.61 21.84 24.87 21.05 17.99 21.05 17.25 21.84 17.25 22.38 25.61 22.38"/><path class="cls-1" d="M21.11,28.32H19.69V24.77a.71.71,0,0,1,1.42,0Z"/><path class="cls-1" d="M19.05,28.32H17.63V24.77a.71.71,0,0,1,1.42,0Z"/><path class="cls-1" d="M25.22,28.32H23.81V24.77a.71.71,0,0,1,1.41,0Z"/><path class="cls-1" d="M23.16,28.32H21.75V24.77a.71.71,0,0,1,1.41,0Z"/><polygon class="cls-1" points="26.06 29.78 25.55 28.82 17.31 28.82 16.8 29.78 26.06 29.78"/><path class="cls-1" d="M19.68,39.61H18.14v-2.2a.78.78,0,0,1,1.54,0Z"/><path class="cls-1" d="M24.77,39.61H23.23v-2.2a.78.78,0,0,1,1.54,0Z"/><path class="cls-1" d="M22.39,39.61H20.46V35.73s0-.78,1-.78,1,.78,1,.78Z"/><polygon class="cls-1" points="14.68 39.61 15.83 39.61 21.43 31.96 27.02 39.61 28.18 39.61 21.43 30.52 14.68 39.61"/><polygon class="cls-1" points="11.14 41.18 31.72 41.18 32.23 40.43 10.63 40.43 11.14 41.18"/><path class="cls-1" d="M21,44.69H18.47V42.63A6.48,6.48,0,0,1,21,42Z"/><path class="cls-1" d="M21.81,44.69h2.58V42.63A6.49,6.49,0,0,0,21.81,42Z"/><rect class="cls-1" x="18.47" y="45.46" width="2.57" height="1.96"/><rect class="cls-1" x="21.81" y="45.46" width="2.57" height="1.96"/><path class="cls-1" d="M17.7,44.69H15.78a8.4,8.4,0,0,1,1.92-1.64"/><path class="cls-1" d="M17.7,47.43v-2H15.16a8.54,8.54,0,0,0-1.13,2H17.7"/><path class="cls-1" d="M25.16,44.69h1.92a8.68,8.68,0,0,0-1.92-1.64"/><path class="cls-1" d="M25.16,47.43v-2H27.7a8.54,8.54,0,0,1,1.13,2H25.16"/><path class="cls-1" d="M2.75,2.93V47.59H40.11V2.93Zm7.62,41.76V42.94l-.52-.44V40.63l-.77-.49v-.53h4.69l2.06-2.78,1-6-.77-1,.77-1.46V23.67l-1-.52v-.84l1.66-1.89.19-.24L20.72,9l-.45-.35L21.21,7a.61.61,0,0,1-.4-.58.62.62,0,1,1,1.23,0,.61.61,0,0,1-.39.58l.94,1.64L22.14,9l3.08,11.23.2.24,1.66,1.89v.84l-1,.52v4.65l.77,1.46-.77,1,1,6,2.07,2.78h4.69v.53l-.78.49V42.5l-.51.44v1.75l-.77.47v2.11H11.14V45.16Z"/></svg>