<svg id="Layer_1" data-name="Layer 1" xmlns="http://www.w3.org/2000/svg" xmlns:xlink="http://www.w3.org/1999/xlink" viewBox="0 0 68.78 71.32"><defs><style>.cls-1{fill:none;}.cls-2{clip-path:url(#clip-path);}.cls-3{fill:#5455a5;}.cls-4{fill:#5555a4;}.cls-5{fill:#5655a4;}.cls-6{fill:#5755a4;}.cls-7{fill:#5855a4;}.cls-8{fill:#5955a4;}.cls-9{fill:#5a55a3;}.cls-10{fill:#5b54a3;}.cls-11{fill:#5c54a3;}.cls-12{fill:#5d54a3;}.cls-13{fill:#5e54a2;}.cls-14{fill:#5f54a2;}.cls-15{fill:#6054a2;}.cls-16{fill:#6154a2;}.cls-17{fill:#6254a2;}.cls-18{fill:#6354a1;}.cls-19{fill:#6453a1;}.cls-20{fill:#6553a1;}.cls-21{fill:#6653a0;}.cls-22{fill:#6753a0;}.cls-23{fill:#6853a0;}.cls-24{fill:#6953a0;}.cls-25{fill:#6a53a0;}.cls-26{fill:#6b539f;}.cls-27{fill:#6c529f;}.cls-28{fill:#6d529f;}.cls-29{fill:#6e529f;}.cls-30{fill:#6f529f;}.cls-31{fill:#70529e;}.cls-32{fill:#71529e;}.cls-33{fill:#72529e;}.cls-34{fill:#72519e;}.cls-35{fill:#73519e;}.cls-36{fill:#74519d;}.cls-37{fill:#75519d;}.cls-38{fill:#76519d;}.cls-39{fill:#77519d;}.cls-40{fill:#78519c;}.cls-41{fill:#79509c;}.cls-42{fill:#7a509c;}.cls-43{fill:#7b509c;}.cls-44{fill:#7c509c;}.cls-45{fill:#7d509b;}.cls-46{fill:#7e509b;}.cls-47{fill:#7e4f9b;}.cls-48{fill:#7f4f9b;}.cls-49{fill:#804f9b;}.cls-50{fill:#814f9a;}.cls-51{fill:#824f9a;}.cls-52{fill:#834e9a;}.cls-53{fill:#844e9a;}.cls-54{fill:#854e9a;}.cls-55{fill:#854e99;}.cls-56{fill:#864e99;}.cls-57{fill:#874e99;}.cls-58{fill:#884e99;}.cls-59{fill:#884d99;}.cls-60{fill:#894d98;}.cls-61{fill:#8a4d98;}.cls-62{fill:#8b4d98;}.cls-63{fill:#8c4d98;}.cls-64{fill:#8d4c98;}.cls-65{fill:#8d4c97;}.cls-66{fill:#8e4c97;}.cls-67{fill:#8f4c97;}.cls-68{fill:#904c97;}.cls-69{fill:#914b96;}.cls-70{fill:#924b96;}.cls-71{fill:#934b96;}.cls-72{fill:#944b96;}.cls-73{fill:#954a96;}.cls-74{fill:#964a95;}.cls-75{fill:#974a95;}.cls-76{fill:#984a95;}.cls-77{fill:#984995;}.cls-78{fill:#994994;}.cls-79{fill:#9a4994;}.cls-80{fill:#9b4994;}.cls-81{fill:#9c4894;}.cls-82{fill:#9d4894;}.cls-83{fill:#9e4893;}.cls-84{fill:#9f4893;}.cls-85{fill:#a04793;}.cls-86{fill:#a14792;}.cls-87{fill:#a24792;}.cls-88{fill:#a34792;}.cls-89{fill:#a34692;}.cls-90{fill:#a44692;}.cls-91{fill:#a54691;}.cls-92{fill:#a64691;}.cls-93{fill:#a64591;}.cls-94{fill:#a74591;}.cls-95{fill:#a84591;}.cls-96{fill:#a94490;}.cls-97{fill:#aa4490;}.cls-98{fill:#ab4490;}.cls-99{fill:#ac4390;}.cls-100{fill:#ad438f;}.cls-101{fill:#ae438f;}.cls-102{fill:#af428f;}.cls-103{fill:#b0428f;}.cls-104{fill:#b1428f;}.cls-105{fill:#b1428e;}.cls-106{fill:#b2418e;}.cls-107{fill:#b3418e;}.cls-108{fill:#b4418e;}.cls-109{fill:#b5408d;}.cls-110{fill:#b6408d;}.cls-111{fill:#b73f8d;}.cls-112{fill:#b83f8d;}.cls-113{fill:#b93f8c;}.cls-114{fill:#ba3e8c;}.cls-115{fill:#bb3e8c;}.cls-116{fill:#bc3d8c;}.cls-117{fill:#bd3d8b;}.cls-118{fill:#be3d8b;}.cls-119{fill:#be3c8b;}.cls-120{fill:#bf3c8b;}.cls-121{fill:#bf3c8a;}.cls-122{fill:#bf3c89;}.cls-123{fill:#c03c89;}.cls-124{fill:#c03c88;}.cls-125{fill:#c13c87;}.cls-126{fill:#c13d87;}.cls-127{fill:#c13d86;}.cls-128{fill:#c23d86;}.cls-129{fill:#c23d85;}.cls-130{fill:#c33d84;}.cls-131{fill:#c33d83;}.cls-132{fill:#c43d82;}.cls-133{fill:#c43d81;}.cls-134{fill:#c53d81;}.cls-135{fill:#c53d80;}.cls-136{fill:#c63d7f;}.cls-137{fill:#c63d7e;}.cls-138{fill:#c73d7e;}.cls-139{fill:#c73d7d;}.cls-140{fill:#c73d7c;}.cls-141{fill:#c83d7c;}.cls-142{fill:#c83d7b;}.cls-143{fill:#c83d7a;}.cls-144{fill:#c93d7a;}.cls-145{fill:#c93d79;}.cls-146{fill:#ca3d79;}.cls-147{fill:#ca3d78;}.cls-148{fill:#ca3d77;}.cls-149{fill:#cb3d77;}.cls-150{fill:#cb3d76;}.cls-151{fill:#cb3d75;}.cls-152{fill:#cc3d75;}.cls-153{fill:#cc3e74;}.cls-154{fill:#cc3e73;}.cls-155{fill:#cd3e73;}.cls-156{fill:#cd3e72;}.cls-157{fill:#ce3e71;}.cls-158{fill:#ce3e70;}.cls-159{fill:#cf3e6f;}.cls-160{fill:#cf3e6e;}.cls-161{fill:#d03e6e;}.cls-162{fill:#d03e6d;}.cls-163{fill:#d03e6c;}.cls-164{fill:#d13e6c;}.cls-165{fill:#d13e6b;}.cls-166{fill:#d13e6a;}.cls-167{fill:#d23e6a;}.cls-168{fill:#d23e69;}.cls-169{fill:#d23e68;}.cls-170{fill:#d33e68;}.cls-171{fill:#d33e67;}.cls-172{fill:#d43e66;}.cls-173{fill:#d43e65;}.cls-174{fill:#d53e64;}.cls-175{fill:#d53e63;}.cls-176{fill:#d63e62;}.cls-177{fill:#d63e61;}.cls-178{fill:#d73e60;}.cls-179{fill:#d73e5f;}.cls-180{fill:#d83e5f;}.cls-181{fill:#d83e5e;}.cls-182{fill:#d83e5d;}.cls-183{fill:#d93e5d;}.cls-184{fill:#d93e5c;}.cls-185{fill:#da3e5b;}.cls-186{fill:#da3e5a;}.cls-187{fill:#da3e59;}.cls-188{fill:#db3e59;}.cls-189{fill:#db3e58;}.cls-190{fill:#dc3e57;}.cls-191{fill:#dc3e56;}.cls-192{fill:#dd3e56;}.cls-193{fill:#dd3e55;}.cls-194{fill:#dd3e54;}.cls-195{fill:#de3e53;}.cls-196{fill:#de3e52;}.cls-197{fill:#df3e51;}.cls-198{fill:#df3e50;}.cls-199{fill:#e03e4f;}.cls-200{fill:#e03e4e;}.cls-201{fill:#e13e4d;}.cls-202{fill:#e13e4c;}.cls-203{fill:#e23e4b;}.cls-204{fill:#e23e4a;}.cls-205{fill:#e23e49;}.cls-206{fill:#e33e49;}.cls-207{fill:#e33e48;}.cls-208{fill:#e33e47;}.cls-209{fill:#e43e46;}.cls-210{fill:#e43e45;}.cls-211{fill:#e43e44;}.cls-212{fill:#e53e44;}.cls-213{fill:#e53e43;}.cls-214{fill:#e53e42;}.cls-215{fill:#e63e41;}.cls-216{fill:#e63e40;}.cls-217{fill:#e73e3f;}.cls-218{fill:#e73e3e;}.cls-219{fill:#e73e3d;}.cls-220{fill:#e83e3c;}.cls-221{fill:#e83e3b;}.cls-222{fill:#e93e3a;}.cls-223{fill:#e93f3a;}.cls-224{fill:#e9403a;}.cls-225{fill:#e9413a;}.cls-226{fill:#e9433a;}.cls-227{fill:#e9443a;}.cls-228{fill:#e9453a;}.cls-229{fill:#e9463a;}.cls-230{fill:#ea473a;}.cls-231{fill:#ea483a;}.cls-232{fill:#ea493a;}.cls-233{fill:#ea4a3a;}.cls-234{fill:#ea4b3a;}.cls-235{fill:#ea4c3a;}.cls-236{fill:#ea4d3a;}.cls-237{fill:#ea4e3b;}.cls-238{fill:#ea4f3b;}.cls-239{fill:#ea503b;}.cls-240{fill:#eb513b;}.cls-241{fill:#eb523b;}.cls-242{fill:#eb533b;}.cls-243{fill:#eb543b;}.cls-244{fill:#eb553b;}.cls-245{fill:#eb563b;}.cls-246{fill:#eb573b;}.cls-247{fill:#eb583b;}.cls-248{fill:#eb593b;}.cls-249{fill:#eb5a3b;}.cls-250{fill:#eb5b3b;}.cls-251{fill:#ec5b3b;}.cls-252{fill:#ec5c3c;}.cls-253{fill:#ec5d3c;}.cls-254{fill:#ec5e3c;}.cls-255{fill:#ec5f3c;}.cls-256{fill:#ec603c;}.cls-257{fill:#ec613c;}.cls-258{fill:#ec623c;}.cls-259{fill:#ec633c;}.cls-260{fill:#ec643c;}.cls-261{fill:#ed653c;}.cls-262{fill:#ed663c;}.cls-263{fill:#ed673c;}.cls-264{fill:#ed683c;}.cls-265{fill:#ed693c;}.cls-266{fill:#ed6a3d;}.cls-267{fill:#ed6b3d;}.cls-268{fill:#ed6c3d;}.cls-269{fill:#ee6c3d;}.cls-270{fill:#ee6d3d;}.cls-271{fill:#ee6e3d;}.cls-272{fill:#ee6f3d;}.cls-273{fill:#ee703d;}.cls-274{fill:#ee713d;}.cls-275{fill:#ee723d;}.cls-276{fill:#ee733d;}.cls-277{fill:#ef733d;}.cls-278{fill:#ef743d;}.cls-279{fill:#ef753d;}.cls-280{fill:#ef763d;}.cls-281{fill:#ef773d;}.cls-282{fill:#ef783e;}.cls-283{fill:#ef793e;}.cls-284{fill:#ef7a3e;}.cls-285{fill:#f07b3e;}.cls-286{fill:#f07c3e;}.cls-287{fill:#f07d3e;}.cls-288{fill:#f07e3e;}.cls-289{fill:#f07f3e;}.cls-290{fill:#f0803e;}.cls-291{fill:#f0813e;}.cls-292{fill:#f1813e;}.cls-293{fill:#f1823e;}.cls-294{fill:#f1833e;}.cls-295{fill:#f1843e;}.cls-296{fill:#f1853e;}.cls-297{fill:#f1863e;}.cls-298{fill:#f1863f;}.cls-299{fill:#f2873f;}.cls-300{fill:#f2883f;}.cls-301{fill:#f2893f;}.cls-302{fill:#f28a3f;}.cls-303{fill:#f28b3f;}.cls-304{fill:#f28c3f;}.cls-305{fill:#f28d3f;}.cls-306{fill:#f38d3f;}.cls-307{fill:#f38e3f;}.cls-308{fill:#f38f3f;}.cls-309{fill:#f3903f;}.cls-310{fill:#f3913f;}.cls-311{fill:#f3923e;}.cls-312{fill:#f3933e;}.cls-313{fill:#f4943d;}.cls-314{fill:#f4953d;}.cls-315{fill:#f4963c;}.cls-316{fill:#f4973b;}.cls-317{fill:#f4983b;}.cls-318{fill:#f4993b;}.cls-319{fill:#f5993a;}.cls-320{fill:#f59a3a;}.cls-321{fill:#f59b3a;}.cls-322{fill:#f59b39;}.cls-323{fill:#f59c39;}.cls-324{fill:#f59d38;}.cls-325{fill:#f59e38;}.cls-326{fill:#f69e37;}.cls-327{fill:#f69f37;}.cls-328{fill:#f6a037;}.cls-329{fill:#f6a036;}.cls-330{fill:#f6a136;}.cls-331{fill:#f6a235;}.cls-332{fill:#f6a335;}.cls-333{fill:#f6a334;}.cls-334{fill:#f7a434;}.cls-335{fill:#f7a533;}.cls-336{fill:#f7a633;}.cls-337{fill:#f7a632;}.cls-338{fill:#f7a732;}.cls-339{fill:#f7a831;}.cls-340{fill:#f7a930;}.cls-341{fill:#f8aa30;}.cls-342{fill:#f8ab2f;}.cls-343{fill:#f8ac2e;}.cls-344{fill:#f8ad2d;}.cls-345{fill:#f8ae2d;}.cls-346{fill:#f8ae2c;}.cls-347{fill:#f9af2b;}.cls-348{fill:#f9b02b;}.cls-349{fill:#f9b12a;}.cls-350{fill:#f9b129;}.cls-351{fill:#f9b229;}.cls-352{fill:#f9b328;}.cls-353{fill:#f9b327;}.cls-354{fill:#fab426;}.cls-355{fill:#fab526;}.cls-356{fill:#fab625;}.cls-357{fill:#fab624;}.cls-358{fill:#fab723;}.cls-359{fill:#fab822;}.cls-360{fill:#fbb922;}.cls-361{fill:#fbb921;}.cls-362{fill:#fbba20;}.cls-363{fill:#fbbb1f;}.cls-364{fill:#fbbc1e;}.cls-365{fill:#fbbc1d;}.cls-366{fill:#fbbd1c;}.cls-367{fill:#fcbe1b;}.cls-368{fill:#fcbf1a;}.cls-369{fill:#fcbf19;}.cls-370{fill:#fcc018;}.cls-371{fill:#fcc117;}.cls-372{fill:#fcc216;}.cls-373{fill:#fcc215;}.cls-374{fill:#fdc314;}.cls-375{fill:#fdc412;}.cls-376{fill:#fdc411;}.cls-377{fill:#fdc50f;}.cls-378{fill:#fdc60e;}.cls-379{fill:#fdc70c;}.cls-380{fill:#fec70d;}.cls-381{fill:#fec80d;}.cls-382{fill:#fec80e;}.cls-383{fill:#fec90e;}.cls-384{fill:#feca0f;}.cls-385{fill:#fecb10;}.cls-386{fill:#ffcc10;}.cls-387{fill:#fc1;}.cls-388{fill:#ffcd12;}.cls-389{fill:#ffce13;}.cls-390{fill:#ffcf14;}.cls-391{fill:#ffd015;}.cls-392{fill:#ffd116;}.cls-393{fill:#ffd117;}.cls-394{fill:#ffd218;}.cls-395{fill:#ffd319;}.cls-396{fill:#ffd41a;}.cls-397{fill:#ffd51b;}.cls-398{fill:#ffd61c;}.cls-399{fill:#ffd71e;}.cls-400{fill:#ffd81f;}.cls-401{fill:#ffd920;}.cls-402{fill:#ffda21;}.cls-403{fill:#ffdb23;}.cls-404{fill:#ffdc24;}.cls-405{fill:#ffdd25;}.cls-406{fill:#ffde27;}.cls-407{fill:#ffdf28;}.cls-408{fill:#ffe12a;}.cls-409{fill:#ffe22b;}.cls-410{fill:#ffe32c;}.cls-411{fill:#ffe52e;}.cls-412{fill:#ffe62f;}.cls-413{fill:#ffe731;}.cls-414{fill:#ffe932;}.cls-415{fill:#ffea34;}.cls-416{fill:#ffec36;}.cls-417{fill:#ffee37;}.cls-418{fill:#fff039;}.cls-419{fill:#fff33b;}.cls-420{fill:#fff;}</style><clipPath id="clip-path" transform="translate(3.81 -1.86)"><path class="cls-1" d="M64.81,37.7c-.12-.51-.31-1.27-9.06-6.86a66.5,66.5,0,0,0,7.17,3.51l.14.09,0,0c1,.31,1.12.07,1.34-.29a1,1,0,0,0,.12-.77,1,1,0,0,0-.46-.62C61.21,31,58,29.11,54.71,27.13v-.91c3,1.75,6,3.44,8.63,5a1,1,0,0,0,1-1.72l-9.77-6.1a13.54,13.54,0,0,0-.26-1.44l1.76.9,4.58,2.33c2.31,1.16,2.55,1.29,3,.5a1.12,1.12,0,0,0,.13-.84c-.07-.3-.24-1-7.76-5.77l5,2.6a1,1,0,0,0,1-1.74c-5.62-3.37-13.16-7.94-19-11.58,12.35,5.22,12.58,4.85,13,4.1a1,1,0,0,0,.12-.76c-.07-.32-.09-.42-1.63-1.39l-3.28-2c-2.67-1.61-6.65-4-7.32-4.54a.91.91,0,0,0-.24-.2,1,1,0,0,0-1.37.32,1,1,0,0,0-.13.76c.1.44.13.55,3.6,2.68-4.11-1.7-8.78-3.7-12.37-5.25a1,1,0,0,0-1.24.38,1,1,0,0,0-.13.79c.07.29.16.64,5.35,4L29.29,3a1,1,0,0,0-1,1.75C32,6.89,36.42,9.47,40.8,12.08H39.46L23,3.65a1,1,0,0,0-1.33.4A1,1,0,0,0,22,5.39l4.43,2.77c-6.23-3.23-6.5-2.81-6.94-2.1a1.14,1.14,0,0,0-.13.81c.07.26.2.82,7,5.21H25.3l-9.09-5a1,1,0,0,0-1.35.38,1,1,0,0,0,.37,1.36l6.11,3.56q-.36.08-.72.18L15,9.42a1,1,0,0,0-1,1.72l4,2.52c-.18.1-.35.21-.52.32l-4.7-2.69a1,1,0,0,0-1.35.35A1,1,0,0,0,11.76,13l3.82,2.39a12.48,12.48,0,0,0-1.34,1.38L10.1,14.5a1,1,0,0,0-1.33.35,1.23,1.23,0,0,0-.13.86c.1.4.23.9,4,3.52l-.06.14L11.86,19c-5.4-3.05-5.4-3.05-5.94-2.19a1.12,1.12,0,0,0-.13.88c.11.44.27,1.07,5.76,4.74a11.58,11.58,0,0,0-.18,1.18c-2-1.13-3.9-2.23-5.69-3.27a1,1,0,0,0-1.35.34,1.09,1.09,0,0,0-.13.79c.13.54.66,1.11,7.09,5.1v.22c-6.34-3.29-6.6-2.92-7-2.23a1,1,0,0,0-.13.75,1,1,0,0,0,.45.62h0L11.29,30v.68l-.76-.43c-2.82-1.57-4.39-2.44-5.31-2.86l-.1-.07v0c-1.06-.46-1.19-.24-1.47.21a1,1,0,0,0-.13.77c0,.17.07.29.62.68h0l0,0c.59.42,1.74,1.14,4,2.54-4.74-2.42-5-2-5.39-1.39a1.22,1.22,0,0,0-.13.84c.13.49.29,1.13,8.62,6.44v.33c-7.48-3.7-7.8-3.24-8.25-2.52a1.08,1.08,0,0,0-.13.79c.08.3.18.76,7.58,5.49L4.73,38.43a1,1,0,0,0-1.33.35,1.15,1.15,0,0,0-.13.81c.16.64,1.07,1.48,8.37,5.95.1.44.23.87.37,1.3L6.25,44a1,1,0,0,0-1.31.4,1,1,0,0,0,.34,1.34l9.16,5.72-1.94-1C10.06,49.21,8.73,48.53,8,48.24h0c-.92-.34-1.06-.13-1.35.33a1,1,0,0,0-.12.77,1,1,0,0,0,.47.63c5.43,3.13,11.17,6.53,15.56,9.22l-8.76-3.6a1,1,0,0,0-1.28.49,1,1,0,0,0,.41,1.31c3.46,2,7.29,4.29,8,4.89a1,1,0,0,0,1.7,0,1,1,0,0,0,.13-.79l0-.06,7.66,3.15a1,1,0,0,0,1.23-.39,1.09,1.09,0,0,0,.13-.83c0-.18-.11-.44-1.32-1.37l5.71,3a1,1,0,0,0,1-1.73L24.7,55.5H25l16.15,8a1,1,0,0,0,1.29-.36,1,1,0,0,0,.12-.79c-.13-.55-.17-.74-8-5.45l9.73,5.3a1,1,0,0,0,1-1.74c-2.58-1.54-5.38-3.23-8.26-5h3.41c3,1.65,5.92,3.24,8.54,4.69a1,1,0,0,0,1.35-.38,1,1,0,0,0-.36-1.36l-5.48-3.22c.3-.06.59-.14.88-.22l6,3.54a1,1,0,0,0,1.36-.33,1,1,0,0,0,.12-.78c-.09-.41-.5-.91-4.67-3.61l.18-.11c5.8,3.19,5.9,3.06,6.37,2.31a1,1,0,0,0,.13-.77c-.06-.24-.12-.47-4.29-3.19.25-.23.49-.46.72-.71l4.15,2.37a1,1,0,0,0,1.35-.34,1,1,0,0,0,.12-.79c-.11-.45-.46-.91-4.1-3.23.13-.21.26-.41.37-.62,5.51,2.61,5.85,2.07,6.25,1.44a1,1,0,0,0,.12-.78.94.94,0,0,0-.47-.62L54.25,46c.06-.22.12-.45.17-.68,6.75,3.72,6.87,3.53,7.4,2.68a1,1,0,0,0,.12-.77,1,1,0,0,0-.47-.62l-6.76-4V40.87A53.91,53.91,0,0,0,61.39,44l0,0h0c1,.3,1.15.05,1.37-.31a1,1,0,0,0-.32-1.37l-7.79-4.87v-.12l0,0c8.83,4.9,8.83,4.9,9.43,3.94A1,1,0,0,0,63.85,40l-9.14-5.71v-.18l8.63,4.85a1,1,0,0,0,1.34-.34A1.11,1.11,0,0,0,64.81,37.7Z"/></clipPath></defs><g class="cls-2"><rect class="cls-3" x="6.42" width="62.37" height="63.37"/><path class="cls-3" d="M62.36,37.4A33.3,33.3,0,0,1,46.78,70.71V66.23H9.66V69A33.26,33.26,0,1,1,62.36,37.4Z" transform="translate(3.81 -1.86)"/><path class="cls-4" d="M62.3,37.44A33.27,33.27,0,0,1,46.75,70.71V66.23H9.67V69A33.23,33.23,0,1,1,62.3,37.44Z" transform="translate(3.81 -1.86)"/><path class="cls-5" d="M62.25,37.48A33.25,33.25,0,0,1,46.71,70.71V66.23h-37V69A33.19,33.19,0,1,1,62.25,37.48Z" transform="translate(3.81 -1.86)"/><path class="cls-6" d="M62.2,37.52A33.18,33.18,0,0,1,46.67,70.71V66.23h-37V69A33.15,33.15,0,1,1,62.2,37.52Z" transform="translate(3.81 -1.86)"/><path class="cls-7" d="M62.14,37.56a33.16,33.16,0,0,1-15.5,33.16V66.23H9.69v2.82A33.11,33.11,0,1,1,62.14,37.56Z" transform="translate(3.81 -1.86)"/><path class="cls-8" d="M62.09,37.6A33.13,33.13,0,0,1,46.6,70.72V66.23H9.69v2.82A33.07,33.07,0,1,1,62.09,37.6Z" transform="translate(3.81 -1.86)"/><path class="cls-9" d="M62,37.64A33,33,0,0,1,46.56,70.72V66.23H9.7v2.83A33,33,0,1,1,62,37.64Z" transform="translate(3.81 -1.86)"/><path class="cls-10" d="M62,37.68a33,33,0,0,1-15.45,33V66.23H9.7v2.83A33,33,0,1,1,62,37.68Z" transform="translate(3.81 -1.86)"/><path class="cls-11" d="M61.92,37.72a33,33,0,0,1-15.43,33V66.23H9.71v2.83A33,33,0,1,1,61.92,37.72Z" transform="translate(3.81 -1.86)"/><path class="cls-12" d="M61.87,37.76a33,33,0,0,1-15.42,33v-4.5H9.71v2.84A32.92,32.92,0,1,1,61.87,37.76Z" transform="translate(3.81 -1.86)"/><path class="cls-13" d="M61.81,37.8a32.82,32.82,0,0,1-6.09,24.42,33.18,33.18,0,0,1-9.3,8.51v-4.5H9.72v2.84A32.88,32.88,0,1,1,61.81,37.8Z" transform="translate(3.81 -1.86)"/><path class="cls-14" d="M61.76,37.84A32.87,32.87,0,0,1,46.38,70.73v-4.5H9.73v2.84a32.84,32.84,0,1,1,52-31.23Z" transform="translate(3.81 -1.86)"/><path class="cls-15" d="M61.71,37.88A32.85,32.85,0,0,1,46.34,70.73v-4.5H9.73v2.85a32.81,32.81,0,1,1,52-31.2Z" transform="translate(3.81 -1.86)"/><path class="cls-16" d="M61.65,37.92A32.82,32.82,0,0,1,46.31,70.73v-4.5H9.74v2.85A32.77,32.77,0,1,1,61.65,37.92Z" transform="translate(3.81 -1.86)"/><path class="cls-17" d="M61.6,38A32.79,32.79,0,0,1,46.27,70.74V66.23H9.74v2.86A32.73,32.73,0,1,1,61.6,38Z" transform="translate(3.81 -1.86)"/><path class="cls-18" d="M61.54,38A32.71,32.71,0,0,1,46.23,70.74V66.23H9.75v2.86A32.69,32.69,0,1,1,61.54,38Z" transform="translate(3.81 -1.86)"/><path class="cls-19" d="M61.49,38A32.71,32.71,0,0,1,46.2,70.74V66.23H9.75v2.86A32.66,32.66,0,1,1,61.49,38Z" transform="translate(3.81 -1.86)"/><path class="cls-19" d="M61.43,38.08A32.66,32.66,0,0,1,46.16,70.74V66.23H9.76V69.1a32.62,32.62,0,1,1,51.67-31Z" transform="translate(3.81 -1.86)"/><path class="cls-20" d="M61.38,38.12A32.59,32.59,0,0,1,46.12,70.74V66.23H9.77V69.1a32.58,32.58,0,1,1,51.61-31Z" transform="translate(3.81 -1.86)"/><path class="cls-21" d="M61.32,38.16A32.56,32.56,0,0,1,46.09,70.74V66.23H9.77v2.88A32.54,32.54,0,1,1,61.32,38.16Z" transform="translate(3.81 -1.86)"/><path class="cls-22" d="M61.27,38.2A32.57,32.57,0,0,1,46.05,70.75V66.23H9.78v2.88A32.5,32.5,0,1,1,61.27,38.2Z" transform="translate(3.81 -1.86)"/><path class="cls-23" d="M61.22,38.24A32.52,32.52,0,0,1,46,70.75V66.23H9.78v2.88A32.47,32.47,0,1,1,61.22,38.24Z" transform="translate(3.81 -1.86)"/><path class="cls-24" d="M61.16,38.28A32.45,32.45,0,0,1,46,70.75V66.23H9.79v2.89A32.43,32.43,0,1,1,61.16,38.28Z" transform="translate(3.81 -1.86)"/><path class="cls-25" d="M61.11,38.32A32.42,32.42,0,0,1,45.94,70.75V66.23H9.8v2.89a32.39,32.39,0,1,1,51.31-30.8Z" transform="translate(3.81 -1.86)"/><path class="cls-26" d="M61.05,38.36A32.37,32.37,0,0,1,45.9,70.75V66.23H9.8v2.9A32.35,32.35,0,1,1,61.05,38.36Z" transform="translate(3.81 -1.86)"/><path class="cls-27" d="M61,38.4A32.36,32.36,0,0,1,45.87,70.76V66.23H9.81v2.9A32.31,32.31,0,1,1,61,38.4Z" transform="translate(3.81 -1.86)"/><path class="cls-27" d="M60.94,38.44a32.19,32.19,0,0,1-6,24,32.54,32.54,0,0,1-9.13,8.35V66.23h-36v2.9A32.27,32.27,0,1,1,60.94,38.44Z" transform="translate(3.81 -1.86)"/><path class="cls-28" d="M60.89,38.48a32.26,32.26,0,0,1-15.1,32.28V66.23h-36v2.91A32.24,32.24,0,1,1,60.89,38.48Z" transform="translate(3.81 -1.86)"/><path class="cls-29" d="M60.83,38.52A32.23,32.23,0,0,1,45.76,70.76V66.23H9.82v2.91a32.2,32.2,0,1,1,51-30.62Z" transform="translate(3.81 -1.86)"/><path class="cls-30" d="M60.78,38.56a32.16,32.16,0,0,1-15.06,32.2V66.23H9.83v2.91a32.16,32.16,0,1,1,51-30.58Z" transform="translate(3.81 -1.86)"/><path class="cls-31" d="M60.73,38.6a32.17,32.17,0,0,1-15,32.17V66.23H9.84v2.92A32.12,32.12,0,1,1,60.73,38.6Z" transform="translate(3.81 -1.86)"/><path class="cls-32" d="M60.67,38.64a32.15,32.15,0,0,1-15,32.13V66.23H9.84v2.92A32.09,32.09,0,1,1,60.67,38.64Z" transform="translate(3.81 -1.86)"/><path class="cls-33" d="M60.62,38.68a32.09,32.09,0,0,1-15,32.09V66.23H9.85v2.93A32,32,0,1,1,60.62,38.68Z" transform="translate(3.81 -1.86)"/><path class="cls-34" d="M60.56,38.72a32,32,0,0,1-15,32.05V66.23H9.85v2.93A32,32,0,1,1,60.56,38.72Z" transform="translate(3.81 -1.86)"/><path class="cls-35" d="M60.51,38.76a32,32,0,0,1-15,32V66.23H9.86v2.93a32,32,0,1,1,50.65-30.4Z" transform="translate(3.81 -1.86)"/><path class="cls-36" d="M60.45,38.8a31.8,31.8,0,0,1-5.92,23.71,32.16,32.16,0,0,1-9,8.27V66.23H9.87v2.94A31.93,31.93,0,1,1,60.45,38.8Z" transform="translate(3.81 -1.86)"/><path class="cls-37" d="M60.4,38.84A32,32,0,0,1,45.46,70.78V66.23H9.87v2.94A31.9,31.9,0,1,1,60.4,38.84Z" transform="translate(3.81 -1.86)"/><path class="cls-38" d="M60.34,38.88a31.89,31.89,0,0,1-14.91,31.9V66.23H9.88v3a31.85,31.85,0,1,1,50.46-30.3Z" transform="translate(3.81 -1.86)"/><path class="cls-39" d="M60.29,38.92a31.83,31.83,0,0,1-14.9,31.86V66.23H9.88v3A31.82,31.82,0,1,1,60.29,38.92Z" transform="translate(3.81 -1.86)"/><path class="cls-39" d="M60.24,39A31.8,31.8,0,0,1,45.35,70.78V66.23H9.89v3A31.78,31.78,0,1,1,60.24,39Z" transform="translate(3.81 -1.86)"/><path class="cls-40" d="M60.18,39A31.82,31.82,0,0,1,45.32,70.79V66.23H9.89v3A31.74,31.74,0,1,1,60.18,39Z" transform="translate(3.81 -1.86)"/><path class="cls-41" d="M60.13,39A31.75,31.75,0,0,1,45.28,70.79V66.23H9.9v3A31.71,31.71,0,1,1,60.13,39Z" transform="translate(3.81 -1.86)"/><path class="cls-42" d="M60.07,39.08A31.7,31.7,0,0,1,45.24,70.79V66.23H9.91v3A31.66,31.66,0,1,1,60.07,39.08Z" transform="translate(3.81 -1.86)"/><path class="cls-43" d="M60,39.12A31.66,31.66,0,0,1,45.21,70.79V66.23H9.91v3A31.63,31.63,0,1,1,60,39.12Z" transform="translate(3.81 -1.86)"/><path class="cls-43" d="M60,39.16A31.61,31.61,0,0,1,45.17,70.79V66.23H9.92v3a31.59,31.59,0,1,1,50-30Z" transform="translate(3.81 -1.86)"/><path class="cls-44" d="M59.91,39.2a31.5,31.5,0,0,1-5.85,23.43,31.85,31.85,0,0,1-8.93,8.17V66.23H9.92v3a31.56,31.56,0,1,1,50-30Z" transform="translate(3.81 -1.86)"/><path class="cls-45" d="M59.85,39.24A31.37,31.37,0,0,1,54,62.64,31.74,31.74,0,0,1,45.1,70.8V66.23H9.93v3a31.51,31.51,0,1,1,49.92-30Z" transform="translate(3.81 -1.86)"/><path class="cls-46" d="M59.8,39.28A31.53,31.53,0,0,1,45.06,70.8V66.23H9.93v3A31.47,31.47,0,1,1,59.8,39.28Z" transform="translate(3.81 -1.86)"/><path class="cls-47" d="M59.75,39.32A31.46,31.46,0,0,1,45,70.8V66.23H9.94v3a31.44,31.44,0,1,1,49.81-29.9Z" transform="translate(3.81 -1.86)"/><path class="cls-48" d="M59.69,39.36A31.4,31.4,0,0,1,45,70.8V66.23H10v3A31.4,31.4,0,1,1,59.69,39.36Z" transform="translate(3.81 -1.86)"/><path class="cls-49" d="M59.64,39.4A31.38,31.38,0,0,1,45,70.8V66.23H10v3A31.37,31.37,0,1,1,59.64,39.4Z" transform="translate(3.81 -1.86)"/><path class="cls-50" d="M59.58,39.44A31.37,31.37,0,0,1,44.91,70.81V66.23H10v3A31.32,31.32,0,1,1,59.58,39.44Z" transform="translate(3.81 -1.86)"/><path class="cls-51" d="M59.53,39.48A31.32,31.32,0,0,1,44.88,70.81V66.23H10v3A31.29,31.29,0,1,1,59.53,39.48Z" transform="translate(3.81 -1.86)"/><path class="cls-51" d="M59.47,39.52A31.27,31.27,0,0,1,44.84,70.81V66.23H10v3a31.25,31.25,0,1,1,49.5-29.72Z" transform="translate(3.81 -1.86)"/><path class="cls-52" d="M59.42,39.56A31.25,31.25,0,0,1,44.8,70.81V66.23H10v3A31.21,31.21,0,1,1,59.42,39.56Z" transform="translate(3.81 -1.86)"/><path class="cls-53" d="M59.36,39.6A31.19,31.19,0,0,1,44.77,70.81V66.23H10v3A31.17,31.17,0,1,1,59.36,39.6Z" transform="translate(3.81 -1.86)"/><path class="cls-54" d="M59.31,39.64a31,31,0,0,1-5.77,23.12,31.42,31.42,0,0,1-8.81,8.06V66.23H10v3A31.13,31.13,0,1,1,59.31,39.64Z" transform="translate(3.81 -1.86)"/><path class="cls-55" d="M59.26,39.68A31.13,31.13,0,0,1,44.69,70.82V66.23H10v3A31.1,31.1,0,1,1,59.26,39.68Z" transform="translate(3.81 -1.86)"/><path class="cls-56" d="M59.2,39.72a31.1,31.1,0,0,1-14.54,31.1V66.23H10v3A31.06,31.06,0,1,1,59.2,39.72Z" transform="translate(3.81 -1.86)"/><path class="cls-57" d="M59.15,39.76A31.08,31.08,0,0,1,44.62,70.82V66.23H10v3a31,31,0,1,1,49.15-29.5Z" transform="translate(3.81 -1.86)"/><path class="cls-58" d="M59.09,39.8a31,31,0,0,1-14.51,31V66.23H10v3A31,31,0,1,1,59.09,39.8Z" transform="translate(3.81 -1.86)"/><path class="cls-59" d="M59,39.84a31,31,0,0,1-14.49,31v-4.6H10v3A30.95,30.95,0,1,1,59,39.84Z" transform="translate(3.81 -1.86)"/><path class="cls-60" d="M59,39.88A30.94,30.94,0,0,1,44.51,70.83v-4.6H10v3A30.9,30.9,0,1,1,59,39.88Z" transform="translate(3.81 -1.86)"/><path class="cls-61" d="M58.93,39.92A30.92,30.92,0,0,1,44.47,70.83v-4.6H10v3a30.87,30.87,0,1,1,48.9-29.36Z" transform="translate(3.81 -1.86)"/><path class="cls-62" d="M58.88,40A30.87,30.87,0,0,1,44.44,70.83v-4.6H10v3A30.83,30.83,0,1,1,58.88,40Z" transform="translate(3.81 -1.86)"/><path class="cls-62" d="M58.82,40A30.82,30.82,0,0,1,44.4,70.83v-4.6H10v3A30.79,30.79,0,1,1,58.82,40Z" transform="translate(3.81 -1.86)"/><path class="cls-63" d="M58.77,40a30.8,30.8,0,0,1-14.41,30.8V66.23H10v3.06A30.76,30.76,0,1,1,58.77,40Z" transform="translate(3.81 -1.86)"/><path class="cls-64" d="M58.71,40.08A30.77,30.77,0,0,1,44.33,70.84V66.23H10.05v3.06A30.71,30.71,0,1,1,58.71,40.08Z" transform="translate(3.81 -1.86)"/><path class="cls-65" d="M58.66,40.12A30.59,30.59,0,0,1,53,62.9a30.93,30.93,0,0,1-8.68,7.94V66.23H10.06v3.06a30.68,30.68,0,1,1,48.6-29.17Z" transform="translate(3.81 -1.86)"/><path class="cls-66" d="M58.6,40.16A30.68,30.68,0,0,1,44.26,70.84V66.23H10.06V69.3A30.64,30.64,0,1,1,58.6,40.16Z" transform="translate(3.81 -1.86)"/><path class="cls-67" d="M58.55,40.2A30.65,30.65,0,0,1,44.22,70.84V66.23H10.07V69.3A30.6,30.6,0,1,1,58.55,40.2Z" transform="translate(3.81 -1.86)"/><path class="cls-68" d="M58.49,40.24A30.56,30.56,0,0,1,44.18,70.85V66.23H10.07v3.08A30.56,30.56,0,1,1,58.49,40.24Z" transform="translate(3.81 -1.86)"/><path class="cls-68" d="M58.44,40.28A30.56,30.56,0,0,1,44.15,70.85V66.23H10.08v3.08a30.52,30.52,0,1,1,48.36-29Z" transform="translate(3.81 -1.86)"/><path class="cls-69" d="M58.39,40.32A30.54,30.54,0,0,1,44.11,70.85V66.23h-34v3.08a30.49,30.49,0,1,1,48.3-29Z" transform="translate(3.81 -1.86)"/><path class="cls-70" d="M58.33,40.36A30.49,30.49,0,0,1,44.07,70.85V66.23h-34v3.09a30.45,30.45,0,1,1,48.24-29Z" transform="translate(3.81 -1.86)"/><path class="cls-71" d="M58.28,40.4A30.44,30.44,0,0,1,44,70.85V66.23H10.1v3.09A30.41,30.41,0,1,1,58.28,40.4Z" transform="translate(3.81 -1.86)"/><path class="cls-71" d="M58.22,40.44A30.43,30.43,0,0,1,44,70.86V66.23H10.1v3.1A30.37,30.37,0,1,1,58.22,40.44Z" transform="translate(3.81 -1.86)"/><path class="cls-72" d="M58.17,40.48A30.37,30.37,0,0,1,44,70.86V66.23H10.11v3.1A30.34,30.34,0,1,1,58.17,40.48Z" transform="translate(3.81 -1.86)"/><path class="cls-73" d="M58.11,40.52A30.35,30.35,0,0,1,43.93,70.86V66.23H10.11v3.1a30.3,30.3,0,1,1,48-28.81Z" transform="translate(3.81 -1.86)"/><path class="cls-74" d="M58.06,40.56A30.17,30.17,0,0,1,52.45,63a30.51,30.51,0,0,1-8.56,7.83V66.23H10.12v3.11A30.26,30.26,0,1,1,58.06,40.56Z" transform="translate(3.81 -1.86)"/><path class="cls-74" d="M58,40.6A30.23,30.23,0,0,1,43.85,70.86V66.23H10.13v3.11A30.22,30.22,0,1,1,58,40.6Z" transform="translate(3.81 -1.86)"/><path class="cls-75" d="M58,40.64A30.26,30.26,0,0,1,43.82,70.87V66.23H10.13v3.11A30.18,30.18,0,1,1,58,40.64Z" transform="translate(3.81 -1.86)"/><path class="cls-76" d="M57.9,40.68A30.24,30.24,0,0,1,43.78,70.87V66.23H10.14v3.12A30.15,30.15,0,1,1,57.9,40.68Z" transform="translate(3.81 -1.86)"/><path class="cls-77" d="M57.84,40.72a30,30,0,0,1-5.58,22.36,30.36,30.36,0,0,1-8.52,7.79V66.23H10.14v3.12a30.11,30.11,0,1,1,47.7-28.63Z" transform="translate(3.81 -1.86)"/><path class="cls-78" d="M57.79,40.76A30.11,30.11,0,0,1,43.71,70.87V66.23H10.15v3.13a30.07,30.07,0,1,1,47.64-28.6Z" transform="translate(3.81 -1.86)"/><path class="cls-79" d="M57.73,40.8A30.06,30.06,0,0,1,43.67,70.87V66.23H10.15v3.13A30,30,0,1,1,57.73,40.8Z" transform="translate(3.81 -1.86)"/><path class="cls-80" d="M57.68,40.84a30,30,0,0,1-14,30V66.23H10.16v3.13A30,30,0,1,1,57.68,40.84Z" transform="translate(3.81 -1.86)"/><path class="cls-80" d="M57.62,40.88a30,30,0,0,1-14,30V66.23H10.17v3.14A30,30,0,1,1,57.62,40.88Z" transform="translate(3.81 -1.86)"/><path class="cls-81" d="M57.57,40.92a29.95,29.95,0,0,1-14,30V66.23H10.17v3.14a29.92,29.92,0,1,1,47.4-28.45Z" transform="translate(3.81 -1.86)"/><path class="cls-82" d="M57.51,41a29.9,29.9,0,0,1-14,29.92V66.23H10.18v3.15A29.88,29.88,0,1,1,57.51,41Z" transform="translate(3.81 -1.86)"/><path class="cls-83" d="M57.46,41a29.9,29.9,0,0,1-14,29.88V66.23H10.18v3.15A29.84,29.84,0,1,1,57.46,41Z" transform="translate(3.81 -1.86)"/><path class="cls-83" d="M57.41,41a29.83,29.83,0,0,1-14,29.84V66.23H10.19v3.15A29.8,29.8,0,1,1,57.41,41Z" transform="translate(3.81 -1.86)"/><path class="cls-84" d="M57.35,41.08A29.81,29.81,0,0,1,43.41,70.89V66.23H10.2v3.16A29.76,29.76,0,1,1,57.35,41.08Z" transform="translate(3.81 -1.86)"/><path class="cls-85" d="M57.3,41.12A29.81,29.81,0,0,1,43.38,70.89V66.23H10.2v3.16A29.73,29.73,0,1,1,57.3,41.12Z" transform="translate(3.81 -1.86)"/><path class="cls-85" d="M57.24,41.16a29.61,29.61,0,0,1-5.5,22.05,29.93,29.93,0,0,1-8.4,7.68V66.23H10.21v3.16a29.69,29.69,0,1,1,47-28.23Z" transform="translate(3.81 -1.86)"/><path class="cls-86" d="M57.19,41.2A29.66,29.66,0,0,1,43.3,70.89V66.23H10.21V69.4a29.65,29.65,0,1,1,47-28.2Z" transform="translate(3.81 -1.86)"/><path class="cls-87" d="M57.13,41.24A29.64,29.64,0,0,1,43.27,70.89V66.23H10.22V69.4A29.61,29.61,0,1,1,57.13,41.24Z" transform="translate(3.81 -1.86)"/><path class="cls-88" d="M57.08,41.28A29.65,29.65,0,0,1,43.23,70.9V66.23h-33v3.18A29.58,29.58,0,1,1,57.08,41.28Z" transform="translate(3.81 -1.86)"/><path class="cls-89" d="M57,41.32A29.55,29.55,0,0,1,43.19,70.9V66.23h-33v3.18A29.54,29.54,0,1,1,57,41.32Z" transform="translate(3.81 -1.86)"/><path class="cls-90" d="M57,41.36A29.52,29.52,0,0,1,43.16,70.9V66.23H10.24v3.18A29.5,29.5,0,1,1,57,41.36Z" transform="translate(3.81 -1.86)"/><path class="cls-91" d="M56.92,41.4a29.49,29.49,0,0,1-13.8,29.5V66.23H10.24v3.19a29.46,29.46,0,1,1,46.68-28Z" transform="translate(3.81 -1.86)"/><path class="cls-92" d="M56.86,41.44A29.45,29.45,0,0,1,43.08,70.9V66.23H10.25v3.19a29.42,29.42,0,1,1,46.61-28Z" transform="translate(3.81 -1.86)"/><path class="cls-93" d="M56.81,41.48A29.44,29.44,0,0,1,43.05,70.91V66.23H10.25v3.2a29.39,29.39,0,1,1,46.56-28Z" transform="translate(3.81 -1.86)"/><path class="cls-94" d="M56.75,41.52a29.21,29.21,0,0,1-5.44,21.79,29.55,29.55,0,0,1-8.3,7.6V66.23H10.26v3.2A29.35,29.35,0,1,1,56.75,41.52Z" transform="translate(3.81 -1.86)"/><path class="cls-95" d="M56.7,41.56A29.36,29.36,0,0,1,43,70.91V66.23H10.27v3.2A29.31,29.31,0,1,1,56.7,41.56Z" transform="translate(3.81 -1.86)"/><path class="cls-95" d="M56.64,41.6a29.3,29.3,0,0,1-13.7,29.31V66.23H10.27v3.21A29.27,29.27,0,1,1,56.64,41.6Z" transform="translate(3.81 -1.86)"/><path class="cls-96" d="M56.59,41.64A29.23,29.23,0,0,1,42.9,70.91V66.23H10.28v3.21a29.23,29.23,0,1,1,46.31-27.8Z" transform="translate(3.81 -1.86)"/><path class="cls-97" d="M56.53,41.68A29.22,29.22,0,0,1,42.86,70.92V66.23H10.28v3.21A29.19,29.19,0,1,1,56.53,41.68Z" transform="translate(3.81 -1.86)"/><path class="cls-98" d="M56.48,41.72a29.22,29.22,0,0,1-13.65,29.2V66.23H10.29v3.22A29.16,29.16,0,1,1,56.48,41.72Z" transform="translate(3.81 -1.86)"/><path class="cls-98" d="M56.43,41.76A29.2,29.2,0,0,1,42.79,70.92V66.23H10.29v3.22A29.12,29.12,0,1,1,56.43,41.76Z" transform="translate(3.81 -1.86)"/><path class="cls-99" d="M56.37,41.8A29.1,29.1,0,0,1,42.75,70.92V66.23H10.3v3.23A29.08,29.08,0,1,1,56.37,41.8Z" transform="translate(3.81 -1.86)"/><path class="cls-100" d="M56.32,41.84a29.07,29.07,0,0,1-13.6,29.08V66.23H10.31v3.23a29,29,0,1,1,46-27.62Z" transform="translate(3.81 -1.86)"/><path class="cls-101" d="M56.26,41.88A29.06,29.06,0,0,1,42.68,70.93v-4.7H10.31v3.23A29,29,0,1,1,56.26,41.88Z" transform="translate(3.81 -1.86)"/><path class="cls-101" d="M56.21,41.92a29,29,0,0,1-13.57,29v-4.7H10.32v3.24A29,29,0,1,1,56.21,41.92Z" transform="translate(3.81 -1.86)"/><path class="cls-102" d="M56.15,42a29,29,0,0,1-13.54,29v-4.7H10.32v3.24A28.93,28.93,0,1,1,56.15,42Z" transform="translate(3.81 -1.86)"/><path class="cls-103" d="M56.1,42A28.94,28.94,0,0,1,42.57,70.93v-4.7H10.33v3.25A28.89,28.89,0,1,1,56.1,42Z" transform="translate(3.81 -1.86)"/><path class="cls-104" d="M56,42A28.85,28.85,0,0,1,42.53,70.93v-4.7H10.33v3.25A28.85,28.85,0,1,1,56,42Z" transform="translate(3.81 -1.86)"/><path class="cls-105" d="M56,42.08A28.81,28.81,0,0,1,42.5,70.93v-4.7H10.34v3.25A28.81,28.81,0,1,1,56,42.08Z" transform="translate(3.81 -1.86)"/><path class="cls-106" d="M55.94,42.12A28.82,28.82,0,0,1,42.46,70.94V66.23H10.35v3.26A28.78,28.78,0,1,1,55.94,42.12Z" transform="translate(3.81 -1.86)"/><path class="cls-107" d="M55.88,42.16A28.77,28.77,0,0,1,42.42,70.94V66.23H10.35v3.26A28.74,28.74,0,1,1,55.88,42.16Z" transform="translate(3.81 -1.86)"/><path class="cls-107" d="M55.83,42.2A28.77,28.77,0,0,1,42.39,70.94V66.23h-32v3.26A28.7,28.7,0,1,1,55.83,42.2Z" transform="translate(3.81 -1.86)"/><path class="cls-108" d="M55.77,42.24a28.68,28.68,0,0,1-13.42,28.7V66.23h-32V69.5A28.66,28.66,0,1,1,55.77,42.24Z" transform="translate(3.81 -1.86)"/><path class="cls-109" d="M55.72,42.28A28.62,28.62,0,0,1,42.31,70.94V66.23H10.37V69.5A28.62,28.62,0,1,1,55.72,42.28Z" transform="translate(3.81 -1.86)"/><path class="cls-110" d="M55.66,42.32A28.63,28.63,0,0,1,42.28,71V66.23H10.38v3.28A28.59,28.59,0,1,1,55.66,42.32Z" transform="translate(3.81 -1.86)"/><path class="cls-110" d="M55.61,42.36A28.61,28.61,0,0,1,42.24,71V66.23H10.38v3.28A28.55,28.55,0,1,1,55.61,42.36Z" transform="translate(3.81 -1.86)"/><path class="cls-111" d="M55.55,42.4A28.51,28.51,0,0,1,42.2,71V66.23H10.39v3.28A28.51,28.51,0,1,1,55.55,42.4Z" transform="translate(3.81 -1.86)"/><path class="cls-112" d="M55.5,42.44A28.51,28.51,0,0,1,42.17,71V66.23H10.39v3.29A28.47,28.47,0,1,1,55.5,42.44Z" transform="translate(3.81 -1.86)"/><path class="cls-112" d="M55.45,42.48A28.48,28.48,0,0,1,42.13,71V66.23H10.4v3.29a28.43,28.43,0,1,1,45.05-27Z" transform="translate(3.81 -1.86)"/><path class="cls-113" d="M55.39,42.52A28.44,28.44,0,0,1,42.09,71V66.23H10.4v3.3a28.4,28.4,0,1,1,45-27Z" transform="translate(3.81 -1.86)"/><path class="cls-114" d="M55.34,42.56A28.39,28.39,0,0,1,42.06,71V66.23H10.41v3.3a28.36,28.36,0,1,1,44.93-27Z" transform="translate(3.81 -1.86)"/><path class="cls-115" d="M55.28,42.6A28.35,28.35,0,0,1,42,71V66.23H10.42v3.3A28.32,28.32,0,1,1,55.28,42.6Z" transform="translate(3.81 -1.86)"/><path class="cls-115" d="M55.23,42.64A28.32,28.32,0,0,1,42,71V66.23H10.42v3.31a28.28,28.28,0,1,1,44.81-26.9Z" transform="translate(3.81 -1.86)"/><path class="cls-116" d="M55.17,42.68A28.3,28.3,0,0,1,42,71V66.23H10.43v3.31A28.24,28.24,0,1,1,55.17,42.68Z" transform="translate(3.81 -1.86)"/><path class="cls-117" d="M55.12,42.72A28.23,28.23,0,0,1,41.91,71V66.23H10.43v3.31A28.21,28.21,0,1,1,55.12,42.72Z" transform="translate(3.81 -1.86)"/><path class="cls-118" d="M55.06,42.76A28.18,28.18,0,0,1,41.87,71V66.23H10.44v3.32A28.17,28.17,0,1,1,55.06,42.76Z" transform="translate(3.81 -1.86)"/><path class="cls-119" d="M55,42.8A28.18,28.18,0,0,1,41.84,71V66.23H10.44v3.32A28.13,28.13,0,1,1,55,42.8Z" transform="translate(3.81 -1.86)"/><path class="cls-119" d="M55,42.81A28.13,28.13,0,0,1,41.82,70.94V66.23H10.47v3.29A28.09,28.09,0,1,1,55,42.81Z" transform="translate(3.81 -1.86)"/><path class="cls-120" d="M54.92,42.85A28.06,28.06,0,0,1,41.78,70.94V66.23H10.47v3.3A28.06,28.06,0,1,1,54.92,42.85Z" transform="translate(3.81 -1.86)"/><path class="cls-121" d="M54.87,42.88A28.06,28.06,0,0,1,41.75,70.94V66.23H10.48v3.3A28,28,0,1,1,54.87,42.88Z" transform="translate(3.81 -1.86)"/><path class="cls-121" d="M54.81,42.92a28,28,0,0,1-13.1,28V66.23H10.48v3.3A28,28,0,1,1,54.81,42.92Z" transform="translate(3.81 -1.86)"/><path class="cls-122" d="M54.76,43a27.94,27.94,0,0,1-13.09,28V66.23H10.49v3.31A27.95,27.95,0,1,1,54.76,43Z" transform="translate(3.81 -1.86)"/><path class="cls-123" d="M54.71,43A28,28,0,0,1,41.64,71V66.23H10.5v3.31A27.91,27.91,0,1,1,54.71,43Z" transform="translate(3.81 -1.86)"/><path class="cls-123" d="M54.65,43a27.76,27.76,0,0,1-5.16,20.69A28.06,28.06,0,0,1,41.6,71V66.23H10.5v3.31A27.87,27.87,0,1,1,54.65,43Z" transform="translate(3.81 -1.86)"/><path class="cls-124" d="M54.6,43.08A27.85,27.85,0,0,1,41.57,71V66.23H10.51v3.32A27.83,27.83,0,1,1,54.6,43.08Z" transform="translate(3.81 -1.86)"/><path class="cls-124" d="M54.55,43.12A27.82,27.82,0,0,1,41.53,71V66.23h-31v3.32a27.8,27.8,0,1,1,44-26.43Z" transform="translate(3.81 -1.86)"/><path class="cls-125" d="M54.5,43.16a27.66,27.66,0,0,1-5.15,20.61A28.06,28.06,0,0,1,41.5,71V66.23h-31v3.33a27.76,27.76,0,1,1,44-26.4Z" transform="translate(3.81 -1.86)"/><path class="cls-125" d="M54.44,43.2A27.77,27.77,0,0,1,41.46,71V66.23H10.52v3.33A27.72,27.72,0,1,1,54.44,43.2Z" transform="translate(3.81 -1.86)"/><path class="cls-126" d="M54.39,43.23A27.77,27.77,0,0,1,41.43,71V66.23H10.53v3.33A27.68,27.68,0,1,1,54.39,43.23Z" transform="translate(3.81 -1.86)"/><path class="cls-127" d="M54.34,43.27A27.7,27.7,0,0,1,41.39,71V66.23H10.54v3.34a27.65,27.65,0,1,1,43.8-26.3Z" transform="translate(3.81 -1.86)"/><path class="cls-128" d="M54.28,43.31A27.65,27.65,0,0,1,41.35,71V66.23H10.54v3.34A27.61,27.61,0,1,1,54.28,43.31Z" transform="translate(3.81 -1.86)"/><path class="cls-129" d="M54.23,43.35A27.57,27.57,0,0,1,41.32,71V66.23H10.55v3.34A27.57,27.57,0,1,1,54.23,43.35Z" transform="translate(3.81 -1.86)"/><path class="cls-129" d="M54.18,43.39A27.54,27.54,0,0,1,41.28,71V66.23H10.55v3.35A27.54,27.54,0,1,1,54.18,43.39Z" transform="translate(3.81 -1.86)"/><path class="cls-129" d="M54.12,43.43A27.56,27.56,0,0,1,41.25,71V66.23H10.56v3.35A27.5,27.5,0,1,1,54.12,43.43Z" transform="translate(3.81 -1.86)"/><path class="cls-130" d="M54.07,43.47A27.48,27.48,0,0,1,41.21,71V66.23H10.56v3.35A27.46,27.46,0,1,1,54.07,43.47Z" transform="translate(3.81 -1.86)"/><path class="cls-130" d="M54,43.51A27.48,27.48,0,0,1,41.18,71V66.23H10.57v3.36A27.43,27.43,0,1,1,54,43.51Z" transform="translate(3.81 -1.86)"/><path class="cls-131" d="M54,43.55A27.41,27.41,0,0,1,41.14,71V66.23H10.58v3.36A27.39,27.39,0,1,1,54,43.55Z" transform="translate(3.81 -1.86)"/><path class="cls-131" d="M53.91,43.58A27.37,27.37,0,0,1,41.1,71V66.23H10.58V69.6a27.35,27.35,0,1,1,43.33-26Z" transform="translate(3.81 -1.86)"/><path class="cls-131" d="M53.86,43.62A27.37,27.37,0,0,1,41.07,71V66.23H10.59V69.6a27.31,27.31,0,1,1,43.27-26Z" transform="translate(3.81 -1.86)"/><path class="cls-132" d="M53.81,43.66A27.3,27.3,0,0,1,41,71V66.23H10.59V69.6A27.28,27.28,0,1,1,53.81,43.66Z" transform="translate(3.81 -1.86)"/><path class="cls-132" d="M53.75,43.7A27.27,27.27,0,0,1,41,71V66.23H10.6v3.38A27.24,27.24,0,1,1,53.75,43.7Z" transform="translate(3.81 -1.86)"/><path class="cls-132" d="M53.7,43.74A27.2,27.2,0,0,1,41,71V66.23H10.6v3.38A27.21,27.21,0,1,1,53.7,43.74Z" transform="translate(3.81 -1.86)"/><path class="cls-133" d="M53.65,43.78A27.2,27.2,0,0,1,40.93,71V66.23H10.61v3.38a27.17,27.17,0,1,1,43-25.83Z" transform="translate(3.81 -1.86)"/><path class="cls-134" d="M53.59,43.82A27.15,27.15,0,0,1,40.89,71V66.23H10.62v3.39a27.13,27.13,0,1,1,43-25.8Z" transform="translate(3.81 -1.86)"/><path class="cls-135" d="M53.54,43.86a27,27,0,0,1-5,20.11,27.33,27.33,0,0,1-7.66,7V66.23H10.62v3.39A27.09,27.09,0,1,1,53.54,43.86Z" transform="translate(3.81 -1.86)"/><path class="cls-135" d="M53.49,43.9A27.08,27.08,0,0,1,40.82,71V66.23H10.63v3.4A27.06,27.06,0,1,1,53.49,43.9Z" transform="translate(3.81 -1.86)"/><path class="cls-135" d="M53.44,43.93A27.06,27.06,0,0,1,40.78,71V66.23H10.63v3.4a27,27,0,1,1,42.81-25.7Z" transform="translate(3.81 -1.86)"/><path class="cls-136" d="M53.38,44A27,27,0,0,1,40.75,71V66.23H10.64v3.4A27,27,0,1,1,53.38,44Z" transform="translate(3.81 -1.86)"/><path class="cls-136" d="M53.33,44A27,27,0,0,1,40.71,71V66.23H10.64v3.41A26.95,26.95,0,1,1,53.33,44Z" transform="translate(3.81 -1.86)"/><path class="cls-137" d="M53.28,44.05a27,27,0,0,1-12.6,27V66.23h-30v3.41A26.91,26.91,0,1,1,53.28,44.05Z" transform="translate(3.81 -1.86)"/><path class="cls-137" d="M53.22,44.09A26.91,26.91,0,0,1,40.64,71V66.23h-30v3.41A26.87,26.87,0,1,1,53.22,44.09Z" transform="translate(3.81 -1.86)"/><path class="cls-138" d="M53.17,44.13A26.91,26.91,0,0,1,40.61,71V66.23H10.66v3.42A26.83,26.83,0,1,1,53.17,44.13Z" transform="translate(3.81 -1.86)"/><path class="cls-139" d="M53.12,44.17A26.8,26.8,0,0,1,40.57,71V66.23H10.67v3.42A26.8,26.8,0,1,1,53.12,44.17Z" transform="translate(3.81 -1.86)"/><path class="cls-139" d="M53.06,44.21A26.76,26.76,0,0,1,40.53,71V66.23H10.67v3.42A26.76,26.76,0,1,1,53.06,44.21Z" transform="translate(3.81 -1.86)"/><path class="cls-140" d="M53,44.25A26.71,26.71,0,0,1,40.5,71V66.23H10.68v3.43A26.72,26.72,0,1,1,53,44.25Z" transform="translate(3.81 -1.86)"/><path class="cls-141" d="M53,44.28A26.72,26.72,0,0,1,40.46,71V66.23H10.68v3.43A26.69,26.69,0,1,1,53,44.28Z" transform="translate(3.81 -1.86)"/><path class="cls-141" d="M52.91,44.32A26.72,26.72,0,0,1,40.43,71V66.23H10.69v3.44A26.65,26.65,0,1,1,52.91,44.32Z" transform="translate(3.81 -1.86)"/><path class="cls-142" d="M52.85,44.36A26.63,26.63,0,0,1,40.39,71V66.23H10.69v3.44A26.61,26.61,0,1,1,52.85,44.36Z" transform="translate(3.81 -1.86)"/><path class="cls-142" d="M52.8,44.4A26.63,26.63,0,0,1,40.36,71V66.23H10.7v3.44A26.57,26.57,0,1,1,52.8,44.4Z" transform="translate(3.81 -1.86)"/><path class="cls-143" d="M52.75,44.44a26.47,26.47,0,0,1-4.92,19.71A26.76,26.76,0,0,1,40.32,71V66.23H10.71v3.45a26.54,26.54,0,1,1,42-25.24Z" transform="translate(3.81 -1.86)"/><path class="cls-144" d="M52.69,44.48a26.4,26.4,0,0,1-4.91,19.68A26.74,26.74,0,0,1,40.28,71V66.23H10.71v3.45a26.5,26.5,0,1,1,42-25.2Z" transform="translate(3.81 -1.86)"/><path class="cls-144" d="M52.64,44.52A26.51,26.51,0,0,1,40.25,71V66.23H10.72v3.45A26.46,26.46,0,1,1,52.64,44.52Z" transform="translate(3.81 -1.86)"/><path class="cls-145" d="M52.59,44.56A26.44,26.44,0,0,1,40.21,71V66.23H10.72v3.46A26.43,26.43,0,1,1,52.59,44.56Z" transform="translate(3.81 -1.86)"/><path class="cls-145" d="M52.54,44.6a26.32,26.32,0,0,1-4.9,19.59A26.61,26.61,0,0,1,40.18,71V66.23H10.73v3.46A26.39,26.39,0,1,1,52.54,44.6Z" transform="translate(3.81 -1.86)"/><path class="cls-146" d="M52.48,44.63A26.39,26.39,0,0,1,40.14,71V66.23H10.73V69.7A26.36,26.36,0,1,1,52.48,44.63Z" transform="translate(3.81 -1.86)"/><path class="cls-147" d="M52.43,44.67A26.34,26.34,0,0,1,40.11,71V66.23H10.74V69.7a26.32,26.32,0,1,1,41.69-25Z" transform="translate(3.81 -1.86)"/><path class="cls-147" d="M52.38,44.71A26.32,26.32,0,0,1,40.07,71v-4.8H10.75V69.7a26.28,26.28,0,1,1,41.63-25Z" transform="translate(3.81 -1.86)"/><path class="cls-148" d="M52.32,44.75a26.19,26.19,0,0,1-4.86,19.49A26.61,26.61,0,0,1,40,71v-4.8H10.75v3.48a26.24,26.24,0,1,1,41.57-25Z" transform="translate(3.81 -1.86)"/><path class="cls-148" d="M52.27,44.79a26.12,26.12,0,0,1-4.86,19.46A26.38,26.38,0,0,1,40,71v-4.8H10.76v3.48A26.2,26.2,0,1,1,52.27,44.79Z" transform="translate(3.81 -1.86)"/><path class="cls-149" d="M52.22,44.83A26.2,26.2,0,0,1,40,71v-4.8H10.76v3.48A26.17,26.17,0,1,1,52.22,44.83Z" transform="translate(3.81 -1.86)"/><path class="cls-150" d="M52.16,44.87A26.13,26.13,0,0,1,39.93,71v-4.8H10.77v3.49A26.13,26.13,0,1,1,52.16,44.87Z" transform="translate(3.81 -1.86)"/><path class="cls-150" d="M52.11,44.91A26.14,26.14,0,0,1,39.89,71V66.23H10.77v3.49A26.09,26.09,0,1,1,52.11,44.91Z" transform="translate(3.81 -1.86)"/><path class="cls-151" d="M52.06,45a26,26,0,0,1-4.83,19.34A26.27,26.27,0,0,1,39.86,71V66.23H10.78v3.49A26.05,26.05,0,1,1,52.06,45Z" transform="translate(3.81 -1.86)"/><path class="cls-152" d="M52,45A26.08,26.08,0,0,1,39.82,71V66.23h-29v3.5A26,26,0,1,1,52,45Z" transform="translate(3.81 -1.86)"/><path class="cls-152" d="M52,45A26,26,0,0,1,39.79,71V66.23h-29v3.5A26,26,0,1,1,52,45Z" transform="translate(3.81 -1.86)"/><path class="cls-153" d="M51.9,45.06A25.95,25.95,0,0,1,39.75,71V66.23H10.8v3.51A25.94,25.94,0,1,1,51.9,45.06Z" transform="translate(3.81 -1.86)"/><path class="cls-153" d="M51.85,45.1A25.92,25.92,0,0,1,39.71,71V66.23H10.8v3.51A25.91,25.91,0,1,1,51.85,45.1Z" transform="translate(3.81 -1.86)"/><path class="cls-154" d="M51.79,45.14A25.75,25.75,0,0,1,47,64.35a26,26,0,0,1-7.32,6.7V66.23H10.81v3.51a25.87,25.87,0,1,1,41-24.6Z" transform="translate(3.81 -1.86)"/><path class="cls-155" d="M51.74,45.18a25.86,25.86,0,0,1-12.1,25.87V66.23H10.81v3.52A25.83,25.83,0,1,1,51.74,45.18Z" transform="translate(3.81 -1.86)"/><path class="cls-155" d="M51.69,45.22A25.86,25.86,0,0,1,39.61,71.05V66.23H10.82v3.52A25.8,25.8,0,1,1,51.69,45.22Z" transform="translate(3.81 -1.86)"/><path class="cls-156" d="M51.63,45.26A25.77,25.77,0,0,1,39.57,71.05V66.23H10.83v3.52a25.75,25.75,0,1,1,40.8-24.49Z" transform="translate(3.81 -1.86)"/><path class="cls-156" d="M51.58,45.3a25.73,25.73,0,0,1-12,25.75V66.23H10.83v3.53A25.72,25.72,0,1,1,51.58,45.3Z" transform="translate(3.81 -1.86)"/><path class="cls-157" d="M51.53,45.33a25.75,25.75,0,0,1-12,25.73V66.23H10.84v3.53A25.68,25.68,0,1,1,51.53,45.33Z" transform="translate(3.81 -1.86)"/><path class="cls-157" d="M51.48,45.37a25.68,25.68,0,0,1-12,25.69V66.23H10.84v3.54a25.65,25.65,0,1,1,40.64-24.4Z" transform="translate(3.81 -1.86)"/><path class="cls-158" d="M51.42,45.41a25.65,25.65,0,0,1-12,25.65V66.23H10.85v3.54A25.61,25.61,0,1,1,51.42,45.41Z" transform="translate(3.81 -1.86)"/><path class="cls-158" d="M51.37,45.45a25.58,25.58,0,0,1-12,25.61V66.23H10.85v3.54A25.57,25.57,0,1,1,51.37,45.45Z" transform="translate(3.81 -1.86)"/><path class="cls-158" d="M51.32,45.49a25.58,25.58,0,0,1-12,25.57V66.23H10.86v3.55A25.54,25.54,0,1,1,51.32,45.49Z" transform="translate(3.81 -1.86)"/><path class="cls-159" d="M51.26,45.53A25.53,25.53,0,0,1,39.32,71.06V66.23H10.87v3.55A25.5,25.5,0,1,1,51.26,45.53Z" transform="translate(3.81 -1.86)"/><path class="cls-159" d="M51.21,45.57a25.37,25.37,0,0,1-4.72,18.91,25.77,25.77,0,0,1-7.2,6.59V66.23H10.87v3.55A25.46,25.46,0,1,1,51.21,45.57Z" transform="translate(3.81 -1.86)"/><path class="cls-160" d="M51.16,45.61A25.46,25.46,0,0,1,39.25,71.07V66.23H10.88v3.56A25.43,25.43,0,1,1,51.16,45.61Z" transform="translate(3.81 -1.86)"/><path class="cls-160" d="M51.1,45.65A25.3,25.3,0,0,1,46.4,64.5a25.61,25.61,0,0,1-7.18,6.57V66.23H10.88v3.56A25.39,25.39,0,1,1,51.1,45.65Z" transform="translate(3.81 -1.86)"/><path class="cls-161" d="M51.05,45.68A25.37,25.37,0,0,1,39.18,71.07V66.23H10.89v3.56A25.35,25.35,0,1,1,51.05,45.68Z" transform="translate(3.81 -1.86)"/><path class="cls-162" d="M51,45.72A25.35,25.35,0,0,1,39.14,71.07V66.23H10.89V69.8A25.32,25.32,0,1,1,51,45.72Z" transform="translate(3.81 -1.86)"/><path class="cls-162" d="M51,45.76a25.23,25.23,0,0,1-4.69,18.77,25.58,25.58,0,0,1-7.15,6.55V66.23H10.9V69.8A25.28,25.28,0,1,1,51,45.76Z" transform="translate(3.81 -1.86)"/><path class="cls-163" d="M50.89,45.8A25.29,25.29,0,0,1,39.07,71.08V66.23H10.9v3.58a25.24,25.24,0,1,1,40-24Z" transform="translate(3.81 -1.86)"/><path class="cls-163" d="M50.84,45.84A25.25,25.25,0,0,1,39,71.08V66.23H10.91v3.58a25.2,25.2,0,1,1,39.93-24Z" transform="translate(3.81 -1.86)"/><path class="cls-164" d="M50.79,45.88A25.18,25.18,0,0,1,39,71.08V66.23H10.92v3.58A25.16,25.16,0,1,1,50.79,45.88Z" transform="translate(3.81 -1.86)"/><path class="cls-165" d="M50.73,45.92A25.16,25.16,0,0,1,39,71.08V66.23h-28v3.59a25.13,25.13,0,1,1,39.81-23.9Z" transform="translate(3.81 -1.86)"/><path class="cls-165" d="M50.68,46A25.09,25.09,0,0,1,38.93,71.08V66.23h-28v3.59A25.09,25.09,0,1,1,50.68,46Z" transform="translate(3.81 -1.86)"/><path class="cls-166" d="M50.63,46A25.1,25.1,0,0,1,38.89,71.09V66.23h-28v3.59A25.05,25.05,0,1,1,50.63,46Z" transform="translate(3.81 -1.86)"/><path class="cls-167" d="M50.57,46A25.08,25.08,0,0,1,38.86,71.09V66.23H10.94v3.6A25,25,0,1,1,50.57,46Z" transform="translate(3.81 -1.86)"/><path class="cls-168" d="M50.52,46.07a25,25,0,0,1-11.7,25V66.23H10.94v3.6A25,25,0,1,1,50.52,46.07Z" transform="translate(3.81 -1.86)"/><path class="cls-168" d="M50.47,46.11a25,25,0,0,1-11.68,25V66.23H11v3.61A24.95,24.95,0,1,1,50.47,46.11Z" transform="translate(3.81 -1.86)"/><path class="cls-168" d="M50.42,46.15A24.9,24.9,0,0,1,38.75,71.09V66.23H11v3.61A24.91,24.91,0,1,1,50.42,46.15Z" transform="translate(3.81 -1.86)"/><path class="cls-169" d="M50.36,46.19A24.91,24.91,0,0,1,38.72,71.1V66.23H11v3.61a24.87,24.87,0,1,1,39.4-23.65Z" transform="translate(3.81 -1.86)"/><path class="cls-170" d="M50.31,46.23A24.89,24.89,0,0,1,38.68,71.1V66.23H11v3.62A24.83,24.83,0,1,1,50.31,46.23Z" transform="translate(3.81 -1.86)"/><path class="cls-171" d="M50.26,46.27a24.74,24.74,0,0,1-4.6,18.41,25,25,0,0,1-7,6.42V66.23H11v3.62A24.8,24.8,0,1,1,50.26,46.27Z" transform="translate(3.81 -1.86)"/><path class="cls-171" d="M50.2,46.31A24.79,24.79,0,0,1,38.61,71.1V66.23H11v3.62A24.76,24.76,0,1,1,50.2,46.31Z" transform="translate(3.81 -1.86)"/><path class="cls-171" d="M50.15,46.35A24.72,24.72,0,0,1,38.57,71.1V66.23H11v3.63A24.72,24.72,0,1,1,50.15,46.35Z" transform="translate(3.81 -1.86)"/><path class="cls-172" d="M50.1,46.39A24.69,24.69,0,0,1,38.54,71.1V66.23H11v3.63A24.69,24.69,0,1,1,50.1,46.39Z" transform="translate(3.81 -1.86)"/><path class="cls-172" d="M50,46.42A24.68,24.68,0,0,1,38.5,71.11V66.23H11v3.63A24.64,24.64,0,1,1,50,46.42Z" transform="translate(3.81 -1.86)"/><path class="cls-173" d="M50,46.46A24.63,24.63,0,0,1,38.47,71.11V66.23H11v3.64A24.61,24.61,0,1,1,50,46.46Z" transform="translate(3.81 -1.86)"/><path class="cls-173" d="M49.94,46.5A24.61,24.61,0,0,1,38.43,71.11V66.23H11v3.64A24.57,24.57,0,1,1,49.94,46.5Z" transform="translate(3.81 -1.86)"/><path class="cls-173" d="M49.89,46.54A24.6,24.6,0,0,1,38.4,71.11V66.23H11v3.65A24.54,24.54,0,1,1,49.89,46.54Z" transform="translate(3.81 -1.86)"/><path class="cls-174" d="M49.83,46.58A24.51,24.51,0,0,1,38.36,71.11V66.23H11v3.65a24.5,24.5,0,1,1,38.81-23.3Z" transform="translate(3.81 -1.86)"/><path class="cls-174" d="M49.78,46.62a24.52,24.52,0,0,1-11.46,24.5V66.23H11v3.65A24.46,24.46,0,1,1,49.78,46.62Z" transform="translate(3.81 -1.86)"/><path class="cls-175" d="M49.73,46.66A24.44,24.44,0,0,1,38.29,71.12V66.23H11v3.66a24.43,24.43,0,1,1,38.7-23.23Z" transform="translate(3.81 -1.86)"/><path class="cls-175" d="M49.67,46.7A24.39,24.39,0,0,1,38.25,71.12V66.23H11v3.66A24.39,24.39,0,1,1,49.67,46.7Z" transform="translate(3.81 -1.86)"/><path class="cls-176" d="M49.62,46.74a24.39,24.39,0,0,1-11.4,24.38V66.23H11v3.66A24.35,24.35,0,1,1,49.62,46.74Z" transform="translate(3.81 -1.86)"/><path class="cls-176" d="M49.57,46.77A24.32,24.32,0,0,1,38.18,71.12V66.23H11.05V69.9A24.32,24.32,0,1,1,49.57,46.77Z" transform="translate(3.81 -1.86)"/><path class="cls-176" d="M49.51,46.81A24.3,24.3,0,0,1,38.15,71.12V66.23H11.05V69.9A24.28,24.28,0,1,1,49.51,46.81Z" transform="translate(3.81 -1.86)"/><path class="cls-177" d="M49.46,46.85A24.27,24.27,0,0,1,38.11,71.13v-4.9h-27v3.68a24.24,24.24,0,1,1,38.4-23.06Z" transform="translate(3.81 -1.86)"/><path class="cls-177" d="M49.41,46.89A24.24,24.24,0,0,1,38.07,71.13v-4.9h-27v3.68a24.21,24.21,0,1,1,38.35-23Z" transform="translate(3.81 -1.86)"/><path class="cls-178" d="M49.36,46.93A24.24,24.24,0,0,1,38,71.13v-4.9h-27v3.68a24.17,24.17,0,1,1,38.29-23Z" transform="translate(3.81 -1.86)"/><path class="cls-178" d="M49.3,47A24.11,24.11,0,0,1,38,71.13v-4.9H11.08v3.69A24.13,24.13,0,1,1,49.3,47Z" transform="translate(3.81 -1.86)"/><path class="cls-178" d="M49.25,47A24.11,24.11,0,0,1,38,71.13v-4.9H11.08v3.69A24.09,24.09,0,1,1,49.25,47Z" transform="translate(3.81 -1.86)"/><path class="cls-179" d="M49.2,47.05a24,24,0,0,1-4.46,17.86,24.29,24.29,0,0,1-6.81,6.23V66.23H11.09v3.69A24.05,24.05,0,1,1,49.2,47.05Z" transform="translate(3.81 -1.86)"/><path class="cls-180" d="M49.14,47.09a23.91,23.91,0,0,1-4.45,17.83,24.17,24.17,0,0,1-6.79,6.22V66.23H11.09v3.7A24,24,0,1,1,49.14,47.09Z" transform="translate(3.81 -1.86)"/><path class="cls-181" d="M49.09,47.12a24,24,0,0,1-11.23,24V66.23H11.1v3.7a24,24,0,1,1,38-22.81Z" transform="translate(3.81 -1.86)"/><path class="cls-181" d="M49,47.16a24,24,0,0,1-11.21,24V66.23H11.1v3.7A23.94,23.94,0,1,1,49,47.16Z" transform="translate(3.81 -1.86)"/><path class="cls-181" d="M49,47.2a24,24,0,0,1-11.2,23.94V66.23H11.11v3.71A23.91,23.91,0,1,1,49,47.2Z" transform="translate(3.81 -1.86)"/><path class="cls-182" d="M48.93,47.24a23.88,23.88,0,0,1-11.18,23.9V66.23H11.12v3.71a23.87,23.87,0,1,1,37.81-22.7Z" transform="translate(3.81 -1.86)"/><path class="cls-183" d="M48.88,47.28A23.76,23.76,0,0,1,44.46,65a24.09,24.09,0,0,1-6.74,6.17V66.23H11.12V70A23.84,23.84,0,1,1,48.88,47.28Z" transform="translate(3.81 -1.86)"/><path class="cls-184" d="M48.83,47.32A23.84,23.84,0,0,1,37.68,71.15V66.23H11.13V70a23.8,23.8,0,1,1,37.7-22.63Z" transform="translate(3.81 -1.86)"/><path class="cls-184" d="M48.77,47.36A23.66,23.66,0,0,1,44.37,65a23.94,23.94,0,0,1-6.72,6.15V66.23H11.13V70A23.76,23.76,0,1,1,48.77,47.36Z" transform="translate(3.81 -1.86)"/><path class="cls-184" d="M48.72,47.4A23.75,23.75,0,0,1,37.61,71.15V66.23H11.14V70A23.72,23.72,0,1,1,48.72,47.4Z" transform="translate(3.81 -1.86)"/><path class="cls-185" d="M48.67,47.44A23.74,23.74,0,0,1,37.58,71.15V66.23H11.14V70A23.69,23.69,0,1,1,48.67,47.44Z" transform="translate(3.81 -1.86)"/><path class="cls-185" d="M48.61,47.47A23.69,23.69,0,0,1,37.54,71.16V66.23H11.15V70A23.65,23.65,0,1,1,48.61,47.47Z" transform="translate(3.81 -1.86)"/><path class="cls-186" d="M48.56,47.51a23.55,23.55,0,0,1-4.38,17.54,23.8,23.8,0,0,1-6.68,6.11V66.23H11.15V70A23.61,23.61,0,1,1,48.56,47.51Z" transform="translate(3.81 -1.86)"/><path class="cls-186" d="M48.51,47.55a23.51,23.51,0,0,1-4.37,17.51,23.86,23.86,0,0,1-6.67,6.1V66.23H11.16V70A23.57,23.57,0,1,1,48.51,47.55Z" transform="translate(3.81 -1.86)"/><path class="cls-187" d="M48.46,47.59a23.56,23.56,0,0,1-11,23.57V66.23H11.17V70A23.54,23.54,0,1,1,48.46,47.59Z" transform="translate(3.81 -1.86)"/><path class="cls-188" d="M48.4,47.63a23.53,23.53,0,0,1-11,23.53V66.23H11.17V70A23.5,23.5,0,1,1,48.4,47.63Z" transform="translate(3.81 -1.86)"/><path class="cls-188" d="M48.35,47.67a23.46,23.46,0,0,1-11,23.49V66.23H11.18V70A23.46,23.46,0,1,1,48.35,47.67Z" transform="translate(3.81 -1.86)"/><path class="cls-189" d="M48.3,47.71a23.5,23.5,0,0,1-11,23.46V66.23H11.18V70A23.43,23.43,0,1,1,48.3,47.71Z" transform="translate(3.81 -1.86)"/><path class="cls-189" d="M48.24,47.75a23.28,23.28,0,0,1-4.33,17.36,23.66,23.66,0,0,1-6.62,6.06V66.23H11.19V70A23.39,23.39,0,1,1,48.24,47.75Z" transform="translate(3.81 -1.86)"/><path class="cls-190" d="M48.19,47.79A23.37,23.37,0,0,1,37.26,71.17V66.23H11.19V70a23.35,23.35,0,1,1,37-22.2Z" transform="translate(3.81 -1.86)"/><path class="cls-190" d="M48.14,47.82A23.35,23.35,0,0,1,37.22,71.17V66.23h-26V70A23.32,23.32,0,1,1,48.14,47.82Z" transform="translate(3.81 -1.86)"/><path class="cls-191" d="M48.08,47.86a23.26,23.26,0,0,1-10.9,23.31V66.23h-26V70A23.28,23.28,0,1,1,48.08,47.86Z" transform="translate(3.81 -1.86)"/><path class="cls-191" d="M48,47.9a23.15,23.15,0,0,1-4.31,17.26,23.48,23.48,0,0,1-6.57,6v-5H11.21V70A23.24,23.24,0,1,1,48,47.9Z" transform="translate(3.81 -1.86)"/><path class="cls-192" d="M48,47.94A23.27,23.27,0,0,1,37.11,71.18v-5H11.22V70A23.2,23.2,0,1,1,48,47.94Z" transform="translate(3.81 -1.86)"/><path class="cls-193" d="M47.93,48a23.22,23.22,0,0,1-10.85,23.2v-5H11.22V70A23.17,23.17,0,1,1,47.93,48Z" transform="translate(3.81 -1.86)"/><path class="cls-193" d="M47.87,48A23.17,23.17,0,0,1,37,71.18v-5H11.23V70A23.13,23.13,0,1,1,47.87,48Z" transform="translate(3.81 -1.86)"/><path class="cls-194" d="M47.82,48.06A23.09,23.09,0,0,1,37,71.18v-5H11.23V70a23.09,23.09,0,1,1,36.59-22Z" transform="translate(3.81 -1.86)"/><path class="cls-194" d="M47.77,48.1A23.06,23.06,0,0,1,37,71.18v-5H11.24V70A23.06,23.06,0,1,1,47.77,48.1Z" transform="translate(3.81 -1.86)"/><path class="cls-195" d="M47.71,48.14a23.05,23.05,0,0,1-10.78,23v-5H11.25V70A23,23,0,1,1,47.71,48.14Z" transform="translate(3.81 -1.86)"/><path class="cls-195" d="M47.66,48.17a23,23,0,0,1-10.76,23v-5H11.25V70A23,23,0,1,1,47.66,48.17Z" transform="translate(3.81 -1.86)"/><path class="cls-195" d="M47.61,48.21a23,23,0,0,1-10.75,23v-5H11.26V70A22.94,22.94,0,1,1,47.61,48.21Z" transform="translate(3.81 -1.86)"/><path class="cls-196" d="M47.55,48.25A22.91,22.91,0,0,1,36.83,71.19v-5H11.26V70A22.91,22.91,0,1,1,47.55,48.25Z" transform="translate(3.81 -1.86)"/><path class="cls-196" d="M47.5,48.29a22.89,22.89,0,0,1-10.71,22.9v-5H11.27V70A22.87,22.87,0,1,1,47.5,48.29Z" transform="translate(3.81 -1.86)"/><path class="cls-197" d="M47.45,48.33a22.77,22.77,0,0,1-4.24,17,23.06,23.06,0,0,1-6.45,5.91v-5H11.27v3.82A22.84,22.84,0,1,1,47.45,48.33Z" transform="translate(3.81 -1.86)"/><path class="cls-197" d="M47.4,48.37A22.77,22.77,0,0,1,43.17,65.3a23,23,0,0,1-6.45,5.9v-5H11.28v3.82A22.8,22.8,0,1,1,47.4,48.37Z" transform="translate(3.81 -1.86)"/><path class="cls-198" d="M47.34,48.41A22.77,22.77,0,0,1,36.68,71.2v-5H11.29v3.82A22.76,22.76,0,1,1,47.34,48.41Z" transform="translate(3.81 -1.86)"/><path class="cls-198" d="M47.29,48.45A22.72,22.72,0,0,1,36.65,71.2v-5H11.29v3.83a22.72,22.72,0,1,1,36-21.61Z" transform="translate(3.81 -1.86)"/><path class="cls-199" d="M47.24,48.49A22.7,22.7,0,0,1,36.61,71.2v-5H11.3v3.83A22.69,22.69,0,1,1,47.24,48.49Z" transform="translate(3.81 -1.86)"/><path class="cls-199" d="M47.18,48.52A22.68,22.68,0,0,1,36.58,71.2v-5H11.3v3.83A22.65,22.65,0,1,1,47.18,48.52Z" transform="translate(3.81 -1.86)"/><path class="cls-199" d="M47.13,48.56A22.64,22.64,0,0,1,36.54,71.21v-5H11.31v3.84A22.61,22.61,0,1,1,47.13,48.56Z" transform="translate(3.81 -1.86)"/><path class="cls-200" d="M47.08,48.6A22.61,22.61,0,0,1,36.51,71.21v-5H11.31v3.84A22.58,22.58,0,1,1,47.08,48.6Z" transform="translate(3.81 -1.86)"/><path class="cls-200" d="M47,48.64A22.56,22.56,0,0,1,36.47,71.21v-5H11.32v3.84A22.54,22.54,0,1,1,47,48.64Z" transform="translate(3.81 -1.86)"/><path class="cls-201" d="M47,48.68A22.4,22.4,0,0,1,42.8,65.39a22.67,22.67,0,0,1-6.36,5.82v-5H11.33v3.85A22.5,22.5,0,1,1,47,48.68Z" transform="translate(3.81 -1.86)"/><path class="cls-201" d="M46.92,48.72A22.49,22.49,0,0,1,36.4,71.21v-5H11.33v3.85A22.46,22.46,0,1,1,46.92,48.72Z" transform="translate(3.81 -1.86)"/><path class="cls-202" d="M46.87,48.76A22.46,22.46,0,0,1,36.36,71.22v-5h-25v3.86A22.43,22.43,0,1,1,46.87,48.76Z" transform="translate(3.81 -1.86)"/><path class="cls-202" d="M46.81,48.8A22.43,22.43,0,0,1,36.33,71.22v-5h-25v3.86A22.39,22.39,0,1,1,46.81,48.8Z" transform="translate(3.81 -1.86)"/><path class="cls-203" d="M46.76,48.84A22.41,22.41,0,0,1,36.29,71.22v-5H11.35v3.86A22.35,22.35,0,1,1,46.76,48.84Z" transform="translate(3.81 -1.86)"/><path class="cls-203" d="M46.71,48.87A22.33,22.33,0,0,1,36.26,71.22v-5H11.35V70.1A22.32,22.32,0,1,1,46.71,48.87Z" transform="translate(3.81 -1.86)"/><path class="cls-204" d="M46.65,48.91A22.28,22.28,0,0,1,36.22,71.22v-5H11.36V70.1A22.28,22.28,0,1,1,46.65,48.91Z" transform="translate(3.81 -1.86)"/><path class="cls-204" d="M46.6,49a22.19,22.19,0,0,1-4.12,16.52,22.44,22.44,0,0,1-6.29,5.75v-5H11.37V70.1A22.24,22.24,0,1,1,46.6,49Z" transform="translate(3.81 -1.86)"/><path class="cls-205" d="M46.55,49a22.16,22.16,0,0,1-4.12,16.49,22.42,22.42,0,0,1-6.28,5.75v-5H11.37v3.88A22.21,22.21,0,1,1,46.55,49Z" transform="translate(3.81 -1.86)"/><path class="cls-206" d="M46.49,49a22.2,22.2,0,0,1-10.38,22.2v-5H11.38v3.88A22.17,22.17,0,1,1,46.49,49Z" transform="translate(3.81 -1.86)"/><path class="cls-207" d="M46.44,49.07A22.15,22.15,0,0,1,36.08,71.23v-5H11.38v3.89A22.13,22.13,0,1,1,46.44,49.07Z" transform="translate(3.81 -1.86)"/><path class="cls-207" d="M46.39,49.11A22.12,22.12,0,0,1,36,71.23v-5H11.39v3.89a22.09,22.09,0,1,1,35-21Z" transform="translate(3.81 -1.86)"/><path class="cls-208" d="M46.34,49.15A22.08,22.08,0,0,1,36,71.23v-5H11.39v3.89a22.06,22.06,0,1,1,35-21Z" transform="translate(3.81 -1.86)"/><path class="cls-208" d="M46.28,49.19A22,22,0,0,1,42.2,65.54,22.34,22.34,0,0,1,36,71.24v-5H11.4v3.9A22,22,0,1,1,46.28,49.19Z" transform="translate(3.81 -1.86)"/><path class="cls-209" d="M46.23,49.22a22,22,0,0,1-10.29,22v-5H11.4v3.9A22,22,0,1,1,46.23,49.22Z" transform="translate(3.81 -1.86)"/><path class="cls-210" d="M46.18,49.26a22,22,0,0,1-10.28,22v-5H11.41v3.9A21.95,21.95,0,1,1,46.18,49.26Z" transform="translate(3.81 -1.86)"/><path class="cls-210" d="M46.12,49.3A21.92,21.92,0,0,1,35.86,71.24v-5H11.42v3.91A21.91,21.91,0,1,1,46.12,49.3Z" transform="translate(3.81 -1.86)"/><path class="cls-211" d="M46.07,49.34a21.91,21.91,0,0,1-10.24,21.9v-5H11.42v3.91a21.87,21.87,0,1,1,34.65-20.8Z" transform="translate(3.81 -1.86)"/><path class="cls-212" d="M46,49.38A21.84,21.84,0,0,1,35.79,71.24v-5H11.43v3.91A21.83,21.83,0,1,1,46,49.38Z" transform="translate(3.81 -1.86)"/><path class="cls-213" d="M46,49.42A21.88,21.88,0,0,1,35.76,71.25v-5H11.43v3.92A21.8,21.8,0,1,1,46,49.42Z" transform="translate(3.81 -1.86)"/><path class="cls-213" d="M45.91,49.46A21.75,21.75,0,0,1,35.72,71.25v-5H11.44v3.92A21.76,21.76,0,1,1,45.91,49.46Z" transform="translate(3.81 -1.86)"/><path class="cls-214" d="M45.86,49.5A21.75,21.75,0,0,1,35.69,71.25v-5H11.44v3.93A21.73,21.73,0,1,1,45.86,49.5Z" transform="translate(3.81 -1.86)"/><path class="cls-214" d="M45.81,49.54A21.72,21.72,0,0,1,35.65,71.25v-5H11.45v3.93A21.69,21.69,0,1,1,45.81,49.54Z" transform="translate(3.81 -1.86)"/><path class="cls-215" d="M45.75,49.57A21.66,21.66,0,0,1,35.62,71.25v-5H11.46v3.93A21.65,21.65,0,1,1,45.75,49.57Z" transform="translate(3.81 -1.86)"/><path class="cls-215" d="M45.7,49.61A21.67,21.67,0,0,1,35.58,71.26v-5H11.46v3.94A21.61,21.61,0,1,1,45.7,49.61Z" transform="translate(3.81 -1.86)"/><path class="cls-216" d="M45.65,49.65A21.6,21.6,0,0,1,35.54,71.26v-5H11.47v3.94A21.58,21.58,0,1,1,45.65,49.65Z" transform="translate(3.81 -1.86)"/><path class="cls-216" d="M45.59,49.69A21.57,21.57,0,0,1,35.51,71.26v-5h-24v3.94A21.54,21.54,0,1,1,45.59,49.69Z" transform="translate(3.81 -1.86)"/><path class="cls-217" d="M45.54,49.73A21.51,21.51,0,0,1,35.47,71.26v-5h-24v4A21.5,21.5,0,1,1,45.54,49.73Z" transform="translate(3.81 -1.86)"/><path class="cls-217" d="M45.49,49.77A21.47,21.47,0,0,1,35.44,71.26v-5h-24v4a21.47,21.47,0,1,1,34-20.41Z" transform="translate(3.81 -1.86)"/><path class="cls-218" d="M45.44,49.81a21.44,21.44,0,0,1-10,21.45v-5H11.49v4A21.43,21.43,0,1,1,45.44,49.81Z" transform="translate(3.81 -1.86)"/><path class="cls-219" d="M45.38,49.85a21.41,21.41,0,0,1-10,21.42v-5H11.5v4A21.39,21.39,0,1,1,45.38,49.85Z" transform="translate(3.81 -1.86)"/><path class="cls-219" d="M45.33,49.89a21.38,21.38,0,0,1-10,21.38v-5H11.5v4a21.35,21.35,0,1,1,33.83-20.3Z" transform="translate(3.81 -1.86)"/><path class="cls-220" d="M45.28,49.92a21.36,21.36,0,0,1-10,21.35v-5H11.51v4A21.32,21.32,0,1,1,45.28,49.92Z" transform="translate(3.81 -1.86)"/><path class="cls-220" d="M45.22,50a21.29,21.29,0,0,1-10,21.31v-5H11.51v4A21.28,21.28,0,1,1,45.22,50Z" transform="translate(3.81 -1.86)"/><path class="cls-221" d="M45.17,50a21.23,21.23,0,0,1-10,21.27v-5H11.52v4A21.24,21.24,0,1,1,45.17,50Z" transform="translate(3.81 -1.86)"/><path class="cls-221" d="M45.12,50a21.27,21.27,0,0,1-9.93,21.24v-5H11.52v4A21.21,21.21,0,1,1,45.12,50Z" transform="translate(3.81 -1.86)"/><path class="cls-222" d="M45.06,50.08a21.18,21.18,0,0,1-9.91,21.2v-5H11.53v4A21.17,21.17,0,1,1,45.06,50.08Z" transform="translate(3.81 -1.86)"/><path class="cls-222" d="M45,50.12a21.17,21.17,0,0,1-9.89,21.16v-5H11.54v4A21.13,21.13,0,1,1,45,50.12Z" transform="translate(3.81 -1.86)"/><path class="cls-222" d="M45,50.12A21.13,21.13,0,0,1,35.1,71.25v-5H11.56v4A21.09,21.09,0,1,1,45,50.12Z" transform="translate(3.81 -1.86)"/><path class="cls-223" d="M44.8,50.26a20.94,20.94,0,0,1-3.89,15.57A21.22,21.22,0,0,1,35,71.26v-5H11.58v4A21,21,0,1,1,44.8,50.26Z" transform="translate(3.81 -1.86)"/><path class="cls-224" d="M44.62,50.39a20.87,20.87,0,0,1-9.76,20.87v-5H11.59v4a20.85,20.85,0,1,1,33-19.82Z" transform="translate(3.81 -1.86)"/><path class="cls-225" d="M44.44,50.52a20.73,20.73,0,0,1-9.7,20.75v-5H11.61v4A20.72,20.72,0,1,1,44.44,50.52Z" transform="translate(3.81 -1.86)"/><path class="cls-226" d="M44.26,50.65a20.61,20.61,0,0,1-9.65,20.63v-5h-23v4A20.6,20.6,0,1,1,44.26,50.65Z" transform="translate(3.81 -1.86)"/><path class="cls-227" d="M44.08,50.79A20.41,20.41,0,0,1,40.28,66a20.66,20.66,0,0,1-5.79,5.3V66.23H11.65v4A20.47,20.47,0,1,1,44.08,50.79Z" transform="translate(3.81 -1.86)"/><path class="cls-228" d="M43.9,50.92A20.36,20.36,0,0,1,34.37,71.3V66.23H11.67v4A20.35,20.35,0,1,1,43.9,50.92Z" transform="translate(3.81 -1.86)"/><path class="cls-229" d="M43.72,51.05A20.23,20.23,0,0,1,34.25,71.3V66.23H11.68v4a20.22,20.22,0,1,1,32-19.23Z" transform="translate(3.81 -1.86)"/><path class="cls-230" d="M43.54,51.18a20.08,20.08,0,0,1-9.41,20.13V66.23H11.7V70.3A20.1,20.1,0,1,1,43.54,51.18Z" transform="translate(3.81 -1.86)"/><path class="cls-231" d="M43.37,51.32a20,20,0,0,1-9.36,20V66.23H11.72v4.08a20,20,0,1,1,31.65-19Z" transform="translate(3.81 -1.86)"/><path class="cls-232" d="M43.19,51.45a19.91,19.91,0,0,1-9.3,19.88v-5.1H11.74v4.1A19.85,19.85,0,1,1,43.19,51.45Z" transform="translate(3.81 -1.86)"/><path class="cls-233" d="M43,51.58a19.77,19.77,0,0,1-9.24,19.76V66.23h-22v4.11A19.73,19.73,0,1,1,43,51.58Z" transform="translate(3.81 -1.86)"/><path class="cls-234" d="M42.83,51.71a19.52,19.52,0,0,1-3.64,14.56v0H11.77v4.13A19.6,19.6,0,1,1,42.83,51.71Z" transform="translate(3.81 -1.86)"/><path class="cls-235" d="M42.65,51.85A19.45,19.45,0,0,1,39,66.31v-.08H11.79v4.14A19.48,19.48,0,1,1,42.65,51.85Z" transform="translate(3.81 -1.86)"/><path class="cls-236" d="M42.47,52a19.27,19.27,0,0,1-3.59,14.37v-.12H11.81v4.16A19.35,19.35,0,1,1,42.47,52Z" transform="translate(3.81 -1.86)"/><path class="cls-237" d="M42.29,52.11a19.13,19.13,0,0,1-3.56,14.28v-.16H11.83V70.4A19.23,19.23,0,1,1,42.29,52.11Z" transform="translate(3.81 -1.86)"/><path class="cls-238" d="M42.11,52.25a19,19,0,0,1-3.54,14.18v-.2H11.85v4.18A19.1,19.1,0,1,1,42.11,52.25Z" transform="translate(3.81 -1.86)"/><path class="cls-239" d="M41.93,52.38a18.84,18.84,0,0,1-3.52,14.09v-.24H11.87v4.2A19,19,0,1,1,41.93,52.38Z" transform="translate(3.81 -1.86)"/><path class="cls-240" d="M41.76,52.51a18.84,18.84,0,0,1-3.5,14v-.28H11.88v4.21A18.86,18.86,0,1,1,41.76,52.51Z" transform="translate(3.81 -1.86)"/><path class="cls-241" d="M41.58,52.64A18.65,18.65,0,0,1,38.1,66.55v-.32H11.9v4.23A18.73,18.73,0,1,1,41.58,52.64Z" transform="translate(3.81 -1.86)"/><path class="cls-242" d="M41.4,52.78A18.53,18.53,0,0,1,38,66.59v-.36h-26v4.24A18.61,18.61,0,1,1,41.4,52.78Z" transform="translate(3.81 -1.86)"/><path class="cls-243" d="M41.22,52.91a18.4,18.4,0,0,1-3.43,13.72v-.4H11.94v4.26A18.48,18.48,0,1,1,41.22,52.91Z" transform="translate(3.81 -1.86)"/><path class="cls-244" d="M41,53a18.31,18.31,0,0,1-3.4,13.63v-.44H12V70.5A18.36,18.36,0,1,1,41,53Z" transform="translate(3.81 -1.86)"/><path class="cls-245" d="M40.86,53.17a18.17,18.17,0,0,1-3.38,13.54v-.48H12v4.28A18.24,18.24,0,1,1,40.86,53.17Z" transform="translate(3.81 -1.86)"/><path class="cls-246" d="M40.68,53.31a18,18,0,0,1-3.36,13.44v-.52H12v4.3A18.11,18.11,0,1,1,40.68,53.31Z" transform="translate(3.81 -1.86)"/><path class="cls-247" d="M40.5,53.44a17.88,17.88,0,0,1-3.33,13.35v-.56H12v4.31A18,18,0,1,1,40.5,53.44Z" transform="translate(3.81 -1.86)"/><path class="cls-248" d="M40.33,53.57A17.83,17.83,0,0,1,37,66.83v-.6H12v4.33a17.86,17.86,0,1,1,28.3-17Z" transform="translate(3.81 -1.86)"/><path class="cls-249" d="M40.15,53.7a17.68,17.68,0,0,1-3.29,13.17v-.64H12.05v4.34A17.74,17.74,0,1,1,40.15,53.7Z" transform="translate(3.81 -1.86)"/><path class="cls-250" d="M40,53.84A17.58,17.58,0,0,1,36.7,66.91v-.68H12.06v4.36A17.62,17.62,0,1,1,40,53.84Z" transform="translate(3.81 -1.86)"/><path class="cls-251" d="M39.79,54a17.44,17.44,0,0,1-3.24,13v-.72H12.08V70.6A17.49,17.49,0,1,1,39.79,54Z" transform="translate(3.81 -1.86)"/><path class="cls-252" d="M39.61,54.1A17.31,17.31,0,0,1,36.39,67v-.76H12.1v4.38A17.36,17.36,0,1,1,39.61,54.1Z" transform="translate(3.81 -1.86)"/><path class="cls-253" d="M39.43,54.23A17.17,17.17,0,0,1,36.23,67v-.8H12.12v4.4a17.24,17.24,0,1,1,27.31-16.4Z" transform="translate(3.81 -1.86)"/><path class="cls-254" d="M39.25,54.37a17,17,0,0,1-3.17,12.7v-.84H12.14v4.41A17.11,17.11,0,1,1,39.25,54.37Z" transform="translate(3.81 -1.86)"/><path class="cls-255" d="M39.07,54.5a16.91,16.91,0,0,1-3.15,12.62v-.89H12.16v4.43A17,17,0,1,1,39.07,54.5Z" transform="translate(3.81 -1.86)"/><path class="cls-256" d="M38.9,54.63a16.85,16.85,0,0,1-3.13,12.53v-.93H12.17v4.44a16.87,16.87,0,1,1,26.73-16Z" transform="translate(3.81 -1.86)"/><path class="cls-257" d="M38.72,54.76A16.72,16.72,0,0,1,35.61,67.2v-1H12.19v4.46A16.75,16.75,0,1,1,38.72,54.76Z" transform="translate(3.81 -1.86)"/><path class="cls-258" d="M38.54,54.9a16.61,16.61,0,0,1-3.08,12.34v-1H12.21V70.7A16.62,16.62,0,1,1,38.54,54.9Z" transform="translate(3.81 -1.86)"/><path class="cls-258" d="M38.36,55A16.48,16.48,0,0,1,35.3,67.28v-1H12.23v4.48A16.49,16.49,0,1,1,38.36,55Z" transform="translate(3.81 -1.86)"/><path class="cls-259" d="M38.18,55.16a16.29,16.29,0,0,1-3,12.16V66.23H12.25v4.5A16.37,16.37,0,1,1,38.18,55.16Z" transform="translate(3.81 -1.86)"/><path class="cls-260" d="M38,55.29a16.23,16.23,0,0,1-3,12.07V66.23H12.26v4.51A16.25,16.25,0,1,1,38,55.29Z" transform="translate(3.81 -1.86)"/><path class="cls-261" d="M37.82,55.43a16,16,0,0,1-3,12V66.23H12.28v4.53A16.12,16.12,0,1,1,37.82,55.43Z" transform="translate(3.81 -1.86)"/><path class="cls-262" d="M37.64,55.56a16,16,0,0,1-3,11.88V66.23H12.3v4.54A16,16,0,1,1,37.64,55.56Z" transform="translate(3.81 -1.86)"/><path class="cls-263" d="M37.46,55.69a15.8,15.8,0,0,1-2.94,11.79V66.23H12.32v4.56a15.87,15.87,0,1,1,25.14-15.1Z" transform="translate(3.81 -1.86)"/><path class="cls-264" d="M37.29,55.82a15.76,15.76,0,0,1-2.92,11.7V66.23h-22V70.8a15.75,15.75,0,1,1,25-15Z" transform="translate(3.81 -1.86)"/><path class="cls-264" d="M37.11,56a15.61,15.61,0,0,1-2.9,11.6V66.23H12.35v4.58A15.63,15.63,0,1,1,37.11,56Z" transform="translate(3.81 -1.86)"/><path class="cls-264" d="M37,56a15.4,15.4,0,0,1-2.87,11.51V66.23H12.43v4.48A15.5,15.5,0,1,1,37,56Z" transform="translate(3.81 -1.86)"/><path class="cls-265" d="M36.87,56.06A15.4,15.4,0,0,1,34,67.51V66.23H12.44v4.49A15.42,15.42,0,1,1,36.87,56.06Z" transform="translate(3.81 -1.86)"/><path class="cls-266" d="M36.75,56.15a15.34,15.34,0,0,1-2.84,11.39V66.23H12.45v4.5a15.34,15.34,0,1,1,24.3-14.58Z" transform="translate(3.81 -1.86)"/><path class="cls-267" d="M36.63,56.23A15.19,15.19,0,0,1,33.8,67.56V66.23H12.46v4.51A15.26,15.26,0,1,1,36.63,56.23Z" transform="translate(3.81 -1.86)"/><path class="cls-268" d="M36.52,56.32A15.18,15.18,0,0,1,33.7,67.59V66.23H12.48v4.52a15.17,15.17,0,1,1,24-14.43Z" transform="translate(3.81 -1.86)"/><path class="cls-269" d="M36.4,56.41a15,15,0,0,1-2.8,11.2V66.23H12.49v4.53A15.09,15.09,0,1,1,36.4,56.41Z" transform="translate(3.81 -1.86)"/><path class="cls-270" d="M36.28,56.49A15,15,0,0,1,33.5,67.64V66.23h-21v4.54A15,15,0,1,1,36.28,56.49Z" transform="translate(3.81 -1.86)"/><path class="cls-271" d="M36.16,56.58A14.89,14.89,0,0,1,33.4,67.67V66.23H12.51v4.55a14.93,14.93,0,1,1,23.65-14.2Z" transform="translate(3.81 -1.86)"/><path class="cls-272" d="M36.05,56.67a14.78,14.78,0,0,1-2.76,11V66.23H12.52v4.56A14.85,14.85,0,1,1,36.05,56.67Z" transform="translate(3.81 -1.86)"/><path class="cls-273" d="M35.93,56.75a14.73,14.73,0,0,1-2.74,11V66.23H12.54V70.8a14.77,14.77,0,1,1,23.39-14Z" transform="translate(3.81 -1.86)"/><path class="cls-273" d="M35.81,56.84a14.6,14.6,0,0,1-2.72,10.9V66.23H12.55v4.58a14.69,14.69,0,1,1,23.26-14Z" transform="translate(3.81 -1.86)"/><path class="cls-274" d="M35.7,56.93A14.59,14.59,0,0,1,33,67.77V66.23H12.56v4.58A14.6,14.6,0,1,1,35.7,56.93Z" transform="translate(3.81 -1.86)"/><path class="cls-275" d="M35.58,57A14.5,14.5,0,0,1,32.89,67.8V66.23H12.57v4.59A14.52,14.52,0,1,1,35.58,57Z" transform="translate(3.81 -1.86)"/><path class="cls-276" d="M35.46,57.1a14.38,14.38,0,0,1-2.68,10.72V66.23H12.59v4.6A14.44,14.44,0,1,1,35.46,57.1Z" transform="translate(3.81 -1.86)"/><path class="cls-277" d="M35.35,57.19a14.32,14.32,0,0,1-2.67,10.66V66.23H12.6v4.61A14.36,14.36,0,1,1,35.35,57.19Z" transform="translate(3.81 -1.86)"/><path class="cls-278" d="M35.23,57.27a14.25,14.25,0,0,1-2.65,10.6V66.23h-20v4.62A14.28,14.28,0,1,1,35.23,57.27Z" transform="translate(3.81 -1.86)"/><path class="cls-279" d="M35.11,57.36A14.14,14.14,0,0,1,32.48,67.9V66.23H12.62v4.63a14.2,14.2,0,1,1,22.49-13.5Z" transform="translate(3.81 -1.86)"/><path class="cls-280" d="M35,57.45a14.05,14.05,0,0,1-2.61,10.48v-1.7H12.63v4.64A14.11,14.11,0,1,1,35,57.45Z" transform="translate(3.81 -1.86)"/><path class="cls-280" d="M34.88,57.53A14,14,0,0,1,32.27,68V66.23H12.65v4.65A14,14,0,1,1,34.88,57.53Z" transform="translate(3.81 -1.86)"/><path class="cls-281" d="M34.76,57.62A13.88,13.88,0,0,1,32.17,68V66.23H12.66v4.66a14,14,0,1,1,22.1-13.27Z" transform="translate(3.81 -1.86)"/><path class="cls-282" d="M34.64,57.71A13.8,13.8,0,0,1,32.07,68V66.23H12.67V70.9a13.87,13.87,0,1,1,22-13.19Z" transform="translate(3.81 -1.86)"/><path class="cls-283" d="M34.53,57.79A13.76,13.76,0,0,1,32,68v-1.8H12.68V70.9A13.79,13.79,0,1,1,34.53,57.79Z" transform="translate(3.81 -1.86)"/><path class="cls-283" d="M34.41,57.88a13.7,13.7,0,0,1-2.54,10.18V66.23H12.69v4.68a13.71,13.71,0,1,1,21.72-13Z" transform="translate(3.81 -1.86)"/><path class="cls-284" d="M34.29,58a13.52,13.52,0,0,1-2.53,10.11V66.23h-19v4.69A13.62,13.62,0,1,1,34.29,58Z" transform="translate(3.81 -1.86)"/><path class="cls-285" d="M34.17,58.05a13.44,13.44,0,0,1-2.51,10.06V66.23H12.72v4.7A13.54,13.54,0,1,1,34.17,58.05Z" transform="translate(3.81 -1.86)"/><path class="cls-286" d="M34.06,58.14a13.39,13.39,0,0,1-2.5,10v-1.9H12.73v4.71a13.46,13.46,0,1,1,21.33-12.8Z" transform="translate(3.81 -1.86)"/><path class="cls-286" d="M33.94,58.22a13.35,13.35,0,0,1-2.48,9.94V66.23H12.74V71a13.38,13.38,0,1,1,21.2-12.73Z" transform="translate(3.81 -1.86)"/><path class="cls-287" d="M33.82,58.31a13.3,13.3,0,0,1-2.46,9.88v-2H12.75V71A13.3,13.3,0,1,1,33.82,58.31Z" transform="translate(3.81 -1.86)"/><path class="cls-288" d="M33.71,58.4a13.18,13.18,0,0,1-2.46,9.81v-2H12.77V71A13.22,13.22,0,1,1,33.71,58.4Z" transform="translate(3.81 -1.86)"/><path class="cls-288" d="M33.59,58.48a13.13,13.13,0,0,1-2.44,9.76v-2H12.78V71a13.14,13.14,0,1,1,20.81-12.5Z" transform="translate(3.81 -1.86)"/><path class="cls-289" d="M33.47,58.57a13,13,0,0,1-2.42,9.7v-2H12.79V71A13.06,13.06,0,1,1,33.47,58.57Z" transform="translate(3.81 -1.86)"/><path class="cls-290" d="M33.35,58.66A12.94,12.94,0,0,1,31,68.29V66.23H12.8V71A13,13,0,1,1,33.35,58.66Z" transform="translate(3.81 -1.86)"/><path class="cls-291" d="M33.24,58.74a12.89,12.89,0,0,1-2.39,9.58V66.23h-18V71A12.89,12.89,0,1,1,33.24,58.74Z" transform="translate(3.81 -1.86)"/><path class="cls-292" d="M33.12,58.83a12.73,12.73,0,0,1-2.38,9.51V66.23H12.83V71A12.81,12.81,0,1,1,33.12,58.83Z" transform="translate(3.81 -1.86)"/><path class="cls-293" d="M33,58.92a12.68,12.68,0,0,1-2.36,9.45V66.23H12.84V71A12.73,12.73,0,1,1,33,58.92Z" transform="translate(3.81 -1.86)"/><path class="cls-294" d="M32.89,59a12.64,12.64,0,0,1-2.35,9.4V66.23H12.85V71a12.65,12.65,0,1,1,20-12Z" transform="translate(3.81 -1.86)"/><path class="cls-295" d="M32.77,59.09a12.55,12.55,0,0,1-2.33,9.33V66.23H12.86V71a12.57,12.57,0,1,1,19.91-12Z" transform="translate(3.81 -1.86)"/><path class="cls-295" d="M32.65,59.18a12.44,12.44,0,0,1-2.31,9.27V66.23H12.87v4.82A12.48,12.48,0,1,1,32.65,59.18Z" transform="translate(3.81 -1.86)"/><path class="cls-296" d="M32.54,59.26a12.42,12.42,0,0,1-2.3,9.21V66.23H12.89v4.83a12.41,12.41,0,1,1,19.65-11.8Z" transform="translate(3.81 -1.86)"/><path class="cls-297" d="M32.42,59.35a12.27,12.27,0,0,1-2.29,9.15V66.23H12.9v4.84A12.32,12.32,0,1,1,32.42,59.35Z" transform="translate(3.81 -1.86)"/><path class="cls-298" d="M32.3,59.44A12.18,12.18,0,0,1,30,68.53v-2.3H12.91v4.85A12.24,12.24,0,1,1,32.3,59.44Z" transform="translate(3.81 -1.86)"/><path class="cls-299" d="M32.18,59.52a12.11,12.11,0,0,1-2.25,9V66.23h-17v4.86A12.16,12.16,0,1,1,32.18,59.52Z" transform="translate(3.81 -1.86)"/><path class="cls-300" d="M32.07,59.61a12.05,12.05,0,0,1-2.24,9V66.23H12.93V71.1A12.08,12.08,0,1,1,32.07,59.61Z" transform="translate(3.81 -1.86)"/><path class="cls-301" d="M32,59.7a12,12,0,0,1-2.22,8.9V66.23H13V71.1A12,12,0,1,1,32,59.7Z" transform="translate(3.81 -1.86)"/><path class="cls-301" d="M31.83,59.78a11.83,11.83,0,0,1-2.21,8.85v-2.4H13v4.88A11.91,11.91,0,1,1,31.83,59.78Z" transform="translate(3.81 -1.86)"/><path class="cls-302" d="M31.72,59.87a11.83,11.83,0,0,1-2.2,8.79V66.23H13v4.89A11.83,11.83,0,1,1,31.72,59.87Z" transform="translate(3.81 -1.86)"/><path class="cls-303" d="M31.6,60a11.68,11.68,0,0,1-2.18,8.72V66.23H13v4.9A11.75,11.75,0,1,1,31.6,60Z" transform="translate(3.81 -1.86)"/><path class="cls-303" d="M31.48,60a11.65,11.65,0,0,1-2.16,8.67V66.23H13v4.91A11.67,11.67,0,1,1,31.48,60Z" transform="translate(3.81 -1.86)"/><path class="cls-304" d="M31.36,60.13a11.52,11.52,0,0,1-2.14,8.6v-2.5H13v4.92a11.58,11.58,0,1,1,18.35-11Z" transform="translate(3.81 -1.86)"/><path class="cls-305" d="M31.25,60.22a11.43,11.43,0,0,1-2.14,8.54V66.23H13v4.93A11.51,11.51,0,1,1,31.25,60.22Z" transform="translate(3.81 -1.86)"/><path class="cls-306" d="M31.13,60.3A11.39,11.39,0,0,1,29,68.79V66.23H13v4.94A11.42,11.42,0,1,1,31.13,60.3Z" transform="translate(3.81 -1.86)"/><path class="cls-307" d="M31,60.39a11.25,11.25,0,0,1-2.1,8.42V66.23H13v5A11.34,11.34,0,1,1,31,60.39Z" transform="translate(3.81 -1.86)"/><path class="cls-308" d="M30.9,60.48a11.29,11.29,0,0,1-2.09,8.36V66.23H13.05v5A11.26,11.26,0,1,1,30.9,60.48Z" transform="translate(3.81 -1.86)"/><path class="cls-309" d="M30.78,60.56a11.16,11.16,0,0,1-2.07,8.3V66.23H13.07v5A11.18,11.18,0,1,1,30.78,60.56Z" transform="translate(3.81 -1.86)"/><path class="cls-309" d="M30.66,60.65a11.07,11.07,0,0,1-2.06,8.24V66.23H13.08v5A11.1,11.1,0,1,1,30.66,60.65Z" transform="translate(3.81 -1.86)"/><path class="cls-309" d="M30.58,60.66a11,11,0,0,1-9.27,12.52v-7H13.13v4.91A11,11,0,1,1,30.58,60.66Z" transform="translate(3.81 -1.86)"/><path class="cls-310" d="M30.51,60.72a11,11,0,0,1-9.23,12.46v-7H13.13v4.91A11,11,0,1,1,30.51,60.72Z" transform="translate(3.81 -1.86)"/><path class="cls-311" d="M30.43,60.77a10.9,10.9,0,0,1-9.19,12.4V66.23h-8.1v4.92A10.91,10.91,0,1,1,30.43,60.77Z" transform="translate(3.81 -1.86)"/><path class="cls-311" d="M30.35,60.83a10.85,10.85,0,0,1-9.14,12.34V66.23H13.15v4.93a10.86,10.86,0,1,1,17.2-10.33Z" transform="translate(3.81 -1.86)"/><path class="cls-312" d="M30.28,60.89a10.81,10.81,0,0,1-9.1,12.28V66.23h-8v4.93A10.81,10.81,0,1,1,30.28,60.89Z" transform="translate(3.81 -1.86)"/><path class="cls-313" d="M30.2,60.94a10.75,10.75,0,0,1-9,12.22V66.23h-8v4.94a10.75,10.75,0,1,1,17-10.23Z" transform="translate(3.81 -1.86)"/><path class="cls-313" d="M30.12,61a10.7,10.7,0,0,1-9,12.16V66.23h-8v4.94A10.7,10.7,0,1,1,30.12,61Z" transform="translate(3.81 -1.86)"/><path class="cls-314" d="M30.05,61.06a10.65,10.65,0,0,1-9,12.09V66.23H13.18v5A10.65,10.65,0,1,1,30.05,61.06Z" transform="translate(3.81 -1.86)"/><path class="cls-315" d="M30,61.11a10.59,10.59,0,0,1-8.91,12V66.23H13.19v5A10.59,10.59,0,1,1,30,61.11Z" transform="translate(3.81 -1.86)"/><path class="cls-315" d="M29.89,61.17a10.53,10.53,0,0,1-8.87,12V66.23H13.2v5a10.54,10.54,0,1,1,16.69-10Z" transform="translate(3.81 -1.86)"/><path class="cls-316" d="M29.82,61.22A10.49,10.49,0,0,1,21,73.14V66.23H13.21v5a10.49,10.49,0,1,1,16.61-10Z" transform="translate(3.81 -1.86)"/><path class="cls-317" d="M29.74,61.28A10.43,10.43,0,0,1,21,73.14V66.23H13.21v5a10.43,10.43,0,1,1,16.53-9.92Z" transform="translate(3.81 -1.86)"/><path class="cls-318" d="M29.66,61.34a10.36,10.36,0,0,1-8.73,11.79v-6.9H13.22v5a10.38,10.38,0,1,1,16.44-9.87Z" transform="translate(3.81 -1.86)"/><path class="cls-319" d="M29.59,61.39A10.33,10.33,0,0,1,20.9,73.13v-6.9H13.23v5a10.33,10.33,0,1,1,16.36-9.82Z" transform="translate(3.81 -1.86)"/><path class="cls-320" d="M29.51,61.45a10.26,10.26,0,0,1-8.64,11.67V66.23H13.24v5a10.27,10.27,0,1,1,16.27-9.77Z" transform="translate(3.81 -1.86)"/><path class="cls-321" d="M29.43,61.51a10.2,10.2,0,0,1-8.6,11.61V66.23H13.25v5a10.21,10.21,0,1,1,16.18-9.71Z" transform="translate(3.81 -1.86)"/><path class="cls-322" d="M29.36,61.56A10.15,10.15,0,0,1,20.8,73.11V66.23H13.25v5a10.17,10.17,0,1,1,16.11-9.67Z" transform="translate(3.81 -1.86)"/><path class="cls-323" d="M29.28,61.62a10.11,10.11,0,0,1-8.51,11.49V66.23H13.26v5a10.11,10.11,0,1,1,16-9.62Z" transform="translate(3.81 -1.86)"/><path class="cls-324" d="M29.21,61.68a10.07,10.07,0,0,1-8.47,11.43V66.23H13.27v5a10.06,10.06,0,1,1,15.94-9.56Z" transform="translate(3.81 -1.86)"/><path class="cls-325" d="M29.13,61.73A10,10,0,0,1,20.71,73.1V66.23H13.28v5a10,10,0,1,1,15.85-9.52Z" transform="translate(3.81 -1.86)"/><path class="cls-326" d="M29.05,61.79A10,10,0,0,1,20.68,73.1V66.23H13.29v5a10,10,0,1,1,15.76-9.46Z" transform="translate(3.81 -1.86)"/><path class="cls-327" d="M29,61.84a9.9,9.9,0,0,1-8.34,11.25V66.23H13.29v5A9.9,9.9,0,1,1,29,61.84Z" transform="translate(3.81 -1.86)"/><path class="cls-328" d="M28.9,61.9a9.85,9.85,0,0,1-8.29,11.19V66.23H13.3v5A9.85,9.85,0,1,1,28.9,61.9Z" transform="translate(3.81 -1.86)"/><path class="cls-329" d="M28.82,62a9.79,9.79,0,0,1-8.24,11.13V66.23H13.31v5A9.79,9.79,0,1,1,28.82,62Z" transform="translate(3.81 -1.86)"/><path class="cls-330" d="M28.75,62a9.74,9.74,0,0,1-8.2,11.07V66.23H13.32v5A9.74,9.74,0,1,1,28.75,62Z" transform="translate(3.81 -1.86)"/><path class="cls-331" d="M28.67,62.07a9.69,9.69,0,0,1-8.15,11V66.23H13.33v5a9.68,9.68,0,1,1,15.34-9.21Z" transform="translate(3.81 -1.86)"/><path class="cls-332" d="M28.59,62.13a9.62,9.62,0,0,1-8.1,10.94V66.23H13.33v5.06a9.63,9.63,0,1,1,15.26-9.16Z" transform="translate(3.81 -1.86)"/><path class="cls-333" d="M28.52,62.18a9.58,9.58,0,0,1-8.07,10.89V66.23H13.34v5.06a9.58,9.58,0,1,1,15.18-9.11Z" transform="translate(3.81 -1.86)"/><path class="cls-334" d="M28.44,62.24a9.51,9.51,0,0,1-8,10.82V66.23H13.35V71.3a9.53,9.53,0,1,1,15.09-9.06Z" transform="translate(3.81 -1.86)"/><path class="cls-335" d="M28.36,62.3a9.46,9.46,0,0,1-8,10.76V66.23h-7V71.3a9.47,9.47,0,1,1,15-9Z" transform="translate(3.81 -1.86)"/><path class="cls-336" d="M28.29,62.35a9.43,9.43,0,0,1-7.93,10.71V66.23h-7v5.08a9.42,9.42,0,1,1,14.92-9Z" transform="translate(3.81 -1.86)"/><path class="cls-337" d="M28.21,62.41a9.37,9.37,0,0,1-7.88,10.64V66.23h-7v5.08a9.36,9.36,0,1,1,14.84-8.9Z" transform="translate(3.81 -1.86)"/><path class="cls-338" d="M28.13,62.47A9.31,9.31,0,0,1,20.3,73.05V66.23H13.38v5.09a9.31,9.31,0,1,1,14.75-8.85Z" transform="translate(3.81 -1.86)"/><path class="cls-339" d="M28.06,62.52A9.26,9.26,0,0,1,20.27,73V66.23H13.39v5.1a9.26,9.26,0,1,1,14.67-8.81Z" transform="translate(3.81 -1.86)"/><path class="cls-339" d="M28,62.58A9.2,9.2,0,0,1,20.23,73V66.23H13.4v5.1A9.2,9.2,0,1,1,28,62.58Z" transform="translate(3.81 -1.86)"/><path class="cls-340" d="M27.91,62.63A9.17,9.17,0,0,1,20.2,73V66.23H13.41v5.11a9.15,9.15,0,1,1,14.5-8.71Z" transform="translate(3.81 -1.86)"/><path class="cls-341" d="M27.83,62.69A9.1,9.1,0,0,1,20.17,73v-6.8H13.41v5.11a9.1,9.1,0,1,1,14.42-8.65Z" transform="translate(3.81 -1.86)"/><path class="cls-342" d="M27.75,62.75A9,9,0,0,1,20.14,73v-6.8H13.42v5.12a9,9,0,1,1,14.33-8.6Z" transform="translate(3.81 -1.86)"/><path class="cls-342" d="M27.68,62.8A9,9,0,0,1,20.11,73V66.23H13.43v5.12A9,9,0,1,1,27.68,62.8Z" transform="translate(3.81 -1.86)"/><path class="cls-343" d="M27.6,62.86A8.94,8.94,0,0,1,20.08,73V66.23H13.44v5.13a8.94,8.94,0,1,1,14.16-8.5Z" transform="translate(3.81 -1.86)"/><path class="cls-344" d="M27.52,62.92A8.87,8.87,0,0,1,20,73V66.23H13.45v5.14a8.88,8.88,0,1,1,14.07-8.45Z" transform="translate(3.81 -1.86)"/><path class="cls-345" d="M27.45,63A8.83,8.83,0,0,1,20,73V66.23H13.45v5.14a8.83,8.83,0,1,1,14-8.4Z" transform="translate(3.81 -1.86)"/><path class="cls-346" d="M27.37,63A8.79,8.79,0,0,1,20,73V66.23H13.46v5.15A8.78,8.78,0,1,1,27.37,63Z" transform="translate(3.81 -1.86)"/><path class="cls-347" d="M27.29,63.09A8.72,8.72,0,0,1,20,73V66.23H13.47v5.15a8.72,8.72,0,1,1,13.82-8.29Z" transform="translate(3.81 -1.86)"/><path class="cls-348" d="M27.22,63.14A8.69,8.69,0,0,1,19.92,73V66.23H13.48v5.16a8.67,8.67,0,1,1,13.74-8.25Z" transform="translate(3.81 -1.86)"/><path class="cls-349" d="M27.14,63.2A8.62,8.62,0,0,1,19.89,73V66.23h-6.4v5.16A8.62,8.62,0,1,1,27.14,63.2Z" transform="translate(3.81 -1.86)"/><path class="cls-350" d="M27.06,63.25A8.57,8.57,0,0,1,19.85,73V66.23H13.49V71.4a8.56,8.56,0,1,1,13.57-8.15Z" transform="translate(3.81 -1.86)"/><path class="cls-351" d="M27,63.31A8.51,8.51,0,0,1,19.82,73V66.23H13.5v5.18A8.51,8.51,0,1,1,27,63.31Z" transform="translate(3.81 -1.86)"/><path class="cls-352" d="M26.91,63.37A8.46,8.46,0,0,1,19.79,73V66.23H13.51v5.18a8.46,8.46,0,1,1,13.4-8Z" transform="translate(3.81 -1.86)"/><path class="cls-353" d="M26.83,63.42A8.4,8.4,0,0,1,19.76,73V66.23H13.52v5.19a8.4,8.4,0,1,1,13.31-8Z" transform="translate(3.81 -1.86)"/><path class="cls-354" d="M26.76,63.48a8.35,8.35,0,0,1-7,9.49V66.23h-6.2v5.19a8.35,8.35,0,1,1,13.23-7.94Z" transform="translate(3.81 -1.86)"/><path class="cls-355" d="M26.68,63.54a8.3,8.3,0,0,1-7,9.43V66.23H13.53v5.2a8.3,8.3,0,1,1,13.15-7.89Z" transform="translate(3.81 -1.86)"/><path class="cls-356" d="M26.61,63.59A8.24,8.24,0,0,1,19.66,73V66.23H13.54v5.2a8.25,8.25,0,1,1,13.07-7.84Z" transform="translate(3.81 -1.86)"/><path class="cls-357" d="M26.53,63.65A8.19,8.19,0,0,1,19.63,73V66.23H13.55v5.21a8.19,8.19,0,1,1,13-7.79Z" transform="translate(3.81 -1.86)"/><path class="cls-358" d="M26.45,63.71A8.15,8.15,0,0,1,19.6,73V66.23h-6v5.22a8.14,8.14,0,1,1,12.89-7.74Z" transform="translate(3.81 -1.86)"/><path class="cls-359" d="M26.38,63.76A8.09,8.09,0,0,1,19.57,73V66.23h-6v5.22a8.08,8.08,0,1,1,12.81-7.69Z" transform="translate(3.81 -1.86)"/><path class="cls-360" d="M26.3,63.82A8,8,0,0,1,19.54,73V66.23h-6v5.23A8,8,0,1,1,26.3,63.82Z" transform="translate(3.81 -1.86)"/><path class="cls-361" d="M26.22,63.87a8,8,0,0,1-6.71,9.07V66.23H13.58v5.23a8,8,0,1,1,12.64-7.59Z" transform="translate(3.81 -1.86)"/><path class="cls-362" d="M26.15,63.93a7.94,7.94,0,0,1-6.67,9V66.23h-9v0a7.93,7.93,0,0,1,15.68-2.34Z" transform="translate(3.81 -1.86)"/><path class="cls-363" d="M26.07,64a7.87,7.87,0,0,1-6.63,8.94v-6.7H10.5v.08A7.87,7.87,0,1,1,26.07,64Z" transform="translate(3.81 -1.86)"/><path class="cls-364" d="M26,64a7.82,7.82,0,0,1-6.58,8.89v-6.7H10.53v.12A7.82,7.82,0,1,1,26,64Z" transform="translate(3.81 -1.86)"/><path class="cls-365" d="M25.92,64.1a7.78,7.78,0,0,1-6.54,8.83v-6.7H10.56v.16A7.76,7.76,0,1,1,25.92,64.1Z" transform="translate(3.81 -1.86)"/><path class="cls-366" d="M25.84,64.16a7.71,7.71,0,0,1-6.49,8.76V66.23H10.58v.2a7.71,7.71,0,0,1,15.26-2.27Z" transform="translate(3.81 -1.86)"/><path class="cls-367" d="M25.76,64.21a7.66,7.66,0,0,1-6.44,8.71V66.23H10.61v.24a7.66,7.66,0,0,1,15.15-2.26Z" transform="translate(3.81 -1.86)"/><path class="cls-368" d="M25.69,64.27a7.61,7.61,0,0,1-6.4,8.64V66.23H10.64v.28a7.61,7.61,0,0,1,15.05-2.24Z" transform="translate(3.81 -1.86)"/><path class="cls-369" d="M25.61,64.33a7.55,7.55,0,0,1-6.36,8.58V66.23H10.67v.32a7.55,7.55,0,1,1,14.94-2.22Z" transform="translate(3.81 -1.86)"/><path class="cls-370" d="M25.53,64.38a7.49,7.49,0,0,1-6.31,8.52V66.23H10.7v.36a7.5,7.5,0,1,1,14.83-2.21Z" transform="translate(3.81 -1.86)"/><path class="cls-371" d="M25.46,64.44a7.45,7.45,0,0,1-6.27,8.46V66.23H10.73v.4a7.45,7.45,0,0,1,14.73-2.19Z" transform="translate(3.81 -1.86)"/><path class="cls-372" d="M25.38,64.5a7.4,7.4,0,0,1-6.22,8.4V66.23h-8.4v.44A7.39,7.39,0,1,1,25.38,64.5Z" transform="translate(3.81 -1.86)"/><path class="cls-373" d="M25.3,64.55a7.33,7.33,0,0,1-6.17,8.34V66.23H10.79v.49A7.34,7.34,0,1,1,25.3,64.55Z" transform="translate(3.81 -1.86)"/><path class="cls-374" d="M25.23,64.61a7.29,7.29,0,0,1-6.13,8.28V66.23H10.82v.53a7.28,7.28,0,1,1,14.41-2.15Z" transform="translate(3.81 -1.86)"/><path class="cls-375" d="M25.15,64.66a7.22,7.22,0,0,1-6.09,8.22V66.23H10.85v.57a7.23,7.23,0,0,1,14.3-2.14Z" transform="translate(3.81 -1.86)"/><path class="cls-376" d="M25.08,64.72a7.19,7.19,0,0,1-6,8.16V66.23H10.87v.61a7.18,7.18,0,0,1,14.21-2.12Z" transform="translate(3.81 -1.86)"/><path class="cls-377" d="M25,64.78a7.13,7.13,0,0,1-6,8.1V66.23H10.9v.65A7.13,7.13,0,0,1,25,64.78Z" transform="translate(3.81 -1.86)"/><path class="cls-378" d="M24.92,64.83a7.07,7.07,0,0,1-6,8V66.23h-8v.69a7.07,7.07,0,0,1,14-2.09Z" transform="translate(3.81 -1.86)"/><path class="cls-379" d="M24.85,64.89a7,7,0,0,1-5.91,8V66.23H11V67a7,7,0,0,1,13.89-2.07Z" transform="translate(3.81 -1.86)"/><path class="cls-379" d="M24.79,64.9a7,7,0,0,1-5.86,7.91V66.23H11V67a7,7,0,1,1,13.78-2Z" transform="translate(3.81 -1.86)"/><path class="cls-379" d="M24.61,65a6.84,6.84,0,0,1-5.75,7.78V66.23H11.08v.82a6.84,6.84,0,1,1,13.53-2Z" transform="translate(3.81 -1.86)"/><path class="cls-379" d="M24.44,65.16a6.73,6.73,0,0,1-5.66,7.64V66.23H11.15v.91a6.72,6.72,0,0,1,13.29-2Z" transform="translate(3.81 -1.86)"/><path class="cls-379" d="M24.26,65.29a6.6,6.6,0,0,1-5.55,7.5V66.23H11.22v1a6.59,6.59,0,0,1,13-1.95Z" transform="translate(3.81 -1.86)"/><path class="cls-379" d="M24.08,65.43a6.47,6.47,0,0,1-5.45,7.35V66.23H11.28v1.1a6.47,6.47,0,0,1,12.8-1.9Z" transform="translate(3.81 -1.86)"/><path class="cls-379" d="M23.9,65.56a6.34,6.34,0,0,1-5.34,7.21V66.23H11.35v1.2A6.34,6.34,0,0,1,23.9,65.56Z" transform="translate(3.81 -1.86)"/><path class="cls-379" d="M23.72,65.69a6.22,6.22,0,0,1-5.23,7.07V66.23H11.42v1.29a6.22,6.22,0,0,1,12.3-1.83Z" transform="translate(3.81 -1.86)"/><path class="cls-380" d="M23.54,65.82a6.1,6.1,0,0,1-5.13,6.93V66.23H11.49v1.39a6.09,6.09,0,1,1,12-1.8Z" transform="translate(3.81 -1.86)"/><path class="cls-380" d="M23.36,66a6,6,0,0,1-5,6.79V66.23H11.55v1.48A6,6,0,0,1,23.36,66Z" transform="translate(3.81 -1.86)"/><path class="cls-381" d="M23.19,66.09a5.85,5.85,0,0,1-4.93,6.64v-6.5H11.62v1.58a5.85,5.85,0,0,1,11.57-1.72Z" transform="translate(3.81 -1.86)"/><path class="cls-381" d="M23,66.22a5.72,5.72,0,0,1-4.82,6.5V66.23h-6.5v1.68A5.72,5.72,0,1,1,23,66.22Z" transform="translate(3.81 -1.86)"/><path class="cls-381" d="M22.83,66.23H11.76V68a5.6,5.6,0,1,1,11.07-1.65Z" transform="translate(3.81 -1.86)"/><path class="cls-382" d="M22.65,66.23H11.82V68.1a5.48,5.48,0,0,1,10.83-1.62Z" transform="translate(3.81 -1.86)"/><path class="cls-383" d="M22.47,66.23H11.89v2a5.35,5.35,0,1,1,10.58-1.57Z" transform="translate(3.81 -1.86)"/><path class="cls-383" d="M22.29,66.23H12v2.06a5.22,5.22,0,1,1,10.33-1.54Z" transform="translate(3.81 -1.86)"/><path class="cls-383" d="M22.11,66.23H12v2.15a5.1,5.1,0,0,1,10.09-1.5Z" transform="translate(3.81 -1.86)"/><path class="cls-384" d="M21.93,66.23H12.09v2.25A5,5,0,1,1,21.93,67Z" transform="translate(3.81 -1.86)"/><path class="cls-384" d="M21.76,66.23h-9.6v2.34a4.85,4.85,0,0,1,9.6-1.43Z" transform="translate(3.81 -1.86)"/><path class="cls-385" d="M21.58,66.23H12.23v2.44a4.73,4.73,0,0,1,9.35-1.39Z" transform="translate(3.81 -1.86)"/><path class="cls-385" d="M21.4,66.23H12.29v2.53a4.6,4.6,0,1,1,9.11-1.35Z" transform="translate(3.81 -1.86)"/><path class="cls-386" d="M21.22,66.23H12.36v2.63a4.48,4.48,0,0,1,8.86-1.32Z" transform="translate(3.81 -1.86)"/><path class="cls-387" d="M21,66.23H12.43V69A4.35,4.35,0,0,1,21,67.67Z" transform="translate(3.81 -1.86)"/><path class="cls-388" d="M20.86,66.23H12.5v2.82a4.23,4.23,0,1,1,8.36-1.25Z" transform="translate(3.81 -1.86)"/><path class="cls-388" d="M20.68,66.23H12.56v2.92a4.1,4.1,0,1,1,8.12-1.21Z" transform="translate(3.81 -1.86)"/><path class="cls-389" d="M20.5,66.23H12.63v3a4,4,0,0,1,7.87-1.17Z" transform="translate(3.81 -1.86)"/><path class="cls-390" d="M20.33,66.23H12.7v3.11a3.86,3.86,0,1,1,7.63-1.14Z" transform="translate(3.81 -1.86)"/><path class="cls-390" d="M20.15,66.23H12.77v3.2a3.73,3.73,0,0,1,7.38-1.1Z" transform="translate(3.81 -1.86)"/><path class="cls-391" d="M20,66.23H12.83v3.3A3.61,3.61,0,0,1,20,68.46Z" transform="translate(3.81 -1.86)"/><path class="cls-392" d="M19.79,66.23H12.9v3.39a3.48,3.48,0,0,1,6.89-1Z" transform="translate(3.81 -1.86)"/><path class="cls-393" d="M19.61,66.23H13v3.49a3.36,3.36,0,1,1,6.64-1Z" transform="translate(3.81 -1.86)"/><path class="cls-394" d="M19.43,66.23H13v3.58a3.23,3.23,0,0,1,6.39-1Z" transform="translate(3.81 -1.86)"/><path class="cls-395" d="M19.25,66.23H15.72v.15A3.09,3.09,0,0,1,19.25,69Z" transform="translate(3.81 -1.86)"/><path class="cls-396" d="M19.08,66.23h0Z" transform="translate(3.81 -1.86)"/><path class="cls-397" d="M18.9,66.23h0Z" transform="translate(3.81 -1.86)"/><path class="cls-398" d="M18.72,66.23h0Z" transform="translate(3.81 -1.86)"/><path class="cls-399" d="M18.54,66.23h0Z" transform="translate(3.81 -1.86)"/><path class="cls-400" d="M18.36,66.23h0Z" transform="translate(3.81 -1.86)"/><path class="cls-401" d="M18.18,66.23h0Z" transform="translate(3.81 -1.86)"/><path class="cls-402" d="M18,66.23h0Z" transform="translate(3.81 -1.86)"/><path class="cls-403" d="M17.82,66.23h0Z" transform="translate(3.81 -1.86)"/><path class="cls-404" d="M17.65,66.23h0Z" transform="translate(3.81 -1.86)"/><path class="cls-405" d="M17.47,66.23h0Z" transform="translate(3.81 -1.86)"/><path class="cls-406" d="M17.29,66.23h0Z" transform="translate(3.81 -1.86)"/><path class="cls-407" d="M17.11,66.23h0Z" transform="translate(3.81 -1.86)"/><path class="cls-408" d="M16.93,66.23h0Z" transform="translate(3.81 -1.86)"/><path class="cls-409" d="M16.75,66.23h0Z" transform="translate(3.81 -1.86)"/><path class="cls-410" d="M16.57,66.23h0Z" transform="translate(3.81 -1.86)"/><path class="cls-411" d="M16.4,66.23h0Z" transform="translate(3.81 -1.86)"/><path class="cls-412" d="M16.22,66.23h0Z" transform="translate(3.81 -1.86)"/><path class="cls-413" d="M16,66.23h0Z" transform="translate(3.81 -1.86)"/><path class="cls-414" d="M15.86,66.23h0Z" transform="translate(3.81 -1.86)"/><path class="cls-415" d="M15.68,66.23h0Z" transform="translate(3.81 -1.86)"/><path class="cls-416" d="M15.5,66.23h0Z" transform="translate(3.81 -1.86)"/><path class="cls-417" d="M15.32,66.23h0Z" transform="translate(3.81 -1.86)"/><path class="cls-418" d="M15.14,66.23h0Z" transform="translate(3.81 -1.86)"/><path class="cls-419" d="M15,66.23h0Z" transform="translate(3.81 -1.86)"/></g><path class="cls-1" d="M28.34,33.79A4.66,4.66,0,1,1,33,38.45,4.66,4.66,0,0,1,28.34,33.79Z" transform="translate(3.81 -1.86)"/><path class="cls-1" d="M39.66,33.79a6.66,6.66,0,1,0-13.32,0h0a6.66,6.66,0,1,1,13.32,0Z" transform="translate(3.81 -1.86)"/><path class="cls-1" d="M41.77,25.05a2.45,2.45,0,0,1-.55-.84,2.45,2.45,0,0,0,.55.84,2.31,2.31,0,0,0,.39.31,2.53,2.53,0,0,0,2.85,0,2.31,2.31,0,0,0,.39-.31,3,3,0,0,0,.32-.39,3,3,0,0,1-.32.39,2.31,2.31,0,0,1-.39.31,2.53,2.53,0,0,1-2.85,0A2.31,2.31,0,0,1,41.77,25.05Z" transform="translate(3.81 -1.86)"/><path class="cls-1" d="M22,14.3a10.76,10.76,0,0,0-2,.64A10.76,10.76,0,0,1,22,14.3Z" transform="translate(3.81 -1.86)"/><path class="cls-1" d="M15.78,18a11,11,0,0,1,2.31-2.1A11,11,0,0,0,15.78,18a10.81,10.81,0,0,0-1.17,1.74A10.81,10.81,0,0,1,15.78,18Z" transform="translate(3.81 -1.86)"/><path class="cls-1" d="M15.78,49.54a10.81,10.81,0,0,1-1.17-1.74,10.81,10.81,0,0,0,1.17,1.74,11,11,0,0,0,2.31,2.1A11,11,0,0,1,15.78,49.54Z" transform="translate(3.81 -1.86)"/><path class="cls-1" d="M19.94,52.64a10.76,10.76,0,0,0,2,.64A10.76,10.76,0,0,1,19.94,52.64Z" transform="translate(3.81 -1.86)"/><path class="cls-420" d="M24.17,53.62a11,11,0,0,1-11-11V25a11,11,0,0,1,11-11H41.83a11,11,0,0,1,11,11V42.62a11,11,0,0,1-11,11Zm0-35.92A7.27,7.27,0,0,0,16.91,25V42.62a7.27,7.27,0,0,0,7.26,7.26H41.83a7.27,7.27,0,0,0,7.26-7.26V25a7.27,7.27,0,0,0-7.26-7.26Z" transform="translate(3.81 -1.86)"/><path class="cls-420" d="M41.83,14.08A10.89,10.89,0,0,1,52.71,25V42.62A10.89,10.89,0,0,1,41.83,53.5H24.17A10.89,10.89,0,0,1,13.29,42.62V25A10.89,10.89,0,0,1,24.17,14.08H41.83M24.17,50H41.83a7.39,7.39,0,0,0,7.38-7.38h0V25a7.39,7.39,0,0,0-7.38-7.38H24.17A7.39,7.39,0,0,0,16.79,25V42.62A7.39,7.39,0,0,0,24.17,50M41.83,13.83H24.17A11.14,11.14,0,0,0,13,25V42.62A11.14,11.14,0,0,0,24.17,53.75H41.83A11.14,11.14,0,0,0,53,42.62V25A11.13,11.13,0,0,0,41.83,13.83ZM24.17,49.75A7.14,7.14,0,0,1,17,42.62V25a7.14,7.14,0,0,1,7.13-7.13H41.83A7.14,7.14,0,0,1,49,25V42.62a7.14,7.14,0,0,1-7.13,7.13Z" transform="translate(3.81 -1.86)"/><path class="cls-420" d="M33,44.07A10.28,10.28,0,1,1,43.28,33.79,10.29,10.29,0,0,1,33,44.07Zm0-16.81a6.53,6.53,0,1,0,6.53,6.53A6.54,6.54,0,0,0,33,27.26Z" transform="translate(3.81 -1.86)"/><path class="cls-420" d="M33,23.63A10.16,10.16,0,1,1,22.84,33.79,10.17,10.17,0,0,1,33,23.63m0,16.82a6.66,6.66,0,1,0-6.66-6.66A6.67,6.67,0,0,0,33,40.45m0-17.07A10.41,10.41,0,1,0,43.41,33.79,10.42,10.42,0,0,0,33,23.38ZM33,40.2a6.42,6.42,0,1,1,4.53-1.88A6.42,6.42,0,0,1,33,40.2Z" transform="translate(3.81 -1.86)"/><path class="cls-420" d="M43.58,25.92a2.69,2.69,0,0,1,0-5.38,2.69,2.69,0,0,1,0,5.38Z" transform="translate(3.81 -1.86)"/><path class="cls-420" d="M43.58,20.67a2.56,2.56,0,0,1,2.57,2.56,2.57,2.57,0,0,1-4.38,1.82,2.57,2.57,0,0,1,1.81-4.38m0-.25a2.81,2.81,0,0,0-2,4.8,2.81,2.81,0,1,0,2-4.8Z" transform="translate(3.81 -1.86)"/></svg>