<svg id="Layer_1" data-name="Layer 1" xmlns="http://www.w3.org/2000/svg" viewBox="0 0 667.69 210.15"><defs><style>.cls-1,.cls-2,.cls-3,.cls-4,.cls-5,.cls-6{fill:none;}.cls-1{stroke:#00b6cf;stroke-width:0.72px;}.cls-1,.cls-2,.cls-3{stroke-linecap:round;stroke-linejoin:round;}.cls-2{stroke:#f3b544;}.cls-2,.cls-3{stroke-width:0.72px;}.cls-3{stroke:#8bc862;}.cls-4{stroke:#0681a2;}.cls-4,.cls-5,.cls-6{stroke-miterlimit:10;opacity:0.82;}.cls-5{stroke:#f89921;}.cls-6{stroke:#649946;}.cls-7{font-size:17.22px;fill:#b0b0b0;font-family:HelveticaNeue, Helvetica Neue;}.cls-8{letter-spacing:-0.02em;}.cls-9{letter-spacing:-0.05em;}</style></defs><title>storywrangler_icon</title><g id="path3611"><path class="cls-1" d="M509.25,66c-.08-.05-5.06,8.48-5.23,8.37s3.29-8.37,3.05-8.51-4.4,7.43-4.57,7.32,3-7.66,2.91-7.74-3.23,5.31-3.3,5.27,2-6,1.88-6-3,5-3.06,4.9,1.47-4.26,1.35-4.33-1.5,2.51-1.55,2.48.48-3.17.39-3.23-.15.3-.18.29.44-.88.43-.89-.78,1.27-.79,1.26.19-1.14.15-1.16-.14.25-.15.25"/><path class="cls-1" d="M515.41,83.26c-.11-.06-4.23,7.16-4.41,7s2.66-6.56,2.45-6.69-3.35,5.84-3.57,5.71,1.68-5.21,1.56-5.29-2.35,4-2.48,4,1.85-4.85,1.69-4.94-2.23,3.8-2.33,3.73-.25-2.84-.33-2.9-.07.18-.1.16.18-.75.15-.77-.42.72-.44.71.09-1.06.07-1.08l-.6,1"/><path class="cls-1" d="M542.63,60.43C542,60,521.78,96.14,520.72,95.48S543,61,541.62,60.14c-.65-.4-20.93,35.22-21.71,34.74-.5-.32,20.92-33.6,19.84-34.27-.77-.48-20.8,35.21-21.66,34.67-.45-.29,21.72-34.84,21.11-35.22S518,95.42,517.34,95c-1.2-.75,22.84-34.38,21.59-35.16S518.05,95.69,517,95c-.46-.29,21.32-33.83,20.07-34.61-.8-.5-20.62,34.37-21.24,34s20.75-34.28,19.9-34.81c-.47-.29-19.55,33.84-20.7,33.12S534.31,60,533.45,59.46c-.36-.23-19.17,32.58-20,32-1.07-.66,19-32,18.13-32.6-.37-.23-18.63,31.63-19.44,31.13s18.09-31.09,17.77-31.29c-.63-.39-14.18,23.48-14.54,23.26-.75-.47,14.14-24,13.75-24.21s-14.48,24.11-14.9,23.84c-.68-.42,14-23,13.25-23.47s-14.12,24.51-15,24C511.83,81.74,527,58,526.57,57.77c-.69-.43-14.36,23.71-14.69,23.5-.7-.44,15.26-23.48,14.74-23.8s-14,24.38-14.88,23.8c-.45-.28,14-24,13.25-24.49s-14.38,23.57-14.63,23.41c-.77-.48,13.19-23.69,12.72-24-.67-.42-13.74,23.14-14.26,22.82C508,78.5,521.58,56.12,521.32,56c-.41-.25-14,23.5-14.48,23.17-.72-.45,13.8-24.6,13.5-24.79S506.41,78.4,505.61,77.9s13.09-23.49,12.81-23.67-13.07,22.45-13.77,22,14.71-22.69,14.06-23.09c-.39-.25-13.52,22.4-13.87,22.18-.66-.41,13.22-21.79,13-21.93-.83-.52-12.94,22.14-13.58,21.74S517.16,53,516.62,52.65s-7.36,12.93-7.87,12.6,7.74-12.38,7.36-12.62-7.58,13-8,12.78,6.84-13.27,6.39-13.55c-.24-.15-7.34,12.71-7.78,12.44s6.88-14,6.42-14.24-7.46,13-7.93,12.68,8.14-13.2,8-13.31S505.37,62.84,505,62.59c-.23-.15,7.38-13.77,6.94-14-.17-.11-7.52,12.7-7.82,12.52s6.64-12.64,6.26-12.88c-.13-.08-6.9,11.4-7.06,11.3-.43-.26,7.39-11.79,7.15-11.94S503.31,59.71,503,59.49c-.2-.12,6.94-12.4,6.67-12.57s-6.74,11.27-7,11.13c-.39-.24,6.82-11,6.55-11.17s-6.59,11.44-7,11.19c-.12-.07,7.19-11.39,7-11.48s-7.22,11.85-7.35,11.77c-.41-.26,7.5-11.32,7.14-11.55s-6.78,11.57-7.1,11.37,6.91-11.73,6.64-11.89-6.47,11.28-6.88,11,5.66-11.75,5.31-12-5.71,9.59-5.92,9.47,4.82-11.43,4.69-11.51-4.78,7.91-4.9,7.84,4.18-8.51,3.93-8.67c-.08,0-4,7-4.26,6.83s2.92-7.51,2.84-7.56-1.38,2.43-1.48,2.36,1.17-2.49,1.07-2.54-.57.94-.59.94"/><path class="cls-1" d="M524.58,97c-.35-.21-9,15.5-9.48,15.17-.17-.11,8.69-14.56,8.51-14.67-.38-.24-8.1,14.09-8.61,13.78-.14-.09,6.84-12.14,6.38-12.43s-7.65,12.67-7.84,12.55c-.43-.27,7.55-11.93,7.19-12.15s-7.37,12.59-7.72,12.37,6.44-11.23,6-11.5-6.46,11.21-6.85,11c-.12-.07,6.54-10,6.15-10.26s-6.42,10.57-6.56,10.49,5.14-9.91,4.85-10.09-5.7,9.46-5.85,9.37,3.63-8,3.35-8.15-4.46,7.52-4.63,7.41,2.73-6.67,2.55-6.79-3.91,6.8-4.15,6.64,3.41-6.07,3.29-6.15-3.81,6.36-3.93,6.29,2.44-5.82,2.23-6-2.71,4.81-2.92,4.67,1.7-4.9,1.58-5-3.3,5.49-3.4,5.43,3-4.74,2.9-4.81-2.95,5-3.06,4.91,2.23-4.85,2.13-4.92-2.32,3.83-2.37,3.8.09-3.26,0-3.32-1.64,2.88-1.76,2.81.75-2.81.68-2.85-1.08,1.94-1.17,1.88,0-1.28,0-1.3-.71,1.33-.79,1.28.19-2.09.17-2.1-1.47,2.46-1.52,2.43,1.28-2,1.25-2.08-1.16,2-1.22,2,.91-2,.87-2-1.06,1.79-1.1,1.76.06-2.12,0-2.16-.66,1.11-.68,1.1,0-1.06,0-1.07-.94,1.56-1,1.55.38-1.73.33-1.76-.84,1.36-.85,1.36.52-1.2.5-1.22-.19.33-.2.32l-.71-.14-.05.08"/><path class="cls-1" d="M586.52,40.5c-.11-.07-2.57,4.5-2.74,4.4s2.57-4.15,2.5-4.19-2.7,4.54-2.8,4.48,2.09-5.13,2-5.17c-.27-.17-4.49,7.88-4.8,7.68s1.79-6.61,1.72-6.65c-2-1.23-43.31,71.28-44.19,70.73-2.06-1.28,42.42-69.34,41.68-69.81C577.72,40.6,537.3,112,536.46,111.5c-2.66-1.65,44.14-67,41.45-68.72-1.58-1-40.9,71.23-43.5,69.61-2.41-1.51,45-68.21,42.54-69.76-2-1.25-41.87,71.31-43.81,70.1-1.37-.86,43.62-68.73,42.31-69.55-.82-.52-41.93,69.91-43.2,69.12s44.42-68.09,42.25-69.45c-1.2-.75-42.65,71-43.87,70.21-2.58-1.61,44.47-69.72,42.49-71-1.82-1.14-42.39,71.51-44,70.47-2.79-1.74,45.85-70.77,43.52-72.22-1.54-1-42.66,73.45-45,72-1.16-.72,45-71.36,43.52-72.27-.8-.5-43.23,75-45.86,73.39-1.37-.86,46.69-72.73,44.62-74C568,38.24,526.7,114.53,524,112.85c-1.11-.69,46.23-73.1,44.57-74.14-2.81-1.75-44.52,74.5-46,73.59-2-1.22,46.39-72.14,43.94-73.67-2.84-1.78-44,75.77-46.4,74.25C518,111.53,566.88,39,564.68,37.65c-1.86-1.16-45.19,76.18-46.92,75.1-1.27-.79,47.61-74.37,45.16-75.9-1.1-.68-45.43,76.06-46.94,75.12-1.22-.77,49.41-73,46.46-74.8s-45.09,76.3-47,75.13c-2.79-1.74,47.91-74.22,46.34-75.2-2-1.27-34.4,60.11-36.67,58.69-2.06-1.28,36.75-57.28,35.78-57.88-2-1.27-35.81,58.69-36.43,58.3-1.31-.82,35.59-57.33,34.34-58.11-.92-.57-35,58.45-36.11,57.78-.93-.59,35.55-57.64,34.3-58.43-.83-.51-13.89,24-14.69,23.51-.51-.32,13.78-22,13-22.48S543,59.4,542.51,59.11,554.84,39.43,554.11,39s-11.24,18.65-11.54,18.46c-.48-.29,8.66-16.63,8.2-16.92s-8.06,14-8.56,13.71c-.3-.18,4.42-9.66,4.22-9.78s-2.16,3.66-2.25,3.6"/><path class="cls-1" d="M589.29,46.7s-1,1.69-1,1.68-1.34-1.17-1.37-1.19-4.26,7.31-4.48,7.17,3.06-6.26,2.93-6.34c-2.2-1.38-36.59,62.31-38.28,61.26-1.28-.8,37.42-59.82,36-60.7-1-.65-36.75,62.2-38.27,61.25-1.69-1.06,38.87-60.7,38.06-61.21-1.76-1.1-37.38,62.19-38.45,61.53-2.25-1.41,38.82-61,38.16-61.38-1.36-.85-36.28,62.42-38.24,61.19-.85-.53,38.47-61.09,37.79-61.52-1.3-.81-35.82,62.73-38.25,61.21-1.56-1,39.36-59.83,37.53-61-1.68-1-37.56,62-38.43,61.5s39.56-59.8,37.55-61.06c-1.23-.76-36.47,62.25-38.22,61.16-.69-.44,39.57-59.31,37.32-60.71-1.56-1-36.21,61.72-37.9,60.67s38.92-60,37.37-61c-2.36-1.48-36.83,62.36-38.36,61.4"/><path class="cls-1" d="M574.16,83.61c-.27-.17-4.83,8-5,8s8.44-15.22,8.08-15.44-13.42,22.21-13.75,22c-.8-.51,15.56-24.68,14.84-25.13-.28-.18-16.47,27.47-17,27.16s18.78-29.95,17.71-30.62-19.3,33.62-20.53,32.86c-.88-.55,21.39-34.56,20.84-34.9-.95-.59-21.6,36.38-22.42,35.87-1.32-.82,23.43-38.76,23-39-.88-.55-24.38,41.44-25.47,40.76S581,63.85,580.27,63.43,555,105.84,554.11,105.29c-1.43-.89,26.85-45.89,26.35-46.2s-28.23,49.45-30.15,48.25c-1.75-1.1,31.51-46.85,29.86-47.88-1.1-.68-28.26,49.42-30.15,48.24-.81-.51,30.72-50.18,29.92-50.69-1.31-.82-30.75,52.88-32.4,51.85"/></g><path class="cls-2" d="M86.34,72.17c-.15-.09-3,5.14-3.16,5.06S85,71.13,85,71.09s-3.58,5.84-3.63,5.81,2.12-5.3,2-5.38S81.85,74,81.77,74s1.52-2.81,1.45-2.85S81.1,74.66,81,74.62s.83-3.23.73-3.29-.37.62-.38.61"/><path class="cls-2" d="M102.67,77.26s-.35.59-.36.58.4-3,.36-3-1.88,3.15-1.94,3.11,2.37-5.35,2.21-5.45S99.59,78,99.52,78s2-6.57,1.83-6.72-4.07,7-4.31,6.89,4-6.51,3.81-6.66-3.51,5.75-3.57,5.71,4-6,3.78-6.17-3.62,6.16-3.78,6.06,3.17-5.4,3.11-5.43-3.5,5.75-3.57,5.71,1.92-5.09,1.73-5.2c-.43-.27-10.76,18.42-11.3,18.08S97,72.19,96.72,72s-9,15.47-9.5,15.19c-.29-.18,9-16,8.79-16.14-.5-.31-9.13,15.22-9.4,15-.59-.36,10-15.08,9.53-15.4s-8.5,14.73-9,14.41c-.27-.17,9.46-16.07,8.93-16.41-.26-.16-8.59,14.66-9,14.4C86.9,83,96.72,68.32,96.27,68c-.2-.12-9.3,15.71-9.67,15.48S96.12,66,95.77,65.81s-8.34,13.72-8.51,13.61c-.55-.34,8.95-15.23,8.67-15.41s-8.27,14.1-8.66,13.86S95.7,62.15,95.42,62c-.57-.36-9.67,16.42-10.09,16.16S95,62,94.59,61.76s-9.73,16.29-10,16.08S93.08,62.29,92.6,62c-.31-.2-5.08,8.8-5.38,8.61s3.9-8.59,3.63-8.76-3.85,6.41-4,6.34,2.31-6.25,2.19-6.33-2,3.44-2.09,3.35.62-4,.49-4.12-.63,1-.64,1"/><path class="cls-2" d="M102.63,104.33s-.22.37-.23.36,0-1.5,0-1.52-1.22,2.12-1.29,2.08,1.49-3.72,1.36-3.81-2,3.55-2.17,3.47,2.63-6.91,2.5-7-4.5,7.52-4.64,7.42,3.81-7.31,3.54-7.48-4.51,7.46-4.62,7.39,3.93-7.77,3.65-7.94c-.08,0-4.88,8.15-5,8S98.1,97.85,98,97.78s-4.2,7.09-4.36,7S97.08,98,96.94,98s-3.67,6.25-3.84,6.14,3.11-6.91,3-7-4.16,7.34-4.46,7.15,4.87-7.52,4.7-7.63-4.65,7.82-4.82,7.71,4.79-7.56,4.59-7.69-4.31,7.38-4.53,7.24,4.48-9,4.26-9.09-5.38,8.87-5.5,8.79,6.41-12.14,6-12.39c-.14-.09-6.87,11.89-7.28,11.64-.17-.11,7-10.91,6.74-11s-7,11.59-7.17,11.47,7.39-12.86,7.15-13-7,11.78-7.26,11.61,7.58-12.48,7.3-12.66S88,102.13,87.8,102c-.42-.26,8.64-16.45,8.09-16.8s-8.66,14.93-9.14,14.63,9.46-15.68,9-16-8.06,13.73-8.43,13.5c-.21-.14,9.4-17.55,8.76-18s-9,15.11-9.32,14.92c-.6-.37,9.77-16.74,9.53-16.88-.42-.27-8.71,14.58-9,14.4"/><path class="cls-2" d="M128.1,97.31c-.28-.18-5.34,8.74-5.43,8.69s2.81-7.33,2.74-7.37-4.32,7.3-4.49,7.19,3.88-7.37,3.63-7.53c-.09-.06-3.78,6.63-4,6.47s1.75-5.6,1.59-5.7-3.86,6.36-3.94,6.31,3.68-6.89,3.61-6.94-3.87,6.42-4,6.36,1.79-6.42,1.72-6.46-3.21,5.57-3.41,5.45,3.16-6,3-6.06-3.41,5.67-3.51,5.61,3.25-6.55,3-6.68-4.27,7.18-4.42,7.08,3.28-8.07,3.15-8.15-4.35,7.23-4.47,7.15,3.91-6.91,3.8-7-3.68,6.48-3.94,6.31,3.07-8.6,2.9-8.7S111.2,101,111,100.81s4.22-10,4-10.17-5.44,9-5.58,8.92,5.72-11.89,5.6-12c-.28-.17-6.61,11.1-6.84,11s7.34-11.21,6.89-11.49-6.15,10.5-6.45,10.32,7-12.8,6.78-13S107.87,97,107.63,96.84s8.46-13.55,8-13.86c-.33-.21-7.45,13-7.94,12.7"/><path class="cls-2" d="M138.45,96.45c-.11-.07-1.87,3.08-1.91,3s3.8-8,3.69-8c-.41-.25-6.21,10.83-6.61,10.58-.2-.12,6.28-11.17,6.13-11.26s-7.72,13.25-8.12,13,8.45-15.41,8.25-15.54c-.55-.34-9.87,16.7-10.28,16.45S140.27,85.76,140,85.61c-.59-.37-11.34,19.07-11.76,18.8S140,84.64,139.72,84.48c-.5-.31-12,20.5-12.6,20.16s13.38-20.44,12.65-20.9-12.71,21.67-13.3,21.3S140.24,82.77,140,82.59s-14,23.31-14.39,23,14.22-24,13.78-24.3S124.63,106.39,124,106s14.94-25.46,14.3-25.86c-.24-.14-7.6,12.51-7.76,12.41s8.41-13.21,8.22-13.33-7.56,12.62-7.8,12.47c-.43-.27,6.8-14.37,6.6-14.49s-6.32,10.75-6.61,10.57,6-10.66,5.85-10.76-5.5,9.49-5.81,9.3,5.54-9.76,5.16-10-4.68,8.1-4.95,7.93,4.23-8.55,4-8.66-4.26,7.11-4.39,7,3.81-7.22,3.73-7.27c-.28-.17-4,6.73-4.14,6.63s3.38-7.07,3.28-7.14c-.25-.15-4.24,7-4.34,7s3.72-7.68,3.46-7.85-3.71,6.35-3.9,6.23,2.71-6.85,2.64-6.89S128.08,79,128,78.94s2.27-6.91,2.19-7-3.7,6.24-3.84,6.15,3.14-5.63,3-5.7S126,78,125.92,77.91s3.74-6.42,3.64-6.48-3.85,6.61-4,6.48,3.26-6,3.11-6.07-3.41,5.85-3.59,5.74,2.32-5.82,2.15-5.92S124,77,123.87,76.94s3.66-5.74,3.58-5.79-3.72,6.21-3.84,6.14,3.85-6,3.67-6.11-3.53,6.09-3.72,6,2-6.2,2-6.23-3.92,6.46-4,6.41,2.85-5.86,2.68-6-4.19,6.94-4.29,6.87,3.76-7.38,3.56-7.5-4.78,8.1-5,8,3.93-8.27,3.65-8.44c-.7-.44-15.06,25-15.47,24.76S122.18,71,121.82,70.74c-.71-.44-14.52,23.9-14.82,23.72-.78-.49,14.18-23,13.45-23.41-.33-.21-13.36,22.77-14,22.38-.88-.55,14.06-21.79,13.32-22.25S106.74,92.82,106.4,92.61s13.83-21.46,13.08-21.93-12.94,21.43-13.27,21.23,11.63-19.72,10.88-20.2c-.3-.18-10.37,17.54-10.8,17.28S117,71.74,116.79,71.62,106.23,89,106,88.86c-.53-.33,9.65-16,9.4-16.17s-9,14.79-9.16,14.67c-.37-.24,6-12.25,5.55-12.5-.25-.16-4.74,8.27-5,8.08-.09-.06,3.12-6.13,3-6.21s-1.85,3.16-1.94,3.11"/><path class="cls-2" d="M154.47,78.18c-.15-.1-7.4,13-7.94,12.7s8.83-14.16,8.63-14.28-9,15.1-9.31,14.89,9.49-17.71,9.21-17.89-8.6,14.77-9.05,14.49c-.26-.16,9.18-14.59,9-14.71s-8.61,14.71-9,14.45c-.59-.37,9.53-14.84,9.19-15s-8.66,14.27-8.84,14.15c-.48-.3,9-13.52,8.44-13.85-.15-.09-8.46,14.43-8.86,14.18-.56-.35,9.2-13.88,8.78-14.14s-7.74,13.41-8.2,13.12c-.24-.15,7.51-14.25,7.27-14.4-.4-.25-7.63,12.58-7.8,12.47s6.5-12.23,6.31-12.35-5.67,10-6.07,9.73,4.42-9.69,4.29-9.77-3.7,6.46-3.95,6.31,2.18-6.26,2-6.37-2.23,3.85-2.36,3.78.59-3.53.53-3.57-.76,1.34-.81,1.3.52-1.74.48-1.77-.21.35-.22.34"/><path class="cls-2" d="M167.55,79s-.29.47-.29.47.35-4.1.29-4.14-1.91,3.37-2.05,3.28S167.35,73,167.24,73s-3.7,6.27-3.86,6.17,3.27-8.39,3.08-8.51-5.7,9.37-5.81,9.3c-.35-.22,5.25-9.48,5-9.63s-6.4,10.65-6.58,10.54,5.15-9.74,4.78-10c-1.12-.7-17.19,29-17.87,28.59-.49-.31,16-27.08,15.11-27.67-.38-.24-14.48,24-14.85,23.76-.52-.33,13.81-22.47,13.15-22.88-.37-.23-12.64,22.12-13.49,21.59s12.09-20,11.74-20.17S146.27,93.14,145.88,92.9c-.68-.43,11.22-17.59,10.8-17.85-.58-.36-10,17.46-10.66,17"/><path class="cls-2" d="M155.22,104.32s-.21.35-.21.34.05-2.77,0-2.8-1.45,2.45-1.51,2.41,1.9-5.3,1.75-5.39-3.3,5.48-3.39,5.43c-.25-.16,3.7-8.09,3.42-8.26s-5.26,8.9-5.48,8.77c-.39-.25,5.89-11.59,5.59-11.78s-7,11.87-7.31,11.7,7.27-11.61,7.15-11.69c-.46-.28-7.15,11.91-7.36,11.78-.38-.24,7.4-14.38,7.25-14.47-.55-.34-8.69,14.78-9.08,14.54s9.29-15.42,9.13-15.51c-.48-.3-8.78,15.19-9.29,14.87s9.33-14.83,9.05-15-8.12,14-8.58,13.73c-.23-.15,9.93-17.65,9.37-18s-9.25,15.22-9.44,15.11,10-15.56,9.76-15.72c-.62-.38-9.67,16-9.92,15.88"/><path class="cls-3" d="M226.33,94.21c-.3-.19-5.16,9-5.47,8.76-.13-.08,5.2-9.54,4.88-9.74s-5,8.4-5.18,8.3,5.24-9.9,5.08-10c-.35-.22-5.16,8.6-5.31,8.5s4.74-10.66,4.41-10.87c-.1-.06-5.35,9-5.55,8.89S225,85.9,224.67,85.7c-.12-.08-6.31,10.58-6.53,10.45s6.15-12,5.92-12.09-5.65,9.49-5.85,9.36c-.39-.24,5.24-11.3,4.83-11.56s-6,9.94-6.17,9.86,6.36-11.7,6-11.92-5.84,10.13-6.19,9.91c-.17-.1,6-12.43,5.69-12.6s-6.63,11.14-6.87,11,6.43-13,6.17-13.13-6.34,10.6-6.54,10.47c-.41-.25,5.83-12,5.42-12.3s-5.54,9.66-5.9,9.44,4.64-10.53,4.37-10.7-5.18,8.91-5.45,8.74,3.31-8.87,3.1-9-4.06,6.7-4.16,6.64,1.74-6.18,1.59-6.27-2.17,3.75-2.29,3.67-.09-3.46-.13-3.49-.54.91-.56.9,1-1.6,1-1.64-.83,1.38-.86,1.36-.32-1-.33-1-.3.51-.31.5"/><path class="cls-3" d="M231.12,103.66s-.94,1.56-1,1.54,1.38-3,1.27-3.09-1.45,2.49-1.52,2.45,2.34-5.07,2.23-5.14-3.34,5.75-3.52,5.63c-.34-.21,4.41-9.78,4.28-9.87-.31-.19-5.54,9.63-5.88,9.41s7.13-11.4,6.78-11.62c-.12-.07-7,11.91-7.31,11.71s7.81-12.46,7.55-12.62c-.43-.27-8,13.29-8.24,13.17s9.53-17.88,9.28-18-10.14,17.22-10.59,16.94S236.22,84.52,236,84.36c-.74-.46-12,20.65-12.65,20.25-.81-.51,13.69-21.73,13.15-22.07-.32-.2-13,22.44-13.73,22"/><path class="cls-3" d="M246.47,94.11c-.09-.06-4.7,7.76-4.81,7.69s4.81-7.67,4.71-7.74c-.28-.17-4.69,7.76-4.8,7.69-.31-.19,4.63-8.17,4.39-8.31s-4.43,7.58-4.65,7.44,5.19-9.94,4.93-10.1-5.05,8.38-5.18,8.3,4.91-9.22,4.61-9.4-4.54,7.87-4.81,7.7,4.69-9.57,4.49-9.7-5.42,8.86-5.5,8.81,4.9-10,4.71-10.1-4.53,7.91-4.82,7.73,5.3-8.49,5.09-8.62-5.06,8.61-5.28,8.46,5.18-9.51,4.94-9.66-5.34,8.84-5.47,8.76,5.16-10.74,4.77-11c-.16-.1-5.27,8.94-5.5,8.8s4.79-11.17,4.56-11.31S238.18,87.4,238,87.3s4.38-10.78,4.26-10.86-5.2,8.88-5.45,8.72,5.72-9.21,5.38-9.42-4.61,8.07-4.92,7.88,4.42-8.82,4.19-9-4.87,8-5,8,4.72-11,4.59-11.09c-.62-.39-18.72,32.54-19.89,31.81-.76-.48,20.34-31.78,19.8-32.12-1.22-.76-19.19,32.34-19.92,31.89-.54-.34,18.82-30.71,17.8-31.35-.27-.16-10.54,18.19-11.13,17.82s9.94-17.43,9.44-17.75c-.35-.21-8,13.37-8.25,13.21s8.41-13.15,8.24-13.26c-.49-.31-8.44,14.1-8.7,13.93-.5-.31,8.14-13.64,7.93-13.77-.43-.27-6.46,11.21-6.85,11s7.33-11.55,7-11.72-7.2,12.07-7.45,11.92,6.7-11.22,6.28-11.49c-.09-.05-5.15,9-5.5,8.8-.08,0,3.8-8.36,3.68-8.44s-2.64,4.62-2.82,4.5,1.54-4.76,1.49-4.79-.64,1.06-.65,1"/><path class="cls-3" d="M252.2,103.51s-1.07,1.75-1.09,1.74,3.41-8.54,3.27-8.63-4.94,8.37-5.14,8.24,5.73-9.4,5.38-9.62-5.56,9.31-5.74,9.19,7.46-12.29,7-12.58-7.48,12.77-7.84,12.55,10.32-18.35,9.68-18.75S246.38,105.42,245.64,105c-.38-.24,13.08-20.29,12.59-20.59-.67-.42-12.16,21-12.85,20.56s14.31-23.5,13.72-23.86c-.85-.54-14.42,24.07-14.87,23.79s18.61-31,17.53-31.63S243,104.89,242.27,104.42s20.83-32.2,19.93-32.77c-.65-.4-18.94,32.21-19.79,31.68s19.64-31.56,19.07-31.91-18.63,32.07-19.64,31.44S262.14,71.28,261.66,71,242.41,102.72,242,102.46c-.88-.55,20.12-29.95,19-30.63-.45-.27-19.09,31.62-19.57,31.32-1-.65,18.3-31.74,17.94-32-.54-.33-11.19,18.7-11.54,18.48-.55-.34,9.42-17.59,9-17.88-.22-.13-6.88,11.5-7.1,11.36s5-11.41,4.81-11.5-2.93,5.06-3.1,5,2-5.39,1.87-5.45-.41.7-.43.69"/><path class="cls-3" d="M274.58,77.76c-.49-.3-7.88,13.3-8.19,13.11s8.8-13.07,8.29-13.39-8.15,14-8.58,13.73,8.71-14.18,8.23-14.47c-.23-.15-7.89,13.09-8.1,13-.38-.23,8.49-14.69,8.14-14.91s-8,13.12-8.15,13c-.29-.18,7.89-15.63,7.45-15.91s-7.39,12.75-7.8,12.49,7.12-12.19,7-12.27-6.45,10.75-6.65,10.63c-.37-.23,6-10.82,5.79-11s-5.84,9.78-6,9.66,4.25-10,4.11-10.1-3.68,6.42-3.92,6.27,1.36-5.41,1.26-5.46-1.1,2-1.2,1.92.21-2.68.15-2.72-.43.7-.44.7"/><path class="cls-3" d="M287.66,78.57s-.54.88-.55.87,0-3.21-.05-3.24-1.81,3-1.86,3,2.11-4.29,2.07-4.32-2.86,4.93-3,4.83,2.91-5.33,2.72-5.45-2.64,4.51-2.76,4.43,3-5.54,2.79-5.64-3.44,6.06-3.69,5.9,2.88-7.5,2.8-7.55-4.7,7.75-4.81,7.69,4.62-8,4.4-8.1-5.51,9.46-5.8,9.28,4.73-9.62,4.49-9.77-6.78,11.7-7.16,11.46,5.74-11.24,5.51-11.39c-.45-.28-16.33,27.2-16.81,26.91C265.25,97,283,71.66,282.09,71.09c-.44-.28-15.41,25.74-15.89,25.43s13.29-23,12.53-23.52-12.42,21.32-13.07,20.92c-.36-.23,12.22-19.42,11.49-19.88-.53-.33-10.61,18.23-11.17,17.88"/><path class="cls-3" d="M275.07,104.32a4,4,0,0,1-.22.34s.48-3.11.44-3.14-2,3.38-2.08,3.33,2.13-4,2.07-4-2.48,4.17-2.57,4.12,2.79-4.57,2.71-4.63-2.27,3.93-2.4,3.85,2.59-6.15,2.4-6.28-4.49,7.37-4.57,7.31,4-7.19,3.91-7.25c-.28-.18-4.32,7.5-4.58,7.34s5-7.89,4.77-8-4.3,7.1-4.4,7c-.25-.15,5.08-9,4.75-9.25s-5.71,9.75-6,9.58,6.3-11.24,6.05-11.4-6.5,11.12-6.82,10.92,6.71-12.95,6.54-13.06-8.55,14.39-8.86,14.19S276,87,275.54,86.67s-8.79,14.86-9.15,14.64,10.19-16.9,9.68-17.22c-.29-.18-9.91,16.48-10.19,16.31"/><path class="cls-3" d="M336.92,104.11s-.4.66-.41.65S337,100,337,100s-2.8,4.71-2.91,4.64,3.09-6.11,3-6.16-3.78,6.21-3.85,6.16,3.8-6.81,3.71-6.87-4.35,7.27-4.49,7.18c-.3-.18,4.7-8,4.62-8s-5,8.53-5.23,8.38,5.22-8.79,4.92-9-4.88,8.43-5.16,8.26,5.22-8.7,5-8.86-5.12,8.63-5.32,8.51,6-9.51,5.74-9.69-6,10.41-6.35,10.17,6.23-13.45,6.07-13.55c-.49-.31-8.65,14.26-8.84,14.14-.61-.38,9.35-17,9-17.19s-8.4,14.41-8.84,14.14,9.44-14.55,8.86-14.92c-.39-.24-8.91,15.53-9.48,15.18s10-16.81,9.41-17.18c-.24-.15-8.69,14.57-9,14.38-.57-.36,10.42-17.87,9.93-18.17S327.92,98,327.54,97.81"/><path class="cls-3" d="M358.73,104.32s-.2.35-.21.34.17-3.32.12-3.35-2.05,3.57-2.18,3.48,2.15-4.32,2.06-4.37-2.29,4-2.44,3.91,2.84-4.44,2.73-4.51-3,5.13-3.15,5,3.34-7,3.25-7.1-4.14,7.22-4.41,7,4.55-9.62,4.23-9.83-5.63,9.6-5.9,9.43,6-9.17,5.69-9.37-5.63,9.74-6,9.54,6.59-13.8,6.43-13.9c-.54-.34-8.34,14.39-8.81,14.09s8.66-16.32,8.44-16.46c-.56-.35-8.48,14.35-8.83,14.13-.18-.11,9.43-14.89,8.95-15.19s-8.79,15.15-9.28,14.85c-.19-.12,9.52-15.09,9-15.39-.2-.13-8,13.76-8.42,13.47-.16-.1,8.71-15.29,8.29-15.55s-8.19,14.23-8.69,13.91c-.23-.14,9.81-16.57,9.28-16.9s-8.62,14.92-9.13,14.6,9.15-14.09,8.75-14.34c-.17-.1-8.66,14.29-8.85,14.17s9.43-15.64,9-15.91S350,94.9,349.63,94.68s9.18-16,8.6-16.38-8.13,14.13-8.63,13.81S358.31,78.3,357.85,78,350.5,90.84,350,90.54s7.77-13.24,7.59-13.35-7.41,12.47-7.68,12.29S356.67,76,356.4,75.83s-6.56,11-6.77,10.84,7-11.92,6.65-12.17S350,85.23,349.71,85s5.47-11,5.16-11.2-5.3,8.87-5.48,8.76,5.39-10.12,5.17-10.26-5,8.54-5.25,8.41,3.88-8.55,3.63-8.7c-.09-.06-4.76,7.82-4.86,7.77s4.6-8.48,4.49-8.56-4.95,8.2-5.07,8.12,3.88-8.52,3.6-8.69-4.8,8-4.93,7.9S350,71.4,350,71.35s-4.18,6.88-4.26,6.83,3.08-7.12,2.92-7.22S344.1,78.4,344,78.35s3.47-7.7,3.31-7.8-4.78,8-4.94,7.9,3.16-7.53,3.05-7.6-4.58,7.83-4.81,7.69,2.94-7.34,2.86-7.39c-.92-.58-14.46,25.29-15.42,24.69S343.75,72,343.12,71.61c-.95-.59-14.56,24.89-15.27,24.45s14.31-23.48,13.56-24-13,21.7-13.4,21.46,11.8-20,11.05-20.51c-.32-.21-10.46,18.09-11.07,17.71-.36-.22,9-15.88,8.47-16.21-.31-.2-8.63,14.8-9.07,14.52s9.59-14.71,9.05-15c-.37-.24-8.56,14.83-9.07,14.52-.33-.21,9.5-14.21,9-14.54-.21-.13-8.24,14.15-8.67,13.88S337,73,336.57,72.67,328.4,86.58,328,86.35s8.69-14.26,8.44-14.42-8.59,14.65-9,14.39,8.69-15,8.37-15.21-8,13.28-8.22,13.14,6.5-12,6.19-12.18-5.79,9.52-5.9,9.45c-.26-.16,6.35-9.48,6-9.7-.13-.08-6.23,10.46-6.45,10.32s5.48-10.11,5.18-10.29-4.62,8-4.91,7.86,4.27-8,4-8.19-3.85,6.34-3.93,6.29,2.49-6.45,2.35-6.54-2.13,3.58-2.2,3.53,1.69-3.22,1.66-3.24-1.53,2.72-1.65,2.64,0-2.67,0-2.69-.47.76-.47.76"/><path class="cls-3" d="M386.41,94.61c-.18-.11-5.59,9.48-5.84,9.33s2.66-7.54,2.5-7.64-4.37,7.56-4.62,7.4c-.1-.06,4.21-6.61,4.06-6.7s-3.72,6.14-3.8,6.09,1.89-5.9,1.76-6-3.62,6-3.72,6,1.85-6.58,1.72-6.67-3.75,6.22-3.85,6.16,3.41-6.72,3.2-6.85-4.61,7.63-4.72,7.56,4.44-7.85,4.18-8-4.41,7.51-4.61,7.38,4.75-7.43,4.54-7.56-4.27,7.11-4.39,7,3.1-7.07,2.91-7.19-3.74,6.5-4,6.35,3.19-7.52,3-7.67-4.53,7.87-4.81,7.69,4.56-10.24,4.23-10.44-5,8.44-5.19,8.3,5.32-11.58,5-11.75S367.57,98.19,367.33,98s6.9-12,6.61-12.22c-.13-.08-6.55,11.29-6.91,11.06-.11-.07,7-11,6.86-11s-6.5,10.77-6.66,10.67,6.87-13,6.71-13.08-6.85,11.94-7.29,11.66C366.43,95,375,82,374.76,81.81s-8.39,13.84-8.57,13.72"/><path class="cls-3" d="M388.55,76.27c-.09-.06-1.91,3.32-2,3.24s1.38-4.74,1.27-4.81-2.52,4.2-2.6,4.15,1.38-5.84,1.23-5.93-3.09,5.29-3.25,5.2,2.07-5.27,1.89-5.38-2.52,4.35-2.67,4.26,2.42-4.72,2.3-4.79-3.32,5.57-3.44,5.5,2.1-6.6,1.9-6.73-4.43,7.26-4.51,7.21,4.44-7.14,4.15-7.32-4.71,7.72-4.79,7.67c-.26-.16,3.26-8,3-8.16s-14.57,24.07-14.9,23.86,14-22.59,13.34-23-13.59,22.42-13.89,22.23,13.52-22,13.25-22.17c-.8-.5-12.5,21.94-13.37,21.4s11.37-20.85,10.82-21.19-10.8,18.06-11.15,17.84c-.17-.11,8.84-17.32,8.53-17.51-.5-.31-8.46,14.77-9,14.42-.32-.2,9.75-14.66,9.32-14.93-.16-.09-9.26,15.27-9.47,15.15-.46-.29,8.37-14.38,8.21-14.48s-7.09,11.9-7.34,11.74,4.82-9.82,4.7-9.89-3.92,6.7-4.11,6.59,3.37-5.65,3.25-5.73-2.62,4.44-2.73,4.37"/><path class="cls-3" d="M387,108.91c-.23-.14-5.13,8.87-5.43,8.68s3.09-6.45,2.91-6.57-3.81,6.58-4,6.45,2.27-6.84,2.06-7-4,6.65-4.1,6.56,2.54-5.41,2.44-5.48-3.61,5.92-3.67,5.88,2.56-6.09,2.4-6.19-3.07,5.23-3.21,5.14,3-5.94,2.78-6.07-3.76,6.48-4,6.35,4-6.27,3.93-6.33-3.46,5.83-3.59,5.75,2.58-6.34,2.46-6.42-3.62,6.31-3.85,6.16c-.07,0,2.94-5.13,2.79-5.23s-3.48,5.88-3.62,5.79,3.21-7.85,3.05-7.94-3.9,6.42-4,6.37,2.73-8.1,2.58-8.19-4.47,7.34-4.55,7.28,1.85-6.85,1.78-6.9-3.77,6.37-3.92,6.27,3.26-7.17,3-7.31-3.53,6-3.66,5.86,1.92-5.59,1.87-5.62-2.8,4.69-2.9,4.63,1.35-4.44,1.3-4.48-1.67,2.81-1.73,2.78-.12-2.5-.17-2.54-.16.26-.16.25"/><path class="cls-3" d="M396.18,109c-.12-.07-2,3.27-2,3.25s3.22-5.77,3-5.89-4.76,7.86-4.87,7.8c-.37-.24,5.16-11.38,5-11.46-.41-.26-7.69,12.76-7.89,12.64s8.06-12.76,7.65-13c-.24-.15-8.39,14.13-8.71,13.94s9.3-17.35,8.79-17.67-11,18.81-11.53,18.45c-.84-.52,12.9-22.45,12.1-23-.63-.39-13.62,23.32-14.3,22.89-.48-.29,14.79-26,14.27-26.29-.16-.1-8.44,14.58-8.92,14.27-.25-.15,8.78-14.57,8.32-14.85-.22-.14-7.62,13.29-8.11,13s8.62-16.6,8.1-16.93S389.52,99.39,389,99.09s9.17-14.76,8.73-15-9.06,15.06-9.31,14.9,9-14.11,8.77-14.23c-.48-.3-9,15.53-9.5,15.2s10.52-15.77,10-16.11-9.4,16.45-10,16c-.24-.15,10.11-15.67,9.49-16S387,101.56,386.33,101.14c-.39-.25,11.66-22,11.41-22.18-.86-.53-14.53,24.92-15.28,24.45s15.32-26.22,15-26.42-9.29,15.59-9.62,15.39c-.17-.11,9.78-16.11,9.29-16.41-.3-.19-7.74,13.34-8.17,13.08s8.79-15.56,8.3-15.86c-.2-.13-7.85,13-8,12.84-.38-.24,7-13.64,6.63-13.87s-6.73,11.79-7.18,11.5c-.13-.07,6.74-11.79,6.49-12s-6.43,11.24-6.86,11,7-11.15,6.69-11.35S388.78,82.2,388.38,82s5.3-10.75,5.06-10.89-6.18,10.18-6.31,10.1c-.3-.18,4.19-9.26,4-9.38s-1.86,3.17-1.94,3.12,0-3.31,0-3.36-.64,1-.64,1"/><path class="cls-3" d="M414.13,104.35s-.23.39-.24.38,0-2.47-.1-2.51-1.36,2.43-1.47,2.36,2.22-6.48,2.06-6.58-3.79,6.41-3.95,6.31,3.5-8.08,3.4-8.14-5,8.38-5.17,8.27c-.38-.23,5.53-11.4,5.12-11.65-.16-.11-7.06,11.89-7.33,11.72s8.12-13.89,7.89-14-8.45,14.25-8.78,14,9.16-17.26,8.87-17.44-8.9,14.63-9.08,14.53c-.55-.35,9.11-15.81,8.65-16.1s-8.76,14.92-9.17,14.67,9.53-17.53,9.1-17.8-8.32,14.47-8.84,14.14,9.33-15,8.88-15.29-8.56,14.73-9,14.44,9.33-16.07,9.05-16.25-8.43,14.15-8.72,14,9-14,8.71-14.2-8.44,14.3-8.8,14.07,9.62-18.15,9.08-18.49-8.93,15-9.24,14.78c-.62-.4,10.07-16.86,9.47-17.23-.32-.2-9.35,15.91-9.77,15.64-.69-.43,9.63-17.89,9.34-18.07-.52-.32-9,15.13-9.32,14.93-.57-.36,9.79-15.75,9.23-16.09s-8.85,14.63-9.06,14.5,9.77-15.64,9.18-16c-.21-.13-8.4,14.69-9,14.34-.25-.16,9.43-16.12,9-16.39-.21-.13-9.06,15.23-9.39,15-.54-.33,9.6-16.31,9.09-16.62s-8.65,14.67-9,14.43,9.92-15.85,9.58-16.07c-.15-.09-8.88,15.1-9.28,14.85-.58-.36,9.34-17.45,9-17.65s-8.51,14-8.69,13.91,7.79-14.11,7.47-14.31S405.36,71.53,405,71.33s6-11.62,5.7-11.81-5.59,9.24-5.72,9.16c-.32-.2,6.33-10,5.93-10.23-.15-.09-5.82,9.91-6.09,9.74s6.05-9.71,5.91-9.8-5,8.74-5.34,8.54,2.3-7.38,2.13-7.48-2.48,4.25-2.6,4.18,2.75-4.78,2.58-4.89-2.33,4-2.45,3.91.77-3.83.68-3.88-.3.53-.32.51-.37.07-.39.06-.24.41-.25.41"/><path class="cls-3" d="M467,77.22c-.26-.16-8.42,14.37-8.82,14.12s8.8-16.4,8.45-16.62-8.57,14.1-8.75,14c-.62-.39,9.07-17.4,8.62-17.68-.17-.1-7.95,13.52-8.3,13.3s5.73-12.39,5.55-12.5-5.2,8.9-5.46,8.74,5.47-9.41,5.29-9.52-5.53,9.11-5.65,9,3.4-8.71,3.27-8.79-3.11,5.13-3.18,5.08.92-4.27.87-4.3-.88,1.49-.91,1.46.62-2.25.59-2.27-.5.81-.51.81.19-.37.18-.37-.41.66-.41.66"/><path class="cls-3" d="M479.35,79.25s-.4.67-.41.66.18-2.4.13-2.44-1.34,2.28-1.4,2.24,1.77-6,1.59-6.16-3.09,5.19-3.2,5.12,3-7.23,2.84-7.35-4.64,7.63-4.73,7.58c-.26-.16,4.05-8.4,3.88-8.51s-5.62,9.39-5.8,9.28c-.35-.22,5-9.16,4.85-9.26S471.05,81,470.65,80.73c-.12-.08,4.59-9.24,4.43-9.34-.38-.24-16.41,28.18-17.27,27.63-.62-.38,18.23-28,17.52-28.43-1-.65-16.2,28.27-17.25,27.61-.55-.34,17.22-26.34,16.33-26.9-1-.65-15.52,26.07-16.07,25.72s14.06-24.7,13.57-25c-.24-.15-12.71,22-13.47,21.55-.38-.23,12.5-20.62,12.29-20.75s-12,20.51-12.59,20.15,11-17.65,10.53-18-9.9,16.69-10.28,16.46"/><path class="cls-3" d="M467.47,103.86s-.44.74-.46.74.32-1.78.27-1.81-.75,1.35-.81,1.31,1-4.51.81-4.61-3.32,5.75-3.52,5.63,3.38-6.84,3.12-7-3.62,6.15-3.78,6,4.45-10.16,4.22-10.3-6.83,11.51-7.1,11.35c-.51-.33,7.46-14.81,7.19-15S459,104.8,458.5,104.5c-.33-.21,8.81-14.91,8.45-15.13-.53-.33-8.41,13.87-8.6,13.76-.51-.32,10.69-18.92,10-19.34-.37-.23-9.78,16.88-10.33,16.54"/><path class="cls-2" d="M78.16,81s-.08.13-.08.12-.31-1.84-.37-1.88-1,1.79-1.08,1.73,1.16-2.63,1.13-2.65-2.14,3.49-2.18,3.47,1.58-4.56,1.43-4.65-2.31,4-2.46,3.93,1.88-4.92,1.73-5-2.93,5-3.07,4.91,3.43-5.31,3.31-5.38-3.47,5.93-3.64,5.82S75,74.83,74.8,74.7s-3.68,6.37-3.89,6.23,4.12-6.63,4-6.7-4.32,7.11-4.41,7.06,3.24-7.81,3-8c-.09-.06-4.08,7.1-4.34,6.94s4.2-7.56,4.07-7.64-3.85,6.51-4,6.41,2.29-7,2.13-7.14-3.86,6.54-4,6.44,3-6,2.85-6S66.77,78.07,66.61,78s2-6.65,1.93-6.69-3.74,6.24-3.86,6.17,2.49-6.46,2.4-6.52-3.9,6.41-4,6.36,2.76-6.5,2.63-6.58-3.31,5.83-3.54,5.68S65.6,71.11,65.43,71s-3.77,6.48-4,6.35,3.4-6.65,3.24-6.75-3.91,6.61-4.07,6.51,1.92-6,1.79-6.08c-.37-.23-9.77,16.71-10.26,16.41s9.42-16,9-16.3-9.23,15.4-9.52,15.23S61.19,70.71,61,70.58c-.41-.26-9.49,16-9.86,15.77s10-15.84,9.72-16-9.29,15.51-9.58,15.33,7.93-13.88,7.39-14.22c-.38-.23-8.11,13.6-8.39,13.43S57.68,71.2,57.32,71s-7.53,12.75-7.85,12.56S54.2,73.34,54,73.19s-4.61,7.64-4.72,7.57,2.08-5.39,2-5.46a22.76,22.76,0,0,0-1.24,2"/><path class="cls-2" d="M69.17,97.49c-.21-.13-5.18,8.68-5.35,8.57s4.12-7.6,3.85-7.77-4.29,7.19-4.43,7.1,4.07-6.77,3.92-6.86-4.28,7.33-4.49,7.19,3-6.08,2.87-6.15-3.39,5.67-3.5,5.6,1.32-5.24,1.15-5.35-3.47,6-3.65,5.85,3-6.53,2.85-6.62-3.59,6.06-3.74,6,1.88-5.59,1.68-5.71-3.22,5.31-3.29,5.26,2.17-6.5,2-6.6-3.55,6.2-3.78,6S58,97.38,58,97.34s-3.4,5.72-3.52,5.64,3-7.66,2.85-7.78-3.93,6.74-4.13,6.62,2.28-7.33,2.17-7.4-3.62,6.13-3.77,6,3.28-6.7,3.19-6.75S51,99.82,51,99.77,53.47,94,53.38,93.9s-3.29,5.66-3.47,5.55,1.09-5.53,1-5.58-2.15,3.58-2.21,3.54.63-3.27.57-3.31-.6,1.05-.64,1,0-1,0-1.05-.38.61-.38.61"/><path class="cls-2" d="M78.37,98.28c-.09-.06-1.68,2.86-1.76,2.81s2.3-4.31,2.25-4.34c-.2-.12-3.27,5.64-3.45,5.53s3.46-5.48,3.3-5.58-3.45,5.85-3.59,5.76,3.88-6.55,3.69-6.67-4.18,7.2-4.41,7.06,4.62-7.46,4.34-7.63-4.87,8.51-5.2,8.31S79.1,91.2,78.83,91s-8.25,13.79-8.52,13.63S78,90.46,77.78,90.33s-9.12,15.41-9.49,15.18,9.59-16.43,9-16.81c-.46-.29-10,17.19-10.52,16.83-.21-.13,9.84-16.81,9.64-16.94s-10.07,17.25-10.58,16.93c-.22-.14,10.91-17.34,10.3-17.72C75.9,87.67,65.52,106,65,105.66s11.45-18,11.27-18.09c-.34-.2-10.62,17.54-10.86,17.38-.6-.37,10.46-17.17,9.83-17.56-.25-.16-4.71,8.06-5,7.92s5.17-8.25,5-8.36-4.79,7.93-4.9,7.86c-.26-.16,4.47-8.08,4.34-8.16s-4.82,8.13-5,8,3.66-7.93,3.5-8-4.11,7-4.32,6.91,4.35-7.33,4.27-7.39c-.25-.15-4.23,7.31-4.48,7.16s3.61-7.6,3.49-7.68-3.83,6.47-4,6.38,3.59-5.94,3.46-6-3.89,6.5-4,6.42,2.66-7.55,2.41-7.7-4.28,7.22-4.45,7.12,4.29-7.18,4.06-7.32S65.15,91.9,65,91.83s3.19-7.16,3-7.28-4.24,7.33-4.49,7.17,3-7.53,2.79-7.69-3.73,6.19-3.83,6.12,1.65-5.65,1.5-5.74-3.49,5.83-3.6,5.76,3.08-6,2.92-6.08S60,89.77,59.82,89.67s1.92-5.81,1.83-5.86-3.63,6-3.71,5.93,2.76-6.6,2.55-6.73-4.14,6.89-4.26,6.82,4.71-7.32,4.57-7.41-4.27,7.25-4.46,7.13,3.12-6.72,3-6.8-3.45,5.9-3.62,5.79S58.5,81,58.28,80.9s-4.69,7.79-4.82,7.71,4.74-8.85,4.63-8.92c-.34-.22-4.54,7.58-4.68,7.49"/><path class="cls-2" d="M188.05,93.87c-.23-.14-5.18,9.06-5.52,8.85-.19-.11,5.13-8.11,5-8.19-.31-.2-4.85,8.12-5,8-.34-.21,4.67-9.12,4.53-9.2s-4.58,8.05-4.9,7.85,4.57-10.94,4.45-11-5.59,9.19-5.7,9.12c-.31-.2,5.18-11.14,5.06-11.21-.28-.18-5.29,8.71-5.4,8.64-.36-.23,5.07-9.69,4.71-9.92s-5.32,9.25-5.65,9,5.94-10.39,5.58-10.62-5.82,9.87-6.07,9.71,5.74-10.6,5.55-10.72-5.45,9.08-5.62,9,5.41-9.82,5.11-10-5.81,9.66-6,9.56c-.39-.24,5.42-11,5.13-11.18s-5.25,8.88-5.46,8.74c-.42-.26,5.82-11.13,5.47-11.35s-5.58,9.6-5.88,9.41,5.22-10.52,5-10.65-6,10.29-6.3,10.08,6-11.53,5.7-11.72-5.64,9.79-6,9.57c-.16-.1,5.7-11.37,5.45-11.52s-5.63,9.44-5.82,9.32,5.1-10.75,4.76-11-5.67,9.76-6,9.57,4.37-10.34,4.09-10.51-5,8.33-5.14,8.21,3.49-8.63,3.23-8.79c-.08,0-3.71,6.18-3.82,6.11s3.55-5.63,3.33-5.77-3.54,5.94-3.67,5.86,3.15-5.81,3-5.88-2.43,4.28-2.61,4.17,1.75-3.29,1.7-3.32-2.08,3.43-2.13,3.4.2-3.34.14-3.38-.76,1.29-.8,1.26-.38-2.29-.42-2.32-.69,1.12-.7,1.11"/><path class="cls-2" d="M181.21,108.07c-.26-.16-5.2,8.58-5.32,8.5s3.1-8,3-8.08-4.41,7.55-4.63,7.41,3.48-6.91,3.33-7-3.86,6.54-4,6.44,2.35-6.53,2.21-6.62-1.86,3.13-1.93,3.08,1.8-3.09,1.76-3.12-1.85,3.08-1.9,3,1.69-3,1.66-3-1.4,2.43-1.48,2.38,1.18-2.87,1.15-2.89-.75,1.33-.81,1.29.22-1.19.19-1.21-.39.65-.4.65.08-.44.06-.45l-.19.32"/><path class="cls-2" d="M190.48,109.58c-.11-.07-2.12,3.53-2.18,3.49s4.64-9.44,4.42-9.58-7.15,11.83-7.32,11.72c-.5-.31,9.29-15.28,8.85-15.55-.16-.11-9.81,16.36-10.1,16.17s12.66-20.89,11.92-21.36-12.63,22-13.44,21.5c-.63-.39,15.23-25,14.84-25.28-.67-.42-15.2,25.61-15.78,25.25-1.05-.65,18.31-30.79,17.95-31-.68-.42-18.64,31.67-19.47,31.15s20.64-32.23,20.11-32.57-19.65,33-20.34,32.54c-1.31-.82,24.45-42.13,24-42.42S179.11,117.1,177.42,116c-1.54-1,27.76-41.27,26.3-42.18-1-.6-24.89,43.54-26.55,42.5-.71-.45,26.43-43.82,25.73-44.26s-19.34,33.26-20.38,32.61c-.52-.33,19.13-32.28,18.54-32.65S189.45,91.42,189.11,91.2c-.64-.39,11.41-19.7,10.72-20.14-.22-.13-8.33,14.45-8.83,14.14-.15-.1,7-13.61,6.54-13.92-.16-.1-4.51,7.67-4.71,7.54s4-7.4,3.87-7.51-3,5.16-3.17,5.07,2.31-5,2.14-5.14c0,0-.56.94-.58.93"/><path class="cls-3" d="M452.64,90.09l-.26.43c-.06,0,.56-2,.52-2s-.74,1.31-.8,1.28.71-1.31.68-1.32-1.2,2-1.22,2,1.26-4.58,1.19-4.62-2.92,4.87-3,4.82S452.38,85,452.28,85s-3.25,5.49-3.38,5.41,2.63-7.59,2.52-7.66-4.14,7.14-4.37,7,4-9.55,3.66-9.74-6.51,10.68-6.63,10.61,6.89-11.13,6.49-11.38c-.25-.15-6.54,11-6.79,10.86s6.79-10.67,6.66-10.75S444,90.15,443.77,90s7.26-11.68,6.87-11.93c-.23-.14-7.3,12.2-7.53,12.06-.47-.29,7.89-11.76,7.42-12s-7.68,12.72-7.87,12.6c-.35-.22,6.93-14.52,6.69-14.67s-8.89,15.13-9.29,14.87c-.15-.09,9.08-14.25,8.72-14.48-.1-.05-4.76,7.89-4.89,7.82s4.71-8.64,4.38-8.85-4.24,7.46-4.54,7.27,3.2-7.88,3.07-8-4,6.5-4,6.46,3.5-7.08,3.42-7.14-4.25,7-4.33,6.92,2.69-7.45,2.5-7.57-3.64,6-3.72,6,3.83-7.39,3.72-7.45-3.87,6.49-4,6.41,3.36-6.2,3.28-6.26-3.42,5.76-3.55,5.68,1.67-5.82,1.56-5.89S437.88,78,437.78,78s3.5-7.15,3.42-7.2-4.19,7-4.34,7,2.27-6.46,2.14-6.54-3.69,6.18-3.81,6.1S437,71,436.83,70.94s-4.5,7.42-4.6,7.36,4-7.65,3.88-7.71c-.27-.17-14.58,24.52-15.11,24.19-.88-.55,14.59-23.71,14-24.07-.8-.5-14,23.53-14.49,23.2-.32-.2,12-22,11.49-22.32S419.9,91.46,419.68,91.33c-.67-.42,12.16-18.91,11.53-19.3s-11.09,18.19-11.29,18.06c-.65-.4,10.61-17.73,10-18.14-.46-.28-9.51,16.52-10.09,16.16-.3-.19,9.18-14.77,8.8-15s-8.14,13.53-8.36,13.39c-.43-.27,7.19-12.61,6.89-12.8s-6.36,11-6.74,10.79c-.19-.11,4.31-8.94,4.2-9s-2.88,4.88-3,4.8,2.43-3.77,2.29-3.86-2.22,3.68-2.28,3.64"/><path class="cls-3" d="M443.73,84.11c-.16-.1-3.56,5.9-3.66,5.84s3.2-5.11,3.05-5.2S440,90,439.88,89.94s1.31-5.81,1.18-5.89-3.59,6.21-3.8,6.08c-.06,0,2.52-5.61,2.37-5.7s-3.63,6.23-3.82,6.11,1.88-5.58,1.77-5.64-3,5.16-3.16,5.06,2.13-4.79,2.05-4.84-3.43,5.79-3.57,5.71,1.75-5.91,1.69-6-2.92,5-3,4.89,3.3-5.14,3.21-5.19-3.4,5.66-3.5,5.6,1.32-5.26,1.26-5.3-3.35,5.78-3.54,5.66,2.2-6.36,2.12-6.4c-.26-.17-8,13.58-8.36,13.38s8.21-12.6,7.81-12.86-8,14-8.54,13.66,8.76-13.77,8.62-13.86c-.36-.23-7.87,13-8.07,12.91s6.8-13,6.42-13.25-7.47,12.65-7.78,12.46,8.88-14.4,8.31-14.75c-.27-.17-8.56,14.14-8.76,14"/><path class="cls-3" d="M442.83,96.49c-.28-.17-5.57,9.33-5.75,9.22s2.13-6.51,1.93-6.64-3.54,6.2-3.77,6.05,1.65-6,1.48-6.09-3.33,5.73-3.51,5.62,3.11-6,3.05-6c-.22-.14-3.93,6.5-4,6.44s1.54-6.23,1.41-6.31-3.51,6.09-3.72,6,2.07-6.61,2-6.68-3.56,5.94-3.67,5.87,2.78-6.82,2.68-6.89-3.34,5.82-3.55,5.69,2.9-7.4,2.71-7.52-4.06,6.7-4.15,6.64,3.39-7.6,3.29-7.66-3.9,6.44-4,6.38c-.25-.15,4.38-7.68,4.22-7.78s-4.93,8.35-5.14,8.22,4.63-7.56,4.45-7.67-4.58,7.85-4.82,7.7,5.27-8.09,5-8.26c-.11-.07-4.34,7.49-4.58,7.34s5-8.74,4.73-8.93-5,8.76-5.34,8.56,5.75-8.79,5.4-9c-.13-.08-5.64,9.41-5.81,9.3s6-9.79,5.8-9.91-5.86,10-6.14,9.84"/><path class="cls-3" d="M451.51,96.25c-.14-.09-2.4,4-2.49,4s2.25-5.83,2.05-6-5.46,9.08-5.61,9,3.78-8.77,3.46-9-6.5,10.82-6.68,10.7,6.59-10.33,6.35-10.48-6.06,10.34-6.34,10.16,5.46-9.45,5.22-9.6-5.66,10-6.07,9.72c-.26-.16,5.45-9.75,5.26-9.87s-6.4,10.53-6.53,10.44,5.64-10.5,5.42-10.63c-.39-.25-6.51,10.8-6.68,10.69s6-10.85,5.61-11.11-6.47,11.32-6.9,11"/><path class="cls-3" d="M299.83,81s-.26.45-.27.44.26-1.19.24-1.2-.7,1.2-.74,1.17"/><path class="cls-3" d="M309.23,98.2c-.17-.1-4.27,7.33-4.49,7.19s4.5-6.83,4.32-6.94-3.75,6.61-4,6.43c-.11-.07,2.1-5.9,2-6s-3.71,6.23-3.85,6.15,2.67-6,2.57-6.06-3.87,6.46-4,6.39,1.85-5.54,1.73-5.61-3.33,5.54-3.42,5.48,2-5.37,1.89-5.45-3.23,5.34-3.3,5.29,2.58-6.54,2.36-6.68-3.76,6.42-3.94,6.31,2.85-7,2.74-7.12-4.3,7.09-4.39,7,3.22-7,3.12-7.09-3.84,6.33-3.93,6.28c-.27-.17,3.92-7.84,3.79-7.92s-4.28,7.36-4.51,7.22,4.74-8.29,4.65-8.34c-.33-.21-5.21,8.67-5.36,8.57s5.7-9.36,5.54-9.46c-.37-.23-5.61,9.49-5.84,9.34"/><path class="cls-3" d="M310.7,83.32c-.18-.11-3.82,6.62-4,6.48-.06,0,1.43-5.21,1.28-5.3s-3.53,5.93-3.65,5.85,1.61-4.83,1.5-4.9-2.88,4.78-3,4.73,2.81-5.31,2.66-5.41-3.67,6.3-3.86,6.18,3.52-5.35,3.38-5.43-3.71,6.22-3.84,6.15,3.79-6,3.63-6.15-3.1,5.47-3.33,5.33,2.4-6,2.34-6-11.13,18.21-11.31,18.1c-.44-.27,10.64-17.71,10.14-18s-10.7,17.52-10.88,17.41c-.58-.37,10.39-17.18,10.09-17.37s-10.2,17.12-10.56,16.9c-.16-.1,7.53-15.15,7.15-15.39s-7.94,13.72-8.4,13.44c-.16-.1,8.7-14,8.23-14.25C298,85.47,290.12,99,290,98.92c-.29-.18,7.29-11.8,6.82-12.09s-7.05,11.54-7.16,11.46c-.32-.2,6.79-11.5,6.42-11.73-.14-.09-6.44,10.76-6.65,10.64s4.66-9.43,4.48-9.54-4.3,7.3-4.49,7.18,4.75-7.44,4.58-7.55-4.08,6.87-4.23,6.77,2.52-5.1,2.37-5.19-1.8,3.07-1.88,3"/><path class="cls-3" d="M321.4,104.79s-.2.31-.2.31-.24-1.86-.29-1.9-1,1.69-1,1.65,1-3.58.9-3.65-2.27,3.89-2.39,3.81,2.57-4.33,2.52-4.36-2.33,3.84-2.38,3.81,1.93-4.12,1.82-4.19-2.69,4.6-2.82,4.52,3-6.74,2.83-6.85-3.65,6.34-3.87,6.2,4.52-8.55,4.39-8.64c-.29-.18-5.82,9.73-6,9.61S321.38,94.76,321,94.5s-6.14,10.61-6.49,10.39,6.64-10.53,6.44-10.66-5.84,10.09-6.17,9.88c-.17-.1,5.92-10.62,5.55-10.85s-6.65,11.64-7.1,11.36,7.78-13,7.44-13.19c-.14-.09-7.75,13.34-8.17,13.08s8.87-14.51,8.4-14.81c-.19-.12-8.48,14.32-8.82,14.11-.66-.41,9.41-17.53,8.77-17.92-.21-.13-10,17.09-10.48,16.77-.24-.15,10.72-20,10.33-20.19-.56-.35-13.25,22.85-14,22.39-.38-.23,14.64-22.51,14.11-22.84s-13.84,23.18-14.3,22.89,15.2-23.12,14.38-23.64c-.48-.3-14.18,23.64-14.6,23.37s15.25-23.47,14.34-24c-.29-.19-14.37,24.18-14.9,23.85-.83-.51,15.5-26.44,15.08-26.71s-9.11,15-9.28,14.85,9.45-15.82,8.83-16.21-8.1,14.1-8.61,13.78c-.26-.16,7.75-14.76,7.26-15.07s-8,13.77-8.44,13.51,7.51-14.37,7-14.68S308.21,89.34,308,89.21s10-15.29,9.47-15.61-9.72,16.79-10.27,16.45c-.35-.22,9.68-17.32,9.42-17.49s-4.44,7.78-4.74,7.59c-.1-.06,4.45-7.55,4.18-7.72s-4.51,7.81-4.77,7.65c-.1-.06,4.28-7.34,4.06-7.48s-4.27,7.06-4.37,7,4.75-7.32,4.55-7.44-3.79,6.63-4,6.47,4-6.65,3.76-6.8c-.08,0-3.74,6.42-3.93,6.3s3.33-6.42,3.14-6.54-3.7,6.15-3.8,6.09,3.42-6,3.22-6.07S310,78,310,77.9s3.41-6.68,3.25-6.78-3.91,6.76-4.14,6.62,3.81-6.68,3.69-6.75-3.41,5.63-3.49,5.57,3.4-5.62,3.29-5.69-3.49,6-3.67,5.87,2-5.48,1.83-5.57-3.44,5.7-3.53,5.65,2.83-5.36,2.73-5.42-3.42,5.67-3.52,5.62,2.63-5.6,2.53-5.66-2.86,4.88-3,4.79,2.32-5,2.22-5.08-3.32,5.75-3.51,5.62,1.48-6.09,1.42-6.13-4.73,7.85-4.86,7.77,3.22-7.2,3.05-7.31c-.42-.26-6.1,10.49-6.42,10.29s6.92-10.61,6.5-10.87-7,11.42-7.09,11.34,6.1-11.08,5.86-11.23-6.67,11-6.83,10.93,6.19-10.37,6-10.49-6.25,10.7-6.57,10.5,5.81-10.14,5.55-10.31-6.06,10.55-6.44,10.31c-.17-.1,4.35-9.53,4.19-9.63s-5.61,9.8-6,9.57c-.09-.06,3.05-7.94,2.88-8.05-.34-.22-4.81,8.09-5,8s4.26-7.64,4.1-7.74-4.37,7.5-4.6,7.36,4-6.26,3.75-6.41-2.89,4.84-3,4.77,2-3.72,1.82-3.81-2,3.26-2,3.24"/><polyline class="cls-4" points="505.87 154.29 507.8 141.33 509.73 151.78 512.66 146.36 514.59 148.49 516.51 150.5 518.44 148.92 520.37 150.31 522.3 135.27 524.23 141.6 526.15 146.17 528.08 146.93 530.01 135.37 531.94 138.63 533.87 135.64 535.79 133.01 537.72 143.38 539.65 143.64 541.58 144.46 543.51 143.72 545.43 142.96 547.36 129.27 549.29 124.83 551.22 140.99 553.15 139.73 555.07 141.56 557 140.31 558.93 141.09 560.86 139.96 562.79 109.5 564.71 124.03 566.64 130.62 568.57 134.85 570.5 133.83 572.43 133.16 574.36 133.76 576.28 128.77 578.21 125.91 580.14 120.57 582.07 122.75 584 119.81 585.92 117.73 587.85 71.3 589.78 46.55 591.71 60.21 595.64 109.22 600.56 96.59 602.49 101.31 604.42 105.22 606.35 105.97 608.28 109.81 610.2 102.34 612.13 111.02 614.06 113.58 615.99 114.61 617.92 115.93 619.84 115.45 621.77 115.76 623.7 118.23 625.63 115.07 627.56 116.51 629.49 118.36 631.41 120.37"/><path class="cls-5" d="M102.66,71.31v6.08H96v16.4a4.47,4.47,0,0,0,.77,3.08,4.47,4.47,0,0,0,3.08.77,13.93,13.93,0,0,0,1.47-.07,11.25,11.25,0,0,0,1.35-.19v7.05a23,23,0,0,1-2.57.26c-.94,0-1.85.06-2.75.06a26.68,26.68,0,0,1-4-.29A9.28,9.28,0,0,1,90,103.34,5.89,5.89,0,0,1,87.73,101a8.43,8.43,0,0,1-.83-4V77.39H81.39V71.31H86.9V61.38H96v9.93Z"/><path class="cls-5" d="M107.2,80.69a15.2,15.2,0,0,1,8.84-9,20.59,20.59,0,0,1,14.13,0,15.14,15.14,0,0,1,8.87,9,20.39,20.39,0,0,1,1.22,7.21A20.14,20.14,0,0,1,139,95.08a15.44,15.44,0,0,1-3.46,5.47,15,15,0,0,1-5.41,3.49A21.07,21.07,0,0,1,116,104a15.12,15.12,0,0,1-5.38-3.49,15.58,15.58,0,0,1-3.46-5.47A20.14,20.14,0,0,1,106,87.9,20.39,20.39,0,0,1,107.2,80.69Zm8.27,11.09a10.11,10.11,0,0,0,1.31,3.39,6.85,6.85,0,0,0,2.47,2.4,7.47,7.47,0,0,0,3.84.9,7.71,7.71,0,0,0,3.88-.9,6.75,6.75,0,0,0,2.49-2.4,10.34,10.34,0,0,0,1.32-3.39,19.86,19.86,0,0,0,.38-3.88,20.4,20.4,0,0,0-.38-3.91,10,10,0,0,0-1.32-3.39A7.25,7.25,0,0,0,127,78.2a7.51,7.51,0,0,0-3.88-.93,7.28,7.28,0,0,0-3.84.93,7.37,7.37,0,0,0-2.47,2.4A9.79,9.79,0,0,0,115.47,84a19.64,19.64,0,0,0-.39,3.91A19.13,19.13,0,0,0,115.47,91.78Z"/><path class="cls-5" d="M154.8,71.31v6.15h.13a11,11,0,0,1,1.73-2.85,11.1,11.1,0,0,1,2.5-2.24,12.47,12.47,0,0,1,3-1.45,10.93,10.93,0,0,1,3.33-.51,7.14,7.14,0,0,1,2,.32v8.46c-.42-.09-.93-.16-1.53-.23s-1.18-.09-1.73-.09a9.75,9.75,0,0,0-4.23.83A7.37,7.37,0,0,0,157.2,82a9.19,9.19,0,0,0-1.5,3.36,18.23,18.23,0,0,0-.45,4.16v14.93h-9.1V71.31Z"/><path class="cls-6" d="M242.36,104.43,236.47,82.2h-.13l-5.64,22.23h-9.41L210.78,71.31h9.61l6.09,22.48h.12l5.51-22.48H241l5.64,22.42h.13l6.08-22.42h9.36l-10.44,33.12Z"/><path class="cls-6" d="M274.65,71.31v6.15h.13a10.71,10.71,0,0,1,1.73-2.85A11,11,0,0,1,279,72.37a12.54,12.54,0,0,1,3-1.45,10.84,10.84,0,0,1,3.33-.51,7.2,7.2,0,0,1,2,.32v8.46c-.42-.09-.94-.16-1.53-.23s-1.18-.09-1.73-.09a9.75,9.75,0,0,0-4.23.83A7.3,7.3,0,0,0,277.05,82a9,9,0,0,0-1.5,3.36,18.23,18.23,0,0,0-.45,4.16v14.93H266V71.31Z"/><path class="cls-6" d="M336.34,71.31v4.61h.19A10.38,10.38,0,0,1,341,71.73a12.87,12.87,0,0,1,5.63-1.32,15.28,15.28,0,0,1,6,1,8.93,8.93,0,0,1,3.69,2.75,10.86,10.86,0,0,1,1.89,4.29,27,27,0,0,1,.54,5.61v20.37h-9.1V85.72c0-2.73-.42-4.77-1.28-6.11s-2.37-2-4.55-2c-2.47,0-4.27.73-5.38,2.21s-1.66,3.89-1.66,7.27v17.36h-9.1V71.31Z"/><path class="cls-6" d="M397,106.86a11.19,11.19,0,0,1-2.34,4.78,13.85,13.85,0,0,1-5.18,3.74,22.32,22.32,0,0,1-9.1,1.54,21,21,0,0,1-5-.61,15.55,15.55,0,0,1-4.61-1.89,11.23,11.23,0,0,1-3.46-3.3,9.52,9.52,0,0,1-1.57-4.83h9a5.16,5.16,0,0,0,2.49,3.55,9,9,0,0,0,4.3,1q3.84,0,5.6-2.31a9.09,9.09,0,0,0,1.7-5.83V98.34h-.13a9,9,0,0,1-4.2,3.88,13.59,13.59,0,0,1-5.73,1.25,14.43,14.43,0,0,1-6.41-1.32A12.23,12.23,0,0,1,368,98.57a15.16,15.16,0,0,1-2.53-5.32,25.36,25.36,0,0,1-.8-6.44,20.66,20.66,0,0,1,.93-6.18,16.16,16.16,0,0,1,2.72-5.25,13,13,0,0,1,4.46-3.62,13.31,13.31,0,0,1,6.11-1.35,12.86,12.86,0,0,1,5.74,1.22,9.91,9.91,0,0,1,4.13,4.1h.13V71.31h8.65v31A22.41,22.41,0,0,1,397,106.86Zm-12.46-11a7,7,0,0,0,2.44-2,9,9,0,0,0,1.44-2.91,12.1,12.1,0,0,0,.48-3.43,18.46,18.46,0,0,0-.39-3.87,9.52,9.52,0,0,0-1.28-3.24,6.7,6.7,0,0,0-2.37-2.24,7.52,7.52,0,0,0-3.71-.83,6.6,6.6,0,0,0-3.3.77,6.86,6.86,0,0,0-2.31,2.08,8.58,8.58,0,0,0-1.34,3,14.75,14.75,0,0,0-.42,3.55,18.44,18.44,0,0,0,.35,3.56,9.69,9.69,0,0,0,1.22,3.17,7.15,7.15,0,0,0,2.27,2.31,6.53,6.53,0,0,0,3.53.89A7.12,7.12,0,0,0,384.51,95.84Z"/><path class="cls-6" d="M414.17,58.69v45.74h-9.09V58.69Z"/><path class="cls-6" d="M466.77,71.31v6.15h.12a11.4,11.4,0,0,1,4.23-5.09,12.47,12.47,0,0,1,3-1.45,10.93,10.93,0,0,1,3.33-.51,7.26,7.26,0,0,1,2,.32v8.46c-.43-.09-.94-.16-1.54-.23a17.3,17.3,0,0,0-1.73-.09,9.82,9.82,0,0,0-4.23.83A7.26,7.26,0,0,0,469.17,82a9,9,0,0,0-1.51,3.36,18.23,18.23,0,0,0-.45,4.16v14.93h-9.09V71.31Z"/><path class="cls-5" d="M57.72,96.2a5.33,5.33,0,0,0,1.57,1.73,6.55,6.55,0,0,0,2.21,1,10.56,10.56,0,0,0,2.59.32,9.67,9.67,0,0,0,2-.22A7,7,0,0,0,68,98.31,4.32,4.32,0,0,0,69.47,97a3.33,3.33,0,0,0,.58-2c0-1.36-.91-2.39-2.72-3.07a53.38,53.38,0,0,0-7.59-2c-1.33-.3-2.62-.65-3.88-1.06a13.39,13.39,0,0,1-3.36-1.6,7.64,7.64,0,0,1-2.37-2.5,7,7,0,0,1-.9-3.68,10,10,0,0,1,1.25-5.26,9.2,9.2,0,0,1,3.3-3.23,14.38,14.38,0,0,1,4.61-1.67,28.48,28.48,0,0,1,5.25-.48,26.26,26.26,0,0,1,5.22.51,14,14,0,0,1,4.52,1.73,10.51,10.51,0,0,1,3.3,3.24A10.93,10.93,0,0,1,78.25,81H69.6a4,4,0,0,0-2-3.55,9.1,9.1,0,0,0-4.23-.93c-.52,0-1.07,0-1.67.09a5.82,5.82,0,0,0-1.63.42,3.28,3.28,0,0,0-1.25.93,2.75,2.75,0,0,0,.38,3.62,7,7,0,0,0,2.34,1.25,28,28,0,0,0,3.3.86q1.86.39,3.78.84c1.32.3,2.62.66,3.88,1.08a13.09,13.09,0,0,1,3.36,1.7,8.29,8.29,0,0,1,2.37,2.63,7.69,7.69,0,0,1,.9,3.87,10.11,10.11,0,0,1-4.74,9,14.19,14.19,0,0,1-4.84,1.89,28.43,28.43,0,0,1-5.54.54,27.81,27.81,0,0,1-5.64-.57,14.9,14.9,0,0,1-4.9-1.93A10.86,10.86,0,0,1,50,99.21a11.18,11.18,0,0,1-1.51-5.54h8.65A5,5,0,0,0,57.72,96.2Z"/><path class="cls-5" d="M186.71,114.29a13.12,13.12,0,0,1-7.3,1.73q-1.41,0-2.79-.09c-.92-.07-1.84-.14-2.78-.23v-7.49l2.62.25a18.63,18.63,0,0,0,2.69.07,3.53,3.53,0,0,0,2.66-1.41,4.52,4.52,0,0,0,.87-2.69,5.38,5.38,0,0,0-.39-2.05L170.7,71.31h9.67L187.87,94H188l7.24-22.68h9.42l-13.84,37.22A11.17,11.17,0,0,1,186.71,114.29Z"/><path class="cls-6" d="M431.08,96.49a9.34,9.34,0,0,0,10.64.6,5.71,5.71,0,0,0,2.43-2.91h8q-1.92,6-5.89,8.52a17.36,17.36,0,0,1-9.61,2.56,18.76,18.76,0,0,1-7.05-1.25,14.72,14.72,0,0,1-5.32-3.55A16.1,16.1,0,0,1,420.93,95a20.21,20.21,0,0,1-1.18-7A19.4,19.4,0,0,1,421,81a16,16,0,0,1,8.81-9.22,17.11,17.11,0,0,1,6.89-1.35A15.7,15.7,0,0,1,444,72.05a14.66,14.66,0,0,1,5.16,4.38,18,18,0,0,1,2.92,6.28,23.67,23.67,0,0,1,.64,7.37h-23.9C429,93,429.72,95.16,431.08,96.49Zm10.29-17.43a6.42,6.42,0,0,0-5-1.79,7.94,7.94,0,0,0-3.62.73,6.88,6.88,0,0,0-2.3,1.83,6.53,6.53,0,0,0-1.22,2.31,9.91,9.91,0,0,0-.42,2.17h14.8A10.65,10.65,0,0,0,441.37,79.06Z"/><path id="path3611-2" data-name="path3611" class="cls-4" d="M526.05,112.92c35.1,0,54.3-29.08,54.3-54.3,0-.83,0-1.65-.05-2.47a38.68,38.68,0,0,0,9.51-9.88,37.86,37.86,0,0,1-10.95,3,19.16,19.16,0,0,0,8.39-10.55,38.24,38.24,0,0,1-12.12,4.63,19.09,19.09,0,0,0-33,13,18.84,18.84,0,0,0,.5,4.35,54.18,54.18,0,0,1-39.34-19.93,19.1,19.1,0,0,0,5.91,25.47,18.85,18.85,0,0,1-8.64-2.38v.24a19.09,19.09,0,0,0,15.31,18.71,19.52,19.52,0,0,1-5,.67,18.42,18.42,0,0,1-3.58-.35,19.1,19.1,0,0,0,17.82,13.26,38.46,38.46,0,0,1-28.25,7.9,54,54,0,0,0,29.25,8.58"/><path class="cls-6" d="M290.54,81.5a10.48,10.48,0,0,1,1.6-5.32,11,11,0,0,1,3.58-3.4A15.74,15.74,0,0,1,300.63,71a27.29,27.29,0,0,1,5.47-.55,37.87,37.87,0,0,1,5.06.35,15.74,15.74,0,0,1,4.68,1.38A9.37,9.37,0,0,1,319.3,75a8,8,0,0,1,1.34,4.84V97.06a34.58,34.58,0,0,0,.26,4.29,7.69,7.69,0,0,0,.9,3.08h-9.23a12.07,12.07,0,0,1-.41-1.57,12.54,12.54,0,0,1-.23-1.63,11.92,11.92,0,0,1-5.12,3.14,20.85,20.85,0,0,1-6,.89,16.48,16.48,0,0,1-4.43-.57,10.23,10.23,0,0,1-3.58-1.8,8.19,8.19,0,0,1-2.4-3.07,10.34,10.34,0,0,1-.87-4.42,9.71,9.71,0,0,1,1-4.65,8.27,8.27,0,0,1,2.57-2.91,11.51,11.51,0,0,1,3.58-1.64,38.25,38.25,0,0,1,4.07-.86c1.37-.21,2.71-.39,4-.51a23.91,23.91,0,0,0,3.52-.58,6.22,6.22,0,0,0,2.44-1.12,2.49,2.49,0,0,0,.83-2.15,4.85,4.85,0,0,0-.48-2.34,3.59,3.59,0,0,0-1.28-1.34,5.19,5.19,0,0,0-1.86-.64,14.93,14.93,0,0,0-2.28-.16,6.87,6.87,0,0,0-4.22,1.15,5.14,5.14,0,0,0-1.8,3.85Zm21,6.72a4.17,4.17,0,0,1-1.44.8,15.76,15.76,0,0,1-1.86.48c-.66.13-1.36.24-2.08.32s-1.46.19-2.18.32a15.34,15.34,0,0,0-2,.52,6,6,0,0,0-1.73.86,4,4,0,0,0-1.18,1.38,4.4,4.4,0,0,0-.45,2.11,4.26,4.26,0,0,0,.45,2,3.36,3.36,0,0,0,1.21,1.32,5.22,5.22,0,0,0,1.8.67,11.19,11.19,0,0,0,2.11.19,8,8,0,0,0,4.16-.9,5.89,5.89,0,0,0,2.18-2.14,7,7,0,0,0,.87-2.53,19.13,19.13,0,0,0,.16-2Z"/><text class="cls-7" transform="translate(48.46 150.35)">f<tspan class="cls-8" x="5.1" y="0">r</tspan><tspan x="10.52" y="0">om the University of </tspan><tspan class="cls-9" x="169.38" y="0">V</tspan><tspan x="178.96" y="0">ermont Computational Story Lab</tspan></text></svg>