<svg id="Layer_1" data-name="Layer 1" xmlns="http://www.w3.org/2000/svg" viewBox="0 0 384.91 60.48"><defs><style>.cls-1,.cls-2,.cls-3,.cls-4{fill:none;}.cls-1{stroke:#f3b544;}.cls-1,.cls-2{stroke-linecap:round;stroke-linejoin:round;stroke-width:0.72px;}.cls-2{stroke:#8bc862;}.cls-3{stroke:#f89921;}.cls-3,.cls-4{stroke-miterlimit:10;opacity:0.82;}.cls-4{stroke:#649946;}</style></defs><title>storywrangler_icon</title><path class="cls-1" d="M41,18c-.12-.07-2.5,4.25-2.61,4.19s1.29-5.23,1.23-5.27-2.81,4.58-2.85,4.56,1.3-4.07,1.2-4.13-.71,1.24-.75,1.21.69-1.56.66-1.59-1.36,2.25-1.4,2.23.8-2,.74-2-.37.62-.38.61"/><path class="cls-1" d="M55.07,22.18s-.35.59-.36.58.4-3,.36-3-1.88,3.14-1.94,3.1,2.37-5.34,2.21-5.44S52,22.93,51.92,22.88,53.4,17.16,53.2,17s-3.56,6.14-3.76,6,3.46-5.67,3.26-5.79-3,4.87-3,4.84,3.43-5.19,3.24-5.3-10.5,17.85-11,17.56,10.5-16.82,10.31-16.94C51.73,17.1,42,34.34,41.76,34.21S51,18.33,50.4,17.94c-.32-.2-8.09,13.87-8.5,13.61S49.3,17.14,49.08,17s-6.86,11.75-7.21,11.53,7.66-13.93,7.48-14c-.42-.26-7.86,13.1-8.1,13-.5-.32,8.69-13,8.23-13.32s-7.27,12.6-7.7,12.33c-.24-.15,8.09-14,7.63-14.32-.23-.15-7.35,12.52-7.7,12.31-.14-.09,8.29-12.74,7.9-13-.17-.1-8,13.59-8.36,13.39S49.42,9.42,49.11,9.22,41.3,22.07,41.14,22c-.46-.3,7.44-12.91,7.2-13.06-.39-.25-7.79,13.27-8.15,13S46.61,9.33,46.39,9.2s-4.91,8.33-5.13,8.19S45.75,9.1,45.55,9s-4,6.66-4.1,6.58,2.3-6.23,2.12-6.34S42,12,41.86,12s0-2.84,0-2.89-.28.47-.29.46.13-.45.12-.45,0,0,0,0"/><path class="cls-1" d="M55,45.38s-.22.37-.23.37,0-1.51,0-1.52-1.22,2.12-1.29,2.07,1.49-3.71,1.36-3.8S52.81,46,52.67,46s2.24-6.32,2.13-6.39-4.13,6.9-4.26,6.81S53.63,40.12,53.4,40s-3.8,6.29-3.9,6.23,3.24-6.76,3-6.9c-.08-.05-4.26,7.09-4.39,7s2-6.87,1.93-6.93-3.73,6.29-3.88,6.2,3.28-6.46,3.15-6.54-3.46,5.9-3.62,5.8,3.44-7.44,3.32-7.51S44.65,45,44.34,44.83s5.12-7.9,4.94-8S44.41,45,44.23,44.9s5.12-8.06,4.9-8.19-4.59,7.86-4.82,7.71,5.09-9.87,4.84-10-5.8,9.56-5.93,9.48S50.12,31,49.69,30.74c-.14-.09-7,12.18-7.45,11.92-.18-.11,7.15-11.18,6.91-11.33S42.06,43.12,41.86,43s7.52-13,7.27-13.2S42.24,41.43,42,41.26s7.48-12.33,7.2-12.51S41.6,41.19,41.45,41.1c-.41-.26,8.33-16,7.79-16.32s-7.61,13.12-8,12.85,8.3-13.94,7.89-14.2S42.22,35.16,41.9,35c-.15-.1,8-11.94,7.53-12.23s-7.77,13-8,12.85"/><path class="cls-1" d="M76.76,39.54c-.24-.15-4.54,7.44-4.62,7.39s2.1-6.2,2-6.24-3.65,6.16-3.79,6.07,3.2-6.36,3-6.49S70.2,45.83,70,45.69s1.15-4.7,1-4.78-3.26,5.35-3.32,5.31,3.07-5.95,3-6-3.29,5.46-3.38,5.41,1.38-5.77,1.32-5.8-2.73,4.73-2.89,4.62,2.68-5.25,2.53-5.34-3,4.94-3,4.88,2.88-6,2.7-6.11-3.94,6.6-4.07,6.52,3.13-7.86,3-7.94-4.07,6.75-4.18,6.68,3.7-6.57,3.59-6.64-3.48,6.13-3.73,6,3.35-9,3.18-9.13S61.2,41.05,61,40.92s4.88-11.07,4.65-11.21-5.91,9.77-6,9.68S66.45,27,66.32,26.9C66,26.71,59.13,39,58.87,38.82"/><path class="cls-1" d="M85.86,38.42C85.75,38.35,84,41.5,84,41.48s3.52-7.52,3.42-7.59c-.38-.23-5.72,10-6.09,9.75-.19-.11,5.71-10.3,5.58-10.38s-7.15,12.27-7.52,12S87,31.06,86.85,30.94c-.51-.31-9,15.28-9.41,15.05S87.22,28.43,87,28.29C86.45,28,76.5,45.94,76.12,45.7s10.63-18.13,10.4-18.27C86.07,27.15,75.6,46,75.1,45.7s12.14-18.6,11.48-19S75,46.44,74.45,46.1,87,25.7,86.76,25.54,73.94,46.94,73.55,46.69,86.45,24.7,86,24.45c-.2-.13-7.13,12.11-7.44,11.91s6.57-12.8,6.26-13-5.58,9.19-5.7,9.12,6.31-9.95,6.16-10-5.57,9.29-5.74,9.18,4.47-10.77,4.32-10.86-4.71,8-4.92,7.88,4.27-8,4.15-8-4,7-4.26,6.82,3.77-7.16,3.49-7.33S79,25.9,78.81,25.77s2.67-6.16,2.55-6.24-3,5.1-3.15,5,2.52-5.21,2.47-5.24c-.22-.14-2.93,5-3.05,4.88S79.78,19.05,79.7,19s-3.27,5.41-3.35,5.36,2.53-5.92,2.33-6-2.87,4.92-3,4.83,1.7-5.28,1.65-5.31-2.8,4.67-2.89,4.62,1.36-5.51,1.3-5.55-3.32,5.61-3.45,5.52,2.68-4.92,2.58-5-3,5.06-3.13,5,3.39-5.89,3.31-5.94-3.64,6.24-3.83,6.12,3-5.51,2.82-5.6-3.33,5.71-3.5,5.6,2.06-5.44,1.9-5.54-4,6.7-4.13,6.62,4.5-7,4.4-7.11c-.26-.17-4.67,7.8-4.82,7.71s4.86-7.51,4.63-7.65C72,16.34,60,38.07,59.38,37.66S70.73,16.94,70.5,16.8,59,35.75,58.76,35.6,69.61,17.76,69.07,17.43c-.2-.13-10.67,17.66-10.93,17.49S68.53,17.58,68,17.27c-.24-.15-9.24,15.66-9.63,15.42-.24-.15,8.4-14.91,7.89-15.23s-8.38,13.9-8.6,13.76S66.15,18.08,66,18c-.38-.23-7.77,12.79-7.93,12.69-.38-.24,6.41-11.36,6.06-11.58C64,19,58.29,28.94,58,28.77s5.15-8.54,4.86-8.71-4.24,7-4.35,7,3.31-5.87,3.12-6-2.31,3.81-2.36,3.78,2.1-3.13,2-3.21-1.56,2.65-1.63,2.6"/><path class="cls-1" d="M99.42,23.06c-.13-.08-6.24,11-6.71,10.73s7.57-12.2,7.4-12.31S92.32,34.58,92,34.4s8.22-15.76,8-15.91S92.58,31.23,92.2,31s7.91-12.62,7.74-12.72S92.51,31,92.15,30.74c-.52-.33,8.24-12.89,7.95-13.07s-7.45,12.27-7.61,12.17c-.41-.26,7.66-11.59,7.2-11.87-.12-.08-7.27,12.41-7.62,12.19S100,18.23,99.62,18s-6.57,11.39-7,11.14c-.19-.12,5.65-11.4,5.46-11.52s-5.86,9.67-6,9.59,4.65-9.37,4.51-9.46-4,7-4.27,6.83,2.58-6.82,2.49-6.88-2,3.52-2.14,3.43.29-3.43.2-3.48-.52.91-.55.88-.09-.67-.1-.68-.17.3-.19.3"/><path class="cls-1" d="M110.69,23.65s-.29.47-.3.47.36-4.09.29-4.13-1.92,3.38-2.06,3.29,1.86-5.58,1.75-5.65-3.75,6.35-3.91,6.25,2.59-7.36,2.42-7.46-5.35,8.8-5.46,8.73c-.31-.2,4.76-8.73,4.55-8.86C107.23,15.82,92.5,42.07,92,41.78c-.78-.49,14.92-24.07,14-24.67S92.7,39.56,92.18,39.23c-.36-.22,11.07-19.71,10.4-20.14-.26-.16-9.89,16.38-10.14,16.23s9.56-15,9.12-15.24c-.26-.17-8.87,15.52-9.47,15.15"/><path class="cls-1" d="M100.11,45.38s-.21.35-.22.34,0-2.77,0-2.81-1.44,2.46-1.5,2.42,1.89-5.3,1.75-5.39-3.31,5.48-3.39,5.43c-.25-.16,3.7-8.09,3.42-8.26S94.9,46,94.69,45.88c-.39-.25,5.89-11.59,5.58-11.79S93.23,46,93,45.8s7.28-11.61,7.15-11.69C99.66,33.83,93,46,92.75,45.89c-.38-.24,7.5-14.53,7.35-14.62-.47-.3-7.54,12.82-7.88,12.61s8.25-13.79,8.11-13.88c-.42-.26-7.81,13.53-8.27,13.24s8.44-13.45,8.19-13.61S93,42.23,92.54,42c-.18-.11,8.39-12.83,8-13.1s-7.88,13-8,12.87"/><path class="cls-2" d="M161,36.76c-.26-.16-4.4,7.63-4.67,7.47-.11-.07,4.35-8.27,4.07-8.44s-4.23,7.08-4.37,7,4.42-8.62,4.28-8.7c-.31-.19-4.38,7.28-4.5,7.2s3.88-9.39,3.59-9.57c-.09-.06-4.56,7.7-4.74,7.59s5-10.87,4.68-11c-.11-.07-5.53,9.27-5.72,9.15s5.31-10.67,5.1-10.8-4.86,8.18-5,8.07c-.34-.21,4.39-10,4-10.26s-5.24,8.63-5.35,8.56,5.5-10.42,5.18-10.62-5.07,8.8-5.38,8.61c-.15-.09,5.12-11.15,4.88-11.3s-5.85,9.82-6.06,9.69,5.6-11.68,5.37-11.83-5.56,9.28-5.74,9.18,3.7-8.89,3.4-9.07-3.63,6.35-3.88,6.2,1.69-6.07,1.54-6.16-2.49,4.28-2.62,4.2.37-4.4.27-4.46-1.3,2.12-1.32,2.11-.29-1.71-.33-1.74-.06.11-.07.11"/><path class="cls-2" d="M165.22,44.72s-.94,1.56-1,1.54,1.38-3,1.27-3.09-1.46,2.49-1.53,2.44,2.34-5.06,2.23-5.13-3.33,5.75-3.52,5.63,4.42-9.78,4.28-9.86c-.3-.19-5.53,9.61-5.87,9.4S168.25,34.26,167.9,34c-.12-.08-7,11.9-7.31,11.7s7.81-12.45,7.54-12.62-8,13.29-8.23,13.17,9.52-17.87,9.27-18S159,45.48,158.59,45.2,169.94,27,169.71,26.88C169,26.45,158.57,46,158,45.67"/><path class="cls-2" d="M178.3,36.67c-.08,0-4,6.62-4.1,6.56s4.09-6.55,4-6.6-4,6.61-4.09,6.55c-.26-.17,3.89-7,3.69-7.18s-3.76,6.43-4,6.31,4.45-8.83,4.22-9-4.36,7.24-4.47,7.17,4.16-8.1,3.91-8.27-3.88,6.71-4.11,6.57,4-8.45,3.78-8.56-4.72,7.71-4.79,7.67,4.17-8.86,4-9-3.87,6.76-4.12,6.6,4.56-7.37,4.38-7.48-4.38,7.45-4.58,7.33,4.45-8.4,4.24-8.53-4.65,7.69-4.76,7.62,4.41-9.63,4.06-9.85c-.14-.09-4.6,7.79-4.79,7.66s4-10,3.85-10.18-4,6.7-4.13,6.61,3.66-9.65,3.55-9.72c-.73-.45-16.16,27.66-17,27.16-.62-.39,17.91-27.23,16.9-27.86s-15.76,27.53-16.8,26.88S173.77,18.09,173,17.63c-.45-.28-11.39,18.78-11.63,18.63C161,36,171.21,17.34,171,17.19S163.6,30,163.13,29.73c-.3-.19,7.89-12.58,7.67-12.71-.46-.29-7.25,12.22-7.52,12.05s5.76-11.28,5.4-11.51c-.11-.06-4.18,7.22-4.42,7.08s2.92-6.89,2.73-7-1.48,2.5-1.54,2.47S167,17.6,167,17.58s-1.93,3.22-2,3.19,1.27-3,1.22-3-.1.24-.13.22.43-1,.41-1-.86,1.39-.87,1.39"/><path class="cls-2" d="M183.31,44.57s-1.08,1.75-1.09,1.74,3.4-8.55,3.27-8.63-5,8.37-5.15,8.24,5.73-9.41,5.39-9.62-5.56,9.31-5.75,9.19,7.47-12.29,7-12.59-7.49,12.78-7.85,12.56,10.33-18.35,9.69-18.75S177.48,46.48,176.74,46c-.38-.24,13.08-20.29,12.59-20.59-.67-.42-12.16,21-12.85,20.56s14.31-23.5,13.73-23.86c-.86-.54-14.43,24.07-14.87,23.79s16.92-28.47,15.93-29.08S175,44.38,174.31,44,191.34,17.5,190.6,17C190.22,16.8,179.47,36,179,35.65s11-18.23,10.66-18.43-9.79,16.83-10.31,16.5,10.74-16.78,10.48-16.94-10,16.51-10.23,16.37c-.44-.28,10.15-15.18,9.6-15.52-.23-.14-9.78,16.2-10,16-.53-.33,8.59-16.57,8.4-16.69s-6.4,10.68-6.6,10.56,4.27-9.8,4-10c-.07,0-2.08,3.49-2.15,3.44s1.17-3.56,1.13-3.59-.36.63-.38.62"/><path class="cls-2" d="M202.41,22.64c-.42-.26-6.69,11.3-7,11.13s7.49-11.13,7.05-11.41-7,12-7.34,11.75,7.41-12.23,7-12.49c-.2-.12-6.69,11.1-6.86,11-.33-.21,7.2-12.74,6.89-12.93s-6.78,11.12-6.9,11.05,6-12.8,5.64-13-5.68,9.8-6,9.6,5.29-9.33,5.19-9.39-4.7,7.84-4.84,7.75,4.15-8,4-8.08-4.1,6.86-4.24,6.78,2.4-7.16,2.31-7.22-2,3.47-2.12,3.39.12-3.11.07-3.15a4,4,0,0,1-.22.34"/><path class="cls-2" d="M213.67,23.24s-.53.87-.54.87,0-3.22,0-3.24-1.83,3-1.88,3,2.13-4.31,2.08-4.33-2.87,4.94-3,4.84S213.18,19,213,18.92s-2.7,4.6-2.83,4.52,3-5.62,2.85-5.73-3.49,6.15-3.75,6,2.25-6.5,2.18-6.54-4.27,7-4.37,7S211.15,17,211,16.87s-5.27,9.05-5.55,8.88,4.3-9,4.08-9.11C209,16.36,196,40,195.19,39.5c-.46-.29,12.72-21.91,12.26-22.19s-12.11,20.17-12.46,20c-.5-.31,12.41-18.89,11.74-19.3-.32-.2-11.12,18.57-11.47,18.35s9.52-15.85,9-16.18-9.06,15.54-9.53,15.25"/><path class="cls-2" d="M202.83,45.38a3.87,3.87,0,0,1-.21.34s.47-3.11.43-3.14-2,3.37-2.08,3.33,2.14-4,2.07-4S200.57,46,200.47,46s2.8-4.57,2.71-4.62-2.27,3.93-2.4,3.84,2.6-6.15,2.4-6.27-4.48,7.37-4.57,7.31,4-7.19,3.92-7.25c-.29-.18-4.33,7.5-4.59,7.34s5-7.89,4.77-8-4.29,7.1-4.4,7,5.08-9,4.76-9.25-5.71,9.75-6,9.58,6.31-11.24,6.06-11.4-6.51,11.12-6.83,10.92,6.77-13,6.59-13.14-7.86,13.23-8.14,13,9.52-16.9,9.08-17.17-8.06,13.62-8.38,13.42"/><path class="cls-2" d="M255.87,45.17s-.4.65-.41.65.52-4.73.47-4.76-2.8,4.71-2.91,4.64,3.09-6.11,3-6.16-3.78,6.21-3.85,6.16,3.8-6.81,3.71-6.87-4.35,7.27-4.49,7.18c-.3-.18,4.7-8,4.62-8s-5,8.53-5.24,8.38,5.23-8.79,4.93-9-4.89,8.43-5.16,8.26,5.22-8.7,5-8.86-5.11,8.63-5.31,8.51,6-9.5,5.74-9.69S250,46,249.57,45.75s6.24-13.45,6.08-13.55c-.45-.28-7.88,13-8.05,12.88-.57-.36,8.64-15.87,8.28-16.1s-7.26,12.46-7.64,12.23,8.23-12.77,7.72-13.09c-.34-.22-7.85,13.66-8.34,13.35s9.11-14.69,8.59-15c-.22-.14-7.9,13.23-8.17,13.06"/><path class="cls-2" d="M274.54,45.38s-.2.35-.21.34.17-3.33.12-3.36-2.05,3.58-2.18,3.49,2.15-4.32,2.06-4.38-2.29,4-2.44,3.92,2.84-4.44,2.73-4.51-3,5.13-3.15,5,3.34-7,3.25-7.11-4.14,7.23-4.41,7.06,4.56-9.63,4.23-9.83-5.63,9.6-5.9,9.44,6-9.18,5.69-9.38-5.63,9.74-6,9.54,6.59-13.8,6.43-13.9c-.49-.31-7.62,13.13-8,12.86s7.87-15.11,7.67-15.23c-.48-.3-7.23,12.24-7.53,12s8.06-12.86,7.65-13.12-7.56,13-8,12.77c-.17-.1,8.11-13,7.69-13.24-.17-.11-6.69,11.58-7.08,11.33-.14-.08,7.18-13,6.83-13.21s-6.81,11.83-7.23,11.57c-.19-.12,8.1-14,7.65-14.3s-7.08,12.26-7.5,12,7.42-11.48,7.09-11.68c-.14-.09-7,11.6-7.19,11.5s7.52-12.75,7.16-13-7,11.77-7.25,11.6,6.91-12.67,6.46-13-6.12,10.63-6.49,10.39,6.37-10.33,6-10.54-5.26,9.19-5.6,9,5.37-9.54,5.25-9.62-5.2,8.76-5.4,8.64,4-9.29,3.81-9.4-4.33,7.25-4.47,7.16,4.38-8,4.13-8.12-4.12,7.09-4.34,7S269,18,268.8,17.9s-3.56,6-3.68,5.89,3.28-6.92,3.14-7-3.6,6.08-3.74,6,2-5.75,1.84-5.86S262.64,23,262.57,23s3.36-6.55,3.27-6.61-4,6.69-4.14,6.63,2.63-6.66,2.42-6.79-4.25,7.06-4.37,7,3.17-6.09,3.11-6.13-3.87,6.38-3.95,6.33,2.41-6.1,2.28-6.18C260.76,17,247.91,39,247.67,38.87s12.17-20.95,11.7-21.24S248,36.65,247.64,36.4s7.94-14.91,7.71-15-7.11,12.16-7.46,11.94,7.6-14.61,7.44-14.71c-.43-.27-6.57,11.51-7,11.23s7-10.76,6.75-10.94c-.45-.28-6.64,11.36-7,11.16s6.7-12.13,6.33-12.37-6,10-6.17,9.88S253.58,17,253.2,16.79c-.14-.09-4.7,8.12-5,8s3.32-7.43,3.08-7.58-3.52,6-3.68,5.89,3.52-5.73,3.31-5.86-3.16,5.44-3.33,5.34,3.3-5.05,3.12-5.17-2.68,4.59-2.82,4.51,2.59-4.8,2.45-4.89-2,3.4-2.09,3.34,1.47-3.15,1.42-3.18-1.9,3.2-2,3.16,1-3.34,1-3.38-.8,1.31-.81,1.3.31-.82.29-.83-.21.34-.21.34"/><path class="cls-2" d="M298.19,37.18c-.15-.09-4.79,8.12-5,8s2-6.55,1.87-6.63-3.74,6.45-3.95,6.32,3.51-5.55,3.39-5.62-3.06,5-3.13,5,1.27-5,1.16-5-3,5-3.08,4.93,1.33-5.79,1.21-5.87-3.15,5.25-3.24,5.2,2.92-6,2.73-6.1-4.16,6.89-4.26,6.83,4-7.19,3.76-7.34-3.94,6.7-4.12,6.59,4.26-6.68,4.07-6.8-3.79,6.31-3.9,6.24,2.75-6.56,2.58-6.66-3.41,5.93-3.62,5.79,3.09-7.37,2.86-7.51-4.28,7.41-4.54,7.25,4.76-10.53,4.43-10.75-5,8.51-5.23,8.36c-.39-.24,6.37-12.93,6.05-13.13s-7.11,12-7.38,11.8"/><path class="cls-2" d="M300.06,21.41c-.07-.05-1.59,2.78-1.7,2.72s1-4.16.91-4.23-2.17,3.63-2.24,3.59.93-5.18.8-5.26-2.78,4.76-2.92,4.68,1.73-4.77,1.57-4.88-2.25,3.89-2.38,3.81,2-4.15,1.94-4.21-3.07,5.14-3.17,5.07,1.75-6.08,1.56-6.2-4.7,7.7-4.78,7.65,4.68-7.5,4.38-7.69c-.55-.34-13.23,21.71-13.47,21.56-.75-.46,12.38-21.37,11.55-21.89-.29-.18-11.49,19-11.75,18.8s10.57-17.42,10.05-17.74S280.17,34.07,280,33.93s9.94-16.43,9.74-16.56c-.59-.37-9.18,16.14-9.83,15.74s7.32-14.74,6.94-15S280.19,29.2,280,29.06s3.42-8.52,3.27-8.61-2.28,4-2.42,3.87"/><path class="cls-2" d="M298.71,49.38c-.19-.12-4.43,7.65-4.68,7.49s2.4-5.41,2.24-5.51-3.18,5.5-3.36,5.39,1.67-6,1.49-6.07-3.39,5.7-3.51,5.62,2-4.59,1.92-4.64-3.07,5-3.12,5,2-5.32,1.9-5.4-2.58,4.41-2.71,4.33,2.51-5.24,2.34-5.35-3.29,5.65-3.47,5.54,3.52-5.47,3.43-5.52-3,5-3.09,4.94,2.2-5.74,2.09-5.81-3.25,5.66-3.46,5.53,2.58-4.6,2.44-4.68-3.11,5.26-3.24,5.18,3.14-7.74,3-7.83-3.77,6.21-3.85,6.16,1.66-6.46,1.55-6.54-3.29,5.4-3.35,5.36.47-4.7.43-4.73-2.22,3.73-2.3,3.68,1.55-4.64,1.41-4.72-1.78,3-1.84,2.93S281,47,281,47s-.7,1.14-.71,1.13"/><path class="cls-2" d="M306.66,49.4c-.11-.07-1.73,2.86-1.77,2.83s2.85-5.23,2.67-5.34-4.45,7.36-4.55,7.29c-.35-.22,4.72-10.69,4.6-10.76-.38-.24-7.08,11.74-7.27,11.63s7.4-11.77,7-12S299.58,56.16,299.29,56s8.64-16.36,8.15-16.66S297.18,56.93,296.65,56.6c-.79-.5,12.13-21.31,11.36-21.79-.38-.24-8.47,14.49-8.89,14.23s9.2-17.42,8.86-17.63c-.13-.08-7.14,12.33-7.54,12.08-.22-.14,7.34-12.42,6.95-12.67-.2-.12-6.48,11.29-6.9,11s7.34-14.68,6.88-15-9.7,16.87-10.3,16.49,11.53-18.29,11-18.64-12,19.89-12.29,19.67,12-18.85,11.75-19C306.93,25,296.59,44.28,296,43.88s12.68-19,12-19.4S296.79,44.07,296,43.59c-.28-.17,12.14-18.64,11.41-19.1S296,44.46,295.25,44c-.44-.27,13-24.18,12.76-24.35s-7.47,12.79-7.85,12.56,7.75-14.43,7.57-14.54-7.54,12.66-7.8,12.49,7.07-12,6.71-12.27-6,10.37-6.35,10.17,5.16-10.16,4.85-10.35c-.13-.09-5,8.23-5.1,8.15s3.1-7.75,2.9-7.87-3.81,6.7-4.09,6.53c-.07,0,3.54-6.89,3.39-7s-1.61,2.85-1.73,2.77,1.65-3.09,1.56-3.14-1.3,2.28-1.39,2.22.3-2.48.25-2.51-.78,1.26-.78,1.26"/><path class="cls-2" d="M322,45.4a4.11,4.11,0,0,1-.24.39s0-2.47-.09-2.51-1.37,2.43-1.48,2.36,2.22-6.48,2.06-6.58-3.79,6.41-3.94,6.31,3.49-8.08,3.39-8.14-5,8.38-5.17,8.27c-.37-.23,5.54-11.4,5.13-11.66-.17-.1-7,11.8-7.27,11.63s8-13.79,7.83-13.93-7.54,12.72-7.84,12.53,8.19-15.76,7.93-15.92-7.64,12.54-7.78,12.45c-.49-.3,7.74-13.77,7.34-14S314.37,39.39,314,39.17s8.18-15.48,7.8-15.72-7.09,12.34-7.53,12.07,8-13,7.57-13.22-7.33,12.61-7.72,12.36,8-14,7.75-14.17-7.18,12.05-7.43,11.89,7.66-12,7.41-12.12-7.19,12.19-7.49,12,8.25-16.13,7.77-16.42-7.68,12.86-7.94,12.7c-.54-.34,8.7-14.83,8.18-15.16-.28-.17-8.12,13.8-8.48,13.58-.61-.38,8.3-15.84,8-16-.45-.28-7.75,13-8,12.85-.5-.31,8.42-13.71,7.94-14s-7.59,12.54-7.77,12.43S322.5,8.61,322,8.29c-.17-.11-7.18,12.56-7.66,12.26-.22-.13,7.86-13.74,7.48-14-.17-.11-7.6,12.78-7.88,12.61s6.64-11.89,6.27-12.12S314.25,17.16,314,17s6.52-10.68,6.29-10.82-5.73,9.76-6,9.59,3.89-9.08,3.74-9.18-3.33,5.49-3.41,5.45,2.2-5.62,2.09-5.69-2.39,4-2.48,4,.39-3.14.32-3.19-.33.55-.34.54.65-1.57.59-1.61-.74,1.21-.75,1.2"/><path class="cls-2" d="M367.41,22.1c-.22-.14-7.24,12.36-7.58,12.14S367.35,19.8,367,19.6s-7.36,12.11-7.51,12c-.52-.33,7.18-14.56,6.82-14.79-.14-.09-6.24,10.58-6.51,10.41s3.89-9.53,3.75-9.62-3.47,6-3.65,5.86,3.6-6.56,3.48-6.64S359.65,23,359.58,23s1.54-5.86,1.46-5.91-1.35,2.22-1.38,2.2,0-1.41,0-1.42,0,.06,0,.05"/><path class="cls-2" d="M377.92,23.92s-.4.66-.41.66.18-2.41.12-2.44-1.34,2.29-1.4,2.25,1.78-6.05,1.6-6.16-3.15,5.27-3.25,5.2,2.36-6.24,2.2-6.34-4.17,6.85-4.25,6.8,3.46-7.49,3.3-7.59-5.49,9.19-5.67,9.08c-.33-.21,4.79-8.83,4.64-8.92s-14.08,24.63-15,24c-.3-.19,13.18-22.4,12.75-22.67-.28-.18-12.45,21.39-13.11,21-.47-.29,13.85-21.35,13.31-21.68-.77-.48-12.25,21.35-13,20.86-.4-.25,12.65-19.54,12-20s-11.33,19-11.73,18.77,9.65-17,9.31-17.24c-.16-.11-8.69,15.07-9.21,14.75"/><path class="cls-2" d="M367.79,44.92s-.45.74-.46.73.32-1.77.27-1.8-.75,1.35-.82,1.31,1-4.52.81-4.62-3.32,5.76-3.52,5.64,3.38-6.84,3.13-7-3.62,6.15-3.79,6,4.46-10.16,4.22-10.3-6.83,11.51-7.09,11.35c-.52-.33,7.53-14.93,7.26-15.1s-7.49,13-7.92,12.68,8.05-13.76,7.71-14S360.13,42.21,360,42.11c-.39-.25,9.07-13.92,8.56-14.24-.31-.2-8.41,14.49-8.87,14.2"/><path class="cls-1" d="M34,25.43s-.07.14-.08.13-.31-1.84-.36-1.87-1,1.77-1.08,1.72,1.09-2.53,1.06-2.55-2.08,3.39-2.11,3.37,1.51-4.46,1.36-4.55-2.25,3.92-2.39,3.83,1.71-4.67,1.57-4.76-2.78,4.75-2.91,4.66,3.26-5.06,3.15-5.13S28.92,26,28.77,25.85s1.84-6.19,1.65-6.31-3.32,5.74-3.51,5.62,3.73-6,3.64-6.09-3.82,6.29-3.9,6.24,2.58-6.84,2.34-7c-.08,0-3.13,5.44-3.32,5.32s3.11-5.9,3-6-3,5.09-3.14,5,1.23-5.45,1.12-5.52-3.31,5.6-3.44,5.51,2.34-5,2.24-5.07-2.9,4.94-3,4.86,1.33-5.61,1.27-5.64-3.36,5.61-3.47,5.55,2-5.7,1.92-5.75-3.75,6.16-3.82,6.11,2.49-6.09,2.37-6.16c-.4-.26-8.06,14.11-8.61,13.77-.21-.13,8.74-13.2,8.3-13.48-.14-.08-8.49,14.67-9,14.37-.26-.17,8.56-14.45,8.19-14.68s-8.16,13.82-8.5,13.61,6.35-12.69,6-12.89S10.24,29.1,9.9,28.89s6.08-11,5.78-11.19-5.82,9.73-6,9.61,5.91-10,5.77-10-5.82,9.82-6,9.68,6-9.74,5.87-9.85-5.44,9.07-5.61,9,3.06-6.72,2.81-6.88-2.78,4.67-2.88,4.61,2.28-4.37,2.17-4.44-1.77,3-1.83,2.93"/><path class="cls-1" d="M26.51,39.29c-.18-.12-4.67,7.81-4.82,7.71s3.44-6.59,3.21-6.73-3.67,6.13-3.79,6.06,3.4-5.74,3.28-5.82-3.67,6.26-3.84,6.15,2.36-5.17,2.28-5.22S20,46.16,19.92,46.11s.79-4.46.65-4.55-3,5.1-3.12,5,2.46-5.74,2.34-5.82-3.07,5.19-3.19,5.12,1.48-5,1.3-5.11S15.07,45.42,15,45.38s2-6.2,1.81-6.29-3.27,5.69-3.48,5.56,2.71-6.56,2.64-6.6-3.27,5.49-3.39,5.42,2.56-6.93,2.39-7-3.37,5.78-3.54,5.67.8-5,.72-5.09-2,3.36-2.06,3.3,1.53-4,1.49-4S9.7,39.42,9.66,39.39s.6-2.86.56-2.88S9,38.69,8.88,38.65s0-2.16,0-2.18l-.49.79"/><path class="cls-1" d="M34.11,40.41c-.09,0-1.48,2.52-1.55,2.48s2.19-4.16,2.15-4.19-3,5.25-3.21,5.15,3.13-5,3-5.08S31.33,44.12,31.2,44s3.54-6,3.37-6.15-3.77,6.5-4,6.37c-.07,0,4.21-6.84,4-7s-4.49,7.88-4.8,7.69,4.94-11.39,4.69-11.55S26.85,46.05,26.61,45.9s6.83-12.89,6.64-13-8.26,14-8.6,13.75,8.53-14.88,8-15.22S23.7,46.87,23.18,46.55c-.19-.12,8.73-15.09,8.55-15.2s-9,15.47-9.48,15.18c-.2-.12,9.69-15.53,9.14-15.87-.08-.05-4.2,7.22-4.42,7.08s4.6-7.25,4.52-7.3-4,6.61-4.09,6.55,3.25-6.52,3-6.66S27.05,36.11,26.88,36s3.69-6,3.57-6.09-3.58,5.91-3.67,5.86,3.15-6,3-6.08S26,36.1,25.89,36s2.49-6.12,2.36-6.2-3.34,5.74-3.52,5.63,3.52-6,3.45-6.07-3.52,6.08-3.72,6,2.79-6.35,2.69-6.41S24,34.25,23.86,34.17s2.87-4.84,2.76-4.91-3.24,5.42-3.34,5.36S25.19,28.17,25,28s-3.69,6.22-3.83,6.13,3.61-6.18,3.42-6.3-3.85,6.38-3.95,6.32,2.51-6.14,2.34-6.25-3.66,6.32-3.87,6.19,2.44-6.63,2.21-6.76S18.13,32.64,18,32.58s1.13-4.87,1-4.95-3,5-3.06,4.9,2.59-5.25,2.45-5.34-2.86,4.91-3,4.81,1.8-5.61,1.71-5.67S13.71,32,13.63,32s3.54-7.54,3.29-7.7-4.59,7.65-4.72,7.57"/><path class="cls-1" d="M128.27,36.4c-.2-.12-4.46,7.81-4.76,7.62s4.35-6.89,4.24-7c-.27-.17-4.1,6.86-4.24,6.78s3.88-7.89,3.76-8-3.85,6.78-4.13,6.61,3.78-9.7,3.68-9.77-4.83,7.93-4.92,7.87c-.27-.17,4.38-9.9,4.28-10s-4.53,7.45-4.62,7.4c-.31-.2,4.25-8.48,3.93-8.68s-4.59,8-4.88,7.79,5.13-9.17,4.81-9.37-5.08,8.61-5.3,8.47,4.95-9.37,4.78-9.48-4.7,7.83-4.84,7.74,4.59-8.6,4.33-8.77-5.06,8.4-5.2,8.31c-.34-.21,4.62-9.76,4.36-9.93s-4.5,7.62-4.68,7.5c-.37-.23,5-9.92,4.69-10.11s-4.84,8.33-5.1,8.17,4.41-9.29,4.23-9.4-5.22,9-5.52,8.83,5.19-10.3,4.92-10.48-4.91,8.52-5.21,8.33c-.14-.08,4.53-9.6,4.33-9.73s-4.55,7.63-4.7,7.53,2.47-6.84,2.26-7-3.3,5.69-3.49,5.58,1.43-5.91,1.27-6-2.24,3.76-2.31,3.72.53-4.21.41-4.29-1,1.62-1,1.6.55-1.24.51-1.26-.84,1.37-.85,1.36.3-1.08.28-1.09-.12.22-.13.22"/><path class="cls-1" d="M122.3,48.74c-.22-.14-4.43,7.31-4.53,7.25s2.42-7,2.29-7-3.72,6.37-3.91,6.25,2.74-5.76,2.62-5.84-2.9,4.91-3,4.84,1.34-5,1.24-5.06-.92,1.55-1,1.52.81-1.54.79-1.55-.9,1.49-.92,1.48.69-1.4.68-1.41-.48.83-.51.81.44-1.29.42-1.3-.06.13-.07.12"/><path class="cls-1" d="M130.45,49.71c-.11-.07-2,3.29-2,3.26s4.41-9.11,4.2-9.24-6.84,11.32-7,11.22c-.48-.3,9-14.79,8.55-15.05-.16-.1-9.43,15.71-9.71,15.53S136.68,35.16,136,34.71,123.75,56,123,55.5c-.61-.38,14.77-24.33,14.39-24.57-.65-.41-14.74,24.83-15.3,24.48-1-.63,17.83-30,17.47-30.25-.66-.41-18.15,30.85-19,30.35s20.12-31.44,19.6-31.77S121,55.87,120.35,55.45c-1.18-.74,21.88-38.12,21.47-38.38s-17,29.73-18.13,29,18.75-27.92,17.77-28.53c-.65-.41-16.82,29.41-17.94,28.71-.45-.28,16.24-28.08,15.8-28.36s-10,17.13-10.5,16.8c-.26-.17,9-16.65,8.66-16.84S131.33,28.14,131.14,28s5.48-10.92,5.11-11.16c-.08,0-3,5.27-3.22,5.15s1.95-4.82,1.79-4.93-.82,1.36-.84,1.34"/><path class="cls-2" d="M355,33.2s-.26.43-.27.43.56-2,.52-2a14.91,14.91,0,0,1-.8,1.26s.71-1.29.68-1.31-1.19,2-1.22,2,1.2-4.47,1.13-4.52-2.86,4.77-2.94,4.71,2.56-5.45,2.47-5.51-3.18,5.38-3.31,5.3,2.44-7.31,2.34-7.38-4,6.85-4.2,6.71,3.64-9,3.34-9.23-6.2,10.16-6.31,10.1,6.54-10.61,6.16-10.85-6.22,10.48-6.46,10.33S352.62,23,352.5,23s-6.12,10.31-6.35,10.16,6.92-11.17,6.55-11.4c-.22-.14-7,11.67-7.21,11.53C345.05,33,353,22,352.59,21.71S345.23,33.9,345,33.79s6.4-13.69,6.17-13.83c-.06,0-4.44,7.52-4.63,7.4s4.23-6.9,4.06-7-3.52,5.83-3.61,5.78,3.33-6.63,3.08-6.78-3.16,5.57-3.39,5.43S348.53,19,348.44,19s-2.93,4.81-3,4.78,2.41-5.38,2.34-5.42-3.41,5.61-3.47,5.57,1.62-5.85,1.47-5.94-3.09,5.09-3.15,5,3.13-6.3,3-6.36-3.45,5.79-3.57,5.72,2.86-5.42,2.78-5.47-3,5.15-3.16,5.07,1-4.84.94-4.9-3.6,6-3.7,5.91,3.25-6.75,3.18-6.79-4.34,7.28-4.5,7.19,2.13-6.24,2-6.32c-.52-.32-11.47,19.19-11.84,19s9.77-18.25,9.29-18.55c-.25-.15-9.58,15.77-9.78,15.64-.48-.3,9.07-15.55,8.87-15.68S327.36,32.24,327,32c-.5-.31,8.05-13.77,7.72-14s-7.55,12.72-7.84,12.55c-.11-.08,3.42-8.52,3.22-8.64s-2,3.31-2.06,3.29"/><path class="cls-2" d="M347.41,28c-.13-.08-3.06,5.07-3.14,5s2.66-4.3,2.53-4.38-2.62,4.43-2.72,4.36.77-5,.66-5.06-3.1,5.37-3.28,5.26,2-4.8,1.85-4.88-3.14,5.39-3.31,5.29,1.36-4.76,1.27-4.82-2.51,4.33-2.65,4.24,1.6-4,1.53-4-2.93,4.95-3,4.88,1.23-5.09,1.18-5.12-2.43,4.13-2.54,4.06,2.77-4.32,2.69-4.37-2.9,4.84-3,4.78.8-4.44.75-4.47S329.38,40.55,329,40.31s6.15-12.51,6-12.61-6.1,10.31-6.35,10.15,6.41-9.9,6.09-10.1-6.41,11.16-6.81,10.91,7.07-11.15,7-11.22c-.29-.18-6.26,10.36-6.42,10.26s6.89-11,6.55-11.24-7,11.88-7.31,11.7"/><path class="cls-2" d="M346.56,38.8c-.24-.15-4.74,8-4.9,7.85s1.44-5.47,1.27-5.57-2.91,5.1-3.1,5,1.05-5.08.91-5.17-2.72,4.68-2.87,4.59,2.46-4.93,2.41-5S337,46,336.89,45.93s1-5.41.9-5.48-3,5.14-3.15,5,1.67-6,1.57-6-3.12,5.2-3.21,5.14,2.57-6.51,2.48-6.57-3.05,5.31-3.24,5.19,2.91-7.41,2.71-7.53-4,6.61-4.09,6.55,3.66-8,3.55-8.09-4,6.62-4.1,6.56,4.72-7.25,4.56-7.35-4.87,8.25-5.08,8.12"/><path class="cls-2" d="M354,38.46c-.12-.08-2.27,3.83-2.36,3.78s1.89-5.29,1.71-5.41-4.79,8-4.92,7.89,3-7.71,2.78-7.88-5.72,9.51-5.88,9.41,5.76-9.06,5.55-9.19-5.29,9-5.54,8.86,4.62-8.17,4.42-8.3-4.91,8.65-5.27,8.43,4.62-8.48,4.45-8.59-5.48,9-5.59,9,4.68-9,4.5-9.16c-.34-.21-5.61,9.31-5.76,9.21s6.35-9.4,6-9.64-5.55,9.71-5.92,9.48"/><path class="cls-2" d="M224.09,25.38s-.26.44-.28.44.21-.9.19-.92-.52.91-.55.89"/><path class="cls-2" d="M232,40.31c-.15-.09-3.63,6.21-3.82,6.1s3.8-5.76,3.64-5.86-3.1,5.5-3.34,5.35c-.09-.06,1.5-5,1.42-5s-3.14,5.27-3.25,5.2,2.1-5.12,2-5.17-3.34,5.56-3.44,5.5,1.35-4.78,1.25-4.85-2.82,4.7-2.9,4.65,1.58-4.71,1.48-4.78-2.76,4.55-2.82,4.51,2.19-6,2-6.1-3.36,5.73-3.52,5.63,2.8-7,2.68-7-4.17,6.87-4.26,6.82,3.64-7.67,3.53-7.74-4.13,6.8-4.22,6.74c-.26-.16,4.55-7.25,4.42-7.33s-4.2,7.23-4.43,7.09"/><path class="cls-2" d="M233.36,27.44c-.16-.1-3.26,5.64-3.45,5.51,0,0,.88-4.37.76-4.45s-3,5.08-3.13,5,1.09-4,1-4.1-2.45,4.07-2.51,4,2.36-4.63,2.23-4.71-3.38,5.79-3.56,5.68,3.2-4.86,3.07-4.93-3.41,5.72-3.53,5.65,3.47-5.57,3.33-5.66-2.89,5.09-3.1,5,2.16-5.59,2.1-5.62-9.17,15-9.32,14.92c-.36-.23,8.57-14.59,8.15-14.85S216.71,43.1,216.57,43c-.47-.3,8.25-13.89,8-14s-8.12,13.61-8.4,13.44c-.13-.08,5.23-11.68,4.94-11.86s-5.59,9.66-5.91,9.46c-.12-.07,6-9.92,5.65-10.12s-5.49,9-5.57,8.9,4.24-7.33,4-7.51-4,6.56-4.08,6.52,3.15-6.07,3-6.18-2.82,4.69-2.9,4.64,2.23-3.85,2.16-3.9-1.77,3-1.84,2.94"/><path class="cls-2" d="M242.49,45.85s-.19.31-.2.31-.2-1.92-.26-1.95S241,46,241,45.91s1.1-3.73,1-3.8-2.35,4-2.47,4,2.66-4.48,2.61-4.52-2.42,4-2.48,4,2-4.27,1.92-4.34-2.78,4.75-2.92,4.67,3.17-7,3-7.1-3.8,6.6-4,6.46,4.7-8.82,4.55-8.91-6,10-6.17,9.88,6.69-10.62,6.26-10.89-6.3,10.89-6.66,10.67,6.82-10.8,6.61-10.93-6,10.36-6.34,10.15,6.09-10.89,5.72-11.13-6.29,11-6.71,10.74,7.37-12.36,7-12.57c-.13-.08-7,12-7.37,11.79s8-13.25,7.6-13.51c-.18-.11-7.8,13.16-8.11,13-.62-.39,8.65-16.42,8.06-16.79-.23-.15-11.13,19.11-11.71,18.75-.27-.16,11.85-21.69,11.43-22s-7.48,12.87-7.89,12.62c-.21-.14,8.28-12.83,8-13s-7.69,12.87-7.94,12.71,8.42-13.07,7.95-13.36c-.25-.15-7.47,12.45-7.69,12.31s7.72-12.38,7.25-12.68c-.14-.09-6.77,11.39-7,11.24-.4-.25,6.84-13.08,6.64-13.21-.37-.23-7.44,12.23-7.59,12.15s7.26-12.6,6.76-12.91S232.46,32.88,232,32.57c-.24-.15,7-13.61,6.53-13.9-.23-.14-3.75,6.48-4,6.35s2.42-6.84,2.2-7-2.81,4.65-2.88,4.61,2.93-4.8,2.77-4.89-3.24,5.59-3.42,5.48,2.48-6.18,2.39-6.24-2.8,4.91-3,4.79,2.49-4.65,2.33-4.75-3.17,5.47-3.35,5.36,2.71-5,2.56-5.08-3.07,5.09-3.15,5,3.48-5.39,3.33-5.48-2.68,4.69-2.86,4.58,2.71-4.74,2.55-4.85-2.79,4.79-2.94,4.7,2.14-4.63,2-4.71-3,4.9-3,4.85,2.52-4.6,2.37-4.7S229.24,22,229.17,22s2.59-5.43,2.46-5.52-3.47,6-3.66,5.86,3.27-5.86,3.17-5.92-3.06,5.06-3.14,5,3-5,2.92-5.1-3.19,5.48-3.36,5.37,1.51-4.79,1.39-4.87-4,6.59-4.07,6.52,3.34-6.14,3.22-6.21c-.34-.22-5.6,9.3-5.75,9.21s4.85-9,4.7-9.13-5,8.47-5.21,8.33,4.48-8.31,4.31-8.42-5.25,9.09-5.56,8.89c-.12-.07,3.11-8.61,3-8.68s-5.67,9.44-5.83,9.34,3.79-8.07,3.6-8.19-4.29,7.4-4.53,7.25,4.79-7.47,4.5-7.66-5,8.19-5.09,8.14,3.21-6.68,3.07-6.77-2.58,4.26-2.64,4.23,1.76-3.07,1.7-3.1-1.25,2.15-1.32,2.11"/><path class="cls-3" d="M55.06,17.14v5.21H49.35V36.41A3.82,3.82,0,0,0,50,39.05a3.83,3.83,0,0,0,2.63.65c.44,0,.86,0,1.26-.05a10.1,10.1,0,0,0,1.16-.17v6a17.4,17.4,0,0,1-2.2.22c-.81,0-1.59.06-2.36.06a22,22,0,0,1-3.43-.25,8,8,0,0,1-2.86-1,5.09,5.09,0,0,1-2-2,7.33,7.33,0,0,1-.71-3.46V22.35H36.83V17.14h4.72V8.63h7.8v8.51Z"/><path class="cls-3" d="M59,25.18a13,13,0,0,1,7.58-7.74,16.09,16.09,0,0,1,6-1.07,16.32,16.32,0,0,1,6.07,1.07,12.91,12.91,0,0,1,7.6,7.74,17.35,17.35,0,0,1,1.05,6.18,17.1,17.1,0,0,1-1.05,6.15,13.26,13.26,0,0,1-3,4.69,12.85,12.85,0,0,1-4.64,3,16.74,16.74,0,0,1-6.07,1.05,16.5,16.5,0,0,1-6-1.05,12.9,12.9,0,0,1-4.61-3,13.42,13.42,0,0,1-3-4.69,17.32,17.32,0,0,1-1-6.15A17.57,17.57,0,0,1,59,25.18ZM66,34.68a8.86,8.86,0,0,0,1.12,2.91,6,6,0,0,0,2.12,2.06,6.46,6.46,0,0,0,3.29.77,6.6,6.6,0,0,0,3.32-.77A6,6,0,0,0,78,37.59a8.86,8.86,0,0,0,1.12-2.91,16.62,16.62,0,0,0,.33-3.32A17,17,0,0,0,79.16,28,8.53,8.53,0,0,0,78,25.1,6.34,6.34,0,0,0,75.89,23a6.4,6.4,0,0,0-3.32-.8,6.26,6.26,0,0,0-3.29.8,6.33,6.33,0,0,0-2.12,2.06A8.53,8.53,0,0,0,66,28a17,17,0,0,0-.33,3.35A16.62,16.62,0,0,0,66,34.68Z"/><path class="cls-3" d="M99.75,17.14v5.27h.11A9.94,9.94,0,0,1,101.34,20,9.81,9.81,0,0,1,103.49,18a10.2,10.2,0,0,1,2.58-1.23,9,9,0,0,1,2.85-.44,6.16,6.16,0,0,1,1.7.27v7.25c-.36-.07-.8-.14-1.31-.19a12.85,12.85,0,0,0-1.49-.08,8.26,8.26,0,0,0-3.62.71,6.31,6.31,0,0,0-2.39,2,7.89,7.89,0,0,0-1.29,2.88,15.51,15.51,0,0,0-.38,3.57V45.52h-7.8V17.14Z"/><path class="cls-4" d="M174.8,45.52l-5.05-19.05h-.11l-4.83,19.05h-8.07l-9-28.38H156l5.22,19.27h.11L166,17.14h7.58l4.83,19.21h.11l5.21-19.21h8l-9,28.38Z"/><path class="cls-4" d="M202.48,17.14v5.27h.11A9.65,9.65,0,0,1,204.07,20,9.76,9.76,0,0,1,206.21,18a10.54,10.54,0,0,1,2.58-1.23,9.14,9.14,0,0,1,2.86-.44,6.16,6.16,0,0,1,1.7.27v7.25c-.37-.07-.81-.14-1.32-.19a12.68,12.68,0,0,0-1.48-.08,8.28,8.28,0,0,0-3.63.71,6.36,6.36,0,0,0-2.38,2,7.57,7.57,0,0,0-1.29,2.88,15.5,15.5,0,0,0-.39,3.57V45.52h-7.8V17.14Z"/><path class="cls-4" d="M255.35,17.14v3.95h.17a9,9,0,0,1,3.84-3.6,11.15,11.15,0,0,1,4.83-1.12,13.23,13.23,0,0,1,5.14.85,7.66,7.66,0,0,1,3.16,2.36,9.38,9.38,0,0,1,1.62,3.68,23,23,0,0,1,.46,4.8V45.52h-7.8v-16a10,10,0,0,0-1.09-5.24c-.74-1.16-2-1.73-3.9-1.73a5.39,5.39,0,0,0-4.61,1.89c-1,1.26-1.43,3.34-1.43,6.23V45.52h-7.8V17.14Z"/><path class="cls-4" d="M307.32,47.61a9.65,9.65,0,0,1-2,4.09,11.93,11.93,0,0,1-4.45,3.21,19.13,19.13,0,0,1-7.79,1.32,18,18,0,0,1-4.26-.52,13.57,13.57,0,0,1-3.95-1.62,9.66,9.66,0,0,1-3-2.83,8.14,8.14,0,0,1-1.34-4.14h7.74a4.41,4.41,0,0,0,2.14,3,7.66,7.66,0,0,0,3.68.86,5.65,5.65,0,0,0,4.8-2,7.79,7.79,0,0,0,1.46-5V40.31h-.11a7.68,7.68,0,0,1-3.6,3.32,11.67,11.67,0,0,1-4.91,1.07,12.36,12.36,0,0,1-5.49-1.12,10.42,10.42,0,0,1-3.79-3.08,12.85,12.85,0,0,1-2.17-4.56,21.46,21.46,0,0,1-.69-5.52,17.66,17.66,0,0,1,.8-5.29,13.89,13.89,0,0,1,2.33-4.51,11.14,11.14,0,0,1,9.06-4.25,11.07,11.07,0,0,1,4.92,1,8.49,8.49,0,0,1,3.54,3.52h.11V17.14h7.41V43.71A19.05,19.05,0,0,1,307.32,47.61Zm-10.68-9.44a6.07,6.07,0,0,0,2.09-1.76,7.91,7.91,0,0,0,1.24-2.5,10.49,10.49,0,0,0,.41-2.94,16.11,16.11,0,0,0-.33-3.32,8.33,8.33,0,0,0-1.1-2.77,5.58,5.58,0,0,0-2-1.92,6.35,6.35,0,0,0-3.19-.72,5.68,5.68,0,0,0-2.82.66,6,6,0,0,0-2,1.79,7.38,7.38,0,0,0-1.15,2.58,12.59,12.59,0,0,0-.36,3,15.54,15.54,0,0,0,.3,3.05,8.23,8.23,0,0,0,1,2.72,6.25,6.25,0,0,0,1.95,2,5.57,5.57,0,0,0,3,.77A6.18,6.18,0,0,0,296.64,38.17Z"/><path class="cls-4" d="M322.07,6.32v39.2h-7.8V6.32Z"/><path class="cls-4" d="M367.15,17.14v5.27h.11A9.65,9.65,0,0,1,368.74,20,9.53,9.53,0,0,1,370.88,18a10.54,10.54,0,0,1,2.58-1.23,9.14,9.14,0,0,1,2.86-.44,6.16,6.16,0,0,1,1.7.27v7.25c-.37-.07-.81-.14-1.32-.19a12.68,12.68,0,0,0-1.48-.08,8.28,8.28,0,0,0-3.63.71,6.36,6.36,0,0,0-2.38,2,7.57,7.57,0,0,0-1.29,2.88,15.5,15.5,0,0,0-.39,3.57V45.52h-7.8V17.14Z"/><path class="cls-3" d="M16.54,38.47A4.54,4.54,0,0,0,17.88,40a5.58,5.58,0,0,0,1.9.85,8.55,8.55,0,0,0,2.22.28,8.21,8.21,0,0,0,1.73-.2,5.79,5.79,0,0,0,1.65-.6,3.7,3.7,0,0,0,1.23-1.1,2.86,2.86,0,0,0,.5-1.73c0-1.17-.78-2.05-2.33-2.63a46.86,46.86,0,0,0-6.51-1.76C17.13,32.8,16,32.5,15,32.15a11.18,11.18,0,0,1-2.89-1.37,6.69,6.69,0,0,1-2-2.14,6.09,6.09,0,0,1-.77-3.16A8.56,8.56,0,0,1,10.33,21a8,8,0,0,1,2.83-2.77,12.2,12.2,0,0,1,4-1.43,24.7,24.7,0,0,1,4.5-.41,21.86,21.86,0,0,1,4.47.44A11.59,11.59,0,0,1,30,18.29a8.91,8.91,0,0,1,2.83,2.77,9.4,9.4,0,0,1,1.35,4.37H26.72A3.4,3.4,0,0,0,25,22.38a7.76,7.76,0,0,0-3.62-.8,12.33,12.33,0,0,0-1.43.09,4.72,4.72,0,0,0-1.4.35,2.93,2.93,0,0,0-1.07.8,2.11,2.11,0,0,0-.44,1.4,2.14,2.14,0,0,0,.77,1.7,5.82,5.82,0,0,0,2,1.07,24.49,24.49,0,0,0,2.83.74q1.59.33,3.24.72a33.21,33.21,0,0,1,3.32.93,11,11,0,0,1,2.89,1.46,7.06,7.06,0,0,1,2,2.25,6.63,6.63,0,0,1,.77,3.32,8.64,8.64,0,0,1-4.07,7.74,12,12,0,0,1-4.14,1.62,24.29,24.29,0,0,1-4.75.47,23.42,23.42,0,0,1-4.83-.5,12.76,12.76,0,0,1-4.21-1.64,9.56,9.56,0,0,1-3-3.05A9.69,9.69,0,0,1,8.6,36.3H16A4.28,4.28,0,0,0,16.54,38.47Z"/><path class="cls-3" d="M127.11,54a11.32,11.32,0,0,1-6.26,1.48c-.81,0-1.61,0-2.39-.08s-1.59-.12-2.39-.19V48.76l2.25.22a16.21,16.21,0,0,0,2.31.06,3,3,0,0,0,2.27-1.21,3.87,3.87,0,0,0,.75-2.31,4.66,4.66,0,0,0-.33-1.75l-9.94-26.63h8.29l6.42,19.43h.11l6.21-19.43h8.07L130.62,49A9.62,9.62,0,0,1,127.11,54Z"/><path class="cls-4" d="M336.56,38.72a8,8,0,0,0,9.12.52,4.88,4.88,0,0,0,2.08-2.5h6.87q-1.65,5.1-5.05,7.3a14.84,14.84,0,0,1-8.24,2.2,16.29,16.29,0,0,1-6-1.07,12.7,12.7,0,0,1-4.56-3.05,13.84,13.84,0,0,1-2.88-4.72,17.24,17.24,0,0,1-1-6,16.47,16.47,0,0,1,1.05-5.93,13.7,13.7,0,0,1,7.55-7.91,14.65,14.65,0,0,1,5.9-1.15,13.38,13.38,0,0,1,6.31,1.4,12.52,12.52,0,0,1,4.42,3.76,15.28,15.28,0,0,1,2.5,5.38,19.74,19.74,0,0,1,.55,6.32H334.64Q334.81,37,336.56,38.72Zm8.82-14.94a5.52,5.52,0,0,0-4.26-1.54,6.79,6.79,0,0,0-3.1.63,6.07,6.07,0,0,0-2,1.57,5.72,5.72,0,0,0-1,2,9.15,9.15,0,0,0-.36,1.86h12.69A9.12,9.12,0,0,0,345.38,23.78Z"/><path class="cls-4" d="M216.09,25.87a9,9,0,0,1,1.38-4.56,9.28,9.28,0,0,1,3.07-2.91,13.79,13.79,0,0,1,4.2-1.57,24,24,0,0,1,4.7-.46,32.1,32.1,0,0,1,4.34.3,13.31,13.31,0,0,1,4,1.18,8,8,0,0,1,3,2.44,6.85,6.85,0,0,1,1.15,4.15V39.21a29,29,0,0,0,.22,3.68,6.59,6.59,0,0,0,.77,2.63H235a11.44,11.44,0,0,1-.35-1.34,10.73,10.73,0,0,1-.2-1.4A10.13,10.13,0,0,1,230,45.47a17.67,17.67,0,0,1-5.16.77,13.89,13.89,0,0,1-3.79-.5A8.68,8.68,0,0,1,218,44.21,7.17,7.17,0,0,1,216,41.57a8.81,8.81,0,0,1-.74-3.79,8.24,8.24,0,0,1,.85-4,7.2,7.2,0,0,1,2.19-2.5,9.86,9.86,0,0,1,3.08-1.4,34.74,34.74,0,0,1,3.48-.74c1.18-.18,2.33-.33,3.46-.44a20.5,20.5,0,0,0,3-.49,5.27,5.27,0,0,0,2.09-1,2.11,2.11,0,0,0,.71-1.84,4.12,4.12,0,0,0-.41-2,3,3,0,0,0-1.1-1.15,4.28,4.28,0,0,0-1.59-.55,13.15,13.15,0,0,0-1.95-.14,5.92,5.92,0,0,0-3.62,1,4.43,4.43,0,0,0-1.54,3.3Zm18,5.76a3.4,3.4,0,0,1-1.23.69,14.18,14.18,0,0,1-1.59.41c-.57.11-1.17.2-1.79.27s-1.24.17-1.86.28a14.13,14.13,0,0,0-1.73.44,5.07,5.07,0,0,0-1.49.74,3.49,3.49,0,0,0-1,1.18,3.76,3.76,0,0,0-.39,1.81,3.63,3.63,0,0,0,.39,1.76,2.91,2.91,0,0,0,1,1.13,4.48,4.48,0,0,0,1.54.57,9.75,9.75,0,0,0,1.81.17,6.91,6.91,0,0,0,3.57-.77,5.24,5.24,0,0,0,1.87-1.84A6,6,0,0,0,234,36.3a15,15,0,0,0,.13-1.76Z"/></svg>