<svg id="Layer_1" data-name="Layer 1" xmlns="http://www.w3.org/2000/svg" viewBox="0 0 667.69 210.15"><defs><style>.cls-1,.cls-2,.cls-3{fill:none;stroke-linecap:round;stroke-linejoin:round;}.cls-1{stroke:#00b6cf;stroke-width:0.72px;}.cls-2{stroke:#8bc862;}.cls-2,.cls-3{stroke-width:0.72px;}.cls-3{stroke:#f3b544;}.cls-4{fill:#0681a2;}.cls-4,.cls-5,.cls-6{opacity:0.82;}.cls-5{fill:#649946;}.cls-6{fill:#f89921;}.cls-7{fill:#b0b0b0;}</style></defs><title>logo</title><g id="path3611"><path class="cls-1" d="M509.25,66c-.08-.05-5.06,8.48-5.23,8.37s3.29-8.37,3.05-8.51-4.4,7.43-4.57,7.32,3-7.66,2.91-7.74-3.23,5.31-3.3,5.27,2-6,1.88-6-3,5-3.06,4.9,1.47-4.26,1.35-4.33-1.5,2.51-1.55,2.48.48-3.17.39-3.23-.15.3-.18.29.44-.88.43-.89-.78,1.27-.79,1.26.19-1.14.15-1.16-.14.25-.15.25"/><path class="cls-1" d="M515.41,83.26c-.11-.06-4.23,7.16-4.41,7s2.66-6.56,2.45-6.69-3.35,5.84-3.57,5.71,1.68-5.21,1.56-5.29-2.35,4-2.48,4,1.85-4.85,1.69-4.94-2.23,3.8-2.33,3.73-.25-2.84-.33-2.9-.07.18-.1.16.18-.75.15-.77-.42.72-.44.71.09-1.06.07-1.08l-.6,1"/><path class="cls-1" d="M542.63,60.43C542,60,521.78,96.14,520.72,95.48S543,61,541.62,60.14c-.65-.4-20.93,35.22-21.71,34.74-.5-.32,20.92-33.6,19.84-34.27-.77-.48-20.8,35.21-21.66,34.67-.45-.29,21.72-34.84,21.11-35.22S518,95.42,517.34,95c-1.2-.75,22.84-34.38,21.59-35.16S518.05,95.69,517,95c-.46-.29,21.32-33.83,20.07-34.61-.8-.5-20.62,34.37-21.24,34s20.75-34.28,19.9-34.81c-.47-.29-19.55,33.84-20.7,33.12S534.31,60,533.45,59.46c-.36-.23-19.17,32.58-20,32-1.07-.66,19-32,18.13-32.6-.37-.23-18.63,31.63-19.44,31.13s18.09-31.09,17.77-31.29c-.63-.39-14.18,23.48-14.54,23.26-.75-.47,14.14-24,13.75-24.21s-14.48,24.11-14.9,23.84c-.68-.42,14-23,13.25-23.47s-14.12,24.51-15,24C511.83,81.74,527,58,526.57,57.77c-.69-.43-14.36,23.71-14.69,23.5-.7-.44,15.26-23.48,14.74-23.8s-14,24.38-14.88,23.8c-.45-.28,14-24,13.25-24.49s-14.38,23.57-14.63,23.41c-.77-.48,13.19-23.69,12.72-24-.67-.42-13.74,23.14-14.26,22.82C508,78.5,521.58,56.12,521.32,56c-.41-.25-14,23.5-14.48,23.17-.72-.45,13.8-24.6,13.5-24.79S506.41,78.4,505.61,77.9s13.09-23.49,12.81-23.67-13.07,22.45-13.77,22,14.71-22.69,14.06-23.09c-.39-.25-13.52,22.4-13.87,22.18-.66-.41,13.22-21.79,13-21.93-.83-.52-12.94,22.14-13.58,21.74S517.16,53,516.62,52.65s-7.36,12.93-7.87,12.6,7.74-12.38,7.36-12.62-7.58,13-8,12.78,6.84-13.27,6.39-13.55c-.24-.15-7.34,12.71-7.78,12.44s6.88-14,6.42-14.24-7.46,13-7.93,12.68,8.14-13.2,8-13.31S505.37,62.84,505,62.59c-.23-.15,7.38-13.77,6.94-14-.17-.11-7.52,12.7-7.82,12.52s6.64-12.64,6.26-12.88c-.13-.08-6.9,11.4-7.06,11.3-.43-.26,7.39-11.79,7.15-11.94S503.31,59.71,503,59.49c-.2-.12,6.94-12.4,6.67-12.57s-6.74,11.27-7,11.13c-.39-.24,6.82-11,6.55-11.17s-6.59,11.44-7,11.19c-.12-.07,7.19-11.39,7-11.48s-7.22,11.85-7.35,11.77c-.41-.26,7.5-11.32,7.14-11.55s-6.78,11.57-7.1,11.37,6.91-11.73,6.64-11.89-6.47,11.28-6.88,11,5.66-11.75,5.31-12-5.71,9.59-5.92,9.47,4.82-11.43,4.69-11.51-4.78,7.91-4.9,7.84,4.18-8.51,3.93-8.67c-.08,0-4,7-4.26,6.83s2.92-7.51,2.84-7.56-1.38,2.43-1.48,2.36,1.17-2.49,1.07-2.54-.57.94-.59.94"/><path class="cls-1" d="M524.58,97c-.35-.21-9,15.5-9.48,15.17-.17-.11,8.69-14.56,8.51-14.67-.38-.24-8.1,14.09-8.61,13.78-.14-.09,6.84-12.14,6.38-12.43s-7.65,12.67-7.84,12.55c-.43-.27,7.55-11.93,7.19-12.15s-7.37,12.59-7.72,12.37,6.44-11.23,6-11.5-6.46,11.21-6.85,11c-.12-.07,6.54-10,6.15-10.26s-6.42,10.57-6.56,10.49,5.14-9.91,4.85-10.09-5.7,9.46-5.85,9.37,3.63-8,3.35-8.15-4.46,7.52-4.63,7.41,2.73-6.67,2.55-6.79-3.91,6.8-4.15,6.64,3.41-6.07,3.29-6.15-3.81,6.36-3.93,6.29,2.44-5.82,2.23-6-2.71,4.81-2.92,4.67,1.7-4.9,1.58-5-3.3,5.49-3.4,5.43,3-4.74,2.9-4.81-2.95,5-3.06,4.91,2.23-4.85,2.13-4.92-2.32,3.83-2.37,3.8.09-3.26,0-3.32-1.64,2.88-1.76,2.81.75-2.81.68-2.85-1.08,1.94-1.17,1.88,0-1.28,0-1.3-.71,1.33-.79,1.28.19-2.09.17-2.1-1.47,2.46-1.52,2.43,1.28-2,1.25-2.08-1.16,2-1.22,2,.91-2,.87-2-1.06,1.79-1.1,1.76.06-2.12,0-2.16-.66,1.11-.68,1.1,0-1.06,0-1.07-.94,1.56-1,1.55.38-1.73.33-1.76-.84,1.36-.85,1.36.52-1.2.5-1.22-.19.33-.2.32l-.71-.14-.05.08"/><path class="cls-1" d="M586.52,40.5c-.11-.07-2.57,4.5-2.74,4.4s2.57-4.15,2.5-4.19-2.7,4.54-2.8,4.48,2.09-5.13,2-5.17c-.27-.17-4.49,7.88-4.8,7.68s1.79-6.61,1.72-6.65c-2-1.23-43.31,71.28-44.19,70.73-2.06-1.28,42.42-69.34,41.68-69.81C577.72,40.6,537.3,112,536.46,111.5c-2.66-1.65,44.14-67,41.45-68.72-1.58-1-40.9,71.23-43.5,69.61-2.41-1.51,45-68.21,42.54-69.76-2-1.25-41.87,71.31-43.81,70.1-1.37-.86,43.62-68.73,42.31-69.55-.82-.52-41.93,69.91-43.2,69.12s44.42-68.09,42.25-69.45c-1.2-.75-42.65,71-43.87,70.21-2.58-1.61,44.47-69.72,42.49-71-1.82-1.14-42.39,71.51-44,70.47-2.79-1.74,45.85-70.77,43.52-72.22-1.54-1-42.66,73.45-45,72-1.16-.72,45-71.36,43.52-72.27-.8-.5-43.23,75-45.86,73.39-1.37-.86,46.69-72.73,44.62-74C568,38.24,526.7,114.53,524,112.85c-1.11-.69,46.23-73.1,44.57-74.14-2.81-1.75-44.52,74.5-46,73.59-2-1.22,46.39-72.14,43.94-73.67-2.84-1.78-44,75.77-46.4,74.25C518,111.53,566.88,39,564.68,37.65c-1.86-1.16-45.19,76.18-46.92,75.1-1.27-.79,47.61-74.37,45.16-75.9-1.1-.68-45.43,76.06-46.94,75.12-1.22-.77,49.41-73,46.46-74.8s-45.09,76.3-47,75.13c-2.79-1.74,47.91-74.22,46.34-75.2-2-1.27-34.4,60.11-36.67,58.69-2.06-1.28,36.75-57.28,35.78-57.88-2-1.27-35.81,58.69-36.43,58.3-1.31-.82,35.59-57.33,34.34-58.11-.92-.57-35,58.45-36.11,57.78-.93-.59,35.55-57.64,34.3-58.43-.83-.51-13.89,24-14.69,23.51-.51-.32,13.78-22,13-22.48S543,59.4,542.51,59.11,554.84,39.43,554.11,39s-11.24,18.65-11.54,18.46c-.48-.29,8.66-16.63,8.2-16.92s-8.06,14-8.56,13.71c-.3-.18,4.42-9.66,4.22-9.78s-2.16,3.66-2.25,3.6"/><path class="cls-1" d="M589.29,46.7s-1,1.69-1,1.68-1.34-1.17-1.37-1.19-4.26,7.31-4.48,7.17,3.06-6.26,2.93-6.34c-2.2-1.38-36.59,62.31-38.28,61.26-1.28-.8,37.42-59.82,36-60.7-1-.65-36.75,62.2-38.27,61.25-1.69-1.06,38.87-60.7,38.06-61.21-1.76-1.1-37.38,62.19-38.45,61.53-2.25-1.41,38.82-61,38.16-61.38-1.36-.85-36.28,62.42-38.24,61.19-.85-.53,38.47-61.09,37.79-61.52-1.3-.81-35.82,62.73-38.25,61.21-1.56-1,39.36-59.83,37.53-61-1.68-1-37.56,62-38.43,61.5s39.56-59.8,37.55-61.06c-1.23-.76-36.47,62.25-38.22,61.16-.69-.44,39.57-59.31,37.32-60.71-1.56-1-36.21,61.72-37.9,60.67s38.92-60,37.37-61c-2.36-1.48-36.83,62.36-38.36,61.4"/><path class="cls-1" d="M574.16,83.61c-.27-.17-4.83,8-5,8s8.44-15.22,8.08-15.44-13.42,22.21-13.75,22c-.8-.51,15.56-24.68,14.84-25.13-.28-.18-16.47,27.47-17,27.16s18.78-29.95,17.71-30.62-19.3,33.62-20.53,32.86c-.88-.55,21.39-34.56,20.84-34.9-.95-.59-21.6,36.38-22.42,35.87-1.32-.82,23.43-38.76,23-39-.88-.55-24.38,41.44-25.47,40.76S581,63.85,580.27,63.43,555,105.84,554.11,105.29c-1.43-.89,26.85-45.89,26.35-46.2s-28.23,49.45-30.15,48.25c-1.75-1.1,31.51-46.85,29.86-47.88-1.1-.68-28.26,49.42-30.15,48.24-.81-.51,30.72-50.18,29.92-50.69-1.31-.82-30.75,52.88-32.4,51.85"/></g><path class="cls-2" d="M86.34,72.17c-.15-.09-3,5.14-3.16,5.06S85,71.13,85,71.09s-3.58,5.84-3.63,5.81,2.12-5.3,2-5.38S81.85,74,81.77,74s1.52-2.81,1.45-2.85S81.1,74.66,81,74.62s.83-3.23.73-3.29-.37.62-.38.61"/><path class="cls-2" d="M102.67,77.26s-.35.59-.36.58.4-3,.36-3-1.88,3.15-1.94,3.11,2.37-5.35,2.21-5.45S99.59,78,99.52,78s2-6.57,1.83-6.72-4.07,7-4.31,6.89,4-6.51,3.81-6.66-3.51,5.75-3.57,5.71,4-6,3.78-6.17-3.62,6.16-3.78,6.06,3.17-5.4,3.11-5.43-3.5,5.75-3.57,5.71,1.92-5.09,1.73-5.2c-.43-.27-10.76,18.42-11.3,18.08S97,72.19,96.72,72s-9,15.47-9.5,15.19c-.29-.18,9-16,8.79-16.14-.5-.31-9.13,15.22-9.4,15-.59-.36,10-15.08,9.53-15.4s-8.5,14.73-9,14.41c-.27-.17,9.46-16.07,8.93-16.41-.26-.16-8.59,14.66-9,14.4C86.9,83,96.72,68.32,96.27,68c-.2-.12-9.3,15.71-9.67,15.48S96.12,66,95.77,65.81s-8.34,13.72-8.51,13.61c-.55-.34,8.95-15.23,8.67-15.41s-8.27,14.1-8.66,13.86S95.7,62.15,95.42,62c-.57-.36-9.67,16.42-10.09,16.16S95,62,94.59,61.76s-9.73,16.29-10,16.08S93.08,62.29,92.6,62c-.31-.2-5.08,8.8-5.38,8.61s3.9-8.59,3.63-8.76-3.85,6.41-4,6.34,2.31-6.25,2.19-6.33-2,3.44-2.09,3.35.62-4,.49-4.12-.63,1-.64,1"/><path class="cls-2" d="M102.63,104.33s-.22.37-.23.36,0-1.5,0-1.52-1.22,2.12-1.29,2.08,1.49-3.72,1.36-3.81-2,3.55-2.17,3.47,2.63-6.91,2.5-7-4.5,7.52-4.64,7.42,3.81-7.31,3.54-7.48-4.51,7.46-4.62,7.39,3.93-7.77,3.65-7.94c-.08,0-4.88,8.15-5,8S98.1,97.85,98,97.78s-4.2,7.09-4.36,7S97.08,98,96.94,98s-3.67,6.25-3.84,6.14,3.11-6.91,3-7-4.16,7.34-4.46,7.15,4.87-7.52,4.7-7.63-4.65,7.82-4.82,7.71,4.79-7.56,4.59-7.69-4.31,7.38-4.53,7.24,4.48-9,4.26-9.09-5.38,8.87-5.5,8.79,6.41-12.14,6-12.39c-.14-.09-6.87,11.89-7.28,11.64-.17-.11,7-10.91,6.74-11s-7,11.59-7.17,11.47,7.39-12.86,7.15-13-7,11.78-7.26,11.61,7.58-12.48,7.3-12.66S88,102.13,87.8,102c-.42-.26,8.64-16.45,8.09-16.8s-8.66,14.93-9.14,14.63,9.46-15.68,9-16-8.06,13.73-8.43,13.5c-.21-.14,9.4-17.55,8.76-18s-9,15.11-9.32,14.92c-.6-.37,9.77-16.74,9.53-16.88-.42-.27-8.71,14.58-9,14.4"/><path class="cls-2" d="M128.1,97.31c-.28-.18-5.34,8.74-5.43,8.69s2.81-7.33,2.74-7.37-4.32,7.3-4.49,7.19,3.88-7.37,3.63-7.53c-.09-.06-3.78,6.63-4,6.47s1.75-5.6,1.59-5.7-3.86,6.36-3.94,6.31,3.68-6.89,3.61-6.94-3.87,6.42-4,6.36,1.79-6.42,1.72-6.46-3.21,5.57-3.41,5.45,3.16-6,3-6.06-3.41,5.67-3.51,5.61,3.25-6.55,3-6.68-4.27,7.18-4.42,7.08,3.28-8.07,3.15-8.15-4.35,7.23-4.47,7.15,3.91-6.91,3.8-7-3.68,6.48-3.94,6.31,3.07-8.6,2.9-8.7S111.2,101,111,100.81s4.22-10,4-10.17-5.44,9-5.58,8.92,5.72-11.89,5.6-12c-.28-.17-6.61,11.1-6.84,11s7.34-11.21,6.89-11.49-6.15,10.5-6.45,10.32,7-12.8,6.78-13S107.87,97,107.63,96.84s8.46-13.55,8-13.86c-.33-.21-7.45,13-7.94,12.7"/><path class="cls-2" d="M138.45,96.45c-.11-.07-1.87,3.08-1.91,3s3.8-8,3.69-8c-.41-.25-6.21,10.83-6.61,10.58-.2-.12,6.28-11.17,6.13-11.26s-7.72,13.25-8.12,13,8.45-15.41,8.25-15.54c-.55-.34-9.87,16.7-10.28,16.45S140.27,85.76,140,85.61c-.59-.37-11.34,19.07-11.76,18.8S140,84.64,139.72,84.48c-.5-.31-12,20.5-12.6,20.16s13.38-20.44,12.65-20.9-12.71,21.67-13.3,21.3S140.24,82.77,140,82.59s-14,23.31-14.39,23,14.22-24,13.78-24.3S124.63,106.39,124,106s14.94-25.46,14.3-25.86c-.24-.14-7.6,12.51-7.76,12.41s8.41-13.21,8.22-13.33-7.56,12.62-7.8,12.47c-.43-.27,6.8-14.37,6.6-14.49s-6.32,10.75-6.61,10.57,6-10.66,5.85-10.76-5.5,9.49-5.81,9.3,5.54-9.76,5.16-10-4.68,8.1-4.95,7.93,4.23-8.55,4-8.66-4.26,7.11-4.39,7,3.81-7.22,3.73-7.27c-.28-.17-4,6.73-4.14,6.63s3.38-7.07,3.28-7.14c-.25-.15-4.24,7-4.34,7s3.72-7.68,3.46-7.85-3.71,6.35-3.9,6.23,2.71-6.85,2.64-6.89S128.08,79,128,78.94s2.27-6.91,2.19-7-3.7,6.24-3.84,6.15,3.14-5.63,3-5.7S126,78,125.92,77.91s3.74-6.42,3.64-6.48-3.85,6.61-4,6.48,3.26-6,3.11-6.07-3.41,5.85-3.59,5.74,2.32-5.82,2.15-5.92S124,77,123.87,76.94s3.66-5.74,3.58-5.79-3.72,6.21-3.84,6.14,3.85-6,3.67-6.11-3.53,6.09-3.72,6,2-6.2,2-6.23-3.92,6.46-4,6.41,2.85-5.86,2.68-6-4.19,6.94-4.29,6.87,3.76-7.38,3.56-7.5-4.78,8.1-5,8,3.93-8.27,3.65-8.44c-.7-.44-15.06,25-15.47,24.76S122.18,71,121.82,70.74c-.71-.44-14.52,23.9-14.82,23.72-.78-.49,14.18-23,13.45-23.41-.33-.21-13.36,22.77-14,22.38-.88-.55,14.06-21.79,13.32-22.25S106.74,92.82,106.4,92.61s13.83-21.46,13.08-21.93-12.94,21.43-13.27,21.23,11.63-19.72,10.88-20.2c-.3-.18-10.37,17.54-10.8,17.28S117,71.74,116.79,71.62,106.23,89,106,88.86c-.53-.33,9.65-16,9.4-16.17s-9,14.79-9.16,14.67c-.37-.24,6-12.25,5.55-12.5-.25-.16-4.74,8.27-5,8.08-.09-.06,3.12-6.13,3-6.21s-1.85,3.16-1.94,3.11"/><path class="cls-2" d="M154.47,78.18c-.15-.1-7.4,13-7.94,12.7s8.83-14.16,8.63-14.28-9,15.1-9.31,14.89,9.49-17.71,9.21-17.89-8.6,14.77-9.05,14.49c-.26-.16,9.18-14.59,9-14.71s-8.61,14.71-9,14.45c-.59-.37,9.53-14.84,9.19-15s-8.66,14.27-8.84,14.15c-.48-.3,9-13.52,8.44-13.85-.15-.09-8.46,14.43-8.86,14.18-.56-.35,9.2-13.88,8.78-14.14s-7.74,13.41-8.2,13.12c-.24-.15,7.51-14.25,7.27-14.4-.4-.25-7.63,12.58-7.8,12.47s6.5-12.23,6.31-12.35-5.67,10-6.07,9.73,4.42-9.69,4.29-9.77-3.7,6.46-3.95,6.31,2.18-6.26,2-6.37-2.23,3.85-2.36,3.78.59-3.53.53-3.57-.76,1.34-.81,1.3.52-1.74.48-1.77-.21.35-.22.34"/><path class="cls-2" d="M167.55,79s-.29.47-.29.47.35-4.1.29-4.14-1.91,3.37-2.05,3.28S167.35,73,167.24,73s-3.7,6.27-3.86,6.17,3.27-8.39,3.08-8.51-5.7,9.37-5.81,9.3c-.35-.22,5.25-9.48,5-9.63s-6.4,10.65-6.58,10.54,5.15-9.74,4.78-10c-1.12-.7-17.19,29-17.87,28.59-.49-.31,16-27.08,15.11-27.67-.38-.24-14.48,24-14.85,23.76-.52-.33,13.81-22.47,13.15-22.88-.37-.23-12.64,22.12-13.49,21.59s12.09-20,11.74-20.17S146.27,93.14,145.88,92.9c-.68-.42,11.22-17.59,10.8-17.85-.58-.36-10,17.46-10.66,17"/><path class="cls-2" d="M155.22,104.32s-.21.35-.21.34.05-2.77,0-2.8-1.45,2.45-1.51,2.41,1.9-5.3,1.75-5.39-3.3,5.48-3.39,5.43c-.25-.16,3.7-8.09,3.42-8.26s-5.26,8.9-5.48,8.77c-.39-.25,5.89-11.59,5.59-11.78s-7,11.87-7.31,11.7,7.27-11.61,7.15-11.69c-.46-.28-7.15,11.91-7.36,11.78-.38-.24,7.4-14.38,7.25-14.47-.55-.34-8.69,14.78-9.08,14.54s9.29-15.42,9.13-15.51c-.48-.3-8.78,15.19-9.29,14.87s9.33-14.83,9.05-15-8.12,14-8.58,13.73c-.23-.15,9.93-17.65,9.37-18s-9.25,15.22-9.44,15.11,10-15.56,9.76-15.72c-.62-.38-9.67,16-9.92,15.88"/><path class="cls-3" d="M226.33,94.21c-.3-.19-5.16,9-5.47,8.76-.13-.08,5.2-9.54,4.88-9.74s-5,8.4-5.18,8.3,5.24-9.9,5.08-10c-.35-.22-5.16,8.6-5.31,8.5s4.74-10.66,4.41-10.87c-.1-.06-5.35,9-5.55,8.89S225,85.9,224.67,85.7c-.12-.08-6.31,10.58-6.53,10.45s6.15-12,5.92-12.09-5.65,9.49-5.85,9.36c-.39-.24,5.24-11.3,4.83-11.56s-6,9.94-6.17,9.86,6.36-11.7,6-11.92-5.84,10.13-6.19,9.91c-.17-.1,6-12.43,5.69-12.6s-6.63,11.14-6.87,11,6.43-13,6.17-13.13-6.34,10.6-6.54,10.47c-.41-.25,5.83-12,5.42-12.3s-5.54,9.66-5.9,9.44,4.64-10.53,4.37-10.7-5.18,8.91-5.45,8.74,3.31-8.87,3.1-9-4.06,6.7-4.16,6.64,1.74-6.18,1.59-6.27-2.17,3.75-2.29,3.67-.09-3.46-.13-3.49-.54.91-.56.9,1-1.6,1-1.64-.83,1.38-.86,1.36-.32-1-.33-1-.3.51-.31.5"/><path class="cls-3" d="M231.12,103.66s-.94,1.56-1,1.54,1.38-3,1.27-3.09-1.45,2.49-1.52,2.45,2.34-5.07,2.23-5.14-3.34,5.75-3.52,5.63c-.34-.21,4.41-9.78,4.28-9.87-.31-.19-5.54,9.63-5.88,9.41s7.13-11.4,6.78-11.62c-.12-.07-7,11.91-7.31,11.71s7.81-12.46,7.55-12.62c-.43-.27-8,13.29-8.24,13.17s9.53-17.88,9.28-18-10.14,17.22-10.59,16.94S236.22,84.52,236,84.36c-.74-.46-12,20.65-12.65,20.25-.81-.51,13.69-21.73,13.15-22.07-.32-.2-13,22.44-13.73,22"/><path class="cls-3" d="M246.47,94.11c-.09-.06-4.7,7.76-4.81,7.69s4.81-7.67,4.71-7.74c-.28-.17-4.69,7.76-4.8,7.69-.31-.19,4.63-8.17,4.39-8.31s-4.43,7.58-4.65,7.44,5.19-9.94,4.93-10.1-5.05,8.38-5.18,8.3,4.91-9.22,4.61-9.4-4.54,7.87-4.81,7.7,4.69-9.57,4.49-9.7-5.42,8.86-5.5,8.81,4.9-10,4.71-10.1-4.53,7.91-4.82,7.73,5.3-8.49,5.09-8.62-5.06,8.61-5.28,8.46,5.18-9.51,4.94-9.66-5.34,8.84-5.47,8.76,5.16-10.74,4.77-11c-.16-.1-5.27,8.94-5.5,8.8s4.79-11.17,4.56-11.31S238.18,87.4,238,87.3s4.38-10.78,4.26-10.86-5.2,8.88-5.45,8.72,5.72-9.21,5.38-9.42-4.61,8.07-4.92,7.88,4.42-8.82,4.19-9-4.87,8-5,8,4.72-11,4.59-11.09c-.62-.39-18.72,32.54-19.89,31.81-.76-.48,20.34-31.78,19.8-32.12-1.22-.76-19.19,32.34-19.92,31.89-.54-.34,18.82-30.71,17.8-31.35-.27-.16-10.54,18.19-11.13,17.82s9.94-17.43,9.44-17.75c-.35-.21-8,13.37-8.25,13.21s8.41-13.15,8.24-13.26c-.49-.31-8.44,14.1-8.7,13.93-.5-.31,8.14-13.64,7.93-13.77-.43-.27-6.46,11.21-6.85,11s7.33-11.55,7-11.72-7.2,12.07-7.45,11.92,6.7-11.22,6.28-11.49c-.09-.05-5.15,9-5.5,8.8-.08,0,3.8-8.36,3.68-8.44s-2.64,4.62-2.82,4.5,1.54-4.76,1.49-4.79-.64,1.06-.65,1"/><path class="cls-3" d="M252.2,103.51s-1.07,1.75-1.09,1.74,3.41-8.54,3.27-8.63-4.94,8.37-5.14,8.24,5.73-9.4,5.38-9.62-5.56,9.31-5.74,9.19,7.46-12.29,7-12.58-7.48,12.77-7.84,12.55,10.32-18.35,9.68-18.75S246.38,105.42,245.64,105c-.38-.24,13.08-20.29,12.59-20.59-.67-.42-12.16,21-12.85,20.56s14.31-23.5,13.72-23.86c-.85-.54-14.42,24.07-14.87,23.79s18.61-31,17.53-31.63S243,104.89,242.27,104.42s20.83-32.2,19.93-32.77c-.65-.4-18.94,32.21-19.79,31.68s19.64-31.56,19.07-31.91-18.63,32.07-19.64,31.44S262.14,71.28,261.66,71,242.41,102.72,242,102.46c-.88-.55,20.12-29.95,19-30.63-.45-.27-19.09,31.62-19.57,31.32-1-.65,18.3-31.74,17.94-32-.54-.33-11.19,18.7-11.54,18.48-.55-.34,9.42-17.59,9-17.88-.22-.13-6.88,11.5-7.1,11.36s5-11.41,4.81-11.5-2.93,5.06-3.1,5,2-5.39,1.87-5.45-.41.7-.43.69"/><path class="cls-3" d="M274.58,77.76c-.49-.3-7.88,13.3-8.19,13.11s8.8-13.07,8.29-13.39-8.15,14-8.58,13.73,8.71-14.18,8.23-14.47c-.23-.15-7.89,13.09-8.1,13-.38-.23,8.49-14.69,8.14-14.91s-8,13.12-8.15,13c-.29-.18,7.89-15.63,7.45-15.91s-7.39,12.75-7.8,12.49,7.12-12.19,7-12.27-6.45,10.75-6.65,10.63c-.37-.23,6-10.82,5.79-11s-5.84,9.78-6,9.66,4.25-10,4.11-10.1-3.68,6.42-3.92,6.27,1.36-5.41,1.26-5.46-1.1,2-1.2,1.92.21-2.68.15-2.72-.43.7-.44.7"/><path class="cls-3" d="M287.66,78.57s-.54.88-.55.87,0-3.21-.05-3.24-1.81,3-1.86,3,2.11-4.29,2.07-4.32-2.86,4.93-3,4.83,2.91-5.33,2.72-5.45-2.64,4.51-2.76,4.43,3-5.54,2.79-5.64-3.44,6.06-3.69,5.9,2.88-7.5,2.8-7.55-4.7,7.75-4.81,7.69,4.62-8,4.4-8.1-5.51,9.46-5.8,9.28,4.73-9.62,4.49-9.77-6.78,11.7-7.16,11.46,5.74-11.24,5.51-11.39c-.45-.28-16.33,27.2-16.81,26.91C265.25,97,283,71.66,282.09,71.09c-.44-.28-15.41,25.74-15.89,25.43s13.29-23,12.53-23.52-12.42,21.32-13.07,20.92c-.36-.23,12.22-19.42,11.49-19.88-.53-.33-10.61,18.23-11.17,17.88"/><path class="cls-3" d="M275.07,104.32a4,4,0,0,1-.22.34s.48-3.11.44-3.14-2,3.38-2.08,3.33,2.13-4,2.07-4-2.48,4.17-2.57,4.12,2.79-4.57,2.71-4.63-2.27,3.93-2.4,3.85,2.59-6.15,2.4-6.28-4.49,7.37-4.57,7.31,4-7.19,3.91-7.25c-.28-.18-4.32,7.5-4.58,7.34s5-7.89,4.77-8-4.3,7.1-4.4,7c-.25-.15,5.08-9,4.75-9.25s-5.71,9.75-6,9.58,6.3-11.24,6.05-11.4-6.5,11.12-6.82,10.92,6.71-12.95,6.54-13.06-8.55,14.39-8.86,14.19S276,87,275.54,86.67s-8.79,14.86-9.15,14.64,10.19-16.9,9.68-17.22c-.29-.18-9.91,16.48-10.19,16.31"/><path class="cls-3" d="M336.92,104.11s-.4.66-.41.65S337,100,337,100s-2.8,4.71-2.91,4.64,3.09-6.11,3-6.16-3.78,6.21-3.85,6.16,3.8-6.81,3.71-6.87-4.35,7.27-4.49,7.18c-.3-.18,4.7-8,4.62-8s-5,8.53-5.23,8.38,5.22-8.79,4.92-9-4.88,8.43-5.16,8.26,5.22-8.7,5-8.86-5.12,8.63-5.32,8.51,6-9.51,5.74-9.69-6,10.41-6.35,10.17,6.23-13.45,6.07-13.55c-.49-.31-8.65,14.26-8.84,14.14-.61-.38,9.35-17,9-17.19s-8.4,14.41-8.84,14.14,9.44-14.55,8.86-14.92c-.39-.24-8.91,15.53-9.48,15.18s10-16.81,9.41-17.18c-.24-.15-8.69,14.57-9,14.38-.57-.36,10.42-17.87,9.93-18.17S327.92,98,327.54,97.81"/><path class="cls-3" d="M358.73,104.32s-.2.35-.21.34.17-3.32.12-3.35-2.05,3.57-2.18,3.48,2.15-4.32,2.06-4.37-2.29,4-2.44,3.91,2.84-4.44,2.73-4.51-3,5.13-3.15,5,3.34-7,3.25-7.1-4.14,7.22-4.41,7,4.55-9.62,4.23-9.83-5.63,9.6-5.9,9.43,6-9.17,5.69-9.37-5.63,9.74-6,9.54,6.59-13.8,6.43-13.9c-.54-.34-8.34,14.39-8.81,14.09s8.66-16.32,8.44-16.46c-.56-.35-8.48,14.35-8.83,14.13-.18-.11,9.43-14.89,8.95-15.19s-8.79,15.15-9.28,14.85c-.19-.12,9.52-15.09,9-15.39-.2-.13-8,13.76-8.42,13.47-.16-.1,8.71-15.29,8.29-15.55s-8.19,14.23-8.69,13.91c-.23-.14,9.81-16.57,9.28-16.9s-8.62,14.92-9.13,14.6,9.15-14.09,8.75-14.34c-.17-.1-8.66,14.29-8.85,14.17s9.43-15.64,9-15.91S350,94.9,349.63,94.68s9.18-16,8.6-16.38-8.13,14.13-8.63,13.81S358.31,78.3,357.85,78,350.5,90.84,350,90.54s7.77-13.24,7.59-13.35-7.41,12.47-7.68,12.29S356.67,76,356.4,75.83s-6.56,11-6.77,10.84,7-11.92,6.65-12.17S350,85.23,349.71,85s5.47-11,5.16-11.2-5.3,8.87-5.48,8.76,5.39-10.12,5.17-10.26-5,8.54-5.25,8.41,3.88-8.55,3.63-8.7c-.09-.06-4.76,7.82-4.86,7.77s4.6-8.48,4.49-8.56-4.95,8.2-5.07,8.12,3.88-8.52,3.6-8.69-4.8,8-4.93,7.9S350,71.4,350,71.35s-4.18,6.88-4.26,6.83,3.08-7.12,2.92-7.22S344.1,78.4,344,78.35s3.47-7.7,3.31-7.8-4.78,8-4.94,7.9,3.16-7.53,3.05-7.6-4.58,7.83-4.81,7.69,2.94-7.34,2.86-7.39c-.92-.58-14.46,25.29-15.42,24.69S343.75,72,343.12,71.61c-.95-.59-14.56,24.89-15.27,24.45s14.31-23.48,13.56-24-13,21.7-13.4,21.46,11.8-20,11.05-20.51c-.32-.21-10.46,18.09-11.07,17.71-.36-.22,9-15.88,8.47-16.21-.31-.2-8.63,14.8-9.07,14.52s9.59-14.71,9.05-15c-.37-.24-8.56,14.83-9.07,14.52-.33-.21,9.5-14.21,9-14.54-.21-.13-8.24,14.15-8.67,13.88S337,73,336.57,72.67,328.4,86.58,328,86.35s8.69-14.26,8.44-14.42-8.59,14.65-9,14.39,8.69-15,8.36-15.21-8,13.28-8.21,13.14,6.5-12,6.19-12.18-5.79,9.52-5.9,9.45c-.26-.16,6.35-9.48,6-9.7-.13-.08-6.23,10.46-6.45,10.32s5.48-10.11,5.18-10.29-4.62,8-4.91,7.86,4.27-8,4-8.19-3.85,6.34-3.93,6.29,2.49-6.45,2.35-6.54-2.13,3.58-2.2,3.53,1.69-3.22,1.66-3.24-1.53,2.72-1.65,2.64,0-2.67,0-2.69-.47.76-.47.76"/><path class="cls-3" d="M386.41,94.61c-.18-.11-5.59,9.48-5.84,9.33s2.66-7.54,2.5-7.64-4.37,7.56-4.62,7.4c-.1-.06,4.21-6.61,4.06-6.7s-3.72,6.14-3.8,6.09,1.89-5.9,1.76-6-3.62,6-3.72,6,1.85-6.58,1.72-6.67-3.75,6.22-3.85,6.16,3.41-6.72,3.2-6.85-4.61,7.63-4.72,7.56,4.44-7.85,4.18-8-4.41,7.51-4.61,7.38,4.75-7.43,4.54-7.56-4.27,7.11-4.39,7,3.1-7.07,2.91-7.19-3.74,6.5-4,6.35,3.19-7.52,3-7.67-4.53,7.87-4.81,7.69,4.56-10.24,4.23-10.44-5,8.44-5.19,8.3,5.32-11.58,5-11.75S367.57,98.19,367.33,98s6.9-12,6.61-12.22c-.13-.08-6.55,11.29-6.91,11.06-.11-.07,7-11,6.86-11s-6.5,10.77-6.66,10.67,6.87-13,6.71-13.08-6.85,11.94-7.29,11.66C366.43,95,375,82,374.76,81.81s-8.39,13.84-8.57,13.72"/><path class="cls-3" d="M388.55,76.27c-.09-.06-1.91,3.32-2,3.24s1.38-4.74,1.27-4.81-2.52,4.2-2.6,4.15,1.38-5.84,1.23-5.93-3.09,5.29-3.25,5.2,2.07-5.27,1.89-5.38-2.52,4.35-2.67,4.26,2.42-4.72,2.3-4.79-3.32,5.57-3.44,5.5,2.1-6.6,1.9-6.73-4.43,7.26-4.51,7.21,4.44-7.14,4.15-7.32-4.71,7.72-4.79,7.67c-.26-.16,3.26-8,3-8.16s-14.57,24.07-14.9,23.86,14-22.59,13.34-23-13.59,22.42-13.89,22.23,13.52-22,13.25-22.17c-.8-.5-12.5,21.94-13.37,21.4s11.37-20.85,10.82-21.19-10.8,18.06-11.15,17.84c-.17-.11,8.84-17.32,8.53-17.51-.5-.31-8.46,14.77-9,14.42-.32-.2,9.75-14.66,9.32-14.93-.16-.09-9.26,15.27-9.47,15.15-.46-.29,8.37-14.38,8.21-14.48s-7.09,11.9-7.34,11.74,4.82-9.82,4.7-9.89-3.92,6.7-4.11,6.59,3.37-5.65,3.25-5.73-2.62,4.44-2.73,4.37"/><path class="cls-3" d="M387,108.91c-.23-.14-5.13,8.87-5.43,8.68s3.09-6.45,2.91-6.57-3.81,6.58-4,6.45,2.27-6.84,2.06-7-4,6.65-4.1,6.56,2.54-5.41,2.44-5.48-3.61,5.92-3.67,5.88,2.56-6.09,2.4-6.19-3.07,5.23-3.21,5.14,3-5.94,2.78-6.07-3.76,6.48-4,6.35,4-6.27,3.93-6.33-3.46,5.83-3.59,5.75,2.58-6.34,2.46-6.42-3.62,6.31-3.85,6.16c-.07,0,2.94-5.13,2.79-5.23s-3.48,5.88-3.62,5.79,3.21-7.85,3.05-7.94-3.9,6.42-4,6.37,2.73-8.1,2.58-8.19-4.47,7.34-4.55,7.28,1.85-6.85,1.78-6.9-3.77,6.37-3.92,6.27,3.26-7.17,3-7.31-3.53,6-3.66,5.86,1.92-5.59,1.87-5.62-2.8,4.69-2.9,4.63,1.35-4.44,1.3-4.48-1.67,2.81-1.73,2.78-.12-2.5-.17-2.54-.16.26-.16.25"/><path class="cls-3" d="M396.18,109c-.12-.07-2,3.27-2,3.25s3.22-5.77,3-5.89-4.76,7.87-4.87,7.8c-.37-.24,5.16-11.38,5-11.46-.41-.26-7.69,12.76-7.89,12.64s8.06-12.76,7.65-13c-.24-.15-8.39,14.13-8.71,13.94s9.3-17.35,8.79-17.67-11,18.81-11.53,18.45c-.84-.52,12.9-22.45,12.1-23-.63-.39-13.62,23.32-14.3,22.89-.48-.29,14.79-26,14.27-26.29-.16-.1-8.44,14.58-8.92,14.27-.25-.15,8.78-14.57,8.32-14.85-.22-.14-7.62,13.29-8.11,13s8.62-16.6,8.1-16.93S389.52,99.39,389,99.09s9.17-14.76,8.73-15-9.06,15.06-9.31,14.9,9-14.11,8.77-14.23c-.48-.3-9,15.53-9.5,15.2s10.52-15.77,10-16.11-9.4,16.45-10,16c-.24-.15,10.11-15.67,9.49-16S387,101.56,386.33,101.14c-.39-.25,11.66-22,11.41-22.18-.86-.53-14.53,24.92-15.28,24.46s15.32-26.23,15-26.43-9.29,15.59-9.62,15.39c-.17-.11,9.78-16.11,9.29-16.41-.3-.19-7.74,13.34-8.17,13.08s8.79-15.56,8.3-15.86c-.2-.13-7.85,13-8,12.84-.38-.24,7-13.64,6.63-13.87s-6.73,11.79-7.18,11.5c-.13-.07,6.74-11.79,6.49-12s-6.43,11.24-6.86,11,7-11.15,6.69-11.35S388.78,82.2,388.38,82s5.3-10.75,5.06-10.89-6.18,10.18-6.31,10.1c-.3-.18,4.19-9.26,4-9.38s-1.86,3.17-1.94,3.12,0-3.31,0-3.36-.64,1-.64,1"/><path class="cls-3" d="M414.13,104.35s-.23.39-.24.38,0-2.47-.1-2.51-1.36,2.43-1.47,2.36,2.22-6.48,2.06-6.58-3.79,6.41-3.95,6.31,3.5-8.08,3.4-8.14-5,8.38-5.17,8.27c-.38-.23,5.53-11.4,5.12-11.65-.16-.11-7.06,11.89-7.33,11.72s8.12-13.89,7.89-14-8.45,14.25-8.78,14,9.16-17.26,8.87-17.44-8.9,14.63-9.08,14.53c-.55-.35,9.11-15.81,8.65-16.1s-8.76,14.92-9.17,14.67,9.53-17.53,9.1-17.8-8.32,14.47-8.84,14.14,9.33-15,8.88-15.29-8.56,14.73-9,14.44,9.33-16.07,9.05-16.25-8.43,14.15-8.72,14,9-14,8.71-14.2-8.44,14.3-8.8,14.07,9.62-18.15,9.08-18.49-8.93,15-9.24,14.78c-.62-.4,10.07-16.86,9.47-17.23-.32-.2-9.35,15.91-9.77,15.64-.69-.43,9.63-17.89,9.34-18.07-.52-.32-9,15.13-9.32,14.93-.57-.36,9.79-15.75,9.23-16.09s-8.85,14.63-9.06,14.5,9.77-15.64,9.18-16c-.21-.13-8.4,14.69-9,14.34-.25-.16,9.43-16.12,9-16.39-.21-.13-9.06,15.23-9.39,15-.54-.33,9.6-16.31,9.09-16.62s-8.65,14.67-9,14.43,9.92-15.85,9.58-16.07c-.15-.09-8.88,15.1-9.28,14.85-.58-.36,9.34-17.45,9-17.65s-8.51,14-8.69,13.91,7.79-14.11,7.47-14.31S405.36,71.53,405,71.33s6-11.62,5.7-11.81-5.59,9.24-5.72,9.16c-.32-.2,6.33-10,5.93-10.23-.15-.09-5.82,9.91-6.09,9.74s6.05-9.71,5.91-9.8-5,8.74-5.34,8.54,2.3-7.38,2.13-7.48-2.48,4.25-2.6,4.18,2.75-4.78,2.58-4.89-2.33,4-2.45,3.91.77-3.82.68-3.88-.3.53-.32.51-.37.07-.39.06-.24.41-.25.41"/><path class="cls-3" d="M467,77.22c-.26-.16-8.42,14.37-8.82,14.12s8.8-16.4,8.45-16.62-8.57,14.1-8.75,14c-.62-.39,9.07-17.4,8.62-17.68-.17-.1-7.95,13.52-8.3,13.3s5.73-12.39,5.55-12.5-5.2,8.9-5.46,8.74,5.47-9.41,5.29-9.52-5.53,9.11-5.65,9,3.4-8.71,3.27-8.79-3.11,5.13-3.18,5.08.92-4.27.87-4.3-.88,1.49-.91,1.46.62-2.25.59-2.27-.5.81-.51.81.19-.37.18-.37-.41.66-.41.66"/><path class="cls-3" d="M479.35,79.25s-.4.67-.41.66.18-2.4.13-2.44-1.34,2.28-1.4,2.24,1.77-6,1.59-6.16-3.09,5.19-3.2,5.12,3-7.23,2.84-7.35-4.64,7.63-4.73,7.58c-.26-.16,4.05-8.4,3.88-8.51s-5.62,9.39-5.8,9.28c-.35-.22,5-9.16,4.85-9.26S471.05,81,470.65,80.73c-.12-.08,4.59-9.24,4.43-9.34-.38-.24-16.41,28.18-17.27,27.63-.62-.38,18.23-28,17.52-28.43-1-.65-16.2,28.27-17.25,27.61-.55-.34,17.22-26.34,16.33-26.9-1-.65-15.52,26.07-16.07,25.72s14.06-24.7,13.57-25c-.24-.15-12.71,22-13.47,21.55-.38-.23,12.5-20.62,12.29-20.75s-12,20.51-12.59,20.15,11-17.65,10.53-18-9.9,16.69-10.28,16.46"/><path class="cls-3" d="M467.47,103.86s-.44.74-.46.74.32-1.78.27-1.81-.75,1.35-.81,1.31,1-4.51.81-4.61-3.32,5.75-3.52,5.63,3.38-6.84,3.12-7-3.62,6.15-3.78,6,4.45-10.16,4.22-10.3-6.83,11.51-7.1,11.35c-.51-.33,7.46-14.81,7.19-15S459,104.8,458.5,104.5c-.33-.21,8.81-14.91,8.45-15.13-.53-.33-8.41,13.87-8.6,13.76-.51-.32,10.69-18.92,10-19.34-.37-.23-9.78,16.88-10.33,16.54"/><path class="cls-2" d="M78.16,81s-.08.13-.08.12-.31-1.84-.37-1.88-1,1.79-1.08,1.73,1.16-2.63,1.13-2.65-2.14,3.49-2.18,3.47,1.58-4.56,1.43-4.65-2.31,4-2.46,3.93,1.88-4.92,1.73-5-2.93,5-3.07,4.91,3.43-5.31,3.31-5.38-3.47,5.93-3.64,5.82S75,74.83,74.8,74.7s-3.68,6.37-3.89,6.23,4.12-6.63,4-6.7-4.32,7.11-4.41,7.06,3.24-7.81,3-8c-.09-.06-4.08,7.1-4.34,6.94s4.2-7.56,4.07-7.64-3.85,6.51-4,6.41,2.29-7,2.13-7.14-3.86,6.54-4,6.44,3-6,2.85-6S66.77,78.07,66.61,78s2-6.65,1.93-6.69-3.74,6.24-3.86,6.17,2.49-6.46,2.4-6.52-3.9,6.41-4,6.36,2.76-6.5,2.63-6.58-3.31,5.83-3.54,5.68S65.6,71.11,65.43,71s-3.77,6.48-4,6.35,3.4-6.65,3.24-6.75-3.91,6.61-4.07,6.51,1.92-6,1.79-6.08c-.37-.23-9.77,16.71-10.26,16.41s9.42-16,9-16.3-9.23,15.4-9.52,15.23S61.19,70.71,61,70.58c-.41-.26-9.49,16-9.86,15.77s10-15.84,9.72-16-9.29,15.51-9.58,15.33,7.93-13.88,7.39-14.22c-.38-.23-8.11,13.6-8.39,13.43S57.68,71.2,57.32,71s-7.53,12.75-7.85,12.56S54.2,73.34,54,73.19s-4.61,7.64-4.72,7.57,2.08-5.39,2-5.46a22.76,22.76,0,0,0-1.24,2"/><path class="cls-2" d="M69.17,97.49c-.21-.13-5.18,8.68-5.35,8.57s4.12-7.6,3.85-7.77-4.29,7.19-4.43,7.1,4.07-6.77,3.92-6.86-4.28,7.33-4.49,7.19,3-6.08,2.87-6.15-3.39,5.67-3.5,5.6,1.32-5.24,1.15-5.35-3.47,6-3.65,5.85,3-6.53,2.85-6.62-3.59,6.06-3.74,6,1.88-5.59,1.68-5.71-3.22,5.31-3.29,5.26,2.17-6.5,2-6.6-3.55,6.2-3.78,6S58,97.38,58,97.34s-3.4,5.72-3.52,5.64,3-7.66,2.85-7.78-3.93,6.74-4.13,6.62,2.28-7.33,2.17-7.4-3.62,6.13-3.77,6,3.28-6.7,3.19-6.75S51,99.82,51,99.77,53.47,94,53.38,93.9s-3.29,5.66-3.47,5.55,1.09-5.53,1-5.58-2.15,3.58-2.21,3.54.63-3.27.57-3.31-.6,1.05-.64,1,0-1,0-1.05-.38.61-.38.61"/><path class="cls-2" d="M78.37,98.28c-.09-.06-1.68,2.86-1.76,2.81s2.3-4.31,2.25-4.34c-.2-.12-3.27,5.64-3.45,5.53s3.46-5.48,3.3-5.58-3.45,5.85-3.59,5.76,3.88-6.55,3.69-6.67-4.18,7.2-4.41,7.06,4.62-7.46,4.34-7.63-4.87,8.51-5.2,8.31S79.1,91.2,78.83,91s-8.25,13.79-8.52,13.63S78,90.46,77.78,90.33s-9.12,15.41-9.49,15.18,9.59-16.43,9-16.81c-.46-.29-10,17.19-10.52,16.83-.21-.13,9.84-16.81,9.64-16.94s-10.07,17.25-10.58,16.93c-.22-.14,10.91-17.34,10.3-17.72C75.9,87.67,65.52,106,65,105.66s11.45-18,11.27-18.09c-.34-.2-10.62,17.54-10.86,17.38-.6-.37,10.46-17.17,9.83-17.56-.25-.16-4.71,8.06-5,7.92s5.17-8.25,5-8.36-4.79,7.93-4.9,7.86c-.26-.16,4.47-8.08,4.34-8.16s-4.82,8.13-5,8,3.66-7.93,3.5-8-4.11,7-4.32,6.91,4.35-7.33,4.27-7.39c-.25-.15-4.23,7.31-4.48,7.16s3.61-7.6,3.49-7.68-3.83,6.47-4,6.38,3.59-5.94,3.46-6-3.89,6.5-4,6.42,2.66-7.55,2.41-7.7-4.28,7.22-4.45,7.12,4.29-7.18,4.06-7.32S65.15,91.9,65,91.83s3.19-7.16,3-7.28-4.24,7.33-4.49,7.17,3-7.53,2.79-7.69-3.73,6.19-3.83,6.12,1.65-5.65,1.5-5.74-3.49,5.83-3.6,5.76,3.08-6,2.92-6.08S60,89.77,59.82,89.67s1.92-5.81,1.83-5.86-3.63,6-3.71,5.93,2.76-6.6,2.55-6.73-4.14,6.89-4.26,6.82,4.71-7.32,4.57-7.41-4.27,7.25-4.46,7.13,3.12-6.72,3-6.8-3.45,5.9-3.62,5.79S58.5,81,58.28,80.9s-4.69,7.79-4.82,7.71,4.74-8.85,4.63-8.92c-.34-.22-4.54,7.58-4.68,7.49"/><path class="cls-2" d="M188.05,93.87c-.23-.14-5.18,9.06-5.52,8.85-.19-.11,5.13-8.11,5-8.19-.31-.2-4.85,8.12-5,8-.34-.21,4.67-9.12,4.53-9.2s-4.58,8.05-4.9,7.85,4.57-10.94,4.45-11-5.59,9.19-5.7,9.12c-.31-.2,5.18-11.14,5.06-11.21-.28-.18-5.29,8.71-5.4,8.64-.36-.23,5.07-9.69,4.71-9.92s-5.32,9.25-5.65,9,5.94-10.39,5.58-10.62-5.82,9.87-6.07,9.71,5.74-10.6,5.55-10.72-5.45,9.08-5.62,9,5.41-9.82,5.11-10-5.81,9.66-6,9.56c-.39-.24,5.42-11,5.13-11.18s-5.25,8.88-5.46,8.74c-.42-.26,5.82-11.13,5.47-11.35s-5.58,9.6-5.88,9.41,5.22-10.52,5-10.65-6,10.29-6.3,10.08,6-11.53,5.7-11.72-5.64,9.79-6,9.57c-.16-.1,5.7-11.37,5.45-11.52s-5.63,9.44-5.82,9.32,5.1-10.75,4.76-11-5.67,9.76-6,9.57,4.37-10.34,4.09-10.51-5,8.33-5.14,8.21,3.49-8.63,3.23-8.79c-.08,0-3.71,6.18-3.82,6.11s3.55-5.63,3.33-5.77-3.54,5.94-3.67,5.86,3.15-5.8,3-5.88-2.43,4.28-2.61,4.17,1.75-3.29,1.7-3.32-2.08,3.43-2.13,3.4.2-3.34.14-3.38-.76,1.29-.8,1.26-.38-2.29-.42-2.32-.69,1.12-.7,1.11"/><path class="cls-2" d="M181.21,108.07c-.26-.16-5.2,8.58-5.32,8.5s3.1-8,3-8.08-4.41,7.55-4.63,7.41,3.48-6.91,3.33-7-3.86,6.54-4,6.44,2.35-6.53,2.21-6.62-1.86,3.13-1.93,3.08,1.8-3.09,1.76-3.12-1.85,3.08-1.9,3,1.69-3,1.66-3-1.4,2.43-1.48,2.38,1.18-2.87,1.15-2.89-.75,1.33-.81,1.29.22-1.19.19-1.21-.39.65-.4.65.08-.44.06-.45l-.19.32"/><path class="cls-2" d="M190.48,109.58c-.11-.07-2.12,3.53-2.18,3.49s4.64-9.44,4.42-9.58-7.15,11.83-7.32,11.72c-.5-.31,9.29-15.28,8.85-15.55-.16-.11-9.81,16.36-10.1,16.17s12.66-20.89,11.92-21.36-12.63,22-13.44,21.5c-.63-.39,15.23-25,14.84-25.28-.67-.42-15.2,25.61-15.78,25.25-1.05-.65,18.31-30.79,17.95-31-.68-.42-18.64,31.67-19.47,31.15s20.64-32.23,20.11-32.57-19.65,33-20.34,32.54c-1.31-.82,24.45-42.13,24-42.42S179.11,117.1,177.42,116c-1.54-1,27.76-41.27,26.3-42.18-1-.6-24.89,43.54-26.55,42.5-.71-.45,26.43-43.82,25.73-44.26s-19.34,33.26-20.38,32.61c-.52-.33,19.13-32.28,18.54-32.65S189.45,91.42,189.11,91.2c-.64-.39,11.41-19.7,10.72-20.14-.22-.13-8.33,14.45-8.83,14.14-.15-.1,7-13.61,6.54-13.92-.16-.1-4.51,7.67-4.71,7.54s4-7.4,3.87-7.51-3,5.16-3.17,5.07,2.31-5,2.14-5.14c0,0-.56.94-.58.93"/><path class="cls-3" d="M452.64,90.09l-.26.43c-.06,0,.56-2,.52-2s-.74,1.31-.8,1.28.71-1.31.68-1.32-1.2,2-1.22,2,1.26-4.58,1.19-4.62-2.92,4.87-3,4.82S452.38,85,452.28,85s-3.25,5.49-3.38,5.41,2.63-7.59,2.52-7.66-4.14,7.14-4.37,7,4-9.55,3.66-9.74-6.51,10.68-6.63,10.61,6.89-11.13,6.49-11.38c-.25-.15-6.54,11-6.79,10.86s6.79-10.67,6.66-10.75S444,90.15,443.77,90s7.26-11.68,6.87-11.93c-.23-.14-7.3,12.2-7.53,12.06-.47-.29,7.89-11.76,7.42-12s-7.68,12.72-7.87,12.6c-.35-.22,6.93-14.52,6.69-14.67s-8.89,15.13-9.29,14.87c-.15-.09,9.08-14.25,8.72-14.48-.1-.05-4.76,7.89-4.89,7.82s4.71-8.64,4.38-8.85-4.24,7.46-4.54,7.27,3.2-7.88,3.07-8-4,6.5-4,6.46,3.5-7.08,3.42-7.14-4.25,7-4.33,6.92,2.69-7.45,2.5-7.57-3.64,6-3.72,6,3.83-7.39,3.72-7.45-3.87,6.49-4,6.41,3.36-6.2,3.28-6.26-3.42,5.76-3.55,5.68,1.67-5.82,1.56-5.89S437.88,78,437.78,78s3.5-7.15,3.42-7.2-4.19,7-4.34,7,2.27-6.46,2.14-6.54-3.69,6.18-3.81,6.1S437,71,436.83,70.94s-4.5,7.42-4.6,7.36,4-7.65,3.88-7.71c-.27-.17-14.58,24.52-15.11,24.19-.88-.55,14.59-23.71,14-24.07-.8-.5-14,23.53-14.49,23.2-.32-.2,12-22,11.49-22.32S419.9,91.46,419.68,91.33c-.67-.42,12.16-18.91,11.53-19.3s-11.09,18.19-11.29,18.06c-.65-.4,10.61-17.73,10-18.14-.46-.28-9.51,16.52-10.09,16.16-.3-.19,9.18-14.77,8.8-15s-8.14,13.53-8.36,13.39c-.43-.27,7.19-12.61,6.89-12.8s-6.36,11-6.74,10.79c-.19-.11,4.31-8.94,4.2-9s-2.88,4.88-3,4.8,2.43-3.77,2.29-3.86-2.22,3.68-2.28,3.64"/><path class="cls-3" d="M443.73,84.11c-.16-.1-3.56,5.9-3.66,5.84s3.2-5.11,3.05-5.2S440,90,439.88,89.94s1.31-5.81,1.18-5.89-3.59,6.21-3.8,6.08c-.06,0,2.52-5.61,2.37-5.7s-3.63,6.23-3.82,6.11,1.88-5.58,1.77-5.64-3,5.16-3.16,5.06,2.13-4.79,2.05-4.84-3.43,5.79-3.57,5.71,1.75-5.91,1.69-6-2.92,5-3,4.89,3.3-5.14,3.21-5.19-3.4,5.66-3.5,5.6,1.32-5.26,1.26-5.3-3.35,5.78-3.54,5.66,2.2-6.36,2.12-6.4c-.26-.17-8,13.58-8.36,13.38s8.21-12.6,7.81-12.86-8,14-8.54,13.66,8.76-13.77,8.62-13.86c-.36-.23-7.87,13-8.07,12.91s6.8-13,6.42-13.25-7.47,12.65-7.78,12.46,8.88-14.4,8.31-14.75c-.27-.17-8.56,14.14-8.76,14"/><path class="cls-3" d="M442.83,96.49c-.28-.17-5.57,9.33-5.75,9.22s2.13-6.51,1.93-6.64-3.54,6.2-3.77,6.05,1.65-6,1.48-6.09-3.33,5.73-3.51,5.62,3.11-6,3.05-6c-.22-.14-3.93,6.5-4,6.44s1.54-6.23,1.41-6.31-3.51,6.09-3.72,6,2.07-6.61,2-6.68-3.56,5.94-3.67,5.87,2.78-6.82,2.68-6.89-3.34,5.82-3.55,5.69,2.9-7.4,2.71-7.52-4.06,6.7-4.15,6.64,3.39-7.6,3.29-7.66-3.9,6.44-4,6.38c-.25-.15,4.38-7.68,4.22-7.78s-4.93,8.35-5.14,8.22,4.63-7.56,4.45-7.67-4.58,7.85-4.82,7.7,5.27-8.09,5-8.26c-.11-.07-4.34,7.49-4.58,7.34s5-8.74,4.73-8.93-5,8.76-5.34,8.56,5.75-8.79,5.4-9c-.13-.08-5.64,9.41-5.81,9.3s6-9.79,5.8-9.91-5.86,10-6.14,9.84"/><path class="cls-3" d="M451.51,96.25c-.14-.09-2.4,4-2.49,4s2.25-5.83,2.05-6-5.46,9.08-5.61,9,3.78-8.77,3.46-9-6.5,10.82-6.68,10.7,6.59-10.33,6.35-10.48-6.06,10.34-6.34,10.16,5.46-9.45,5.22-9.6-5.66,10-6.07,9.72c-.26-.16,5.45-9.75,5.26-9.87s-6.4,10.53-6.53,10.44,5.64-10.5,5.42-10.63c-.39-.25-6.51,10.8-6.68,10.69s6-10.85,5.61-11.11-6.47,11.32-6.9,11"/><path class="cls-3" d="M299.83,81s-.26.45-.27.44.26-1.19.24-1.2-.7,1.2-.74,1.17"/><path class="cls-3" d="M309.23,98.2c-.17-.1-4.27,7.33-4.49,7.19s4.5-6.83,4.32-6.94-3.75,6.61-4,6.43c-.11-.07,2.1-5.9,2-6s-3.71,6.23-3.85,6.15,2.67-6,2.57-6.06-3.87,6.46-4,6.39,1.85-5.54,1.73-5.61-3.33,5.54-3.42,5.48,2-5.37,1.89-5.45-3.23,5.34-3.3,5.29,2.58-6.54,2.36-6.68-3.76,6.42-3.94,6.31,2.85-7,2.74-7.12-4.3,7.09-4.39,7,3.22-7,3.12-7.09-3.84,6.33-3.93,6.28c-.27-.17,3.92-7.84,3.79-7.92s-4.28,7.36-4.51,7.22,4.74-8.29,4.65-8.34c-.33-.21-5.21,8.67-5.36,8.57s5.7-9.36,5.54-9.46c-.37-.23-5.61,9.49-5.84,9.34"/><path class="cls-3" d="M310.7,83.32c-.18-.11-3.82,6.62-4,6.48-.06,0,1.43-5.21,1.28-5.3s-3.53,5.93-3.65,5.85,1.61-4.83,1.5-4.9-2.88,4.78-3,4.73,2.81-5.31,2.66-5.41-3.67,6.3-3.86,6.18,3.52-5.35,3.38-5.43-3.71,6.22-3.84,6.14,3.79-6,3.63-6.14-3.1,5.47-3.33,5.33,2.4-6,2.34-6-11.13,18.21-11.31,18.1c-.44-.27,10.64-17.71,10.14-18s-10.7,17.52-10.88,17.41c-.58-.37,10.39-17.18,10.09-17.37s-10.2,17.12-10.56,16.9c-.16-.1,7.53-15.15,7.15-15.39s-7.94,13.72-8.4,13.44c-.16-.1,8.7-14,8.23-14.25C298,85.47,290.12,99,290,98.92c-.29-.18,7.29-11.8,6.82-12.09s-7.05,11.54-7.16,11.46c-.32-.2,6.79-11.5,6.42-11.73-.14-.09-6.44,10.76-6.65,10.64s4.66-9.43,4.48-9.54-4.3,7.3-4.49,7.18,4.75-7.44,4.58-7.55-4.08,6.87-4.23,6.77,2.52-5.1,2.37-5.19-1.8,3.07-1.88,3"/><path class="cls-3" d="M321.4,104.79s-.2.31-.2.31-.24-1.86-.29-1.9-1,1.69-1,1.65,1-3.58.9-3.65-2.27,3.89-2.39,3.81,2.57-4.33,2.52-4.36-2.33,3.84-2.38,3.81,1.93-4.12,1.82-4.19-2.69,4.6-2.82,4.52,3-6.74,2.83-6.85-3.65,6.34-3.87,6.2,4.52-8.55,4.39-8.64c-.29-.18-5.82,9.73-6,9.61S321.38,94.76,321,94.5s-6.14,10.61-6.49,10.39,6.64-10.53,6.44-10.66-5.84,10.09-6.17,9.88c-.17-.1,5.92-10.62,5.55-10.85s-6.65,11.64-7.1,11.36,7.78-13,7.44-13.19c-.14-.09-7.75,13.34-8.17,13.08s8.87-14.51,8.4-14.81c-.19-.12-8.48,14.32-8.82,14.11-.66-.41,9.41-17.53,8.77-17.92-.21-.13-10,17.09-10.48,16.77-.24-.15,10.72-20,10.33-20.19-.56-.35-13.25,22.85-14,22.39-.38-.23,14.64-22.51,14.11-22.84s-13.84,23.18-14.3,22.89,15.2-23.12,14.38-23.64c-.48-.3-14.18,23.64-14.6,23.37s15.25-23.47,14.34-24c-.29-.19-14.37,24.18-14.9,23.85-.83-.51,15.5-26.44,15.08-26.71s-9.11,15-9.28,14.85,9.45-15.82,8.83-16.21-8.1,14.1-8.61,13.78c-.26-.16,7.75-14.76,7.26-15.07s-8,13.77-8.44,13.51,7.51-14.37,7-14.68S308.21,89.34,308,89.21s10-15.29,9.47-15.61-9.72,16.79-10.27,16.45c-.35-.22,9.68-17.32,9.42-17.49s-4.44,7.78-4.74,7.59c-.1-.06,4.45-7.55,4.18-7.72s-4.51,7.81-4.77,7.65c-.1-.06,4.28-7.34,4.06-7.48s-4.27,7.06-4.37,7,4.75-7.32,4.55-7.44-3.79,6.63-4,6.47,4-6.65,3.76-6.8c-.08,0-3.74,6.42-3.93,6.3s3.33-6.42,3.14-6.54-3.7,6.15-3.8,6.09,3.42-6,3.22-6.07S310,78,310,77.9s3.41-6.68,3.25-6.78-3.91,6.76-4.14,6.62,3.81-6.68,3.69-6.75-3.41,5.63-3.49,5.57,3.4-5.62,3.29-5.69-3.49,6-3.67,5.87,2-5.48,1.83-5.57-3.44,5.7-3.53,5.65,2.83-5.36,2.73-5.42-3.42,5.67-3.52,5.62,2.63-5.6,2.53-5.66-2.86,4.88-3,4.79,2.32-5,2.22-5.08-3.32,5.75-3.51,5.62,1.48-6.09,1.42-6.13-4.73,7.85-4.86,7.77,3.22-7.2,3.05-7.31c-.42-.26-6.1,10.49-6.42,10.29s6.92-10.61,6.5-10.87-7,11.42-7.09,11.34,6.1-11.08,5.86-11.23-6.67,11-6.83,10.93,6.19-10.37,6-10.49-6.25,10.7-6.57,10.5,5.81-10.14,5.55-10.31-6.06,10.55-6.44,10.31c-.17-.1,4.35-9.53,4.19-9.63s-5.61,9.8-6,9.57c-.09-.06,3.05-7.94,2.88-8.05-.34-.22-4.81,8.09-5,8s4.26-7.64,4.1-7.74-4.37,7.5-4.6,7.36,4-6.26,3.75-6.41-2.89,4.84-3,4.77,2-3.72,1.82-3.81-2,3.26-2,3.24"/><polygon class="cls-4" points="506.37 154.37 505.38 154.22 507.75 138.29 509.96 150.29 512.55 145.5 514.96 148.15 516.55 149.82 518.42 148.29 519.98 149.41 522.1 132.9 524.7 141.46 526.53 145.78 527.69 146.24 529.74 133.94 531.96 137.68 533.45 135.37 536.07 131.78 538.15 142.93 539.85 143.18 541.59 143.92 544.98 142.6 546.9 129.07 549.57 122.94 551.62 140.13 553.2 139.09 555.13 140.93 556.95 139.75 558.89 140.53 560.38 139.66 562.29 109.47 563.28 109.44 565.21 123.97 567.12 130.48 568.8 134.16 570.26 133.39 572.42 132.63 574.06 133.14 575.87 128.49 577.76 125.69 579.96 119.6 582.01 121.93 583.58 119.54 585.43 117.53 587.35 71.28 589.64 41.95 592.2 60.14 595.96 107.01 600.55 95.25 602.96 101.12 604.78 104.82 606.71 105.57 608.13 108.4 610.24 100.2 612.6 110.8 614.39 113.19 616.23 114.17 618.01 115.39 619.82 114.94 622.05 115.3 623.65 117.36 625.49 114.34 627.86 116.11 629.83 118 631.77 120.03 631.05 120.72 629.12 118.7 627.21 116.88 625.77 115.8 623.75 119.11 621.5 116.23 619.87 115.96 617.82 116.47 615.71 115.03 613.66 113.88 611.64 111.13 610.17 104.48 608.43 111.23 605.99 106.36 604.06 105.61 602.04 101.53 600.57 97.94 595.31 111.43 591.21 60.25 589.92 51.14 588.35 71.34 586.41 117.94 584.36 120.15 582.13 123.57 580.32 121.53 578.63 126.19 576.73 129 574.65 134.37 572.44 133.68 570.66 134.3 568.34 135.54 566.19 130.82 564.24 124.18 562.96 114.62 561.34 140.25 558.97 141.64 557.06 140.87 555.02 142.2 553.09 140.36 550.82 141.85 549.01 126.73 547.85 129.41 545.89 143.32 541.57 145 539.52 144.13 537.3 143.83 535.51 134.24 534.27 135.94 531.92 139.58 530.28 136.81 528.47 147.63 525.77 146.56 523.76 141.8 522.5 137.64 520.76 151.21 518.46 149.55 516.47 151.18 514.22 148.83 512.76 147.22 509.5 153.27 507.85 144.37 506.37 154.37"/><path class="cls-5" d="M97.34,105.25a27.88,27.88,0,0,1-4.08-.29,10,10,0,0,1-3.51-1.19,6.52,6.52,0,0,1-2.46-2.56,9,9,0,0,1-.89-4.28v-19H80.89V70.81H86.4V60.88H96.49v9.93h6.67V77.9H96.49V93.79c0,1.74.34,2.44.63,2.73s1,.62,2.72.62c.49,0,1,0,1.43-.06a12.49,12.49,0,0,0,1.29-.19l.6-.12v8.08l-.42.07a21.91,21.91,0,0,1-2.62.26C99.17,105.23,98.24,105.25,97.34,105.25ZM81.89,76.9H87.4v20a8,8,0,0,0,.77,3.8,5.53,5.53,0,0,0,2.08,2.18A9.28,9.28,0,0,0,93.41,104a36,36,0,0,0,6.66.22c.75,0,1.45-.1,2.09-.19V98c-.26,0-.53.07-.8.09a15,15,0,0,1-1.52.07c-1.69,0-2.81-.3-3.43-.92s-.92-1.73-.92-3.43V76.9h6.67V71.81H95.49V61.88H87.4v9.93H81.89Z"/><path class="cls-5" d="M123.09,105.76a20,20,0,0,1-7.23-1.25,15.56,15.56,0,0,1-5.55-3.61,16,16,0,0,1-3.57-5.65,20.6,20.6,0,0,1-1.25-7.35,20.85,20.85,0,0,1,1.25-7.38h0a15.6,15.6,0,0,1,9.12-9.32,19.32,19.32,0,0,1,7.23-1.29,19.55,19.55,0,0,1,7.26,1.29,15.52,15.52,0,0,1,9.16,9.32,20.89,20.89,0,0,1,1.25,7.38,20.6,20.6,0,0,1-1.25,7.35,16.07,16.07,0,0,1-3.57,5.65,15.5,15.5,0,0,1-5.59,3.61A20.22,20.22,0,0,1,123.09,105.76Zm0-34.85a18.39,18.39,0,0,0-6.86,1.22,14.67,14.67,0,0,0-8.56,8.74h0a20.05,20.05,0,0,0-1.18,7,19.8,19.8,0,0,0,1.18,7,15.08,15.08,0,0,0,3.35,5.3,14.72,14.72,0,0,0,5.2,3.38,19.11,19.11,0,0,0,6.87,1.18,19.36,19.36,0,0,0,6.9-1.18,14.62,14.62,0,0,0,5.24-3.38,15.05,15.05,0,0,0,3.34-5.3,19.62,19.62,0,0,0,1.19-7,19.86,19.86,0,0,0-1.19-7A14.56,14.56,0,0,0,130,72.13,18.71,18.71,0,0,0,123.09,70.91Zm0,28.06A8,8,0,0,1,119,98a7.53,7.53,0,0,1-2.65-2.58A10.76,10.76,0,0,1,115,91.88a20.2,20.2,0,0,1-.4-4,20.48,20.48,0,0,1,.4-4,10.35,10.35,0,0,1,1.38-3.57,7.5,7.5,0,0,1,6.73-3.56,8,8,0,0,1,4.13,1,7.8,7.8,0,0,1,2.67,2.56,10.55,10.55,0,0,1,1.38,3.57,20.47,20.47,0,0,1,.39,4,20.12,20.12,0,0,1-.39,4,10.78,10.78,0,0,1-1.38,3.55A7.37,7.37,0,0,1,127.21,98,8.18,8.18,0,0,1,123.09,99Zm0-21.2a6.92,6.92,0,0,0-3.58.85,7,7,0,0,0-2.31,2.25A9.48,9.48,0,0,0,116,84.09a19.46,19.46,0,0,0-.38,3.81,18.86,18.86,0,0,0,.38,3.78h0a9.75,9.75,0,0,0,1.25,3.23,6.44,6.44,0,0,0,2.29,2.23,7.06,7.06,0,0,0,3.59.83,7.3,7.3,0,0,0,3.63-.83A6.37,6.37,0,0,0,129,94.91a10.21,10.21,0,0,0,1.25-3.23,18.86,18.86,0,0,0,.37-3.78,19.3,19.3,0,0,0-.37-3.81A9.5,9.5,0,0,0,129,80.87a6.76,6.76,0,0,0-2.33-2.24A7,7,0,0,0,123.09,77.77Z"/><path class="cls-5" d="M155.75,104.93h-10.1V70.81h9.65v4.83a12.8,12.8,0,0,1,1-1.35A12.07,12.07,0,0,1,158.88,72a12.6,12.6,0,0,1,3.14-1.5,11.26,11.26,0,0,1,3.48-.54,7.89,7.89,0,0,1,2.13.34l.35.11V79.8l-.59-.12c-.42-.08-.92-.16-1.5-.22a10.74,10.74,0,0,0-5.68.69,6.82,6.82,0,0,0-2.6,2.12,8.79,8.79,0,0,0-1.43,3.18,18.43,18.43,0,0,0-.43,4Zm-9.1-1h8.1V89.5a18.57,18.57,0,0,1,.46-4.27,9.66,9.66,0,0,1,1.59-3.55,7.9,7.9,0,0,1,3-2.43,11.57,11.57,0,0,1,6.23-.78l1,.12V71.11a6.3,6.3,0,0,0-1.48-.2,10.52,10.52,0,0,0-3.18.49,12,12,0,0,0-2.89,1.38A11.07,11.07,0,0,0,157,74.93a10.58,10.58,0,0,0-1.65,2.72l-.13.31h-1V71.81h-7.65Z"/><path class="cls-6" d="M252.08,104.93H242l-5.57-21-5.32,21H220.92L210.1,70.81h10.67L226.52,92l5.2-21.23h9.62L246.67,92l5.75-21.19h10.42Zm-9.33-1h8.6l10.13-32.12h-8.29L247.1,94.23h-.9l-5.64-22.42H232.5L227,94.29h-.91L220,71.81h-8.55l10.19,32.12h8.66L236,81.7h.9Z"/><path class="cls-6" d="M275.6,104.93H265.5V70.81h9.65v4.83a11.5,11.5,0,0,1,1-1.35A11.84,11.84,0,0,1,278.73,72a12.7,12.7,0,0,1,3.13-1.5,11.37,11.37,0,0,1,3.49-.54,7.83,7.83,0,0,1,2.12.34l.36.11V79.8l-.59-.12c-.42-.08-.92-.16-1.5-.22a10.81,10.81,0,0,0-5.69.69,7,7,0,0,0-2.6,2.12A8.77,8.77,0,0,0,276,85.45a17.84,17.84,0,0,0-.43,4Zm-9.1-1h8.1V89.5a18.57,18.57,0,0,1,.46-4.27,9.5,9.5,0,0,1,1.59-3.55,7.9,7.9,0,0,1,3-2.43,11.57,11.57,0,0,1,6.23-.78l1,.12V71.12a5.92,5.92,0,0,0-1.48-.21,10.52,10.52,0,0,0-3.18.49,12,12,0,0,0-2.89,1.38,10.84,10.84,0,0,0-2.39,2.15,10.58,10.58,0,0,0-1.65,2.72l-.13.31h-1V71.81H266.5Z"/><path class="cls-6" d="M359.26,104.93h-10.1V85.72a11.21,11.21,0,0,0-1.2-5.85c-.76-1.2-2.11-1.78-4.13-1.78-2.33,0-4,.66-5,2s-1.56,3.72-1.56,7v17.86h-10.1V70.81h9.65v3.76a10.62,10.62,0,0,1,4-3.3,13.6,13.6,0,0,1,5.85-1.36,16,16,0,0,1,6.19,1,9.33,9.33,0,0,1,3.88,2.91,11,11,0,0,1,2,4.49,27.16,27.16,0,0,1,.56,5.71Zm-9.1-1h8.1V84.06a26.53,26.53,0,0,0-.53-5.5,10.25,10.25,0,0,0-1.8-4.1,8.46,8.46,0,0,0-3.48-2.59,14.9,14.9,0,0,0-5.8-1,12.51,12.51,0,0,0-5.42,1.27,10,10,0,0,0-4.27,4l-.15.24h-1V71.81h-7.65v32.12h8.1V87.07c0-3.52.58-6,1.76-7.57s3.15-2.41,5.78-2.41c2.35,0,4,.75,5,2.25s1.36,3.57,1.36,6.38Z"/><path class="cls-6" d="M380.35,117.42a21.85,21.85,0,0,1-5.08-.62,16.34,16.34,0,0,1-4.76-2,12,12,0,0,1-3.61-3.44,10.16,10.16,0,0,1-1.66-5.09l0-.53h10l.09.38a4.67,4.67,0,0,0,2.25,3.23,8.51,8.51,0,0,0,4.06.94c2.41,0,4.12-.69,5.2-2.11a8.61,8.61,0,0,0,1.6-5.52v-2.9a9.34,9.34,0,0,1-3.62,2.86,14.13,14.13,0,0,1-5.94,1.3,14.93,14.93,0,0,1-6.62-1.37,12.58,12.58,0,0,1-4.6-3.73A15.53,15.53,0,0,1,365,93.38a25.93,25.93,0,0,1-.82-6.57,21.33,21.33,0,0,1,1-6.33,16.87,16.87,0,0,1,2.81-5.41,13.78,13.78,0,0,1,4.62-3.76,13.92,13.92,0,0,1,6.34-1.4,13.4,13.4,0,0,1,6,1.27,9.84,9.84,0,0,1,3.54,3.06V70.81H398v31.5a22.84,22.84,0,0,1-.56,4.66h0a11.78,11.78,0,0,1-2.44,5,14.47,14.47,0,0,1-5.37,3.89A23,23,0,0,1,380.35,117.42Zm-14.06-10.63a9,9,0,0,0,1.43,4A11.09,11.09,0,0,0,371,114a15.69,15.69,0,0,0,4.47,1.83,21,21,0,0,0,4.85.59,22,22,0,0,0,8.89-1.49,13.59,13.59,0,0,0,5-3.61,10.8,10.8,0,0,0,2.23-4.56,21.53,21.53,0,0,0,.54-4.45V71.81h-7.65v4.42h-.92l-.14-.25a9.47,9.47,0,0,0-3.92-3.9,12.32,12.32,0,0,0-5.52-1.17A13.06,13.06,0,0,0,373,72.2a12.68,12.68,0,0,0-4.28,3.49,15.59,15.59,0,0,0-2.64,5.09,20.3,20.3,0,0,0-.91,6,24.79,24.79,0,0,0,.79,6.31,14.32,14.32,0,0,0,2.44,5.14,11.77,11.77,0,0,0,4.24,3.45,14.18,14.18,0,0,0,6.19,1.26,13.18,13.18,0,0,0,5.53-1.21,8.51,8.51,0,0,0,4-3.66l.15-.26h.92v4.86a9.58,9.58,0,0,1-1.8,6.13c-1.27,1.66-3.29,2.51-6,2.51a9.47,9.47,0,0,1-4.53-1.06,5.51,5.51,0,0,1-2.65-3.49Zm14.83-9.68a7,7,0,0,1-3.8-1,7.85,7.85,0,0,1-2.43-2.47,10.44,10.44,0,0,1-1.28-3.33,18.69,18.69,0,0,1-.36-3.66,15.7,15.7,0,0,1,.43-3.67,9.29,9.29,0,0,1,1.42-3.18,7.53,7.53,0,0,1,2.47-2.23,7.25,7.25,0,0,1,3.55-.83,8.08,8.08,0,0,1,4,.89,7.25,7.25,0,0,1,2.54,2.41,10.14,10.14,0,0,1,1.35,3.4,18.91,18.91,0,0,1,.4,4,12.73,12.73,0,0,1-.5,3.57,9.69,9.69,0,0,1-1.52,3.07,7.75,7.75,0,0,1-2.61,2.2h0A7.72,7.72,0,0,1,381.12,97.11Zm0-19.34a6.21,6.21,0,0,0-3.06.7,6.51,6.51,0,0,0-2.14,1.94,8.25,8.25,0,0,0-1.27,2.84,14.71,14.71,0,0,0-.4,3.43,18.2,18.2,0,0,0,.34,3.46,9,9,0,0,0,1.16,3,6.54,6.54,0,0,0,2.11,2.14,5.93,5.93,0,0,0,3.26.82,6.81,6.81,0,0,0,3.16-.71h0a6.59,6.59,0,0,0,2.27-1.91,8.53,8.53,0,0,0,1.36-2.75,11.89,11.89,0,0,0,.46-3.29,18.25,18.25,0,0,0-.38-3.77,9.3,9.3,0,0,0-1.21-3.07,6.12,6.12,0,0,0-2.19-2.07A7,7,0,0,0,381.12,77.77Z"/><path class="cls-6" d="M414.67,104.93H404.58V58.19h10.09Zm-9.09-1h8.09V59.19h-8.09Z"/><path class="cls-6" d="M467.71,104.93H457.62V70.81h9.65v4.83a11.5,11.5,0,0,1,1-1.35A11.62,11.62,0,0,1,470.85,72a12.53,12.53,0,0,1,3.13-1.5,11.26,11.26,0,0,1,3.48-.54,7.83,7.83,0,0,1,2.13.34l.36.11V79.8l-.6-.12c-.41-.08-.92-.16-1.49-.22a10.69,10.69,0,0,0-5.69.69,6.89,6.89,0,0,0-2.6,2.12,8.7,8.7,0,0,0-1.42,3.18,17.83,17.83,0,0,0-.44,4Zm-9.09-1h8.09V89.5a19.21,19.21,0,0,1,.46-4.27,9.82,9.82,0,0,1,1.59-3.55,7.86,7.86,0,0,1,3-2.43,11.57,11.57,0,0,1,6.23-.78l1,.12V71.12a6,6,0,0,0-1.49-.21,10.5,10.5,0,0,0-3.17.49,11.82,11.82,0,0,0-2.89,1.38,11,11,0,0,0-4,4.87l-.13.31h-1V71.81h-7.65Z"/><path class="cls-5" d="M64,105.76a28,28,0,0,1-5.74-.59,15.47,15.47,0,0,1-5.07-2A11.06,11.06,0,0,1,48,93.69l0-.52h9.67v.5A4.53,4.53,0,0,0,58.15,96h0a5.1,5.1,0,0,0,1.42,1.57,6.39,6.39,0,0,0,2,.92,9.49,9.49,0,0,0,4.39.09,6.3,6.3,0,0,0,1.78-.66,3.86,3.86,0,0,0,1.28-1.13A2.92,2.92,0,0,0,69.55,95c0-1.14-.78-2-2.4-2.6a52,52,0,0,0-7.52-2c-1.35-.31-2.67-.67-3.92-1.07a13.59,13.59,0,0,1-3.49-1.67A8.28,8.28,0,0,1,49.7,85a7.62,7.62,0,0,1-1-3.94,10.49,10.49,0,0,1,1.32-5.52,9.69,9.69,0,0,1,3.48-3.4A14.9,14.9,0,0,1,58.3,70.4a28.52,28.52,0,0,1,10.66,0,14.53,14.53,0,0,1,4.68,1.8,11,11,0,0,1,3.46,3.39,11.41,11.41,0,0,1,1.65,5.32l0,.54H69.14l0-.46a3.47,3.47,0,0,0-1.72-3.15,8.57,8.57,0,0,0-4-.87,16,16,0,0,0-1.62.09,5.18,5.18,0,0,0-1.48.38,2.8,2.8,0,0,0-1.07.79,2.25,2.25,0,0,0,.33,2.92,6.17,6.17,0,0,0,2.17,1.15,27.4,27.4,0,0,0,3.24.85c1.24.26,2.51.54,3.79.84a40.06,40.06,0,0,1,3.93,1.1,13.31,13.31,0,0,1,3.49,1.77,8.67,8.67,0,0,1,2.51,2.78,8.23,8.23,0,0,1,1,4.12,10.57,10.57,0,0,1-5,9.46,14.64,14.64,0,0,1-5,2A28.68,28.68,0,0,1,64,105.76ZM49,94.17a10.31,10.31,0,0,0,1.4,4.77,10.43,10.43,0,0,0,3.37,3.4,14.4,14.4,0,0,0,4.73,1.86,27.8,27.8,0,0,0,11,0,13.6,13.6,0,0,0,4.67-1.82,9.6,9.6,0,0,0,4.51-8.62,7.23,7.23,0,0,0-.83-3.62,7.75,7.75,0,0,0-2.23-2.47,12.46,12.46,0,0,0-3.24-1.63A39.07,39.07,0,0,0,68.53,85c-1.28-.29-2.54-.57-3.77-.83a29.49,29.49,0,0,1-3.36-.88,7.4,7.4,0,0,1-2.5-1.34,3,3,0,0,1-1.07-2.37,2.91,2.91,0,0,1,.63-1.95,3.88,3.88,0,0,1,1.43-1.07,6.12,6.12,0,0,1,1.78-.45,15.16,15.16,0,0,1,1.72-.1,9.7,9.7,0,0,1,4.46,1,4.29,4.29,0,0,1,2.2,3.5H77.7a9.55,9.55,0,0,0-4.58-7.4,13.1,13.1,0,0,0-4.36-1.66,27.55,27.55,0,0,0-10.28,0A14,14,0,0,0,54,73a8.79,8.79,0,0,0-3.12,3.06,9.54,9.54,0,0,0-1.18,5,6.56,6.56,0,0,0,.83,3.42,7.09,7.09,0,0,0,2.22,2.34A12.38,12.38,0,0,0,56,88.35c1.23.4,2.52.75,3.84,1.05a54.55,54.55,0,0,1,7.65,2.07c2,.76,3,2,3,3.54a3.9,3.9,0,0,1-.67,2.31,5,5,0,0,1-1.61,1.43,7.11,7.11,0,0,1-2.06.75,10.21,10.21,0,0,1-4.84-.1A7.19,7.19,0,0,1,59,98.34a5.89,5.89,0,0,1-1.72-1.89h0a5.37,5.37,0,0,1-.65-2.28Z"/><path class="cls-5" d="M179.41,116.52c-.95,0-1.9,0-2.82-.09s-1.86-.14-2.8-.23l-.45,0v-8.5l.55,0,2.62.26a19.11,19.11,0,0,0,2.62.06,3,3,0,0,0,2.27-1.2,4,4,0,0,0,.78-2.4,5.05,5.05,0,0,0-.35-1.87L170,70.81h10.75l7.19,21.76,7-21.76h10.5L191.28,108.7a11.73,11.73,0,0,1-4.29,6h0A13.77,13.77,0,0,1,179.41,116.52Zm-5.07-1.27,2.32.18c.9.06,1.82.09,2.75.09a12.83,12.83,0,0,0,7-1.64,10.81,10.81,0,0,0,3.9-5.52l13.59-36.55H195.6l-7.24,22.68h-.86L180,71.81h-8.59l11.34,30.39a5.9,5.9,0,0,1,.42,2.23,5,5,0,0,1-1,3,4,4,0,0,1-3,1.62,19.85,19.85,0,0,1-2.79-.07l-2.08-.2Z"/><path class="cls-6" d="M436.66,105.76a19.52,19.52,0,0,1-7.23-1.28,15.21,15.21,0,0,1-5.5-3.68,16.6,16.6,0,0,1-3.47-5.68,20.68,20.68,0,0,1-1.21-7.22,19.92,19.92,0,0,1,1.25-7.1,16.52,16.52,0,0,1,9.07-9.5,17.76,17.76,0,0,1,7.09-1.39,16.3,16.3,0,0,1,7.59,1.69,15.17,15.17,0,0,1,5.33,4.54,18.55,18.55,0,0,1,3,6.45,24,24,0,0,1,.66,7.52l0,.47H429.37c.18,2.53.88,4.4,2.06,5.55h0A7.73,7.73,0,0,0,437,98a7.61,7.61,0,0,0,4.45-1.29A5.21,5.21,0,0,0,443.67,94l.11-.36h9.07l-.21.65c-1.32,4.07-3.37,7-6.1,8.79A17.94,17.94,0,0,1,436.66,105.76Zm0-34.85A16.67,16.67,0,0,0,430,72.22a15.49,15.49,0,0,0-8.54,8.94,18.84,18.84,0,0,0-1.18,6.74,19.61,19.61,0,0,0,1.15,6.87,15.44,15.44,0,0,0,3.26,5.34,14.14,14.14,0,0,0,5.13,3.44,18.68,18.68,0,0,0,6.87,1.21,16.94,16.94,0,0,0,9.34-2.48,14.42,14.42,0,0,0,5.46-7.6h-6.95A6.53,6.53,0,0,1,442,97.5a9.79,9.79,0,0,1-11.26-.66c-1.46-1.4-2.26-3.67-2.4-6.74l0-.52h23.94a22.43,22.43,0,0,0-.65-6.74,17.58,17.58,0,0,0-2.83-6.11,14.27,14.27,0,0,0-5-4.24A15.27,15.27,0,0,0,436.66,70.91Zm7.58,13.9H428.31l0-.53a10.93,10.93,0,0,1,.44-2.28,7.22,7.22,0,0,1,1.3-2.48,7.4,7.4,0,0,1,2.47-2,8.41,8.41,0,0,1,3.85-.79,6.94,6.94,0,0,1,5.34,2h0a11.08,11.08,0,0,1,2.39,5.5Zm-14.84-1H443a9.53,9.53,0,0,0-2-4.41,6,6,0,0,0-4.6-1.63,7.52,7.52,0,0,0-3.39.68,6.45,6.45,0,0,0-2.14,1.69,6,6,0,0,0-1.13,2.13A10.88,10.88,0,0,0,429.4,83.81Z"/><path class="cls-4" d="M526.05,113.42h0a54.62,54.62,0,0,1-29.52-8.66l-1.83-1.17,2.16.26a39,39,0,0,0,4.49.26,37.55,37.55,0,0,0,22.31-7.24,19.6,19.6,0,0,1-16.91-13.53l-.26-.81.83.16a18.58,18.58,0,0,0,6.35.12A19.62,19.62,0,0,1,500,64.15l0-1.08.71.4a18.69,18.69,0,0,0,6.69,2.19,19.62,19.62,0,0,1-4.63-25.1l.36-.62.46.56A53.86,53.86,0,0,0,542,60.22a20.11,20.11,0,0,1-.37-3.82A19.59,19.59,0,0,1,575.3,42.81,37.86,37.86,0,0,0,587,38.29l1.13-.67-.4,1.25A19.57,19.57,0,0,1,581,48.46a37.1,37.1,0,0,0,8.66-2.65l1.58-.7-1,1.44a39.21,39.21,0,0,1-9.42,9.85c0,.74,0,1.48,0,2.22,0,26.93-20.5,54.8-54.8,54.8ZM498.88,105a53.56,53.56,0,0,0,27.17,7.39c33.68,0,53.8-27.36,53.8-53.8,0-.82,0-1.63-.05-2.45l0-.26.22-.16a38.33,38.33,0,0,0,8.42-8.35,39,39,0,0,1-9.5,2.37l-2.33.28,2-1.2a18.68,18.68,0,0,0,7.72-9,38.81,38.81,0,0,1-11.09,4l-.28.06-.19-.21a18.59,18.59,0,0,0-31.66,17l.15.65-.67,0A54.87,54.87,0,0,1,503.35,41.7a18.62,18.62,0,0,0,6.11,24.18l1.45,1-1.74-.06A19.47,19.47,0,0,1,501,64.74a18.64,18.64,0,0,0,14.9,17.63l2.08.41-2,.56a19.62,19.62,0,0,1-8,.48,18.59,18.59,0,0,0,17.09,12.12l1.41,0-1.11.86a38.51,38.51,0,0,1-24,8.28C500.52,105.11,499.7,105.08,498.88,105Z"/><path class="cls-6" d="M300.79,105.76a17,17,0,0,1-4.56-.59,10.66,10.66,0,0,1-3.76-1.89,8.9,8.9,0,0,1-2.55-3.25A11,11,0,0,1,289,95.4a10.32,10.32,0,0,1,1.05-4.89,8.76,8.76,0,0,1,2.72-3.08,12.07,12.07,0,0,1,3.74-1.71,42,42,0,0,1,4.12-.88c1.39-.21,2.76-.38,4.07-.51a24.55,24.55,0,0,0,3.45-.57,5.62,5.62,0,0,0,2.24-1,2,2,0,0,0,.65-1.74,4.35,4.35,0,0,0-.42-2.11,3.08,3.08,0,0,0-1.1-1.16,4.58,4.58,0,0,0-1.68-.58,15.21,15.21,0,0,0-2.2-.15,6.43,6.43,0,0,0-3.92,1,4.69,4.69,0,0,0-1.6,3.49l0,.46H290l0-.53a11.14,11.14,0,0,1,1.68-5.57,11.57,11.57,0,0,1,3.75-3.55,16.11,16.11,0,0,1,5.06-1.88,32,32,0,0,1,10.7-.2,16.15,16.15,0,0,1,4.83,1.42,9.81,9.81,0,0,1,3.64,3,8.45,8.45,0,0,1,1.44,5.13V97.06a33.72,33.72,0,0,0,.26,4.23,7.2,7.2,0,0,0,.82,2.87l.48.77H312.21l-.11-.34a11.5,11.5,0,0,1-.43-1.63c-.05-.23-.09-.45-.12-.68a12.35,12.35,0,0,1-4.6,2.56A21.14,21.14,0,0,1,300.79,105.76ZM305.65,76a15.88,15.88,0,0,1,2.35.16,5.61,5.61,0,0,1,2,.71,4.05,4.05,0,0,1,1.46,1.53,5.34,5.34,0,0,1,.55,2.58,2.93,2.93,0,0,1-1,2.54,6.69,6.69,0,0,1-2.63,1.21,23.58,23.58,0,0,1-3.59.59c-1.3.13-2.64.3-4,.51a36.86,36.86,0,0,0-4,.86,11,11,0,0,0-3.43,1.56A7.84,7.84,0,0,0,290.94,91,9.22,9.22,0,0,0,290,95.4a10,10,0,0,0,.82,4.21,7.88,7.88,0,0,0,2.26,2.89,9.5,9.5,0,0,0,3.41,1.7,15.89,15.89,0,0,0,4.29.56,20.21,20.21,0,0,0,5.87-.87,11.4,11.4,0,0,0,4.91-3l.78-.8.08,1.11a11.63,11.63,0,0,0,.22,1.57,9.52,9.52,0,0,0,.29,1.17H321a10.31,10.31,0,0,1-.59-2.51,35.86,35.86,0,0,1-.26-4.36V79.83a7.56,7.56,0,0,0-1.24-4.54,8.83,8.83,0,0,0-3.28-2.7,15.44,15.44,0,0,0-4.52-1.33,31.12,31.12,0,0,0-10.38.19A15.25,15.25,0,0,0,296,73.21a10.55,10.55,0,0,0-3.43,3.25A9.79,9.79,0,0,0,291.08,81h8.11a5.41,5.41,0,0,1,1.94-3.75A7.41,7.41,0,0,1,305.65,76Zm-1.47,23.74a12.36,12.36,0,0,1-2.21-.2,5.67,5.67,0,0,1-2-.74,3.86,3.86,0,0,1-1.39-1.5,4.78,4.78,0,0,1-.51-2.29,4.92,4.92,0,0,1,.51-2.35,4.59,4.59,0,0,1,1.32-1.54,6.76,6.76,0,0,1,1.88-.94,16.68,16.68,0,0,1,2.08-.53c.74-.13,1.47-.24,2.21-.32s1.39-.19,2-.32a14.31,14.31,0,0,0,1.8-.46,3.77,3.77,0,0,0,1.27-.7l.83-.74v4.51a18.2,18.2,0,0,1-.17,2.11,7.27,7.27,0,0,1-.92,2.71,6.43,6.43,0,0,1-2.36,2.33A8.55,8.55,0,0,1,304.18,99.74Zm6.87-10.57a7.21,7.21,0,0,1-.79.33,15.8,15.8,0,0,1-1.92.49c-.67.13-1.39.24-2.12.33s-1.43.19-2.14.32a15.6,15.6,0,0,0-2,.49,5.57,5.57,0,0,0-1.58.79,3.62,3.62,0,0,0-1,1.22,3.88,3.88,0,0,0-.39,1.87,3.73,3.73,0,0,0,.39,1.81,2.84,2.84,0,0,0,1,1.13,4.59,4.59,0,0,0,1.62.61,11.16,11.16,0,0,0,2,.18,7.65,7.65,0,0,0,3.9-.82,5.51,5.51,0,0,0,2-2,6.5,6.5,0,0,0,.8-2.35,15.87,15.87,0,0,0,.16-2Z"/><path class="cls-7" d="M48.67,142.74v-1.29h1.5v-1.33a2.1,2.1,0,0,1,.62-1.64,2.67,2.67,0,0,1,1.84-.56l.47,0a2.89,2.89,0,0,1,.48.1v1.28a1.84,1.84,0,0,0-.42-.1l-.41,0a1.5,1.5,0,0,0-.83.2,1,1,0,0,0-.29.8v1.24h1.72v1.29H51.63v7.61H50.17v-7.61Z"/><path class="cls-7" d="M56,141.45v1.87h0a4,4,0,0,1,1.31-1.6,3.34,3.34,0,0,1,2-.48v1.55a4.21,4.21,0,0,0-1.5.24,2.34,2.34,0,0,0-1,.71,2.72,2.72,0,0,0-.55,1.13,5.82,5.82,0,0,0-.18,1.52v4H54.61v-8.9Z"/><path class="cls-7" d="M59.88,144.07a4.06,4.06,0,0,1,.83-1.48,3.8,3.8,0,0,1,1.36-1,4.54,4.54,0,0,1,1.86-.36,4.47,4.47,0,0,1,1.86.36,3.89,3.89,0,0,1,1.36,1,4.19,4.19,0,0,1,.82,1.48,5.77,5.77,0,0,1,.28,1.84,5.64,5.64,0,0,1-.28,1.82,4.19,4.19,0,0,1-.82,1.48,4,4,0,0,1-1.36,1,4.64,4.64,0,0,1-1.86.35,4.71,4.71,0,0,1-1.86-.35,3.9,3.9,0,0,1-1.36-1,4.06,4.06,0,0,1-.83-1.48,5.93,5.93,0,0,1-.28-1.82A6.06,6.06,0,0,1,59.88,144.07Zm1.49,3.28A3.15,3.15,0,0,0,62,148.4a2.56,2.56,0,0,0,.89.64A2.63,2.63,0,0,0,65,149a2.56,2.56,0,0,0,.89-.64,3.15,3.15,0,0,0,.59-1.05,4.82,4.82,0,0,0,0-2.88,3.1,3.1,0,0,0-.59-1.06,2.36,2.36,0,0,0-.89-.65,2.63,2.63,0,0,0-2.15,0,2.36,2.36,0,0,0-.89.65,3.1,3.1,0,0,0-.59,1.06,4.82,4.82,0,0,0,0,2.88Z"/><path class="cls-7" d="M71.35,141.45v1.31h0a3.49,3.49,0,0,1,4.38-1.18,1.94,1.94,0,0,1,.95,1.18,3,3,0,0,1,1.17-1.12,3.3,3.3,0,0,1,1.62-.4,4.56,4.56,0,0,1,1.21.15,2.52,2.52,0,0,1,.93.45,2.09,2.09,0,0,1,.6.8,2.83,2.83,0,0,1,.22,1.18v6.53H81v-5.84a3.8,3.8,0,0,0-.07-.77,1.6,1.6,0,0,0-.25-.63,1.24,1.24,0,0,0-.53-.42,2,2,0,0,0-.87-.16,2.31,2.31,0,0,0-1.7.62A2.21,2.21,0,0,0,77,144.8v5.55H75.48v-5.84a3.94,3.94,0,0,0-.07-.79,2,2,0,0,0-.27-.63,1.29,1.29,0,0,0-.51-.41,1.94,1.94,0,0,0-.82-.15,2.2,2.2,0,0,0-1.09.26,2.4,2.4,0,0,0-.74.62,2.55,2.55,0,0,0-.42.75,2.26,2.26,0,0,0-.12.64v5.55H70v-8.9Z"/><path class="cls-7" d="M93.26,141.45v1.29H91.48v5.53a1.47,1.47,0,0,0,0,.41.4.4,0,0,0,.16.24A.62.62,0,0,0,92,149a4.28,4.28,0,0,0,.56,0h.68v1.29H92.14a4.67,4.67,0,0,1-1-.08,1.38,1.38,0,0,1-.65-.28,1.18,1.18,0,0,1-.37-.59,3.36,3.36,0,0,1-.12-1v-5.66H88.5v-1.29H90v-2.67h1.46v2.67Z"/><path class="cls-7" d="M96.34,138.05v4.71h0a2,2,0,0,1,.49-.7,2.55,2.55,0,0,1,.69-.47,3.33,3.33,0,0,1,.81-.26,4,4,0,0,1,.82-.09,3.84,3.84,0,0,1,1.46.24,2.47,2.47,0,0,1,1,.67,2.56,2.56,0,0,1,.51,1,5.32,5.32,0,0,1,.15,1.32v5.85h-1.47v-6A1.66,1.66,0,0,0,99,142.53a3,3,0,0,0-1.16.21,2.22,2.22,0,0,0-.82.58,2.57,2.57,0,0,0-.49.89,3.59,3.59,0,0,0-.16,1.11v5H94.88v-12.3Z"/><path class="cls-7" d="M110.75,149.78a4,4,0,0,1-2.51.76,4.74,4.74,0,0,1-1.85-.34,3.77,3.77,0,0,1-1.32-1,4.07,4.07,0,0,1-.8-1.48,6.92,6.92,0,0,1-.3-1.88,5.34,5.34,0,0,1,.31-1.86,4.53,4.53,0,0,1,.87-1.46,4,4,0,0,1,1.32-1,4.07,4.07,0,0,1,1.68-.34,3.66,3.66,0,0,1,2,.49,3.83,3.83,0,0,1,1.25,1.25,4.85,4.85,0,0,1,.66,1.65,6.81,6.81,0,0,1,.14,1.71h-6.66a3.39,3.39,0,0,0,.14,1.11A2.43,2.43,0,0,0,107,149a2.92,2.92,0,0,0,1.26.25,2.54,2.54,0,0,0,1.53-.44,2.09,2.09,0,0,0,.78-1.3h1.45A3.54,3.54,0,0,1,110.75,149.78Zm-.35-5.72a2.6,2.6,0,0,0-.53-.8,2.67,2.67,0,0,0-.79-.53,2.6,2.6,0,0,0-1-.2,2.63,2.63,0,0,0-1,.2,2.37,2.37,0,0,0-.78.54,2.69,2.69,0,0,0-.52.8,3.18,3.18,0,0,0-.22,1h5.11A3,3,0,0,0,110.4,144.06Z"/><path class="cls-7" d="M127.29,149.45a5.07,5.07,0,0,1-3.58,1.18A5.6,5.6,0,0,1,120,149.5a4.45,4.45,0,0,1-1.33-3.59v-7.86h1.63v7.86a3.35,3.35,0,0,0,.88,2.5,3.5,3.5,0,0,0,2.54.86,3.15,3.15,0,0,0,2.38-.86,3.46,3.46,0,0,0,.82-2.5v-7.86h1.63v7.86A4.63,4.63,0,0,1,127.29,149.45Z"/><path class="cls-7" d="M132.3,141.45v1.41h0a3.09,3.09,0,0,1,2.9-1.62,3.88,3.88,0,0,1,1.46.24,2.47,2.47,0,0,1,.95.67,2.56,2.56,0,0,1,.51,1,5.87,5.87,0,0,1,.14,1.32v5.85h-1.46v-6a1.78,1.78,0,0,0-.48-1.31,1.81,1.81,0,0,0-1.33-.48,2.93,2.93,0,0,0-1.16.21,2.22,2.22,0,0,0-.82.58,2.57,2.57,0,0,0-.49.89,3.59,3.59,0,0,0-.16,1.11v5h-1.47v-8.9Z"/><path class="cls-7" d="M140.58,139.84v-1.79h1.47v1.79Zm1.47,1.61v8.9h-1.47v-8.9Z"/><path class="cls-7" d="M146.77,150.35l-3.31-8.9h1.63l2.5,7.42h0l2.42-7.42h1.54l-3.26,8.9Z"/><path class="cls-7" d="M159.23,149.78a4,4,0,0,1-2.51.76,4.74,4.74,0,0,1-1.85-.34,3.77,3.77,0,0,1-1.32-1,4.22,4.22,0,0,1-.8-1.48,6.92,6.92,0,0,1-.3-1.88,5.34,5.34,0,0,1,.31-1.86,4.53,4.53,0,0,1,.87-1.46,3.91,3.91,0,0,1,1.33-1,4,4,0,0,1,1.67-.34,3.66,3.66,0,0,1,2,.49,3.83,3.83,0,0,1,1.25,1.25,4.85,4.85,0,0,1,.66,1.65,6.81,6.81,0,0,1,.14,1.71H154a3.39,3.39,0,0,0,.14,1.11,2.43,2.43,0,0,0,1.37,1.57,2.92,2.92,0,0,0,1.26.25,2.54,2.54,0,0,0,1.53-.44,2.09,2.09,0,0,0,.78-1.3h1.45A3.54,3.54,0,0,1,159.23,149.78Zm-.35-5.72a2.6,2.6,0,0,0-.53-.8,2.67,2.67,0,0,0-.79-.53,2.56,2.56,0,0,0-1-.2,2.63,2.63,0,0,0-1,.2,2.37,2.37,0,0,0-.78.54,2.69,2.69,0,0,0-.52.8,3.18,3.18,0,0,0-.22,1h5.11A3,3,0,0,0,158.88,144.06Z"/><path class="cls-7" d="M163.51,141.45v1.87h0a4,4,0,0,1,1.31-1.6,3.34,3.34,0,0,1,2-.48v1.55a4.21,4.21,0,0,0-1.5.24,2.34,2.34,0,0,0-1,.71,2.86,2.86,0,0,0-.56,1.13,6.3,6.3,0,0,0-.17,1.52v4h-1.46v-8.9Z"/><path class="cls-7" d="M169,148.36a1.67,1.67,0,0,0,.55.54,2.48,2.48,0,0,0,.75.28,4.28,4.28,0,0,0,.87.09,4.78,4.78,0,0,0,.73-.06,2.2,2.2,0,0,0,.69-.19,1.25,1.25,0,0,0,.53-.4,1.08,1.08,0,0,0,.21-.68,1,1,0,0,0-.43-.86,3.86,3.86,0,0,0-1.08-.48c-.43-.12-.9-.22-1.4-.32a7.26,7.26,0,0,1-1.41-.42,2.74,2.74,0,0,1-1.07-.74,2,2,0,0,1-.43-1.35,2.12,2.12,0,0,1,.3-1.15,2.64,2.64,0,0,1,.77-.79,3.4,3.4,0,0,1,1.07-.44,4.83,4.83,0,0,1,1.18-.15,6.64,6.64,0,0,1,1.39.13,3.08,3.08,0,0,1,1.13.45,2.34,2.34,0,0,1,.79.86,3.26,3.26,0,0,1,.34,1.35h-1.46a1.46,1.46,0,0,0-.23-.71,1.32,1.32,0,0,0-.48-.46,2,2,0,0,0-.64-.25,3.53,3.53,0,0,0-.72-.08,4.89,4.89,0,0,0-.66.05,2.57,2.57,0,0,0-.61.18,1.14,1.14,0,0,0-.45.35.83.83,0,0,0-.17.56.82.82,0,0,0,.26.63,2.37,2.37,0,0,0,.68.41,6.83,6.83,0,0,0,.93.28l1,.23c.36.08.72.18,1.07.29a3.67,3.67,0,0,1,.93.46,2.35,2.35,0,0,1,.66.71,2.2,2.2,0,0,1,.25,1.07,2.41,2.41,0,0,1-1.22,2.2,3.51,3.51,0,0,1-1.22.46,6.86,6.86,0,0,1-1.35.13,5.8,5.8,0,0,1-1.41-.16,3.45,3.45,0,0,1-1.19-.5,2.66,2.66,0,0,1-.83-.93,3.19,3.19,0,0,1-.34-1.41h1.46A1.68,1.68,0,0,0,169,148.36Z"/><path class="cls-7" d="M176.61,139.84v-1.79h1.47v1.79Zm1.47,1.61v8.9h-1.47v-8.9Z"/><path class="cls-7" d="M184.16,141.45v1.29h-1.78v5.53a2.09,2.09,0,0,0,0,.41.46.46,0,0,0,.17.24.62.62,0,0,0,.33.11,4.28,4.28,0,0,0,.56,0h.68v1.29H183a4.67,4.67,0,0,1-1-.08,1.38,1.38,0,0,1-.65-.28,1.18,1.18,0,0,1-.37-.59,3.36,3.36,0,0,1-.12-1v-5.66H179.4v-1.29h1.52v-2.67h1.46v2.67Z"/><path class="cls-7" d="M189.27,151.54a8.28,8.28,0,0,1-.51,1.1,2.85,2.85,0,0,1-.55.73,1.89,1.89,0,0,1-.67.42,2.76,2.76,0,0,1-.85.13,4.38,4.38,0,0,1-.52,0,2.15,2.15,0,0,1-.5-.12v-1.34a3.27,3.27,0,0,0,.44.14,1.91,1.91,0,0,0,.42.06,1.28,1.28,0,0,0,.75-.21,1.43,1.43,0,0,0,.46-.61l.6-1.5-3.53-8.85h1.65l2.6,7.28h0l2.5-7.28h1.55Z"/><path class="cls-7" d="M199,144.07a4.19,4.19,0,0,1,.82-1.48,3.89,3.89,0,0,1,1.36-1,4.54,4.54,0,0,1,1.86-.36,4.49,4.49,0,0,1,1.87.36,3.76,3.76,0,0,1,1.35,1,4.06,4.06,0,0,1,.83,1.48,5.77,5.77,0,0,1,.28,1.84,5.64,5.64,0,0,1-.28,1.82,4.06,4.06,0,0,1-.83,1.48,3.86,3.86,0,0,1-1.35,1,4.66,4.66,0,0,1-1.87.35,4.71,4.71,0,0,1-1.86-.35,4,4,0,0,1-1.36-1,4.19,4.19,0,0,1-.82-1.48,5.64,5.64,0,0,1-.28-1.82A5.77,5.77,0,0,1,199,144.07Zm1.49,3.28a3.15,3.15,0,0,0,.59,1.05,2.56,2.56,0,0,0,.89.64,2.66,2.66,0,0,0,3-.64,3.15,3.15,0,0,0,.59-1.05,4.82,4.82,0,0,0,0-2.88,3.1,3.1,0,0,0-.59-1.06,2.44,2.44,0,0,0-.89-.65,2.63,2.63,0,0,0-2.15,0,2.36,2.36,0,0,0-.89.65,3.1,3.1,0,0,0-.59,1.06,4.82,4.82,0,0,0,0,2.88Z"/><path class="cls-7" d="M208.16,142.74v-1.29h1.5v-1.33a2.07,2.07,0,0,1,.63-1.64,2.64,2.64,0,0,1,1.83-.56l.48,0a2.76,2.76,0,0,1,.47.1v1.28a1.64,1.64,0,0,0-.41-.1l-.41,0a1.47,1.47,0,0,0-.83.2.92.92,0,0,0-.29.8v1.24h1.72v1.29h-1.72v7.61h-1.47v-7.61Z"/><path class="cls-7" d="M222.17,150.35l-4.33-12.3h1.76l3.51,10.66h0l3.54-10.66h1.71L224,150.35Z"/><path class="cls-7" d="M234.82,149.78a4,4,0,0,1-2.51.76,4.74,4.74,0,0,1-1.85-.34,3.77,3.77,0,0,1-1.32-1,4.07,4.07,0,0,1-.8-1.48,6.92,6.92,0,0,1-.3-1.88,5.34,5.34,0,0,1,.31-1.86,4.2,4.2,0,0,1,.87-1.46,4,4,0,0,1,1.32-1,4,4,0,0,1,1.68-.34,3.66,3.66,0,0,1,2,.49,3.83,3.83,0,0,1,1.25,1.25,4.85,4.85,0,0,1,.66,1.65,6.81,6.81,0,0,1,.14,1.71h-6.66a3.39,3.39,0,0,0,.14,1.11A2.43,2.43,0,0,0,231.1,149a2.92,2.92,0,0,0,1.26.25,2.49,2.49,0,0,0,1.52-.44,2.06,2.06,0,0,0,.79-1.3h1.45A3.54,3.54,0,0,1,234.82,149.78Zm-.35-5.72a2.41,2.41,0,0,0-1.33-1.33,2.51,2.51,0,0,0-1-.2,2.63,2.63,0,0,0-1,.2,2.37,2.37,0,0,0-.78.54,2.69,2.69,0,0,0-.52.8,3.18,3.18,0,0,0-.22,1h5.11A3,3,0,0,0,234.47,144.06Z"/><path class="cls-7" d="M239.09,141.45v1.87h0a4,4,0,0,1,1.31-1.6,3.32,3.32,0,0,1,2-.48v1.55a4.21,4.21,0,0,0-1.5.24,2.44,2.44,0,0,0-1,.71,3,3,0,0,0-.55,1.13,6.3,6.3,0,0,0-.17,1.52v4h-1.46v-8.9Z"/><path class="cls-7" d="M244.88,141.45v1.31h0a3.47,3.47,0,0,1,4.37-1.18,1.94,1.94,0,0,1,1,1.18,3,3,0,0,1,1.18-1.12,3.26,3.26,0,0,1,1.61-.4,4.5,4.5,0,0,1,1.21.15,2.52,2.52,0,0,1,.93.45,2.09,2.09,0,0,1,.6.8,2.83,2.83,0,0,1,.22,1.18v6.53h-1.46v-5.84a4.69,4.69,0,0,0-.07-.77,1.62,1.62,0,0,0-.26-.63,1.24,1.24,0,0,0-.53-.42,2,2,0,0,0-.87-.16,2.31,2.31,0,0,0-1.7.62,2.25,2.25,0,0,0-.62,1.65v5.55H249v-5.84a3.94,3.94,0,0,0-.07-.79,1.63,1.63,0,0,0-.27-.63,1.22,1.22,0,0,0-.51-.41,1.91,1.91,0,0,0-.82-.15,2.2,2.2,0,0,0-1.09.26,2.52,2.52,0,0,0-.74.62,2.31,2.31,0,0,0-.41.75,2,2,0,0,0-.13.64v5.55H243.5v-8.9Z"/><path class="cls-7" d="M258,144.07a4.19,4.19,0,0,1,.82-1.48,3.89,3.89,0,0,1,1.36-1,4.55,4.55,0,0,1,1.87-.36,4.47,4.47,0,0,1,1.86.36,3.76,3.76,0,0,1,1.35,1,4.06,4.06,0,0,1,.83,1.48,5.77,5.77,0,0,1,.28,1.84,5.64,5.64,0,0,1-.28,1.82,4.06,4.06,0,0,1-.83,1.48,3.86,3.86,0,0,1-1.35,1,4.64,4.64,0,0,1-1.86.35,4.73,4.73,0,0,1-1.87-.35,4,4,0,0,1-1.36-1,4.19,4.19,0,0,1-.82-1.48,5.64,5.64,0,0,1-.28-1.82A5.77,5.77,0,0,1,258,144.07Zm1.49,3.28a3.15,3.15,0,0,0,.59,1.05,2.56,2.56,0,0,0,.89.64,2.63,2.63,0,0,0,2.15,0,2.56,2.56,0,0,0,.89-.64,3.15,3.15,0,0,0,.59-1.05,4.82,4.82,0,0,0,0-2.88,3.1,3.1,0,0,0-.59-1.06,2.36,2.36,0,0,0-.89-.65,2.63,2.63,0,0,0-2.15,0,2.36,2.36,0,0,0-.89.65,3.1,3.1,0,0,0-.59,1.06,4.82,4.82,0,0,0,0,2.88Z"/><path class="cls-7" d="M269.46,141.45v1.41h0a3.08,3.08,0,0,1,2.9-1.62,3.88,3.88,0,0,1,1.46.24,2.47,2.47,0,0,1,.95.67,2.42,2.42,0,0,1,.5,1,5.32,5.32,0,0,1,.15,1.32v5.85H274v-6a1.74,1.74,0,0,0-.49-1.31,1.78,1.78,0,0,0-1.32-.48,2.9,2.9,0,0,0-1.16.21,2.22,2.22,0,0,0-.82.58,2.57,2.57,0,0,0-.49.89,3.59,3.59,0,0,0-.17,1.11v5h-1.46v-8.9Z"/><path class="cls-7" d="M281.46,141.45v1.29h-1.77v5.53a1.53,1.53,0,0,0,0,.41.45.45,0,0,0,.16.24.65.65,0,0,0,.34.11,4.17,4.17,0,0,0,.56,0h.67v1.29h-1.12a4.57,4.57,0,0,1-1-.08,1.42,1.42,0,0,1-.66-.28,1.25,1.25,0,0,1-.37-.59,3.36,3.36,0,0,1-.12-1v-5.66h-1.51v-1.29h1.51v-2.67h1.47v2.67Z"/><path class="cls-7" d="M295.54,139.79a3.83,3.83,0,0,0-2.23-.65,4.12,4.12,0,0,0-1.89.41,3.85,3.85,0,0,0-1.29,1.11,4.81,4.81,0,0,0-.75,1.6,7.08,7.08,0,0,0-.24,1.86,8,8,0,0,0,.24,2,4.7,4.7,0,0,0,.75,1.63,3.59,3.59,0,0,0,1.3,1.11,4,4,0,0,0,1.9.42,3.63,3.63,0,0,0,1.44-.27,3.4,3.4,0,0,0,1.08-.74,3.64,3.64,0,0,0,.72-1.13,5,5,0,0,0,.31-1.41h1.63a5.55,5.55,0,0,1-1.6,3.61,5.16,5.16,0,0,1-3.72,1.3,6.06,6.06,0,0,1-2.5-.49,4.89,4.89,0,0,1-1.77-1.36,5.7,5.7,0,0,1-1.06-2,8.51,8.51,0,0,1-.35-2.51,8.32,8.32,0,0,1,.37-2.53,6.16,6.16,0,0,1,1.12-2.05,5.05,5.05,0,0,1,1.82-1.39,5.89,5.89,0,0,1,2.51-.51,6.35,6.35,0,0,1,1.82.26,4.72,4.72,0,0,1,1.54.76,4.35,4.35,0,0,1,1.12,1.25,4.65,4.65,0,0,1,.58,1.73h-1.64A3,3,0,0,0,295.54,139.79Z"/><path class="cls-7" d="M300.1,144.07a4,4,0,0,1,.82-1.48,3.89,3.89,0,0,1,1.36-1,5,5,0,0,1,3.73,0,3.76,3.76,0,0,1,1.35,1,4.06,4.06,0,0,1,.83,1.48,6.06,6.06,0,0,1,.28,1.84,5.93,5.93,0,0,1-.28,1.82,4.06,4.06,0,0,1-.83,1.48,3.86,3.86,0,0,1-1.35,1,5.14,5.14,0,0,1-3.73,0,4,4,0,0,1-1.36-1,4,4,0,0,1-.82-1.48,5.64,5.64,0,0,1-.28-1.82A5.77,5.77,0,0,1,300.1,144.07Zm1.49,3.28a3.15,3.15,0,0,0,.59,1.05,2.56,2.56,0,0,0,.89.64,2.6,2.6,0,0,0,1.07.23,2.68,2.68,0,0,0,2-.87,3.15,3.15,0,0,0,.59-1.05,4.82,4.82,0,0,0,0-2.88,3.1,3.1,0,0,0-.59-1.06,2.44,2.44,0,0,0-.89-.65,2.65,2.65,0,0,0-1.08-.23,2.6,2.6,0,0,0-1.07.23,2.36,2.36,0,0,0-.89.65,3.1,3.1,0,0,0-.59,1.06,4.82,4.82,0,0,0,0,2.88Z"/><path class="cls-7" d="M311.57,141.45v1.31h0a3.24,3.24,0,0,1,2.88-1.52,3.17,3.17,0,0,1,1.49.34,1.91,1.91,0,0,1,.95,1.18,3,3,0,0,1,1.18-1.12,3.29,3.29,0,0,1,1.61-.4,4.63,4.63,0,0,1,1.22.15,2.52,2.52,0,0,1,.93.45,2.09,2.09,0,0,1,.6.8,3,3,0,0,1,.21,1.18v6.53h-1.46v-5.84a3.8,3.8,0,0,0-.07-.77,1.48,1.48,0,0,0-.26-.63,1.21,1.21,0,0,0-.52-.42,2,2,0,0,0-.87-.16,2.33,2.33,0,0,0-1.71.62,2.25,2.25,0,0,0-.62,1.65v5.55H315.7v-5.84a3.91,3.91,0,0,0-.08-.79,1.63,1.63,0,0,0-.27-.63,1.19,1.19,0,0,0-.5-.41,2,2,0,0,0-.82-.15,2.17,2.17,0,0,0-1.09.26,2.44,2.44,0,0,0-.75.62,2.52,2.52,0,0,0-.41.75,2.33,2.33,0,0,0-.13.64v5.55h-1.46v-8.9Z"/><path class="cls-7" d="M326.39,141.45v1.2h0a2.17,2.17,0,0,1,1.14-1.07,4.1,4.1,0,0,1,1.7-.34,4,4,0,0,1,1.8.38,3.54,3.54,0,0,1,1.27,1,4.49,4.49,0,0,1,.77,1.49,6.44,6.44,0,0,1,0,3.59,4.28,4.28,0,0,1-.76,1.47,3.55,3.55,0,0,1-1.27,1,4.17,4.17,0,0,1-1.79.36,4.06,4.06,0,0,1-.73-.07,4.77,4.77,0,0,1-.8-.22,4,4,0,0,1-.75-.42,2.39,2.39,0,0,1-.59-.67h0v4.58h-1.46V141.45Zm5.27,3.16a3.34,3.34,0,0,0-.5-1.06,2.41,2.41,0,0,0-.87-.74,2.84,2.84,0,0,0-2.48,0,2.63,2.63,0,0,0-.85.77,3.28,3.28,0,0,0-.47,1.08,5,5,0,0,0-.15,1.22,4.86,4.86,0,0,0,.16,1.27,3,3,0,0,0,.49,1.07,2.45,2.45,0,0,0,.87.75,2.67,2.67,0,0,0,1.29.29,2.46,2.46,0,0,0,1.27-.3,2.3,2.3,0,0,0,.81-.77,3.27,3.27,0,0,0,.45-1.1,6,6,0,0,0,.14-1.28A4.9,4.9,0,0,0,331.66,144.61Z"/><path class="cls-7" d="M341.08,150.35v-1.41h0a3,3,0,0,1-1.19,1.21,3.53,3.53,0,0,1-1.7.39,4.12,4.12,0,0,1-1.47-.23,2.34,2.34,0,0,1-.94-.67,2.24,2.24,0,0,1-.51-1,5.44,5.44,0,0,1-.15-1.32v-5.85h1.47v6a1.76,1.76,0,0,0,.48,1.31,1.79,1.79,0,0,0,1.32.49,3,3,0,0,0,1.17-.21,2.1,2.1,0,0,0,.81-.59,2.38,2.38,0,0,0,.49-.88,3.59,3.59,0,0,0,.17-1.11v-5h1.46v8.9Z"/><path class="cls-7" d="M348.47,141.45v1.29H346.7v5.53a1.53,1.53,0,0,0,0,.41.46.46,0,0,0,.17.24.62.62,0,0,0,.33.11,4.28,4.28,0,0,0,.56,0h.67v1.29h-1.12a4.63,4.63,0,0,1-1-.08,1.34,1.34,0,0,1-.65-.28,1.18,1.18,0,0,1-.37-.59,3.36,3.36,0,0,1-.12-1v-5.66h-1.52v-1.29h1.52v-2.67h1.46v2.67Z"/><path class="cls-7" d="M358,150.32a2.16,2.16,0,0,1-1.05.22,1.25,1.25,0,0,1-.9-.32,1.36,1.36,0,0,1-.34-1,3.5,3.5,0,0,1-1.4,1,4.82,4.82,0,0,1-2.88.18,2.61,2.61,0,0,1-.94-.43,2.14,2.14,0,0,1-.63-.76,2.68,2.68,0,0,1-.23-1.15,2.62,2.62,0,0,1,.26-1.24,2.24,2.24,0,0,1,.68-.78,3.05,3.05,0,0,1,1-.46c.37-.1.74-.19,1.11-.26s.79-.14,1.15-.18a7.27,7.27,0,0,0,1-.17,1.59,1.59,0,0,0,.65-.33.79.79,0,0,0,.24-.63,1.44,1.44,0,0,0-.18-.77,1.19,1.19,0,0,0-.47-.45,2,2,0,0,0-.63-.21,5.62,5.62,0,0,0-.7-.05,3.15,3.15,0,0,0-1.55.35,1.5,1.5,0,0,0-.67,1.34H350a3.11,3.11,0,0,1,.34-1.4,2.71,2.71,0,0,1,.83-.92,3.61,3.61,0,0,1,1.18-.51,6.38,6.38,0,0,1,1.42-.15,7.85,7.85,0,0,1,1.19.09,2.92,2.92,0,0,1,1.08.35,2.05,2.05,0,0,1,.77.75,2.34,2.34,0,0,1,.3,1.25v4.57a3.43,3.43,0,0,0,.06.76c0,.16.17.24.4.24a1.6,1.6,0,0,0,.45-.07Zm-2.38-4.57a1.7,1.7,0,0,1-.72.3,8.76,8.76,0,0,1-.94.16l-1,.13a4.25,4.25,0,0,0-.89.25,1.7,1.7,0,0,0-.65.49,1.35,1.35,0,0,0-.25.87,1.11,1.11,0,0,0,.15.6,1.15,1.15,0,0,0,.38.41,1.65,1.65,0,0,0,.54.22,2.7,2.7,0,0,0,.65.07,3.46,3.46,0,0,0,1.24-.2,2.58,2.58,0,0,0,.85-.5,2,2,0,0,0,.48-.65,1.65,1.65,0,0,0,.15-.66Z"/><path class="cls-7" d="M363.15,141.45v1.29h-1.78v5.53a1.47,1.47,0,0,0,.05.41.4.4,0,0,0,.16.24.62.62,0,0,0,.34.11,4.11,4.11,0,0,0,.55,0h.68v1.29H362a4.67,4.67,0,0,1-1-.08,1.38,1.38,0,0,1-.65-.28,1.18,1.18,0,0,1-.37-.59,3.36,3.36,0,0,1-.12-1v-5.66h-1.52v-1.29h1.52v-2.67h1.46v2.67Z"/><path class="cls-7" d="M364.85,139.84v-1.79h1.47v1.79Zm1.47,1.61v8.9h-1.47v-8.9Z"/><path class="cls-7" d="M368.38,144.07a4.21,4.21,0,0,1,.83-1.48,3.89,3.89,0,0,1,1.36-1,5,5,0,0,1,3.73,0,3.94,3.94,0,0,1,1.35,1,4.21,4.21,0,0,1,.83,1.48,6.06,6.06,0,0,1,.27,1.84,5.93,5.93,0,0,1-.27,1.82,4.21,4.21,0,0,1-.83,1.48,4,4,0,0,1-1.35,1,5.14,5.14,0,0,1-3.73,0,4,4,0,0,1-1.36-1,4.21,4.21,0,0,1-.83-1.48,5.93,5.93,0,0,1-.27-1.82A6.06,6.06,0,0,1,368.38,144.07Zm1.49,3.28a3,3,0,0,0,.6,1.05,2.53,2.53,0,0,0,.88.64,2.65,2.65,0,0,0,2.16,0,2.62,2.62,0,0,0,.88-.64,3.35,3.35,0,0,0,.6-1.05,5,5,0,0,0,0-2.88,3.3,3.3,0,0,0-.6-1.06,2.4,2.4,0,0,0-.88-.65,2.65,2.65,0,0,0-2.16,0,2.32,2.32,0,0,0-.88.65,3,3,0,0,0-.6,1.06,5,5,0,0,0,0,2.88Z"/><path class="cls-7" d="M379.85,141.45v1.41h0a3.08,3.08,0,0,1,2.89-1.62,3.84,3.84,0,0,1,1.46.24,2.47,2.47,0,0,1,.95.67,2.56,2.56,0,0,1,.51,1,5.32,5.32,0,0,1,.15,1.32v5.85h-1.47v-6a1.66,1.66,0,0,0-1.81-1.79,3,3,0,0,0-1.16.21,2.22,2.22,0,0,0-.82.58,2.57,2.57,0,0,0-.49.89,3.59,3.59,0,0,0-.16,1.11v5h-1.47v-8.9Z"/><path class="cls-7" d="M395.94,150.32a2.16,2.16,0,0,1-1.05.22,1.29,1.29,0,0,1-.91-.32,1.4,1.4,0,0,1-.33-1,3.46,3.46,0,0,1-1.41,1,4.79,4.79,0,0,1-2.87.18,2.54,2.54,0,0,1-.94-.43,2.14,2.14,0,0,1-.63-.76,2.68,2.68,0,0,1-.23-1.15,2.51,2.51,0,0,1,.26-1.24,2.24,2.24,0,0,1,.68-.78,3.05,3.05,0,0,1,1-.46c.36-.1.73-.19,1.11-.26s.79-.14,1.15-.18a6.82,6.82,0,0,0,.95-.17,1.57,1.57,0,0,0,.66-.33.79.79,0,0,0,.24-.63,1.44,1.44,0,0,0-.18-.77,1.19,1.19,0,0,0-.47-.45,2.13,2.13,0,0,0-.63-.21,5.62,5.62,0,0,0-.7-.05,3.15,3.15,0,0,0-1.55.35,1.48,1.48,0,0,0-.67,1.34h-1.47a3.24,3.24,0,0,1,.35-1.4,2.69,2.69,0,0,1,.82-.92,3.8,3.8,0,0,1,1.18-.51,6.51,6.51,0,0,1,1.42-.15,7.88,7.88,0,0,1,1.2.09,2.92,2.92,0,0,1,1.08.35,2.05,2.05,0,0,1,.77.75,2.34,2.34,0,0,1,.3,1.25v4.57a3.43,3.43,0,0,0,.06.76c0,.16.17.24.4.24a1.6,1.6,0,0,0,.45-.07Zm-2.38-4.57a1.7,1.7,0,0,1-.72.3,8.76,8.76,0,0,1-.94.16l-1,.13a4.53,4.53,0,0,0-.9.25,1.66,1.66,0,0,0-.64.49,1.35,1.35,0,0,0-.25.87,1.21,1.21,0,0,0,.14.6,1.36,1.36,0,0,0,.38.41,1.81,1.81,0,0,0,.55.22,2.7,2.7,0,0,0,.65.07,3.5,3.5,0,0,0,1.24-.2,2.53,2.53,0,0,0,.84-.5,2,2,0,0,0,.49-.65,1.65,1.65,0,0,0,.15-.66Z"/><path class="cls-7" d="M398.85,138.05v12.3h-1.47v-12.3Z"/><path class="cls-7" d="M412.31,139.73a3.55,3.55,0,0,0-2.1-.59,4.87,4.87,0,0,0-1,.1,2.81,2.81,0,0,0-.89.35,1.81,1.81,0,0,0-.62.64,2.07,2.07,0,0,0-.23,1,1.28,1.28,0,0,0,.33.92,2.55,2.55,0,0,0,.9.58,7.67,7.67,0,0,0,1.27.37c.47.1,1,.2,1.43.32s1,.25,1.44.4a5.19,5.19,0,0,1,1.27.63,3,3,0,0,1,.89,1,3,3,0,0,1,.34,1.51,3.09,3.09,0,0,1-.44,1.68,3.52,3.52,0,0,1-1.13,1.14,4.91,4.91,0,0,1-1.54.64,7.59,7.59,0,0,1-1.7.2,7.29,7.29,0,0,1-1.95-.26,4.89,4.89,0,0,1-1.62-.79,3.71,3.71,0,0,1-1.1-1.34,4.31,4.31,0,0,1-.41-1.94H407a2.82,2.82,0,0,0,.3,1.34,2.85,2.85,0,0,0,.8.92,3.32,3.32,0,0,0,1.14.53,5.11,5.11,0,0,0,1.35.18,6.14,6.14,0,0,0,1.11-.11,3.12,3.12,0,0,0,1-.35,1.86,1.86,0,0,0,1-1.78,1.58,1.58,0,0,0-.33-1,2.53,2.53,0,0,0-.9-.64,6.65,6.65,0,0,0-1.26-.41l-1.44-.32c-.49-.11-1-.23-1.44-.37a5.9,5.9,0,0,1-1.27-.57,2.7,2.7,0,0,1-.89-.92,2.62,2.62,0,0,1-.34-1.4,3.18,3.18,0,0,1,1.39-2.73,4.45,4.45,0,0,1,1.43-.65,6,6,0,0,1,1.64-.22A7,7,0,0,1,412,138a4,4,0,0,1,1.42.71,3.43,3.43,0,0,1,1,1.22,4.33,4.33,0,0,1,.38,1.74h-1.55A2.58,2.58,0,0,0,412.31,139.73Z"/><path class="cls-7" d="M420.88,141.45v1.29H419.1v5.53a2.09,2.09,0,0,0,0,.41.46.46,0,0,0,.17.24.62.62,0,0,0,.33.11,4.28,4.28,0,0,0,.56,0h.68v1.29h-1.12a4.67,4.67,0,0,1-1-.08,1.34,1.34,0,0,1-.65-.28,1.18,1.18,0,0,1-.37-.59,3.36,3.36,0,0,1-.12-1v-5.66h-1.52v-1.29h1.52v-2.67h1.46v2.67Z"/><path class="cls-7" d="M422.29,144.07a4.19,4.19,0,0,1,.82-1.48,3.89,3.89,0,0,1,1.36-1,4.54,4.54,0,0,1,1.86-.36,4.49,4.49,0,0,1,1.87.36,3.76,3.76,0,0,1,1.35,1,4.06,4.06,0,0,1,.83,1.48,5.77,5.77,0,0,1,.28,1.84,5.64,5.64,0,0,1-.28,1.82,4.06,4.06,0,0,1-.83,1.48,3.86,3.86,0,0,1-1.35,1,4.66,4.66,0,0,1-1.87.35,4.71,4.71,0,0,1-1.86-.35,4,4,0,0,1-1.36-1,4.19,4.19,0,0,1-.82-1.48,5.64,5.64,0,0,1-.28-1.82A5.77,5.77,0,0,1,422.29,144.07Zm1.49,3.28a3.15,3.15,0,0,0,.59,1.05,2.56,2.56,0,0,0,.89.64,2.66,2.66,0,0,0,3-.64,3.15,3.15,0,0,0,.59-1.05,4.82,4.82,0,0,0,0-2.88,3.1,3.1,0,0,0-.59-1.06,2.44,2.44,0,0,0-.89-.65,2.63,2.63,0,0,0-2.15,0,2.36,2.36,0,0,0-.89.65,3.1,3.1,0,0,0-.59,1.06,4.82,4.82,0,0,0,0,2.88Z"/><path class="cls-7" d="M433.71,141.45v1.87h0a4,4,0,0,1,1.31-1.6,3.34,3.34,0,0,1,2-.48v1.55a4.21,4.21,0,0,0-1.5.24,2.34,2.34,0,0,0-1,.71,2.86,2.86,0,0,0-.56,1.13,6.3,6.3,0,0,0-.17,1.52v4h-1.46v-8.9Z"/><path class="cls-7" d="M441.61,151.54a8.28,8.28,0,0,1-.51,1.1,2.85,2.85,0,0,1-.55.73,1.89,1.89,0,0,1-.67.42,2.76,2.76,0,0,1-.85.13,4.55,4.55,0,0,1-.52,0,2.15,2.15,0,0,1-.5-.12v-1.34a3.27,3.27,0,0,0,.44.14,1.91,1.91,0,0,0,.42.06,1.28,1.28,0,0,0,.75-.21,1.43,1.43,0,0,0,.46-.61l.6-1.5-3.53-8.85h1.65l2.6,7.28h0l2.5-7.28h1.55Z"/><path class="cls-7" d="M453.39,138.05V149h6.51v1.38h-8.14v-12.3Z"/><path class="cls-7" d="M469,150.32a2.19,2.19,0,0,1-1.05.22,1.29,1.29,0,0,1-.91-.32,1.4,1.4,0,0,1-.33-1,3.46,3.46,0,0,1-1.41,1,4.79,4.79,0,0,1-2.87.18,2.47,2.47,0,0,1-.94-.43,2,2,0,0,1-.63-.76,2.54,2.54,0,0,1-.23-1.15,2.51,2.51,0,0,1,.26-1.24,2.14,2.14,0,0,1,.68-.78,3.05,3.05,0,0,1,1-.46c.36-.1.73-.19,1.11-.26s.79-.14,1.15-.18a6.82,6.82,0,0,0,1-.17,1.57,1.57,0,0,0,.66-.33.79.79,0,0,0,.24-.63,1.44,1.44,0,0,0-.18-.77,1.19,1.19,0,0,0-.47-.45,2.09,2.09,0,0,0-.64-.21,5.34,5.34,0,0,0-.69-.05,3.15,3.15,0,0,0-1.55.35,1.48,1.48,0,0,0-.67,1.34H461a3.11,3.11,0,0,1,.35-1.4,2.69,2.69,0,0,1,.82-.92,3.8,3.8,0,0,1,1.18-.51,6.44,6.44,0,0,1,1.42-.15,8.08,8.08,0,0,1,1.2.09,2.92,2.92,0,0,1,1.08.35,2.05,2.05,0,0,1,.77.75,2.34,2.34,0,0,1,.29,1.25v4.57a3.43,3.43,0,0,0,.06.76c.05.16.18.24.41.24a1.6,1.6,0,0,0,.45-.07Zm-2.38-4.57a1.7,1.7,0,0,1-.72.3,8.76,8.76,0,0,1-.94.16l-1,.13a4.53,4.53,0,0,0-.9.25,1.66,1.66,0,0,0-.64.49,1.35,1.35,0,0,0-.25.87,1.21,1.21,0,0,0,.14.6,1.36,1.36,0,0,0,.38.41,1.81,1.81,0,0,0,.55.22,2.7,2.7,0,0,0,.65.07,3.5,3.5,0,0,0,1.24-.2,2.53,2.53,0,0,0,.84-.5,2,2,0,0,0,.49-.65,1.65,1.65,0,0,0,.15-.66Z"/><path class="cls-7" d="M471.85,138.05v4.6h0a2.19,2.19,0,0,1,1.13-1.07,4.18,4.18,0,0,1,1.71-.34,4,4,0,0,1,1.8.38,3.63,3.63,0,0,1,1.27,1,4.49,4.49,0,0,1,.77,1.49,6.44,6.44,0,0,1,0,3.59,4.28,4.28,0,0,1-.76,1.47,3.55,3.55,0,0,1-1.27,1,4.17,4.17,0,0,1-1.79.36,4.06,4.06,0,0,1-.73-.07,4.77,4.77,0,0,1-.8-.22,4,4,0,0,1-.75-.42,2.39,2.39,0,0,1-.59-.67h0v1.19h-1.46v-12.3Zm5.26,6.56a3.13,3.13,0,0,0-.49-1.06,2.49,2.49,0,0,0-.87-.74,2.84,2.84,0,0,0-2.48,0,2.63,2.63,0,0,0-.85.77,3.09,3.09,0,0,0-.47,1.08,5,5,0,0,0-.15,1.22,4.86,4.86,0,0,0,.16,1.27,3,3,0,0,0,.49,1.07,2.45,2.45,0,0,0,.87.75,2.67,2.67,0,0,0,1.29.29,2.49,2.49,0,0,0,1.27-.3,2.3,2.3,0,0,0,.81-.77,3.27,3.27,0,0,0,.45-1.1,6,6,0,0,0,.14-1.28A4.48,4.48,0,0,0,477.11,144.61Z"/></svg>