<svg id="Layer_1" data-name="Layer 1" xmlns="http://www.w3.org/2000/svg" viewBox="0 0 448.95 101.32"><defs><style>.cls-1,.cls-2,.cls-3,.cls-4{fill:none;}.cls-1{stroke:#f3b544;}.cls-1,.cls-2{stroke-linecap:round;stroke-linejoin:round;stroke-width:0.72px;}.cls-2{stroke:#8bc862;}.cls-3{stroke:#f89921;}.cls-3,.cls-4{stroke-miterlimit:10;opacity:0.82;}.cls-4{stroke:#649946;}.cls-5{font-size:17.22px;fill:#b0b0b0;font-family:HelveticaNeue, Helvetica Neue;}.cls-6{letter-spacing:-0.02em;}.cls-7{letter-spacing:-0.05em;}</style></defs><title>storywrangler_icon</title><path class="cls-1" d="M45.14,21c-.14-.09-3,5.13-3.16,5.05s1.85-6.09,1.78-6.13-3.58,5.84-3.64,5.81,2.12-5.3,2-5.38-1.47,2.51-1.54,2.46S42.09,20,42,19.93s-2.11,3.52-2.18,3.48.83-3.23.73-3.29-.37.62-.38.61"/><path class="cls-1" d="M61.47,26.05s-.35.58-.36.58.4-3,.36-3-1.88,3.15-1.94,3.11,2.37-5.35,2.21-5.45-3.35,5.51-3.42,5.47,2-6.58,1.83-6.72-4.07,7-4.31,6.89,4-6.51,3.81-6.66S56.14,26,56.08,26s4-6,3.78-6.17S56.24,26,56.08,25.85s3.17-5.39,3.11-5.42-3.49,5.75-3.56,5.71,1.91-5.09,1.72-5.21c-.43-.26-10.76,18.43-11.3,18.09s9.74-18,9.47-18.21S46.48,36.28,46,36c-.28-.18,9-16,8.79-16.14-.5-.31-9.13,15.21-9.4,15-.59-.36,10.06-15.08,9.53-15.41-.38-.23-8.5,14.74-9,14.42-.27-.17,9.47-16.08,8.94-16.41-.27-.16-8.6,14.65-9,14.4-.17-.11,9.65-14.79,9.2-15.07-.2-.13-9.3,15.71-9.67,15.48s9.52-17.49,9.17-17.71-8.34,13.72-8.51,13.61c-.55-.34,9-15.23,8.67-15.41s-8.27,14.1-8.66,13.86,8.43-15.72,8.15-15.89c-.57-.36-9.67,16.42-10.09,16.15s9.65-16.13,9.26-16.38-9.73,16.3-10,16.09,8.54-15.55,8.07-15.85c-.32-.2-5.09,8.79-5.39,8.61s3.9-8.59,3.63-8.76S45.8,17,45.69,17s2.31-6.26,2.19-6.33-2,3.43-2.09,3.35.62-4,.49-4.13-.63,1-.64,1"/><path class="cls-1" d="M61.43,53.11s-.22.37-.23.37,0-1.51,0-1.52-1.23,2.12-1.3,2.07,1.49-3.71,1.36-3.8-2,3.55-2.17,3.47,2.63-6.91,2.5-7-4.49,7.51-4.64,7.42,3.81-7.32,3.54-7.49S56,54.11,55.84,54s3.93-7.77,3.66-7.94c-.09-.06-4.89,8.14-5,8s2.44-7.51,2.33-7.58-4.2,7.09-4.36,7,3.45-6.73,3.32-6.82S52.08,53,51.91,52.89s3.1-6.91,3-7-4.17,7.34-4.47,7.15,4.87-7.52,4.7-7.63-4.65,7.82-4.82,7.71,4.8-7.56,4.59-7.69-4.31,7.38-4.53,7.24,4.48-8.95,4.26-9.09-5.38,8.87-5.5,8.79,6.42-12.14,6-12.4c-.14-.08-6.87,11.9-7.28,11.64-.17-.11,7-10.9,6.74-11s-7,11.59-7.16,11.47,7.38-12.86,7.14-13-7,11.78-7.25,11.61S54.9,38.18,54.62,38s-7.86,12.92-8,12.83c-.42-.27,8.65-16.45,8.09-16.8S46,49,45.55,48.65s9.47-15.67,9-16-8.06,13.73-8.43,13.49c-.21-.13,9.4-17.54,8.76-17.94s-9,15.11-9.32,14.92c-.6-.37,9.77-16.74,9.53-16.89-.42-.26-8.71,14.58-9,14.4"/><path class="cls-1" d="M86.9,46.09c-.28-.17-5.34,8.75-5.43,8.69s2.82-7.32,2.74-7.36-4.32,7.3-4.49,7.19,3.88-7.37,3.63-7.53c-.09-.06-3.78,6.63-4,6.46s1.75-5.59,1.6-5.69S77,54.2,77,54.16s3.67-6.89,3.6-6.94-3.87,6.42-4,6.36,1.79-6.42,1.73-6.47-3.22,5.58-3.41,5.46,3.15-6,3-6.06-3.41,5.66-3.51,5.6,3.25-6.55,3.05-6.67S73.16,52.61,73,52.52s3.28-8.08,3.15-8.16-4.35,7.24-4.47,7.16,3.92-6.91,3.8-7S71.81,51,71.55,50.85s3.07-8.6,2.9-8.7S70,49.73,69.8,49.6s4.21-10.05,4-10.18-5.44,9-5.58,8.93,5.72-11.89,5.6-12c-.28-.17-6.61,11.1-6.84,11s7.34-11.21,6.89-11.49-6.15,10.5-6.44,10.31,7-12.8,6.77-13-7.53,12.58-7.77,12.43,8.46-13.56,8-13.86c-.33-.21-7.45,13-7.93,12.7"/><path class="cls-1" d="M97.25,45.24c-.11-.07-1.86,3.08-1.91,3s3.8-7.95,3.69-8c-.41-.25-6.21,10.83-6.61,10.58-.2-.13,6.28-11.17,6.14-11.26s-7.73,13.25-8.13,13,8.45-15.41,8.25-15.54c-.55-.34-9.87,16.7-10.28,16.45s10.67-19,10.43-19.1C98.24,34,87.49,53.46,87.08,53.2S98.77,33.43,98.52,33.27c-.5-.31-12,20.5-12.59,20.16S99.3,33,98.58,32.53,85.86,54.2,85.27,53.82,99,31.56,98.76,31.38s-14,23.31-14.39,23,14.22-24,13.78-24.3S83.43,55.18,82.75,54.76,97.69,29.3,97.05,28.9c-.24-.15-7.59,12.51-7.76,12.41S97.7,28.09,97.51,28,90,40.6,89.71,40.45c-.42-.27,6.8-14.37,6.6-14.49S90,36.71,89.7,36.53s6-10.66,5.85-10.76-5.5,9.49-5.81,9.29,5.54-9.75,5.16-10-4.67,8.1-5,7.93,4.23-8.55,4.06-8.66-4.27,7.11-4.4,7,3.81-7.22,3.74-7.27c-.28-.18-4,6.73-4.15,6.62s3.38-7.06,3.28-7.13c-.25-.16-4.24,7-4.33,6.94s3.72-7.67,3.45-7.84S87.89,29,87.71,28.92s2.7-6.85,2.63-6.9-3.45,5.77-3.56,5.7S89,20.82,89,20.77s-3.7,6.24-3.84,6.14,3.14-5.62,3-5.69-3.31,5.55-3.42,5.48,3.74-6.43,3.64-6.49-3.85,6.61-4,6.49,3.26-6,3.11-6.08S84,26.48,83.83,26.37s2.32-5.82,2.15-5.93-3.19,5.36-3.31,5.29,3.66-5.74,3.58-5.79-3.72,6.21-3.84,6.14,3.86-6,3.67-6.11-3.53,6.08-3.72,6,2-6.2,2-6.24-3.91,6.47-4,6.41,2.85-5.85,2.68-6S78.83,27.09,78.73,27s3.76-7.38,3.56-7.51-4.78,8.11-5,8,3.93-8.27,3.65-8.44c-.7-.44-15,25-15.46,24.75S81,19.75,80.62,19.53c-.7-.45-14.52,23.9-14.82,23.71-.78-.48,14.18-23,13.45-23.4-.33-.21-13.36,22.77-14,22.38C64.39,41.67,79.33,20.43,78.59,20S65.54,41.61,65.2,41.4,79,19.93,78.28,19.47,65.34,40.9,65,40.7,76.64,21,75.89,20.5c-.3-.18-10.37,17.54-10.8,17.27s10.69-17.24,10.5-17.36S65,37.79,64.81,37.65c-.53-.33,9.65-16,9.4-16.17s-9,14.79-9.16,14.66c-.37-.23,6-12.24,5.56-12.49s-4.75,8.27-5.06,8.08c-.09-.06,3.12-6.13,3-6.22s-1.85,3.17-1.94,3.12"/><path class="cls-1" d="M113.27,27c-.15-.09-7.39,13-7.94,12.71-.4-.25,8.83-14.16,8.63-14.29s-9,15.11-9.31,14.9,9.49-17.71,9.21-17.89-8.6,14.77-9,14.49c-.26-.17,9.18-14.59,9-14.71s-8.61,14.71-9,14.45c-.59-.37,9.53-14.84,9.19-15s-8.65,14.27-8.84,14.15c-.48-.3,9-13.52,8.44-13.85-.14-.09-8.46,14.43-8.86,14.17-.56-.34,9.2-13.87,8.78-14.13s-7.74,13.41-8.2,13.12c-.24-.15,7.52-14.25,7.27-14.4-.4-.25-7.63,12.58-7.8,12.47s6.5-12.23,6.31-12.35-5.67,10-6.07,9.73,4.42-9.69,4.29-9.77-3.7,6.46-4,6.31,2.18-6.26,2-6.37S105.1,24.5,105,24.42s.58-3.52.52-3.56-.76,1.34-.81,1.3.52-1.74.48-1.77-.21.35-.22.34"/><path class="cls-1" d="M126.35,27.78s-.29.47-.29.47.35-4.1.29-4.14-1.91,3.36-2,3.28,1.85-5.58,1.74-5.65-3.7,6.27-3.86,6.17,3.27-8.39,3.08-8.51-5.7,9.36-5.81,9.29c-.35-.21,5.25-9.47,5-9.62s-6.41,10.65-6.59,10.54,5.15-9.74,4.78-10c-1.12-.7-17.19,29-17.86,28.59-.5-.31,16-27.08,15.1-27.67-.38-.24-14.48,24-14.84,23.75-.53-.32,13.8-22.46,13.14-22.87-.37-.24-12.64,22.12-13.49,21.59s12.09-20,11.75-20.17-11.39,19.07-11.77,18.83c-.69-.43,11.21-17.59,10.79-17.86-.58-.36-10,17.46-10.66,17.06"/><path class="cls-1" d="M114,53.11s-.21.35-.21.34,0-2.77,0-2.81-1.44,2.46-1.51,2.41,1.9-5.29,1.75-5.38-3.3,5.48-3.38,5.42c-.26-.15,3.7-8.08,3.41-8.25s-5.26,8.9-5.48,8.77c-.39-.25,5.89-11.59,5.59-11.78s-7,11.87-7.31,11.7,7.28-11.61,7.15-11.69c-.46-.28-7.14,11.91-7.36,11.77-.38-.23,7.4-14.37,7.25-14.46-.55-.34-8.69,14.78-9.08,14.54s9.29-15.42,9.13-15.52c-.47-.3-8.78,15.2-9.29,14.88s9.33-14.83,9.06-15-8.13,14-8.58,13.73c-.24-.15,9.92-17.65,9.36-18s-9.25,15.22-9.44,15.1,10-15.56,9.76-15.71c-.62-.39-9.67,16-9.92,15.88"/><path class="cls-2" d="M185.13,43c-.29-.19-5.16,9-5.47,8.76-.13-.09,5.2-9.54,4.88-9.74-.16-.1-5,8.39-5.18,8.29s5.24-9.89,5.09-10c-.36-.22-5.17,8.6-5.32,8.5s4.74-10.66,4.41-10.87c-.1-.06-5.35,9-5.55,8.89s5.81-12.15,5.48-12.35c-.12-.08-6.3,10.58-6.52,10.44s6.14-11.94,5.91-12.09-5.65,9.5-5.85,9.37c-.39-.24,5.24-11.3,4.83-11.56s-6,9.94-6.16,9.86,6.35-11.7,6-11.92c-.21-.14-5.84,10.13-6.19,9.91-.17-.11,6-12.44,5.69-12.6-.12-.08-6.63,11.14-6.87,11s6.43-13,6.17-13.13-6.34,10.59-6.54,10.47c-.41-.26,5.84-12,5.42-12.3s-5.53,9.66-5.9,9.43,4.64-10.52,4.37-10.69-5.18,8.9-5.45,8.74,3.31-8.87,3.1-9-4.06,6.7-4.16,6.64,1.74-6.18,1.6-6.27-2.18,3.75-2.3,3.67-.09-3.46-.13-3.49-.54.91-.56.9,1-1.6,1-1.64-.83,1.38-.85,1.36-.33-1-.34-1-.3.5-.31.5"/><path class="cls-2" d="M189.92,52.45S189,54,189,54s1.37-3,1.26-3.09-1.45,2.49-1.52,2.44,2.34-5.06,2.23-5.13-3.34,5.75-3.52,5.63c-.34-.21,4.42-9.78,4.28-9.87-.3-.19-5.54,9.62-5.88,9.41S193,42,192.6,41.76c-.12-.07-7,11.91-7.32,11.71S193.1,41,192.83,40.84c-.42-.26-8,13.3-8.23,13.18s9.52-17.88,9.27-18-10.14,17.22-10.59,16.94S195,33.31,194.77,33.15c-.74-.47-12,20.65-12.65,20.25-.81-.51,13.69-21.73,13.15-22.07-.32-.2-13,22.44-13.72,22"/><path class="cls-2" d="M205.27,42.9c-.09-.06-4.7,7.76-4.8,7.69-.27-.17,4.8-7.68,4.7-7.74-.28-.17-4.69,7.75-4.8,7.69-.3-.2,4.64-8.17,4.4-8.32s-4.43,7.59-4.66,7.45,5.19-9.94,4.93-10.11-5,8.39-5.18,8.31,4.91-9.22,4.62-9.4-4.55,7.86-4.82,7.7,4.69-9.57,4.49-9.7-5.42,8.85-5.5,8.8c-.23-.14,4.9-10,4.72-10.09s-4.54,7.91-4.83,7.72,5.3-8.48,5.09-8.61-5.06,8.6-5.28,8.46,5.18-9.51,4.94-9.66-5.34,8.84-5.47,8.76,5.16-10.74,4.77-11c-.16-.1-5.27,8.94-5.5,8.8s4.79-11.17,4.56-11.32-4.67,7.85-4.84,7.74,4.38-10.77,4.26-10.85-5.2,8.87-5.45,8.72,5.72-9.21,5.38-9.42-4.61,8.07-4.92,7.88,4.42-8.82,4.19-9-4.87,8-5,8,4.72-11,4.59-11.1c-.62-.38-18.72,32.55-19.88,31.82-.77-.48,20.34-31.78,19.79-32.12-1.22-.77-19.19,32.34-19.92,31.88-.54-.33,18.83-30.7,17.8-31.34-.26-.16-10.54,18.19-11.13,17.82s10-17.43,9.44-17.75c-.34-.22-8,13.37-8.25,13.21s8.41-13.16,8.24-13.26c-.49-.31-8.44,14.09-8.7,13.93-.49-.31,8.14-13.65,7.94-13.77-.44-.27-6.47,11.21-6.86,11S195.68,20.15,195.4,20,188.19,32.05,188,31.9s6.69-11.22,6.27-11.49c-.09-.06-5.15,9-5.5,8.8-.08-.05,3.8-8.36,3.68-8.44s-2.64,4.61-2.82,4.5,1.54-4.76,1.49-4.79-.64,1.05-.65,1.05"/><path class="cls-2" d="M211,52.3s-1.07,1.75-1.09,1.74,3.41-8.54,3.28-8.63-4.95,8.37-5.15,8.24,5.73-9.4,5.39-9.62-5.57,9.31-5.75,9.19,7.46-12.29,7-12.59-7.49,12.78-7.85,12.56,10.32-18.35,9.68-18.75-11.32,19.77-12.06,19.31c-.38-.24,13.08-20.29,12.59-20.59-.67-.42-12.16,21-12.85,20.56s14.31-23.5,13.72-23.86c-.85-.54-14.42,24.07-14.86,23.79s18.6-31,17.53-31.63-18.76,31.65-19.5,31.19S221.9,21,221,20.44c-.64-.4-18.94,32.2-19.79,31.67s19.64-31.55,19.07-31.9-18.63,32.07-19.64,31.44,20.3-31.58,19.82-31.88-19.25,31.74-19.67,31.48c-.88-.55,20.12-29.95,19-30.63-.45-.28-19.09,31.62-19.57,31.32-1-.65,18.31-31.74,17.94-32-.54-.33-11.19,18.7-11.54,18.48-.55-.34,9.42-17.59,9-17.88-.22-.14-6.88,11.49-7.1,11.36s5-11.41,4.82-11.5-2.94,5.06-3.1,5,2-5.39,1.86-5.46a8,8,0,0,1-.43.69"/><path class="cls-2" d="M233.38,26.55c-.49-.3-7.88,13.3-8.19,13.11s8.8-13.07,8.29-13.39c-.36-.22-8.14,14-8.58,13.73s8.71-14.18,8.24-14.47c-.24-.15-7.9,13.09-8.11,13-.37-.24,8.5-14.69,8.14-14.91s-8,13.12-8.14,13c-.3-.18,7.88-15.64,7.44-15.91s-7.38,12.75-7.8,12.49,7.12-12.19,7-12.28S225.21,31.67,225,31.55c-.36-.23,6-10.82,5.79-11s-5.84,9.79-6,9.67,4.25-10,4.11-10.11-3.68,6.42-3.92,6.28S226.31,21,226.22,21A22.36,22.36,0,0,1,225,22.88s.21-2.69.15-2.72-.43.7-.43.69"/><path class="cls-2" d="M246.46,27.36s-.54.88-.54.87,0-3.22,0-3.24-1.82,3-1.87,3,2.11-4.3,2.07-4.32-2.86,4.92-3,4.83S246,23.16,245.78,23s-2.65,4.51-2.77,4.43,3-5.54,2.79-5.65-3.44,6.07-3.69,5.91,2.89-7.5,2.8-7.56-4.7,7.76-4.8,7.7,4.61-8,4.39-8.1-5.51,9.46-5.8,9.28,4.73-9.63,4.49-9.77S236.41,31,236,30.74c-.23-.15,5.74-11.25,5.51-11.39-.45-.28-16.33,27.2-16.81,26.9-.68-.42,17.08-25.8,16.16-26.38-.44-.27-15.41,25.75-15.89,25.44s13.29-23,12.53-23.52-12.42,21.32-13.07,20.92c-.35-.23,12.22-19.42,11.49-19.88-.53-.33-10.61,18.23-11.17,17.88"/><path class="cls-2" d="M233.87,53.11s-.2.35-.21.34.47-3.11.43-3.14-2,3.37-2.08,3.32,2.14-4,2.07-4-2.48,4.17-2.57,4.11,2.79-4.57,2.71-4.62S232,53,231.82,52.93s2.59-6.15,2.4-6.27S229.74,54,229.65,54s4-7.19,3.92-7.25c-.29-.18-4.33,7.5-4.59,7.34s5-7.89,4.77-8.05-4.29,7.09-4.4,7,5.08-9,4.75-9.25-5.71,9.75-6,9.58,6.31-11.24,6.06-11.4-6.51,11.12-6.83,10.92,6.72-13,6.55-13.06S225.34,54.22,225,54s9.78-18.27,9.31-18.56-8.79,14.86-9.14,14.64,10.18-16.9,9.67-17.22c-.28-.18-9.91,16.48-10.19,16.3"/><path class="cls-2" d="M295.72,52.9s-.4.65-.41.65.52-4.73.47-4.77-2.8,4.72-2.91,4.65,3.09-6.11,3-6.16c-.23-.14-3.79,6.21-3.86,6.16s3.8-6.81,3.71-6.87-4.35,7.26-4.49,7.18c-.3-.19,4.7-8,4.62-8.05s-5,8.53-5.23,8.38,5.22-8.79,4.92-9-4.88,8.42-5.16,8.25,5.22-8.7,5-8.85S290.24,53.12,290,53s6-9.51,5.74-9.69-6,10.41-6.35,10.17S295.66,40,295.5,39.92c-.49-.3-8.65,14.27-8.84,14.15-.61-.38,9.35-17,9-17.19s-8.4,14.4-8.83,14.13,9.43-14.55,8.85-14.91c-.39-.25-8.91,15.53-9.48,15.17s10-16.81,9.41-17.17c-.24-.15-8.69,14.56-9,14.38-.57-.36,10.42-17.87,9.93-18.17s-9.8,16.52-10.18,16.29"/><path class="cls-2" d="M317.53,53.11s-.2.35-.21.34.17-3.33.12-3.36-2.05,3.57-2.18,3.49,2.15-4.32,2.06-4.38-2.29,4-2.44,3.92,2.84-4.44,2.73-4.51-3,5.13-3.14,5,3.33-7,3.24-7.11-4.14,7.22-4.41,7.06,4.56-9.63,4.23-9.83-5.63,9.6-5.9,9.43,6-9.17,5.69-9.37-5.63,9.74-6,9.53,6.59-13.79,6.43-13.89c-.54-.34-8.34,14.38-8.81,14.09s8.66-16.33,8.44-16.46c-.56-.35-8.48,14.35-8.83,14.13-.18-.12,9.43-14.89,9-15.2s-8.79,15.16-9.28,14.85c-.19-.12,9.52-15.08,9-15.39-.2-.12-8,13.77-8.42,13.48-.16-.1,8.71-15.29,8.29-15.56S309,47.64,308.47,47.32c-.23-.15,9.81-16.57,9.28-16.91S309.13,45.34,308.62,45s9.15-14.09,8.75-14.34c-.17-.11-8.66,14.29-8.85,14.16s9.44-15.63,9-15.9-8.73,14.75-9.08,14.53,9.18-16,8.6-16.38S308.9,41.22,308.4,40.9s8.71-13.81,8.25-14.09-7.35,12.82-7.82,12.52,7.76-13.25,7.58-13.35S309,38.44,308.73,38.27s6.74-13.49,6.47-13.66-6.56,11-6.77,10.84,7-11.92,6.66-12.16S308.84,34,308.51,33.81s5.47-11,5.16-11.2-5.3,8.88-5.48,8.77,5.39-10.12,5.18-10.26-5.05,8.53-5.25,8.4S312,21,311.74,20.83c-.09-.06-4.76,7.82-4.85,7.76s4.6-8.47,4.48-8.55-4.95,8.19-5.07,8.12,3.88-8.52,3.6-8.69-4.8,8-4.93,7.9,3.87-7.19,3.8-7.23S304.59,27,304.51,27s3.08-7.12,2.92-7.22-4.53,7.44-4.61,7.39,3.47-7.7,3.31-7.81-4.78,8-4.94,7.91,3.16-7.53,3.05-7.6-4.58,7.83-4.81,7.69,2.94-7.34,2.87-7.39c-.93-.58-14.47,25.29-15.43,24.69s15.68-23.84,15.06-24.23c-.95-.59-14.57,24.89-15.28,24.45-.56-.36,14.31-23.48,13.56-24s-13,21.7-13.4,21.46c-.53-.34,11.8-20,11.05-20.52-.32-.2-10.46,18.1-11.07,17.72-.36-.22,9-15.88,8.48-16.21-.32-.2-8.64,14.8-9.08,14.52s9.6-14.71,9.05-15c-.37-.24-8.56,14.83-9.07,14.51-.33-.2,9.5-14.2,9-14.53-.21-.13-8.24,14.15-8.67,13.88s9.37-14.93,8.9-15.23-8.17,13.91-8.54,13.68,8.69-14.26,8.44-14.42-8.59,14.65-9,14.39,8.68-15,8.36-15.21-8,13.27-8.22,13.14,6.51-12,6.19-12.18-5.79,9.52-5.9,9.45,6.35-9.48,6-9.7c-.13-.08-6.23,10.45-6.45,10.32s5.48-10.11,5.19-10.3-4.62,8.05-4.92,7.87,4.27-8,4-8.19-3.85,6.34-3.93,6.29,2.49-6.45,2.35-6.54-2.13,3.57-2.2,3.53,1.7-3.22,1.66-3.24-1.53,2.72-1.65,2.64,0-2.67,0-2.7l-.47.77"/><path class="cls-2" d="M345.21,43.4c-.18-.12-5.59,9.48-5.84,9.33s2.66-7.55,2.5-7.64-4.37,7.56-4.62,7.4,4.21-6.62,4.06-6.71-3.72,6.15-3.8,6.1,1.89-5.9,1.76-6-3.62,6-3.72,6,1.85-6.59,1.72-6.67-3.74,6.22-3.85,6.16,3.42-6.72,3.21-6.85S332,52.11,331.9,52s4.44-7.85,4.18-8-4.41,7.51-4.61,7.38S336.23,44,336,43.85s-4.27,7.1-4.39,7,3.1-7.08,2.91-7.19-3.73,6.5-4,6.35,3.19-7.53,3-7.67-4.53,7.86-4.81,7.69,4.56-10.24,4.23-10.44-5,8.44-5.19,8.3,5.32-11.58,5-11.75-6.42,10.8-6.66,10.65,6.9-12,6.61-12.22c-.13-.09-6.55,11.29-6.91,11.06-.11-.07,7-11,6.86-11s-6.5,10.77-6.66,10.67,6.87-13,6.71-13.08-6.85,11.94-7.29,11.66c-.22-.13,8.33-13.14,8.11-13.27S325.17,44.43,325,44.32"/><path class="cls-2" d="M347.35,25.05c-.09-.05-1.91,3.32-2,3.25s1.38-4.74,1.27-4.81-2.52,4.2-2.6,4.15,1.38-5.84,1.23-5.93S342.13,27,342,26.9s2.07-5.26,1.89-5.38-2.52,4.35-2.66,4.26,2.41-4.71,2.29-4.78-3.32,5.57-3.44,5.5,2.1-6.6,1.9-6.73S337.52,27,337.44,27s4.44-7.15,4.15-7.32-4.71,7.72-4.79,7.67c-.26-.16,3.26-8,3-8.16S325.19,43.24,324.86,43s14-22.59,13.35-23-13.6,22.41-13.9,22.23,13.52-22,13.25-22.17c-.8-.5-12.5,21.94-13.37,21.4S335.57,20.63,335,20.29s-10.81,18.06-11.15,17.84c-.18-.11,8.83-17.32,8.52-17.51-.5-.31-8.46,14.76-9,14.42-.33-.21,9.74-14.66,9.31-14.93-.15-.1-9.26,15.27-9.47,15.14-.46-.29,8.37-14.37,8.21-14.47s-7.09,11.89-7.34,11.74,4.82-9.82,4.71-9.89-3.93,6.7-4.12,6.58,3.37-5.65,3.25-5.72-2.62,4.44-2.73,4.37"/><path class="cls-2" d="M345.76,57.7c-.23-.14-5.13,8.86-5.43,8.68s3.09-6.45,2.91-6.57-3.81,6.58-4,6.44,2.27-6.83,2.06-7-4,6.65-4.1,6.56,2.55-5.41,2.45-5.48-3.62,5.92-3.68,5.88,2.56-6.1,2.4-6.19-3.06,5.23-3.21,5.13,3-5.93,2.78-6.06-3.76,6.47-4,6.34,4-6.26,3.93-6.32-3.46,5.83-3.59,5.75,2.59-6.35,2.46-6.42-3.62,6.3-3.85,6.16c-.07,0,2.95-5.14,2.79-5.23s-3.48,5.87-3.62,5.79,3.21-7.85,3.05-7.95-3.89,6.43-4,6.38,2.73-8.1,2.58-8.19-4.47,7.33-4.55,7.28,1.85-6.85,1.78-6.9-3.76,6.37-3.91,6.27,3.25-7.17,3-7.31-3.53,5.94-3.66,5.86S328.32,55,328.26,55s-2.8,4.7-2.9,4.64,1.35-4.45,1.3-4.48S325,58,324.93,57.93s-.12-2.5-.17-2.53a2.13,2.13,0,0,0-.16.25"/><path class="cls-2" d="M355,57.83c-.11-.07-2,3.27-2,3.24s3.21-5.76,3-5.89-4.77,7.87-4.88,7.8c-.37-.23,5.16-11.37,5-11.45-.41-.26-7.69,12.76-7.89,12.63s8.06-12.75,7.65-13c-.24-.16-8.39,14.13-8.71,13.94s9.3-17.35,8.79-17.67-11,18.81-11.53,18.45c-.83-.52,12.9-22.46,12.1-23-.63-.39-13.62,23.32-14.3,22.89-.47-.3,14.79-26,14.27-26.29-.16-.1-8.44,14.57-8.92,14.27-.25-.15,8.78-14.57,8.32-14.86-.22-.14-7.62,13.29-8.11,13s8.62-16.6,8.1-16.93-7.58,13.19-8.06,12.89,9.18-14.76,8.73-15-9.06,15.06-9.31,14.9,9-14.11,8.77-14.23c-.48-.3-9,15.53-9.5,15.2s10.52-15.77,10-16.11-9.39,16.45-10,16c-.23-.15,10.11-15.67,9.49-16s-10.15,17.75-10.83,17.33c-.39-.25,11.66-22,11.41-22.18-.86-.54-14.53,24.92-15.28,24.45s15.32-26.22,15-26.42S347,41.37,346.64,41.16c-.17-.1,9.79-16.1,9.3-16.4-.31-.19-7.75,13.34-8.18,13.08s8.79-15.56,8.3-15.87c-.2-.12-7.85,13-8,12.85-.38-.24,7-13.64,6.63-13.87s-6.73,11.79-7.18,11.5c-.13-.08,6.75-11.79,6.49-12s-6.42,11.24-6.86,11,7-11.14,6.69-11.34S347.58,31,347.18,30.74s5.3-10.75,5.06-10.9S346.06,30,345.93,30c-.3-.19,4.19-9.26,4-9.38s-1.86,3.17-1.94,3.11,0-3.31,0-3.35-.64,1-.64,1"/><path class="cls-2" d="M372.93,53.13s-.23.39-.24.39,0-2.47-.1-2.51-1.36,2.43-1.47,2.36,2.22-6.48,2.06-6.58-3.79,6.4-3.94,6.31S372.73,45,372.63,45s-5,8.37-5.17,8.27c-.38-.23,5.54-11.4,5.12-11.66-.16-.1-7.05,11.9-7.33,11.73s8.12-13.89,7.89-14-8.45,14.25-8.78,14,9.16-17.26,8.87-17.44-8.9,14.63-9.08,14.52c-.55-.34,9.11-15.8,8.65-16.09S364,49.23,363.63,49s9.53-17.53,9.1-17.8c-.58-.36-8.31,14.47-8.83,14.14s9.32-15,8.87-15.29-8.56,14.73-9,14.44,9.33-16.08,9.05-16.25-8.43,14.15-8.72,14,9-14,8.71-14.19S364.34,42.28,364,42.06s9.61-18.16,9.07-18.49-8.93,15-9.24,14.77c-.62-.39,10.07-16.85,9.47-17.23-.31-.2-9.35,15.92-9.77,15.65-.69-.43,9.63-17.89,9.35-18.07-.52-.32-9,15.13-9.33,14.93-.57-.36,9.79-15.75,9.24-16.09s-8.86,14.63-9.07,14.5,9.77-15.64,9.18-16c-.2-.13-8.39,14.69-9,14.34-.25-.16,9.44-16.12,9-16.4-.2-.12-9.06,15.24-9.39,15-.54-.34,9.6-16.31,9.09-16.63S364,27,363.6,26.8s9.92-15.85,9.58-16.07c-.15-.09-8.87,15.1-9.28,14.85-.58-.36,9.34-17.46,9-17.65s-8.52,14-8.7,13.91S372,7.73,371.71,7.53s-7.55,12.79-7.87,12.59,6-11.62,5.71-11.81-5.6,9.24-5.73,9.16c-.32-.21,6.33-10,5.93-10.23-.15-.09-5.82,9.91-6.09,9.74s6-9.72,5.91-9.8-5,8.74-5.34,8.54,2.3-7.38,2.14-7.48-2.49,4.25-2.61,4.17,2.76-4.78,2.58-4.88-2.33,4-2.45,3.91.77-3.83.68-3.88-.29.53-.32.51-.37.07-.38.06-.25.41-.26.4"/><path class="cls-2" d="M425.83,26c-.26-.16-8.42,14.37-8.82,14.12s8.8-16.4,8.45-16.62-8.57,14.1-8.75,14c-.62-.39,9.07-17.4,8.62-17.68-.17-.11-7.95,13.52-8.3,13.3s5.73-12.39,5.55-12.5-5.19,8.9-5.46,8.74,5.47-9.41,5.29-9.52-5.53,9.1-5.64,9,3.39-8.72,3.26-8.8-3.11,5.14-3.18,5.09.93-4.27.87-4.31-.88,1.49-.91,1.47.62-2.25.59-2.27-.5.81-.5.81.18-.37.17-.38-.41.67-.41.67"/><path class="cls-2" d="M438.15,28s-.4.67-.41.66.18-2.41.13-2.44-1.34,2.28-1.4,2.24,1.77-6,1.59-6.16-3.09,5.19-3.19,5.12,3-7.23,2.84-7.35-4.65,7.63-4.74,7.58c-.26-.17,4.06-8.41,3.88-8.52s-5.62,9.4-5.8,9.28c-.35-.21,5-9.15,4.85-9.25s-6,10.56-6.44,10.32c-.12-.08,4.58-9.24,4.42-9.34-.38-.24-16.41,28.17-17.27,27.63-.62-.38,18.23-28,17.53-28.44-1-.64-16.21,28.28-17.26,27.62-.55-.34,17.22-26.35,16.33-26.9s-15.52,26.07-16.07,25.72,14.06-24.71,13.57-25c-.23-.15-12.71,22-13.47,21.55-.38-.24,12.5-20.62,12.29-20.75s-12,20.51-12.59,20.15,11-17.65,10.53-18-9.9,16.69-10.28,16.45"/><path class="cls-2" d="M426.27,52.65s-.44.74-.45.73.31-1.77.26-1.8-.75,1.35-.81,1.31,1-4.52.81-4.61-3.32,5.75-3.52,5.63,3.38-6.84,3.12-7-3.62,6.15-3.78,6.05,4.45-10.16,4.22-10.3S419.29,54.17,419,54c-.52-.33,7.45-14.82,7.19-15s-8.44,14.56-8.91,14.26,8.8-14.91,8.44-15.13c-.53-.33-8.41,13.87-8.6,13.75-.51-.32,10.69-18.91,10-19.33-.37-.23-9.79,16.88-10.34,16.54"/><path class="cls-1" d="M37,29.81s-.08.14-.08.13-.31-1.85-.37-1.88-1,1.78-1.08,1.73,1.16-2.63,1.13-2.65-2.14,3.49-2.17,3.47S36,26.05,35.81,26s-2.31,4-2.45,3.93,1.87-4.92,1.72-5-2.92,5-3.07,4.92,3.43-5.31,3.31-5.39-3.47,5.94-3.64,5.83,2.13-6.62,1.93-6.74-3.69,6.37-3.9,6.23,4.12-6.64,4-6.7-4.32,7.11-4.41,7.05,3.24-7.8,3-8c-.1-.06-4.09,7.11-4.34,7S32.13,21.48,32,21.4s-3.86,6.51-4,6.41,2.29-7,2.13-7.14-3.85,6.54-4,6.44,3-6,2.85-6-3.39,5.78-3.55,5.68,2-6.64,1.93-6.68-3.74,6.24-3.86,6.17,2.49-6.46,2.4-6.52-3.9,6.41-4,6.36,2.76-6.5,2.63-6.58S21.22,25.33,21,25.18s3.41-5.28,3.24-5.39-3.76,6.48-4,6.35,3.4-6.65,3.24-6.75S19.59,26,19.43,25.9s1.92-6,1.79-6.08c-.37-.23-9.77,16.71-10.25,16.4s9.41-16,9-16.29-9.23,15.4-9.52,15.23S20,19.5,19.78,19.37c-.41-.26-9.49,16-9.86,15.77s10-15.84,9.72-16-9.29,15.51-9.57,15.33S18,20.56,17.45,20.22c-.38-.23-8.11,13.6-8.39,13.42S16.48,20,16.12,19.77,8.59,32.52,8.27,32.32,13,22.13,12.75,22,8.14,29.62,8,29.54s2.08-5.38,2-5.45a21.36,21.36,0,0,0-1.24,2"/><path class="cls-1" d="M28,46.28c-.21-.13-5.18,8.68-5.35,8.57s4.12-7.6,3.85-7.77-4.29,7.19-4.43,7.1,4.07-6.77,3.92-6.86-4.28,7.32-4.49,7.19,3-6.09,2.87-6.15S21,54,20.84,54s1.32-5.24,1.15-5.35-3.46,6-3.65,5.85,3-6.53,2.85-6.62-3.59,6.06-3.73,6,1.87-5.58,1.67-5.71-3.22,5.32-3.29,5.27,2.17-6.5,2-6.6-3.55,6.2-3.78,6,2.76-6.65,2.69-6.69-3.4,5.71-3.52,5.64c-.27-.17,3-7.67,2.85-7.78S12.16,50.73,12,50.61s2.28-7.33,2.17-7.4-3.62,6.13-3.77,6,3.28-6.7,3.19-6.75-3.71,6.12-3.79,6.07,2.51-5.81,2.42-5.87-3.29,5.66-3.46,5.55,1.08-5.54,1-5.58S7.57,46.24,7.51,46.2s.63-3.28.57-3.32-.6,1.06-.64,1,0-1,0-1.06-.38.62-.38.62"/><path class="cls-1" d="M37.17,47.07c-.09-.06-1.68,2.86-1.76,2.81s2.3-4.31,2.26-4.34c-.21-.13-3.27,5.64-3.46,5.52s3.46-5.47,3.31-5.57-3.46,5.85-3.6,5.76,3.88-6.55,3.69-6.67-4.18,7.2-4.41,7.05,4.62-7.45,4.34-7.63-4.86,8.52-5.19,8.31S37.9,40,37.63,39.82s-8.25,13.79-8.52,13.63,7.68-14.2,7.47-14.33S27.46,54.53,27.09,54.3s9.59-16.44,9-16.82-9.95,17.2-10.52,16.84c-.21-.13,9.84-16.81,9.64-16.94S25.13,54.63,24.61,54.31c-.22-.14,10.92-17.34,10.3-17.72-.21-.13-10.59,18.22-11.16,17.86S35.21,36.48,35,36.36c-.34-.21-10.62,17.53-10.86,17.38-.6-.37,10.46-17.18,9.83-17.57-.25-.15-4.71,8.07-4.94,7.92s5.16-8.24,5-8.35-4.8,7.92-4.91,7.86,4.47-8.08,4.34-8.16-4.81,8.13-5,8,3.66-7.93,3.5-8-4.11,7-4.32,6.91S32,35,31.92,34.94c-.25-.15-4.23,7.31-4.47,7.16s3.6-7.6,3.48-7.68-3.83,6.47-4,6.38,3.59-5.94,3.46-6-3.89,6.51-4,6.43,2.65-7.55,2.4-7.7-4.28,7.22-4.45,7.12,4.29-7.18,4.06-7.32S24,40.69,23.83,40.62s3.19-7.16,3-7.28-4.24,7.32-4.49,7.17,3.05-7.54,2.79-7.7S21.39,39,21.29,38.94s1.65-5.65,1.5-5.74S19.3,39,19.2,39s3.07-6,2.91-6.09-3.32,5.69-3.48,5.58,1.91-5.8,1.82-5.86-3.63,6-3.71,5.94,2.76-6.6,2.55-6.74-4.14,6.9-4.26,6.82,4.72-7.31,4.57-7.4-4.27,7.24-4.45,7.13,3.12-6.72,3-6.81-3.45,5.9-3.62,5.8,2.79-7.51,2.57-7.65-4.69,7.8-4.82,7.72,4.75-8.85,4.63-8.93c-.34-.21-4.54,7.59-4.68,7.5"/><path class="cls-1" d="M146.85,42.66c-.23-.14-5.18,9.06-5.52,8.85s5.14-8.11,5-8.19c-.31-.2-4.85,8.12-5,8-.34-.21,4.67-9.12,4.54-9.21-.28-.17-4.59,8.06-4.91,7.86s4.57-10.94,4.45-11-5.59,9.18-5.7,9.11c-.31-.19,5.18-11.13,5.06-11.2-.28-.18-5.29,8.71-5.4,8.64-.36-.23,5.08-9.7,4.71-9.93-.21-.12-5.31,9.25-5.65,9S144.36,34.26,144,34s-5.82,9.87-6.07,9.71,5.74-10.6,5.55-10.73-5.45,9.09-5.62,9,5.41-9.82,5.11-10-5.81,9.65-6,9.55c-.39-.24,5.43-11,5.13-11.17s-5.25,8.87-5.46,8.74c-.42-.26,5.82-11.14,5.47-11.35-.2-.13-5.58,9.6-5.88,9.41s5.22-10.52,5-10.65-6,10.29-6.29,10.08,6-11.53,5.69-11.72-5.64,9.79-6,9.57c-.17-.1,5.69-11.37,5.45-11.52s-5.64,9.44-5.83,9.32,5.1-10.75,4.76-11-5.67,9.76-6,9.57,4.37-10.34,4.09-10.52-5,8.33-5.14,8.22,3.49-8.63,3.23-8.79c-.08-.05-3.7,6.18-3.81,6.11s3.54-5.64,3.32-5.77-3.54,5.94-3.67,5.86,3.15-5.81,3-5.88-2.43,4.28-2.61,4.17,1.75-3.29,1.7-3.32-2.08,3.42-2.12,3.4.19-3.35.13-3.38-.76,1.29-.79,1.26-.39-2.29-.43-2.32-.69,1.12-.7,1.11"/><path class="cls-1" d="M140,56.86c-.26-.17-5.19,8.57-5.31,8.5s3.09-8,2.94-8.09-4.41,7.56-4.63,7.42,3.48-6.91,3.34-7-3.86,6.55-4,6.45,2.35-6.54,2.21-6.62-1.85,3.13-1.93,3.08,1.81-3.09,1.76-3.12-1.85,3.08-1.9,3.05,1.69-3,1.66-3-1.4,2.43-1.48,2.38,1.18-2.87,1.15-2.89-.75,1.33-.81,1.29.22-1.19.19-1.21-.39.65-.4.65.08-.44.07-.45-.19.32-.2.32"/><path class="cls-1" d="M149.28,58.37c-.11-.07-2.11,3.53-2.18,3.49s4.64-9.45,4.42-9.58S144.37,64.1,144.2,64c-.5-.31,9.29-15.28,8.86-15.55-.17-.11-9.82,16.35-10.11,16.17s12.66-20.89,11.92-21.36-12.63,22-13.43,21.5c-.64-.4,15.22-25,14.83-25.29-.67-.41-15.2,25.62-15.78,25.26-1-.66,18.32-30.79,17.95-31-.68-.42-18.63,31.67-19.47,31.15s20.64-32.24,20.11-32.57-19.65,33-20.34,32.54c-1.31-.82,24.45-42.13,24-42.42s-24.82,43.48-26.51,42.42c-1.54-1,27.76-41.27,26.3-42.18-1-.6-24.89,43.53-26.55,42.49-.71-.44,26.43-43.81,25.73-44.25S142.36,54.15,141.33,53.5c-.53-.33,19.12-32.28,18.54-32.65s-11.62,19.36-12,19.14c-.63-.4,11.42-19.7,10.72-20.14-.21-.13-8.33,14.45-8.83,14.13-.15-.09,7-13.6,6.54-13.91-.16-.1-4.5,7.67-4.71,7.54s4-7.41,3.87-7.51-3,5.15-3.17,5.07,2.31-5,2.15-5.14-.57.93-.58.92"/><path class="cls-2" d="M411.45,38.88s-.27.43-.27.43.56-2,.52-2-.74,1.31-.8,1.27.71-1.3.68-1.32-1.2,2-1.22,2,1.26-4.58,1.19-4.62-2.92,4.87-3,4.81,2.64-5.56,2.54-5.62-3.25,5.49-3.38,5.41,2.63-7.59,2.52-7.67-4.14,7.15-4.37,7,4-9.55,3.66-9.75S403,39.45,402.88,39.37s6.89-11.12,6.49-11.37-6.54,11-6.79,10.86,6.79-10.68,6.66-10.75-6.43,10.83-6.67,10.68,7.27-11.68,6.87-11.93c-.23-.14-7.3,12.2-7.53,12.06-.47-.29,7.89-11.76,7.42-12s-7.68,12.72-7.87,12.6S408.39,25,408.15,24.8s-8.89,15.13-9.29,14.87c-.15-.09,9.08-14.25,8.72-14.48-.09-.06-4.76,7.89-4.88,7.81s4.7-8.63,4.37-8.84-4.24,7.46-4.54,7.27,3.21-7.88,3.07-8-4,6.5-4,6.46,3.5-7.08,3.41-7.14-4.24,7-4.33,6.92,2.69-7.45,2.5-7.57-3.64,6-3.72,5.95,3.83-7.39,3.72-7.46-3.87,6.5-4,6.41,3.36-6.2,3.27-6.25-3.42,5.76-3.55,5.68,1.67-5.83,1.56-5.89-3.75,6.23-3.85,6.17,3.5-7.15,3.43-7.2-4.2,7-4.35,7S397.93,20,397.8,20s-3.69,6.18-3.81,6.1,1.79-6.22,1.64-6.32-4.5,7.42-4.6,7.36,4-7.66,3.88-7.72c-.26-.16-14.58,24.53-15.11,24.2-.88-.55,14.59-23.71,14-24.07-.8-.5-14,23.53-14.49,23.2-.32-.2,12-22,11.49-22.32S378.7,40.25,378.48,40.12c-.66-.42,12.16-18.91,11.53-19.31S378.92,39,378.72,38.88c-.65-.41,10.61-17.73,10-18.14-.46-.28-9.51,16.52-10.09,16.15-.3-.18,9.18-14.77,8.81-15S379.27,35.42,379,35.28c-.43-.27,7.19-12.62,6.89-12.8s-6.36,11-6.74,10.79c-.19-.12,4.31-8.94,4.2-9s-2.87,4.88-3,4.8,2.43-3.78,2.29-3.87-2.22,3.69-2.28,3.65"/><path class="cls-2" d="M402.53,32.9c-.16-.1-3.56,5.9-3.65,5.84s3.19-5.11,3-5.2-3.12,5.26-3.24,5.18,1.31-5.8,1.18-5.88-3.59,6.21-3.8,6.08,2.52-5.61,2.37-5.7-3.63,6.23-3.82,6.11,1.88-5.58,1.77-5.65-3,5.17-3.16,5.06,2.13-4.78,2-4.83-3.43,5.79-3.56,5.71,1.74-5.92,1.69-5.95-2.93,5-3.06,4.88,3.3-5.13,3.21-5.19-3.4,5.67-3.5,5.61,1.32-5.26,1.26-5.3-3.35,5.78-3.54,5.66S390,33,389.9,32.92c-.27-.16-8,13.59-8.36,13.38s8.2-12.6,7.8-12.85-8,14-8.53,13.66,8.75-13.78,8.61-13.87c-.36-.22-7.87,13-8.06,12.91s6.79-13,6.42-13.24S380.31,45.56,380,45.36,388.87,31,388.3,30.61c-.27-.17-8.56,14.15-8.76,14"/><path class="cls-2" d="M401.63,45.28c-.28-.17-5.56,9.33-5.75,9.21S398,48,397.82,47.86s-3.55,6.2-3.78,6,1.65-6,1.48-6.09-3.33,5.72-3.51,5.61,3.12-5.94,3.05-6c-.22-.14-3.93,6.5-4,6.44s1.54-6.23,1.41-6.31-3.51,6.09-3.72,6,2.07-6.61,2-6.68-3.56,5.94-3.67,5.87,2.79-6.83,2.68-6.89-3.34,5.82-3.55,5.69,2.9-7.4,2.71-7.52-4.06,6.7-4.15,6.64S388.1,43.05,388,43s-3.89,6.44-4,6.38,4.38-7.68,4.22-7.78-4.93,8.35-5.14,8.22,4.63-7.56,4.45-7.67S383,50,382.72,49.84c-.09-.06,5.28-8.09,5-8.26s-4.35,7.49-4.59,7.34,5-8.75,4.74-8.93-5,8.75-5.35,8.56,5.75-8.79,5.4-9c-.13-.08-5.63,9.41-5.81,9.3s6-9.79,5.81-9.91-5.87,10-6.15,9.84"/><path class="cls-2" d="M410.31,45c-.13-.09-2.4,4-2.49,4s2.25-5.83,2.05-6-5.46,9.08-5.61,9,3.78-8.78,3.46-9S401.23,53.9,401,53.78s6.59-10.33,6.35-10.48-6.06,10.33-6.34,10.16,5.46-9.45,5.22-9.6-5.66,10-6.07,9.72c-.25-.16,5.45-9.75,5.26-9.87s-6.39,10.53-6.53,10.44,5.64-10.5,5.43-10.64c-.4-.24-6.52,10.81-6.69,10.7s6-10.85,5.62-11.11-6.48,11.32-6.91,11"/><path class="cls-2" d="M258.63,29.83s-.26.45-.27.44.26-1.19.24-1.21-.7,1.21-.74,1.18"/><path class="cls-2" d="M268,47c-.17-.1-4.27,7.33-4.49,7.19s4.5-6.83,4.32-7-3.75,6.62-4,6.44c-.11-.07,2.1-5.9,2-6s-3.71,6.23-3.85,6.14,2.67-6,2.57-6.05-3.87,6.46-4,6.38,1.85-5.53,1.73-5.6-3.33,5.54-3.42,5.48,2-5.37,1.89-5.45-3.23,5.34-3.3,5.29,2.58-6.55,2.36-6.68-3.76,6.41-3.94,6.3,2.85-7,2.74-7.11-4.3,7.08-4.39,7,3.23-7,3.12-7.09-3.84,6.34-3.92,6.28c-.28-.17,3.91-7.83,3.78-7.91s-4.28,7.36-4.51,7.22,4.74-8.29,4.65-8.35c-.32-.2-5.21,8.68-5.36,8.58s5.7-9.36,5.54-9.46c-.37-.23-5.6,9.49-5.84,9.34"/><path class="cls-2" d="M269.5,32.11c-.18-.11-3.82,6.62-4,6.48,0,0,1.43-5.21,1.29-5.3s-3.53,5.93-3.66,5.85,1.61-4.83,1.5-4.9S261.71,39,261.64,39s2.82-5.31,2.66-5.41-3.67,6.3-3.86,6.18,3.52-5.35,3.38-5.43-3.71,6.22-3.84,6.14,3.79-6.05,3.63-6.14-3.1,5.47-3.33,5.33,2.4-6,2.34-6-11.13,18.21-11.31,18.1c-.44-.28,10.64-17.71,10.14-18s-10.7,17.51-10.87,17.4C250,50.75,261,33.94,260.66,33.75s-10.2,17.12-10.56,16.9c-.16-.11,7.53-15.15,7.15-15.39S249.31,49,248.86,48.7c-.17-.1,8.69-14,8.22-14.25-.31-.19-8.16,13.34-8.29,13.26-.29-.18,7.29-11.8,6.82-12.09-.31-.2-7.05,11.53-7.16,11.46-.32-.2,6.79-11.5,6.42-11.73-.14-.09-6.44,10.76-6.64,10.64s4.65-9.43,4.47-9.54-4.3,7.3-4.49,7.18,4.75-7.44,4.58-7.55-4.07,6.87-4.23,6.77,2.52-5.1,2.37-5.2-1.8,3.07-1.88,3"/><path class="cls-2" d="M280.2,53.58s-.19.31-.2.31-.23-1.87-.29-1.9-1,1.68-1,1.65,1-3.58.9-3.65-2.27,3.89-2.38,3.81,2.56-4.34,2.51-4.37-2.33,3.85-2.38,3.82,1.93-4.12,1.82-4.19-2.69,4.6-2.82,4.51,3-6.74,2.84-6.84-3.66,6.34-3.88,6.2,4.53-8.55,4.39-8.64c-.29-.18-5.81,9.73-6,9.61s6.51-10.35,6.1-10.61-6.15,10.61-6.5,10.39,6.65-10.53,6.44-10.66-5.84,10.09-6.17,9.88c-.17-.1,5.92-10.63,5.55-10.86s-6.65,11.65-7.1,11.37,7.78-13,7.44-13.19c-.14-.09-7.75,13.33-8.17,13.07s8.87-14.51,8.4-14.8c-.19-.12-8.48,14.32-8.81,14.11-.67-.41,9.4-17.53,8.77-17.93-.21-.13-10,17.1-10.48,16.78-.25-.16,10.71-20,10.32-20.19-.56-.35-13.25,22.85-14,22.39-.38-.24,14.65-22.51,14.11-22.84S265.74,54,265.28,53.7s15.21-23.12,14.38-23.64c-.48-.3-14.18,23.64-14.6,23.37s15.25-23.48,14.35-24c-.3-.19-14.38,24.18-14.91,23.85-.83-.51,15.5-26.44,15.08-26.71s-9.1,15-9.28,14.85,9.45-15.83,8.83-16.22S271,39.27,270.52,39c-.26-.16,7.75-14.76,7.26-15.07s-8,13.77-8.44,13.5,7.51-14.36,7-14.67S267,38.13,266.8,38s10-15.29,9.48-15.61S266.55,39.18,266,38.84c-.35-.22,9.68-17.32,9.42-17.49s-4.44,7.77-4.74,7.59c-.1-.06,4.45-7.55,4.18-7.72s-4.51,7.81-4.77,7.65c-.1-.07,4.28-7.34,4.06-7.48s-4.26,7.06-4.37,7,4.75-7.32,4.56-7.44-3.8,6.62-4,6.47,4-6.65,3.76-6.8c-.08-.05-3.74,6.42-3.93,6.3s3.33-6.42,3.15-6.54-3.71,6.15-3.81,6.09,3.42-5.95,3.22-6.07-3.84,6.35-3.93,6.3S272.17,20,272,19.91s-3.91,6.75-4.14,6.61,3.81-6.67,3.69-6.75-3.41,5.63-3.49,5.58,3.41-5.62,3.29-5.69-3.48,6-3.67,5.87,2-5.49,1.83-5.57-3.44,5.7-3.53,5.64,2.83-5.35,2.73-5.41-3.42,5.67-3.51,5.61,2.62-5.59,2.52-5.65-2.85,4.88-3,4.79,2.32-5,2.22-5.08-3.31,5.75-3.51,5.62,1.49-6.09,1.42-6.13-4.72,7.85-4.86,7.76,3.22-7.2,3.06-7.3c-.43-.27-6.11,10.49-6.43,10.29s6.92-10.61,6.5-10.88-7,11.43-7.09,11.35,6.11-11.08,5.86-11.23-6.67,11-6.83,10.93,6.19-10.37,6-10.5-6.25,10.7-6.56,10.51,5.8-10.15,5.54-10.31S254,30.52,253.61,30.28c-.17-.1,4.35-9.53,4.19-9.63s-5.61,9.8-6,9.56c-.09-.05,3.06-7.93,2.88-8-.34-.22-4.81,8.09-5,8s4.26-7.64,4.1-7.74-4.37,7.5-4.6,7.36,4-6.26,3.75-6.41-2.88,4.83-3,4.77,2-3.73,1.82-3.82-2,3.27-2,3.25"/><path class="cls-3" d="M61.46,20.1v6.08H54.79v16.4a4.47,4.47,0,0,0,.77,3.08,4.49,4.49,0,0,0,3.08.77,13.93,13.93,0,0,0,1.47-.07,11.25,11.25,0,0,0,1.35-.19v7a21,21,0,0,1-2.56.25c-.94.05-1.86.07-2.76.07a26.78,26.78,0,0,1-4-.29,9.49,9.49,0,0,1-3.33-1.12,6,6,0,0,1-2.28-2.37,8.55,8.55,0,0,1-.83-4V26.18H40.19V20.1H45.7V10.17h9.09V20.1Z"/><path class="cls-3" d="M66,29.48A15.8,15.8,0,0,1,69.46,24a15.56,15.56,0,0,1,5.39-3.52,19,19,0,0,1,7-1.25A19.2,19.2,0,0,1,89,20.45a15.08,15.08,0,0,1,8.87,9,20.39,20.39,0,0,1,1.22,7.21,20,20,0,0,1-1.22,7.17,15.39,15.39,0,0,1-3.46,5.48A14.9,14.9,0,0,1,89,52.83a19.62,19.62,0,0,1-7.08,1.22,19.36,19.36,0,0,1-7-1.22,15.08,15.08,0,0,1-5.39-3.49A15.67,15.67,0,0,1,66,43.86a20,20,0,0,1-1.21-7.17A20.39,20.39,0,0,1,66,29.48Zm8.27,11.09A10.41,10.41,0,0,0,75.58,44a7,7,0,0,0,2.47,2.4,7.47,7.47,0,0,0,3.84.9,7.71,7.71,0,0,0,3.88-.9,7,7,0,0,0,2.5-2.4,10.64,10.64,0,0,0,1.31-3.39A19.19,19.19,0,0,0,90,36.69a19.63,19.63,0,0,0-.38-3.91,10.2,10.2,0,0,0-1.31-3.39A7.31,7.31,0,0,0,85.77,27a7.6,7.6,0,0,0-3.88-.92,7,7,0,0,0-6.31,3.33,10,10,0,0,0-1.31,3.39,19.64,19.64,0,0,0-.39,3.91A19.2,19.2,0,0,0,74.27,40.57Z"/><path class="cls-3" d="M113.6,20.1v6.15h.13a11,11,0,0,1,1.73-2.85,11.36,11.36,0,0,1,2.5-2.25,12.82,12.82,0,0,1,3-1.44,10.93,10.93,0,0,1,3.33-.51,7.26,7.26,0,0,1,2,.32V28c-.43-.09-.94-.16-1.54-.23s-1.18-.09-1.73-.09a9.75,9.75,0,0,0-4.23.83A7.35,7.35,0,0,0,116,30.76a9.24,9.24,0,0,0-1.5,3.37,18.23,18.23,0,0,0-.45,4.16V53.22H105V20.1Z"/><path class="cls-4" d="M201.16,53.22,195.27,31h-.13l-5.63,22.23h-9.42L169.58,20.1h9.61l6.09,22.48h.13l5.5-22.48h8.85l5.63,22.42h.13l6.09-22.42H221L210.52,53.22Z"/><path class="cls-4" d="M233.45,20.1v6.15h.13a10.71,10.71,0,0,1,1.73-2.85,11.14,11.14,0,0,1,2.5-2.25,12.82,12.82,0,0,1,3-1.44,10.88,10.88,0,0,1,3.33-.51,7.14,7.14,0,0,1,2,.32V28c-.42-.09-.94-.16-1.53-.23s-1.18-.09-1.73-.09a9.75,9.75,0,0,0-4.23.83,7.35,7.35,0,0,0-2.79,2.27,9.24,9.24,0,0,0-1.5,3.37,18.23,18.23,0,0,0-.45,4.16V53.22h-9.1V20.1Z"/><path class="cls-4" d="M295.14,20.1v4.61h.19a10.52,10.52,0,0,1,4.49-4.2,13,13,0,0,1,5.63-1.31,15.48,15.48,0,0,1,6,1A9,9,0,0,1,315.13,23,10.8,10.8,0,0,1,317,27.24a27,27,0,0,1,.54,5.61V53.22h-9.1V34.51c0-2.73-.42-4.77-1.28-6.12s-2.37-2-4.55-2c-2.47,0-4.27.73-5.38,2.21s-1.66,3.89-1.66,7.27V53.22h-9.1V20.1Z"/><path class="cls-4" d="M355.77,55.65a11.1,11.1,0,0,1-2.34,4.77,13.75,13.75,0,0,1-5.18,3.75,22.32,22.32,0,0,1-9.1,1.54,21,21,0,0,1-5-.61,16.09,16.09,0,0,1-4.61-1.89,11.23,11.23,0,0,1-3.46-3.3,9.56,9.56,0,0,1-1.57-4.84h9a5.19,5.19,0,0,0,2.49,3.56,9,9,0,0,0,4.3,1q3.84,0,5.6-2.3a9,9,0,0,0,1.7-5.83V47.13h-.13A9.06,9.06,0,0,1,343.35,51a13.67,13.67,0,0,1-5.74,1.25,14.36,14.36,0,0,1-6.4-1.32,12.07,12.07,0,0,1-4.42-3.58A14.82,14.82,0,0,1,324.26,42a25,25,0,0,1-.81-6.44,20.56,20.56,0,0,1,.93-6.18,16,16,0,0,1,2.73-5.25,13,13,0,0,1,4.45-3.62,13.32,13.32,0,0,1,6.12-1.35,12.85,12.85,0,0,1,5.73,1.22,9.91,9.91,0,0,1,4.13,4.1h.13V20.1h8.65v31A21.72,21.72,0,0,1,355.77,55.65Zm-12.46-11a7,7,0,0,0,2.44-2.05,9,9,0,0,0,1.44-2.91,12.1,12.1,0,0,0,.48-3.43,19.1,19.1,0,0,0-.38-3.87A9.74,9.74,0,0,0,346,29.13a6.46,6.46,0,0,0-2.37-2.24,7.41,7.41,0,0,0-3.71-.83,6.71,6.71,0,0,0-3.3.76,7,7,0,0,0-2.31,2.09,8.76,8.76,0,0,0-1.34,3,14.69,14.69,0,0,0-.42,3.55A18.52,18.52,0,0,0,332.9,39a9.69,9.69,0,0,0,1.22,3.17,7.15,7.15,0,0,0,2.27,2.31,6.53,6.53,0,0,0,3.53.89A7.12,7.12,0,0,0,343.31,44.63Z"/><path class="cls-4" d="M373,7.48V53.22h-9.09V7.48Z"/><path class="cls-4" d="M425.57,20.1v6.15h.12a11.49,11.49,0,0,1,4.23-5.1,13,13,0,0,1,3-1.44,11,11,0,0,1,3.34-.51,7.25,7.25,0,0,1,2,.32V28c-.43-.09-.94-.16-1.54-.23a17.3,17.3,0,0,0-1.73-.09,9.74,9.74,0,0,0-4.22.83A7.2,7.2,0,0,0,428,30.76a9.09,9.09,0,0,0-1.51,3.37,18.25,18.25,0,0,0-.44,4.16V53.22h-9.1V20.1Z"/><path class="cls-3" d="M16.52,45a5.19,5.19,0,0,0,1.57,1.72,6.86,6.86,0,0,0,2.21,1,10.56,10.56,0,0,0,2.59.32,9.7,9.7,0,0,0,2-.23,6.74,6.74,0,0,0,1.92-.7,4.32,4.32,0,0,0,1.44-1.28,3.35,3.35,0,0,0,.58-2c0-1.37-.91-2.39-2.72-3.07a53.38,53.38,0,0,0-7.59-2c-1.33-.3-2.62-.66-3.88-1.06A13.39,13.39,0,0,1,11.3,36a7.85,7.85,0,0,1-2.37-2.5A7.08,7.08,0,0,1,8,29.83a10,10,0,0,1,1.25-5.25,9.2,9.2,0,0,1,3.3-3.23,14.47,14.47,0,0,1,4.61-1.67,28.48,28.48,0,0,1,5.25-.48,26.43,26.43,0,0,1,5.23.51,14,14,0,0,1,4.51,1.73,10.21,10.21,0,0,1,3.3,3.24,10.78,10.78,0,0,1,1.57,5.09H28.4a4,4,0,0,0-2-3.56,9.22,9.22,0,0,0-4.23-.92c-.51,0-1.07,0-1.67.09a5.82,5.82,0,0,0-1.63.42,3.28,3.28,0,0,0-1.25.93,2.45,2.45,0,0,0-.51,1.63,2.53,2.53,0,0,0,.89,2,7,7,0,0,0,2.34,1.25,30.06,30.06,0,0,0,3.3.86c1.24.26,2.5.54,3.78.83s2.62.67,3.88,1.09a12.93,12.93,0,0,1,3.36,1.7,8.29,8.29,0,0,1,2.37,2.63,7.67,7.67,0,0,1,.9,3.87,10.11,10.11,0,0,1-4.74,9,14.31,14.31,0,0,1-4.84,1.89,28.43,28.43,0,0,1-5.54.54,27.12,27.12,0,0,1-5.64-.58,14.76,14.76,0,0,1-4.9-1.92A11.05,11.05,0,0,1,8.77,48a11.19,11.19,0,0,1-1.51-5.55h8.65A5,5,0,0,0,16.52,45Z"/><path class="cls-3" d="M145.51,63.08a13.12,13.12,0,0,1-7.3,1.73c-.94,0-1.87,0-2.78-.09s-1.85-.14-2.79-.23V57l2.63.25a18.56,18.56,0,0,0,2.69.07,3.53,3.53,0,0,0,2.65-1.41,4.52,4.52,0,0,0,.87-2.69,5.38,5.38,0,0,0-.39-2L129.5,20.1h9.67l7.5,22.67h.13L154,20.1h9.42L149.61,57.32A11.11,11.11,0,0,1,145.51,63.08Z"/><path class="cls-4" d="M389.89,45.27a9.3,9.3,0,0,0,10.63.61A5.75,5.75,0,0,0,403,43h8q-1.92,6-5.89,8.52a17.34,17.34,0,0,1-9.61,2.56,19,19,0,0,1-7-1.25,14.68,14.68,0,0,1-5.31-3.55,16,16,0,0,1-3.37-5.51,20.21,20.21,0,0,1-1.18-7.05,19.36,19.36,0,0,1,1.21-6.92,16,16,0,0,1,8.81-9.22,17.11,17.11,0,0,1,6.89-1.35,15.89,15.89,0,0,1,7.37,1.63A14.74,14.74,0,0,1,408,25.22a18,18,0,0,1,2.92,6.28,23.64,23.64,0,0,1,.64,7.37h-23.9C387.77,41.81,388.52,44,389.89,45.27Zm10.28-17.42a6.39,6.39,0,0,0-5-1.79,7.94,7.94,0,0,0-3.62.73,6.76,6.76,0,0,0-2.3,1.83,6.49,6.49,0,0,0-1.22,2.3,10.1,10.1,0,0,0-.42,2.18h14.8A10.52,10.52,0,0,0,400.17,27.85Z"/><path class="cls-4" d="M249.34,30.28a10.47,10.47,0,0,1,1.6-5.31,10.91,10.91,0,0,1,3.59-3.4,15.59,15.59,0,0,1,4.9-1.82,27.29,27.29,0,0,1,5.47-.55,37.75,37.75,0,0,1,5.06.35,15.74,15.74,0,0,1,4.68,1.38,9.18,9.18,0,0,1,3.46,2.85,8,8,0,0,1,1.35,4.84V45.85a34.63,34.63,0,0,0,.25,4.29,7.74,7.74,0,0,0,.9,3.08h-9.23a12.51,12.51,0,0,1-.41-1.57,14.71,14.71,0,0,1-.23-1.64,11.73,11.73,0,0,1-5.12,3.14,20.52,20.52,0,0,1-6,.9,16,16,0,0,1-4.42-.58,10,10,0,0,1-3.59-1.79,8.22,8.22,0,0,1-2.4-3.08,10.31,10.31,0,0,1-.87-4.42,9.69,9.69,0,0,1,1-4.64,8.27,8.27,0,0,1,2.57-2.91A11.24,11.24,0,0,1,255.46,35a38.08,38.08,0,0,1,4.06-.86c1.37-.22,2.71-.39,4-.52a24,24,0,0,0,3.52-.57,6.22,6.22,0,0,0,2.44-1.12,2.49,2.49,0,0,0,.83-2.15,4.85,4.85,0,0,0-.48-2.34,3.59,3.59,0,0,0-1.28-1.34,5,5,0,0,0-1.86-.64,14.79,14.79,0,0,0-2.27-.16,6.88,6.88,0,0,0-4.23,1.15,5.13,5.13,0,0,0-1.8,3.84Zm21,6.73a4.17,4.17,0,0,1-1.44.8,15.76,15.76,0,0,1-1.86.48c-.66.13-1.36.24-2.08.32s-1.45.19-2.18.32a17.56,17.56,0,0,0-2,.51,6.24,6.24,0,0,0-1.73.87,4.06,4.06,0,0,0-1.18,1.38,4.4,4.4,0,0,0-.45,2.11,4.26,4.26,0,0,0,.45,2.05,3.4,3.4,0,0,0,1.21,1.31,5.23,5.23,0,0,0,1.8.68A12.17,12.17,0,0,0,263,48a8,8,0,0,0,4.17-.9A6,6,0,0,0,269.32,45a7,7,0,0,0,.87-2.54,18.77,18.77,0,0,0,.16-2.05Z"/><text class="cls-5" transform="translate(7.26 89.2)">f<tspan class="cls-6" x="5.1" y="0">r</tspan><tspan x="10.52" y="0">om the University of </tspan><tspan class="cls-7" x="169.38" y="0">V</tspan><tspan x="178.96" y="0">ermont Computational Story Lab</tspan></text></svg>