<svg id="Layer_1" data-name="Layer 1" xmlns="http://www.w3.org/2000/svg" viewBox="0 0 523.42 78.21"><defs><style>.cls-1,.cls-2,.cls-3,.cls-4,.cls-5,.cls-6{fill:none;}.cls-1{stroke:#00b6cf;stroke-width:0.72px;}.cls-1,.cls-2,.cls-3{stroke-linecap:round;stroke-linejoin:round;}.cls-2{stroke:#f3b544;}.cls-2,.cls-3{stroke-width:0.72px;}.cls-3{stroke:#8bc862;}.cls-4{stroke:#0681a2;}.cls-4,.cls-5,.cls-6{stroke-miterlimit:10;opacity:0.82;}.cls-5{stroke:#f89921;}.cls-6{stroke:#649946;}</style></defs><title>storywrangler_icon</title><g id="path3611"><path class="cls-1" d="M454.23,25.78c-.1-.06-3,4.94-3,4.88s1.37-4.47,1.26-4.54-1.74,3-1.82,2.91,1-2.8.94-2.83-1.28,2.29-1.39,2.22-.16-3.22-.28-3.29-.61,1-.63,1,.22-.8.21-.81-.23.39-.24.39.47-.95.45-1l-.64,1"/><path class="cls-1" d="M457.44,35.38c-.11-.07-2.53,4.27-2.63,4.21S456.09,36.11,456,36s-1.15,2.08-1.26,2,1.06-2.6,1-2.64-1.15,2-1.21,2-.68-1.79-.71-1.81-.55.9-.56.89-.07-.9-.08-.91-.11.17-.11.17"/><path class="cls-1" d="M472.27,22.71c-.61-.38-11.56,19.79-12.14,19.43S472.32,23.38,471.62,23c-.23-.15-11.45,19.21-11.85,19s11.4-17.79,10.86-18.13-11.17,18.73-11.56,18.49c-.66-.42,11.25-18.74,10.62-19.13S458.76,41.89,458.2,41.54s9.92-17.95,9.51-18.2-10.53,18.2-11.13,17.83,11.25-18.69,10.83-19c-.69-.44-10.81,18.45-11.32,18.12-.28-.17,9.46-17.56,9.15-17.74S457.82,35,457.57,34.87s7.92-12.21,7.43-12.52c-.22-.13-7.85,13.59-8.31,13.3s8.74-13.24,8.29-13.52-7.59,12.68-7.83,12.53,6.13-12.8,5.81-13-7.87,13.23-8.15,13.05,8.55-13.75,8.13-14c-.26-.17-7.73,13-8,12.83s7.82-12.64,7.48-12.85-7.92,13.26-8.18,13.09c-.44-.27,7.19-12.32,6.9-12.5s-7.31,12.64-7.74,12.38c-.15-.1,7.39-13.75,7.22-13.85s-7.85,12.9-8,12.81c-.34-.22,6.33-12.93,6.17-13-.32-.2-7.26,12.31-7.57,12.12s7.43-13,7.3-13.09-4.61,7.66-4.74,7.58,3.21-7.27,3-7.42-4,6.91-4.23,6.77,4.36-7.92,4.1-8.09-4.71,7.85-4.85,7.76,3.82-7.46,3.64-7.58-4,6.57-4.07,6.51c-.25-.15,3.13-7.15,3-7.24s-3.83,6.48-4,6.38,3.42-6.75,3.21-6.89-2.84,4.79-2.95,4.72,3.35-5.25,3.17-5.36-3.25,5.43-3.35,5.36,3.05-6,3-6-3.3,5.56-3.43,5.48,2.12-6.24,2-6.31-2.74,4.54-2.81,4.5,2-6,1.87-6.13-.63,1-.64,1"/><path class="cls-1" d="M462.29,42.86c-.29-.18-5.06,8.72-5.34,8.54-.09,0,1.37-6.06,1.32-6.09s-3,5.16-3.16,5,2.91-4.75,2.74-4.86-3,4.89-3,4.86,1.91-4.26,1.84-4.3-2.43,4-2.48,4,3-4.63,2.84-4.71-2.8,4.84-3,4.74.29-3.88.22-3.93-2,3.29-2,3.25-.15-2.11-.19-2.14-1,1.73-1.06,1.69-1.25-1.66-1.28-1.69-.06.15-.08.13-1.93-.23-2-.27l-.05.08a1.64,1.64,0,0,0,0-.22l0,.07"/><path class="cls-1" d="M495.37,13s-1.14,1.89-1.17,1.87-1-1.47-1-1.49c-1.13-.7-22.79,37.94-23.45,37.53-1.49-.93,24.34-38,23.82-38.31s-22.46,38.7-23.7,37.93C469.06,50,493.77,14,492.73,13.33c-.63-.39-22.41,38-23.36,37.38-1.25-.78,23.82-37.16,22.76-37.82-.6-.38-23,38.06-23.57,37.73-.78-.49,23.4-36.9,22.47-37.48-1.45-.9-23,38.4-23.72,38-1.24-.77,23-36.28,21.95-36.93-1.47-.92-23,37.84-23.46,37.55-1-.62,23.69-38,22.49-38.81-.7-.43-22.71,38.67-23.75,38C463,50,488.46,13.17,487.06,12.3c-1.21-.76-23.27,40.76-24.85,39.77-1-.61,23.42-40,22.87-40.4-1.27-.79-23.29,40-24.5,39.21S484.92,12,484.29,11.56c-1-.62-23.06,40.2-24.54,39.27s24.42-39.22,23.94-39.52S459.42,52,458.59,51.47c-1.15-.72,25.21-39.63,23.86-40.48-.7-.43-24.19,41.06-25.24,40.4S483,10.44,482.49,10.1c-.34-.21-19.37,32.68-20.13,32.21-1.11-.7,18.39-31.7,18-32-.83-.52-19.32,32.21-19.9,31.85-.76-.48,18.35-29.84,17.77-30.2-.28-.17-6,10-6.16,9.87s3.28-8,3.07-8.14-2.69,4.67-2.85,4.57,2.71-4.52,2.57-4.61-2.49,4.05-2.52,4"/><path class="cls-1" d="M497.26,15.62s-1,1.71-1.06,1.7-.67-1.15-.69-1.16-2.77,4.72-2.9,4.64-.38-3.22-.44-3.25c-.51-.32-19.33,32.68-20.11,32.19-.45-.28,20.79-31.38,19.52-32.18S472.41,51,471.16,50.24"/><path class="cls-1" d="M489,35.78c-.1-.07-2.8,4.71-2.91,4.65s4.82-8.7,4.64-8.82-7.63,12.58-7.8,12.47c-.57-.35,9.7-18.15,9.23-18.44s-13.36,22.07-13.67,21.88c-.88-.55,14.15-24.46,13.62-24.79S476.55,48.78,476,48.45c-.78-.49,17.37-26.81,16.47-27.37-.3-.19-16.73,28.3-17.42,27.87"/></g><path class="cls-2" d="M42.82,18.64c-.15-.09-3,5.14-3.16,5.06s1.84-6.1,1.77-6.14-3.58,5.85-3.63,5.81,2.12-5.3,2-5.38-1.47,2.51-1.54,2.47,1.51-2.8,1.44-2.85-2.11,3.52-2.17,3.48.82-3.23.73-3.29-.37.62-.38.61"/><path class="cls-2" d="M59.15,23.73s-.35.59-.36.58.4-3,.35-3-1.87,3.15-1.94,3.11,2.38-5.35,2.22-5.45S56.07,24.48,56,24.43s2-6.57,1.82-6.71-4.07,7-4.3,6.88,4-6.51,3.8-6.66-3.5,5.75-3.57,5.71,4-6,3.79-6.17-3.62,6.16-3.79,6.06,3.18-5.39,3.12-5.43-3.5,5.75-3.57,5.71,1.91-5.09,1.73-5.2C54.6,18.35,44.27,37,43.73,36.7s9.74-18,9.46-18.21S44.15,34,43.7,33.68c-.29-.18,9-16,8.78-16.14-.49-.31-9.12,15.22-9.4,15.05-.58-.37,10.06-15.09,9.53-15.41-.37-.24-8.5,14.73-9,14.42-.27-.17,9.47-16.08,8.94-16.41-.27-.17-8.59,14.65-9,14.39-.17-.1,9.65-14.79,9.21-15.07-.2-.12-9.3,15.71-9.67,15.48S52.6,12.5,52.25,12.28,43.91,26,43.74,25.9c-.55-.35,8.95-15.24,8.67-15.42s-8.28,14.1-8.66,13.86S52.18,8.62,51.9,8.45c-.57-.36-9.67,16.42-10.1,16.16S51.46,8.47,51.07,8.23,41.34,24.52,41,24.31,49.56,8.76,49.08,8.46c-.32-.2-5.09,8.8-5.38,8.61s3.89-8.59,3.63-8.76-3.85,6.41-4,6.34,2.3-6.25,2.19-6.32-2,3.43-2.09,3.34.62-4,.49-4.12-.63,1-.64,1"/><path class="cls-2" d="M59.1,50.8s-.21.37-.22.36,0-1.5,0-1.52-1.22,2.12-1.3,2.08S59,48,58.9,47.91s-2,3.56-2.16,3.47,2.63-6.91,2.5-7-4.5,7.52-4.64,7.43,3.81-7.32,3.54-7.49-4.51,7.46-4.62,7.39,3.92-7.77,3.65-7.94c-.09-.05-4.88,8.15-5,8s2.44-7.51,2.33-7.58-4.21,7.09-4.37,7,3.46-6.73,3.32-6.81-3.67,6.25-3.84,6.14,3.1-6.91,3-7-4.17,7.34-4.47,7.15,4.87-7.52,4.7-7.63S48.16,50.94,48,50.83s4.8-7.57,4.59-7.7-4.31,7.38-4.52,7.25,4.48-9,4.25-9.1-5.37,8.87-5.49,8.79c-.27-.16,6.41-12.14,6-12.39-.13-.09-6.86,11.89-7.27,11.64-.18-.11,7-10.91,6.74-11s-7,11.59-7.17,11.47,7.39-12.86,7.15-13-7,11.78-7.26,11.61,7.58-12.48,7.29-12.65-7.86,12.92-8,12.82c-.42-.26,8.64-16.45,8.08-16.8s-8.65,14.93-9.13,14.63,9.46-15.68,9-16-8,13.72-8.43,13.49c-.21-.13,9.4-17.55,8.77-17.95s-9,15.11-9.33,14.92C42.64,40.46,53,24.09,52.77,24c-.42-.26-8.71,14.58-9,14.4"/><path class="cls-2" d="M84.58,43.78c-.29-.18-5.34,8.74-5.43,8.69S82,45.15,81.89,45.1s-4.32,7.3-4.5,7.19,3.89-7.37,3.63-7.53c-.08-.06-3.78,6.63-4,6.47s1.75-5.6,1.59-5.7-3.86,6.36-3.94,6.31S78.31,45,78.24,44.9s-3.87,6.42-4,6.36,1.8-6.42,1.73-6.46-3.22,5.58-3.41,5.46,3.15-6,3-6.07-3.4,5.67-3.5,5.61,3.25-6.55,3-6.68-4.28,7.18-4.42,7.08,3.27-8.07,3.15-8.15-4.36,7.23-4.48,7.15,3.92-6.91,3.81-7-3.68,6.48-3.94,6.31,3.07-8.6,2.9-8.7-4.45,7.59-4.66,7.46,4.21-10,4-10.18S66,46.11,65.9,46s5.72-11.89,5.6-12c-.28-.18-6.61,11.09-6.85,11S72,33.81,71.55,33.53,65.4,44,65.1,43.85s7-12.8,6.77-13-7.52,12.58-7.76,12.43,8.46-13.55,8-13.86-7.45,13-7.94,12.7"/><path class="cls-2" d="M94.93,42.92C94.82,42.85,93.06,46,93,46s3.8-8,3.69-8c-.41-.25-6.21,10.83-6.61,10.58-.2-.12,6.27-11.17,6.13-11.26s-7.72,13.26-8.12,13,8.45-15.42,8.24-15.55c-.54-.34-9.87,16.7-10.27,16.45s10.67-19,10.42-19.1c-.58-.37-11.33,19.07-11.75,18.81S96.45,31.11,96.2,31c-.5-.31-12,20.5-12.6,20.16S97,30.67,96.25,30.21,83.54,51.88,83,51.51,96.72,29.24,96.44,29.06s-14,23.31-14.4,23,14.23-24,13.78-24.3S81.11,52.86,80.43,52.44,95.36,27,94.72,26.58C94.49,26.44,87.13,39.09,87,39s8.41-13.21,8.22-13.33-7.56,12.62-7.8,12.47C87,37.86,94.19,23.77,94,23.64s-6.32,10.75-6.61,10.57,6-10.66,5.86-10.76-5.5,9.49-5.81,9.3S93,23,92.57,22.75s-4.67,8.1-4.95,7.93,4.23-8.55,4.06-8.66-4.27,7.11-4.39,7S91.1,21.83,91,21.78c-.28-.17-4,6.73-4.14,6.63s3.38-7.07,3.28-7.13c-.26-.16-4.24,7-4.34,6.94s3.72-7.68,3.45-7.85-3.7,6.35-3.89,6.23,2.71-6.85,2.63-6.89-3.45,5.77-3.56,5.7,2.26-6.91,2.18-7-3.69,6.24-3.84,6.15,3.14-5.62,3-5.7-3.32,5.55-3.43,5.48S86.13,18,86,17.9c-.24-.15-3.86,6.61-4.06,6.48s3.27-6,3.12-6.07-3.41,5.85-3.59,5.74,2.31-5.82,2.14-5.92-3.19,5.36-3.3,5.29,3.66-5.75,3.57-5.8-3.72,6.21-3.83,6.14,3.85-6,3.67-6.11-3.53,6.09-3.73,6,2-6.2,2-6.24-3.92,6.46-4,6.41,2.85-5.85,2.69-6-4.19,6.94-4.3,6.87,3.76-7.38,3.56-7.5-4.78,8.1-5,8,3.92-8.27,3.65-8.45c-.7-.44-15.06,25-15.47,24.76-.26-.17,15.5-24.06,15.14-24.28-.71-.44-14.53,23.9-14.82,23.72-.78-.49,14.17-23,13.45-23.41-.33-.21-13.37,22.77-14,22.38C62.06,39.35,77,18.11,76.27,17.65S63.21,39.3,62.87,39.08,76.71,17.62,76,17.15,63,38.58,62.69,38.38s11.63-19.72,10.87-20.2C73.27,18,63.19,35.72,62.77,35.46s10.68-17.25,10.5-17.37S62.7,35.47,62.49,35.34c-.53-.34,9.64-16,9.4-16.17s-9,14.78-9.16,14.66c-.37-.23,6-12.25,5.55-12.5-.25-.16-4.75,8.27-5.05,8.08-.1-.06,3.12-6.13,3-6.21s-1.86,3.16-1.94,3.11"/><path class="cls-2" d="M111,24.65c-.15-.1-7.4,13.05-7.94,12.7s8.83-14.16,8.63-14.28-9,15.1-9.31,14.89,9.49-17.71,9.21-17.89-8.6,14.77-9.05,14.49c-.26-.16,9.17-14.59,9-14.71s-8.61,14.71-9,14.45c-.6-.37,9.52-14.84,9.19-15S103,33.52,102.78,33.4c-.47-.3,9-13.52,8.44-13.85-.14-.09-8.45,14.43-8.86,14.18s9.21-13.88,8.79-14.14S103.41,33,103,32.71c-.24-.15,7.51-14.25,7.26-14.4s-7.62,12.58-7.79,12.48,6.49-12.24,6.31-12.35-5.68,10-6.08,9.72,4.43-9.69,4.29-9.77-3.7,6.46-3.94,6.31,2.18-6.26,2-6.37-2.23,3.86-2.36,3.78.59-3.53.53-3.57-.76,1.34-.81,1.31.51-1.75.47-1.78-.2.35-.21.34"/><path class="cls-2" d="M124,25.46s-.29.47-.3.47.36-4.1.29-4.14-1.91,3.37-2,3.28,1.86-5.57,1.74-5.64-3.7,6.26-3.85,6.16,3.27-8.39,3.08-8.51-5.7,9.37-5.81,9.3c-.35-.22,5.24-9.48,5-9.63s-6.4,10.66-6.58,10.54,5.15-9.73,4.78-10c-1.13-.7-17.19,29-17.87,28.59-.49-.31,16-27.08,15.11-27.67-.38-.24-14.48,24-14.85,23.76-.52-.33,13.8-22.47,13.15-22.88-.38-.23-12.65,22.12-13.5,21.59s12.09-20,11.75-20.17-11.39,19.07-11.77,18.84c-.69-.43,11.21-17.6,10.79-17.86-.57-.36-10,17.46-10.65,17.05"/><path class="cls-2" d="M111.7,50.79s-.21.35-.22.35.06-2.78,0-2.81S110,50.78,110,50.74s1.89-5.3,1.75-5.39-3.31,5.48-3.39,5.43c-.25-.16,3.7-8.08,3.42-8.26s-5.27,8.9-5.48,8.77c-.39-.25,5.89-11.59,5.58-11.78s-7,11.87-7.31,11.7,7.28-11.6,7.15-11.69c-.45-.28-7.14,11.91-7.35,11.78-.38-.24,7.4-14.37,7.25-14.47-.55-.34-8.69,14.78-9.08,14.54s9.29-15.42,9.13-15.51c-.48-.3-8.78,15.19-9.3,14.87s9.34-14.83,9.06-15-8.13,14-8.58,13.73c-.23-.15,9.93-17.65,9.37-18S103,46.69,102.76,46.57s10-15.56,9.76-15.72c-.62-.38-9.68,16-9.92,15.88"/><path class="cls-3" d="M182.81,40.68c-.3-.19-5.17,9-5.47,8.76-.14-.08,5.2-9.54,4.88-9.74-.17-.1-5,8.4-5.19,8.3s5.25-9.9,5.09-10c-.35-.22-5.16,8.6-5.31,8.51s4.73-10.67,4.41-10.88c-.11-.06-5.35,9-5.56,8.89s5.81-12.15,5.49-12.35c-.12-.08-6.31,10.58-6.53,10.45s6.15-11.95,5.92-12.09-5.65,9.49-5.86,9.36c-.38-.24,5.25-11.3,4.83-11.56s-6,9.94-6.16,9.86,6.36-11.7,6-11.92-5.84,10.13-6.2,9.91c-.16-.1,6-12.43,5.7-12.6-.12-.08-6.64,11.14-6.87,11s6.43-13,6.17-13.13-6.34,10.6-6.54,10.47c-.42-.25,5.83-12,5.42-12.3s-5.54,9.66-5.9,9.44,4.64-10.53,4.37-10.7-5.19,8.91-5.46,8.74,3.32-8.87,3.1-9-4,6.7-4.15,6.64,1.74-6.17,1.59-6.26-2.17,3.74-2.29,3.67-.1-3.47-.14-3.49-.54.9-.55.89,1-1.6,1-1.64-.82,1.38-.85,1.36-.32-1-.33-1-.31.51-.31.5"/><path class="cls-3" d="M187.59,50.13s-.94,1.56-1,1.55,1.38-3,1.27-3.1-1.46,2.49-1.53,2.45,2.34-5.07,2.23-5.14-3.33,5.75-3.52,5.63,4.42-9.78,4.29-9.86c-.31-.19-5.54,9.62-5.88,9.4s7.13-11.4,6.78-11.62c-.12-.07-7,11.91-7.31,11.71s7.81-12.46,7.55-12.62c-.43-.27-8,13.3-8.24,13.18s9.53-17.88,9.28-18S181.4,50.89,181,50.62,192.7,31,192.45,30.83c-.75-.46-12,20.65-12.65,20.25C179,50.57,193.48,29.35,193,29c-.32-.2-13,22.44-13.73,22"/><path class="cls-3" d="M203,40.58c-.09-.06-4.7,7.76-4.81,7.69-.27-.17,4.81-7.67,4.71-7.73-.28-.18-4.69,7.75-4.8,7.68-.31-.19,4.63-8.16,4.39-8.31s-4.43,7.58-4.65,7.44,5.19-9.94,4.93-10.1-5.06,8.38-5.19,8.3,4.92-9.22,4.62-9.4-4.54,7.87-4.81,7.7,4.69-9.57,4.48-9.7S196.41,43,196.32,43s4.91-10,4.72-10.1-4.53,7.91-4.83,7.73,5.3-8.49,5.1-8.62-5.06,8.61-5.29,8.46,5.19-9.51,4.95-9.66-5.35,8.84-5.47,8.76,5.16-10.74,4.76-11c-.15-.1-5.27,8.94-5.5,8.8s4.79-11.17,4.56-11.31-4.66,7.84-4.83,7.74,4.38-10.78,4.25-10.86-5.2,8.88-5.45,8.72,5.72-9.21,5.38-9.42-4.61,8.07-4.92,7.88,4.42-8.82,4.2-9-4.87,8-5,8,4.72-11,4.58-11.09c-.62-.39-18.71,32.54-19.88,31.81-.76-.48,20.34-31.78,19.8-32.12-1.22-.76-19.19,32.34-19.93,31.89-.53-.34,18.83-30.7,17.81-31.34-.27-.17-10.55,18.18-11.14,17.81s9.95-17.43,9.45-17.75c-.35-.21-8,13.37-8.25,13.21s8.41-13.15,8.24-13.26c-.49-.31-8.44,14.1-8.7,13.93-.5-.31,8.13-13.64,7.93-13.77-.43-.27-6.46,11.21-6.85,11s7.32-11.55,7-11.72-7.21,12.07-7.45,11.92,6.7-11.22,6.27-11.49c-.09-.05-5.14,9-5.49,8.8-.08-.05,3.8-8.36,3.67-8.44s-2.63,4.62-2.81,4.5,1.54-4.76,1.49-4.79-.65,1.06-.66,1.05"/><path class="cls-3" d="M208.68,50s-1.08,1.75-1.09,1.75,3.4-8.55,3.27-8.63-5,8.36-5.15,8.24,5.73-9.41,5.39-9.63-5.56,9.31-5.74,9.2,7.46-12.3,7-12.59-7.49,12.77-7.84,12.55,10.32-18.35,9.68-18.75-11.32,19.77-12.07,19.31c-.37-.24,13.08-20.28,12.59-20.59-.66-.42-12.15,21-12.84,20.56s14.31-23.49,13.72-23.86c-.86-.54-14.43,24.07-14.87,23.79s18.61-31,17.53-31.63-18.75,31.66-19.49,31.2,20.83-32.21,19.93-32.77c-.65-.41-19,32.2-19.79,31.67S218.52,18.24,218,17.89,199.32,50,198.31,49.33s20.31-31.57,19.83-31.88-19.26,31.74-19.67,31.48c-.88-.55,20.11-29.95,19-30.62-.44-.28-19.08,31.62-19.57,31.31-1-.65,18.31-31.74,17.95-32-.54-.33-11.2,18.7-11.55,18.48-.54-.34,9.42-17.59,9-17.88-.21-.13-6.88,11.5-7.09,11.36s5-11.41,4.81-11.5-2.94,5.06-3.1,5,2-5.39,1.87-5.45-.41.7-.43.69"/><path class="cls-3" d="M231.05,24.23c-.48-.3-7.87,13.31-8.19,13.11s8.81-13.07,8.29-13.39c-.35-.22-8.14,14-8.57,13.73s8.71-14.18,8.23-14.47c-.23-.15-7.89,13.09-8.1,13-.38-.23,8.49-14.69,8.14-14.91s-8,13.12-8.15,13,7.88-15.63,7.45-15.91-7.39,12.76-7.81,12.49,7.12-12.19,7-12.27-6.45,10.75-6.65,10.63c-.37-.23,6-10.81,5.78-11s-5.84,9.78-6,9.66,4.25-10,4.11-10.1-3.68,6.42-3.92,6.27,1.35-5.4,1.26-5.46-1.1,2-1.2,1.93.21-2.69.15-2.73-.43.7-.44.7"/><path class="cls-3" d="M244.13,25s-.53.88-.54.87,0-3.21-.05-3.23-1.82,3-1.86,3,2.11-4.29,2.07-4.32-2.86,4.93-3,4.83,2.91-5.33,2.72-5.45-2.65,4.51-2.77,4.43,3-5.54,2.79-5.64-3.43,6.06-3.69,5.9,2.89-7.5,2.81-7.55-4.71,7.75-4.81,7.69,4.61-8,4.4-8.1c-.36-.22-5.52,9.46-5.8,9.29s4.73-9.63,4.49-9.78-6.78,11.7-7.16,11.46,5.73-11.24,5.51-11.39c-.45-.28-16.34,27.21-16.82,26.91-.67-.43,17.08-25.81,16.17-26.38-.44-.28-15.41,25.74-15.9,25.43S236,20,235.21,19.48s-12.42,21.31-13.07,20.91c-.36-.22,12.22-19.42,11.49-19.88-.53-.33-10.61,18.23-11.17,17.88"/><path class="cls-3" d="M231.54,50.79s-.2.35-.21.35.48-3.12.43-3.15-2,3.38-2.08,3.33,2.14-4,2.08-4-2.48,4.18-2.57,4.12,2.79-4.57,2.7-4.63-2.26,3.93-2.4,3.85,2.6-6.15,2.4-6.27-4.48,7.36-4.56,7.3,4-7.19,3.91-7.25c-.29-.18-4.32,7.5-4.58,7.34s5-7.88,4.76-8.05-4.29,7.1-4.39,7c-.25-.15,5.07-9,4.75-9.24s-5.71,9.74-6,9.57,6.3-11.24,6-11.39-6.5,11.11-6.82,10.91,6.71-13,6.54-13.06S223,51.9,222.7,51.7s9.79-18.27,9.32-18.56S223.23,48,222.87,47.78s10.18-16.9,9.68-17.22c-.29-.18-9.91,16.48-10.19,16.31"/><path class="cls-3" d="M293.4,50.58s-.4.66-.41.65.52-4.73.46-4.76-2.79,4.71-2.9,4.64,3.08-6.11,3-6.16-3.78,6.21-3.85,6.17,3.8-6.82,3.71-6.88-4.36,7.27-4.49,7.18c-.3-.18,4.7-8,4.62-8.05s-5,8.53-5.24,8.38,5.23-8.79,4.93-9-4.89,8.43-5.16,8.26,5.22-8.7,5-8.86-5.11,8.63-5.31,8.51,6-9.5,5.74-9.69-6,10.41-6.36,10.17,6.24-13.45,6.08-13.55c-.49-.31-8.65,14.26-8.84,14.14-.62-.38,9.35-16.94,9-17.18S284.9,49,284.47,48.7s9.44-14.55,8.86-14.92c-.39-.24-8.92,15.53-9.48,15.18s10-16.81,9.41-17.18c-.24-.15-8.69,14.57-9,14.38-.57-.36,10.41-17.87,9.93-18.17S284.39,44.51,284,44.28"/><path class="cls-3" d="M315.21,50.79s-.21.35-.22.35.18-3.33.13-3.36-2.05,3.57-2.18,3.48,2.15-4.32,2.06-4.37-2.3,4-2.45,3.91,2.85-4.44,2.73-4.51-3,5.13-3.14,5,3.34-7,3.25-7.1-4.15,7.22-4.41,7.05,4.55-9.62,4.22-9.83-5.63,9.6-5.89,9.43,6-9.17,5.69-9.37-5.63,9.74-6,9.54,6.58-13.8,6.42-13.9c-.53-.34-8.34,14.39-8.8,14.09s8.65-16.32,8.43-16.46c-.55-.35-8.47,14.35-8.83,14.13-.18-.11,9.44-14.89,8.95-15.19s-8.78,15.16-9.28,14.85c-.19-.12,9.53-15.09,9-15.39-.2-.13-8,13.76-8.42,13.47-.17-.1,8.71-15.29,8.29-15.55s-8.19,14.23-8.7,13.91c-.23-.14,9.82-16.57,9.29-16.9S306.8,43,306.3,42.7s9.15-14.09,8.74-14.34c-.16-.1-8.65,14.29-8.85,14.17s9.44-15.63,9-15.91-8.74,14.75-9.08,14.53,9.17-16,8.59-16.38-8.12,14.13-8.63,13.82,8.71-13.81,8.26-14.1S307,37.31,306.5,37s7.76-13.24,7.59-13.35S306.68,36.13,306.41,36s6.74-13.48,6.47-13.65-6.56,11-6.77,10.84,7-11.92,6.65-12.17-6.24,10.73-6.57,10.53,5.47-11,5.16-11.2-5.3,8.88-5.48,8.76,5.39-10.12,5.17-10.25-5,8.53-5.25,8.4,3.88-8.54,3.62-8.7c-.09-.06-4.76,7.82-4.85,7.77s4.6-8.48,4.48-8.55-4.94,8.19-5.07,8.11,3.88-8.51,3.61-8.69-4.8,8-4.94,7.9,3.88-7.18,3.81-7.23-4.18,6.88-4.27,6.83,3.09-7.12,2.93-7.22-4.54,7.44-4.62,7.39,3.48-7.7,3.31-7.8-4.78,8-4.93,7.9,3.16-7.53,3-7.6-4.58,7.83-4.8,7.69,2.94-7.34,2.86-7.39c-.92-.58-14.47,25.29-15.42,24.69s15.67-23.84,15.05-24.23c-1-.59-14.57,24.89-15.27,24.45s14.31-23.48,13.56-24-13,21.7-13.41,21.46,11.81-20,11.06-20.51c-.32-.2-10.46,18.09-11.07,17.71-.36-.22,9-15.87,8.47-16.21-.31-.2-8.64,14.8-9.08,14.53s9.6-14.71,9.06-15c-.38-.24-8.57,14.83-9.07,14.52-.34-.21,9.49-14.2,9-14.53-.2-.13-8.23,14.14-8.66,13.87s9.37-14.93,8.9-15.22-8.18,13.9-8.55,13.67S293.2,18.56,293,18.4s-8.59,14.65-9,14.4,8.68-15,8.36-15.22-8,13.28-8.21,13.14,6.5-12,6.19-12.18-5.8,9.52-5.91,9.45,6.35-9.47,6-9.7c-.12-.08-6.22,10.46-6.44,10.32s5.48-10.11,5.18-10.29-4.62,8-4.91,7.86,4.27-8,4-8.19-3.86,6.34-3.93,6.29,2.48-6.45,2.35-6.53-2.13,3.57-2.21,3.52,1.7-3.22,1.67-3.24-1.53,2.72-1.65,2.64,0-2.67,0-2.69-.47.76-.48.76"/><path class="cls-3" d="M342.88,41.08c-.18-.11-5.59,9.48-5.83,9.33s2.65-7.54,2.5-7.64-4.37,7.56-4.63,7.4c-.09-.06,4.22-6.61,4.07-6.7s-3.72,6.14-3.81,6.09,1.9-5.9,1.76-6-3.61,6-3.71,5.94,1.85-6.58,1.72-6.67S331.2,49.07,331.1,49s3.41-6.72,3.2-6.85-4.61,7.63-4.72,7.56,4.44-7.84,4.18-8-4.41,7.51-4.62,7.38,4.76-7.43,4.55-7.56-4.27,7.11-4.4,7,3.11-7.07,2.92-7.19-3.74,6.5-4,6.35,3.19-7.52,2.95-7.67-4.53,7.87-4.8,7.69S331,37.5,330.62,37.3s-5,8.45-5.19,8.3,5.31-11.58,5-11.75-6.41,10.81-6.66,10.65,6.9-12,6.62-12.22-6.56,11.29-6.92,11.07c-.11-.07,7-11,6.87-11.05S323.86,43.07,323.7,43s6.87-13,6.72-13.08-6.85,11.94-7.29,11.67c-.22-.14,8.33-13.14,8.11-13.28s-8.4,13.84-8.58,13.72"/><path class="cls-3" d="M345,22.74c-.09-.06-1.91,3.32-2,3.24s1.39-4.74,1.27-4.81-2.51,4.2-2.59,4.15,1.37-5.84,1.23-5.93-3.1,5.29-3.25,5.2,2.07-5.27,1.88-5.38-2.51,4.35-2.66,4.26,2.41-4.72,2.3-4.79-3.33,5.57-3.44,5.5,2.09-6.6,1.89-6.73-4.43,7.26-4.5,7.21c-.22-.13,4.43-7.14,4.15-7.32s-4.72,7.72-4.8,7.67c-.26-.16,3.26-8,3-8.16s-14.58,24.07-14.91,23.86,14-22.59,13.35-23S322.29,40.12,322,39.93s13.52-22,13.24-22.17c-.79-.5-12.49,21.94-13.37,21.4S333.24,18.31,332.69,18,321.89,36,321.54,35.81c-.17-.11,8.83-17.32,8.52-17.51-.49-.31-8.46,14.77-9,14.42-.33-.2,9.75-14.66,9.31-14.93-.15-.09-9.26,15.27-9.46,15.15-.47-.29,8.37-14.38,8.21-14.48s-7.1,11.9-7.34,11.74,4.82-9.82,4.7-9.89-3.92,6.71-4.11,6.59,3.36-5.65,3.25-5.73-2.62,4.44-2.74,4.37"/><path class="cls-3" d="M343.43,55.38c-.22-.14-5.12,8.87-5.42,8.68s3.09-6.45,2.9-6.56-3.81,6.57-4,6.44,2.27-6.84,2.05-7-3.95,6.64-4.09,6.55,2.54-5.41,2.44-5.47-3.61,5.91-3.67,5.88,2.55-6.1,2.4-6.2S333,63,332.8,62.87s3-5.94,2.78-6.07-3.76,6.48-4,6.35,4-6.27,3.93-6.33-3.46,5.83-3.59,5.75,2.58-6.34,2.46-6.42-3.62,6.31-3.85,6.16c-.07,0,2.94-5.13,2.78-5.23s-3.48,5.88-3.62,5.79,3.21-7.85,3.06-7.94-3.9,6.43-4,6.37,2.73-8.1,2.58-8.19-4.47,7.34-4.55,7.29,1.85-6.86,1.78-6.91-3.77,6.37-3.92,6.27,3.26-7.17,3-7.31-3.53,5.95-3.67,5.86,1.93-5.59,1.87-5.62-2.79,4.69-2.89,4.63,1.35-4.44,1.3-4.47-1.67,2.8-1.73,2.77-.12-2.5-.18-2.54-.15.26-.16.25"/><path class="cls-3" d="M352.66,55.51c-.12-.07-2,3.27-2,3.25s3.22-5.77,3-5.89-4.76,7.87-4.87,7.8c-.37-.24,5.16-11.38,5-11.46-.41-.25-7.69,12.76-7.89,12.64s8.05-12.76,7.65-13c-.25-.15-8.4,14.14-8.71,13.94s9.3-17.35,8.79-17.67-11,18.81-11.54,18.45c-.83-.52,12.91-22.45,12.11-23-.63-.39-13.62,23.32-14.31,22.89-.47-.29,14.79-26,14.28-26.29-.16-.1-8.44,14.58-8.92,14.28-.25-.16,8.78-14.57,8.32-14.86-.23-.14-7.63,13.29-8.11,13s8.62-16.6,8.09-16.93S346,45.86,345.52,45.56s9.17-14.76,8.72-15-9.05,15.06-9.31,14.9,9-14.11,8.78-14.23c-.48-.3-9,15.53-9.5,15.2s10.51-15.77,10-16.11-9.39,16.45-10,16c-.23-.14,10.11-15.66,9.5-16S343.48,48,342.81,47.61c-.4-.25,11.65-22,11.4-22.18-.85-.53-14.53,24.93-15.28,24.46s15.33-26.23,15-26.43-9.28,15.59-9.61,15.39c-.17-.11,9.78-16.1,9.29-16.41-.3-.19-7.75,13.35-8.17,13.08s8.79-15.56,8.3-15.86c-.21-.13-7.85,13-8,12.84-.37-.24,7-13.64,6.64-13.87s-6.73,11.79-7.19,11.51c-.12-.08,6.75-11.79,6.5-11.95s-6.43,11.24-6.86,11,7-11.15,6.69-11.35-6.23,10.87-6.63,10.61,5.29-10.75,5.06-10.89-6.19,10.18-6.32,10.1c-.29-.18,4.2-9.25,4-9.38s-1.86,3.17-2,3.12,0-3.31,0-3.36-.63,1-.64,1"/><path class="cls-3" d="M370.61,50.82s-.23.39-.24.38,0-2.47-.1-2.51-1.37,2.43-1.48,2.36,2.22-6.48,2.06-6.58-3.78,6.41-3.94,6.31,3.5-8.07,3.39-8.14-5,8.38-5.17,8.27c-.37-.23,5.54-11.39,5.13-11.65-.17-.11-7.06,11.89-7.33,11.72s8.12-13.89,7.89-14S362.37,51.2,362,51s9.16-17.26,8.87-17.44S362,48.19,361.83,48.09c-.56-.35,9.1-15.81,8.64-16.1s-8.76,14.92-9.16,14.67c-.56-.35,9.52-17.53,9.1-17.79-.58-.36-8.32,14.46-8.84,14.14s9.32-15,8.87-15.3-8.56,14.73-9,14.44,9.33-16.07,9.05-16.25-8.43,14.15-8.72,14,9-14,8.71-14.2S362,40,361.66,39.74s9.61-18.15,9.07-18.49-8.93,15-9.23,14.78c-.63-.4,10.07-16.86,9.47-17.23-.32-.2-9.35,15.91-9.78,15.64-.68-.43,9.64-17.89,9.35-18.07-.52-.32-9,15.13-9.33,14.93-.57-.36,9.79-15.75,9.24-16.09s-8.85,14.63-9.06,14.5,9.77-15.64,9.17-16c-.2-.13-8.39,14.69-8.95,14.34-.26-.16,9.43-16.12,9-16.39-.21-.13-9.06,15.23-9.39,15-.54-.33,9.59-16.31,9.09-16.62s-8.65,14.67-9,14.44,9.93-15.86,9.58-16.08c-.15-.09-8.87,15.1-9.27,14.85-.58-.36,9.34-17.45,9-17.65s-8.51,14-8.69,13.91,7.79-14.11,7.47-14.31S361.84,18,361.52,17.8s6-11.62,5.7-11.81-5.59,9.24-5.72,9.16c-.33-.2,6.32-10,5.93-10.22-.15-.1-5.82,9.9-6.09,9.73s6-9.71,5.9-9.8-5,8.74-5.34,8.54S364.2,6,364,5.92s-2.49,4.25-2.61,4.18,2.76-4.78,2.59-4.89-2.33,4-2.45,3.91.76-3.82.68-3.88-.3.53-.32.52-.38.06-.39,0-.24.41-.25.41"/><path class="cls-3" d="M423.51,23.69c-.26-.16-8.42,14.37-8.82,14.12s8.8-16.4,8.45-16.62-8.58,14.1-8.75,14c-.63-.4,9.07-17.41,8.62-17.68-.17-.11-8,13.51-8.31,13.29s5.74-12.38,5.56-12.5-5.2,8.9-5.46,8.74,5.47-9.41,5.29-9.52-5.53,9.11-5.65,9,3.39-8.71,3.26-8.79-3.1,5.13-3.17,5.08.92-4.27.87-4.3-.88,1.49-.92,1.47.62-2.26.6-2.28-.5.81-.51.81.19-.37.18-.37-.41.66-.42.66"/><path class="cls-3" d="M435.83,25.72s-.41.67-.42.66.19-2.4.13-2.44-1.34,2.28-1.4,2.24,1.78-6,1.6-6.15-3.09,5.18-3.2,5.11,3-7.23,2.84-7.35-4.64,7.63-4.73,7.58c-.26-.16,4.05-8.4,3.88-8.51s-5.63,9.39-5.8,9.28c-.35-.22,5-9.16,4.85-9.26s-6.05,10.57-6.45,10.32c-.12-.08,4.59-9.24,4.42-9.34-.38-.24-16.4,28.18-17.27,27.64-.61-.39,18.24-28,17.53-28.44-1-.64-16.21,28.27-17.25,27.61-.55-.34,17.21-26.34,16.33-26.9-1-.65-15.52,26.07-16.07,25.72s14.05-24.7,13.57-25c-.24-.14-12.72,22-13.47,21.56-.38-.24,12.5-20.63,12.28-20.76s-12,20.51-12.59,20.15,11-17.65,10.54-18-9.9,16.7-10.29,16.46"/><path class="cls-3" d="M424,50.33s-.45.74-.46.74.32-1.78.27-1.8-.75,1.34-.82,1.3,1-4.51.81-4.61-3.32,5.75-3.51,5.63,3.37-6.84,3.12-7-3.62,6.15-3.79,6,4.46-10.16,4.22-10.3S417,51.85,416.7,51.69c-.52-.33,7.45-14.81,7.19-15S415.46,51.27,415,51s8.81-14.91,8.44-15.13c-.52-.33-8.4,13.87-8.59,13.76-.51-.32,10.69-18.92,10-19.34-.37-.23-9.78,16.89-10.33,16.54"/><path class="cls-2" d="M34.63,27.5s-.07.13-.08.13-.31-1.85-.36-1.89-1,1.79-1.08,1.74,1.16-2.64,1.12-2.66-2.14,3.49-2.17,3.47,1.57-4.56,1.43-4.65-2.31,4-2.46,3.93,1.88-4.92,1.73-5-2.93,5-3.07,4.92,3.42-5.32,3.31-5.39S29.52,28,29.36,27.92s2.13-6.62,1.92-6.75-3.68,6.37-3.9,6.24,4.13-6.64,4-6.71S27.09,27.81,27,27.76s3.23-7.81,2.95-8c-.1-.06-4.08,7.1-4.34,6.94s4.2-7.56,4.07-7.64-3.85,6.51-4,6.41,2.28-7,2.13-7.14-3.86,6.54-4,6.44,3-6,2.86-6-3.4,5.79-3.56,5.69,2-6.65,1.93-6.69S21.28,24,21.16,23.92s2.49-6.46,2.39-6.52-3.89,6.41-4,6.36,2.76-6.49,2.63-6.58S18.9,23,18.66,22.86c-.08-.05,3.42-5.28,3.24-5.39s-3.76,6.48-4,6.35,3.41-6.65,3.25-6.75-3.91,6.61-4.07,6.51,1.92-6,1.78-6.08c-.37-.23-9.76,16.71-10.25,16.41s9.41-16,9-16.3S8.38,33,8.1,32.84s9.56-15.66,9.35-15.79c-.4-.26-9.49,16-9.85,15.77s10-15.84,9.72-16S8,32.3,7.74,32.12s7.93-13.88,7.38-14.22C14.75,17.67,7,31.5,6.74,31.33s7.41-13.66,7-13.88S6.26,30.2,6,30s4.73-10.19,4.48-10.35S5.82,27.3,5.7,27.23s2.09-5.39,2-5.46a22.87,22.87,0,0,0-1.25,2"/><path class="cls-2" d="M25.65,44c-.21-.13-5.19,8.68-5.36,8.57s4.13-7.6,3.86-7.77-4.3,7.19-4.44,7.1,4.07-6.77,3.93-6.85-4.28,7.32-4.49,7.19,3-6.09,2.86-6.15-3.39,5.66-3.49,5.59,1.32-5.24,1.15-5.34-3.47,6-3.65,5.84,3-6.53,2.84-6.62-3.59,6.06-3.73,6,1.88-5.59,1.68-5.71-3.22,5.31-3.29,5.26,2.16-6.5,2-6.6-3.56,6.2-3.79,6.06,2.76-6.66,2.7-6.7S11,49.53,10.91,49.45c-.27-.16,3.05-7.66,2.86-7.78s-3.93,6.75-4.14,6.62,2.29-7.33,2.18-7.4S8.19,47,8,46.93s3.27-6.71,3.19-6.76-3.71,6.12-3.8,6.07,2.51-5.81,2.43-5.86S6.57,46,6.39,45.92s1.09-5.53,1-5.58-2.16,3.58-2.22,3.54.64-3.27.58-3.31-.6,1-.64,1,0-1,0-1.06-.38.61-.39.61"/><path class="cls-2" d="M34.85,44.75c-.1-.06-1.68,2.87-1.76,2.82s2.29-4.32,2.25-4.35c-.2-.12-3.27,5.64-3.45,5.53s3.46-5.48,3.3-5.58-3.45,5.85-3.6,5.76,3.88-6.55,3.69-6.67-4.17,7.2-4.4,7.06,4.62-7.46,4.33-7.63S30.35,50.2,30,50s5.56-12.33,5.29-12.5-8.26,13.79-8.52,13.63,7.67-14.2,7.46-14.33S25.14,52.21,24.77,52s9.58-16.43,9-16.81S23.8,52.36,23.23,52c-.22-.13,9.84-16.81,9.63-16.94S22.8,52.31,22.29,52c-.22-.14,10.91-17.34,10.3-17.72C32.38,34.14,22,52.49,21.43,52.13S32.88,34.16,32.69,34,22.08,51.58,21.83,51.43c-.59-.38,10.46-17.18,9.84-17.57-.25-.16-4.71,8.06-5,7.92s5.17-8.25,5-8.36-4.8,7.93-4.91,7.86,4.47-8.08,4.35-8.16-4.82,8.13-5,8,3.67-7.93,3.5-8-4.1,7-4.31,6.91,4.35-7.33,4.26-7.39c-.25-.15-4.22,7.32-4.47,7.16s3.6-7.6,3.48-7.68-3.83,6.47-4,6.38,3.59-5.94,3.46-6-3.89,6.5-4,6.43,2.66-7.56,2.41-7.71S22.18,38.4,22,38.3,26.3,31.12,26.08,31s-4.45,7.39-4.57,7.32,3.18-7.16,3-7.28S20.25,38.35,20,38.19s3-7.53,2.79-7.69S19.07,36.69,19,36.62s1.65-5.64,1.5-5.74-3.49,5.83-3.6,5.76,3.08-6,2.92-6.08-3.32,5.68-3.49,5.58,1.92-5.81,1.83-5.86-3.63,6-3.71,5.93,2.76-6.6,2.55-6.73-4.14,6.89-4.26,6.82,4.71-7.32,4.57-7.41S13,36.14,12.82,36s3.12-6.72,3-6.8-3.44,5.9-3.61,5.79S15,27.5,14.76,27.37s-4.69,7.79-4.82,7.71,4.74-8.85,4.63-8.92C14.23,26,10,33.74,9.88,33.65"/><path class="cls-2" d="M144.53,40.34c-.23-.14-5.18,9.07-5.53,8.85-.18-.11,5.14-8.11,5-8.19-.31-.2-4.85,8.12-5,8-.34-.21,4.67-9.12,4.53-9.2s-4.59,8-4.91,7.85,4.57-10.93,4.45-11-5.58,9.19-5.69,9.12c-.31-.2,5.17-11.14,5.06-11.21-.28-.17-5.29,8.71-5.4,8.64-.36-.23,5.07-9.69,4.7-9.92-.2-.13-5.31,9.25-5.65,9s5.95-10.39,5.58-10.62-5.81,9.87-6.07,9.72,5.75-10.61,5.55-10.73-5.44,9.08-5.61,9,5.4-9.82,5.1-10c-.15-.1-5.81,9.66-6,9.56-.38-.24,5.43-11,5.14-11.18s-5.25,8.88-5.46,8.74c-.42-.26,5.82-11.13,5.47-11.35-.2-.13-5.58,9.6-5.88,9.41s5.21-10.52,5-10.65-6,10.29-6.3,10.08,6-11.52,5.69-11.72-5.63,9.79-6,9.58c-.16-.11,5.7-11.37,5.45-11.53s-5.64,9.44-5.82,9.32,5.1-10.75,4.75-11-5.66,9.77-6,9.57S135.14,18.2,134.85,18s-4.95,8.33-5.13,8.22,3.49-8.63,3.23-8.8c-.08-.05-3.71,6.18-3.82,6.11s3.55-5.63,3.32-5.77-3.53,5.95-3.66,5.87,3.14-5.81,3-5.89-2.44,4.28-2.61,4.17,1.75-3.29,1.7-3.32-2.09,3.43-2.13,3.4.2-3.34.13-3.38-.75,1.29-.79,1.27-.38-2.3-.43-2.33S127,18.7,127,18.7"/><path class="cls-2" d="M137.68,54.54c-.25-.16-5.19,8.58-5.31,8.5s3.09-8,2.94-8.08-4.4,7.55-4.63,7.41,3.49-6.91,3.34-7-3.86,6.54-4,6.44,2.36-6.53,2.21-6.62-1.85,3.13-1.92,3.09,1.8-3.1,1.76-3.13-1.85,3.08-1.9,3.05,1.69-3,1.66-3-1.41,2.42-1.49,2.37,1.19-2.87,1.16-2.89-.75,1.33-.81,1.29.22-1.19.19-1.21-.4.65-.41.65.08-.44.07-.45-.19.33-.2.32"/><path class="cls-2" d="M147,56.05c-.12-.07-2.12,3.53-2.18,3.49s4.63-9.44,4.42-9.58-7.15,11.83-7.33,11.72c-.49-.31,9.3-15.28,8.86-15.55-.17-.11-9.81,16.36-10.11,16.17S153.29,41.41,152.54,41s-12.62,22-13.43,21.49c-.63-.39,15.23-25,14.84-25.28-.67-.42-15.21,25.61-15.78,25.25-1-.65,18.31-30.79,18-31-.68-.42-18.64,31.67-19.47,31.15S157.29,30.31,156.75,30s-19.65,33-20.33,32.54c-1.31-.82,24.45-42.13,24-42.42S135.59,63.57,133.9,62.51c-1.54-1,27.76-41.27,26.3-42.18-1-.6-24.89,43.54-26.56,42.5-.7-.44,26.44-43.82,25.74-44.26S140,51.83,139,51.18c-.52-.33,19.13-32.28,18.54-32.65s-11.61,19.36-12,19.14C145,37.28,157,18,156.31,17.53c-.22-.13-8.33,14.45-8.84,14.14-.14-.1,7.05-13.61,6.55-13.92-.16-.1-4.51,7.67-4.71,7.54s4-7.4,3.86-7.51-3,5.16-3.17,5.08,2.31-5.05,2.15-5.15-.56.94-.58.93"/><path class="cls-3" d="M409.12,36.56s-.26.43-.27.43.57-2,.52-2-.74,1.31-.79,1.28.7-1.31.68-1.32-1.2,2-1.23,2,1.27-4.58,1.2-4.62-2.92,4.87-3,4.82,2.63-5.56,2.54-5.62-3.25,5.48-3.38,5.4,2.63-7.59,2.52-7.66-4.14,7.14-4.37,7,4-9.55,3.66-9.74-6.52,10.68-6.63,10.61,6.89-11.13,6.48-11.38c-.24-.15-6.54,11-6.78,10.86s6.79-10.67,6.66-10.75-6.44,10.84-6.68,10.69,7.27-11.69,6.88-11.94c-.23-.14-7.31,12.2-7.54,12.06-.46-.29,7.9-11.76,7.43-12s-7.68,12.72-7.87,12.6c-.35-.22,6.93-14.52,6.69-14.67s-8.89,15.13-9.3,14.87c-.14-.09,9.09-14.25,8.72-14.48-.09-.05-4.76,7.89-4.88,7.82s4.71-8.64,4.38-8.85-4.25,7.46-4.55,7.28,3.21-7.89,3.08-8-4,6.5-4,6.46,3.5-7.08,3.41-7.13-4.24,7-4.32,6.92,2.69-7.45,2.49-7.57-3.63,6-3.71,5.94,3.83-7.38,3.72-7.45-3.87,6.49-4,6.41,3.36-6.2,3.27-6.26-3.41,5.77-3.55,5.68,1.67-5.82,1.57-5.89-3.75,6.24-3.86,6.17,3.51-7.15,3.43-7.2-4.2,7-4.34,7,2.27-6.45,2.13-6.54-3.68,6.18-3.81,6.1,1.79-6.22,1.64-6.32-4.5,7.42-4.59,7.36,4-7.65,3.88-7.71c-.27-.17-14.59,24.52-15.12,24.19-.87-.55,14.6-23.71,14-24.07-.8-.5-14,23.53-14.5,23.2-.31-.19,12.05-22,11.49-22.32S376.38,37.93,376.16,37.8c-.67-.42,12.15-18.91,11.52-19.3S376.6,36.69,376.4,36.56c-.65-.4,10.61-17.73,10-18.13-.46-.29-9.51,16.51-10.1,16.15-.3-.19,9.18-14.77,8.81-15S376.94,33.1,376.72,33c-.43-.27,7.19-12.61,6.89-12.8s-6.37,11-6.75,10.8c-.19-.12,4.32-8.95,4.21-9s-2.88,4.88-3,4.8,2.43-3.77,2.28-3.86-2.22,3.68-2.27,3.64"/><path class="cls-3" d="M400.2,30.58c-.15-.1-3.56,5.9-3.65,5.84s3.2-5.11,3.05-5.2-3.13,5.26-3.25,5.19,1.31-5.81,1.18-5.89-3.59,6.21-3.8,6.08c-.05,0,2.53-5.61,2.37-5.7s-3.63,6.23-3.82,6.11,1.89-5.58,1.78-5.64-3,5.16-3.16,5.06S393,31.64,393,31.59s-3.43,5.79-3.57,5.71,1.75-5.91,1.69-5.95-2.92,5-3.05,4.89,3.29-5.14,3.2-5.19-3.39,5.67-3.5,5.6,1.33-5.26,1.27-5.29-3.35,5.77-3.54,5.65,2.19-6.36,2.12-6.4c-.26-.17-8,13.58-8.36,13.38s8.21-12.6,7.81-12.85-8,14-8.54,13.65S387.24,31,387.1,30.93c-.36-.23-7.87,13-8.07,12.91s6.8-13,6.42-13.25S378,43.24,377.67,43.05s8.87-14.4,8.31-14.75c-.28-.17-8.57,14.14-8.77,14"/><path class="cls-3" d="M399.31,43c-.28-.18-5.57,9.32-5.76,9.21s2.14-6.51,1.94-6.64-3.54,6.2-3.78,6.05,1.66-6,1.49-6.09-3.33,5.73-3.51,5.62,3.11-5.95,3.05-6c-.22-.14-3.93,6.5-4,6.44s1.55-6.23,1.42-6.31-3.52,6.09-3.73,6,2.08-6.61,2-6.68-3.56,5.94-3.67,5.87,2.78-6.82,2.68-6.89-3.34,5.82-3.55,5.69,2.9-7.4,2.71-7.52-4.06,6.7-4.15,6.64,3.39-7.6,3.28-7.66-3.89,6.44-4,6.38c-.25-.15,4.37-7.68,4.21-7.78s-4.92,8.36-5.14,8.22,4.64-7.56,4.45-7.67-4.57,7.85-4.81,7.7,5.27-8.09,5-8.25c-.11-.08-4.35,7.48-4.58,7.33s5-8.74,4.73-8.93-5,8.76-5.35,8.56,5.76-8.79,5.41-9c-.13-.08-5.64,9.41-5.82,9.3s6-9.79,5.81-9.91-5.86,10-6.15,9.84"/><path class="cls-3" d="M408,42.72c-.13-.09-2.39,4.05-2.49,4s2.26-5.83,2.06-6-5.46,9.08-5.61,9,3.78-8.77,3.46-9-6.5,10.82-6.69,10.7,6.6-10.33,6.36-10.48S399,51.32,398.72,51.14s5.47-9.45,5.23-9.6-5.66,10-6.08,9.72c-.25-.16,5.46-9.75,5.26-9.87s-6.39,10.53-6.53,10.45S402.25,41.33,402,41.2c-.39-.25-6.51,10.8-6.68,10.69s6-10.85,5.61-11.11-6.47,11.32-6.9,11"/><path class="cls-3" d="M256.31,27.51S256,28,256,28s.27-1.19.24-1.2-.69,1.2-.73,1.17"/><path class="cls-3" d="M265.71,44.67c-.17-.1-4.27,7.33-4.49,7.19s4.5-6.83,4.31-6.94-3.74,6.61-4,6.43c-.11-.06,2.09-5.9,2-6s-3.71,6.23-3.84,6.15,2.67-6,2.57-6.06-3.87,6.46-4,6.39,1.84-5.54,1.73-5.61-3.33,5.54-3.43,5.48,2-5.37,1.9-5.44-3.23,5.33-3.31,5.29,2.59-6.55,2.37-6.69-3.77,6.42-3.94,6.31,2.85-7.05,2.73-7.12-4.29,7.09-4.39,7,3.23-7,3.13-7.09-3.85,6.33-3.93,6.28c-.27-.17,3.92-7.84,3.79-7.92s-4.28,7.36-4.52,7.22,4.74-8.29,4.66-8.34c-.33-.21-5.21,8.67-5.37,8.58s5.71-9.37,5.55-9.47c-.37-.23-5.61,9.49-5.84,9.34"/><path class="cls-3" d="M267.18,29.79c-.18-.11-3.82,6.62-4.05,6.48-.05,0,1.43-5.21,1.29-5.3s-3.53,5.93-3.65,5.85,1.61-4.83,1.5-4.89-2.88,4.77-3,4.72,2.82-5.31,2.67-5.41-3.67,6.3-3.86,6.18,3.52-5.34,3.38-5.43-3.72,6.23-3.84,6.15,3.79-6,3.63-6.15-3.11,5.47-3.33,5.33,2.4-6,2.34-6S249.17,49.54,249,49.42c-.44-.27,10.64-17.71,10.14-18s-10.7,17.51-10.88,17.4c-.58-.37,10.39-17.18,10.09-17.37s-10.2,17.13-10.56,16.9c-.17-.1,7.53-15.15,7.15-15.39s-8,13.72-8.4,13.44c-.16-.1,8.69-14,8.22-14.25-.3-.19-8.16,13.34-8.28,13.26-.29-.18,7.29-11.8,6.82-12.09-.32-.2-7,11.54-7.17,11.46-.31-.2,6.8-11.5,6.43-11.73-.14-.09-6.45,10.76-6.65,10.64s4.66-9.43,4.48-9.54-4.3,7.3-4.49,7.19,4.75-7.45,4.58-7.55-4.08,6.86-4.23,6.76,2.51-5.1,2.37-5.19-1.8,3.07-1.89,3"/><path class="cls-3" d="M277.87,51.26l-.19.31s-.24-1.86-.3-1.9-1,1.69-1,1.65,1-3.58.89-3.65-2.26,3.89-2.38,3.82,2.57-4.34,2.52-4.37S275.06,51,275,50.93s1.93-4.12,1.82-4.19-2.69,4.6-2.82,4.52,3-6.74,2.83-6.85-3.65,6.34-3.88,6.2,4.53-8.55,4.39-8.64c-.29-.18-5.81,9.73-6,9.61s6.51-10.35,6.09-10.61-6.15,10.61-6.49,10.4,6.64-10.54,6.44-10.67-5.85,10.09-6.18,9.88c-.16-.1,5.92-10.62,5.56-10.85s-6.66,11.64-7.11,11.36,7.79-13,7.45-13.19c-.15-.09-7.76,13.34-8.17,13.08s8.87-14.51,8.4-14.81c-.19-.12-8.48,14.32-8.82,14.11-.66-.41,9.41-17.53,8.77-17.92-.21-.13-10,17.09-10.48,16.77-.24-.15,10.72-20,10.33-20.19-.56-.35-13.26,22.85-14,22.39-.38-.23,14.64-22.51,14.11-22.84S263.42,51.67,263,51.38s15.21-23.12,14.39-23.64c-.49-.3-14.18,23.64-14.61,23.37s15.26-23.47,14.35-24c-.3-.19-14.38,24.18-14.9,23.85-.83-.51,15.5-26.44,15.07-26.71s-9.1,15-9.27,14.86,9.45-15.83,8.83-16.22-8.1,14.1-8.62,13.78c-.26-.16,7.76-14.76,7.26-15.07s-8,13.77-8.44,13.51,7.52-14.37,7-14.68-9.34,15.42-9.55,15.29,10-15.29,9.47-15.61-9.73,16.79-10.28,16.45c-.35-.22,9.69-17.32,9.43-17.49s-4.45,7.78-4.74,7.59c-.1-.06,4.45-7.55,4.18-7.71s-4.52,7.8-4.78,7.64c-.09-.06,4.29-7.34,4.06-7.48s-4.26,7.06-4.37,7,4.76-7.32,4.56-7.44-3.8,6.63-4,6.47,4-6.65,3.76-6.8c-.08-.05-3.75,6.42-3.94,6.3s3.33-6.42,3.15-6.54-3.71,6.15-3.8,6.09,3.42-5.94,3.22-6.07-3.85,6.35-3.94,6.3,3.42-6.68,3.25-6.78-3.91,6.76-4.13,6.62,3.8-6.68,3.68-6.75-3.4,5.63-3.48,5.57,3.4-5.62,3.29-5.69-3.49,6-3.67,5.87,2-5.48,1.82-5.57-3.43,5.71-3.52,5.65,2.83-5.36,2.72-5.42-3.41,5.68-3.51,5.62,2.63-5.6,2.53-5.66-2.86,4.88-3,4.8,2.33-5,2.23-5.08-3.32,5.74-3.52,5.62,1.49-6.1,1.42-6.14-4.72,7.85-4.85,7.77,3.22-7.2,3.05-7.31c-.42-.26-6.1,10.49-6.43,10.29s6.93-10.61,6.51-10.87-7,11.42-7.09,11.34,6.1-11.08,5.86-11.23-6.67,11-6.84,10.93,6.2-10.37,6-10.49-6.24,10.7-6.56,10.5,5.81-10.14,5.55-10.31S251.66,28.2,251.28,28c-.16-.11,4.36-9.54,4.19-9.64s-5.6,9.8-6,9.57c-.09-.06,3.06-7.94,2.89-8-.35-.22-4.82,8.09-5,8s4.26-7.64,4.1-7.74-4.37,7.5-4.6,7.36c-.08-.05,4-6.25,3.74-6.41-.09-.06-2.88,4.84-3,4.77s2-3.72,1.82-3.81-2,3.26-2,3.24"/><polyline class="cls-4" points="452.19 73.94 453.23 66.93 454.27 72.58 455.86 69.65 456.9 70.8 457.94 71.89 458.99 71.04 460.03 71.79 461.07 63.65 462.12 67.08 463.16 69.55 464.2 69.96 465.24 63.71 466.29 65.47 467.33 63.85 468.37 62.43 469.42 68.04 470.46 68.18 471.5 68.62 472.55 68.22 473.59 67.81 474.63 60.41 475.68 58 476.72 66.75 477.76 66.06 478.81 67.06 479.85 66.38 480.89 66.8 481.93 66.19 482.98 49.71 484.02 57.57 485.06 61.13 486.11 63.42 487.15 62.87 488.19 62.51 489.24 62.83 490.28 60.13 491.32 58.59 492.37 55.7 493.41 56.88 494.45 55.29 495.5 54.16 496.54 29.04 497.58 15.65 498.62 23.04 500.75 49.56 503.42 42.73 504.46 45.28 505.5 47.39 506.55 47.8 507.59 49.88 508.63 45.84 509.68 50.53 510.72 51.91 511.76 52.48 512.8 53.19 513.85 52.93 514.89 53.1 515.93 54.44 516.98 52.72 518.02 53.5 519.06 54.5 520.11 55.59"/><path class="cls-5" d="M59.13,17.78v6.09H52.47v16.4a4.46,4.46,0,0,0,.77,3.07,4.46,4.46,0,0,0,3.07.77c.52,0,1,0,1.48-.06a13,13,0,0,0,1.34-.2v7a22.78,22.78,0,0,1-2.56.26c-.94,0-1.86.06-2.75.06a26.92,26.92,0,0,1-4-.29,9.29,9.29,0,0,1-3.33-1.12,5.83,5.83,0,0,1-2.27-2.37,8.39,8.39,0,0,1-.84-4V23.87h-5.5V17.78h5.5V7.85h9.1v9.93Z"/><path class="cls-5" d="M63.68,27.17a15.34,15.34,0,0,1,3.46-5.51,15.54,15.54,0,0,1,5.38-3.53,19,19,0,0,1,7-1.25,19.27,19.27,0,0,1,7.08,1.25,15.13,15.13,0,0,1,8.87,9,20.29,20.29,0,0,1,1.22,7.2,20.14,20.14,0,0,1-1.22,7.18A15.58,15.58,0,0,1,92.06,47a15.23,15.23,0,0,1-5.41,3.5,19.7,19.7,0,0,1-7.08,1.21,19.38,19.38,0,0,1-7-1.21A15.19,15.19,0,0,1,67.14,47a15.44,15.44,0,0,1-3.46-5.47,20.14,20.14,0,0,1-1.22-7.18A20.29,20.29,0,0,1,63.68,27.17Zm8.26,11.08a10.34,10.34,0,0,0,1.32,3.39,7,7,0,0,0,2.46,2.41,7.64,7.64,0,0,0,3.85.89,7.75,7.75,0,0,0,3.87-.89,6.88,6.88,0,0,0,2.5-2.41,10.34,10.34,0,0,0,1.32-3.39,19.86,19.86,0,0,0,.38-3.88,20.48,20.48,0,0,0-.38-3.91,10,10,0,0,0-1.32-3.39,7.28,7.28,0,0,0-2.5-2.4,7.44,7.44,0,0,0-3.87-.93,7.34,7.34,0,0,0-3.85.93,7.43,7.43,0,0,0-2.46,2.4,10,10,0,0,0-1.32,3.39,20.48,20.48,0,0,0-.38,3.91A19.86,19.86,0,0,0,71.94,38.25Z"/><path class="cls-5" d="M111.28,17.78v6.15h.13a11.46,11.46,0,0,1,4.22-5.09,12.15,12.15,0,0,1,3-1.44,10.55,10.55,0,0,1,3.33-.52,7.2,7.2,0,0,1,2,.32v8.46a14.93,14.93,0,0,0-1.54-.22,14.7,14.7,0,0,0-1.73-.1,9.74,9.74,0,0,0-4.22.83,7.31,7.31,0,0,0-2.79,2.28,9.21,9.21,0,0,0-1.51,3.36,18.83,18.83,0,0,0-.44,4.16V50.9h-9.1V17.78Z"/><path class="cls-6" d="M198.84,50.9,193,28.67h-.13L187.18,50.9h-9.42l-10.5-33.12h9.61L183,40.27h.13l5.51-22.49h8.84l5.64,22.42h.13l6.08-22.42h9.35L208.19,50.9Z"/><path class="cls-6" d="M231.13,17.78v6.15h.12A11.62,11.62,0,0,1,233,21.08a11.32,11.32,0,0,1,2.5-2.24,12.08,12.08,0,0,1,3-1.44,10.64,10.64,0,0,1,3.33-.52,7.26,7.26,0,0,1,2,.32v8.46a19.54,19.54,0,0,0-3.27-.32,9.82,9.82,0,0,0-4.23.83,7.35,7.35,0,0,0-2.78,2.28A9,9,0,0,0,232,31.81a18.23,18.23,0,0,0-.45,4.16V50.9h-9.09V17.78Z"/><path class="cls-6" d="M292.82,17.78v4.61H293a10.41,10.41,0,0,1,4.48-4.19,12.94,12.94,0,0,1,5.64-1.32,15.31,15.31,0,0,1,6,1,8.83,8.83,0,0,1,3.68,2.75,10.64,10.64,0,0,1,1.89,4.29,26.29,26.29,0,0,1,.55,5.61V50.9h-9.1V32.19a11.61,11.61,0,0,0-1.28-6.11c-.86-1.35-2.37-2-4.55-2q-3.72,0-5.38,2.21c-1.11,1.47-1.67,3.9-1.67,7.27V50.9h-9.09V17.78Z"/><path class="cls-6" d="M353.45,53.33a11.19,11.19,0,0,1-2.34,4.78,13.89,13.89,0,0,1-5.19,3.74,22.26,22.26,0,0,1-9.1,1.54,21,21,0,0,1-5-.61,15.44,15.44,0,0,1-4.61-1.89,11.23,11.23,0,0,1-3.46-3.3,9.52,9.52,0,0,1-1.57-4.83h9a5.18,5.18,0,0,0,2.5,3.55,9,9,0,0,0,4.29,1q3.84,0,5.61-2.31a9.09,9.09,0,0,0,1.7-5.83V44.81h-.13a9,9,0,0,1-4.2,3.88,13.63,13.63,0,0,1-5.73,1.25,14.57,14.57,0,0,1-6.41-1.31A12.28,12.28,0,0,1,324.46,45a15,15,0,0,1-2.53-5.32,25.36,25.36,0,0,1-.8-6.44,20.66,20.66,0,0,1,.93-6.18,16.26,16.26,0,0,1,2.72-5.25,13.21,13.21,0,0,1,4.45-3.62,13.38,13.38,0,0,1,6.12-1.35,12.86,12.86,0,0,1,5.74,1.22,9.91,9.91,0,0,1,4.13,4.1h.13V17.78H354v31A22.24,22.24,0,0,1,353.45,53.33ZM341,42.32a7.23,7.23,0,0,0,2.43-2,9.39,9.39,0,0,0,1.45-2.92,12.1,12.1,0,0,0,.48-3.43,18.53,18.53,0,0,0-.39-3.87,9.72,9.72,0,0,0-1.28-3.24,6.7,6.7,0,0,0-2.37-2.24,7.53,7.53,0,0,0-3.72-.83,6.6,6.6,0,0,0-3.3.77,6.92,6.92,0,0,0-2.3,2.08,8.78,8.78,0,0,0-1.35,3,15.29,15.29,0,0,0-.41,3.56,17.66,17.66,0,0,0,.35,3.55,9.39,9.39,0,0,0,1.22,3.17,7.06,7.06,0,0,0,2.27,2.31,6.41,6.41,0,0,0,3.52.89A7.25,7.25,0,0,0,341,42.32Z"/><path class="cls-6" d="M370.65,5.16V50.9h-9.1V5.16Z"/><path class="cls-6" d="M423.24,17.78v6.15h.13a11.4,11.4,0,0,1,4.23-5.09,12.08,12.08,0,0,1,3-1.44,10.64,10.64,0,0,1,3.33-.52,7.26,7.26,0,0,1,2,.32v8.46a19.54,19.54,0,0,0-3.27-.32,9.75,9.75,0,0,0-4.23.83,7.47,7.47,0,0,0-2.79,2.28,9.19,9.19,0,0,0-1.5,3.36,18.23,18.23,0,0,0-.45,4.16V50.9h-9.1V17.78Z"/><path class="cls-5" d="M14.19,42.67a5.44,5.44,0,0,0,1.57,1.73,6.64,6.64,0,0,0,2.21,1,10.64,10.64,0,0,0,2.6.32,9.74,9.74,0,0,0,2-.22,7,7,0,0,0,1.92-.71A4.22,4.22,0,0,0,26,43.5a3.4,3.4,0,0,0,.58-2c0-1.36-.91-2.39-2.73-3.07a54,54,0,0,0-7.59-2c-1.32-.3-2.61-.65-3.87-1.06A13.29,13.29,0,0,1,9,33.7,7.86,7.86,0,0,1,6.6,31.2a7.14,7.14,0,0,1-.89-3.68A9.92,9.92,0,0,1,7,22.26,9.25,9.25,0,0,1,10.25,19a14.52,14.52,0,0,1,4.62-1.67,28.4,28.4,0,0,1,5.25-.48,25.67,25.67,0,0,1,5.22.52,13.63,13.63,0,0,1,4.52,1.73,10.48,10.48,0,0,1,3.3,3.23,10.93,10.93,0,0,1,1.57,5.09H26.08a4,4,0,0,0-2-3.55A9,9,0,0,0,19.86,23c-.51,0-1.06,0-1.66.09a6,6,0,0,0-1.64.42,3.35,3.35,0,0,0-1.24.93A2.42,2.42,0,0,0,14.8,26a2.48,2.48,0,0,0,.9,2A7,7,0,0,0,18,29.28a28,28,0,0,0,3.3.86q1.86.39,3.78.84A38.13,38.13,0,0,1,29,32.07a12.82,12.82,0,0,1,3.37,1.69,8.29,8.29,0,0,1,2.37,2.63,7.81,7.81,0,0,1,.89,3.88,10.06,10.06,0,0,1-4.74,9,13.94,13.94,0,0,1-4.83,1.89,28.53,28.53,0,0,1-5.55.54,27.64,27.64,0,0,1-5.63-.57A14.9,14.9,0,0,1,10,49.23a11,11,0,0,1-3.53-3.55,11,11,0,0,1-1.5-5.54h8.65A5.06,5.06,0,0,0,14.19,42.67Z"/><path class="cls-5" d="M143.19,60.77a13.23,13.23,0,0,1-7.3,1.72q-1.41,0-2.79-.09c-.92-.07-1.85-.14-2.79-.23V54.68l2.63.26a20.14,20.14,0,0,0,2.69.06,3.55,3.55,0,0,0,2.66-1.41,4.51,4.51,0,0,0,.86-2.69,5.38,5.38,0,0,0-.38-2l-11.6-31.07h9.68l7.49,22.68h.13l7.24-22.68h9.42L147.29,55A11.24,11.24,0,0,1,143.19,60.77Z"/><path class="cls-6" d="M387.56,43a9.32,9.32,0,0,0,10.63.6,5.68,5.68,0,0,0,2.44-2.91h8q-1.92,6-5.9,8.52a17.31,17.31,0,0,1-9.61,2.56,18.75,18.75,0,0,1-7-1.25,14.51,14.51,0,0,1-5.32-3.55,16.1,16.1,0,0,1-3.36-5.51,20.21,20.21,0,0,1-1.19-7.05,19.4,19.4,0,0,1,1.22-6.92,16,16,0,0,1,8.81-9.22,17.06,17.06,0,0,1,6.88-1.35,15.74,15.74,0,0,1,7.37,1.64,14.76,14.76,0,0,1,5.16,4.39,18.05,18.05,0,0,1,2.91,6.27,23.37,23.37,0,0,1,.64,7.37H385.32C385.45,39.5,386.19,41.63,387.56,43Zm10.28-17.43a6.4,6.4,0,0,0-5-1.79,7.94,7.94,0,0,0-3.62.73A7,7,0,0,0,387,26.3a6.76,6.76,0,0,0-1.21,2.31,9.91,9.91,0,0,0-.42,2.17h14.8A10.56,10.56,0,0,0,397.84,25.53Z"/><path id="path3611-2" data-name="path3611" class="cls-4" d="M463.1,51.56c19,0,29.38-15.74,29.38-29.38,0-.45,0-.89,0-1.33a21,21,0,0,0,5.15-5.35,20.67,20.67,0,0,1-5.93,1.63,10.37,10.37,0,0,0,4.54-5.71,20.6,20.6,0,0,1-6.55,2.5,10.33,10.33,0,0,0-17.6,9.42,29.3,29.3,0,0,1-21.28-10.79A10.32,10.32,0,0,0,454,26.33,10.14,10.14,0,0,1,449.3,25v.13a10.32,10.32,0,0,0,8.28,10.12,10.11,10.11,0,0,1-4.66.18,10.32,10.32,0,0,0,9.64,7.17,20.69,20.69,0,0,1-12.82,4.42,20,20,0,0,1-2.46-.14,29.2,29.2,0,0,0,15.82,4.64"/><path class="cls-6" d="M247,28a10.58,10.58,0,0,1,1.6-5.32,11,11,0,0,1,3.59-3.4,15.68,15.68,0,0,1,4.9-1.82,28.14,28.14,0,0,1,5.48-.55,36.3,36.3,0,0,1,5.06.36,15.44,15.44,0,0,1,4.68,1.37,9.37,9.37,0,0,1,3.46,2.85,8,8,0,0,1,1.34,4.84V43.53a34.58,34.58,0,0,0,.26,4.29,7.87,7.87,0,0,0,.89,3.08h-9.22a14,14,0,0,1-.42-1.57,14.52,14.52,0,0,1-.22-1.63,11.89,11.89,0,0,1-5.13,3.14,20.8,20.8,0,0,1-6,.89,16.46,16.46,0,0,1-4.42-.57,10.37,10.37,0,0,1-3.59-1.8,8.39,8.39,0,0,1-2.4-3.07,10.5,10.5,0,0,1-.86-4.42,9.71,9.71,0,0,1,1-4.65,8.33,8.33,0,0,1,2.56-2.91,11.67,11.67,0,0,1,3.59-1.64,38.25,38.25,0,0,1,4.07-.86c1.36-.21,2.71-.38,4-.51a24.06,24.06,0,0,0,3.53-.58,6.24,6.24,0,0,0,2.43-1.12,2.44,2.44,0,0,0,.83-2.15,4.78,4.78,0,0,0-.48-2.33,3.47,3.47,0,0,0-1.28-1.35,5.07,5.07,0,0,0-1.85-.64,14.93,14.93,0,0,0-2.28-.16,6.92,6.92,0,0,0-4.23,1.15A5.17,5.17,0,0,0,256.11,28Zm21,6.72a4,4,0,0,1-1.44.8,12.18,12.18,0,0,1-1.85.48c-.67.13-1.36.24-2.09.32s-1.45.2-2.17.32a15.34,15.34,0,0,0-2,.52,6,6,0,0,0-1.73.86,4.18,4.18,0,0,0-1.19,1.38,4.4,4.4,0,0,0-.45,2.11,4.26,4.26,0,0,0,.45,2.05,3.45,3.45,0,0,0,1.22,1.32,5.16,5.16,0,0,0,1.79.67,11.37,11.37,0,0,0,2.12.19,8,8,0,0,0,4.16-.9A6,6,0,0,0,267,42.67a6.73,6.73,0,0,0,.86-2.53,16.82,16.82,0,0,0,.16-2Z"/></svg>