<svg id="Layer_1" data-name="Layer 1" xmlns="http://www.w3.org/2000/svg" viewBox="0 0 147.34 131.34"><defs><style>.cls-1{fill:none;stroke:#00b6cf;stroke-linecap:round;stroke-linejoin:round;stroke-width:0.72px;}.cls-2{fill:#0681a2;opacity:0.82;}</style></defs><title>logo</title><g id="path3611"><path class="cls-1" d="M19.85,35.27c-.08-.06-5.06,8.47-5.23,8.37s3.29-8.37,3.05-8.52-4.4,7.44-4.57,7.32,3-7.65,2.91-7.74S12.78,40,12.71,40s2-5.95,1.88-6-3,5-3.06,4.9S13,34.57,12.88,34.5,11.38,37,11.33,37s.48-3.16.38-3.22-.14.3-.17.28.44-.88.43-.89-.78,1.27-.79,1.27.19-1.15.15-1.17l-.15.25"/><path class="cls-1" d="M26,52.49c-.1-.07-4.22,7.15-4.4,7s2.66-6.56,2.45-6.69-3.35,5.85-3.57,5.71,1.68-5.21,1.56-5.28-2.35,4-2.48,4,1.85-4.84,1.69-4.94S19,56.09,18.92,56s-.25-2.85-.33-2.9-.07.17-.1.15.18-.75.15-.76-.42.71-.44.7.09-1.06.07-1.07l-.6,1"/><path class="cls-1" d="M53.23,29.65c-.65-.4-20.85,35.71-21.91,35.05s22.24-34.5,20.9-35.34C51.57,29,31.29,64.59,30.51,64.1c-.5-.32,20.92-33.59,19.84-34.27C49.58,29.35,29.55,65,28.69,64.5c-.45-.28,21.72-34.83,21.11-35.21s-21.25,35.35-21.86,35c-1.2-.75,22.84-34.37,21.59-35.16s-20.88,35.82-22,35.14C27.11,64,48.89,30.41,47.64,29.63c-.8-.5-20.63,34.37-21.24,34S47.15,29.34,46.3,28.8c-.47-.29-19.55,33.84-20.7,33.13S44.91,29.22,44.05,28.68c-.36-.22-19.17,32.59-20,32.05-1.07-.67,19-32,18.13-32.6-.37-.23-18.63,31.63-19.44,31.12S40.79,28.16,40.48,28c-.63-.39-14.18,23.48-14.54,23.26-.75-.47,14.14-24,13.75-24.21S25.21,51.12,24.79,50.86c-.68-.43,14-23,13.25-23.48s-14.12,24.51-15,24C22.43,51,37.6,27.26,37.17,27c-.69-.43-14.36,23.71-14.69,23.5-.7-.43,15.26-23.47,14.74-23.8s-14,24.38-14.88,23.81c-.45-.28,14-24,13.25-24.49S21.21,49.57,21,49.42c-.77-.48,13.19-23.69,12.72-24C33,25,19.94,48.57,19.42,48.25c-.84-.52,12.76-22.91,12.5-23.07-.41-.26-14,23.5-14.48,23.17-.72-.45,13.8-24.6,13.5-24.79S17,47.63,16.21,47.13,29.3,23.63,29,23.45,16,45.91,15.25,45.48,30,22.79,29.31,22.38c-.39-.24-13.52,22.4-13.87,22.19-.66-.41,13.22-21.79,13-21.93-.83-.52-12.94,22.13-13.58,21.73s12.91-22.16,12.37-22.5S19.86,34.8,19.34,34.48s7.75-12.39,7.37-12.63-7.58,13-8,12.79,6.84-13.27,6.39-13.56c-.24-.14-7.34,12.72-7.78,12.44s6.88-14,6.42-14.24-7.46,13-7.93,12.68,8.14-13.19,8-13.31S16,32.07,15.55,31.81c-.23-.15,7.38-13.76,6.94-14-.17-.1-7.52,12.71-7.82,12.52s6.64-12.63,6.26-12.87c-.13-.09-6.9,11.4-7.06,11.3-.43-.27,7.39-11.8,7.15-11.94s-7.11,12.15-7.46,11.93,6.94-12.39,6.67-12.57-6.74,11.27-7,11.13c-.39-.24,6.82-11,6.55-11.17s-6.59,11.45-7,11.2c-.11-.07,7.2-11.4,7.06-11.48s-7.22,11.85-7.35,11.76C12.12,27.33,20,16.26,19.67,16s-6.78,11.58-7.1,11.38,6.91-11.73,6.64-11.9-6.47,11.29-6.88,11,5.66-11.75,5.31-12S11.93,24.16,11.72,24s4.82-11.42,4.69-11.51-4.78,7.92-4.9,7.84,4.18-8.51,3.93-8.66c-.08,0-4,7-4.26,6.82S14.09,11,14,11s-1.38,2.43-1.48,2.37,1.16-2.49,1.07-2.55-.57,1-.59.94"/><path class="cls-1" d="M35.18,66.2c-.35-.22-8.95,15.49-9.48,15.16-.17-.11,8.69-14.55,8.51-14.66-.38-.24-8.1,14.09-8.61,13.77-.14-.09,6.84-12.14,6.38-12.42s-7.65,12.67-7.84,12.54c-.43-.26,7.55-11.92,7.19-12.14S24,81,23.61,80.81s6.44-11.23,6-11.49-6.46,11.2-6.85,11c-.12-.07,6.54-10,6.15-10.26-.24-.15-6.43,10.58-6.56,10.49s5.14-9.91,4.85-10.09-5.7,9.46-5.85,9.37,3.63-8,3.35-8.15S20.26,79.15,20.09,79s2.73-6.67,2.55-6.79-3.91,6.8-4.15,6.65,3.41-6.08,3.29-6.15S18,79.11,17.85,79s2.44-5.82,2.23-6-2.71,4.8-2.92,4.67,1.7-4.91,1.58-5-3.3,5.49-3.4,5.43,3-4.74,2.9-4.81-2.95,5-3.06,4.91,2.23-4.86,2.13-4.92S15,77.2,14.94,77.17s.09-3.26,0-3.32-1.64,2.89-1.76,2.82.75-2.82.68-2.85-1.08,1.94-1.17,1.88,0-1.29,0-1.3-.71,1.32-.79,1.27.19-2.09.17-2.1S10.57,76,10.52,76s1.28-2,1.25-2.07-1.16,2-1.22,1.95.91-2,.87-2-1.06,1.78-1.1,1.76.06-2.13,0-2.16-.66,1.1-.68,1.09,0-1.06,0-1.07-.94,1.57-1,1.55S9,73.32,9,73.29s-.84,1.37-.85,1.36.52-1.2.5-1.21-.19.32-.2.31l-.71-.13-.05.07"/><path class="cls-1" d="M97.12,9.73c-.11-.08-2.57,4.5-2.74,4.39S97,10,96.88,9.93s-2.7,4.54-2.8,4.48,2.09-5.12,2-5.17c-.27-.17-4.49,7.88-4.8,7.68s1.79-6.6,1.72-6.65C91.06,9,49.71,81.56,48.83,81,46.77,79.72,91.25,11.66,90.51,11.2,88.32,9.83,47.9,81.26,47.06,80.73,44.4,79.07,91.2,13.68,88.51,12,86.93,11,47.61,83.24,45,81.61,42.6,80.1,90,13.4,87.55,11.85c-2-1.25-41.87,71.31-43.81,70.1C42.37,81.1,87.36,13.22,86.05,12.4c-.82-.51-41.93,69.91-43.2,69.12S87.27,13.43,85.1,12.08c-1.2-.76-42.65,71-43.87,70.2-2.58-1.61,44.47-69.72,42.49-71-1.82-1.13-42.39,71.51-44,70.48C36.89,80.05,85.53,11,83.2,9.57c-1.54-1-42.66,73.45-45,72-1.16-.73,45-71.36,43.52-72.28-.8-.49-43.23,75-45.86,73.39-1.38-.86,46.69-72.73,44.62-74C78.58,7.47,37.3,83.75,34.62,82.08,33.5,81.38,80.85,9,79.19,7.94c-2.81-1.76-44.52,74.5-46,73.59C31.26,80.31,79.6,9.39,77.15,7.85c-2.84-1.77-44,75.78-46.4,74.26C28.59,80.76,77.48,8.26,75.28,6.88,73.42,5.71,30.09,83.06,28.36,82,27.09,81.18,76,7.61,73.52,6.08c-1.1-.69-45.43,76.06-46.94,75.11C25.36,80.43,76,8.23,73,6.39S28,82.69,26.09,81.53C23.3,79.79,74,7.3,72.43,6.32,70.41,5.06,38,66.44,35.76,65,33.7,63.73,72.51,7.74,71.54,7.14c-2-1.28-35.81,58.68-36.43,58.3C33.8,64.62,70.7,8.1,69.44,7.32c-.91-.57-35,58.46-36.1,57.78-.93-.58,35.55-57.64,34.3-58.42-.83-.52-13.89,24-14.69,23.51-.51-.32,13.78-22,13-22.49S53.56,28.62,53.11,28.34,65.44,8.65,64.71,8.19,53.47,26.84,53.17,26.66c-.48-.3,8.66-16.63,8.2-16.92s-8.06,14-8.56,13.7c-.3-.18,4.42-9.66,4.22-9.78s-2.16,3.66-2.25,3.6"/><path class="cls-1" d="M99.89,15.93s-1,1.69-1,1.67-1.34-1.16-1.37-1.18-4.26,7.3-4.48,7.17,3.06-6.27,2.93-6.35c-2.2-1.37-36.59,62.32-38.28,61.26-1.28-.79,37.42-59.81,36-60.7-1-.65-36.75,62.2-38.27,61.25C53.68,78,94.24,18.35,93.43,17.84,91.67,16.75,56,80,55,79.37,52.73,78,93.8,18.4,93.14,18c-1.36-.85-36.28,62.42-38.24,61.2-.85-.53,38.47-61.1,37.79-61.53-1.3-.81-35.82,62.73-38.25,61.22-1.57-1,39.36-59.83,37.53-61-1.68-1.05-37.56,62-38.43,61.5S93.1,19.6,91.09,18.35c-1.23-.77-36.48,62.24-38.22,61.15-.69-.43,39.57-59.3,37.32-60.71-1.56-1-36.21,61.73-37.9,60.67s38.92-60,37.37-61C87.3,17,52.83,80.81,51.3,79.85"/><path class="cls-1" d="M84.76,52.83c-.27-.17-4.83,8.06-5,8s8.44-15.21,8.08-15.44c-.51-.32-13.43,22.21-13.75,22-.8-.5,15.56-24.68,14.84-25.12-.28-.18-16.47,27.47-17,27.16S90.76,39.45,89.69,38.78,70.39,72.4,69.16,71.63c-.88-.55,21.39-34.56,20.84-34.9-1-.59-21.6,36.39-22.42,35.88-1.32-.83,23.43-38.77,23-39.06C89.67,33,66.17,75,65.08,74.32S91.55,33.08,90.87,32.65,65.59,75.06,64.71,74.51c-1.43-.89,26.85-45.89,26.35-46.2S62.83,77.76,60.91,76.56c-1.75-1.09,31.51-46.84,29.86-47.88C89.67,28,62.51,78.1,60.62,76.92c-.81-.5,30.72-50.18,29.92-50.68-1.31-.82-30.75,52.87-32.4,51.84"/></g><polygon class="cls-2" points="16.97 123.59 15.98 123.44 18.35 107.51 20.56 119.52 23.15 114.72 25.56 117.38 27.15 119.04 29.02 117.52 30.58 118.64 32.7 102.12 35.3 110.68 37.13 115 38.29 115.46 40.34 103.16 42.56 106.9 44.05 104.59 46.67 101.01 48.75 112.16 50.45 112.4 52.19 113.14 55.58 111.83 57.5 98.3 60.17 92.16 62.22 109.35 63.8 108.32 65.73 110.15 67.55 108.97 69.49 109.75 70.98 108.89 72.89 78.7 73.88 78.66 75.81 93.19 77.72 99.7 79.41 103.39 80.86 102.61 83.02 101.85 84.66 102.36 86.47 97.71 88.36 94.91 90.56 88.83 92.61 91.15 94.18 88.76 96.03 86.75 97.95 40.5 100.24 11.18 102.8 29.37 106.56 76.24 111.15 64.47 113.56 70.35 115.38 74.05 117.31 74.79 118.72 77.62 120.84 69.42 123.2 80.03 124.99 82.41 126.82 83.39 128.61 84.61 130.42 84.17 132.65 84.52 134.25 86.58 136.09 83.57 138.46 85.34 140.43 87.22 142.37 89.25 141.65 89.94 139.72 87.93 137.81 86.1 136.37 85.02 134.35 88.34 132.1 85.45 130.47 85.19 128.42 85.69 126.31 84.25 124.26 83.1 122.24 80.35 120.77 73.71 119.03 80.46 116.59 75.59 114.66 74.84 112.64 70.76 111.17 67.17 105.91 80.65 101.81 29.48 100.52 20.37 98.95 40.56 97.02 87.16 94.96 89.37 92.72 92.8 90.92 90.76 89.22 95.42 87.33 98.22 85.25 103.6 83.03 102.91 81.26 103.52 78.94 104.77 76.79 100.05 74.83 93.4 73.56 83.85 71.94 109.48 69.57 110.87 67.66 110.1 65.61 111.42 63.69 109.59 61.42 111.07 59.61 95.95 58.45 98.63 56.49 112.55 52.17 114.22 50.12 113.35 47.9 113.05 46.11 103.46 44.87 105.16 42.52 108.81 40.88 106.03 39.07 116.85 36.37 115.78 34.37 111.02 33.1 106.86 31.36 120.43 29.06 118.78 27.07 120.4 24.82 118.06 23.36 116.44 20.09 122.49 18.45 113.6 16.97 123.59"/><path class="cls-2" d="M36.65,82.64h0A54.61,54.61,0,0,1,7.13,74L5.3,72.82l2.16.25a39,39,0,0,0,4.49.26,37.55,37.55,0,0,0,22.31-7.24A19.58,19.58,0,0,1,17.35,52.56l-.26-.8.83.16a18.57,18.57,0,0,0,6.35.11A19.62,19.62,0,0,1,10.64,33.37l0-1.07.71.39a18.49,18.49,0,0,0,6.69,2.19A19.61,19.61,0,0,1,13.44,9.79l.36-.63.46.56A53.83,53.83,0,0,0,52.58,29.44a20.09,20.09,0,0,1-.37-3.81A19.6,19.6,0,0,1,85.9,12,37.36,37.36,0,0,0,97.59,7.51l1.13-.67-.4,1.26a19.54,19.54,0,0,1-6.77,9.58A37.56,37.56,0,0,0,100.21,15l1.58-.7-1,1.43a38.88,38.88,0,0,1-9.42,9.85c0,.74,0,1.48,0,2.22,0,26.94-20.5,54.8-54.8,54.8ZM9.48,74.26a53.65,53.65,0,0,0,27.17,7.38c33.68,0,53.8-27.35,53.8-53.8,0-.82,0-1.63,0-2.44l0-.27L90.6,25A38.11,38.11,0,0,0,99,16.62,38.53,38.53,0,0,1,89.51,19l-2.32.28,2-1.2a18.66,18.66,0,0,0,7.72-9,38.81,38.81,0,0,1-11.09,4l-.28,0-.19-.2A18.58,18.58,0,0,0,53.7,29.86l.15.65-.67,0A54.88,54.88,0,0,1,14,10.92,18.62,18.62,0,0,0,20.06,35.1l1.45,1-1.75,0A19.63,19.63,0,0,1,11.64,34a18.63,18.63,0,0,0,14.9,17.63l2.08.42-2,.55a19.46,19.46,0,0,1-8,.48A18.58,18.58,0,0,0,35.66,65.16l1.41,0L36,66.06a38.56,38.56,0,0,1-24,8.27C11.12,74.33,10.3,74.31,9.48,74.26Z"/></svg>