<?xml version="1.0" encoding="utf-8"?>
<!-- Generator: Adobe Illustrator 24.2.1, SVG Export Plug-In . SVG Version: 6.00 Build 0)  -->
<svg version="1.1" id="Layer_1" xmlns="http://www.w3.org/2000/svg" xmlns:xlink="http://www.w3.org/1999/xlink" x="0px" y="0px"
	 viewBox="0 0 743 142" style="enable-background:new 0 0 743 142;" xml:space="preserve">
<style type="text/css">
	.st0{fill:#002F6C;}
</style>
<g>
	<path class="st0" d="M315.3,78.6c-8.1-1.6-11.4-2.5-11.4-4.8c0-2.1,1.8-4.3,7-4.3c4.2,0,7.7,1.8,9.5,4.9c0.4,0.7,1.3,0.9,2,0.5
		l10.3-5.7c0.4-0.2,0.7-0.6,0.8-1c0.1-0.4,0-0.9-0.2-1.2c-4.7-7-12-10.4-22.3-10.4h-0.5c-7.1,0-13.4,2.3-17.6,6.4
		c-3.2,3.1-5,7.2-5,11.3c0,12.1,10.2,15.6,20.2,17.4l0.8,0.2c6.1,1.1,10.9,2,10.9,4.7c0,2.4-2.3,4.8-7.4,4.8s-8.8-2.1-10.9-6.2
		c-0.2-0.4-0.5-0.7-1-0.8c-0.4-0.1-0.8-0.1-1.2,0.1l-11.4,6.3c-0.4,0.2-0.6,0.5-0.7,0.9s-0.1,0.8,0.1,1.2
		c4.6,8.1,12.5,12.1,24.4,12.1h0.5c9.2,0,14.8-3.6,17.8-6.6c3.5-3.4,5.5-8,5.5-12.3C335.6,84.5,325.8,80.9,315.3,78.6"/>
	<path class="st0" d="M367,78.6c-8.1-1.6-11.4-2.5-11.4-4.8c0-2.1,1.8-4.3,7-4.3c4.2,0,7.7,1.8,9.5,4.9c0.4,0.7,1.3,0.9,2,0.5
		l10.3-5.7c0.4-0.2,0.7-0.6,0.8-1c0.1-0.4,0-0.9-0.2-1.2c-4.7-7-12-10.4-22.3-10.4h-0.5c-7.1,0-13.4,2.3-17.6,6.4
		c-3.2,3.1-5,7.2-5,11.3c0,12.1,10.2,15.6,20.2,17.4l0.8,0.2c6.1,1.1,10.9,2,10.9,4.7c0,2.4-2.3,4.8-7.4,4.8s-8.8-2.1-10.9-6.2
		c-0.2-0.4-0.5-0.7-1-0.8c-0.4-0.1-0.8-0.1-1.2,0.1l-11.4,6.3c-0.4,0.2-0.6,0.5-0.7,0.9s-0.1,0.8,0.1,1.2
		c4.6,8.1,12.5,12.1,24.4,12.1h0.5c9.2,0,14.8-3.6,17.8-6.6c3.5-3.4,5.5-8,5.5-12.3C387.4,84.5,377.6,80.9,367,78.6"/>
	<path class="st0" d="M575,88.9V72.5c0-0.6,0.5-1.1,1.1-1.1h9.4c0.8,0,1.4-0.6,1.4-1.4V59.4c0-0.8-0.6-1.4-1.4-1.4h-9.4
		c-0.6,0-1.1-0.5-1.1-1.2V39.9c0-1.1-1.2-1.8-2.1-1.3l-13.1,7.2c-0.5,0.3-0.7,0.7-0.7,1.3v9.7c0,0.6-0.5,1.2-1.2,1.2h-5.8
		c-0.8,0-1.4,0.6-1.4,1.4V70c0,0.8,0.6,1.4,1.4,1.4h5.8c0.6,0,1.2,0.5,1.2,1.2v20c0,11.8,9.6,21.2,21.4,21.3c2,0,3.9,0.2,5.7-0.2
		c0.5-0.1,0.9-0.6,0.9-1.2V99.4c0-0.5-0.5-0.9-1-0.7c-0.8,0.2-1.6,0.4-2.4,0.4c-4,0-7.3-2.7-8.2-6.4C575.3,92.4,575,90.9,575,88.9"
		/>
	<path class="st0" d="M609.7,86.3V59.2c0-0.8-0.6-1.4-1.4-1.4h-13.2c-0.8,0-1.4,0.6-1.4,1.4v28.6c0,8,2.4,14.8,6.8,19.7
		c4.4,4.8,10.6,7.4,17.9,7.4c6,0,11.2-1.4,16.1-5.3l0.3-0.2v2.9c0,0.8,0.6,1.4,1.4,1.4h13.2c0.8,0,1.4-0.6,1.4-1.4V59.2
		c0-0.8-0.6-1.4-1.4-1.4h-13.2c-0.8,0-1.4,0.6-1.4,1.4V86c0,9-4.7,14.3-12.6,14.3C614.2,100.3,609.7,95.1,609.7,86.3"/>
	<path class="st0" d="M502.9,86.3V59.2c0-0.8-0.6-1.4-1.4-1.4h-13.2c-0.8,0-1.4,0.6-1.4,1.4v28.6c0,8,2.4,14.8,6.8,19.7
		c4.4,4.8,10.6,7.4,17.9,7.4c6,0,11.2-1.4,16.1-5.3l0.3-0.2v3.2c0,0.6,0.5,1.2,1.2,1.2H543c0.6,0,1.1-0.5,1.1-1.2V59.2
		c0-0.8-0.6-1.4-1.4-1.4h-13.3c-0.8,0-1.4,0.6-1.4,1.4V86c0,9-4.7,14.3-12.6,14.3C507.4,100.3,502.9,95.1,502.9,86.3"/>
	<path class="st0" d="M741.5,27H728c-0.8,0-1.4,0.6-1.4,1.4v84.2c0,0.6,0.5,1.2,1.2,1.2h13.8c0.6,0,1.2-0.5,1.2-1.2V28.1
		C742.7,27.5,742.1,27,741.5,27"/>
	<path class="st0" d="M250.4,70.4c8.3,0,14.2,6.2,14.2,15.1c0,9-6,15.6-14.2,15.6c-8.3,0-14.4-6.6-14.4-15.6S241.9,70.4,250.4,70.4
		 M220.1,85.5c0,17.9,12,29.8,29.8,29.4c5.3-0.1,10.4-2.2,14.6-5.5v2.9c0,0.8,0.6,1.4,1.4,1.4h13.2c0.8,0,1.4-0.6,1.4-1.4V59.2
		c0-0.8-0.6-1.4-1.4-1.4h-13.2c-0.8,0-1.4,0.6-1.4,1.4v2.9l-0.3-0.2c-4.5-3.5-9.6-5.2-15.3-5.2C231.7,56.7,220.1,68.3,220.1,85.5"/>
	<path class="st0" d="M687.6,70.4c8.3,0,14.2,6.2,14.2,15.1c0,9-6,15.6-14.2,15.6c-8.3,0-14.4-6.6-14.4-15.6
		C673.2,76.5,679.1,70.4,687.6,70.4 M657.3,85.5c0,17.9,12,29.8,29.8,29.4c5.3-0.1,10.4-2.2,14.6-5.5v3.2c0,0.6,0.5,1.2,1.2,1.2
		h13.8c0.6,0,1.1-0.5,1.1-1.2V59c0-0.6-0.5-1.1-1.1-1.1h-13.8c-0.6,0-1.2,0.5-1.2,1.1v3.2l-0.3-0.2c-4.5-3.5-9.6-5.2-15.3-5.2
		C668.9,56.7,657.3,68.3,657.3,85.5"/>
	<path class="st0" d="M200.5,27.7l-29.1,43l-29.1-43c-0.3-0.5-0.8-0.7-1.4-0.7h-10c-0.9,0-1.7,0.7-1.7,1.7v83.4
		c0,0.9,0.7,1.7,1.7,1.7h12.8c0.9,0,1.7-0.7,1.7-1.7v-51l24.7,36.5c0.7,1,2.1,1,2.8,0l24.7-36.5v51c0,0.9,0.7,1.7,1.7,1.7h12.8
		c0.9,0,1.7-0.7,1.7-1.7V28.7c0-0.9-0.7-1.7-1.7-1.7h-10C201.3,27,200.8,27.3,200.5,27.7"/>
	<path class="st0" d="M465,27.7l-29.1,43l-29.1-43c-0.3-0.5-0.8-0.7-1.4-0.7h-10c-0.9,0-1.7,0.7-1.7,1.7v83.4c0,0.9,0.7,1.7,1.7,1.7
		h12.8c0.9,0,1.7-0.7,1.7-1.7v-51l24.7,36.5c0.7,1,2.1,1,2.8,0l24.7-36.5v51c0,0.9,0.7,1.7,1.7,1.7h12.6c0.9,0,1.7-0.7,1.7-1.7V28.7
		c0-0.9-0.7-1.7-1.7-1.7h-10C465.8,27,465.3,27.3,465,27.7"/>
	<path class="st0" d="M108.5,101.9c0-7.2-5.9-13.1-13.1-13.1s-13.1,5.9-13.1,13.1S88.2,115,95.4,115
		C102.6,115.1,108.5,109.1,108.5,101.9"/>
	<path class="st0" d="M67.4,101.9c0-7.2-5.9-13.1-13.1-13.1s-13.1,5.9-13.1,13.1S47.1,115,54.3,115
		C61.5,115.1,67.4,109.1,67.4,101.9"/>
	<path class="st0" d="M26.4,101.9c0-7.2-5.9-13.1-13.1-13.1S0.2,94.7,0.2,101.9S6.1,115,13.3,115C20.5,115.1,26.4,109.1,26.4,101.9"
		/>
	<path class="st0" d="M88,69.7c0-7.2-5.9-13.1-13.1-13.1s-13.1,5.9-13.1,13.1c0,7.2,5.9,13.1,13.1,13.1S88,77,88,69.7"/>
	<path class="st0" d="M47,69.7c0-7.2-5.9-13.1-13.1-13.1s-13.1,5.9-13.1,13.1c0,7.2,5.9,13.1,13.1,13.1S47,77,47,69.7"/>
</g>
</svg>
