<?xml version="1.0" encoding="utf-8"?>
<!-- Generator: Adobe Illustrator 25.2.1, SVG Export Plug-In . SVG Version: 6.00 Build 0)  -->
<svg version="1.1" id="Layer_1" xmlns="http://www.w3.org/2000/svg" xmlns:xlink="http://www.w3.org/1999/xlink" x="0px" y="0px"
	 viewBox="0 0 4879 1814" style="enable-background:new 0 0 4879 1814;" xml:space="preserve">
<style type="text/css">
	.st0{fill:#FFFFFF;}
</style>
<path class="st0" d="M996.8,681.2c2.5,1.7,4.7,3.3,7.1,4.8c1.9,1.2,4.5,2,5.6,3.7c2.8,3.9,6.4,7.1,10.6,9.4c2.3,1.4,4.3,3.4,5.7,5.8
	c1.6,2.9,3.2,5.5,6.5,6.5c0.4,0.1,0.8,0.4,1,0.8c2,5.1,6.4,7.9,10,11.5c9,9,17.4,18.5,25.8,28.1c3.4,3.9,6.3,8.3,9.6,12.3
	c2.9,3.8,6.1,7.4,9.5,10.7c5.6,5.1,8.4,11.8,12.2,18.1c0.9,1.5,1.7,3.7,3.1,4.3c4.8,2.2,5.9,6.4,7.8,10.6
	c4.2,9.3,9.2,18.2,13.8,27.4c0.7,1.4,1.3,2.9,1.8,4.4c0.5,1.3,0.3,3,1.2,3.9c5.3,5.5,5.7,13.2,9.2,19.6c1.2,2,1.8,4.2,1.9,6.5
	c-0.3,8.9,1,17.8,3.8,26.2c0.7,2,0.1,4.5-0.2,6.7c-0.5,4.5,0.2,8.7,3,12.3c5.4,6.8,7.1,14.4,5.9,23.1c-1.5,11-2,22.2-3.4,33.2
	c-1.8,13.8-4.9,27.3-10.9,40.1c-2.7,5.7-6.4,11.1-6.6,17.8c-0.2,1.1-0.6,2.2-1.3,3.1c-4.1,6.4-8.2,12.8-12.3,19.2
	c-0.2,0.4-0.7,0.7-0.8,1.1c-3.5,9.6-11.1,17.3-12.6,27.8c-0.3,1.5-0.9,3-1.8,4.4c-2.7,4.7-5.2,9.6-8.2,14c-3.5,5-7.5,9.7-11.3,14.4
	c-0.8,1-2.5,1.5-3.2,2.6c-3.4,5.4-7.7,10.1-12.8,13.9c-2.4,1.8-4.6,4-7.4,5.6c-3.3,1.8-6,4.8-8.8,7.4c-2.7,2.5-4.7,6-7.8,7.6
	c-8.7,4.6-15,11.8-21.8,18.6c-2.8,3-6.5,5-10.5,5.7c-7.8,1.4-13.8,5.5-17,13.3c-1.2,2.8-3.5,5.3-5.9,7.4
	c-7.3,6.4-12.6,14.3-17.8,22.4c-0.8,1.3-1.1,3-1.7,4.4c-1.9,4.3-3.9,8.6-5.9,13c-0.4,1-0.8,2-1.3,3.6l5.9-2c2.2,6,2.1,6.5-2.2,9.2
	c-4.7,2.9-8.7,6.2-11.3,11.4c-1.7,3.6-5.2,6.3-8,9.3c-4.8,5.2-4.7,6.8-0.5,12.2c4,5.2,7.1,11,11,16.2s6,10.8,4.5,17.5
	c-0.7,3.3,0.9,6.3,3.6,8.5c4.5,3.7,5.3,8.4,4.2,13.6c-1.6,7-1.4,14.4-5.1,21.2c-1.2,2.1,0.3,7.3,2.3,9.3c5.9,5.7,4.5,13.1,5.8,19.8
	c1.1,5.5-1.7,10.2-3.9,14.1c3,4.3,5.9,8,8.1,12.2c0.9,1.7,0.9,4.9-0.2,6.2c-2.3,2.8-2.5,5.7-2.8,8.9c-0.7,6.5-1.8,12.8-10.7,15.2
	c2,2,3.3,3.5,4.7,4.6c7.4,6.1,8.8,17.7,2.1,24.8s-7.6,14.8-6.3,23.8c0.9,6.6-2.6,12.2-7.2,16.2c-4.4,3.9-7.8,8.8-9.6,14.4
	c-2.3,6.4-4.2,13.5-10.3,18.1c-2.1,1.6-3.6,4.2-4.7,6.7c-1.8,3.9-4.6,5.4-8.7,5.4c-1.6,0-3.6,0-4.6,0.9c-5,4.4-11.4,4.4-17.4,5.5
	c-5.1,0.9-8.5,3.5-11.4,7.8c-4.3,6.7-9.2,12.9-14.7,18.6c-3.4,3.4-8.4,5.4-13,7.3c-10.5,4.4-21.6,7.3-32.8,8.7
	c-6.2,0.8-12.4,1.5-17-4.2c-0.1-0.2-0.3-0.3-0.5-0.4c-9.1-1.9-12-10.3-17.4-16.2c-1.1-1.2-1.9-2.6-3-3.8c-3-3.5-6.5-5.5-11.4-4
	c-8.1,2.5-16.3,0.5-24.4-0.4c-3.5-0.3-6.6-2-8.7-4.8c-1.5-1.9-4.3-2.5-6.1-4.3c-5.1-5.1-10.2-10.2-14.6-15.9
	c-3.2-4.3-4.6-9.6-4-14.8c0.6-6.8-1.3-11.7-8-15c-8.3-4.2-9.8-13.2-12.4-21.1c-0.9-2.8-1.2-5.9-0.8-8.8c0.8-4.7-1.4-7.6-4.4-10.8
	c-10.1-11-13.7-24-10.4-38.5c0.9-3.3,2.3-6.4,4.3-9.2c2.3-3.5,2.5-6.4,0.3-10.1c-7-11.4-6.5-24-5.2-36.6c0.4-3.8,2.5-6.9,7.1-7.1
	c1.4-0.2,2.9-0.6,4.3-1.1c-2.3-4.2-4.1-8-6.3-11.6s-5.1-6.6-6.5-10.3c-1.3-3.2-2.1-7.4-1.2-10.5c1.8-6.2,4.8-12.2,7.7-18.1
	c1.4-2.8,2.3-5.1,1.3-8.4c-2.5-8.1,1.3-17.7,8.6-22.7c5.2-3.6,4.9-3.5,3.6-9.3c-0.9-3.9-0.9-8.1-1.5-12.2c-0.7-4.9-1.4-9.9-2.3-14.8
	c-0.9-5.2-2.9-10.3-2.7-15.4c0.2-7.5-3.7-13-7-18.9c-2.1-3.8-4.4-7.5-6.9-11c-3.1-4.4-5.4-9.6-10.9-11.9c-1.4-0.7-2.6-1.9-3.4-3.3
	c-6.1-9.5-15.7-14.2-25.1-19.2c-2.9-1.7-5.7-3.6-8.3-5.8c-7.5-5.9-15-11.6-22.3-17.8c-5.3-4.6-10.2-9.7-15.2-14.6
	c-1.5-1.4-2.6-3.5-4.3-4.3c-5.8-2.8-9.8-7.4-13.5-12.4c-1.3-1.9-3-3.5-4.8-4.8c-6-4.3-10.7-9.8-15.2-15.6
	c-3.5-4.5-7.7-8.4-11.4-12.6c-5.7-6.5-11.4-13-16.7-19.8c-2.7-3.7-5.1-7.6-7.1-11.6c-3-5.6-4.7-11.7-8.5-17.1
	c-3.1-4.3-4.5-9.8-5.3-15.4c-1.7-11.7-4.5-23.2-6.6-34.9c-0.7-3.8-1.1-7.6-1.1-11.5c-0.1-11.6-0.1-23.2,0-34.8
	c0-2.3,0.3-4.6,0.7-6.8c3.3-17.5,4.3-35.2,5-53.1c0.5-14.3,3.8-28.5,12-40.9c1.3-2.1,2.4-4.4,3.3-6.7c2.8-6.7,5.2-13.5,8.4-20
	c2.8-5.7,6.5-10.9,9.8-16.3c4-6.6,8.1-13.2,11.9-20c4.2-7.6,9.1-14.7,14.8-21.3c8.1-9.2,15.2-19.5,23.8-28.2
	c11.1-11.1,23.3-21.1,35-31.6c1.6-1.2,3.1-2.6,4.5-4.2c6.2-8.5,15.2-13,24.2-17.4c8.6-4.2,17.6-7.7,26.2-11.7
	c6.4-3,12.8-6.1,18.9-9.6c12.2-6.8,25.8-10.7,39.7-11.2c7.9-0.4,15.8-2.1,23.7-3.2c1.6-0.3,3.2-0.5,4.8-0.6
	c17.1-0.5,34.2-0.9,51.2-1.4c10-0.3,20-1.2,30.1-1.3c5.7,0.1,11.4,0.5,17,1.3c5.9,0.7,11.7,1.8,17.5,2.7c1.6,0.1,3.2,0.4,4.7,0.8
	c14.9,5.5,30.5,8.9,46.3,10.3c1.8,0.2,3.8,0.3,5.3,1.2c6.8,4.2,14.8,4.5,22,7c0.9,0.2,1.8,0.5,2.6,0.8c4.4,2.7,8.5,6.8,13.2,7.9
	c5.5,1.3,9.7,3,13.1,7.5C992.4,681.2,994.9,680.9,996.8,681.2z M855.7,1112.4l1.5-0.1c0.5-1,1-1.9,1.5-2.8c3.8-7.2,5.8-8,13.7-5.8
	c2.6,0.8,5.3,1.2,8,1.8s4.5-0.1,5.3-2.9c1.1-3.7,4.5-6.2,8.3-6c4.5,0.1,6.6-2.2,8.9-5.1c2.6-3.3,6.3-5.4,10.2-3.8
	c4.1,1.6,7.8,4.5,11.2,7.3c2.4,2,3.9,5,6,7.4c3.8,4.4,3.8,5.1,1,10.2c-2.3,4.1-4.6,8.3-6.6,12.6c-1.6,3.2-2.9,6.6-4.2,10
	c-0.7,1.7-1.2,3.4-1.7,5.1c-1.2,3.4-2.3,6.8-3.5,10.2c-0.9,2.3-2.1,4.5-3.2,6.8c-1.3,3-2.6,6-4,9.2c3,13.6-1.4,25.9-9,37.4
	c-1,1.6-2.7,3.8-2.3,5.2c2.7,9.5-2.6,17.8-3.7,26.7c-0.4,3.5-2.5,7-3.3,11c-1,5.8-1.3,11.7-0.9,17.6c0.2,4.2,1.7,8.4,3.2,12.4
	c0.8,1.9,2.4,3.3,4.2,4.1c3.2,1.2,6.7,1.7,9.9,2.4c-0.2-3.1-1-6.5-0.4-9.6c1.1-6.3,2.9-12.4,4.6-18.5c1.3-4.8,2.2-10,4.6-14.3
	c5.9-10.8,12.2-21.4,21-30.3c1.4-1.4,2.3-3.4,3.6-5c3.6-4.6,6.8-9.7,11.2-13.6c3.1-2.7,6.4-4.9,8.3-8.8c0.9-1.7,2.8-2.9,4.2-4.4
	c4-4.1,9.2-7.5,11.6-12.3c4-8,12.3-11,17-18.5c2.8,3.6,5.6,6.4,9.6,4.6c5.8-2.7,13-4.2,13.5-13c5.1,0.2,7.7-3,10.1-6.5
	c0.9-1.3,1.9-2.6,3.1-3.6c4.4-3.6,9-6.8,13.4-10.5c2.9-2.4,5.4-5.3,8.3-8.3c1.7-0.7,4.2-1.3,6.1-2.6c2.3-1.8,4.4-3.8,6.2-6.1
	c1.2-1.1,2-2.5,2.6-4c2.8-9.7,11.3-15.9,14.8-25.2c1.5-3.8,3.3-7.4,5.4-10.8c3.8-6.2,8-12.2,11.8-18.3c1.5-2.5,3.3-5.2,3.7-8
	c1-7.2,5.2-13.1,7.9-19.5c3.2-7.7,8.2-14.7,7.3-23.6c0-0.7,0.2-1.4,0.5-2c3.1-9.7,3.3-19.7,2.5-29.8c-0.6-6.8-0.5-13.6-0.7-20.4
	c-0.1-3.8,0.2-7.7,0-11.5c-0.5-8.9-1.1-17.7-1.7-26.6c0-2.1-0.2-4.1-0.6-6.1c-2.9-11.2-4.4-22.9-9.7-33.4c-1.2-2.4-1.8-5.2-3-7.7
	c-4-8.2-7.7-16.6-12.2-24.5c-6.6-11.5-14.3-22.3-20.6-33.9c-6.9-12.8-16-23.7-25.2-34.7c-8.2-9.8-17-19-25.6-28.5
	c-4-4.4-7.7-9.1-12.2-12.9c-6.7-5.8-14.4-10.5-21-16.4c-11-10-24.8-15.3-37.3-22.5c-11.5-6.6-24.7-9.4-38.2-9.7c-2-0.1-4.1-0.4-6-1
	c-8.1-2.1-16.4-4-24.4-6.7c-18.7-6.1-37.9-4.8-57.1-4.3c-16.4,0.4-32.8,1.3-49.2,2.4c-7.7,0.6-15.4,1.7-23,3.2
	c-4.2,0.8-8.2,2.3-12.3,3.7c-2.3,0.8-4.6,1.8-6.9,2.8c-6.9,2.8-14.3,4.6-19.7,10.3c-1.7,1.8-7.9,2.4-9.5,0.3
	c-4.1-5.5-8.4-3.1-12.7-1c-8.8,4.3-17.6,8.6-26.2,13.4c-4.1,2.3-7.8,5.5-11.6,8.4c-6.1,4.8-12.1,9.6-18.2,14.4
	c-2,1.6-4.4,2.7-5.9,4.6c-10,12.9-23.2,23.2-31.6,37.5c-0.6,0.9-1.8,1.5-2.4,2.4c-4.6,5.9-9.6,11.6-13.5,17.9
	c-4.7,7.5-8.1,15.9-12.8,23.3c-8.8,13.8-16.6,28.3-23.2,43.3c-5.4,12.3-8.1,25.3-10.5,38.2c-2,10.4-0.4,21.2-2.9,31.9
	c-1.9,7.9-1.3,16.3-1.6,24.5c-0.5,17.8-0.5,35.6,3.6,53.2c0.8,3.5,0.1,7.4,1.2,10.8c3.5,11,8.1,21.8,11.3,32.9
	c2.6,8.7,7,16.8,12.9,23.8c5.8,7.1,11.7,14,16.8,21.6c3.5,5.1,7.5,9.7,12.1,13.8c5.5,5.2,10.8,10.5,15.9,16
	c8.5,9.2,16.9,18.5,27.5,25.5c7.8,5.1,15.3,10.8,22.6,16.6c5.7,4.6,11.3,9.2,18.6,11.2c1.5,0.4,3,1.1,4.2,2.1
	c8.3,6.8,16.6,13.5,24.6,20.5c3.2,2.8,7,5.8,8.7,9.5c4.6,9.3,8.5,19,11.6,29c2.1,7.1,2.9,14.7,5.2,21.9c1.7,5.4,2.1,11.2,3.5,16.7
	c3.1,12.2-0.1,19.5-11.3,25.2c-1.2,0.6-2.8,2.2-2.7,3.2c0.4,1.5,1.4,2.7,2.9,3.2c2.2,0.4,4.4,0.3,6.6-0.1c1.8-0.3,3.4-1.9,5.1-1.9
	c7.2-0.1,14.5,0.2,21.2-3c6.3,2.5,12.3-0.4,18.4-0.9c5.6-0.4,8.7-2.2,10-7.6c1.9-7.5,3.3-15.1,4.3-22.8c1-8.1,0.5-16.5,2-24.5
	c2.7-14.3-1.3-27.7-3.8-41.3c-2.2-11.8-4.9-23.6-7.4-35.3c0-0.2-0.1-0.5-0.1-0.7c-0.8-16.8-6.1-32.1-14.1-46.7
	c-3.2-5.7-1.2-9.3,5.3-9.4c2,0,4.1,0.5,5.9,1.3c5.7,2.3,5.7,2.4,9.6-1.8c5.1-5.5,11.5-6.5,17.9-2.8c1.4,0.8,2.7,1.8,4.1,2.6
	c4.1,2.3,6,1.7,8.1-2.6c0.4-0.8,0.6-1.7,1-2.6c2-4.6,3.5-5.6,8.4-5.2c2,0.1,4.1,0.6,5.9,1.4c7.4,3.4,14.7,7.3,22.2,10.5
	C852.6,1106.3,855.4,1108,855.7,1112.4z M806.7,1130.3c-3.3,2.7-5.2,5-7.7,6.1c-5,2.2-5.3,2.7-3.8,8c1.7,6.6,3.1,13.2,4.6,19.9
	c1,4.2,1.1,8.8,2.9,12.6c5.2,10.8,5.7,22.5,7.7,33.9c1.1,6.5,5.6,13.2,0.8,20c-0.2,0.3,0.1,0.9,0.1,1.3c0.1,10.2-0.7,20.4-2.4,30.5
	c-1.2,7.4-3.9,15-0.8,22.9c5.8,1.1,11.4,3.6,17.1-0.5c1.2-0.9,4-0.4,5.7,0.3c5.7,2.7,11.6-1.1,17.2,1.2c0.4,0.2,1.2-0.6,1.8-0.9
	c2.9-1.3,5.8-2.6,8.7-3.8c4.5-1.8,7-5.5,6-10.2c-1.4-6.8-1.8-13.3,0.4-20c1-2.9,0.3-6.3,0.4-9.4c0-1.5,0.2-3,0.6-4.5c0.9-3,2-6,3-9
	c0.8-2.6,1.6-5.2,2.3-7.8c0.8-2.8,1.9-5.6,2.2-8.5c0.9-9.1,3-18,6.4-26.4c4-9.7,7.2-19.6,9.8-29.7c2.2-9.3,3.6-19,8.3-27.1
	c3.9-6.7-0.3-10-2.5-14.8c-1,6.2-4.9,10.3-9.1,14.2c-0.8,0.8-1.5,1.7-2.1,2.7c-2.2,3.3-5.1,3.9-8.9,3.3c-5.7-0.8-9.9-3.9-13.8-8.2
	c-3.5,4.8-8.5,7.7-9.9,13.5c-0.3,1.2-2.1,2.5-3.5,2.9c-6.7,1.8-14.3-4.3-14.5-11.4c0-2,0.2-4.2-0.2-6.1c-0.4-1.6-1.7-2.9-2.6-4.3
	c-1.3,0.7-2.5,1.6-3.6,2.6c-1.8,2.1-3.2,4.5-4.9,6.6c-3,3.8-5.1,4.2-9.5,2.5L806.7,1130.3z M803.7,1490.7c-3.1,1.8-5.1,3.9-7.3,4.1
	c-7.9,0.7-15.9,0.7-23.3-3.1c-1.2-0.6-2.5-1.8-3.7-1.6c-5.4,0.6-10.8,1-16,2.5c-4.8,1.3-9,2.6-13.7-0.4c-3-1.9-5.7,0.6-7.8,2.6
	c-1,1.2-1.3,2.7-1,4.2c0.6,2.8,3.1,4.7,6,4.6c1.7,0,3.8,0.3,5.1,1.3c5.6,4.7,14.4,3.6,18.6,10.7c0.1,0.2,0.4,0.2,0.6,0.2
	c4.7,0.9,9.3,2.2,14,2.6c6,0.6,12.1,0.4,18.2,0.8c2,0.2,4,0.6,6,1.2c2.2,0.6,4.4,1,6.7,1.3c13,0.9,25.9,1.7,38.9,2.4
	c1.6,0,3.2-0.2,4.7-0.6c3.3-0.6,6.7-1.2,10-1.7c4-0.7,8.5-0.5,12-2.2c7.1-3.3,14.6-3.4,22-4.6c8.2-1.3,15.8-3.7,22.1-9.7
	c2.9-2.8,6.7-4.7,10.2-6.8c2.4-1.4,4.4-2.9,5-6.7c-2.9,0.3-5.4,1-7.7,0.7c-1.6-0.2-3.7-1.3-4.3-2.6c-0.5-1.7-0.2-3.5,0.8-4.9
	c2.6-3.2,5.4-6.2,10.5-4.1c1.4,0.6,4.2-0.2,5.5-1.4c2.7-2.7,5.2-5.7,7.5-8.8c3.7-4.7,3-9.6,0.4-15.3c-8.1,3-16.5,4.4-23.5,9.4
	c-1.2,1-2.7,1.7-4.2,2.1c-8.1,1.1-14.5,5.1-19.7,11.3c-1.8,2.2-4,3.7-7.2,3s-5.6,0.8-8.2,2.5s-5.8,3.6-8.6,3.3
	c-4.2-0.4-6.9,1.6-9.9,3.6c-2.6,1.7-5.3,4.3-8.2,4.6c-10.2,1-20.4,1.2-30.7,1.6c-1.8,0.1-3.7-0.6-5.4-0.2
	C811.8,1497.8,806.7,1497.1,803.7,1490.7L803.7,1490.7z M765.4,1442c-5.3,10-12.6,3.3-19.1,3.4c-2.4-3.8-5.9-3.2-9.6-2.8
	c-2.1,0.1-4.1-0.1-6.1-0.7c-7.2-1.4-14.3-2.8-21.4-4.3c-2.3-0.5-4.7-0.9-6.1,1.6s-0.8,4.9,0.9,7c3.9,4.7,7.9,9.4,12,14
	c0.5,0.5,1.1,0.9,1.7,1.1c6.5,2.4,12.5,5.8,19.7,7c13.4,2.2,26.7,4.1,40.2,2.5c14.2-1.7,27.6,0.8,41.1,4.4c3.9,1.1,8.2,2.5,12,2
	c8.2-1,16.6-1.7,24.2-5.7c2.5-1.2,5.1-2.1,7.7-2.7c11.4-2.6,20.7-8,26.4-18.5c0.3-0.6,0.6-1.2,1-1.8c2.3-3.5,3.1-3.6,6.3-1
	c1,0.8,2.4,2.1,3.2,1.9c6.2-2,13.3-2.1,18.4-6.7c7.6-6.9,17-10.4,26.2-14.2c1.4-0.6,3.4-1.6,3.5-2.6c0.5-2.9,0.4-5.9-0.3-8.8
	c-0.3-1.2-2.7-2.7-4-2.7c-3.6,0.2-7.2,0.3-10.2,3c-6.3,5.6-15.6,4.3-22.2,9.5c-0.3,0.2-0.9,0.1-1.3,0.1c-3.7,0.2-7.3,0.6-10.9,0.7
	c-3.9,0.1-7.1,1.1-7.7,4.9c-3.1,0-5.5-0.3-7.9,0.1c-6.6,1-12.1,6.3-19.4,4.7c-0.7-0.2-1.5,0.9-2.4,1.2c-2.6,0.8-5.1,1.6-7.7,2.2
	c-1.8,0.4-3.9,0-5.3,0.8c-3.8,2.2-7.4,1.4-10.8-0.3c-4.5,5-7.3,6.1-13.4,5.8c-1.6-0.1-3.2-0.1-4.8,0.2c-9.6,1.8-19.2,3.8-29.1,3.5
	c-4.1-0.1-7.9,1-11.7-1.8c-1.3-1-3.9-0.5-5.9-0.4C767.4,1449.1,766.9,1448.7,765.4,1442z M712.3,1312.2c0.6,1.2,1.3,2.2,2.1,3.2
	c5.1,4.9,12,5.6,18.2,6.3c10.5,1.2,20.8,3,30.7,6.4c7.4,2.6,14.7,4.6,22.6,4.6c9.8,0,19.5,0.3,29.3,0.6c1.1,0,2.2,0.5,3.4,0.6
	c2.7,0.2,5.4,0.3,8.1,0.4c4.8,0,9.6-0.4,14.3,0c7.3,0.6,14.5,1.5,21.6-1.7c1-0.4,2.2-0.2,3.4-0.3c6.2-0.5,12.5-1.1,18.7-1.7
	c0.4-0.1,0.9-0.3,1.3-0.5c8.3-2.8,16.6-6,25-8.4s16.2-6.2,21.8-13.3c2.6-3.3,2.6-4.2-0.3-7.6c-0.3-0.4-1.2-0.3-1.7-0.4
	c-1,1.8-1.9,3.4-2.8,5c-2.5-6.2-3-13.1-11-14.5c-3.9,5.5-5.4,6-11.2,3c-4.9-2.5-9.6-3.4-15-1.3c-3.5,1.3-7.5,2.7-11.3,0.4
	c-6.9-4.1-15-0.3-22.1-3.1c-0.7-0.1-1.4,0.1-1.9,0.6c-2.5,2.6-5.7,2.4-8.9,2.7c-7.7,0.8-15.4,1.5-23.1,2.6c-4.7,0.7-9.3,2.4-14,2.6
	s-7.9,1.8-9.7,6.1c-2.5,5.9-4.8,11.8-7.3,17.7c-1.9,4.4-4.6,5.9-9.3,4.7c-2.2-0.5-4.7-1.2-6.2-2.7c-6.3-6.4-13.9-8.8-22.5-8.7
	c-0.2,0-0.4-0.2-0.6-0.2c-1.7-0.1-3.5-0.1-5.2,0.1c-9.3,1.8-18.5,3.1-26.6-4.1C719.3,1308.8,715.9,1309,712.3,1312.2z M894.5,1388.5
	c-1.9,1.8-3.4,4.4-5.5,4.9c-6.6,1.7-13.3,2.9-20.1,3.6c-8.5,0.9-17.1,1.2-25.7,1.6c-3.8,0.2-7.7-0.4-11.5-0.4
	c-6.8,0-13.7-0.5-20.3,0.6c-7.2,1.2-14.2,2.6-21.6,1.6c-6.3-0.9-12.8-0.8-19.1,0.2c-10.7,2-20.7-0.9-30-4.5
	c-11.8-4.5-24.1-5.8-37.1-8.9c0.4,1.7,0.9,3.4,1.5,5.1c1.2,2.6,3.1,5.1,3.7,7.8c1.5,6.7,4.9,11,11.9,12.2c1.3,0.2,2.5,1.2,3.8,1.6
	c8.8,2.4,16.5,9.2,26.5,7.2c0.7-0.1,1.4,0,2,0.4c6.6,3.9,14,4.1,21.2,4.6c10.9,0.7,21.8,1,32.7,1.2c4.5,0,9.2-1.6,13.6-1
	c6.3,0.8,12.1-0.8,18-2.2c1.3-0.3,2.7-0.6,4-0.8c11.3-1.4,22.8-1.6,33.3-6.7c1.5-0.5,3.1-0.9,4.6-1.2c4.7-1.1,9.3-2.3,13.9-3.4
	c4.4-1.1,8.8-2.7,13.3-3.2c13.7-1.6,22.5-10,29.9-20.4c2.2-3.2,2.3-6.7,0.4-10.6c-1.4,0.4-2.7,0.8-4,1.4c-4.9,2.4-9.8,4.8-15.7,4.1
	c-1.1-0.1-2.5,0.9-3.6,1.6C908.7,1388.4,902.2,1390.1,894.5,1388.5z M936.4,1333.2c-2.7,1.1-4.2,1.4-5.5,2.2c-3.1,1.9-6,4.2-9.1,6
	c-3.7,2.1-7.6,3.9-11.5,5.7c-3.7,1.7-7.4,3.3-11.2,4.8c-2.3,1-4.7,1.7-7,2.7c-7.1,3.1-13.9,7.2-22,6.7c-9.6-0.5-19.1,0-28.6,1.6
	c-2,0.2-4.1,0.1-6.1-0.1c-5-0.3-10-1-15-1c-5.7,0-11.4,1.2-17,1.1c-8-0.1-15.9-0.8-23.9-1.3c-7.5-0.5-14.9-2.3-21.8-5.3
	c-6-2.6-12.3-5.4-18.7-6.3c-10.2-1.6-20.2-3.4-29.5-8c-0.6-0.3-1.6,0.2-3.1,0.4c0.9,1.8,1.4,3.3,2.1,4.6c2.3,3.9,5.1,7.6,6.9,11.7
	c2.9,6.5,5,7.9,12.2,8.6c5.9,0.6,11.7,1.6,17.4,3c6.2,1.4,12.2,4.1,18.4,4.9c9.7,1.2,19.5,1.1,29.3,1.6c3.2,0.2,6.4,0.1,9.6,0.6
	c8.7,1.2,17.2,1.3,25.8-1c3.4-0.9,7.2-0.5,10.8-0.6c1.8,0,3.6,0.4,5.4,0.3c13.4-0.5,26.8-1.1,40-3.4c8.3-1.5,16.6-2.7,24.8-4.6
	c3.8-0.9,7.4-2.5,10.6-4.7c3.7-2.6,6.9-5.8,9.5-9.5c2.6-3.9,4-8.7,5.7-13.2C935.8,1338.5,935.8,1336.4,936.4,1333.2z M759.1,1545.4
	c7.4,10.6,15.1,13.2,26.8,10.7c5.3-1.2,10.8-1.5,16.2-1c12.3,1.1,24.5,2.4,36.6-1.2c1.7-0.5,3.7-0.1,5.5-0.4
	c10.8-1.8,21.6-3.7,32.3-5.7c2.7-0.5,4.4-2.2,3.3-6.2c-3,0.5-6.2,0.3-8.5,1.6c-6.3,3.8-12.3,3.8-17,1.1c-5,1.2-8.7,3-12.2,2.6
	c-10.2-0.9-20.3,0.8-30.4,0.6c-6.2-0.1-12.3-0.5-18.4-1.4c-7.4-1.1-14.7-2.6-22-4.3C766.7,1540.9,762.9,1542.3,759.1,1545.4z
	 M758.2,1305.2c9.4,5.8,9.4,5.8,13.8-0.3C767.5,1303.8,763.3,1300.8,758.2,1305.2z M902.8,1535.5c-7.3-1.6-8.6-0.6-7.9,5.2
	C898.8,1541.3,901.1,1539.5,902.8,1535.5z M736.1,1307.6c2,1.3,3.1,2.6,4.3,2.8c1,0.2,2.9-0.8,3.1-1.5c0.6-2.3-1.3-3.2-3.2-3.1
	C739.2,1305.7,738.1,1306.6,736.1,1307.6z M889.5,1543.5l0.3-1.9l-4.1-0.2l-0.1,1.5L889.5,1543.5z"/>
<path class="st0" d="M1458.6,1326.2c2.4,0.6,3.1,2.2,3.2,4c0.3,4.1,0.6,8.2,0.6,12.3c0.1,3-1.6,5.9-4.3,7.2c0,0.6,0.2,1.2,0.4,1.8
	c1.6,2.8,1.6,5.8,1,8.9c-0.7,3.7,0.3,4.7,4,4.8c2.2,0.1,4.4-0.5,6.4-1.6c2.1-1,4.3-1.6,6.7-1.8c2.7-0.3,5.3-0.4,8-0.4
	c1.3,0,3,0.2,3.9,1c2.9,2.5,6.1,1.6,9.3,1.4c1.3-0.1,2.6-0.7,3.8-0.5c3.2,0.7,6-0.3,9-0.8c2-0.4,4.1-0.5,6.2-0.4
	c6.3,0.5,12.7,0.7,18.9-0.5c2.6-0.5,5.1-0.8,7.6,0.4c0.6,0.3,1.4,0.3,2,0c1.9-1.3,4-1.1,6.1-0.9c0.6,0,1.3,0.1,1.7-0.2
	c2.2-2,5-1,7.4-1.3c3-0.3,3.8,0.7,3.8,3.9c-0.1,0.7,0,1.4,0.2,2.1c1.1,2.7,0.7,5.2-0.1,7.9c-0.6,1.9-0.4,3.9-0.5,5.9
	c0,1.6-0.2,3.3-0.6,4.9c-0.4,1.1-1.2,2-2.1,2.5c-1.8,0.9-3.6,1.7-5.4,2.4c-0.4,0.2-1,0.4-1.2,0.7c-1.3,3-4.2,2.7-6.6,3.2
	c-3.6,0.6-7.2,0.9-10.8,1.3c-0.5,0.1-1.1,0.2-1.4,0c-3.8-2.5-7.8-0.3-11.6-0.1c-7.3,0.4-14.6,2.2-22,1.9c-1-0.1-2.1,0-3.1,0.5
	c-2.7,2-5.8,1.8-8.8,2.2c-6.4,0.8-12.8,1.1-19.2,2c-2.4,0.4-4.8,0.5-7.3,0.3c-4.7-0.5-6.6,1.9-5.9,6.6c0.3,3.2,0.4,6.5,0.3,9.8
	c0.1,3.1-0.2,6.3,0.2,9.4c0.2,1.6,0,3.2-0.6,4.6c-0.6,1.4,0,3.2,0,4.8c0,5.7,0,11.5,0.1,17.2c0.1,4.1,0.8,8.2-0.6,12.2
	c-0.3,0.9,0.2,2.1,0.3,3.1c0.3,2.1,0.6,4.2,0.9,6.3c0.3,2.1-0.3,4.3-1.7,5.9c-1.2,1.6-1.7,3.6-1.3,5.6c0.3,3.3,0.3,6.6,0.2,9.9
	c0,0.9-0.2,1.9-0.7,2.6c-2.6,2.9-2.4,6.5-2.7,10c-0.2,2.7-0.7,5.3-1,8c-0.3,2.2-1.7,3.2-3.8,3.5c-0.7,0.2-1.4,0.2-2.1,0.2
	c-5.8-1.1-11.1,1.1-16.6,2.1c-1.2,0.3-2.5,0.6-3.8,0.7c-3,0.2-5.6-2-5.8-5c0-0.1,0-0.2,0-0.3c-0.7-8.8-0.6-17.6,0.4-26.3
	c0.1-0.6,0.1-1.2,0-1.8c-1.3-8-0.5-16.1-0.1-24.1c0-0.9-0.1-1.9-0.1-2.8c0-1.8,0-3.5,0.1-5.2c0.2-0.8,0.3-1.6,0.3-2.4
	c-0.9-6.4,0.9-12.6,1.3-18.9c0.1-0.6,0.1-1.2,0-1.8c-1.4-7.3-0.9-14.7-1.1-22c0-1.2,0.2-2.3,0.4-3.5c0.5-3.5-0.6-4.5-4.1-4.1
	c-0.7,0.1-1.4,0.2-2.1,0.4c-4.8,1.8-9.9,1.4-14.9,1.8c-3.7,0.3-7.3,1.3-11,1.8c-4.6,0.6-9.1,2.3-13.8,2.1c-1.4,0.1-2.8,0.3-4.2,0.6
	c-5.9,1.1-11.8,2.2-17.6,3.2c-0.9,0-1.9-0.1-2.7-0.4c-3.3-0.9-6.5-1.9-9.8-2.8c-2.8-0.8-3.6-3.2-4.1-5.7c-0.8-4.3-1.5-8.6-2.2-12.8
	c-0.3-2-0.8-3.8-2.8-5c-1.5-0.8-1.6-2.1-0.2-3.1c2.5-2,3.5-4.7,4.3-7.4c0.4-1.7,1.8-2.9,3.5-3c4.8-0.6,9.5-1.3,14.3-1.6
	c5.1-0.4,10.3-0.5,15.4-0.7c0.7-0.1,1.4,0,2.1,0.1c4.8,1.4,9.5,0.5,14.3,0c1.9-0.2,3.8-0.1,5.6-0.2c2.4,0,4.9,0,7.3-0.1
	c4.3-0.2,8.7-0.5,13-0.6c2.3,0,4.7-0.5,6.8-1.3c1.9-0.7,3-1.9,2.9-3.9c-0.2-7,1.2-14-0.4-21c-0.3-1.5-0.3-3-0.1-4.6
	c0.7-6.5,0.7-13.1,0-19.7c-0.5-5.8-0.2-11.7-0.4-17.6c-0.1-3.1-0.6-6.2-0.9-9.3c-0.1-0.9-0.2-1.9-0.3-2.8c0-4.6-0.1-9.2-0.1-13.8
	c0-1.5,0.4-3,0.6-4.5c0.1-1,0.1-2,0-3.1c-0.4-3.2,0.4-4.9,3.6-5.1c6.1-0.4,11.9-2.8,18-2.1c1.6,0.2,3.2-0.6,4.8-0.6
	c2.3,0,4.8-0.2,6.9,0.5c2.8,0.9,4.7,3.5,4.8,6.4c0.1,1.7-0.1,3.3,0.1,4.9c0.3,2,0.4,4.1,1.4,5.7c1.6,2.7,1.5,5.4,1.1,8.2
	c-0.3,2.3-1.2,4.5-1.6,6.8c-0.3,1.8-0.9,3.7,1.6,4.8c0.5,0.2,0.8,1.4,0.8,2.1c0,4.6,0,9.1-0.3,13.6
	C1459.9,1319.4,1459.2,1322.6,1458.6,1326.2z"/>
<path class="st0" d="M1156.3,1322.3c-0.8-3.3-1.8-6.9-2.4-10.6c-0.5-3,0.2-6.1-0.9-9c-0.4-1,0.4-2.3,0.3-3.4
	c-0.4-3.1,0.8-6.3-0.7-9.5c-1-1.9-0.2-4.2,1.7-5.2c0.1-0.1,0.2-0.1,0.3-0.2c1.1-0.5,0.9-1.7,0.6-2.8c-0.9-3.4-0.2-4.2,3.3-4.1
	c1.7-0.1,3.4-0.3,5.1-0.6c0.8-0.2,1.6-0.3,2.4-0.4c4.3,0.1,8.6,0.5,12.9,0.4c2.7-0.1,5.3-1,8-1.3c3.7-0.4,4.9,0.9,4.8,4.6
	c-0.1,1.9-0.4,3.7-0.4,5.6c-0.1,2.6-0.1,5.1-0.1,7.7c0.1,0.5,0.1,0.9-0.1,1.4c-2.5,5.1-0.5,10.5-1.1,15.8
	c-0.9,8.1-0.6,16.4-0.9,24.6c-0.2,4.4-0.4,8.9-0.6,13.3c0,0.9,0,1.9,0,2.8c0.2,3.4,0.4,6.8,0.5,10.2c0.3,6,0.5,12,0.8,17.9
	c0.1,2.2,0.7,2.5,2.9,2.3c6.2-0.6,12.4-1,18.5-1.8c3.5-0.4,6.8-1.4,10.3-2.1c1.3-0.4,2.7-0.5,4.1-0.4c4.1,0.9,8.4,0.7,12.4-0.5
	c0.3-0.1,0.8-0.2,1-0.1c2.7,2.3,5.9-0.1,8.7,1c0.7,0.2,1.4,0.2,2.1-0.1c3-1.6,6.2-1,9.3-1.3c2.1-0.2,4.1-0.8,6-1.7
	c3.5-1.7,9.2-1.4,12.3,0.9c1,0.8,2.2,1.3,3.4,1.5c1.5,0.2,2.9,1.2,3.5,2.6c1.8,3.7,3.2,7.5,3.4,11.8c0.1,1.3,0.9,2.6,1.3,3.8
	c0.8,1.8,1.5,3.7,2,5.6c0.4,1.5-0.4,3.1-1.9,3.5c-0.2,0.1-0.4,0.1-0.6,0.1c-4.4,0.8-8.8,1.7-13.2,0c-2.3-0.8-2.7-0.6-3.8,1.6
	c-0.6,1.2-1.7,2-3,2.1c-3.4,0.7-7,0.6-10.4-0.2c-0.8-0.2-1.6-0.3-2.4-0.3c-2.6,0.1-5.2,0.3-7.7,0.4c-4.2,0.2-8.4,0.3-12.6,0.7
	c-5.5,0.4-11,0.9-16.5,1.3c-1.3,0.2-2.6,0.2-3.9,0.1c-4.9-0.7-9.8,0.1-14.7,0.6c-2,0.2-4,0-6,0.1c-3.6,0.2-5.1,1.6-5.3,5.2
	c-0.1,2.3,0.1,4.7-0.1,7c-0.2,3.3-0.9,6.5-1,9.8c-0.1,3.4,0.1,6.8,0.6,10.1c0.6,3.2,0.7,6.5,0.5,9.8c-0.3,2.5,0.4,5.1,0.5,7.7
	c0,5.6,0.4,11.3,1.1,16.8c0.4,2.9-0.4,6-0.9,9c-0.6,2.5-0.5,5.1,0.1,7.6c1.2,3.8,0.7,7.9,0.3,11.9c0,0.5-0.2,0.9-0.4,1.3
	c-2.7,2-0.8,4.5-0.6,6.8c0.1,0.7,1.2,1.3,2,1.7c1.3,0.7,3,1,2.9,3c-0.2,2.3-1.9,4.6-3.8,5c-2.4,0.6-4.8,1-7.2,1.3
	c-2,0-4-0.3-5.8-0.9c-1.2-0.4-2.2-0.7-3.3,0.2c-1.3,1.1-2.8,0.9-4.3,0.7c-1.8-0.2-3.7-0.2-5.6,0c-3.6,0.4-8-2.7-8.3-6.4
	c-0.6-6.7-0.2-13.4,1.2-19.9c0.1-0.7,0.6-1.4,0.4-2c-1-3.4,0.2-6.7,0.2-10.1c0-3.7,0-7.5-0.1-11.2c0-1-0.3-2.1-0.2-3.2
	c0.5-6.2-0.3-12.3-0.1-18.5c0.1-3.6,0.3-7.3-1.1-10.8c-0.2-0.4-0.3-0.9-0.2-1.4c1-6.9-1.8-13.7-0.4-20.7c0.1-0.8,0-1.6-0.3-2.4
	c-0.6-2.1-1.2-2.4-3.3-2c-3.2,0.6-6.4,1.3-9.7,1.8c-2.5,0.3-5.1,0.4-7.7,0.4c-6.7-0.1-13.3,0.9-19.9,1.9c-1.7,0.1-3.5,0.1-5.2,0
	c-0.8-0.1-1.6-0.1-2.4,0c-6.8,1.2-13.8,1.3-20.7,0.4c-3.2-0.3-6.3-0.3-9.5-0.1c-2.6,0.1-2.9,0.4-3.5,3c-0.7,3.1-1.9,4.4-4.1,4.5
	c-2.8,0.2-5.1-0.9-5.6-3.7c-1-5.1-3.7-10-2.4-15.4c0.1-0.5,0.1-0.9,0-1.4c-1.6-4.1,0.7-7.2,2.7-10.4c1.1-1.8,2-3.7,2.8-5.6
	c1.3-3.6,2.6-4.7,6.4-4.8c1.3,0,2.6,0.1,3.8,0.3c3.7,0.3,7.5,0.7,11.2,1c4,0.4,8,1,12.1,0.1c1.2-0.1,2.3,0,3.5,0.3
	c4,0.6,7.9,1.6,12,0.4c1.8-0.3,3.7-0.5,5.6-0.5c0.3,0,0.7,0,1-0.1c5.6-2.2,11.7-1.9,17.5-2.9c0.3-0.1,0.7-0.1,1,0
	c3.3,1.7,6.6,0.4,9.9,0c3.6-0.4,4.4-1.4,4.4-5c0-1.9,0-3.8,0-5.6c-0.1-0.7,0-1.4,0.1-2.1c2.5-5,0.5-9.7-0.8-14.5
	c-0.5-1.7-0.9-3.4,0.3-5.1c0.4-0.5,0.6-1,0.6-1.6c-0.2-3.1-0.7-6.2-0.9-9.3c-0.1-2.5,0-5.1,0.1-7.6s0.2-4.9,0.5-7.3
	C1155.4,1326.1,1155.8,1324.4,1156.3,1322.3z M1158.9,1356c-1.3-0.8-2.4-0.8-3.1,0.5c-0.1,0.3,0,0.7,0.3,0.9
	C1157.3,1358.1,1158.2,1357.6,1158.9,1356L1158.9,1356z"/>
<path class="st0" d="M4239.4,721c0.8-13,1.6-24,2.1-35c0.3-6.8,0.1-13.7,0.2-20.5c0.1-12,4.1-22.4,10.3-33
	c12.1-20.6,22.2-42.3,33.5-63.4c9.3-17.3,20.9-32.8,37.7-43.8c0.9-0.4,1.7-0.9,2.5-1.5c26.9-28.6,59.5-20.9,91.6-13.6
	c8.2,1.9,16,7.2,23.1,12.1c3.4,2.7,5.6,6.6,6.1,10.9c1,14.6,3.6,29.1,4.8,43.4c2,24-0.9,48.5-1.8,72.7c-0.2,7.2-0.6,14.5-0.9,21.7
	c-0.1,2.4,0.5,5.2-0.4,7.2c-6.8,14.8-2.1,30.5-3.7,45.7c-0.9,8.5,1.5,17.4,2.4,26.1c0.5,4.8,0.8,9.6,1.3,14.4
	c0.4,4.3,0,8.9,1.6,12.7c2.2,5.3,1.6,9.1-2.1,13.3c-5,5.7-9.6,2.2-14.7-0.4c-3,4-5.4,8.2-8.8,11.5c-8,7.6-18.1,5.6-23-4.3
	c-3.6-7.4-6.9-14.9-10.1-22.4c-3.8-8.7-9.3-10.3-15.1-2.5c-7.4,9.9-17.7,13.4-28.2,17.1c-8.3,3-16.9,5-25.6,0.5c-2-1-5.2-1.8-7-0.9
	c-16.6,8.8-28.9-3.9-42.5-8.5c-6.9-2.3-11.7-8.1-14-15.9c-1.8-6-5.2-11.5-8.1-17.2c-5.5-10.7-8.2-11-18.8-1.4
	c4.1,7.9,7.9,16.2,12.6,24c4.8,8,3.9,18.8-3.8,24.2c-7.1,5-14.7,9.8-22.7,13c-16.2,6.5-34.7-1.3-41.2-17.5
	c-1.4-3.5-2.2-7.1-2.3-10.8c-1.5-37.2-5.9-74.2-16-109.7c-5.5-19.1-11-38.2-16-57.5c-1.8-7.1-7.5-13.2-12.3-21.3
	c-11,10.2-15.6,21.7-20.3,33.3c-6.6,16.2-5.1,33.6-7.8,50.4c-2.9,18.1-2.1,36.9-10,54.2c-2,4.5-2.6,9.4-1.7,14.2
	c2.3,9.4-0.3,17.3-4.9,25.1c-1.7,2.9-4,6.2-4.1,9.3c-0.3,11.6-8,18.2-15.2,25.7c-8.7,9.1-19,9.7-29.7,5.7
	c-10.4-3.9-16.6-12-17.3-23.3c-0.5-8.3-0.1-16.6-0.4-24.9c-0.5-12.1-2.2-23.9-9.6-37.3c-2.3,5.8-3.6,9.1-4.9,12.4
	c-2.1,5.5-3.1,11.6-6.3,16.2c-8.1,11.6-16.8,22.8-25.9,33.5c-2.9,3.5-7.9,5.4-12.2,7.4c-8.3,3.8-16.9,7.1-25.3,10.8
	c-6.6,2.9-13.1,6.2-19.7,9.1c-9,4-17.8,3.7-26.9-0.7c-4.8-2.3-10.3-2.9-15.4-4.5c-9.5-2.9-18.4-6.6-23.9-15.7
	c-1.5-2.5-3.2-5.4-5.6-6.6c-12.4-6.5-17.4-19.5-25.4-29.5c-9.8-12.2-10.8-28-12-43.2c-0.9-10.7-0.7-21.4-2.2-32
	c-1.2-8.5-1.6-16.4,1.9-24.4c1-2.2,1.6-4.6,1.6-7.1c0-16.8,7.4-30.7,16.3-44.3c3.9-6,6.7-12.9,9.4-19.7
	c4.4-11.2,11.1-18.7,23.8-21.2c7.8-1.6,15.2-6.3,22.1-10.5c5.6-3.5,10.8-5.5,17.7-5.2c13.5,0.7,27.2,0,40.7-0.1c2.9,0,6-0.8,8.7-0.1
	c12.1,3.4,24.1,7.3,36.1,11.1c1.8,0.6,4.5,1.8,4.7,3.1c2.1,14.3,20.2,20,19.2,35.9c0,0.5,1.4,1,4,2.8c1.1-3.8,2.5-7,3-10.3
	c2.4-15.6,6.8-19.4,21.9-18.8c3.9,0.2,7.8,0.1,11.6-0.5c12.2-2,24.1-3.4,27.4,16.8c8.4-18.1,15.4-32.2,21.6-46.5
	c5-11.5,14.1-16.8,25.4-20.1c16.7-4.9,32.9-1.5,49.1,2.6c6.7,1.7,9.2,7.2,9.8,13.3c2.5,28.2,18.5,50.9,30.2,75.4
	c3.3,6.8,5,14.5,6.6,22c3.6,17.6,6.8,35.3,10,53.1c1.2,6.2,1.9,12.4,2,18.7C4228,713,4230.8,717.1,4239.4,721z M3870.7,707
	c-3.4,22.8,8,40.7,20.3,57.6c7.6,10.4,18.2,8.8,26.6-1.8c2.7-3.4,5.3-7.6,9-9.4c8.7-4.2,9.4-11.2,10-19.4
	c1.8-25.3,2.6-50.8,6.9-75.6c3.9-22-1.7-41.6-8.1-61.5c-3-9.5-11.8-13.1-20.6-14.3c-8.6-1.2-16.2,2.1-21.3,10s-11.1,14.9-15.5,23
	c-5.3,9.6-14.9,17.2-14.8,29.6c0.1,15-5,30.4,4.6,44.9C3870.7,694.4,3869.8,701.2,3870.7,707z M4375.9,545.7
	c-12,5.2-19.1,12.5-22.7,21.3c-4.1,10.2-11.5,16.7-19.3,23.2c-5.6,4.6-8.6,10-10.4,17c-4.5,17.4-9.6,34.7-14.9,51.9
	c-4.9,16-5.2,31.5,1.9,47c1.9,4.2,2,9.3,2.1,14.1c0,8.4,3.7,16.4,10.2,21.8c7,6.2,9.8,6,17.9,0.8c9.3-5.9,17.4-12.5,20.5-23.8
	c0.9-3.1,3.4-5.9,5.5-8.5c7.4-9.2,10.6-19.6,10.1-31.3c-0.7-17.1-1.7-34.1-1.7-51.2c0-21,1.1-42,1.5-63
	C4376.8,559.1,4376.2,553.4,4375.9,545.7L4375.9,545.7z"/>
<path class="st0" d="M1614.7,1438.7c0.3-4.9,0.7-9.7,0.9-14.6c0.3-6,3.2-10.1,8.1-13.6c6.1-4.5,13.4-7,20.9-7.2
	c2.6,0,5.2,0.3,7.7,0.9c1.2,0.2,2.2,1.2,3.3,1.9s2.1,1.4,3.1,2.2c2.7,1.8,4.3,4.7,5.6,7.5s1.8,6.1,4.8,8c0.5,0.5,0.8,1.2,0.7,1.9
	c-0.3,2.4,1,4,2.6,5.5c1.3,0.9,2,2.3,2.1,3.9c0,0.3,0.1,0.8,0.3,1c3.3,2.3,2.8,7.2,6,9.6c0.8,0.6,1,2.1,1.3,3.2
	c0.6,2.2,1.3,4.5,1.7,6.8c1.3,7,3.6,13.9,2.5,21.2c-0.3,2-0.6,4-1,5.9c-0.5,2.2-0.3,4.5,0.4,6.6c1.2,3.4-0.3,6.7-0.6,10.1
	c-0.1,1.7-0.3,3.5-0.6,5.2c-0.8,4.5-1.7,8.9-2.6,13.4c0,0.4-0.2,0.7-0.4,1c-4.1,4.6-4.1,10.6-5.1,16.2c-0.5,3.9-2.1,7.6-4.6,10.7
	c-2,2.4-3.1,5.7-4.3,8.7c-0.5,1.7-1.4,3.2-2.7,4.3c-1.3,1.1-2.2,2.7-3.3,4.1c-2.3,2.6-4.7,5.2-7,7.8c-0.9,1-1.7,2-2.4,3
	c-1.7,2.3-3.5,4.4-6.4,5.3c-0.8,0.2-1.6,0.6-2.2,1.1c-3.1,2.9-7.1,3.3-10.9,4.3c-2.7,0.8-5.6-0.5-6.8-3c-0.7-1.5,0.1-2.5,0.9-3.5
	c2.4-2.7,4.7-5.5,7.3-8.1c5.5-5.5,10.3-11.6,14.4-18.2c2.1-3.3,4.7-6.4,7-9.7c0.4-0.4,0.7-0.9,1-1.5c2.8-7.8,5.6-15.6,8.2-23.5
	c0.6-1.8,0.7-3.7,0.2-5.5c-0.9-3.3-1.1-6.7-0.5-10.1c0.2-1.3,0.2-2.6-0.2-3.8c-1.4-3.8-2-7.8-1.7-11.8c0.2-4.8-1.4-9.2-2.5-13.8
	c-1-4-2.1-7.9-3.2-11.9c-0.2-0.8-0.6-1.5-1-2.2c-0.9-1.5-1.8-3-2.7-4.5c-1.1-2.3-3.8-3.2-6.1-2.2c-2.4,0.9-4.8,1.7-7.1,2.8
	c-3.8,1.7-8,2.5-12.1,2.2c-4.4-0.3-11.4-7-12.4-12.2c-0.3-1.7-0.6-3.5-0.8-5.2L1614.7,1438.7z"/>
<path class="st0" d="M4156.6,1111.7c0.9,7.1,2,12.3,2.1,17.6c0.1,4.7,1.2,8.1,5.1,11.2c10,8.2,11,22.5,3.6,32.4
	c-2,2.7-2.5,7-2.3,10.5c0.2,3.3,2.3,6.5,3.8,9.6c3.3,7.2,7.2,9.3,14.4,6.2c15.8-6.9,31.3-14.6,47.1-21.7c5-2.3,10.5-4.5,15.9-4.9
	c12.9-1.1,26-0.9,38.9-1.5c6.4-0.3,12.7-1.3,19-1.9c2.5-0.2,5.3-0.7,7.7-0.1c15.6,3.7,29.9,9.3,37.3,25.5c1.2,2.7,4.6,5.1,7.5,6.3
	c6.6,2.6,9.2,7.3,9.5,14c0.2,5.6,0.2,11.2,0.9,16.8c0.5,3.7,2,7.3,3.1,10.9c1.2,4.1,2.5,8.1,3.9,12.1c5.4,15-3.1,27.8-7.2,41.1
	c-1.4,4.6-6.9,9.4-11.6,11.1c-7,2.6-9.9,6.4-9.6,13.3c0.4,9.1-0.9,17.3-9.5,22.7c-1.3,0.8-2.1,2.7-2.8,4.2
	c-4.1,9.9-8.1,19.8-12.3,29.7c-1,2.4-2.2,5.1-4.1,6.5c-4.5,3.3-7.2,6.8-6.1,12.9c0.4,2.1-1.5,4.9-3.1,6.8c-4.9,6-9.8,11.9-15.2,17.4
	c-3.1,3.2-7.2,5.5-10.9,8.2c-1.4,1-3.7,1.6-4.1,2.8c-3.3,10.2-12.7,14.5-20.4,19c-9.5,5.6-18.5,14.2-31.3,12.2
	c-5.3-0.8-9.3,1.6-13.7,5.5c-5.4,4.9-13.3,6.8-19.3,11.2c-6.8,5-13.4,4.9-20.8,2.3c-2.1-0.6-4.3-0.6-6.4,0
	c-4.2,1.4-7.3,0.6-10.4-2.8c-8-8.8-17.4-9.4-28.3-5.3c-16.4,6.1-25.5,0.7-29.3-16.5c-1.3-5.5-1.9-11.1-1.6-16.7
	c3.2-46.2,6.3-92.3,10.5-138.4c1.8-20.3,3.3-40.4,2.5-60.8c-0.5-13.3,1.5-26.7,1.7-40.1c0.2-7.7-0.7-15.5-1.3-23.2
	c-1-12.5-2.1-25-3.5-37.4c-1-9.4-2.6-18.8-3.5-28.2c-1.5-15-3.2-30.1-3.8-45.2c-0.4-9.4,3.7-13.2,13.3-14.3c7.7-1,15.5-1.4,23.3-1.1
	c2.7,0.1,7,2.9,7.7,5.3c3.1,10.2,10.6,18.6,10.9,30.2c0.1,6.1,4.1,12.1,6.7,19.1L4156.6,1111.7z M4268.8,1213.5c0-0.3-0.1-0.7-0.1-1
	c-1.7,0-3.5,0.1-5.2,0c-10.4-1-18.6,1.4-24.4,11.4c-2.9,4.9-8.5,8.5-13.4,11.8s-8.8,6.7-10.6,12.5c-1,3.2-3.3,6-5,9
	c-5.9,10.5-12.1,20.9-17.4,31.7c-2.9,6-6.4,10.4-13.4,10.4c-7.5,0-11,4.2-12,11c-1.3,8.5-3.2,17-3.6,25.6c-0.4,9.8-1.4,18.9-7.4,27
	c-3.4,4.6-4.2,10-0.8,14.6c5.8,7.6,5.7,16.2,5.3,24.8s1.5,15.5,11.7,17c1.9,0.3,4.5,1.6,5.3,3.2c4.4,8.3,10.8,5.5,16.9,3.4
	c23.5-8.1,40.5-24.6,55.1-43.7c10.8-14.1,20.5-28.9,30.5-43.5c1.8-2.9,3.4-6,4.6-9.2c2.7-6.7,5.3-13.5,7.9-20.2
	c1.9-4.8,4.2-9.5,5.5-14.5c2.1-7.9,2.6-16.3,5.2-24c5.9-17,3-33.3-2.5-49.6c-2.8-8.3-7-10.8-15.8-10
	C4279.8,1212,4274.4,1212.8,4268.8,1213.5L4268.8,1213.5z M4152.5,1170.8c4.8-14.6,3.7-17.3-5.9-16.4
	C4148.4,1159.4,4150.1,1164.2,4152.5,1170.8L4152.5,1170.8z M4352,1288c-2-0.4-3.3-1.1-4.3-0.8c-1.1,0.4-2.1,1.3-2.5,2.4
	c-0.2,0.6,1,1.7,1.6,2.5L4352,1288z"/>
<path class="st0" d="M2239.5,1271.3c-6.5,1.8-12.2,1.3-14.1-6.5c-0.2-0.8-1-2-1.5-2c-12-0.3-17-12.4-27.5-16.1
	c-7.9-2.7-14.9-8.7-21.4-14.2c-4-3.4-7.4-4.6-12.7-4.4c-6.2,0.3-12.6-1.1-18.9-2.4c-5.5-1.1-10.8-2.9-16.2-4.4
	c-11.9-3.4-24-6.4-35.7-10.4c-2.8-0.9-5.1-4.5-6.8-7.4c-3.3-5.5-6.8-8.4-13.7-5.5c-2.4,1-7.5-0.2-9-2.1c-8.8-11.7-18-23.3-24.9-36.2
	c-5-9.4-5.3-20.5-3.2-31.6c1.8-9.4,0.8-19.3,1.6-28.9c0.4-5.5,0.7-11.7,3.3-16.3c6.5-11.1,14.1-21.6,21.7-32.1
	c5-7,9.6-14.9,16.2-20.1c11.8-9.3,24.4-18.1,37.8-24.9c7.7-3.9,17.6-4.5,26.5-4.7c13.8-0.2,27.6,1.3,41.4,2c2.2,0,4.3,0.2,6.4,0.7
	c23,7.2,46.8,12.8,68.7,22.6c13.8,6.1,24.9,18.3,36.9,28.2c4.7,3.8,3.9,9-0.7,12.1c-7.4,4.9-15.5,8.9-23.3,13.1
	c-1.2,0.5-2.6,0.5-3.8,0c-10.5-4.6-22.8-5-31.6-13.9c-9.3-9.4-20.5-15.8-33.8-17.9c-2.2-0.2-4.3-0.8-6.3-1.7
	c-19.4-10.1-38.9-7.9-58.6-1.2c-0.8,0.3-1.9,0.1-2.5,0.6c-9.3,7.5-19,14.7-27.7,22.8c-4.3,4-7.4,9.6-10,15
	c-15.1,31.2-13.6,57.6,9.8,83.7c5.2,5.8,13.5,9.4,21,12.2c17.8,6.7,36,12.4,54.1,18.1c12.3,3.8,25.1,6.2,37.3,10.6
	c14.4,5.2,26,14.7,37.8,24.6c15.1,12.8,28.3,27.8,38.9,44.4c10.2,15.7,17.2,31.7,20.8,49.7c2.1,10.6,5.5,20.9,7.5,31.5
	c1,4.9,2,11.2-0.2,15c-4.4,7.6-5.7,14.6-4.4,23.4c0.8,5.5-2.2,11.7-3.9,17.4c-0.7,2.4-4,5.3-3.3,6.7c5,10.3,0.4,18.2-5.4,26
	c3.1,16.4-10.4,27.8-12.8,42.6c-0.7,2.9-2.6,5.4-5.1,6.9c-24.4,13.8-47.6,30.7-76.1,34.6c-11.3,1.5-22.4,5.2-33.4,5.6
	c-9.9,0.5-19.7,1.8-29.4,3.7c-4.6,0.9-10.1,2-14.1,0.4c-12.6-5.1-25.9-4.1-38.4-3.5c-15,0.7-24.6-6.9-34.1-15.4
	c-13.2-11.7-27.1-23.2-37.9-36.9c-10.2-12.9-20.6-28.5-16.1-46c6-23,16.3-44.7,36.4-59.6c9.8-7.3,19.7-14.6,29.8-21.5
	c1.7-1.2,5.3-1.6,6.9-0.6s3.2,4.7,2.6,6.4c-2.4,6.9-5.6,13.5-8.4,20.2c-1.9,4.7-4.6,9.3-5.3,14.2c-3.1,24,1.5,47.5,14.4,67.2
	c9.9,15.2,24.3,27.8,38.5,39.5c5.5,4.5,15.9,5.6,23.5,4.6c26.6-3.7,53.5-8.2,77.2-21.5c17.1-9.6,30.9-23.5,31.9-45.4
	c0.1-1.7-0.4-3.9,0.4-5.1c10.4-14.7,6.6-32.6,10.4-48.8c2.3-9.6-1.3-20.5-2.2-30.8c-0.3-3-1.7-7.1-0.3-8.8c9.9-12.4,0.8-23.5-4.6-32
	C2251,1302.8,2247.4,1287.3,2239.5,1271.3z"/>
<path class="st0" d="M3249.5,1363.6c-9.5,7.5-17.3,12.8-21.7,22.5c-13.6,29.6-51.8,42.3-76.1,35.3c-6.2-1.8-12.4-3.8-18.7-5.5
	c-9.1-2.5-14.7-7.5-19.9-16.4c-8.1-13.9-11.5-28.1-14.5-43.5c-2.8-14.4-1.6-28.2-1.7-42.3c-0.1-18.1-1.5-36.1-2.1-54.2
	c-0.6-15.8,4.1-20.1,23.1-22c10.6-1.1,21.7,7,23.4,17.9c2,12.8,10.1,24,9.1,37.6c-0.3,3.4,1,7,0.3,10.3c-2,9,0.2,16.7,3.9,25
	c2.6,5.9,1.6,13.4,1.7,20.3c0.1,3.4-1.2,6.8-1.4,10.3c-0.4,6.1,3.4,9.5,8.3,12c4.5,2.2,8.5,1,11.9-2.3c3.1-3,6.8-5.9,8.6-9.7
	c11.2-23.8,23.6-47.1,28.7-73.3c2-10.5,5.3-20.8,7.9-31.2c1.3-5.3,4.8-8.1,10-8.8c3.9-0.5,8.2,0.3,11.6-1.3c15.2-7.2,27,0,38.9,8.1
	c4.9,3.4,6.6,7.8,6.4,13.3c-0.3,8.1,1.4,14.7,7.4,21.2c5.2,5.7,7.2,13.9,3.1,21.8c-2.3,4.4-1.7,8.3,1.6,11.9
	c10.4,11.3,11.5,26,12.5,39.8c1,14.8,2.2,29.3,8.5,42.8c3.4,7.1,4.2,15.1,2.3,22.7c-2,8.7-2.1,17.2,3,25c2.7,4.1,2.5,8.1,0.1,12.2
	c-1.7,3-2.7,6.5-4.7,9.2c-6.8,9.1-10.4,18.6-8,30.3c1.4,6.9-1.3,13.3-4.9,19.7c-3.6,6.3-6.1,13.1-7.6,20.2
	c-1.6,7.9-3.7,14.8-10.6,20c-2.1,1.6-3,5.6-3.4,8.7c-0.6,3.8,1,8.1-0.3,11.5c-6.5,16.9-13.5,33.6-20.6,50.3c-0.9,2.2-3.3,5.2-5,5.2
	c-8.8,0.1-10,7-12.4,12.9c-1.7,4-2.6,8.3-4.6,12.1c-3.6,7-7.5,8.3-15.5,7.3c-2.7-0.3-6.9-0.4-8.3,1.2c-5.6,6.4-12,12.9-15.2,20.5
	c-6.1,14.6-8.5,16.7-24.8,13c-0.8,3.6-1.5,7.1-2.4,11.3c-12.5-1.7-22.5,0.3-24.2,16c-13.3,2-26.3,4.2-39.4,6
	c-7.8,1.1-14.4-1.1-19.1-8.1c-2.1-3.1-5-6.3-8.4-7.8c-15.8-7.5-19.8-22.6-22.2-37.2c-2.3-13.6,1.2-27.6,7.4-40.3c2-4,2.7-10,9.5-8.4
	c6,1.4,7.6,6.1,8.4,11.7c1.4,9,3.1,17.9,5.1,26.8c4,18.2,23.4,26.2,40.2,18.4c23-10.6,37.8-30,53.9-47.8c14.2-15.7,28-32,37.3-51.3
	c4.8-10.1,9-20.4,12.6-30.9c5.1-14.2,9.6-28.7,14.2-43.1c1.5-4.5,2.5-9.2,2.9-14c1.2-24.6,3.2-49.3,2.8-73.9
	c-0.3-16.2-4.1-32.4-6.3-48.7C3251.2,1378,3250.6,1372,3249.5,1363.6z"/>
<path class="st0" d="M4060.6,1286.2c-1.6,6.1-3.9,10.8-3.9,15.6c-0.1,7.7,1,15.4,2,23c0.9,6.8,2.6,13.5,3.4,20.2
	c1.4,11.1,2.1,22.3,3.6,33.5c1.9,15,4.4,29.9,6.2,44.9c0.8,6.9-4,14.4,2.3,20.7c-5.7,9.2-1.7,19.6-3.9,29.2c-1.1,4.8-5,8.9-7.1,12.4
	c-5.6,2.1-10.2,5.1-15,5.4c-8.4,0.6-16.8,0.2-25.1-1.2c-6.9-1.2-8.7-8.3-9.8-14.1c-2.4-12.7-3.8-25.6-5.6-38.4
	c-0.6-4.1-1-8.3-1.5-13c-11.6,0.7-20.1,6.2-28.4,11c-10.1,6.1-22,8.3-33.6,6.2c-1.7-0.3-3.4-1-5.1-0.9
	c-25.1,0.6-40.6-16.8-57.8-30.9c-1-0.8-1.8-1.9-2.3-3.1c-5.5-16.3-11.8-32.4-16.1-49c-1.8-6.7,0.5-14.4,1.1-21.7
	c0.2-2.5,1.8-5.1,1.4-7.5c-2.3-14.6,2.7-28.3,4.8-42.3c0.7-4.6,2.9-9.1,5.1-13.2c10.7-19.2,21-38.8,32.9-57.3
	c9.3-14.5,23.7-25.3,40.2-28.5c14.7-2.9,30.5-5,45.8-1.5c4.4,1,8.4,4.2,12.4,6.6c11,6.4,14,5.7,20.5-4.8
	c8.8-14.1,34.1-14.9,42.7-0.8c2.3,3.7,2.5,9.1,2.4,13.7c-0.1,6-1.8,12-2.1,18c-0.5,10.8-1.4,21.6,3.2,32c1.5,3.4,1.4,7.6,1.9,11.5
	C4077.1,1279.3,4076.3,1280.5,4060.6,1286.2z M3995,1249.7c-0.8-6.7-0.9-12.4-2.1-17.8c-1.9-8.1-9.3-14.7-16.3-14.4
	c-5.1,0.2-10.5,1.2-15,3.4c-2.3,1.1-2.4,6-4.2,8.9c-1.9,2.7-4.1,5.3-6.5,7.6c-2.6,2.8-6.3,4.8-8.1,8c-5.5,9.6-10.8,19.5-15.4,29.6
	c-2.9,6.2-4.9,12.7-6,19.4c-1.4,9.3-0.1,19.2-2.6,28.1c-8.2,29,4,52.8,17.8,76.4c1.1,1.8,2.9,3.2,4.4,4.7c3.6,3.7,7.8,4.2,11.5,0.7
	c5-4.7,10.1-9.5,13.8-15.2c12.8-19.8,16.9-42.1,17.9-65.3c0.2-6-0.3-12.7,2-17.9C3994.6,1287.4,3990.5,1267.4,3995,1249.7z"/>
<path class="st0" d="M592.8,301.4c6.6,0.8,12.7,0.2,17.8,2.3c7.9,3.3,15.5,7.8,18.9,16.7c1.9,4.9,3.8,9.8,6.1,14.5
	c4.8,9.5,10.2,18.8,14.6,28.5c4.5,9.9,9.2,19.6,9.8,31c0.4,8.8,2.8,17.5,4.1,26.3c1.4,9.2,2.4,18.5,3.7,27.7
	c0.5,4.1,1.2,8.1,2.1,12.1c2.1,8.1,1.9,16.2,0.6,24.4c-0.1,1.4-0.7,2.6-1.5,3.7c-3.8,3.6-7.6,7.1-11.7,10.3
	c-3.1,2.4-6.4,1.4-7.5-2.4c-0.9-3.2-0.7-6.7-0.9-10.1c-0.2-3.6-0.2-7.3-0.6-10.9c0-1.7-1.5-3.1-3.2-3.1c-0.4,0-0.9,0.1-1.3,0.3
	c-2.8,0.9-5.7,2.9-8.4,0.7c-3.6-2.7-7-5.8-9.9-9.2c-4.6-5.8-8.6-12.2-13-18.2c-5.5-7.7-12.1-14.6-16.5-23.3
	c-4.6-9.1-11.1-17-18.4-24.3c-6.2-6.3-11.5-13.5-14.3-22.1c-0.7-2.1-2.1-4-3-6.1c-1.3-2.9-2.4-5.9-3.6-8.8c-0.8-1.8-1.2-4.1-2.5-5.4
	c-4.8-4.6-4.8-10.2-4-15.9c1.2-8.5,5.6-15.9,10.2-23c1.6-2.5,4.7-4.4,7.4-5.8c5.4-2.9,11-5.6,16.7-7.9
	C587.3,302.1,590.5,301.9,592.8,301.4z M639.5,439.2c2.8-4.2,2.7-7.3,1.9-9.9c-2.8-9.8-6.1-19.5-9.2-29.3
	c-1.7-5.4-4.4-10.6-5.2-16.2c-1-6.3-3.5-12.3-7.3-17.4c-2.9-4-6.3-8.3-7.4-13c-1.8-7.9-7.1-13.6-10.8-20.3c-1.7-3-3.9-5.6-6.4-7.9
	c-7.1-6.4-12.5-4.6-14.4,4.6c-0.4,1.5-0.5,3.2-0.1,4.7c3,8.6,6,17.1,9.3,25.6c1.3,3.4,3.5,6.4,4.9,9.8c2.6,6.1,6.3,11.6,10.9,16.3
	c2.9,3.2,5.5,6.7,7.6,10.4c2.7,4.2,4.4,9.2,7.5,13c6.3,7.8,11.7,16.3,16.3,25.2C637.8,436.2,638.5,437.3,639.5,439.2z"/>
<path class="st0" d="M3860.3,1441.3c-13.8,10.4-29.6,12.4-46.6,13.8c-12,1-25.1-1.3-36.4,5.7c-0.8,0.4-1.7,0.5-2.5,0.3
	c-13.6-5-26.2,2.8-39.5,3.1s-26.6,2.6-39.8,4c-15.7,1.6-31,0.4-45.6-7.9c-4,2.3-9,3.8-11.9,7.2c-8.4,9.8-19.9,11.5-31.3,13.8
	c-2.5,0.5-5.1,0.7-7.6,1.4c-17,4.5-30-4.3-31.1-21.7c-0.9-14.6-0.6-29.2-1-43.9c-0.1-3.4-0.6-6.9-0.9-10.3
	c-1.5-14.2-3.3-28.3-4.2-42.6c-0.3-4.4,1.8-9,3-14.5c-7.3-6-7.1-14.4-5.5-24c3.4-20.9,5.6-42,1.6-63.3c-1.3-7.3-1.4-14.7-0.1-22
	c3.8-21.2,2-42.2-1-63.3c-1.4-9.7-0.5-19.7-0.5-29.6c0-12.4,0.2-24.9,0-37.3c-0.4-20.7-1.3-41.4-1.5-62.1
	c-0.1-16.9,4.9-20.2,21.7-22c18.4-2,26.3,11,34.8,22.3c7.9,10.6,8.9,23.6,8.1,37.2c-1.1,20.1,0,40.3,0.1,60.5c0,4.3,0.8,8.7,0.2,13
	c-1.6,12.1-2.1,23.9,3.5,35.3c0.9,2,1.3,4.2,0.9,6.3c-2.9,13.2,2.9,25.9,2.1,38.6c-1.2,19.3,2.7,37.8,4,56.6
	c0.2,2.6,0.6,5.5-0.3,7.7c-7.2,17.3-1.5,35.1-1.8,52.6c-0.3,17.2,1.2,34.5,2.4,51.8c0.7,9.6,5.8,14.2,17.3,15.9
	c10.3,1.5,20.6,2.5,31,3.1c31.2,2,62.1-0.7,93.1-4.4c11.1-1.3,22.5-0.6,33.7-1c6-0.2,12.1-0.6,18.1-1.4
	C3842.9,1418.1,3853.6,1424.7,3860.3,1441.3z"/>
<path class="st0" d="M502.7,1125.2c-1.9,1-3.6,2.4-5.6,3c-3.1,0.9-5.8,2.9-7.4,5.7c-3.8,5.9-8.3,11.4-10.8,18.2
	c-1.3,3.5-4.2,6.5-6.7,9.4c-6.7,7.9-11,17.2-15.3,26.5c-0.5,1-0.5,2.5-1.3,3.1c-5.9,4.9-9.3,11.7-13.8,17.6
	c-8.3,10.9-19.5,18.6-30.1,26.5c-11.3,8.6-24.2,14.9-38,18.4c-5.7,1.5-10.8-0.7-15.7-3.3c-2.8-1.5-5.6-2.8-8.2-4.5
	c-1.9-1.2-3.5-2.9-5.4-4.2c-6.1-4.2-8.6-9.7-7-17.2c0.9-4,1-8.1,1.5-12.2c0.1-0.7,0.5-1.4,0.4-2c-2.1-11.8,5.4-20.9,8.7-31.1
	c0.9-2.6,3.2-4.9,5.3-7c13.7-13.8,28.6-26.1,46.2-34.8c6.1-3,12.7-4.9,19.1-7.3c2.1-0.8,4.5-1,6.5-2.1c9.8-5.8,20.8-8.1,31.6-10.6
	c2.2-0.4,4.4-1.1,6.4-2.2c9.7-5.3,19-5.1,28.3,1.2c3.5,2.4,7.4,4.4,11.1,6.5L502.7,1125.2z M439,1150.8c-2.9,1.2-5.1,2-7.3,3
	c-5.1,2.3-9.8,5.3-15.2,7.2c-7.3,2.5-14.1,7-20.3,11.8c-9,6.6-16.7,14.7-22.8,24.1c-4.9,7.7-8.8,15.2-9.6,24.2
	c-0.1,1.6,0.5,4,1.6,4.8c1,0.7,3.6,0.2,4.8-0.7c5.5-4.4,12-6.2,18.1-9.2s10.8-8.6,17.1-11.7c1.5-4.7,5.5-5.6,10.4-5.8
	c0.2-6.6,4.4-10.8,8.6-15.1c1.3-1.4,1.7-3.6,2.6-5.5c3.1-6.5,5.2-13.6,11.4-18.3C440.9,1157.6,440.4,1154.8,439,1150.8z M414,1151.8
	c0.3-0.2,0.6-0.5,0.9-0.8c0-0.1-0.2-0.5-0.2-0.5c-0.4,0-0.7,0.1-1.1,0.2C413.7,1151.1,413.9,1151.5,414,1151.8L414,1151.8z"/>
<path class="st0" d="M494,631.4c-0.9-2.2-2-4.3-2.7-6.5c-0.5-1.5,0-3.3-0.7-4.7c-1.3-2.8-2.5-6.6-4.8-7.6c-3-1.3-6.9,0.3-9.2,3.1
	c-1.6,2.1-2.9,4.5-3.7,7.1c-2.1,6.7-5.1,8.2-10.2,3.8c-8-7-18-9.7-27.2-14c-10.1-4.7-20.1-9.4-29.4-15.8
	c-6.9-4.8-14.6-8.4-21.9-12.6c-1.2-0.7-2.6-1.1-3.6-2c-11.5-11.2-25.8-19.5-35.2-33.2c-3.4-5-8-9.2-12.3-13.5
	c-3.4-3.4-5.6-7.2-5.3-12.1c0.3-4.5,0.6-9.1,1-13.6c0.6-6.2,3.9-10.6,8-15.3c7.4-8.6,16.7-10.6,27.1-12.1c19.1-2.6,35.9,2.9,52,12.3
	c8.8,5.2,18,9.6,26.8,14.9c5.6,3.6,10.9,7.5,16,11.7c5.5,4.4,11.1,8.8,16.2,13.7c2.7,2.7,5.1,5.8,7,9.2c2.7,4.2,5,8.7,7,13.2
	c2.5,6.1,4.7,12.3,6.7,18.6c3.5,11.1,7.1,22.1,8.4,33.8c0.5,4.8,0.2,9-2.7,13c-1.9,2.7-3.5,5.7-5.2,8.6L494,631.4z M485.8,602.2
	c-0.3-1.7-0.2-3.4-0.8-4.7c-3.8-8.2-7.4-16.6-11.7-24.5c-4-7.1-8.1-14.1-14-20.1c-10.4-10.7-23-17.8-35.7-24.9
	c-8.7-4.9-16.8-10.9-26.3-14.3c-1.2-0.5-2.2-1.7-3.4-2.2c-3.5-1.6-7-3.8-10.6-4.4c-6.3-1-12.7-1.1-19.1-1.4
	c-3.2-0.1-6.4,0.1-9.6,0.6c-6.1,0.8-7.9,4-4.9,9.3c2.2,3.9,4.8,7.6,7.7,11.1c3.8,4.6,7.9,8.8,11.9,13.2c2.6,2.9,4.6,7,7.8,8.5
	c8,3.8,15.4,8.9,21.9,15c0.4,0.3,0.8,0.5,1.2,0.7c8.6,4.7,17,9.7,25.7,14.1c7.7,4,15.3,8.2,23.5,10.8c5.8,1.8,11.3,4.7,16.1,8.5
	c2.3,1.8,4.9,3.4,7.6,4.7C477,604,481.7,604,485.8,602.2L485.8,602.2z"/>
<path class="st0" d="M2449.1,647.5c-10.4,2.2-15.1,5.7-13.4,14.6c0.7,2.9,0.7,5.8,0,8.7c-5.4,17.3-5.1,35.5-8.2,53.2
	c-3,17-12.9,23.7-30.4,20.8c-19.3-3.2-31.8-16.6-33.5-36.1c-1.2-14.1-1.9-28.2-3.1-42.3c-0.5-4.4-1.3-8.7-2.4-12.9
	c-2-8-4.6-15.9-6.4-24c-1.5-6.6-4.5-11.6-12.9-14.1c-12.1,24.1-23.7,48.2-26.3,74.8c-2.3,23.6-1.1,47.5-1.6,71.3
	c-0.4,21.2-17.3,30.1-36.3,19.5c-6.2-3.5-12.7-6.6-19.4-9.2c-6-2.3-8.7-6.6-8.8-12.2c-0.2-9.3,0.2-18.5,1.4-27.7
	c1.9-14.4,6-28.7,6.9-43.1c1.9-29.7,2.1-59.5,3.2-89.2c0.4-11.2,1.2-22.4,2.6-33.5c1.6-12.2,7.9-18,20-19.3c9.3-1,18.6-1.1,26.7,5.1
	c2.2,1.7,5.1,2.6,8.8,4.4c9-10.2,20.1-16.1,34.1-17.1c8.8-0.7,14.8,1.9,20.6,8.1c11.5,12.4,20,26.3,24,42.8
	c1.7,6.9,4.5,12.8,10.6,14.5c5.4-9.8,10.1-19.1,15.7-27.9c4.5-6.9,9.9-13.3,15.2-19.6c10.8-12.9,25-16.3,40.8-13.1
	c5.6,1.2,10.8,4.1,14.8,8.3c9,9.9,15,21.2,15.8,35.3c0.5,8.6,4,17,5.6,25.6c5.1,26.3,10,52.6,14.8,78.9c0.5,3.4,0.5,6.8,0.1,10.1
	c-1.2,14.2-1.2,28.2,3.1,42.1c2.8,8.9-3.8,23.1-12.4,27.1c-2.7,1.3-7.2,1.5-9.8,0.2c-9.9-5.2-19.4-10.9-28.6-17.2
	c-3.7-2.6-3.6-9-11.9-6.7c-4.8,1.4-8.1-6.2-7.1-12.1c3.2-19.8,1.5-38.8-7-57.2c-2.4-5.1-2.1-11.5-3.1-17.2
	C2451.1,657.1,2450.2,653,2449.1,647.5z"/>
<path class="st0" d="M1821,842.8c-31.9-2.2-61-5.3-86.5-22.2c-2.4-1.6-5.3-2.5-7.9-3.8c-14-6.7-25.3-16.2-32.8-30.1
	c-5.6-10.3-12.4-19.8-18-30.1c-2.5-4.6-3.4-10.1-4.4-15.3c-1.7-9.1-4-18.2-4.1-27.4c-0.2-25.3-11-49.5-6.5-75.5
	c1.6-9.3-1-19.4-2.5-29c-2.7-17.2-2.3-33.6,3.9-50.4c5.9-15.8,8.8-32.7,13.2-49.1c1.8-6.6,3.9-13.1,6-19.6
	c3.9-11.5,7.7-23.1,11.9-34.5c1.7-5.1,4.1-9.9,6.9-14.5c23.1-35.3,49.8-67.6,83.3-93.6c18.4-14.3,40.7-18.3,63-21.5
	c26-3.8,51.3,3,76.7,6.3c9.4,1.2,18.6,5.8,27.3,10.2c3.9,2,7,6.8,9,11c3.1,6.5,0.2,11.6-6.8,13.1c-2.9,0.7-5.8,0.9-8.7,0.4
	c-15.4-2.7-31.2-4-45.9-8.9c-22.7-7.5-42.9-5.1-62.3,8.5c-6.3,4.4-14,6.9-20.5,11.1c-14.1,9.1-25.9,20.4-34.5,35.1
	c-6.6,11.3-15,21.5-22.1,32.6c-13.3,20.9-19.3,44.4-26.3,67.9c-6.4,21.4-7.5,43-10.9,64.5c-2.4,15-5.4,29.9-1.4,45.1
	c0.4,1.4,0.4,2.9,0,4.3c-5.8,16-1.5,31.9,0.8,47.8c2.7,18.8,5.2,37.7,8.5,56.5c1.1,5.7,3.4,11.1,6.8,15.8
	c20.4,28.3,47.3,47.5,81.4,55.5c8.1,1.9,16.5,1.9,24.6-0.1c15.1-3.9,29.8-9.1,44-15.5c15.2-7,21.2-22.7,27.8-36.6
	c7.2-15.2,20.7-24.3,31.1-36.3c3.7-4.2,8.6-3.3,13.2,0.1c12.6,9.2,15.4,21.8,11.8,37.3c-5.7,24.2-22.4,40.8-37.2,58.7
	c-3.8,4.6-10.2,8-16.1,9.6c-26.3,7.3-52.9,13.9-79.4,20.4C1831.2,842.2,1824.8,842.3,1821,842.8z"/>
<path class="st0" d="M1153.4,394.1c9.4-0.9,16.6,2.7,24,5.5c1,0.4,1.9,1.4,3,1.7c5.9,1.3,8.8,5.6,10.6,10.7
	c3.3,9.3,6.2,18.9,2.9,28.6c-2.2,6.5-5.4,12.6-9.5,18c-7.1,9.2-14.7,18-24.7,24.5c-3.8,2.4-6.7,6.2-10,9.3
	c-8.2,7.5-15.7,16-24.7,22.3c-7.5,5.3-12.9,11.9-18.8,18.5c-6.6,7.4-13.2,15.2-23.6,18.1c-2.2,0.7-4.2,2-5.8,3.6
	c-4.1,3.8-8.5,6.8-14,8.1c-1.5,0.4-2.9,1.4-3.9,2.7c-3.4,4.6-7.8,4.8-12.8,3.5c-5.7-1.5-9.3-5.5-12.3-10.1c-1.8-2.8-0.2-5.7,0.8-8.5
	c1-2.4,1.8-5,2.2-7.6c0.4-4.1,2.2-8,5.1-10.9c1.3-1.2,2.6-2.5,3.6-4c5.7-9.5,11.2-19.2,17.1-28.5c2.5-4,4.5-7.7,4.4-12.6
	c0-2.2,1.4-4.8,2.9-6.6c4.3-5.3,8.8-10.2,11.1-17c1.4-4.1,4-7.7,7.5-10.4c6.9-4.7,10.4-11.5,13.3-18.6c2.7-7.4,8.3-13.3,15.5-16.4
	c3.4-1.5,5.8-3.5,7.1-6.8c1.3-3.5,4-6.2,7.5-7.4c3.1-1.3,5.9-3.4,8.8-5.2C1144.8,395.3,1149.1,392.7,1153.4,394.1z M1066.1,531.6
	c9.4-2.3,17.9-7.4,24.2-14.7c6.2-7.3,12.8-14.2,19.3-21.1c3.5-3.8,6.9-8,11-10.9c5.1-3.6,10.7-6.1,14.1-12.2
	c1.6-2.8,6.6-3.7,10.2-5.1c2.6-0.9,4.7-2.6,6-5c2.6-4.7,5.4-9.6,9.3-13.2c7.3-6.8,9.7-15.8,12.5-24.6c1.7-5.4-0.4-9.4-5.6-11.6
	c-7.3-3.1-13.8-1.1-19.7,3.7c-3,2.4-6.2,4.6-9.1,7.1c-3.3,2.7-6.8,5.2-9.7,8.4c-4.1,4.6-7.8,9.5-11.4,14.5
	c-6.1,8.4-13.5,16.4-17.8,25.7c-5,10.9-12,20.4-17.9,30.6c-5,8.7-10.1,17.3-15,26C1066.2,529.8,1066.1,530.7,1066.1,531.6
	L1066.1,531.6z"/>
<path class="st0" d="M2737.1,1238.6c14.5,2.4,29.5,3.3,43.2,7.9c9.7,3.3,17.7,11.8,26.4,18.1c1.3,1.1,2.2,2.7,2.5,4.4
	c1.7,8.8,3,17.6,4.7,26.4c1.1,5.8,2.6,11.6,4,17.3c0.2,0.8,1.1,1.7,0.9,2.4c-5,20,4.9,39.3,2.9,59.1c-2.1,20.2-4.6,40.4-7.9,60.4
	c-3.4,20.4-12.6,37.5-31.4,48.3c-3.1,1.8-5.8,5.4-7.1,8.8c-3.2,8.1-9,13.6-16.2,17.9c-0.4,0.2-0.9,0.3-1.1,0.6
	c-8.8,12.2-23.7,12.7-35.9,18.2c-3,1.4-6.7,1.2-10,1.8c-4.5,0.8-9,1.7-13.4,2.7c-1.6,0.4-3.3,2.1-4.7,1.9c-12.8-1.8-26-2.4-38.2-6.3
	c-10.8-3.4-18.3-12.6-24.1-22.6c-3.9-6.8-7.6-13.3-8.5-21.4c-0.7-5.6-2.7-11-5.8-15.7c-8.9-13.3-7.7-28.3-9.5-43.1
	c-1.5-12.3-0.3-24.6-3.1-37c-2.5-11.3,0.4-24,1.6-36c1.1-10.7,2.7-21.4,4.9-32c1.1-5.4,4-10.4,6.2-15.5c0.9-2,2.9-3.8,3-5.7
	c0.5-18.9,16.5-26.4,27.6-37.3c3.2-3.1,9.4-4.1,14.3-4.2c12.1,0,24.1-3.1,34.7-8.8C2709.2,1242.6,2722.6,1238.6,2737.1,1238.6z
	 M2659.1,1418.1c1,5.3,1.8,10.8,3.2,16.2c2.6,10,6.8,19.8,7.9,29.9c1.7,15.3,11.1,22.4,23.7,27.8c7.8,3.3,14.2,2.4,19.9-3.8
	c8.2-8.9,17.6-16.9,24.7-26.5c9.4-12.8,19.3-25.5,23.8-41.3c3.9-13.6,8.7-27,13.1-40.5c0.6-1.6,0.8-3.3,0.6-5
	c-1.6-10.6-4.1-21.1-5.1-31.7c-1.4-15.2-8.7-30.2-2.7-45.9c0.5-1.4-0.1-3.4-0.7-5c-6.5-17.2-24.8-28.9-42.9-27.2
	c-2.3,0.2-4.7,1.8-6.7,3.3c-7.2,5.4-14.6,10.8-21.3,16.8c-10.6,9.5-25.7,15.4-27.2,32.6c-0.1,1.5-1.6,3.2-3,4
	c-4.2,2.6-4.2,6.6-5.2,11c-2.7,12.3-1.9,25.1,2.3,36.9c1,3.1,0.5,6.8,0.1,10.2C2662.4,1392.3,2660.7,1405,2659.1,1418.1
	L2659.1,1418.1z"/>
<path class="st0" d="M207.8,1036.8c-1.5-10,2.6-19.4,7.3-28.6c1.1-2.2,3.2-3.9,4.9-5.7c2.5-2.6,5.2-5.1,7.7-7.7s5.4-3.3,8.7-4.4
	c7.1-2.5,14.9-3.9,20.9-9.1c3.1-2.7,6.9-4.5,11-5.2c3.4-0.7,6.6-2.8,9.8-4.5c6.6-3.5,13.3-7.1,19.8-10.9c3.5-2.1,7.5-3.3,11.6-3.6
	c4.7-0.5,9.4-1.5,13.9-3c3.9-1.2,7.9-1.7,12-1.5c8.2,0.2,16.4-0.5,24.5-1.2c3.9-0.3,5.5-3.7,7.4-6.6c3.3-5.1,4.9-5.1,8.4-0.4
	c1.8,2.4,3.4,4.9,5.3,7.2c1.8,2.1,2.4,4.1,1.1,6.9c-0.6,1.4-0.6,3,0.1,4.4c1.8,3.2,0.6,5.3-1.1,8.1c-3.6,5.7-8.5,10.1-13.6,14.3
	c-1,0.9-2.2,2-3.4,2.2c-6,0.8-9.6,5.3-12.9,9.4c-3.6,4.4-8.1,6.5-13.1,8.2c-1.9,0.7-4.1,1-5.7,2.2c-5.9,4.6-13,6.3-19.9,8.8
	c-2,0.7-3.6,2.4-5.3,3.7c-2.2,1.8-4.1,4.2-6.6,5.7c-8.7,5.4-17.5,10.5-26.3,15.7c-0.7,0.6-1.5,1-2.4,1.2c-9,0.8-16,6.3-23.6,10.2
	s-15.6,5.2-23.8,5.8c-10.9,0.7-17.1-5.9-16.6-16.7C207.9,1040.3,207.8,1038.9,207.8,1036.8z M328.2,977.4l-0.3-1.3
	c-2.6,0.5-5.2,0.8-7.7,1.5c-3.9,1.1-7.7,3-11.7,3.6c-7.9,1.2-14.6,4.7-21.5,8.4c-8.8,4.7-18,8.7-26.6,13.8
	c-7.9,4.7-15.3,10.4-22.9,15.8c-0.9,0.7-1.6,1.6-2,2.7c-0.4,1.3-0.1,2.8-0.1,5.2c5.8-2.5,10.6-4.3,15.3-6.5
	c10.9-5.2,22.8-8.5,32.9-15.6c7-5,14.8-8.5,22.7-11.9c2.3-1,4.4-2.3,6.4-3.9C318,985.3,323.1,981.4,328.2,977.4L328.2,977.4z"/>
<path class="st0" d="M2466.4,1517.4c-3.2-1.5-6.7-4.1-10.7-5c-10.3-2.3-21.2-12.3-21-22.7c0.4-20.8-5.5-41.2-1.7-62.2
	c1.3-7.3-1.6-15.3-2.5-23.1c-0.5-4.7-2.1-9.7-1.2-14.1c3.2-14.6-0.1-28.2-4.2-42.7c-15.6-0.7-30.8-4.3-44.8-12.1
	c-2.3-1.2-4.5-2.6-6.6-4.1c-8.3-6.6-8.2-10.3,1.2-15c10-5.1,20.4-9.2,32.1-9.2c7.7,0,15.5-1.4,23.1-2.9c7.8-1.5,9.2-4.5,7.6-11.9
	c-2.2-10.5-4.3-21.1-5.8-31.7c-1.1-8-0.4-8.4,6.7-13.4c-8.6-12.8-10.7-25.9-1.6-39.4c-0.1-0.4,0.1-1.1-0.2-1.3
	c-5.4-4.6-0.4-11-2.7-15.6c-2.2-4.4-6.4-7.9-9.6-11.8c-0.4-0.8-0.6-1.6-0.5-2.5c-0.5-13.2-0.9-26.4-1.6-39.6c-0.2-6-1-12-2.3-17.9
	c-3.2-12.3-1-24.2,2-35.9c2.3-8.9,6.8-11.7,15.9-12.6c12.7-1.3,22.6,5.1,32,11.9c3,2.2,4.4,7.3,5.3,11.3c1.2,5.9,2.6,12.2,1.6,18
	c-2.3,13.2,3.3,24.5,6.4,36.5c0.6,2.5,2.3,5.6,1.4,7.4c-4.7,9.6,0,18.5,0.7,27.7c0.6,10.8-0.4,21.6-2.8,32.1
	c-2.3,10.7-2,21.1,1.8,30.7c5.1,12.8,4.6,25.3,2.8,38.2c-0.4,2.9-0.1,5.8-0.1,9.2c9.1,2.8,17.4,0.5,25.7-1.4
	c6.3-1.4,12.6-2.5,19-3.4c14.9-2.2,29.8-4.8,44.9-6.2c13.6-1.3,27.1-0.8,35.2,15.5c-2.8,2.5-5.5,6.1-9,7.8
	c-11.9,6-22.1,14.5-36.7,16.5c-19.4,2.7-39.3,4.7-57.7,13.2c-7.1,3.3-10.7,7.3-12.1,15.1c-2.2,12.2-5.8,24.2-8.8,36.3
	c-0.3,1.2-1.4,2.7-1,3.6c5.7,15.4-2.6,31.8,3.6,47.4c2,5.1,0.5,12-0.4,17.9c-1.3,8-0.8,15.3,2.7,22.8c4.2,9.1-0.7,23-9.1,27.8
	C2478,1509.8,2472.9,1513.3,2466.4,1517.4z"/>
<path class="st0" d="M2769.2,655.2c-1.5,17.9-0.6,32.1-4.4,44.9c-4.3,14.4-7.7,30.4-22.1,39.8c-3.1,2-5.6,5.5-7.6,8.7
	c-7.3,11.8-14.1,24-21.6,35.7c-2,3.1-5.5,6.1-8.9,7.1c-8.5,2.4-14.9,7.3-20.2,13.8c-10.6,12.9-24.3,21.2-39.9,26.1
	c-10.9,3.4-13.7,10-13.9,20.7c-0.3,16.5-0.6,32.8,2.5,49.3c2.5,13.2,1.2,27.1,1.5,40.7c0.6,30.2,1.2,60.5,1.8,90.7
	c0.1,2.9,0,5.9-0.4,8.8c-1.7,9.8-5.9,11.6-15.2,7.3c-3.9-1.8-8.2-3-12.3-4.4c-12.5-4.4-18-13.6-16.8-26.9
	c1.3-14.6,0.8-28.9-2.8-43.5c-2.7-11-1.4-23.2-0.5-34.8c1.9-22.9,3.8-45.7-0.9-68.4c-0.7-4.3-1-8.7-0.7-13.1
	c0.4-16.6-6-30.3-17.1-42.2c-2-2.2-4.1-4.2-5.9-6.5c-3.7-4.8-2.9-9.1,1.9-12.6c2.8-2,5.9-3.4,8.8-5.3c4.8-3.2,7-7.4,6.9-13.5
	c-0.3-28.8-0.3-57.5-0.2-86.3c0-12.1,1.1-24.2,0.5-36.3c-1.2-25.8-3-51.6-4.8-77.3c-0.5-6.7-0.4-12.7,7-15.9s15.7-3.8,20.5,2.3
	c9.4,12,19.4,8.6,31.2,5.3c21-5.9,41.9-12.9,64.6-11.3c23.4,1.7,43.2,15,51.4,37.1c4.6,12.3,9.3,24.5,13.1,37
	C2767.2,641,2768.2,650.2,2769.2,655.2z M2634.6,773c27.5-15.1,53.5-31.8,69.8-60c4.6-8,10-15.7,13.8-24c11.1-24.2,15.4-49.2,5.8-75
	c-4.8-12.9-11.5-16.7-25-14c-5.2,1-10.2,3.4-15.3,4.9c-3.7,1.1-8.1,3.5-11.2,2.4c-12.4-4.2-20.4,1.4-27.9,9.9
	c-2.3,2.5-5,4.7-8.1,6.3c-9.6,5.4-13.8,14.4-13.8,24.4c0,28.3,0,56.6,1.9,84.8C2625.5,745.8,2630.9,758.5,2634.6,773z"/>
<path class="st0" d="M956,369.4c-1.8,9.1-2.1,18.9-7.5,27.7c-2.4,3.9-3.9,8.3-4.5,12.9c-2.1,17-8.9,32.4-14.8,48.2
	c-0.3,0.6-0.6,1.2-0.9,1.8c-3.2,5.7-7.2,10.8-9.6,17.1c-1.8,4.7-6,8.4-9.4,12.5c-4.8,5.7-9.1,12-14.8,16.7c-3.5,3-9,4.4-13.8,5
	c-12.5,1.7-17-3-17-15.7c0-4-1.1-8-1.3-12.1c-0.4-6.8-0.7-13.6-0.8-20.4c0-5,0.7-10,0.5-15c-0.6-14.8-1.8-29.5-2.3-44.3
	c-0.1-3.7,1.3-7.5,2.2-11.2c0.3-1.5,1.3-3,1.3-4.6c0-8.1,5.4-13.7,9.1-20.2c3.6-6.3,9.5-10.3,14-15.8c0.8-0.8,1.7-1.5,2.7-2.1
	c3.6-2.4,7.7-4.3,10.7-7.3c10.8-10.6,23.7-8.3,35.1-3.8c9,3.5,16.4,11.4,20,21.3C955.9,362.8,955.7,365.9,956,369.4z M883.8,481.6
	c4.9-1.4,5-1.4,6.2-4.2c2.1-4.6,3.7-9.4,6.1-13.7c7-12.7,13.7-25.5,17.4-39.7c2.3-9,5.4-17.9,7.3-27c1-5.1,3-10,5.8-14.4
	c6.5-10,5.7-20.2-2.4-28.7c-2.7-2.8-3.8-2.9-7-0.5s-6.3,4.5-9.4,6.8c-1.6,1.2-3.7,2.3-4.6,3.9c-5.5,9.4-11.2,18.7-14.9,29
	c-4.6,12.6-5.7,25.8-5.9,39c-0.2,13.6,0,27.3,0.1,41C882.6,475.9,883.3,478.7,883.8,481.6z"/>
<path class="st0" d="M1161.5,705.9c-2.4-3-5.2-5.7-7.3-9c-3-4.7-2.5-5.9,2-9.6c0.6-0.6,1.2-1.2,1.7-1.8c-0.8-2.2-1.6-4.5-2.6-7.2
	c1.2-0.8,2.3-2.2,3.6-2.5c4.6-1,7-4.1,8.4-8.2c1.8-5.4,5.4-9.5,9.5-13.2c9.4-8.6,19.2-16.7,28.1-25.8c5-5.1,11.5-8.9,15.3-15.3
	c0.6-1.1,2.3-1.5,3.3-2.3c3.4-3,6.4-6.6,10.1-8.9c5-3.1,8.3-8.7,15-9.5c3.3-0.4,6.7-2.5,9.6-4.5c3-2.1,6.2-2.5,9.6-2.8
	c2.5-0.1,4.9-1,6.9-2.4c3.9-3.2,8.4-4.4,13.2-5c4.5-0.6,9-1.6,13.6-1.7c2.8-0.1,5.7,1,8.5,1.9c1.7,0.6,3.1,2.2,4.8,2.6
	c5.6,1.3,7.3,5.3,8.4,10.4c1.4,6.8,0.9,13-2.6,19.2c-2.4,4.4-3.9,9.3-6.4,13.6c-2.2,3.6-5.3,6.7-8,10c-1.2,1.4-2.7,2.5-3.7,4
	c-5.9,8.7-14.2,14.7-22.7,20.5c-0.7,0.6-1.5,1.1-2.4,1.3c-9.6,1.3-17,7.6-25.6,11.3c-6.2,2.7-11.9,6.5-17.8,9.9
	c-0.8,0.5-1.4,1.3-2.2,1.5c-6.4,1.8-12.7,3.6-17.1,9c-11.3,1.5-19.3,10.8-30.5,12.6c-4.4,0.7-8.6,2.3-13.4,0.5
	c-2.3-0.9-5.4,0.2-8.2,0.4L1161.5,705.9z M1189.5,672.5l1.1,1.3c6.3-0.3,11.6-3.3,17-6.3c1.7-1.1,3.6-2,5.5-2.5
	c6.7-1.3,12-5.1,17.3-9.1c7-5.4,14.1-10.9,22.8-13.4c13-3.6,23.6-11.2,34-19.3c1-0.8,2.2-2.1,2.3-3.3c0.6-7,5.6-11.2,9.3-16.3
	c0.8-1.1,1.1-2.7,2-4.7c-2.5-0.4-4.2-0.8-5.9-1c-7.4-0.8-13.7,3.2-20.3,5.4c-4.8,1.7-9.2,4.9-13.5,7.7c-4.9,3.2-9.6,6.8-14.5,10
	c-3.2,2.1-6.8,3.7-9.9,5.9c-5.1,3.7-10,7.8-15,11.8c-2.3,1.8-4.6,3.7-6.7,5.8c-6.9,7-13.6,14-20.3,21.1
	C1192.8,667.8,1191.1,670.1,1189.5,672.5L1189.5,672.5z"/>
<path class="st0" d="M1972.9,682.5c2-13.8,3.7-26.8,11.8-38c3.3-4.7,5.4-10.3,7.5-15.8c6.9-17.9,16.6-33.1,35.2-40.8
	c2.3-0.9,4.3-2.3,6.1-4c14.7-15.6,34.1-22.2,53.6-28.5c0.5-0.1,1-0.2,1.4-0.4c21.5-13.1,43.2-7.3,65.1-0.9
	c11.1,3.3,22.7,4.9,33.3,9.2c9.8,4,18.9,10,24.6,19.8c3.6,6.3,7.5,12.4,11.8,18.3c5.8,7.6,6.7,15.9,5.9,24.9
	c-0.6,6.7-0.5,13.4-1.2,20c-0.9,9.7-2.3,19.4-3.2,29c-3.1,30.5-17.7,57-29.3,84.5c-0.3,0.9-0.8,1.8-1.4,2.6
	c-12.2,13.2-24.3,26.3-36.5,39.5c-7.3,7.9-14.6,15.7-21.9,23.5c-8.6,9.1-19.4,13.1-31.2,17.3c-16.9,6-32.4,3.1-48.9,1
	c-16.6-2.1-27.2-14.4-40.7-21.7c-0.4-0.2-0.8-0.6-1-1.1c-5.6-12.8-11.3-25.6-16.9-38.4c-2.3-5.3-3.8-11-6.8-15.8
	c-7.3-11.4-11.8-23.2-11.4-37.1c0.3-10.1-2.1-20.3-3.4-30.5C1974.8,693.4,1973.7,687.7,1972.9,682.5z M2162.9,639.9l-1.8-0.3
	c0.4-3.9,1.1-7.8,1.2-11.7c0.7-20.1-15-37.6-35-40.4c-27.6-3.9-64.7,14.4-71,45.7c-1,4.8-2.8,9.4-3.7,14.2c-1.1,5.5-3.3,9.5-9.6,8.5
	c-9.5-1.5-11.2,4.9-13.4,11.9c-4.4,13.8-0.5,27,1.4,40.5c4.9,35.1,22.8,63.6,44.4,90.4c5.8,7.2,11.4,7.1,18.9,0.7
	c4.8-4.1,8.7-9.5,13.9-12.9c6.8-4.4,11-10.4,15.3-17c5.8-8.8,9.3-19.4,19.4-25.3c2.7-1.6,4.2-6.6,4.8-10.3
	C2153,702.6,2157.9,671.2,2162.9,639.9L2162.9,639.9z"/>
<path class="st0" d="M4599.4,380.6c-1.1,15.5-2.3,31-3.1,46.6c-0.2,4.2-0.2,9,1.5,12.6c7.6,15.3,9.1,30.5,1.8,46.4
	c-1.4,3-2.7,6.7-2.3,9.8c2.8,20.7,6.4,41.3,9.1,62c0.6,5.7,0.1,11.4-1.6,16.8c-2,6.5-2,12.1,1.5,18.2c2.6,4.5,3.5,10,5.4,14.9
	c5,12.6,5.6,25.4,2.9,38.7c-1,5.1,0.4,10.7,0.8,16c0.3,3.4,1.3,6.8,1.3,10.2c-0.4,21.3-1.4,42.6-1.4,64c0,10.2,1.6,20.4,2.7,30.6
	c2,18.3-9.1,35.5-26.6,41.2c-5.4,1.8-10.4,5.3-14.9,8.9c-5.5,4.4-10.2,4.7-15.6,0c-12.1-10.5-19.8-22-16-39.6
	c4.4-20.3,0.4-40.8-1.9-61.2c-2.2-20.2-4-40.4-4.8-60.7c-0.6-16.5,0.6-33,0.8-49.5c0-4.3-1-8.6-1.7-12.8c-0.6-3.3-2.5-6.8-2-9.9
	c2.2-11.4-1.5-22-2.6-33.1c-3.1-29.1-4.8-58.3-6.8-87.5c-1.4-21.4,0.4-43.5-4.2-64.2c-5.1-23-3.9-45.6-4.1-68.4
	c-0.2-19.3,4-23.5,23.6-25.9c2.4-0.3,5-0.5,7.1-1.5c6.4-3.1,12.1-2.1,18,1.6c3.7,2.3,8,3.7,12,5.4c6.1,2.5,8.4,7.1,9.5,13.5
	c1.8,10.5,4.7,20.7,7.1,31.1c2,8.5,3.8,17,5.7,25.5L4599.4,380.6z"/>
<path class="st0" d="M2960.1,737.2c-2.5,4.2-5.3,8.4-7.5,12.8c-4.8,9.4-6.4,20.6-15.9,27.6c-1.8,1.3-2.7,5.3-2.5,7.9
	c0.7,8.3-5.1,11.7-10.3,16.3c-15,13.3-32.6,14.6-49.3,7.7c-12.6-5.2-26.2-13.7-33.4-24.6c-15.8-23.7-24.1-51-20-80.3
	c2.7-19.3-0.3-37.7-5.9-55.9c-2.8-9.2-1.9-17.8-0.4-27.2c2.3-14.4,3-28.9,2.2-43.4c-0.4-9.4-1.1-18.1,7.8-23.2
	c9.1-5.2,17.3-2.1,25.7,3.7c8.6,6,12.4,13.2,11.8,23.4c-0.8,13.6-2.6,27.3-1.7,40.9c0.9,14.8-4.2,29.6,1,44.5
	c2.3,6.6,0.3,14.6,0.9,21.8c1.9,21.8,4.2,43.6,6.4,65.4c0.4,2.9,1.2,5.8,2.3,8.5c3.1,8.4,8.7,10.2,15.7,5c1.6-1.1,3-2.5,4-4.2
	c14.3-27.5,33.5-52.5,39.5-84c3-15.7,8.7-30.9,13.2-46.3c4.4-15,7.4-30,5.1-46.1c-1.4-10.4,0.9-21.3,1.6-32c1-14.6,1.8-29.2,3-43.8
	c1-12.1,16-24.2,28-22.6c2.9,0.4,5.5,1.9,7.2,4.2c10.1,15.6,18.5,31.6,20.8,50.9c3.4,28-2,55.5-1.9,83.2c0,22.3,0.8,44.6,1.3,67
	c0.1,2,0.3,3.9,0.3,5.8c-0.9,31.7,6.6,61.8,16.3,91.7c3.7,11.7,6,23.7,6.9,35.9c1.2,14.2-5.8,19.5-19,14.3
	c-19.2-7.5-31.4-22.7-38.8-41.5c-6.4-16.4-9.7-33.9-9.6-51.5c0-3.6-1.2-7.2-1.9-10.9L2960.1,737.2z"/>
<path class="st0" d="M3404.3,823.1c-15.1-2-26-10-35.6-19.9c-6.5-6.8-11.2-14.5-10.8-24.8c0.2-4-1.8-8.2-3.1-13.1
	c-11.2,3.4-16.7,11-19.2,19.6c-2.3,8.5-7.5,15.9-14.7,21c-3.5,2.6-6.3,6.2-8.9,9.6c-4.4,5.8-10.4,8-16.8,6.2
	c-9.3-2.5-18.3-6.2-27.4-9.6c-5.8-2.2-11.5-4.6-17.3-6.9c-1.8-0.7-4.4-0.8-5.3-2.1c-9.1-13-21.2-24.5-18.7-42.8
	c0.9-6.5-0.7-13.3-1.1-20c-0.1-2.4-1.2-5.5-0.1-7c6.1-8.2,7.4-16.6,2.9-25.9c-0.6-1.1-0.2-3,0.2-4.3c7.1-19.6,13.3-39.7,21.9-58.6
	c9.2-20.4,25-36.8,37.9-55c15.6-22,36.5-32.8,63.5-31.4c2.9,0,5.8,0.5,8.6,1.4c12.9,4.9,25.8,8.6,39.9,7.8c7.4-0.4,11.6,4.8,13,11.7
	c1,4.7,0.9,9.7,1.1,14.6c0.5,10.2,1.1,20.4,1.3,30.7c0.1,3.4,0.3,7.2-1,10.1c-5.9,12.5-2.8,25.9-4.7,38.8c-0.4,2.4,0,4.9,1,7.1
	c3.7,7.1,3.8,14-0.1,21c-3.6,6.5-1.3,12.4,1.8,18.1c9.6,17.4,10.7,36.3,10.4,55.5c-0.1,5-0.2,10.1-6.6,11.4s-6.6,5.7-6.3,11.1
	C3410.8,810.5,3410.5,811.3,3404.3,823.1z M3351.8,597.3l-4.4-2.1c-9.9,6.2-21,10.9-27.8,21.5c-10.8,16.6-19.8,34.3-26.8,52.8
	c-9.5,25.5-9.6,51.4-11.8,77.4c-0.5,7.1,3.5,13.8,10,16.8c6.5,3.2,10.8-2.7,15.3-6c2.3-1.8,4.3-4,5.8-6.5
	c7-11.6,13.9-23.3,20.5-35.1c2.6-4.7,5.2-9.5,6.5-14.6c5.1-20.6,13.6-40.6,10.9-62.7c-0.6-4.7,1.6-9.6,1.8-14.4
	C3352,615.4,3351.8,606.3,3351.8,597.3z"/>
<path class="st0" d="M3554.1,524.9l66.8-3.5c-3.3,11.9-3.1,22.2-12.1,29.5c-2.9,2.3-4.2,7.2-5.1,11.2c-2.1,9.8-8.6,14.3-17.8,11.2
	c-5.2-1.8-9.9-7.7-15.9-2.1c-6.7,6.3-14.7,11.8-14.9,22.4c0,1.5-0.1,2.9-0.2,4.4c-0.9,14.1-3.1,28.3-2.3,42.3
	c1.2,19.4,5,38.6,7.2,58c3.2,27.6,6,55.2,8.6,82.8c0.3,3.3-1.5,8.6-4,10c-7.6,4.3-8.9,10.5-9.4,18.3c-0.8,13.3-7.4,17-19.6,11.5
	c-4-1.8-7.5-4.9-11.6-6.1c-15.1-4.4-18.4-15.7-18.9-29.4c-0.7-20-1.9-39.9-2.9-59.9c0-1.5-0.1-2.9-0.5-4.4
	c-6.8-22.3-3.1-45.5-5.2-68.1c-1.3-13.6-2.1-27.3-4.4-40.7c-1.1-6.4-4.8-12.6-8.5-18.1c-3.5-5.3-8.8-6.4-15.5-3.9
	c-12.5,4.6-29.7-6.3-31.9-19.2c-1-5.8,1.8-9.8,6.8-11.5c6.5-2.1,13.2-3.6,19.9-4.3c30.6-3.3,39.9-15,35.6-45.7
	c-2.9-20.8-5.8-41.6-9-62.3c-2.9-19.2-5.6-38.5-9.3-57.6c-2.9-14.8-7.6-29.2-11.1-44c-3.3-13.5-0.7-15.9,12.9-13.5
	c6.7,1.1,13.5,1.9,20.2,2.4c11.2,0.8,15.8,6.7,14,18.2c-0.4,2.8-0.8,6,0.3,8.4c4.2,9.9,9.1,19.4,13.3,29.2c2.6,6.2,3.9,12.9,6.6,19
	c3.2,7.4,3.2,16.2,11,21.8c2.6,1.9,4,6.7,4.2,10.3c0.6,10.2,1.6,20.7-0.1,30.6C3548.3,489.6,3553.9,506.1,3554.1,524.9z
	 M3544.8,444.9c-0.6-0.5-1.3-1-2-1.5c-0.1,0-0.9,0.7-0.8,1c0.3,0.8,0.6,1.5,1.1,2.2L3544.8,444.9z"/>
<path class="st0" d="M1336.6,1192c-0.1,0.9,0.1,1.7-0.3,2.2c-4.1,6.3-7.5,13.3-14.9,16.3c-3.8,1.5-7.9,2-11.9,2.9s-8,1.5-11.9,2.8
	c-2.8,1.1-5.9,0.8-8.5-0.7c-7.5-4.2-15-8.6-22.9-12.2c-6.1-2.6-11.5-6.5-16-11.3c-14-15.8-29.1-30.8-39.7-49.4
	c-2.7-4.7-4.7-9.8-6.9-14.7c-0.3-0.6-0.3-1.5-0.8-1.9c-6.5-5.7-8.2-14.6-14-20.8c-2.4-2.6-4.8-4.8-8.8-4.3c-4.6,0.6-7.2-1.9-9-5.8
	c-0.7-1.7-1.5-3.3-2.1-5c-1-2.7-0.3-4.7,1.9-6.7c2.3-2.1,4.4-4.4,6.2-7c3.3-4.7,8.4-5.8,11.9-1.2c4.9,6.5,11.5,8.5,18.7,10.2
	c14.1,3.2,26.6,10.6,39.8,16.2c8.8,3.7,17.6,7.4,26.3,11.4c4.1,1.9,8.5,3.8,11.8,6.7c9.4,8.2,19,16.4,27.2,25.8
	c6.8,7.8,12.4,16.9,17.2,26C1333.4,1177.7,1334.5,1185.2,1336.6,1192z M1297.2,1188.7c5.9,0.3,11.2-1.6,16.1-4.8
	c4.1-2.7,4.5-4.8,2.7-9.3c-1.6-3.8-3.9-7.2-6.7-10.1c-6.7-7.1-13.2-14.4-22-19.2c-1.4-0.7-2.3-2.2-3.6-3.2c-3.3-2.5-6.3-5.7-10-7.1
	c-10.5-4-18.7-12-29.4-15.6c-10.1-3.4-18.7-10.6-29.7-11.9c-1.8-0.2-3.8,0.5-5.7,0.8c0.5,1.8,0.6,3.9,1.5,5.5
	c2.1,4,5.2,7.6,6.8,11.8c3.9,10.2,10,19.5,17.9,27.1c5.8,5.7,13,10.1,16.9,17.7c0.4,0.6,0.9,1,1.5,1.4
	C1266.2,1182.2,1280.5,1188.6,1297.2,1188.7L1297.2,1188.7z"/>
<path class="st0" d="M248.4,711.8c8.3-0.8,15,1,21.6,4c8.2,3.8,17.2,4.2,25.9,5.7c5.6,1,11.4,1.5,16.5,3.7c9.4,4,18.3,9.1,27.4,13.8
	c0.8,0.4,1.6,0.9,2.1,1.7c5.9,8.5,14.6,13.6,22.5,19.7c3.1,2.4,5.7,5.2,7.9,8.4c7.2,11.4,15.2,22.2,23.9,32.5
	c4.5,5.2,2.7,10-4.1,11.2c-4.3,0.7-8.7,0.8-13,0.2c-10.1-1.3-20.2-3.1-30.3-4.9c-10.8-1.9-21.5-4-32.2-6c-1.1-0.3-2.2-0.7-3.2-1.1
	c-8.4-2.7-16.8-5.6-25.3-8.1c-12.8-3.7-25.1-8.2-36.6-15c-8.7-5.1-15-12.5-20-21.1c-0.9-1.6-1.5-3.3-1.9-5.1
	c-1.2-4.6-2.1-9.3-3.5-13.9c-1.6-4.9-0.7-10.2,2.3-14.3c0.3-0.4,0.6-0.7,0.8-1.1C233.7,714.3,239.7,709.5,248.4,711.8z M366.2,786.6
	c-3.4-5.5-7.9-10.2-13.2-13.8c-5.3-3.8-10.5-7.9-16-11.5c-7.4-4.8-14.8-9.8-22.6-13.9c-14-7.2-29.6-8.8-44.7-12.2
	c-4.9-1-10-1.4-15-1.4c-5.2-0.1-9.4,4.1-8.8,9.1c0.6,5.2,2.4,10.2,7.1,13.5c3.2,2.2,6.4,4.4,9.4,6.8c5,4.1,10.6,5.7,17,6.3
	c5.4,0.4,11,1.2,15.9,3.2c9.6,3.9,19.5,6,29.7,7.7c5.2,0.8,10.3,2.2,15.1,4.3c5.8,2.6,11.8,3.4,17.9,3.7
	C360.4,788.5,362.7,787.4,366.2,786.6L366.2,786.6z"/>
<path class="st0" d="M3146.4,355.2c0.6,24.3,3,48.8,1.3,72.9c-1.3,19.5-3.1,38.3,1.6,57.7c2.6,10.5,1.4,22.2-3.2,33.1
	c-2.1,5-1.6,11.5-1.1,17.3c1.3,13.1,3.3,26.2,5,39.2c1.5,11.1,6.4,14,17,10.3c1.4-0.4,2.8-1,4-1.9c16.8-12.9,37.5-12.7,57-16.5
	c2.9-0.4,5.9-0.3,8.7,0.4c7.8,1.6,9.4,4.8,6.9,12.5c-1.5,4.6-3.1,9.2-4.6,13.9c-4.8,15.1-6.1,15.7-21.9,17.8
	c-6.6,0.9-12.8,4.4-19.1,6.9c-3.2,1.2-6.1,3.1-9.3,4.3c-18.2,7.1-28.3,19.2-27.9,39.9c0.2,9.4-6.1,18.5-3.7,28.6
	c1.2,5.1,1.5,10.5,2.6,15.7c2.4,10.5,2.1,21.3-0.8,31.7c-2.6,9.5-2.2,20.2-1.4,30.2c0.8,9.4,1.2,18.2-1.8,27.4
	c-2,6.2-1.7,13.4-1.3,20c0.7,12.5-3.6,15.7-15.6,11.7c-24.9-8.3-36.5-27-38.1-51.6c-1.6-24.2-5.7-48.4,1.1-72.8
	c4.1-14.9-0.7-30.1-5.1-44.7c-2.6-8.4-7.4-11.2-15.8-7.5c-14.8,6.3-25.6-0.5-36.2-8.8c-7.8-6-7.1-13.7,1.4-18.9
	c3.6-2.2,8.1-3.3,12.3-4.4c9.9-2.6,20-4.6,29.9-7.4c13.5-3.9,18.9-12.5,17.2-26.5c-1.1-9.2-2.8-18.3-3.7-27.6
	c-0.7-5.8-0.7-11.6-0.1-17.4c1.9-13.8,1.9-27.2-2.6-40.5c-4.3-12.6-3.8-25.7-4.4-39c-1.3-33,10-64.7,8.8-97.5
	c-0.3-7.8-0.1-15.5-0.2-23.3c-0.5-18.1,18.7-31.4,35.4-24.5c5.7,2.4,8,7.1,8.1,12.8c0.2,8.8,0.1,17.6,0.1,26.4L3146.4,355.2z"/>
<path class="st0" d="M1252.3,872.2c-5.7,2.7-11.3,2.7-17,1.4c-4.1-0.9-9.9-6.6-10.6-10.5c-0.7-3,1.2-6,4.2-6.6
	c0.3-0.1,0.7-0.1,1-0.1c9.5-1,17.3-6.6,26.4-8.7c8-1.8,15.9-3.9,23.9-5.6c7.8-1.7,15.6-3.1,23.3-4.8c1.8-0.4,3.5-1.1,5-2.2
	c2.9-2.2,6.2-2.5,9.7-2.7c2.9-0.3,5.8-0.8,8.7-1.4c1.1-0.2,2.3-0.8,3.3-0.5c7.5,2.2,14.9-0.1,22.3,0.1c8.6,0.4,17.3,1.3,25.8,2.7
	c2.1,0.3,3.9,2.1,5.8,3.4s3.4,3.1,5.4,4.1c7.5,3.8,10.2,11,12.3,18.1s0,14.2-2.7,20.7c-2.6,6.2-6.6,12-10.4,17.6
	c-1.3,1.9-3.8,3.3-6,4.4c-6.6,3.5-14.2,5-21.6,4.1c-5-0.6-10-1.1-15-1.7c-6.8-0.8-13.4-1.8-20.4-0.6c-6.7,1.2-13-1.5-18.7-5.2
	c-2.8-1.9-5.9-3.4-9.1-4.6c-10.6-3.5-21.3-6.8-31.9-10c-2.2-0.7-4.4-1.2-6.6-1.6c-5.5-0.8-5.4-0.8-6.4-6
	C1253,874.7,1252.7,873.7,1252.3,872.2z M1278.5,863c2.5,1.8,3.7,3.2,5.1,3.5c9.3,2.1,16.9,7.6,24.9,12.2c1.4,0.8,2.9,1.4,4.2,2.2
	c3.5,2.2,7.2,2.3,11.2,1.6c2.6-0.5,5.6-0.8,8,0c12.2,4.1,25.3,4.2,37.5,0.3c4.7-1.2,8.5-4.7,10.2-9.2c1.6-4,2.6-8.2,3.9-12.4
	c1.1-3.5-0.2-6.1-3.4-7.1c-4.1-1.2-8.3-2.1-12.6-2.7c-3.6-0.5-7.3,0-10.9-0.7c-8.7-1.6-17.3,0.1-25.7,1.5c-9.3,1.5-18.3,5-28,5
	c-5.8,0-11.7,1.8-17.5,3C1283.6,860.7,1281.8,861.7,1278.5,863L1278.5,863z"/>
<path class="st0" d="M1627.5,1356.1c-7.3,0.3-12-4-16.3-9c-0.8-0.9-1.3-1.9-2.1-2.8c-2.8-3.5-3.3-7.4-3.1-11.9
	c0.3-6.1,2.6-11.9,6.6-16.6c1-1.2,1.7-2.8,2.8-4c1.2-1.8,3.2-2.9,5.3-3c0.6,0,1.2-0.1,1.7-0.4c4.2-2.8,8.8-2.1,13.3-1.4
	c2.3,0.2,4.3,1.6,5.2,3.7c0.5,1.2,1.3,2.2,2.2,3.1c4.4,4,6.1,9,6.2,14.8c0,2.3,0.2,4.7,0.6,7c0.6,3.9,0.3,7-3.6,9.4
	c-2.9,1.8-5,4.9-7.8,7.1C1635.5,1354.6,1631.6,1356,1627.5,1356.1z"/>
<path class="st0" d="M2856.7,1455.7c-1-24.2-1.9-48.3-2.9-72.5c-0.3-8.2-1-16.4-1.1-24.6c-0.3-24.2-0.2-48.3-0.8-72.5
	c-0.2-6.8,2.6-9.2,8.8-10.1c8.5-1.2,16.8-3.6,25.3-4.5c4.3-0.3,8.5,0.4,12.4,2.2c6.2,2.7,11.5,2.4,17-1.6
	c16.1-11.7,35.2-16.1,53.8-21.6c16.7-5,33.5,0.8,50.2,0.1c5.2-0.1,10.3,0.1,15.5,0.6c3.8,0.3,7.9,0.7,11.3,2.2
	c2.4,1,5.6,4.1,5.5,6.1c-0.1,2.8-2.4,6.7-4.8,8c-4.4,2.3-9.7,4.2-14.6,4.1c-6-0.1-10.5,1.7-15.5,4.9c-5.2,3.4-11.6,5.3-17.7,7
	c-5.8,1.6-11.9,2.2-17.9,3c-9.1,1.2-16.2,4-19.2,14.3c-1.4,4.9-7.1,8.5-10.5,12.9c-2.8,3.7-6.4,7.3-7.6,11.6
	c-2.8,9.5-3.2,19.8-11.8,26.6c0.8,9.3-6.4,16.1-8.3,24.1c-4.2,18.3-7.7,37.2-8,56c-0.3,17.4,2.8,34.6,0.6,52.4
	c-1.2,9.7-1.9,16.4-11.1,20.5c-2.3,1-4.2,3-6.4,4.4c-16.8,11.6-36,4.8-39.9-15c-2.5-12.6-2.7-25.7-4-38.6L2856.7,1455.7z"/>
<path class="st0" d="M3734.3,680c-0.6,5.3-1,10.7-1.8,16c-1.8,13.5-2.5,27.1-2.3,40.7c0.2,21.8-3.5,43.7-5.6,65.5
	c-8.2,10.1-15.6,21-24.8,30.1c-5.2,5.2-12.4,3.6-18.3-2.2c-8.5-8.4-12.9-17.1-10.8-30c1.6-9.8-1.1-20.3-1.8-30.5
	c-0.9-12.2-1.7-24.3-2.6-36.5c-0.5-7.3-1.3-14.6-1.7-21.9c-0.3-5.3-1.8-11.3-0.1-16c4.5-12,4.3-23.8,2.2-36
	c-0.6-3.3-0.8-7.2,0.4-10.2c8.9-22.6,1.5-45.3,0.5-67.9c-0.7-15.1,2.1-19.4,17.4-20.2c11.2-0.6,22.4-1.7,33.5-2.3
	c8.4-0.5,11.2,2.4,11.8,11c1.4,21.4,2.9,42.8,4.5,64.2c0.2,2.4,1.6,5.4,0.7,7.2C3728.9,653.8,3735,667,3734.3,680z"/>
<path class="st0" d="M3712.6,408.4c2.9,0,5.9,0,8.8,0c20.5,0.2,30.6,17.4,19.8,34.9c-5.6,9-12.6,17.1-19.4,25.4
	c-2.2,2.6-5,4.7-8.2,6c-18.4,7.2-34.2,5.9-39.7-19c-1.4-6.1-3-12.6-2.3-18.7c2.4-19.9,13.4-28.7,33.6-28.5
	C3707.7,408.5,3710.1,408.4,3712.6,408.4z"/>
<path class="st0" d="M2007,1233.8l4.9-2.6c0.6,1.3,1.7,2.6,1.7,3.9c0,0.7-1.9,2.3-2.5,2.1C2009.9,1236.8,2008.9,1235.5,2007,1233.8z
	"/>
<path class="st0" d="M1291.4,1103.8l0.9,0.6c-0.2,0.3-0.4,0.5-0.7,0.8c0,0-0.5-0.2-0.4-0.3
	C1291.2,1104.5,1291.3,1104.2,1291.4,1103.8z"/>
<path class="st0" d="M789.7,1089.4c-1.8-1.1-3.7-3.3-5.5-3.2c-10.4,0.7-13.9-6.8-17.6-14.2c-5.7-11.4-10-23.2-10-36.1
	c0-4,1.1-7.9,3.1-11.3c3.8-6,8.7-5.1,11.2,1.7c3.1,8.3,5.3,17,8.5,25.2c3.9,9.9,8.6,19.4,12.6,29.3c0.9,2.3,0.4,5.1,0.5,7.7
	L789.7,1089.4z"/>
<path class="st0" d="M905.3,1060.8c-2.4-5.9-6.8-12-6.7-18c0.1-5,4.7-10.6,8.7-14.7c1.8-1.9,7.1-1.9,10.1-0.9
	c6.6,2.2,11.5,2.1,15-4.8c0.7-1.3,3.5-1.6,5.3-2.4c0.3,2,1.5,4.4,0.9,6c-2.5,6-6.4,10.9-12.8,13.2s-11,5.7-11.5,13.3
	C913.8,1056.8,911.5,1060.2,905.3,1060.8z"/>
<path class="st0" d="M862.9,1009.5c0.3,2.4,1.7,5.2,0.8,7c-3.8,8-4.3,16.3-4.9,24.9c-0.2,2.6-3.3,5.1-5,7.6
	c-2.3-1.6-5.4-2.7-6.7-4.9c-2.5-4.1-4.3-8.6-5.4-13.3c-2.2-10,5.7-20.5,15.9-21.7C859.3,1009.1,861.1,1009.2,862.9,1009.5z"/>
</svg>
