<svg id="Layer_1" data-name="Layer 1" xmlns="http://www.w3.org/2000/svg" viewBox="0 0 4879.05 1814.01"><title>storylab</title><path d="M996.78,681.22c2.46,1.68,4.74,3.27,7.06,4.81,1.89,1.24,4.45,2,5.62,3.69a32.86,32.86,0,0,0,10.59,9.39,16.89,16.89,0,0,1,5.68,5.81c1.63,2.89,3.17,5.48,6.52,6.51a1.74,1.74,0,0,1,1,.83c2,5.09,6.39,7.87,10,11.53,9,9,17.38,18.55,25.82,28.06,3.45,3.89,6.31,8.3,9.61,12.33a99.58,99.58,0,0,0,9.48,10.69c5.57,5.09,8.43,11.85,12.18,18.08.92,1.53,1.67,3.69,3.06,4.32,4.75,2.15,5.9,6.38,7.83,10.6,4.22,9.3,9.21,18.25,13.85,27.36a34.14,34.14,0,0,1,1.85,4.36c.46,1.28.32,3,1.15,3.89,5.31,5.5,5.74,13.25,9.22,19.59a13.58,13.58,0,0,1,1.87,6.46,75.58,75.58,0,0,0,3.75,26.22c.67,2,.07,4.49-.19,6.72-.53,4.51.23,8.69,3,12.28,5.39,6.84,7.12,14.38,5.92,23.07-1.52,11-2,22.2-3.42,33.25-1.77,13.84-4.89,27.34-10.95,40.11-2.69,5.65-6.41,11.07-6.59,17.75a6.75,6.75,0,0,1-1.29,3.13q-6.09,9.64-12.28,19.23c-.25.38-.7.66-.85,1.07-3.53,9.56-11.07,17.3-12.62,27.79a13.31,13.31,0,0,1-1.75,4.36c-2.67,4.72-5.16,9.58-8.24,14-3.48,5-7.46,9.67-11.34,14.4-.84,1-2.49,1.47-3.17,2.55a50.41,50.41,0,0,1-12.79,13.87c-2.43,1.83-4.55,4-7.36,5.57-3.28,1.85-6,4.76-8.81,7.36-2.67,2.47-4.72,6-7.79,7.57-8.73,4.58-15,11.83-21.78,18.55a19.12,19.12,0,0,1-10.54,5.7c-7.77,1.42-13.79,5.46-17,13.27-1.16,2.81-3.54,5.34-5.89,7.41-7.32,6.4-12.61,14.35-17.81,22.39-.84,1.31-1.09,3-1.74,4.43-1.94,4.33-3.94,8.64-5.9,13-.43,1-.76,2-1.35,3.56l5.91-2c2.23,6,2.06,6.52-2.19,9.17-4.68,2.9-8.73,6.16-11.3,11.45-1.72,3.55-5.19,6.28-8,9.28-4.85,5.21-4.7,6.81-.55,12.21,4,5.18,7.13,11,11,16.24s6,10.81,4.49,17.54c-.73,3.31.93,6.31,3.56,8.46,4.45,3.65,5.35,8.4,4.15,13.61-1.63,7-1.37,14.4-5.07,21.15-1.17,2.13.31,7.33,2.34,9.31,5.86,5.72,4.46,13.06,5.85,19.76,1.14,5.52-1.66,10.15-3.94,14.12,3,4.34,5.92,8,8.11,12.17.88,1.66.92,4.92-.15,6.21-2.3,2.76-2.48,5.72-2.8,8.9-.67,6.54-1.83,12.84-10.71,15.21,2,2,3.29,3.46,4.74,4.64,7.43,6.08,8.75,17.74,2.1,24.78s-7.59,14.83-6.31,23.84c.94,6.55-2.62,12.18-7.18,16.24a33.11,33.11,0,0,0-9.64,14.37c-2.3,6.45-4.19,13.5-10.3,18.12-2.07,1.56-3.57,4.22-4.68,6.67-1.75,3.92-4.61,5.36-8.66,5.37-1.56,0-3.59,0-4.62.86-5.05,4.39-11.36,4.44-17.36,5.47-5.11.87-8.45,3.54-11.36,7.83a125.86,125.86,0,0,1-14.73,18.6c-3.38,3.39-8.41,5.37-13,7.31a125.84,125.84,0,0,1-32.85,8.66c-6.24.81-12.38,1.46-17-4.18a1.19,1.19,0,0,0-.54-.41c-9.07-1.88-12-10.34-17.39-16.18-1.08-1.17-1.93-2.55-3-3.77-3-3.54-6.52-5.49-11.44-4-8.13,2.52-16.29.53-24.41-.37a12.29,12.29,0,0,1-8.74-4.77c-1.47-1.86-4.35-2.54-6.06-4.28-5.06-5.13-10.23-10.22-14.62-15.9A21.19,21.19,0,0,1,720,1535c.59-6.76-1.28-11.65-8-15-8.34-4.16-9.85-13.16-12.36-21.11a19.55,19.55,0,0,1-.76-8.81c.78-4.74-1.43-7.64-4.36-10.81-10.14-11-13.69-24-10.37-38.53a28.68,28.68,0,0,1,4.28-9.2c2.31-3.48,2.5-6.42.26-10.07-7-11.38-6.46-24-5.21-36.57.38-3.81,2.5-6.88,7.08-7.07a25.4,25.4,0,0,0,4.26-1.07c-2.26-4.18-4.14-8-6.29-11.58s-5.06-6.6-6.53-10.32c-1.28-3.21-2.11-7.36-1.18-10.52,1.83-6.25,4.81-12.22,7.74-18.09,1.39-2.79,2.33-5.14,1.34-8.36-2.48-8.1,1.33-17.73,8.59-22.74,5.19-3.58,4.93-3.52,3.6-9.31-.92-3.95-.92-8.11-1.48-12.15q-1-7.41-2.31-14.78c-.9-5.16-2.87-10.33-2.69-15.44.25-7.52-3.72-13-7-18.94a111.83,111.83,0,0,0-6.87-11c-3.11-4.41-5.39-9.6-10.9-11.94a8.56,8.56,0,0,1-3.43-3.28c-6.06-9.47-15.65-14.23-25.13-19.23a57.38,57.38,0,0,1-8.28-5.81c-7.48-5.86-15-11.63-22.26-17.81-5.34-4.56-10.17-9.71-15.2-14.62-1.46-1.43-2.56-3.51-4.28-4.34-5.81-2.78-9.75-7.38-13.45-12.38a22.49,22.49,0,0,0-4.79-4.85c-6-4.31-10.7-9.85-15.23-15.64-3.48-4.46-7.68-8.36-11.41-12.64-5.67-6.5-11.4-13-16.74-19.75a77.49,77.49,0,0,1-7.13-11.64c-3-5.58-4.67-11.71-8.46-17.06-3.06-4.34-4.45-9.77-5.27-15.37-1.72-11.7-4.49-23.25-6.65-34.9A68.72,68.72,0,0,1,502,980.76c-.15-11.6-.09-23.21,0-34.81a37.77,37.77,0,0,1,.69-6.79c3.26-17.55,4.29-35.23,5-53.06.54-14.29,3.83-28.47,12-40.89a42.07,42.07,0,0,0,3.32-6.73c2.8-6.67,5.17-13.55,8.37-20,2.79-5.67,6.51-10.88,9.77-16.32,4-6.64,8.1-13.22,11.87-20a122.49,122.49,0,0,1,14.76-21.28c8.1-9.24,15.15-19.48,23.8-28.15,11.08-11.11,23.3-21.09,35-31.56a29,29,0,0,0,4.49-4.2c6.16-8.5,15.22-13,24.19-17.42,8.58-4.24,17.56-7.67,26.25-11.7,6.41-3,12.77-6.1,18.91-9.59a87.38,87.38,0,0,1,39.72-11.19c7.93-.39,15.8-2.11,23.69-3.22a40.39,40.39,0,0,1,4.75-.63c17.07-.49,34.15-.86,51.22-1.4,10-.32,20.05-1.15,30.07-1.28a129.19,129.19,0,0,1,17,1.33c5.87.71,11.7,1.8,17.54,2.74a26,26,0,0,1,4.7.85,180.91,180.91,0,0,0,46.27,10.31c1.8.16,3.84.32,5.3,1.23,6.78,4.25,14.76,4.45,22,6.95a13.26,13.26,0,0,1,2.61.82c4.41,2.7,8.46,6.79,13.22,7.88,5.49,1.26,9.74,3,13.14,7.52C992.43,681.17,994.91,680.88,996.78,681.22ZM855.65,1112.44l1.53-.14c.51-1,1-1.89,1.53-2.84,3.8-7.25,5.75-8,13.7-5.8,2.63.75,5.33,1.24,8,1.85s4.52-.13,5.32-2.86a8.34,8.34,0,0,1,8.34-6c4.46.06,6.59-2.16,8.89-5.11,2.59-3.32,6.32-5.42,10.22-3.84,4.06,1.64,7.78,4.46,11.19,7.31,2.39,2,3.94,5,6,7.38,3.82,4.4,3.85,5.08,1,10.15q-3.52,6.18-6.63,12.6c-1.57,3.25-2.86,6.64-4.2,10-.66,1.67-1.15,3.42-1.74,5.13-1.17,3.4-2.26,6.83-3.55,10.17-.91,2.33-2.14,4.52-3.16,6.79-1.35,3-2.64,6-4.05,9.2,3,13.61-1.42,25.86-9,37.4-1.05,1.6-2.7,3.79-2.3,5.21,2.67,9.49-2.6,17.83-3.73,26.73-.44,3.53-2.54,7-3.27,11a76.13,76.13,0,0,0-.93,17.64c.21,4.2,1.69,8.43,3.18,12.43a8,8,0,0,0,4.25,4.09c3.18,1.22,6.66,1.66,9.94,2.4-.18-3.07-1-6.48-.43-9.64,1.13-6.26,2.92-12.4,4.63-18.54,1.33-4.82,2.24-10,4.59-14.26,5.92-10.79,12.24-21.4,21-30.3,1.41-1.44,2.3-3.37,3.57-5,3.63-4.62,6.84-9.73,11.17-13.59,3.06-2.74,6.36-4.93,8.32-8.76.88-1.73,2.75-2.94,4.16-4.4,4-4.05,9.2-7.47,11.57-12.3,4-8,12.31-11,17-18.52,2.81,3.56,5.61,6.43,9.63,4.59,5.85-2.69,13-4.19,13.47-13,5.13.21,7.69-3,10.09-6.48a16.58,16.58,0,0,1,3.11-3.61c4.4-3.55,9-6.82,13.36-10.47,2.88-2.44,5.36-5.35,8.31-8.34,1.68-.69,4.15-1.26,6.07-2.63A41.57,41.57,0,0,0,1062,1102a10.58,10.58,0,0,0,2.6-4c2.75-9.68,11.26-15.93,14.79-25.16a66.6,66.6,0,0,1,5.44-10.8c3.79-6.2,8-12.16,11.8-18.34,1.54-2.51,3.28-5.24,3.67-8,1-7.23,5.2-13.08,7.87-19.55,3.17-7.69,8.18-14.69,7.26-23.62a5.28,5.28,0,0,1,.51-2c3.08-9.74,3.35-19.69,2.53-29.8-.55-6.79-.53-13.63-.68-20.44-.09-3.84.15-7.69,0-11.52-.47-8.87-1.11-17.74-1.69-26.61a33.49,33.49,0,0,0-.57-6.12c-2.94-11.22-4.41-22.86-9.67-33.43-1.21-2.44-1.79-5.19-3-7.65-4-8.21-7.7-16.57-12.23-24.46-6.58-11.46-14.33-22.27-20.57-33.89-6.87-12.78-16-23.74-25.22-34.71-8.2-9.78-17-19-25.63-28.49-4-4.38-7.71-9.08-12.18-12.92-6.72-5.78-14.37-10.5-20.95-16.43-11-10-24.76-15.31-37.32-22.53-11.47-6.59-24.68-9.38-38.15-9.73a26.56,26.56,0,0,1-6.05-1c-8.14-2.14-16.38-4-24.37-6.65-18.71-6.12-37.92-4.8-57.06-4.29-16.4.44-32.8,1.31-49.18,2.42a207.42,207.42,0,0,0-23,3.19c-4.19.75-8.24,2.33-12.32,3.68-2.33.77-4.57,1.85-6.86,2.76-6.92,2.75-14.28,4.6-19.68,10.31-1.74,1.85-7.94,2.44-9.48.34-4.09-5.52-8.42-3.12-12.7-1-8.81,4.3-17.62,8.63-26.19,13.38-4.13,2.29-7.8,5.47-11.56,8.4-6.11,4.75-12.11,9.63-18.18,14.43-2,1.56-4.4,2.72-5.89,4.63-10,12.89-23.18,23.19-31.58,37.48-.56.94-1.75,1.48-2.44,2.37-4.58,5.93-9.57,11.61-13.54,17.93-4.71,7.5-8.08,15.86-12.85,23.33a314.29,314.29,0,0,0-23.18,43.32c-5.36,12.31-8.07,25.27-10.53,38.18-2,10.39-.41,21.23-2.93,31.88-1.86,7.86-1.35,16.32-1.58,24.52-.49,17.83-.54,35.62,3.56,53.17.82,3.51.07,7.44,1.15,10.82,3.55,11.05,8.1,21.79,11.33,32.92a67,67,0,0,0,12.89,23.83c5.76,7.08,11.73,14,16.77,21.62a80.81,80.81,0,0,0,12.08,13.85c5.45,5.17,10.78,10.48,15.89,16,8.55,9.18,16.87,18.5,27.49,25.5,7.79,5.14,15.26,10.79,22.56,16.62,5.73,4.57,11.29,9.2,18.57,11.16A11.76,11.76,0,0,1,676,1169c8.28,6.76,16.57,13.5,24.64,20.49,3.25,2.82,7,5.79,8.74,9.51A200.54,200.54,0,0,1,721,1228c2.12,7.12,2.86,14.67,5.17,21.87,1.73,5.39,2.1,11.2,3.51,16.71,3.13,12.25-.08,19.51-11.32,25.22-1.22.61-2.81,2.18-2.74,3.19a4.54,4.54,0,0,0,2.87,3.2,16.93,16.93,0,0,0,6.57-.14c1.75-.32,3.38-1.86,5.07-1.88,7.24-.06,14.48.22,21.25-3,6.27,2.54,12.26-.4,18.38-.86,5.6-.43,8.71-2.23,10-7.6a208.7,208.7,0,0,0,4.35-22.8c1-8.13.47-16.51,2-24.53,2.66-14.26-1.26-27.68-3.84-41.29-2.25-11.82-4.91-23.56-7.38-35.33a3.82,3.82,0,0,1-.07-.68c-.77-16.75-6.08-32.11-14.14-46.65-3.15-5.67-1.15-9.29,5.31-9.39a15.48,15.48,0,0,1,5.93,1.27c5.72,2.33,5.68,2.42,9.62-1.83,5.13-5.54,11.45-6.54,17.9-2.81,1.38.8,2.66,1.78,4.06,2.55,4.11,2.27,6,1.65,8.12-2.62.4-.82.61-1.73,1-2.56,2-4.55,3.46-5.56,8.39-5.18a17.5,17.5,0,0,1,5.93,1.45c7.42,3.42,14.65,7.29,22.17,10.48C852.64,1106.31,855.39,1108,855.65,1112.44Zm-49,17.91c-3.3,2.69-5.23,5-7.71,6.13-5,2.22-5.26,2.69-3.84,8,1.74,6.57,3.08,13.25,4.57,19.9,1,4.21,1.1,8.8,2.92,12.59,5.18,10.76,5.73,22.47,7.65,33.86,1.1,6.53,5.56,13.18.76,20-.19.28.11.89.11,1.34a173.56,173.56,0,0,1-2.43,30.5c-1.25,7.37-3.93,15-.79,22.9,5.81,1.08,11.37,3.61,17.14-.54,1.22-.87,4.05-.43,5.68.35,5.65,2.69,11.64-1.12,17.25,1.19.4.17,1.17-.6,1.79-.87,2.9-1.28,5.77-2.63,8.72-3.77,4.5-1.75,7-5.46,6-10.15-1.43-6.77-1.81-13.3.44-20,1-2.87.26-6.26.41-9.42a19.72,19.72,0,0,1,.59-4.48c.88-3,2-6,3-9,.82-2.59,1.57-5.21,2.29-7.83.78-2.81,1.87-5.61,2.15-8.47a96,96,0,0,1,6.43-26.43,222.34,222.34,0,0,0,9.79-29.73c2.22-9.27,3.61-19,8.31-27.13,3.86-6.66-.33-10-2.46-14.75-1,6.2-4.86,10.28-9.07,14.15a14.63,14.63,0,0,0-2.09,2.7c-2.16,3.32-5.11,3.89-8.91,3.35-5.68-.8-9.89-3.92-13.85-8.21-3.49,4.85-8.48,7.71-9.88,13.49-.3,1.2-2.1,2.53-3.45,2.89-6.71,1.8-14.33-4.31-14.47-11.39,0-2,.25-4.19-.22-6.13-.38-1.56-1.68-2.89-2.58-4.33a19.11,19.11,0,0,0-3.59,2.61c-1.77,2.08-3.16,4.47-4.88,6.6-3,3.76-5.1,4.24-9.54,2.48Zm-3,360.39c-3.06,1.8-5.11,3.94-7.33,4.13-7.94.71-15.93.73-23.32-3.14-1.2-.63-2.51-1.75-3.65-1.62-5.37.58-10.84,1-16,2.48-4.78,1.34-9,2.64-13.71-.37-3-1.89-5.73.58-7.83,2.6a5.09,5.09,0,0,0-1,4.24,5.9,5.9,0,0,0,6,4.63c1.73,0,3.85.31,5.06,1.33,5.57,4.69,14.4,3.62,18.56,10.66.09.15.4.21.62.25,4.66.92,9.28,2.18,14,2.63,6,.58,12.13.42,18.19.76a42,42,0,0,1,6,1.17,53.88,53.88,0,0,0,6.68,1.29q19.44,1.32,38.89,2.4a22.18,22.18,0,0,0,4.7-.56c3.35-.55,6.69-1.15,10-1.72,4-.68,8.47-.53,12-2.2,7.08-3.3,14.6-3.42,22-4.58,8.25-1.3,15.84-3.68,22.1-9.72,2.89-2.78,6.66-4.69,10.16-6.79,2.39-1.43,4.43-2.93,5-6.66-2.92.31-5.37,1-7.73.69-1.58-.17-3.7-1.27-4.34-2.57a5.57,5.57,0,0,1,.77-4.87c2.59-3.2,5.4-6.21,10.47-4.13,1.44.59,4.2-.24,5.45-1.39a73.71,73.71,0,0,0,7.51-8.8c3.67-4.69,3-9.58.41-15.35-8.09,3-16.45,4.42-23.53,9.38a10.56,10.56,0,0,1-4.21,2.07c-8.14,1.11-14.51,5.11-19.7,11.3-1.84,2.2-4,3.67-7.15,3s-5.56.79-8.16,2.53-5.85,3.58-8.64,3.32c-4.25-.38-6.86,1.64-9.89,3.64-2.63,1.74-5.35,4.29-8.22,4.56-10.18,1-20.44,1.15-30.68,1.57-1.81.07-3.7-.55-5.43-.21C811.77,1497.83,806.7,1497.11,803.6,1490.74ZM765.39,1442c-5.3,10-12.57,3.34-19.09,3.39-2.38-3.83-5.91-3.19-9.59-2.76a20.61,20.61,0,0,1-6.11-.66c-7.16-1.37-14.3-2.81-21.44-4.26-2.32-.47-4.66-.88-6.12,1.55s-.79,4.89.94,7q5.91,7.07,12,14a4.2,4.2,0,0,0,1.71,1.08c6.55,2.38,12.54,5.82,19.74,7,13.37,2.23,26.72,4.08,40.16,2.48,14.15-1.68,27.6.76,41.06,4.45,3.93,1.07,8.15,2.49,12,2,8.23-1,16.62-1.73,24.24-5.67a31.83,31.83,0,0,1,7.74-2.68c11.38-2.55,20.65-8,26.39-18.53.33-.6.6-1.24,1-1.8,2.34-3.47,3.07-3.55,6.32-1,1,.79,2.43,2.14,3.25,1.89,6.24-2,13.3-2.06,18.43-6.71,7.62-6.91,17-10.42,26.22-14.18,1.36-.56,3.39-1.56,3.54-2.58a23.83,23.83,0,0,0-.27-8.75c-.28-1.19-2.66-2.71-4-2.66-3.56.15-7.21.31-10.25,3-6.26,5.63-15.62,4.27-22.15,9.48-.29.23-.89.09-1.34.12-3.65.25-7.28.6-10.93.73-3.9.13-7.12,1.1-7.66,4.87-3.06,0-5.54-.31-7.92.06-6.57,1-12.1,6.35-19.38,4.7-.67-.16-1.55.92-2.4,1.19-2.56.81-5.13,1.61-7.74,2.22-1.76.41-3.88,0-5.35.82-3.83,2.17-7.4,1.38-10.82-.33-4.54,5-7.26,6.06-13.36,5.76a20.36,20.36,0,0,0-4.75.16c-9.63,1.85-19.19,3.76-29.13,3.53-4.09-.1-7.94,1-11.71-1.85-1.33-1-3.9-.51-5.88-.38C767.44,1449.11,766.86,1448.73,765.39,1442ZM712.3,1312.19a18,18,0,0,0,2.06,3.24c5.06,4.91,12,5.58,18.22,6.3,10.49,1.21,20.79,3,30.69,6.44,7.4,2.58,14.73,4.62,22.63,4.63,9.77,0,19.54.32,29.31.56,1.13,0,2.24.48,3.36.56,2.7.18,5.4.34,8.1.36,4.77,0,9.56-.36,14.3,0,7.3.57,14.54,1.46,21.56-1.68,1-.43,2.23-.19,3.36-.29q9.36-.81,18.73-1.67a6.39,6.39,0,0,0,1.27-.49c8.34-2.85,16.58-6,25-8.44s16.16-6.19,21.76-13.34c2.59-3.3,2.61-4.19-.35-7.59-.33-.38-1.18-.32-1.66-.43-1,1.79-1.88,3.39-2.77,5-2.53-6.23-3-13.1-10.95-14.52-3.89,5.46-5.41,6-11.19,3-4.91-2.53-9.6-3.38-15-1.32-3.48,1.33-7.48,2.67-11.27.41-6.93-4.13-15-.26-22.08-3.11a2.24,2.24,0,0,0-1.87.62c-2.49,2.58-5.72,2.43-8.91,2.74-7.71.75-15.42,1.53-23.09,2.59-4.69.65-9.28,2.37-14,2.61s-7.91,1.84-9.7,6.1c-2.47,5.87-4.77,11.81-7.27,17.66-1.89,4.44-4.62,5.88-9.26,4.73-2.18-.54-4.73-1.2-6.2-2.7-6.27-6.39-13.86-8.84-22.54-8.73-.21,0-.43-.23-.64-.23a29.46,29.46,0,0,0-5.24.14c-9.35,1.79-18.49,3.12-26.56-4.06C719.28,1308.75,715.89,1309,712.3,1312.19Zm182.19,76.3c-1.86,1.75-3.41,4.38-5.49,4.9a142.67,142.67,0,0,1-20.11,3.62c-8.53.9-17.13,1.22-25.7,1.55-3.83.15-7.67-.45-11.51-.44-6.78,0-13.68-.47-20.31.6-7.21,1.16-14.15,2.58-21.6,1.62a63,63,0,0,0-19.09.23c-10.69,2-20.68-.92-30-4.46-11.84-4.51-24.1-5.78-37.09-8.91a42.09,42.09,0,0,0,1.46,5.12c1.17,2.63,3.13,5.06,3.72,7.79,1.45,6.72,4.91,11,11.87,12.24,1.3.23,2.46,1.22,3.77,1.58,8.82,2.43,16.48,9.18,26.51,7.16a3.09,3.09,0,0,1,2,.37c6.56,3.93,14,4.09,21.21,4.58,10.89.72,21.81,1,32.71,1.16,4.53,0,9.17-1.6,13.57-1,6.35.82,12.12-.77,18-2.19a34.27,34.27,0,0,1,4-.75c11.29-1.37,22.79-1.6,33.35-6.68a23.52,23.52,0,0,1,4.64-1.16q7-1.71,13.93-3.44c4.43-1.1,8.8-2.71,13.3-3.24,13.65-1.59,22.49-10,29.94-20.44,2.24-3.15,2.29-6.71.39-10.64a35.7,35.7,0,0,0-4,1.37c-4.94,2.41-9.85,4.76-15.65,4.08-1.12-.13-2.46.9-3.58,1.59C908.67,1388.42,902.17,1390.09,894.49,1388.49Zm41.88-55.34c-2.73,1.08-4.24,1.44-5.5,2.22-3.09,1.91-6,4.2-9.1,6-3.72,2.1-7.62,3.9-11.5,5.7-3.69,1.7-7.43,3.27-11.18,4.83-2.3,1-4.69,1.69-7,2.68-7.07,3.08-13.87,7.18-22,6.66a138.83,138.83,0,0,0-28.59,1.55,30.09,30.09,0,0,1-6.14-.14c-5-.33-10-1-15-1-5.68,0-11.36,1.16-17,1.11-8-.09-15.91-.84-23.86-1.28a64.89,64.89,0,0,1-21.83-5.27c-6.05-2.55-12.26-5.37-18.66-6.34-10.21-1.56-20.17-3.39-29.5-8-.62-.31-1.63.19-3.11.41.86,1.85,1.37,3.27,2.13,4.56,2.29,3.91,5.08,7.59,6.91,11.7,2.9,6.49,5,7.93,12.23,8.56a129.09,129.09,0,0,1,17.42,3c6.18,1.41,12.16,4.13,18.39,4.88,9.7,1.15,19.54,1.11,29.32,1.59,3.19.16,6.41.14,9.56.58,8.67,1.21,17.19,1.33,25.78-1,3.42-.92,7.22-.52,10.85-.59,1.8,0,3.62.37,5.42.31,13.4-.51,26.8-1.08,40-3.45,8.27-1.49,16.61-2.74,24.8-4.63a30.12,30.12,0,0,0,10.56-4.72,37.75,37.75,0,0,0,9.51-9.48c2.59-3.93,4-8.67,5.66-13.15C935.75,1338.53,935.81,1336.36,936.37,1333.15ZM759.08,1545.4c7.44,10.64,15.13,13.24,26.81,10.67a53.66,53.66,0,0,1,16.24-1c12.29,1.14,24.48,2.42,36.59-1.24,1.7-.52,3.66-.13,5.45-.43,10.78-1.84,21.57-3.69,32.32-5.71,2.7-.5,4.4-2.16,3.33-6.16-3,.51-6.19.26-8.47,1.63-6.28,3.77-12.32,3.79-17,1.14-5,1.16-8.7,3-12.19,2.63-10.19-.91-20.27.78-30.39.61a146.92,146.92,0,0,1-18.39-1.37c-7.39-1.06-14.72-2.62-22-4.27C766.65,1540.89,762.94,1542.27,759.08,1545.4Zm-.89-240.22c9.38,5.75,9.38,5.75,13.82-.33C767.47,1303.76,763.27,1300.82,758.19,1305.18Zm144.66,230.34c-7.26-1.57-8.63-.58-7.89,5.21C898.84,1541.35,901.13,1539.54,902.85,1535.52ZM736.06,1307.6c2,1.34,3.07,2.55,4.32,2.75,1,.16,2.91-.75,3.11-1.52.57-2.31-1.3-3.15-3.19-3.11C739.21,1305.74,738.14,1306.63,736.06,1307.6ZM889.5,1543.49l.26-1.89-4.07-.21-.12,1.5Z"/><path d="M1458.6,1326.22c2.42.59,3.09,2.22,3.23,4,.29,4.08.62,8.17.6,12.26a7.87,7.87,0,0,1-4.34,7.23,6.55,6.55,0,0,0,.37,1.8c1.62,2.84,1.55,5.77,1,8.88-.7,3.69.27,4.71,4,4.8a12.16,12.16,0,0,0,6.36-1.59,19.62,19.62,0,0,1,6.65-1.79,53.79,53.79,0,0,1,8-.37c1.32,0,3,.19,3.88,1,2.9,2.48,6.12,1.55,9.29,1.37,1.26-.07,2.6-.74,3.75-.48,3.15.72,6-.34,9-.8a27.05,27.05,0,0,1,6.21-.42c6.34.5,12.66.71,18.93-.47,2.6-.49,5.08-.81,7.57.41a2.38,2.38,0,0,0,2,0c1.93-1.32,4-1.11,6.12-.94.57,0,1.35.13,1.7-.18,2.22-2,5-1,7.43-1.27,3-.31,3.77.71,3.78,3.92a5.67,5.67,0,0,0,.21,2.07c1.06,2.68.7,5.22-.11,7.91-.55,1.86-.37,3.94-.53,5.92a24.28,24.28,0,0,1-.55,4.86,5,5,0,0,1-2.14,2.54,56,56,0,0,1-5.4,2.45c-.42.19-1,.37-1.17.71-1.29,3-4.18,2.74-6.61,3.16-3.58.61-7.22.9-10.83,1.31-.46.06-1.06.19-1.38,0-3.83-2.53-7.75-.28-11.56-.08-7.34.39-14.58,2.21-22,1.86a5.13,5.13,0,0,0-3.06.51c-2.67,2-5.81,1.82-8.77,2.19-6.39.79-12.84,1.06-19.21,2a29,29,0,0,1-7.27.32c-4.74-.49-6.56,1.94-5.87,6.63a75.4,75.4,0,0,1,.3,9.76c.05,3.14-.15,6.31.19,9.43a8.9,8.9,0,0,1-.55,4.64c-.56,1.39,0,3.22,0,4.85,0,5.74,0,11.47.08,17.21.09,4.08.78,8.16-.61,12.19-.3.89.19,2.06.33,3.1.29,2.08.63,4.16.88,6.26a7.76,7.76,0,0,1-1.65,5.95,7.08,7.08,0,0,0-1.35,5.6,85.27,85.27,0,0,1,.18,9.86,4.35,4.35,0,0,1-.73,2.64c-2.55,2.91-2.43,6.46-2.73,10-.24,2.67-.7,5.33-1,8-.28,2.24-1.7,3.23-3.77,3.5a7.18,7.18,0,0,1-2.1.16c-5.78-1.08-11.12,1.12-16.62,2.14a23.81,23.81,0,0,1-3.79.7,5.42,5.42,0,0,1-5.8-5.31,138.6,138.6,0,0,1,.4-26.32,6.84,6.84,0,0,0,0-1.75c-1.3-8-.49-16.09-.08-24.13,0-.93-.12-1.87-.13-2.8,0-1.75,0-3.5.07-5.25a14.84,14.84,0,0,0,.28-2.44c-.86-6.39.9-12.59,1.29-18.88a6.83,6.83,0,0,0,0-1.75c-1.37-7.3-.9-14.69-1.13-22a20.8,20.8,0,0,1,.43-3.49c.48-3.46-.61-4.53-4.13-4.06a10.83,10.83,0,0,0-2.07.4c-4.84,1.75-9.91,1.45-14.92,1.84-3.71.29-7.35,1.31-11,1.81-4.63.62-9.08,2.33-13.85,2.11a19.33,19.33,0,0,0-4.15.64c-5.88,1.06-11.75,2.17-17.64,3.16a7,7,0,0,1-2.73-.44c-3.27-.9-6.51-1.86-9.77-2.79-2.83-.82-3.6-3.24-4.08-5.66-.85-4.26-1.49-8.56-2.19-12.85-.33-2-.78-3.81-2.81-5-1.48-.84-1.55-2.08-.21-3.14,2.46-2,3.51-4.67,4.35-7.44a3.86,3.86,0,0,1,3.51-3c4.77-.63,9.54-1.26,14.33-1.62,5.14-.38,10.3-.46,15.45-.66a6.91,6.91,0,0,1,2.09.13c4.78,1.39,9.53.5,14.3,0,1.86-.2,3.75-.12,5.62-.16,2.44,0,4.89,0,7.33-.12,4.33-.17,8.66-.51,13-.57a19.73,19.73,0,0,0,6.84-1.35c1.91-.72,3-1.87,2.93-3.88-.21-7,1.23-14-.41-21a13.16,13.16,0,0,1-.1-4.56,93.71,93.71,0,0,0,0-19.67c-.49-5.83-.16-11.72-.37-17.58-.11-3.12-.6-6.23-.92-9.34-.09-.94-.25-1.87-.27-2.8,0-4.59-.12-9.17-.06-13.75,0-1.51.43-3,.57-4.51a13.07,13.07,0,0,0,0-3.06c-.44-3.25.36-4.89,3.61-5.09,6.06-.39,11.86-2.8,18-2.1,1.57.18,3.23-.55,4.84-.55,2.31,0,4.79-.21,6.89.53a6.87,6.87,0,0,1,4.76,6.4c.08,1.65-.09,3.32.14,4.93.28,2,.42,4.14,1.4,5.74,1.64,2.68,1.5,5.39,1.11,8.16-.33,2.3-1.15,4.51-1.61,6.79-.35,1.81-.87,3.73,1.55,4.81.5.22.84,1.38.84,2.1,0,4.55,0,9.11-.32,13.64C1459.91,1319.38,1459.17,1322.59,1458.6,1326.22Z"/><path d="M1156.27,1322.27c-.77-3.33-1.81-6.91-2.39-10.56-.48-3,.24-6.07-.91-9-.37-1,.45-2.31.3-3.42-.44-3.14.82-6.31-.7-9.52a3.87,3.87,0,0,1,2-5.37c1.11-.52.94-1.65.63-2.79-.91-3.42-.18-4.15,3.28-4.07a31.93,31.93,0,0,0,5.13-.62,14.59,14.59,0,0,1,2.4-.38c4.31.11,8.62.5,12.92.39,2.66-.07,5.29-1,8-1.3,3.71-.37,4.93.86,4.8,4.57-.07,1.87-.37,3.73-.44,5.61-.09,2.55-.06,5.12-.09,7.68a3.37,3.37,0,0,1-.05,1.39c-2.47,5.1-.54,10.54-1.14,15.81-.93,8.14-.64,16.41-.91,24.62-.15,4.43-.41,8.86-.59,13.29,0,.94,0,1.88,0,2.82.17,3.39.39,6.78.54,10.18.28,6,.49,12,.8,17.93.12,2.24.7,2.5,2.94,2.27,6.17-.62,12.37-1,18.53-1.78,3.46-.42,6.85-1.41,10.29-2.08a11.73,11.73,0,0,1,4.12-.43,23.79,23.79,0,0,0,12.39-.54c.32-.11.83-.21,1-.05,2.7,2.32,5.9-.07,8.74,1a2.87,2.87,0,0,0,2.08-.12c3-1.57,6.18-1,9.31-1.29a17.5,17.5,0,0,0,6-1.71c3.47-1.74,9.22-1.39,12.27.91a8.81,8.81,0,0,0,3.43,1.54,4.61,4.61,0,0,1,3.51,2.61c1.77,3.73,3.23,7.52,3.41,11.75.06,1.3.86,2.57,1.33,3.85a42.54,42.54,0,0,1,2,5.57,2.83,2.83,0,0,1-2.51,3.61c-4.38.79-8.76,1.69-13.2,0-2.27-.83-2.65-.64-3.84,1.64a3.91,3.91,0,0,1-3,2.12,22.93,22.93,0,0,1-10.42-.25,8.43,8.43,0,0,0-2.4-.27c-2.58.1-5.15.29-7.72.42-4.2.22-8.41.35-12.6.65-5.5.38-11,.9-16.48,1.33a17.93,17.93,0,0,1-3.87.08c-4.94-.7-9.8.09-14.69.61-2,.21-4,0-6,.14-3.64.16-5.12,1.55-5.33,5.17-.13,2.34.11,4.71-.06,7-.23,3.26-.91,6.49-1,9.75a65,65,0,0,0,.61,10.14,39.9,39.9,0,0,1,.51,9.77c-.26,2.52.44,5.13.5,7.7a136.1,136.1,0,0,0,1.12,16.85c.44,2.91-.44,6-.9,9a16,16,0,0,0,.14,7.6c1.2,3.83.7,7.89.33,11.86a2,2,0,0,1-.45,1.3c-2.73,2-.85,4.54-.59,6.8.07.65,1.22,1.3,2,1.7,1.34.69,3,1,2.87,3-.18,2.34-1.91,4.61-3.81,5a48.24,48.24,0,0,1-7.19,1.3,18.69,18.69,0,0,1-5.84-.95c-1.21-.36-2.2-.65-3.27.22-1.3,1.07-2.78.9-4.35.73a25.22,25.22,0,0,0-5.56,0c-3.57.4-8-2.74-8.34-6.38a67.68,67.68,0,0,1,1.21-19.92c.14-.68.56-1.43.38-2-1-3.4.18-6.73.19-10.1,0-3.74,0-7.48-.07-11.22,0-1-.26-2.12-.18-3.16.48-6.16-.35-12.31-.11-18.47.13-3.63.31-7.29-1.09-10.79a2.84,2.84,0,0,1-.21-1.38c1-6.91-1.75-13.74-.39-20.67a5.55,5.55,0,0,0-.33-2.42c-.58-2.09-1.18-2.41-3.31-2-3.22.62-6.43,1.35-9.67,1.78a51.87,51.87,0,0,1-7.68.38c-6.71-.08-13.29.93-19.89,1.94a34.07,34.07,0,0,1-5.25,0,13.34,13.34,0,0,0-2.45,0,66.4,66.4,0,0,1-20.68.39,65.57,65.57,0,0,0-9.51-.11c-2.56.07-2.86.43-3.46,3-.72,3.11-1.86,4.36-4.1,4.5-2.75.18-5.06-.88-5.63-3.7-1-5.1-3.71-10-2.45-15.45a2.47,2.47,0,0,0,0-1.4c-1.56-4.12.73-7.18,2.72-10.39a31.25,31.25,0,0,0,2.78-5.62c1.34-3.63,2.62-4.74,6.42-4.79a35.47,35.47,0,0,1,3.85.32c3.74.34,7.48.65,11.21,1,4,.44,8,1,12.1.07a10.15,10.15,0,0,1,3.48.28c4,.56,7.92,1.55,12,.4a29.22,29.22,0,0,1,5.57-.48,3.92,3.92,0,0,0,1-.09c5.63-2.15,11.66-1.86,17.46-2.9a1.87,1.87,0,0,1,1,0c3.31,1.72,6.6.41,9.9,0,3.56-.44,4.42-1.37,4.45-5,0-1.88,0-3.76,0-5.64a5.14,5.14,0,0,1,.14-2.09c2.46-5,.53-9.71-.76-14.48-.46-1.71-.88-3.43.34-5.06a2.74,2.74,0,0,0,.59-1.63c-.24-3.1-.69-6.18-.86-9.29-.14-2.53,0-5.08.06-7.61s.25-4.91.52-7.35C1155.41,1326.05,1155.85,1324.42,1156.27,1322.27Zm2.6,33.74c-1.34-.76-2.36-.8-3.07.51a1,1,0,0,0,.27.89C1157.35,1358.08,1158.25,1357.64,1158.87,1356Z"/><path d="M4239.35,721c.82-13,1.63-24,2.14-35,.32-6.83.15-13.68.23-20.53.14-12,4.06-22.43,10.26-33,12.12-20.57,22.25-42.3,33.54-63.38,9.28-17.33,20.87-32.84,37.66-43.79a13.74,13.74,0,0,0,2.49-1.54c26.92-28.64,59.51-20.89,91.56-13.56,8.24,1.89,16,7.22,23.13,12.11a16.23,16.23,0,0,1,6.14,10.89c1.05,14.59,3.59,29.07,4.75,43.44,2,24-.9,48.46-1.76,72.72-.25,7.25-.6,14.49-.9,21.74-.1,2.43.55,5.19-.39,7.24-6.79,14.77-2.14,30.47-3.73,45.66-.89,8.52,1.52,17.37,2.39,26.08.47,4.79.82,9.6,1.28,14.4.41,4.27,0,8.92,1.58,12.71,2.21,5.3,1.61,9.09-2.1,13.3-5,5.66-9.59,2.24-14.74-.41-3,4-5.41,8.25-8.81,11.48-8,7.58-18.14,5.57-22.95-4.31-3.59-7.36-6.85-14.89-10.15-22.39-3.83-8.68-9.29-10.33-15.1-2.48-7.35,9.94-17.74,13.36-28.17,17.11-8.28,3-16.92,5-25.65.54-2-1-5.25-1.8-7-.89-16.57,8.82-28.86-3.89-42.54-8.53-6.9-2.34-11.71-8.13-14-15.91-1.78-6-5.25-11.53-8.13-17.18-5.47-10.74-8.16-11-18.83-1.4,4.07,7.87,7.9,16.2,12.56,24,4.77,8,3.94,18.77-3.76,24.22-7.1,5-14.67,9.82-22.71,13a31.67,31.67,0,0,1-43.5-28.37c-1.54-37.17-5.91-74.21-16-109.73-5.45-19.12-11.05-38.2-15.95-57.53-1.8-7.08-7.48-13.18-12.31-21.28-11,10.17-15.65,21.72-20.33,33.29-6.56,16.23-5.13,33.63-7.79,50.43-2.87,18.1-2.06,36.86-10,54.15a23.61,23.61,0,0,0-1.67,14.22c2.26,9.44-.29,17.28-4.9,25.11-1.72,2.91-4,6.15-4.05,9.28-.26,11.62-8,18.23-15.18,25.69-8.74,9.12-19,9.72-29.67,5.71-10.35-3.9-16.65-12-17.33-23.35-.5-8.28-.1-16.62-.43-24.92-.48-12.06-2.19-23.86-9.65-37.34-2.29,5.81-3.63,9.11-4.9,12.44-2.07,5.45-3.11,11.59-6.33,16.23-8.05,11.58-16.76,22.75-25.9,33.49-2.93,3.45-7.87,5.43-12.2,7.43-8.32,3.85-16.9,7.14-25.29,10.84-6.63,2.92-13.08,6.22-19.71,9.14-9,4-17.82,3.68-26.86-.69-4.75-2.3-10.3-2.91-15.44-4.47-9.47-2.89-18.4-6.59-23.89-15.68-1.5-2.47-3.24-5.4-5.63-6.64-12.45-6.47-17.39-19.45-25.45-29.51-9.75-12.18-10.77-28-12-43.17-.87-10.66-.66-21.44-2.18-32-1.22-8.47-1.58-16.44,1.93-24.39a18.1,18.1,0,0,0,1.65-7.08c0-16.83,7.44-30.71,16.32-44.3,3.95-6,6.72-12.93,9.41-19.68,4.44-11.17,11.1-18.67,23.83-21.23,7.8-1.57,15.18-6.27,22.15-10.54,5.61-3.45,10.76-5.53,17.68-5.17,13.54.69,27.16,0,40.74-.12,2.92,0,6-.82,8.71-.06,12.12,3.44,24.13,7.26,36.13,11.1,1.77.57,4.51,1.84,4.7,3.1,2.08,14.31,20.19,20,19.19,35.94,0,.48,1.45,1,4,2.81,1.15-3.85,2.51-7,3-10.35,2.36-15.57,6.76-19.38,21.9-18.81a61.09,61.09,0,0,0,11.64-.47c12.23-2,24.06-3.42,27.35,16.77,8.45-18.1,15.42-32.15,21.59-46.54,5-11.52,14.15-16.84,25.38-20.13,16.69-4.87,32.92-1.5,49.09,2.6,6.68,1.7,9.25,7.18,9.79,13.27,2.51,28.21,18.48,50.89,30.19,75.38,3.27,6.83,5.05,14.52,6.59,22,3.63,17.62,6.83,35.34,10,53.06a104.88,104.88,0,0,1,2,18.73C4228,713,4230.83,717.11,4239.35,721Zm-368.64-14c-3.36,22.79,8,40.68,20.31,57.6,7.55,10.39,18.16,8.77,26.56-1.78,2.7-3.4,5.3-7.62,9-9.37,8.69-4.15,9.41-11.19,10-19.38,1.82-25.26,2.58-50.77,6.94-75.62,3.85-22-1.72-41.6-8.06-61.53-3-9.47-11.79-13.11-20.58-14.32-8.58-1.19-16.2,2.14-21.3,10s-11.09,14.91-15.52,23c-5.3,9.64-14.92,17.23-14.8,29.56.15,15-5,30.39,4.56,44.88C3870.67,694.39,3869.84,701.25,3870.71,707Zm505.14-161.33c-12,5.17-19.11,12.51-22.67,21.27-4.15,10.22-11.47,16.71-19.29,23.15-5.56,4.58-8.57,10-10.36,17-4.45,17.44-9.64,34.7-14.92,51.91-4.9,16-5.16,31.46,1.9,47,1.89,4.17,2.05,9.34,2.14,14.06a28.71,28.71,0,0,0,10.16,21.85c7,6.24,9.77,6,17.92.79,9.26-5.91,17.37-12.48,20.46-23.79.86-3.12,3.4-5.9,5.53-8.54,7.42-9.18,10.57-19.58,10.06-31.33-.74-17.06-1.7-34.14-1.66-51.21.05-21,1.12-42,1.55-63C4376.79,559.14,4376.2,553.38,4375.85,545.65Z"/><path d="M1614.66,1438.69c.29-4.87.65-9.74.87-14.62.26-6,3.21-10.09,8.06-13.56a36.08,36.08,0,0,1,20.91-7.15,34.88,34.88,0,0,1,7.67.91c1.18.25,2.22,1.23,3.29,1.93s2.06,1.45,3.1,2.16c2.73,1.85,4.28,4.67,5.61,7.48s1.85,6.06,4.77,8a2.32,2.32,0,0,1,.72,1.87c-.28,2.42,1,4,2.62,5.46a5.07,5.07,0,0,1,2.13,3.87c0,.34.06.83.28,1,3.34,2.35,2.77,7.15,6,9.62.79.59,1,2.06,1.31,3.17.64,2.23,1.3,4.47,1.74,6.75,1.35,7,3.56,13.88,2.51,21.15-.28,2-.55,4-1,5.91a12,12,0,0,0,.43,6.57c1.18,3.38-.33,6.71-.55,10.07a43,43,0,0,1-.6,5.19c-.82,4.46-1.73,8.92-2.62,13.37a2.07,2.07,0,0,1-.42,1c-4.12,4.63-4.14,10.55-5.13,16.17a21.39,21.39,0,0,1-4.6,10.69c-2,2.41-3.13,5.7-4.35,8.72a9.65,9.65,0,0,1-2.72,4.35c-1.33,1.08-2.17,2.74-3.32,4.06-2.3,2.63-4.68,5.19-7,7.79a36.15,36.15,0,0,0-2.44,3c-1.67,2.33-3.54,4.36-6.38,5.27a5.75,5.75,0,0,0-2.21,1.06c-3.07,2.91-7.11,3.29-10.89,4.35a5.86,5.86,0,0,1-6.85-3c-.73-1.46.07-2.51.93-3.48,2.41-2.73,4.74-5.54,7.32-8.09a102.75,102.75,0,0,0,14.39-18.19c2.12-3.35,4.68-6.44,7-9.65a5.67,5.67,0,0,0,1-1.46c2.77-7.82,5.6-15.63,8.18-23.51a9.48,9.48,0,0,0,.17-5.5,23,23,0,0,1-.54-10.09,7.77,7.77,0,0,0-.22-3.79,27.78,27.78,0,0,1-1.72-11.78c.16-4.85-1.43-9.24-2.5-13.78-1-4-2.08-7.93-3.18-11.89a9.87,9.87,0,0,0-1-2.25c-.86-1.51-1.81-3-2.69-4.48a4.64,4.64,0,0,0-6.13-2.15c-2.39.89-4.78,1.73-7.13,2.75a25.87,25.87,0,0,1-12.12,2.25c-4.44-.32-11.44-7-12.39-12.23-.31-1.73-.55-3.47-.82-5.21Z"/><path d="M4156.57,1111.71c.92,7.14,2,12.35,2.12,17.57.09,4.68,1.25,8.06,5.07,11.17,10,8.16,11,22.48,3.61,32.42-2,2.65-2.54,7-2.28,10.47.24,3.28,2.31,6.47,3.75,9.61,3.29,7.18,7.24,9.3,14.41,6.16,15.82-6.93,31.29-14.63,47.06-21.68,5-2.26,10.51-4.47,15.93-4.91,12.93-1.06,25.95-.9,38.92-1.54,6.36-.31,12.69-1.33,19.05-1.92,2.55-.23,5.27-.7,7.69-.13,15.62,3.72,29.91,9.34,37.28,25.47,1.24,2.71,4.6,5.12,7.52,6.27,6.65,2.6,9.25,7.34,9.52,14,.23,5.6.24,11.24.94,16.78.48,3.71,1.95,7.29,3.06,10.91,1.25,4.06,2.48,8.13,3.91,12.13,5.39,15-3.1,27.83-7.19,41.11-1.41,4.58-6.9,9.37-11.62,11.11-7,2.57-9.91,6.39-9.62,13.29.38,9.06-.92,17.29-9.45,22.7-1.31.83-2.15,2.69-2.8,4.25-4.14,9.88-8.08,19.84-12.27,29.69-1,2.36-2.21,5.07-4.15,6.5-4.51,3.31-7.18,6.78-6.14,12.86.35,2.06-1.53,4.9-3.08,6.82-4.85,6-9.8,11.94-15.19,17.44-3.14,3.2-7.19,5.52-10.87,8.2-1.36,1-3.68,1.59-4.09,2.85-3.28,10.16-12.74,14.47-20.44,19-9.48,5.56-18.45,14.24-31.34,12.23-5.29-.83-9.33,1.57-13.66,5.5-5.36,4.88-13.3,6.8-19.26,11.19-6.84,5-13.41,4.93-20.8,2.34a10.74,10.74,0,0,0-6.35,0c-4.23,1.36-7.32.61-10.38-2.78-8-8.84-17.37-9.36-28.34-5.27-16.38,6.11-25.45.74-29.27-16.47a59.23,59.23,0,0,1-1.62-16.69c3.23-46.15,6.29-92.33,10.45-138.4,1.83-20.26,3.31-40.37,2.55-60.75-.49-13.31,1.45-26.69,1.73-40.06.16-7.73-.67-15.5-1.31-23.24-1-12.48-2.14-25-3.46-37.41-1-9.41-2.57-18.75-3.52-28.16-1.5-15-3.24-30.11-3.82-45.2-.35-9.43,3.7-13.19,13.26-14.29a146.81,146.81,0,0,1,23.32-1.12c2.73.13,7,2.91,7.7,5.33,3.07,10.25,10.64,18.64,10.9,30.22.14,6.07,4.1,12.07,6.7,19.09Zm112.26,101.79c0-.32-.09-.65-.14-1-1.73,0-3.47.14-5.19,0-10.36-1-18.61,1.42-24.43,11.38-2.88,4.91-8.48,8.51-13.43,11.84s-8.79,6.67-10.56,12.53c-1,3.21-3.3,6-5,9-5.87,10.52-12.12,20.86-17.43,31.67-2.94,6-6.35,10.4-13.35,10.42-7.54,0-11,4.21-12,11-1.33,8.52-3.25,17-3.57,25.61-.38,9.75-1.38,18.94-7.42,27-3.41,4.57-4.22,10-.76,14.56,5.77,7.61,5.71,16.17,5.33,24.83s1.51,15.48,11.66,17c1.93.29,4.48,1.62,5.31,3.22,4.36,8.29,10.79,5.49,16.88,3.4,23.47-8.08,40.53-24.57,55.15-43.69,10.75-14.06,20.51-28.89,30.55-43.49a48.11,48.11,0,0,0,4.57-9.2c2.74-6.7,5.26-13.48,7.88-20.23,1.87-4.82,4.23-9.51,5.52-14.48,2.07-7.92,2.61-16.3,5.25-24,5.86-17,3-33.31-2.49-49.55-2.82-8.31-7-10.8-15.8-10C4279.84,1212,4274.35,1212.81,4268.83,1213.5Zm-116.37-42.69c4.77-14.62,3.72-17.34-5.85-16.45C4148.41,1159.41,4150.1,1164.16,4152.46,1170.81ZM4352,1288c-2-.41-3.28-1.08-4.31-.79a4.35,4.35,0,0,0-2.53,2.43c-.21.57,1,1.67,1.62,2.53Z"/><path d="M2239.49,1271.26c-6.54,1.85-12.18,1.29-14.13-6.52-.2-.77-1-2-1.52-2-12-.34-17-12.45-27.48-16.06-7.85-2.7-14.85-8.68-21.36-14.21-4-3.41-7.41-4.64-12.67-4.4-6.24.29-12.64-1.13-18.86-2.36-5.5-1.09-10.84-2.91-16.25-4.44-11.94-3.37-24-6.44-35.73-10.39-2.81-.94-5.08-4.53-6.81-7.38-3.31-5.48-6.76-8.45-13.74-5.52-2.39,1-7.52-.16-9-2.13-8.83-11.71-18-23.35-24.95-36.19-5-9.41-5.31-20.47-3.15-31.63,1.82-9.39.78-19.3,1.56-28.94.45-5.52.68-11.73,3.33-16.29,6.48-11.13,14.13-21.6,21.66-32.09,5-7,9.65-14.87,16.24-20.09,11.81-9.35,24.4-18.12,37.79-24.91,7.7-3.9,17.6-4.55,26.54-4.69,13.77-.21,27.56,1.26,41.35,2.05a26.51,26.51,0,0,1,6.44.73c23,7.24,46.78,12.83,68.71,22.57,13.77,6.12,24.9,18.34,36.92,28.18,4.71,3.84,3.93,9-.74,12.1-7.43,4.9-15.47,8.89-23.34,13.1a5,5,0,0,1-3.81,0c-10.51-4.64-22.79-5-31.58-13.86-9.33-9.4-20.49-15.76-33.78-17.93a20.87,20.87,0,0,1-6.27-1.65c-19.35-10.13-38.9-7.9-58.57-1.24-.82.28-1.89.14-2.5.63-9.33,7.51-19,14.68-27.73,22.84-4.28,4-7.42,9.61-10,15-15.14,31.22-13.57,57.63,9.78,83.72,5.16,5.77,13.48,9.41,21,12.22,17.82,6.65,36,12.43,54.13,18.12,12.32,3.85,25.13,6.22,37.26,10.56,14.39,5.15,26,14.74,37.78,24.59a195.9,195.9,0,0,1,38.9,44.45c10.21,15.72,17.18,31.66,20.82,49.67,2.13,10.57,5.46,20.91,7.53,31.5,1,4.9,2,11.2-.21,15-4.42,7.63-5.66,14.64-4.4,23.36.8,5.52-2.19,11.66-3.86,17.42-.69,2.42-4,5.34-3.31,6.7,5,10.28.37,18.17-5.43,26,3.13,16.38-10.35,27.82-12.81,42.59a11.34,11.34,0,0,1-5.14,6.94c-24.38,13.78-47.62,30.7-76.15,34.6-11.32,1.54-22.38,5.17-33.44,5.61a206,206,0,0,0-29.36,3.72c-4.62.86-10.07,2-14.09.36-12.59-5.07-25.85-4.14-38.43-3.54-15,.71-24.58-6.91-34.15-15.42-13.2-11.74-27.1-23.19-37.94-36.94-10.2-12.94-20.62-28.54-16.06-46,6-23,16.34-44.65,36.44-59.62,9.83-7.31,19.7-14.56,29.8-21.49,1.73-1.2,5.28-1.61,6.88-.61s3.19,4.65,2.6,6.4c-2.35,6.89-5.63,13.46-8.42,20.2-1.93,4.67-4.63,9.31-5.26,14.18-3.11,24,1.49,47.47,14.36,67.24,9.88,15.17,24.34,27.81,38.46,39.53,5.46,4.54,15.87,5.63,23.51,4.57,26.61-3.71,53.54-8.22,77.21-21.49,17.08-9.59,30.9-23.54,31.85-45.45.08-1.71-.41-3.88.43-5.08,10.37-14.74,6.57-32.61,10.43-48.78,2.28-9.57-1.28-20.51-2.17-30.84-.26-3-1.71-7.08-.31-8.82,9.95-12.4.76-23.46-4.58-32C2251,1302.85,2247.36,1287.29,2239.49,1271.26Z"/><path d="M3249.53,1363.57c-9.46,7.54-17.27,12.83-21.72,22.54-13.57,29.59-51.76,42.26-76.08,35.28-6.24-1.79-12.44-3.75-18.69-5.49-9.11-2.54-14.71-7.51-19.87-16.41-8.08-13.91-11.49-28.06-14.53-43.52-2.84-14.42-1.64-28.18-1.71-42.32-.08-18.07-1.46-36.14-2.1-54.21-.55-15.75,4.09-20.06,23.12-22,10.61-1.06,21.71,7,23.39,17.88,2,12.79,10.13,24,9.06,37.55-.26,3.4,1,7,.3,10.28-2,9,.17,16.66,3.85,25,2.6,5.88,1.6,13.45,1.74,20.27.06,3.41-1.2,6.82-1.41,10.26-.37,6.06,3.38,9.54,8.33,12,4.48,2.2,8.54,1,11.9-2.27,3.09-3,6.79-5.92,8.55-9.66,11.22-23.78,23.64-47.1,28.73-73.35,2-10.51,5.27-20.8,7.9-31.2,1.34-5.27,4.79-8.08,10-8.76,3.87-.49,8.25.26,11.56-1.31,15.24-7.24,27,0,38.85,8.14,4.95,3.41,6.6,7.84,6.38,13.3-.31,8.07,1.44,14.72,7.36,21.17,5.22,5.68,7.18,13.86,3.07,21.8-2.29,4.43-1.74,8.32,1.56,11.92,10.36,11.3,11.53,26,12.51,39.82,1,14.8,2.19,29.29,8.53,42.79a33.58,33.58,0,0,1,2.33,22.74c-2,8.73-2.15,17.19,3,25,2.67,4.07,2.48,8.07.14,12.23-1.7,3-2.69,6.5-4.74,9.22-6.82,9.06-10.35,18.58-8,30.27,1.37,6.89-1.27,13.34-4.94,19.66a68.72,68.72,0,0,0-7.55,20.25c-1.65,7.89-3.72,14.8-10.57,20-2.15,1.62-3,5.64-3.42,8.7-.56,3.78,1,8.13-.28,11.5-6.47,16.91-13.48,33.61-20.55,50.28-.92,2.16-3.29,5.22-5,5.24-8.84.11-10,7-12.44,12.86-1.67,4-2.61,8.31-4.59,12.12-3.62,7-7.46,8.33-15.49,7.3-2.74-.35-6.86-.38-8.29,1.25-5.63,6.41-12,12.88-15.21,20.53-6.13,14.56-8.47,16.7-24.76,13-.77,3.57-1.53,7.13-2.43,11.34-12.46-1.69-22.51.31-24.22,16-13.33,2-26.33,4.17-39.38,6-7.83,1.08-14.38-1.09-19.12-8.14-2.1-3.11-5-6.27-8.35-7.85-15.78-7.54-19.81-22.64-22.22-37.22-2.26-13.63,1.17-27.57,7.45-40.27,2-4,2.69-10,9.49-8.43,6,1.4,7.6,6.12,8.44,11.7,1.35,9,3.11,17.91,5.07,26.77,4,18.23,23.41,26.2,40.19,18.42,23-10.64,37.78-30,53.88-47.84,14.16-15.73,28-32,37.29-51.29a313,313,0,0,0,12.62-30.89c5.08-14.23,9.64-28.66,14.16-43.08a57.15,57.15,0,0,0,2.89-14c1.24-24.62,3.19-49.28,2.79-73.89-.27-16.24-4.1-32.43-6.29-48.65C3251.19,1378,3250.55,1372,3249.53,1363.57Z"/><path d="M4060.56,1286.16c-1.63,6.07-3.89,10.81-3.95,15.58-.11,7.68,1,15.39,2,23,.88,6.78,2.56,13.46,3.4,20.24,1.38,11.13,2.15,22.33,3.57,33.46,1.9,15,4.37,29.92,6.21,44.93.84,6.89-4,14.4,2.3,20.7-5.66,9.18-1.73,19.64-3.94,29.15-1.1,4.79-5,8.93-7.12,12.44-5.56,2.09-10.21,5.07-15,5.38a105.18,105.18,0,0,1-25.13-1.24c-6.92-1.23-8.73-8.3-9.81-14.12-2.37-12.71-3.83-25.58-5.61-38.39-.57-4.13-1-8.28-1.54-13-11.64.66-20.12,6.22-28.41,11a48.36,48.36,0,0,1-33.59,6.22c-1.71-.29-3.41-1-5.1-.92-25.12.6-40.56-16.82-57.76-30.95a7.46,7.46,0,0,1-2.29-3.09c-5.54-16.27-11.75-32.38-16.11-49-1.75-6.67.5-14.43,1.13-21.67.22-2.53,1.82-5.14,1.44-7.5-2.32-14.58,2.68-28.29,4.84-42.31.71-4.57,2.86-9.11,5.15-13.21,10.74-19.24,21-38.82,32.91-57.31,9.33-14.46,23.67-25.27,40.18-28.51,14.71-2.88,30.52-5,45.82-1.51,4.42,1,8.37,4.19,12.44,6.55,11,6.37,14,5.7,20.53-4.75,8.77-14.12,34.13-14.86,42.7-.78,2.26,3.71,2.49,9.09,2.43,13.69-.09,6-1.81,12-2.08,18-.47,10.77-1.4,21.58,3.21,32,1.51,3.43,1.44,7.61,1.85,11.47C4077.14,1279.27,4076.33,1280.54,4060.56,1286.16ZM3995,1249.65c-.76-6.74-.86-12.43-2.13-17.84-1.92-8.12-9.26-14.7-16.26-14.37-5.08.24-10.5,1.15-15,3.38-2.27,1.13-2.42,6-4.17,8.86a47.36,47.36,0,0,1-6.49,7.56c-2.65,2.75-6.29,4.85-8.12,8-5.54,9.64-10.79,19.5-15.39,29.61a76.13,76.13,0,0,0-6,19.44c-1.45,9.28-.07,19.2-2.57,28.09-8.17,29,4,52.8,17.81,76.39,1.06,1.81,2.93,3.15,4.44,4.7,3.62,3.71,7.84,4.19,11.49.7,5-4.72,10.12-9.54,13.78-15.23,12.75-19.8,16.94-42.11,17.87-65.27.24-6-.32-12.66,2-17.87C3994.56,1287.37,3990.53,1267.42,3995,1249.65Z"/><path d="M592.8,301.4c6.6.76,12.73.25,17.79,2.33,7.93,3.26,15.5,7.82,18.9,16.71,1.88,4.88,3.79,9.78,6.11,14.46,4.75,9.55,10.22,18.75,14.59,28.45,4.45,9.88,9.24,19.63,9.75,31,.4,8.82,2.81,17.53,4.11,26.32,1.36,9.22,2.41,18.49,3.69,27.72a107.15,107.15,0,0,0,2.1,12.11c2.1,8.12,1.87,16.25.61,24.41a6.86,6.86,0,0,1-1.52,3.7c-3.78,3.56-7.61,7.1-11.72,10.26-3.12,2.4-6.38,1.4-7.47-2.44-.89-3.2-.67-6.73-.88-10.11-.22-3.62-.17-7.26-.62-10.85a3.16,3.16,0,0,0-4.49-2.82c-2.8.94-5.7,2.87-8.42.74a57.78,57.78,0,0,1-9.87-9.25c-4.63-5.83-8.6-12.16-13-18.21-5.53-7.72-12.07-14.62-16.46-23.26-4.63-9.1-11.08-17-18.38-24.31-6.25-6.26-11.47-13.52-14.34-22.15-.71-2.14-2.09-4-3-6.11-1.27-2.9-2.38-5.88-3.61-8.8-.77-1.84-1.21-4.1-2.55-5.38-4.76-4.56-4.81-10.23-4-15.93,1.24-8.52,5.57-15.89,10.15-22.95,1.62-2.5,4.65-4.35,7.39-5.82a178.84,178.84,0,0,1,16.67-7.91C587.27,302.14,590.53,301.89,592.8,301.4Zm46.74,137.8c2.84-4.17,2.68-7.28,1.92-9.92-2.84-9.82-6.06-19.53-9.19-29.26-1.74-5.39-4.36-10.64-5.19-16.16a38.76,38.76,0,0,0-7.33-17.37c-2.92-4-6.33-8.31-7.41-13-1.84-7.92-7.06-13.63-10.84-20.27a33.64,33.64,0,0,0-6.44-7.93c-7.07-6.44-12.55-4.6-14.39,4.64a9.44,9.44,0,0,0-.13,4.71c3,8.59,6.05,17.14,9.35,25.61,1.32,3.38,3.48,6.42,4.91,9.76a51.63,51.63,0,0,0,10.93,16.34,59.2,59.2,0,0,1,7.61,10.41c2.67,4.24,4.41,9.16,7.53,13A145.67,145.67,0,0,1,637.14,435C637.75,436.16,638.45,437.29,639.54,439.2Z"/><path d="M3860.28,1441.26c-13.84,10.39-29.65,12.41-46.56,13.81-12,1-25.12-1.3-36.39,5.68a3.33,3.33,0,0,1-2.53.28c-13.61-5-26.22,2.83-39.49,3.13s-26.56,2.63-39.84,4c-15.74,1.64-31,.42-45.65-7.92-4,2.31-9,3.83-11.87,7.2-8.39,9.82-19.92,11.48-31.34,13.81-2.54.52-5.15.72-7.65,1.38-17,4.47-30-4.26-31.12-21.74-.9-14.58-.64-29.24-1-43.86-.09-3.44-.59-6.88-.94-10.31-1.46-14.19-3.26-28.34-4.2-42.56-.29-4.43,1.77-9,3-14.5-7.34-6-7.05-14.41-5.51-24,3.35-20.93,5.56-42,1.62-63.26a62.72,62.72,0,0,1-.11-22c3.84-21.25,2-42.16-1-63.28-1.37-9.69-.47-19.72-.51-29.59,0-12.45.2-24.91,0-37.35-.39-20.69-1.34-41.37-1.51-62.06-.14-16.89,4.85-20.23,21.66-22,18.39-2,26.33,11,34.77,22.27,7.92,10.57,8.89,23.63,8.15,37.19-1.11,20.1,0,40.32.12,60.49,0,4.33.76,8.72.22,13-1.56,12.09-2.12,23.93,3.46,35.32a10.5,10.5,0,0,1,.88,6.35c-2.86,13.15,2.89,25.94,2.08,38.55-1.23,19.26,2.67,37.77,4,56.62.18,2.58.6,5.49-.33,7.74-7.19,17.31-1.48,35.07-1.81,52.57-.33,17.24,1.2,34.53,2.4,51.77.68,9.64,5.77,14.21,17.33,15.87,10.27,1.47,20.63,2.46,31,3.13,31.18,2,62.14-.73,93.09-4.4,11.12-1.32,22.48-.58,33.73-1,6-.22,12.09-.64,18.09-1.39C3842.94,1418.12,3853.58,1424.65,3860.28,1441.26Z"/><path d="M502.66,1125.24c-1.85,1-3.59,2.38-5.56,3a12.61,12.61,0,0,0-7.41,5.67c-3.8,5.93-8.3,11.36-10.81,18.18-1.29,3.49-4.21,6.47-6.71,9.42-6.69,7.93-11,17.22-15.31,26.5-.48,1-.54,2.47-1.3,3.11-5.87,4.89-9.28,11.68-13.81,17.6-8.3,10.86-19.5,18.55-30.15,26.53a107.86,107.86,0,0,1-38,18.45c-5.73,1.47-10.76-.71-15.67-3.29-2.76-1.46-5.6-2.81-8.25-4.46-1.91-1.19-3.48-2.9-5.35-4.18-6.13-4.19-8.63-9.69-7-17.15.88-4,1-8.11,1.5-12.16.08-.68.5-1.38.39-2-2.12-11.76,5.35-20.88,8.69-31.11.86-2.64,3.24-4.93,5.29-7,13.67-13.85,28.64-26.08,46.16-34.75,6.09-3,12.71-4.93,19.11-7.28,2.13-.79,4.55-1,6.45-2.1,9.82-5.78,20.75-8.05,31.64-10.55a24.83,24.83,0,0,0,6.43-2.15c9.72-5.31,19-5.14,28.27,1.23,3.52,2.44,7.38,4.38,11.09,6.54Zm-63.61,25.56c-2.85,1.17-5.1,2-7.31,3-5.12,2.26-9.76,5.3-15.24,7.19-7.27,2.5-14.07,7-20.28,11.77a93.31,93.31,0,0,0-22.78,24.06c-4.9,7.67-8.83,15.2-9.64,24.19-.14,1.6.46,4,1.59,4.77,1,.69,3.61.21,4.75-.71,5.45-4.36,12-6.24,18.14-9.21s10.76-8.64,17.07-11.67c1.49-4.71,5.46-5.58,10.37-5.79.22-6.64,4.43-10.8,8.58-15.11,1.33-1.37,1.74-3.62,2.6-5.46,3.08-6.53,5.24-13.6,11.39-18.28C440.9,1157.56,440.37,1154.8,439.05,1150.8Zm-25,1a6.88,6.88,0,0,0,.86-.76c.05-.06-.17-.53-.25-.52a5.68,5.68,0,0,0-1.06.21C413.71,1151.12,413.85,1151.47,414,1151.83Z"/><path d="M494,631.41c-.91-2.16-2-4.26-2.69-6.49-.47-1.5,0-3.35-.66-4.71-1.31-2.75-2.51-6.57-4.8-7.58-2.95-1.32-6.89.27-9.16,3.12a22.75,22.75,0,0,0-3.66,7.11c-2.15,6.69-5.12,8.21-10.19,3.76-8-7-18-9.67-27.2-14-10.13-4.7-20.15-9.43-29.43-15.81-6.92-4.76-14.59-8.41-21.94-12.56-1.19-.67-2.63-1.08-3.57-2C369.21,571,354.87,562.73,345.51,549c-3.4-5-8-9.19-12.34-13.5-3.4-3.42-5.64-7.17-5.32-12.11.3-4.55.6-9.09,1-13.63.58-6.18,3.93-10.6,8-15.33,7.4-8.61,16.68-10.63,27.13-12.07,19.14-2.64,35.92,2.88,52,12.32,8.82,5.16,18,9.65,26.75,14.94a163.8,163.8,0,0,1,16,11.68c5.55,4.37,11.07,8.83,16.22,13.66a43.78,43.78,0,0,1,7,9.21,102.05,102.05,0,0,1,7,13.25c2.55,6.08,4.72,12.34,6.72,18.62,3.53,11.08,7.14,22.12,8.35,33.83.5,4.82.17,9-2.69,13-1.93,2.71-3.49,5.7-5.22,8.57Zm-8.21-29.23c-.27-1.71-.18-3.38-.8-4.72-3.78-8.21-7.35-16.57-11.74-24.46-3.95-7.12-8.14-14.06-14-20.13-10.35-10.72-23-17.75-35.7-24.88-8.7-4.9-16.82-10.89-26.31-14.35-1.25-.46-2.2-1.67-3.43-2.23-3.5-1.6-6.95-3.77-10.64-4.37-6.27-1-12.69-1.13-19.06-1.36a55.67,55.67,0,0,0-9.56.57c-6.09.83-7.86,4-4.89,9.31a74.81,74.81,0,0,0,7.72,11.09c3.76,4.56,7.93,8.8,11.89,13.21,2.58,2.88,4.56,7,7.78,8.5a84,84,0,0,1,21.85,15,5.35,5.35,0,0,0,1.2.66c8.56,4.73,17,9.65,25.7,14.13,7.66,4,15.31,8.25,23.46,10.85a49.88,49.88,0,0,1,16.12,8.48,38.17,38.17,0,0,0,7.56,4.66A15.53,15.53,0,0,0,485.81,602.18Z"/><path d="M2449.14,647.49c-10.41,2.15-15.06,5.65-13.35,14.57a18.8,18.8,0,0,1,0,8.7c-5.38,17.33-5.05,35.51-8.19,53.15-3,17-12.94,23.7-30.39,20.8-19.28-3.19-31.82-16.58-33.47-36.13-1.18-14.08-1.89-28.21-3.06-42.29a80.36,80.36,0,0,0-2.41-12.89c-2-8-4.55-15.9-6.41-23.95-1.53-6.64-4.48-11.59-12.9-14.09-12.1,24.11-23.72,48.18-26.27,74.84-2.26,23.6-1.1,47.52-1.6,71.3-.45,21.22-17.34,30.13-36.31,19.49a144.61,144.61,0,0,0-19.4-9.22c-6-2.26-8.72-6.63-8.79-12.21a191.39,191.39,0,0,1,1.36-27.71c1.92-14.42,6-28.65,6.94-43.1,1.86-29.68,2.08-59.46,3.25-89.19.44-11.19,1.18-22.42,2.64-33.51,1.61-12.24,7.89-18,20-19.3,9.32-1,18.56-1.08,26.66,5.09,2.24,1.71,5.11,2.59,8.84,4.42,9-10.15,20.15-16.06,34.11-17.11,8.8-.67,14.84,1.91,20.61,8.14,11.49,12.39,20,26.3,24,42.79,1.69,6.87,4.5,12.82,10.6,14.51,5.45-9.77,10.1-19.12,15.72-27.86,4.46-6.94,9.93-13.26,15.25-19.6,10.78-12.86,25-16.32,40.76-13.13a28.86,28.86,0,0,1,14.76,8.26c9,9.87,15,21.24,15.83,35.33.49,8.61,4,17,5.62,25.6q7.63,39.42,14.83,78.93a39.08,39.08,0,0,1,.13,10.14c-1.16,14.2-1.21,28.21,3.09,42.09,2.77,8.93-3.84,23.08-12.38,27.14-2.73,1.3-7.18,1.53-9.75.17a290.79,290.79,0,0,1-28.63-17.19c-3.74-2.58-3.62-9.05-11.85-6.65-4.78,1.39-8.08-6.15-7.12-12.11,3.19-19.79,1.51-38.79-7-57.25-2.36-5.12-2.09-11.45-3.11-17.2C2451.09,657.13,2450.23,653,2449.14,647.49Z"/><path d="M1821,842.81c-31.92-2.21-61-5.26-86.5-22.23-2.41-1.61-5.27-2.54-7.91-3.8-14-6.69-25.31-16.17-32.84-30.13-5.55-10.26-12.44-19.8-18-30.06-2.46-4.57-3.45-10.06-4.43-15.26-1.72-9.06-4-18.22-4.11-27.36-.25-25.31-11-49.54-6.53-75.47,1.6-9.27-1-19.43-2.52-29-2.74-17.18-2.35-33.6,3.89-50.39,5.87-15.82,8.82-32.71,13.23-49.09,1.77-6.59,3.86-13.1,6-19.57,3.87-11.55,7.73-23.1,11.94-34.53a71.79,71.79,0,0,1,6.89-14.48c23.11-35.33,49.79-67.56,83.32-93.59,18.45-14.33,40.67-18.29,63-21.52,26-3.75,51.29,3,76.72,6.33,9.42,1.24,18.64,5.83,27.29,10.2,3.91,2,7,6.78,9,11,3.11,6.45.15,11.57-6.85,13.14a22.82,22.82,0,0,1-8.74.43c-15.36-2.66-31.21-4-45.88-8.85-22.72-7.51-42.86-5.11-62.34,8.45-6.33,4.41-14,6.93-20.48,11.11-14.11,9.07-25.91,20.37-34.54,35.14-6.6,11.31-15,21.52-22.08,32.59-13.27,20.88-19.29,44.42-26.3,67.93-6.37,21.37-7.48,43-10.86,64.54-2.36,15-5.38,29.88-1.41,45.06a7.93,7.93,0,0,1,0,4.35c-5.76,16-1.47,31.89.78,47.76,2.68,18.85,5.19,37.72,8.5,56.46a39.67,39.67,0,0,0,6.81,15.81c20.38,28.28,47.31,47.52,81.42,55.51a52.93,52.93,0,0,0,24.62-.06,275.31,275.31,0,0,0,44-15.55c15.25-7,21.24-22.72,27.83-36.64,7.2-15.24,20.66-24.35,31.14-36.33,3.71-4.25,8.58-3.27,13.19.09,12.6,9.17,15.4,21.85,11.79,37.32-5.65,24.21-22.4,40.79-37.25,58.7-3.78,4.56-10.23,8-16.1,9.58-26.33,7.29-52.86,13.89-79.4,20.39C1831.24,842.23,1824.79,842.35,1821,842.81Z"/><path d="M1153.43,394.09c9.38-.85,16.62,2.7,24,5.47,1,.39,1.9,1.44,3,1.67,5.87,1.31,8.82,5.64,10.61,10.71,3.28,9.27,6.23,18.93,2.91,28.64a63,63,0,0,1-9.53,18c-7.09,9.17-14.66,18-24.65,24.48-3.77,2.43-6.69,6.16-10,9.26-8.17,7.54-15.73,15.95-24.74,22.31-7.48,5.28-12.93,11.89-18.85,18.5-6.61,7.37-13.25,15.19-23.56,18.06a14.66,14.66,0,0,0-5.78,3.58c-4.06,3.84-8.46,6.84-14,8.07a7.32,7.32,0,0,0-3.87,2.67c-3.43,4.57-7.8,4.84-12.84,3.53-5.72-1.49-9.32-5.49-12.26-10.14-1.78-2.81-.24-5.7.84-8.5a31.92,31.92,0,0,0,2.16-7.64,18.52,18.52,0,0,1,5.12-10.93,26.45,26.45,0,0,0,3.62-4c5.74-9.49,11.18-19.16,17.08-28.54,2.47-3.95,4.47-7.67,4.4-12.56,0-2.23,1.38-4.82,2.88-6.65,4.33-5.27,8.77-10.24,11.13-17a22,22,0,0,1,7.5-10.36c6.88-4.73,10.43-11.51,13.26-18.65a28.53,28.53,0,0,1,15.47-16.39c3.45-1.51,5.75-3.48,7.07-6.81a12.54,12.54,0,0,1,7.46-7.43c3.13-1.26,5.94-3.35,8.78-5.25C1144.8,395.33,1149.06,392.71,1153.43,394.09Zm-87.36,137.47a46.47,46.47,0,0,0,24.22-14.73c6.16-7.27,12.77-14.17,19.29-21.14,3.54-3.79,6.88-7.95,11-10.93,5.1-3.64,10.65-6.14,14.05-12.18,1.55-2.75,6.58-3.66,10.16-5.09a10.79,10.79,0,0,0,6-5c2.63-4.7,5.44-9.62,9.31-13.25,7.29-6.83,9.7-15.79,12.47-24.65,1.68-5.37-.43-9.44-5.64-11.62-7.32-3.07-13.78-1.08-19.7,3.73-3,2.43-6.15,4.63-9.14,7.07-3.31,2.7-6.84,5.25-9.66,8.41-4.08,4.56-7.75,9.52-11.36,14.47-6.14,8.44-13.53,16.36-17.77,25.68-5,10.93-12,20.35-17.86,30.6-5,8.71-10.07,17.33-15,26A8.28,8.28,0,0,0,1066.07,531.56Z"/><path d="M2737.1,1238.56c14.46,2.45,29.49,3.26,43.2,7.92,9.73,3.31,17.73,11.76,26.36,18.1a7.67,7.67,0,0,1,2.54,4.43c1.67,8.78,3,17.62,4.66,26.4,1.11,5.83,2.6,11.58,4,17.35.2.83,1.1,1.7.93,2.36-5,20,4.94,39.3,2.85,59.05-2.14,20.18-4.55,40.36-7.87,60.37-3.39,20.41-12.56,37.53-31.4,48.33-3.07,1.76-5.75,5.39-7.08,8.76-3.23,8.14-9,13.57-16.21,17.89-.37.22-.93.26-1.15.57-8.8,12.24-23.66,12.67-35.85,18.24-3,1.37-6.67,1.19-10,1.83-4.47.84-9,1.7-13.38,2.74-1.65.39-3.27,2.09-4.73,1.89-12.8-1.78-26-2.43-38.2-6.26-10.81-3.39-18.28-12.6-24.14-22.62-3.93-6.75-7.59-13.28-8.54-21.4a36.9,36.9,0,0,0-5.82-15.73c-8.94-13.28-7.71-28.29-9.51-43.06-1.5-12.28-.34-24.58-3.13-37-2.54-11.31.42-24,1.63-36a312.26,312.26,0,0,1,4.89-32c1.11-5.37,4-10.4,6.17-15.53.85-2,2.92-3.77,3-5.68.54-18.87,16.54-26.43,27.64-37.28,3.18-3.11,9.45-4.11,14.34-4.19a73.67,73.67,0,0,0,34.73-8.85C2709.16,1242.63,2722.55,1238.56,2737.1,1238.56Zm-78,179.58c1,5.27,1.8,10.79,3.18,16.15,2.57,10,6.84,19.75,7.95,29.87,1.67,15.33,11.09,22.39,23.73,27.76,7.79,3.32,14.16,2.37,19.93-3.85,8.22-8.86,17.56-16.87,24.66-26.54,9.4-12.78,19.32-25.46,23.81-41.32,3.86-13.64,8.72-27,13.06-40.5a11.48,11.48,0,0,0,.59-5c-1.64-10.59-4.1-21.1-5.09-31.74-1.43-15.24-8.71-30.18-2.7-45.91.53-1.38-.1-3.43-.68-5-6.48-17.16-24.83-28.91-42.86-27.21-2.31.22-4.7,1.81-6.66,3.29-7.21,5.45-14.55,10.77-21.27,16.78-10.6,9.49-25.67,15.37-27.25,32.55-.13,1.46-1.64,3.21-3,4-4.24,2.64-4.21,6.59-5.16,11a67.78,67.78,0,0,0,2.28,36.92c1,3.08.52,6.82.14,10.2C2662.37,1392.3,2660.72,1405,2659.11,1418.14Z"/><path d="M207.82,1036.79c-1.48-10,2.64-19.38,7.27-28.57,1.1-2.16,3.16-3.87,4.89-5.68,2.52-2.63,5.19-5.12,7.72-7.74s5.41-3.29,8.68-4.44c7.11-2.51,14.94-3.86,20.92-9.14a22.31,22.31,0,0,1,11-5.15c3.44-.68,6.63-2.84,9.82-4.54,6.64-3.55,13.27-7.1,19.77-10.89a27.12,27.12,0,0,1,11.6-3.6,68.18,68.18,0,0,0,13.93-2.95,36.27,36.27,0,0,1,12-1.51c8.16.23,16.36-.51,24.52-1.15,3.86-.31,5.48-3.74,7.35-6.6,3.31-5.06,4.94-5.14,8.38-.43,1.75,2.39,3.4,4.87,5.28,7.17,1.75,2.14,2.44,4.13,1.1,6.86a5.48,5.48,0,0,0,.06,4.4c1.77,3.16.61,5.33-1.12,8.09-3.6,5.73-8.5,10.08-13.57,14.32-1,.88-2.2,2-3.41,2.21-6.05.79-9.58,5.29-12.88,9.37-3.58,4.43-8.09,6.46-13.07,8.19-1.93.67-4.14,1-5.68,2.23-5.94,4.61-13,6.35-19.9,8.78-2,.69-3.63,2.36-5.31,3.73-2.24,1.83-4.14,4.17-6.57,5.68-8.68,5.38-17.52,10.52-26.31,15.74a6.68,6.68,0,0,1-2.41,1.24c-9,.76-16,6.35-23.64,10.2s-15.59,5.25-23.76,5.77c-10.85.7-17.11-5.92-16.65-16.73C207.87,1040.28,207.82,1038.91,207.82,1036.79Zm120.43-59.35-.27-1.26c-2.58.5-5.2.84-7.73,1.54-3.94,1.1-7.74,3-11.74,3.56-7.85,1.18-14.62,4.71-21.45,8.38-8.8,4.72-18,8.69-26.59,13.78-7.94,4.71-15.29,10.44-22.85,15.81a5.36,5.36,0,0,0-2,2.68c-.35,1.29-.09,2.75-.09,5.15,5.8-2.47,10.64-4.33,15.29-6.55,10.95-5.22,22.82-8.49,32.89-15.59,7-5,14.83-8.46,22.67-11.89a33.62,33.62,0,0,0,6.38-3.87C318,985.34,323.09,981.36,328.25,977.44Z"/><path d="M2466.37,1517.41c-3.16-1.52-6.72-4.1-10.67-5-10.29-2.35-21.25-12.3-21-22.74.43-20.75-5.51-41.19-1.74-62.16,1.31-7.31-1.57-15.35-2.46-23.07-.54-4.72-2.13-9.72-1.16-14.13,3.22-14.56-.13-28.24-4.22-42.67-15.56-.67-30.77-4.3-44.8-12.1a48.94,48.94,0,0,1-6.57-4.12c-8.34-6.56-8.23-10.28,1.18-15,10-5.09,20.37-9.22,32.14-9.16,7.71,0,15.5-1.44,23.14-2.88,7.79-1.47,9.17-4.54,7.61-11.86-2.23-10.51-4.34-21.07-5.79-31.71-1.1-8-.45-8.42,6.71-13.42-8.65-12.78-10.74-25.87-1.59-39.39-.06-.43.06-1.06-.19-1.26-5.36-4.55-.4-11-2.68-15.6-2.18-4.45-6.4-7.89-9.62-11.85a4.56,4.56,0,0,1-.53-2.52c-.54-13.19-.87-26.39-1.61-39.57a92,92,0,0,0-2.33-17.93c-3.17-12.28-1-24.16,2-35.92,2.32-8.89,6.81-11.65,15.9-12.56,12.7-1.27,22.63,5.11,32,11.94,3,2.16,4.42,7.26,5.26,11.28,1.24,5.89,2.59,12.25,1.6,18-2.26,13.17,3.28,24.54,6.45,36.51.65,2.48,2.32,5.63,1.43,7.44-4.72,9.57,0,18.46.66,27.71a116.34,116.34,0,0,1-2.78,32.13c-2.34,10.68-2,21.09,1.81,30.65,5.15,12.76,4.65,25.27,2.78,38.24-.41,2.87-.06,5.85-.06,9.24,9.12,2.76,17.38.49,25.73-1.45,6.27-1.45,12.64-2.49,19-3.42,14.93-2.21,29.84-4.75,44.86-6.2,13.58-1.3,27.1-.85,35.23,15.49-2.8,2.5-5.46,6.05-9,7.83-11.93,6-22.08,14.46-36.68,16.47-19.37,2.67-39.32,4.67-57.68,13.21-7.09,3.3-10.72,7.35-12.14,15.09-2.23,12.22-5.78,24.2-8.8,36.28-.31,1.23-1.38,2.66-1,3.61,5.7,15.42-2.65,31.79,3.55,47.43,2,5.13.52,12-.43,17.88-1.3,8-.81,15.33,2.66,22.77,4.23,9.1-.74,23-9.13,27.82C2478,1509.83,2472.86,1513.32,2466.37,1517.41Z"/><path d="M2769.22,655.19c-1.54,17.87-.64,32.1-4.44,44.93-4.26,14.41-7.67,30.4-22.1,39.83-3.11,2-5.56,5.47-7.57,8.72-7.34,11.83-14.13,24-21.65,35.72-2,3.06-5.5,6.12-8.9,7.07-8.48,2.39-14.88,7.35-20.22,13.83-10.61,12.87-24.31,21.21-39.86,26.09-10.93,3.43-13.71,10-13.88,20.73-.28,16.55-.64,32.79,2.54,49.33,2.54,13.18,1.25,27.11,1.54,40.72q.95,45.35,1.76,90.7a46.63,46.63,0,0,1-.38,8.77c-1.7,9.79-5.9,11.63-15.24,7.34-3.94-1.8-8.19-3-12.29-4.4-12.48-4.43-18-13.62-16.8-26.9,1.28-14.6.8-28.88-2.82-43.51-2.72-11-1.44-23.2-.48-34.75,1.9-22.88,3.78-45.65-.93-68.43a58.75,58.75,0,0,1-.74-13.14c.38-16.56-6-30.31-17.06-42.2-2-2.15-4.1-4.2-5.9-6.51-3.71-4.76-2.94-9.13,1.85-12.6,2.75-2,5.91-3.43,8.75-5.34,4.76-3.2,7-7.39,6.94-13.53-.34-28.78-.3-57.55-.24-86.33,0-12.1,1.07-24.24.52-36.31-1.19-25.8-3-51.57-4.81-77.35-.46-6.69-.44-12.71,7-15.9s15.74-3.75,20.49,2.27c9.45,12,19.41,8.61,31.21,5.28,21-5.92,41.89-12.92,64.55-11.29,23.42,1.69,43.19,15,51.37,37.13,4.55,12.28,9.34,24.52,13.11,37.05C2767.16,641,2768.23,650.16,2769.22,655.19ZM2634.6,773c27.48-15.14,53.52-31.78,69.78-60,4.63-8,10-15.66,13.81-24,11.08-24.2,15.45-49.16,5.76-75-4.82-12.86-11.51-16.7-25-14-5.22,1-10.18,3.39-15.32,4.9-3.72,1.09-8.11,3.45-11.22,2.38-12.35-4.24-20.4,1.38-27.92,9.94a30.54,30.54,0,0,1-8.06,6.29c-9.63,5.38-13.79,14.37-13.81,24.39,0,28.28,0,56.63,1.94,84.82C2625.46,745.78,2630.85,758.55,2634.6,773Z"/><path d="M956,369.37c-1.84,9.11-2.08,18.93-7.55,27.66A32.52,32.52,0,0,0,944,409.89c-2.14,17-8.88,32.44-14.81,48.19a13.61,13.61,0,0,1-.92,1.83c-3.17,5.72-7.25,10.81-9.63,17.15-1.76,4.67-6,8.44-9.4,12.46-4.76,5.73-9.12,12-14.76,16.73-3.54,3-9,4.39-13.76,5-12.54,1.67-17-2.95-17-15.73,0-4-1.06-8-1.31-12.06-.42-6.79-.72-13.59-.78-20.39,0-5,.72-10,.5-15-.64-14.78-1.77-29.55-2.27-44.34-.13-3.72,1.33-7.51,2.16-11.25.34-1.55,1.33-3,1.34-4.56.05-8.14,5.41-13.74,9.06-20.24,3.56-6.34,9.55-10.3,14-15.76a11.51,11.51,0,0,1,2.68-2.08c3.58-2.42,7.67-4.33,10.71-7.31,10.8-10.59,23.67-8.29,35.14-3.81,9,3.53,16.44,11.41,20,21.32C955.94,362.78,955.66,365.92,956,369.37ZM883.76,481.63c4.86-1.43,5-1.39,6.24-4.21,2.08-4.56,3.69-9.37,6.11-13.74,7-12.71,13.7-25.53,17.38-39.71,2.34-9,5.38-17.86,7.26-27a41.28,41.28,0,0,1,5.84-14.4c6.5-10,5.65-20.23-2.39-28.66-2.68-2.81-3.79-2.88-7-.55s-6.28,4.5-9.37,6.81c-1.63,1.22-3.66,2.28-4.64,3.93-5.53,9.35-11.16,18.67-14.9,28.95-4.59,12.6-5.7,25.76-5.94,39-.25,13.65,0,27.31.14,41C882.56,475.88,883.32,478.71,883.76,481.63Z"/><path d="M1161.47,705.93c-2.45-3-5.22-5.73-7.26-9-3-4.7-2.5-5.89,2-9.6a22,22,0,0,0,1.68-1.8c-.78-2.16-1.62-4.45-2.63-7.23,1.18-.84,2.29-2.22,3.63-2.49,4.64-1,7-4.13,8.39-8.17,1.82-5.43,5.43-9.45,9.51-13.17,9.39-8.56,19.2-16.72,28.07-25.78,5-5.14,11.49-8.88,15.26-15.31.62-1.06,2.28-1.46,3.3-2.35,3.39-3,6.36-6.6,10.14-8.9,5-3.07,8.29-8.71,15-9.5,3.34-.4,6.7-2.48,9.56-4.5,3-2.12,6.17-2.48,9.63-2.8a13.19,13.19,0,0,0,6.92-2.41c3.94-3.23,8.43-4.36,13.22-5,4.52-.6,9-1.56,13.57-1.66,2.81-.07,5.71,1,8.46,1.9,1.7.56,3.08,2.19,4.78,2.58,5.64,1.31,7.32,5.34,8.39,10.4,1.44,6.79.86,13-2.58,19.15-2.44,4.37-3.86,9.33-6.41,13.62-2.16,3.64-5.27,6.74-8,10-1.16,1.39-2.66,2.52-3.67,4-5.93,8.66-14.17,14.73-22.73,20.45a6.5,6.5,0,0,1-2.38,1.32c-9.62,1.26-17,7.59-25.55,11.28-6.21,2.69-11.92,6.55-17.84,9.92-.79.45-1.42,1.31-2.24,1.54-6.37,1.76-12.65,3.64-17.08,9-11.26,1.53-19.34,10.82-30.51,12.58-4.42.7-8.64,2.32-13.39.51-2.33-.89-5.44.21-8.19.42Zm28-33.4,1.12,1.28c6.27-.34,11.63-3.26,17-6.26a20.15,20.15,0,0,1,5.53-2.5c6.74-1.33,12-5.08,17.34-9.14,7-5.38,14.13-10.94,22.83-13.37,13-3.63,23.63-11.2,34-19.34,1-.81,2.21-2.12,2.3-3.28.55-7,5.58-11.24,9.29-16.33.84-1.14,1.13-2.68,2-4.73-2.46-.4-4.16-.77-5.88-1-7.42-.76-13.7,3.15-20.29,5.41-4.83,1.66-9.17,4.87-13.54,7.68-4.94,3.18-9.62,6.78-14.53,10-3.2,2.11-6.8,3.65-9.89,5.89-5.14,3.73-10,7.77-15,11.75a74.38,74.38,0,0,0-6.69,5.82q-10.29,10.46-20.35,21.13A76.59,76.59,0,0,0,1189.48,672.53Z"/><path d="M1972.93,682.54c2-13.83,3.68-26.79,11.83-38,3.35-4.65,5.43-10.33,7.52-15.77,6.87-17.86,16.59-33.11,35.23-40.82a17.92,17.92,0,0,0,6.06-4c14.68-15.58,34.1-22.15,53.64-28.53a6.22,6.22,0,0,0,1.41-.39c21.53-13.09,43.25-7.33,65.08-.89,11.06,3.26,22.7,4.94,33.3,9.24,9.81,4,18.93,10,24.64,19.82a178.4,178.4,0,0,0,11.78,18.28c5.78,7.56,6.68,15.9,5.91,24.89-.57,6.66-.54,13.37-1.16,20-.9,9.7-2.26,19.36-3.23,29.05-3.05,30.51-17.7,57-29.33,84.51a8.69,8.69,0,0,1-1.37,2.57Q2176,782.27,2157.75,802c-7.27,7.86-14.56,15.72-21.92,23.5-8.6,9.09-19.43,13.07-31.24,17.27-16.9,6-32.45,3.11-48.85,1-16.57-2.1-27.25-14.36-40.74-21.73a2.44,2.44,0,0,1-1-1.07q-8.46-19.18-16.86-38.39c-2.29-5.27-3.79-11-6.83-15.8-7.27-11.42-11.77-23.15-11.39-37.12.28-10.13-2.07-20.33-3.4-30.48C1974.78,693.44,1973.74,687.69,1972.93,682.54Zm190-42.6-1.79-.27c.42-3.89,1.08-7.77,1.2-11.66.66-20.1-15-37.58-35-40.4-27.62-3.89-64.66,14.37-71,45.68-1,4.77-2.8,9.38-3.73,14.16-1.06,5.49-3.3,9.45-9.59,8.48-9.47-1.45-11.15,4.88-13.38,11.86-4.42,13.79-.5,27,1.39,40.46,4.93,35.07,22.84,63.64,44.4,90.4,5.79,7.19,11.42,7.12,18.9.71,4.81-4.13,8.7-9.54,13.93-12.93,6.84-4.44,11-10.4,15.33-17,5.78-8.75,9.34-19.36,19.36-25.29,2.71-1.6,4.18-6.59,4.79-10.27C2153,702.57,2157.94,671.24,2163,639.94Z"/><path d="M4599.36,380.65c-1.06,15.53-2.29,31-3.08,46.58-.22,4.2-.24,9,1.54,12.61,7.58,15.33,9.09,30.55,1.84,46.4-1.37,3-2.69,6.69-2.26,9.81,2.82,20.69,6.4,41.28,9.09,62a41.16,41.16,0,0,1-1.59,16.82c-2,6.54-2,12.06,1.45,18.15,2.59,4.51,3.51,10,5.44,14.87,5,12.63,5.63,25.4,2.94,38.73-1,5.08.37,10.67.83,16,.29,3.4,1.34,6.78,1.28,10.15-.39,21.32-1.38,42.63-1.37,64,0,10.19,1.6,20.39,2.71,30.56a39,39,0,0,1-26.61,41.22c-5.36,1.78-10.35,5.3-14.85,8.86-5.53,4.37-10.19,4.72-15.6,0-12.07-10.52-19.83-22-16-39.56,4.39-20.32.35-40.8-1.93-61.21-2.24-20.16-4-40.42-4.82-60.68-.64-16.45.63-33,.75-49.46,0-4.27-1-8.56-1.67-12.8-.56-3.34-2.55-6.85-2-9.91,2.16-11.39-1.46-22-2.65-33.06-3.15-29.06-4.82-58.29-6.75-87.48-1.42-21.42.41-43.5-4.22-64.17-5.14-23-3.86-45.58-4.15-68.41-.24-19.32,4-23.48,23.56-25.85,2.4-.29,5-.5,7.1-1.52,6.41-3.09,12.09-2.14,18,1.59,3.66,2.33,8,3.68,12,5.37,6.06,2.52,8.44,7.13,9.54,13.53,1.79,10.47,4.72,20.74,7.09,31.11,1.95,8.5,3.8,17,5.69,25.52Z"/><path d="M2960.09,737.25c-2.53,4.25-5.3,8.37-7.54,12.77-4.81,9.44-6.37,20.62-15.87,27.56-1.83,1.34-2.69,5.29-2.47,7.92.66,8.32-5.13,11.7-10.34,16.32-15,13.27-32.6,14.61-49.33,7.66-12.55-5.22-26.19-13.65-33.44-24.58-15.77-23.74-24.14-51-20-80.3,2.74-19.3-.34-37.74-5.87-55.94-2.8-9.25-1.92-17.79-.36-27.21a205.89,205.89,0,0,0,2.19-43.41c-.44-9.4-1.07-18.08,7.82-23.22,9.06-5.25,17.32-2.11,25.74,3.72,8.64,6,12.41,13.21,11.82,23.39-.8,13.62-2.55,27.34-1.69,40.88.95,14.82-4.18,29.57,1,44.55,2.28,6.6.28,14.56.92,21.84,1.94,21.82,4.16,43.61,6.43,65.4a36,36,0,0,0,2.28,8.48c3.07,8.39,8.66,10.17,15.69,5a13.16,13.16,0,0,0,4-4.17c14.26-27.46,33.46-52.46,39.52-84,3-15.72,8.7-30.92,13.23-46.35,4.42-15.05,7.35-30,5.11-46.08-1.45-10.39.92-21.32,1.62-32,1-14.59,1.79-29.19,3-43.76,1-12.09,16-24.18,28-22.56a11.22,11.22,0,0,1,7.22,4.24c10.12,15.6,18.46,31.61,20.79,50.87,3.39,28-2,55.46-1.93,83.18,0,22.32.84,44.63,1.31,66.95.05,2,.32,3.9.27,5.85-.87,31.69,6.59,61.8,16.29,91.67a160.53,160.53,0,0,1,6.92,35.86c1.2,14.18-5.78,19.46-19,14.28-19.21-7.53-31.45-22.65-38.77-41.53a141.38,141.38,0,0,1-9.65-51.51c0-3.62-1.23-7.24-1.89-10.86Z"/><path d="M3404.27,823.12c-15.15-2-26-10-35.58-19.92-6.53-6.77-11.25-14.55-10.77-24.79.18-4-1.84-8.17-3.07-13.11-11.17,3.43-16.72,11-19.24,19.57a38.16,38.16,0,0,1-14.68,21c-3.46,2.57-6.29,6.16-8.92,9.64-4.37,5.78-10.37,8-16.83,6.21-9.33-2.52-18.34-6.25-27.42-9.62-5.81-2.15-11.5-4.59-17.26-6.87-1.78-.71-4.38-.77-5.28-2.06-9.07-13-21.21-24.51-18.74-42.84.88-6.49-.68-13.31-1.08-20-.15-2.39-1.2-5.55-.08-7.05,6.13-8.21,7.38-16.59,2.86-25.89-.56-1.14-.24-3,.24-4.31,7.13-19.6,13.27-39.65,21.86-58.6,9.24-20.41,25-36.81,37.92-55,15.55-22,36.46-32.84,63.49-31.44a29,29,0,0,1,8.64,1.4c12.86,4.86,25.79,8.62,39.86,7.84,7.4-.41,11.6,4.84,13,11.66,1,4.73.85,9.69,1.1,14.56.51,10.22,1.05,20.44,1.33,30.67.09,3.37.33,7.18-1,10.08-5.86,12.49-2.82,25.92-4.7,38.8a12.46,12.46,0,0,0,1,7.09c3.73,7.11,3.8,14-.05,21-3.56,6.45-1.32,12.41,1.82,18.07,9.63,17.37,10.72,36.28,10.42,55.47-.08,5-.19,10.14-6.62,11.43s-6.6,5.73-6.29,11.12C3410.84,810.48,3410.47,811.28,3404.27,823.12Zm-52.48-225.81-4.37-2.14c-9.91,6.23-21,10.91-27.77,21.46a277,277,0,0,0-26.81,52.81c-9.51,25.48-9.58,51.43-11.83,77.43a17.16,17.16,0,0,0,10,16.78c6.51,3.16,10.76-2.73,15.34-6a21.66,21.66,0,0,0,5.77-6.49c7-11.6,13.86-23.27,20.48-35.07,2.61-4.65,5.25-9.52,6.5-14.63,5.07-20.61,13.58-40.62,10.87-62.68-.57-4.67,1.59-9.61,1.76-14.44C3352,615.36,3351.79,606.33,3351.79,597.31Z"/><path d="M3554.14,524.93l66.81-3.52c-3.29,11.91-3.15,22.17-12.08,29.52-2.86,2.35-4.2,7.22-5.06,11.19-2.13,9.82-8.65,14.27-17.8,11.21-5.21-1.75-9.92-7.67-15.93-2.06-6.73,6.27-14.71,11.78-14.91,22.42,0,1.47-.11,2.93-.2,4.39-.87,14.11-3.13,28.3-2.26,42.3,1.19,19.39,5,38.61,7.2,58q4.74,41.35,8.58,82.81c.3,3.29-1.54,8.56-4,10-7.57,4.3-8.94,10.53-9.42,18.33-.82,13.34-7.39,17-19.61,11.49-4-1.79-7.51-4.94-11.63-6.13-15.11-4.37-18.38-15.73-18.87-29.42-.72-20-1.86-39.92-2.85-59.88a18,18,0,0,0-.47-4.36c-6.77-22.33-3.08-45.45-5.21-68.13-1.28-13.59-2.08-27.28-4.45-40.69-1.13-6.37-4.78-12.61-8.47-18.12-3.53-5.27-8.75-6.37-15.46-3.91-12.51,4.57-29.72-6.3-31.85-19.23-1-5.75,1.76-9.84,6.83-11.46a102.67,102.67,0,0,1,19.95-4.35c30.65-3.33,39.91-15,35.65-45.7-2.89-20.79-5.84-41.57-9-62.32-2.91-19.22-5.56-38.5-9.33-57.56-2.93-14.8-7.61-29.25-11.15-43.95-3.27-13.53-.68-15.93,12.85-13.54a196.24,196.24,0,0,0,20.24,2.35c11.18.78,15.75,6.68,14,18.16-.42,2.75-.75,6,.27,8.4,4.17,9.85,9.11,19.37,13.29,29.21,2.62,6.17,3.94,12.88,6.63,19,3.23,7.39,3.24,16.24,11,21.77,2.59,1.85,4,6.72,4.19,10.3.55,10.19,1.63,20.67-.11,30.58C3548.33,489.56,3553.85,506.1,3554.14,524.93Zm-9.36-80a20,20,0,0,0-2-1.45c-.08,0-.89.72-.82,1a13,13,0,0,0,1.06,2.19Z"/><path d="M1336.58,1192c-.09.89.06,1.72-.27,2.23-4.07,6.26-7.5,13.26-14.93,16.26-3.76,1.51-7.93,2-11.92,2.94s-8,1.53-11.91,2.77a9.8,9.8,0,0,1-8.46-.68c-7.52-4.23-15-8.58-22.86-12.15a46.83,46.83,0,0,1-16-11.32c-14-15.81-29.09-30.84-39.68-49.39-2.68-4.69-4.65-9.79-6.93-14.71-.28-.62-.3-1.48-.75-1.88-6.49-5.72-8.19-14.64-14-20.85-2.43-2.6-4.85-4.84-8.75-4.34-4.63.6-7.25-1.93-9-5.83-.73-1.67-1.49-3.34-2.11-5-1-2.65-.31-4.71,1.9-6.67a40.53,40.53,0,0,0,6.21-7c3.34-4.74,8.41-5.85,11.92-1.21,4.88,6.47,11.49,8.5,18.71,10.15,14.13,3.25,26.64,10.57,39.82,16.19,8.79,3.74,17.6,7.43,26.29,11.41,4.12,1.88,8.48,3.77,11.81,6.7,9.38,8.24,19,16.41,27.15,25.77,6.8,7.79,12.41,16.86,17.24,26C1333.45,1177.69,1334.54,1185.19,1336.58,1192Zm-39.33-3.34c5.91.32,11.24-1.62,16.07-4.84,4.06-2.72,4.54-4.8,2.68-9.32a32.67,32.67,0,0,0-6.73-10.12c-6.71-7.14-13.17-14.44-22-19.2-1.36-.74-2.3-2.22-3.56-3.18-3.27-2.48-6.28-5.7-10-7.13-10.46-4-18.7-12-29.45-15.62-10.08-3.4-18.72-10.58-29.65-11.93-1.83-.22-3.79.5-5.69.79.47,1.84.61,3.86,1.48,5.49,2.13,4,5.19,7.59,6.81,11.75a75.49,75.49,0,0,0,17.9,27.12c5.81,5.69,13,10.09,16.91,17.68a5.52,5.52,0,0,0,1.48,1.4C1266.17,1182.2,1280.47,1188.56,1297.25,1188.64Z"/><path d="M248.36,711.85c8.28-.83,15,1,21.55,4,8.18,3.77,17.16,4.17,25.89,5.65,5.58,1,11.44,1.5,16.54,3.69,9.37,4,18.29,9.13,27.37,13.83a5.89,5.89,0,0,1,2.14,1.66c5.87,8.46,14.59,13.6,22.49,19.73a35.5,35.5,0,0,1,7.89,8.43,290.78,290.78,0,0,0,23.88,32.49c4.48,5.15,2.71,10-4.13,11.2a44.26,44.26,0,0,1-13,.22c-10.13-1.34-20.2-3.14-30.27-4.91-10.76-1.9-21.48-4-32.21-6a29.3,29.3,0,0,1-3.22-1.13c-8.43-2.72-16.8-5.63-25.3-8.08-12.75-3.67-25.12-8.24-36.58-15-8.68-5.09-15-12.54-20-21.12a21,21,0,0,1-1.9-5.11c-1.22-4.62-2.14-9.33-3.5-13.91a15.86,15.86,0,0,1,2.31-14.32c.26-.37.57-.72.8-1.11C233.66,714.35,239.69,709.48,248.36,711.85Zm117.87,74.8A47.33,47.33,0,0,0,353,772.82c-5.31-3.85-10.5-7.9-16-11.49-7.4-4.85-14.78-9.83-22.62-13.9-14-7.24-29.63-8.82-44.72-12.22a75.37,75.37,0,0,0-15-1.41c-5.24-.1-9.37,4.08-8.78,9.13.6,5.25,2.38,10.22,7.11,13.49,3.18,2.2,6.41,4.36,9.4,6.81,5,4.08,10.61,5.74,17,6.26,5.38.43,11,1.23,15.91,3.25,9.62,3.94,19.55,6,29.71,7.69a60.14,60.14,0,0,1,15.07,4.26c5.8,2.63,11.79,3.43,17.92,3.69C360.35,788.48,362.7,787.44,366.23,786.65Z"/><path d="M3146.44,355.2c.62,24.32,3,48.76,1.33,72.93-1.31,19.48-3.15,38.28,1.56,57.72,2.55,10.54,1.37,22.16-3.21,33.09-2.12,5-1.61,11.55-1.06,17.27,1.28,13.11,3.3,26.15,5,39.21,1.47,11.08,6.38,14,17,10.27a14.47,14.47,0,0,0,4-1.87c16.84-12.94,37.52-12.7,57-16.5a22.79,22.79,0,0,1,8.73.38c7.8,1.62,9.42,4.76,6.89,12.51-1.51,4.63-3.09,9.24-4.55,13.89-4.75,15.1-6.12,15.65-21.93,17.83-6.57.91-12.8,4.43-19.12,6.94-3.16,1.25-6.11,3.08-9.28,4.32-18.22,7.09-28.26,19.17-27.87,39.91.17,9.39-6.1,18.46-3.73,28.6,1.2,5.14,1.48,10.49,2.6,15.65a65.18,65.18,0,0,1-.77,31.68c-2.55,9.53-2.23,20.16-1.41,30.16.76,9.37,1.18,18.16-1.78,27.39-2,6.2-1.69,13.37-1.3,20,.74,12.5-3.61,15.72-15.64,11.67-24.85-8.35-36.52-27-38.12-51.56-1.58-24.16-5.72-48.39,1.06-72.8,4.15-14.93-.7-30.12-5.15-44.65-2.59-8.43-7.41-11.16-15.84-7.54-14.77,6.33-25.64-.53-36.24-8.78-7.76-6.05-7.12-13.67,1.42-18.9,3.64-2.22,8.09-3.27,12.3-4.37,9.93-2.6,20-4.56,29.88-7.41,13.49-3.91,18.94-12.53,17.25-26.5-1.11-9.2-2.78-18.34-3.68-27.56a74.39,74.39,0,0,1-.07-17.39c1.92-13.75,1.93-27.16-2.58-40.53-4.26-12.61-3.83-25.7-4.35-38.95-1.28-33,10-64.69,8.82-97.54-.27-7.75-.05-15.53-.25-23.29-.46-18.09,18.72-31.44,35.36-24.54,5.72,2.37,8,7.09,8.11,12.8.24,8.79.06,17.59.06,26.39Z"/><path d="M1252.3,872.15c-5.74,2.66-11.3,2.71-17,1.39-4.07-.94-9.92-6.63-10.57-10.55a5.55,5.55,0,0,1,5.2-6.77c9.48-1.05,17.35-6.6,26.43-8.66,8-1.81,15.91-3.86,23.91-5.63,7.76-1.71,15.58-3.12,23.34-4.82a12.84,12.84,0,0,0,5-2.17c2.94-2.24,6.2-2.52,9.68-2.7a74,74,0,0,0,8.68-1.41c1.11-.19,2.34-.82,3.3-.53,7.48,2.25,14.92-.14,22.34.07a228.68,228.68,0,0,1,25.79,2.7c2.06.29,3.94,2.13,5.8,3.41s3.45,3.11,5.45,4.12c7.48,3.77,10.21,11,12.33,18.08s0,14.23-2.68,20.7c-2.6,6.23-6.57,12-10.37,17.6-1.32,1.94-3.78,3.3-6,4.43a36.85,36.85,0,0,1-21.63,4.1c-5-.59-10-1.08-15-1.66-6.77-.79-13.41-1.85-20.39-.62-6.71,1.19-13-1.49-18.67-5.25a39.3,39.3,0,0,0-9.09-4.56c-10.59-3.52-21.27-6.75-31.94-10a45.47,45.47,0,0,0-6.61-1.6c-5.46-.83-5.45-.76-6.45-6C1253,874.74,1252.7,873.7,1252.3,872.15Zm26.22-9.19c2.49,1.77,3.67,3.21,5.11,3.54,9.3,2.12,16.91,7.57,24.93,12.22,1.38.8,2.87,1.4,4.23,2.23,3.51,2.16,7.2,2.32,11.19,1.64,2.62-.45,5.59-.8,8,0a60.8,60.8,0,0,0,37.54.35,14.84,14.84,0,0,0,10.17-9.2c1.6-4,2.59-8.25,3.93-12.37,1.14-3.5-.21-6.08-3.41-7.08a78,78,0,0,0-12.6-2.69c-3.59-.5-7.33,0-10.89-.68-8.72-1.57-17.33.08-25.74,1.46-9.34,1.54-18.29,5-28,5-5.82,0-11.66,1.79-17.46,3C1283.6,860.7,1281.83,861.68,1278.52,863Z"/><path d="M1627.52,1356.07c-7.31.33-12-4-16.27-9-.76-.89-1.33-1.94-2.06-2.85-2.84-3.51-3.34-7.43-3.06-11.89a27.92,27.92,0,0,1,6.56-16.62c1-1.25,1.74-2.78,2.77-4a6.9,6.9,0,0,1,5.34-3,3.38,3.38,0,0,0,1.69-.44c4.2-2.75,8.75-2.1,13.3-1.39a6.38,6.38,0,0,1,5.22,3.68,10.17,10.17,0,0,0,2.21,3.12c4.38,4,6.09,9,6.19,14.79a50.91,50.91,0,0,0,.57,7c.61,3.86.29,7-3.58,9.37-2.92,1.81-5,4.9-7.75,7.09A17.56,17.56,0,0,1,1627.52,1356.07Z"/><path d="M2856.69,1455.69q-1.43-36.24-2.87-72.48c-.33-8.21-1-16.41-1.06-24.62-.31-24.16-.21-48.32-.78-72.46-.16-6.81,2.63-9.19,8.79-10.09,8.48-1.23,16.82-3.55,25.33-4.47a25.65,25.65,0,0,1,12.44,2.18c6.24,2.74,11.47,2.37,17-1.63,16.1-11.71,35.21-16.08,53.82-21.64,16.74-5,33.49.83,50.24.13a117.51,117.51,0,0,1,15.46.63c3.84.35,7.88.69,11.34,2.18,2.4,1,5.6,4.1,5.5,6.12-.13,2.82-2.36,6.72-4.82,8-4.44,2.32-9.73,4.2-14.64,4.13-6-.08-10.51,1.68-15.48,4.91-5.25,3.39-11.61,5.34-17.72,7-5.79,1.6-11.88,2.21-17.88,3-9.14,1.16-16.19,4-19.23,14.27-1.45,4.89-7.07,8.47-10.49,12.88-2.84,3.65-6.35,7.32-7.59,11.57-2.77,9.46-3.19,19.77-11.83,26.57.75,9.34-6.45,16.1-8.28,24.11-4.2,18.35-7.67,37.25-8,56-.31,17.39,2.8,34.61.63,52.44-1.18,9.69-1.85,16.41-11.06,20.48-2.32,1-4.23,3-6.36,4.45-16.76,11.62-36,4.82-39.94-15-2.49-12.62-2.73-25.68-4-38.55Z"/><path d="M3734.29,680c-.59,5.33-1,10.68-1.8,16a267.81,267.81,0,0,0-2.27,40.69c.18,21.82-3.53,43.67-5.59,65.5-8.17,10.14-15.6,21-24.79,30.11-5.2,5.16-12.41,3.62-18.3-2.19-8.54-8.42-12.93-17.11-10.78-30,1.63-9.79-1.05-20.29-1.79-30.48-.89-12.16-1.74-24.33-2.64-36.49-.54-7.29-1.28-14.58-1.7-21.88-.31-5.34-1.81-11.29-.06-16,4.5-12,4.29-23.76,2.21-36-.57-3.31-.83-7.19.35-10.18,8.93-22.62,1.5-45.33.5-67.91-.67-15.09,2.13-19.4,17.35-20.24,11.19-.63,22.36-1.68,33.54-2.34,8.43-.5,11.2,2.43,11.75,11,1.38,21.4,2.95,42.79,4.47,64.18.18,2.43,1.59,5.38.67,7.19C3728.92,653.84,3735,667,3734.29,680Z"/><path d="M3712.6,408.42c2.93,0,5.87,0,8.8,0,20.5.18,30.58,17.38,19.82,34.88-5.55,9-12.62,17.15-19.37,25.37a21,21,0,0,1-8.2,6c-18.36,7.25-34.16,5.87-39.67-19-1.36-6.13-3-12.64-2.28-18.71,2.4-19.89,13.35-28.73,33.56-28.5C3707.71,408.45,3710.15,408.43,3712.6,408.42Z"/><path d="M2007,1233.75l4.86-2.62c.63,1.32,1.68,2.62,1.74,3.95,0,.73-1.9,2.33-2.47,2.14C2009.89,1236.79,2008.94,1235.48,2007,1233.75Z"/><path d="M1291.41,1103.81l.86.57a7.28,7.28,0,0,1-.69.77s-.46-.2-.45-.28A5.93,5.93,0,0,1,1291.41,1103.81Z"/><path d="M789.72,1089.43c-1.84-1.12-3.74-3.28-5.5-3.17-10.42.66-13.92-6.8-17.61-14.2-5.67-11.37-10-23.21-10-36.07a22.17,22.17,0,0,1,3.08-11.3c3.75-6,8.7-5.12,11.2,1.67,3.06,8.34,5.3,17,8.54,25.25,3.87,9.88,8.57,19.42,12.56,29.26.92,2.26.4,5.11.54,7.69Z"/><path d="M905.29,1060.79c-2.4-5.93-6.78-12-6.68-18,.09-5,4.74-10.6,8.66-14.7,1.8-1.89,7.07-1.9,10.12-.87,6.58,2.24,11.45,2.14,15-4.78.68-1.34,3.46-1.62,5.27-2.39.34,2,1.54,4.38.88,6-2.47,6-6.37,10.93-12.82,13.16s-11,5.71-11.54,13.28C913.82,1056.77,911.46,1060.15,905.29,1060.79Z"/><path d="M862.87,1009.47c.35,2.44,1.67,5.24.83,7-3.78,8-4.34,16.33-4.94,24.89-.19,2.64-3.29,5.08-5,7.61-2.29-1.6-5.39-2.73-6.68-4.92a47.49,47.49,0,0,1-5.39-13.33c-2.25-10,5.67-20.51,15.88-21.67A35,35,0,0,1,862.87,1009.47Z"/></svg>